<svg xmlns="http://www.w3.org/2000/svg" viewBox="0 0 167.72 380.62"><defs><style>.cls-1{fill:#d7d8d5;}.cls-2{fill:#3a6480;}.cls-19,.cls-3{fill:#394f6d;}.cls-17,.cls-3{opacity:0.5;}.cls-4{fill:#47799b;}.cls-5{fill:#edeee9;}.cls-6{fill:#6d4733;}.cls-7{fill:#7e533d;}.cls-27,.cls-8{fill:#fbbd90;}.cls-9{fill:#f9a77a;}.cls-10{fill:#fed5b0;}.cls-11{fill:#895b44;}.cls-12,.cls-17{fill:#4691b3;}.cls-13,.cls-27{opacity:0.7;}.cls-14{fill:#fff;}.cls-15{fill:#d3d4d1;opacity:0.4;}.cls-16{fill:#f1f2f2;}.cls-18{fill:#b2bdbb;}.cls-20{fill:#595352;}.cls-21{fill:#bfcac8;}.cls-22{fill:#2d405a;}.cls-23{fill:#6f7878;}.cls-24{fill:#9aa4a3;}.cls-25{fill:#848d8d;}.cls-26{fill:#e3f3f3;}.cls-28{fill:#f8a486;}.cls-29{fill:#523423;}.cls-30{fill:#c28c5c;}.cls-31{fill:#66422f;}.cls-32{fill:#936149;}.cls-33{fill:#996a55;}.cls-34{fill:#050505;}</style></defs><title>doctora</title><g id="OBJECT"><path class="cls-1" d="M157.16,265.25s0,11.07,20.83,22.15C178,287.4,178,270.62,157.16,265.25Z" transform="translate(-32.14 -26.7)"/><path class="cls-2" d="M161.4,332.59c-4.33-21.47-9.34-39.46-13.17-60.07C136.13,284.63,117,286.31,117,286.31l-6.48-15.44L104,288.41c-10.18-2.35-22.43-13.89-28.38-19-6.31,31.87-20.88,77.56-15.21,125.27,0,0,40.31,25.1,104.56,4.65C167.57,362,165.69,353.91,161.4,332.59Z" transform="translate(-32.14 -26.7)"/><path class="cls-3" d="M75.12,272s19.8,21.76,30.12,22.75l5.63-20.28,4.4,14.13s22.28-1.36,33.2-14.84l-.24-1.28-37.67-1.65-34.71-2.51Z" transform="translate(-32.14 -26.7)"/><path class="cls-4" d="M110.56,270.87,117,286.31s19.09-1.68,31.19-13.79c-2.7-14.51-4.47-25.8-4-29.66,1.62-14.51,11.43-28.36,12.5-34.4s-5.64-31.45-5.78-32.12,3.5-19.89,3.5-19.89l-15.33-4-9.28-3.93L112.34,147h-.48l-17.4,1.56L82.33,154l-12.84,1.08,2.81,20.78s-4.84,26.34-4.84,31,10.12,24.37,12.76,32.08c.89,2.59-1.38,14.31-4.57,30.46,3,7.41,19.58,19.2,27.62,21.79Z" transform="translate(-32.14 -26.7)"/><path class="cls-5" d="M149.76,153.68,166.67,158c6.69,2.63,9.75,17.75,9.75,17.75s23.4,41.07,23.44,48.9c0,10.74-6.89,36.55-21.87,62.75,0,0,.4-16.28-20.83-22.15,0,0,10.5-19.79,20.83-38.68,0,0-10.53-20.25-20.62-32.44L152,176A114,114,0,0,0,149.76,153.68Z" transform="translate(-32.14 -26.7)"/><path class="cls-3" d="M121.46,285.63l-2,67.71s26.9-3.59,42.61-17.34l-12.32-55.66Z" transform="translate(-32.14 -26.7)"/><path class="cls-6" d="M145.22,72.35c-3.91-27.92-29.56-34.76-52.68-22.22s-14,57-11.28,70.78c1.8,9.27,7.16,17.48,10.49,21.87l.3,0s-2.61-6.18-2.31-9.94c0,0,.83,4,2.45,6.18,0,0-1.62-8.87-1.08-11,0,0,1.48,7.12,1.88,8.33s12.37-9.14,36.15,0a22.38,22.38,0,0,0,4.44-10.62s.13,7-2.42,12.1c0,0,3.36-.27,4.68-7.93,0,0,1.1,7-2.13,12.9l.14,0C140.89,131.2,148.67,97,145.22,72.35Z" transform="translate(-32.14 -26.7)"/><path class="cls-7" d="M144.89,41.39c-15.65-19.59-39.95-16.86-43.84-7.59,0,0-13-4.72-25.19,14.43-11.91,18.67-6.12,75-4.37,85.85,0,0,11.68,8,20.26,8.7-3.33-4.39-8.69-12.6-10.49-21.87-2.69-13.8-11.83-58.24,11.28-70.78s48.77-5.7,52.68,22.22c3.45,24.6-4.33,58.85-11.37,70.44,1.58-.3,17.74-3.42,20.42-10.19C159.5,119.4,161.22,61.84,144.89,41.39Z" transform="translate(-32.14 -26.7)"/><rect class="cls-8" x="66.05" y="93.49" width="27.77" height="27.41"/><ellipse class="cls-8" cx="78.67" cy="93.45" rx="8" ry="12.77" transform="translate(-68.28 25.04) rotate(-29.94)"/><path class="cls-9" d="M98.19,128.67s9,7.75,12.37,7.93,15.4-6.52,15.4-6.52v-6.25H98.19Z" transform="translate(-32.14 -26.7)"/><path class="cls-8" d="M138.1,89.46c-3.52,6.11-3.27,12.85.56,15.06s9.78-1,13.3-7.08,3.27-12.85-.56-15S141.62,83.35,138.1,89.46Z" transform="translate(-32.14 -26.7)"/><path class="cls-10" d="M143.9,88.23c0,25.64-21.91,43.7-31.83,43.7-9,0-31.82-18.06-31.82-43.7S94.5,45.92,112.07,45.92,143.9,62.58,143.9,88.23Z" transform="translate(-32.14 -26.7)"/><path class="cls-11" d="M127.19,38.65a35.39,35.39,0,0,0-24.68-1.86h0c-46.51,11-22.7,78.35-22.7,78.35a171.43,171.43,0,0,1,2-40.12c0,.42,2.55-9.2,2.47-7.63s-2.09,16.9-2,18.06A150.93,150.93,0,0,0,102,78L103.6,68l1.83,8.35S129.18,66.4,134,59.41a15,15,0,0,1,2.58,5.72s2.28,6.46,2.28,11.83c0,0,2.29-3,2.39-10.33,1.26,9.1,3.82,30.52,2.69,48.5C143.89,115.13,165.56,53.87,127.19,38.65Z" transform="translate(-32.14 -26.7)"/><polygon class="cls-12" points="66.05 109.53 79.72 120.91 73.75 138.96 62.19 122.3 66.05 109.53"/><polygon class="cls-12" points="93.87 109.53 80.2 120.91 86.17 138.96 97.72 122.3 93.87 109.53"/><path class="cls-5" d="M100.1,231.16l-5.38-82.78-9.06,3.76-10.57,1.54s-4.47,18.71-3.39,23.19c0,0-6.45,23.65-6.63,30.46s12.72,22.21,13.61,38.52l-2.53,5.38s.62,2.68,1.35,5.1c0,0-14.37,46.92-17.3,68.37,7,4.46,24.57,15.07,41.1,19.86Z" transform="translate(-32.14 -26.7)"/><path class="cls-14" d="M60.2,324.45a52.89,52.89,0,0,0-.51,5.81s21.77,13.17,41.66,18.55l0-4.5C84.77,339.52,67.18,328.91,60.2,324.45Z" transform="translate(-32.14 -26.7)"/><path class="cls-5" d="M164.41,324.2c-3.07-21.67-17.23-67.87-17.23-67.87.74-2.42,1.35-5.1,1.35-5.1L146,245.85c.9-16.31,14.86-25.6,13.62-38.52-.65-6.78-6.63-30.46-6.63-30.46,1.08-4.48-3.23-23.19-3.23-23.19L139,152.14,130,148.38l-5.38,82.78L123.39,344C131.31,341.55,155.38,333.6,164.41,324.2Z" transform="translate(-32.14 -26.7)"/><path class="cls-14" d="M123.39,344l0,5.09c19.88-5.38,41.66-18.55,41.66-18.55a53,53,0,0,0-.59-6.31C155.38,333.6,131.31,341.55,123.39,344Z" transform="translate(-32.14 -26.7)"/><path class="cls-14" d="M94.72,148.38l5.38,82.78s-20.43-24-19.36-50.71l7-3.94-8.06-1.8,6-22.57Z" transform="translate(-32.14 -26.7)"/><path class="cls-14" d="M130,148.38l-5.38,82.78s20.43-24,19.36-50.71l-7-3.94,8.06-1.8-6-22.57Z" transform="translate(-32.14 -26.7)"/><path class="cls-15" d="M133.92,294.92s14.53.54,20.31-3.75l2,20.35-7.33,7.87-13.31-4.9Z" transform="translate(-32.14 -26.7)"/><path class="cls-14" d="M154.35,292.93c-7.81,4.35-16.56,4.71-19.44,4.7l2.55,16.23,13.17,3.89,6.53-8.28Z" transform="translate(-32.14 -26.7)"/><path class="cls-16" d="M154.35,292.93l-.58-3.42c-5.27,4.65-19.33,5.15-19.33,5.15l.47,3C137.79,297.64,146.54,297.28,154.35,292.93Z" transform="translate(-32.14 -26.7)"/><path class="cls-15" d="M153.77,289.51h-3.48l.33,1.95A23.32,23.32,0,0,0,153.77,289.51Z" transform="translate(-32.14 -26.7)"/><path class="cls-15" d="M90.83,293s-15.18.56-21.21-3.91l-2.13,21.25,7.65,8.21L89,313.48Z" transform="translate(-32.14 -26.7)"/><path class="cls-14" d="M69.49,291c8.16,4.53,17.3,4.92,20.31,4.91l-2.66,16.94-13.76,4.06-6.82-8.65Z" transform="translate(-32.14 -26.7)"/><path class="cls-16" d="M69.49,291l.61-3.57c5.5,4.85,20.18,5.37,20.18,5.37l-.48,3.11C86.79,295.89,77.65,295.5,69.49,291Z" transform="translate(-32.14 -26.7)"/><path class="cls-15" d="M70.1,287.4h3.63l-.34,2A25.08,25.08,0,0,1,70.1,287.4Z" transform="translate(-32.14 -26.7)"/><path class="cls-17" d="M111.86,147.6,111.64,182l-1.08,88.84L117,286.31s2.73.14,3.64-.54l-6.78-16.39L115,155.67l-2.67-8.07Z" transform="translate(-32.14 -26.7)"/><path class="cls-5" d="M111.41,269.38a1,1,0,1,1,1,1A1,1,0,0,1,111.41,269.38Z" transform="translate(-32.14 -26.7)"/><path class="cls-5" d="M111.41,246.48a1,1,0,1,1,1,1A1,1,0,0,1,111.41,246.48Z" transform="translate(-32.14 -26.7)"/><path class="cls-5" d="M111.71,227.59a1,1,0,1,1,1,1A1,1,0,0,1,111.71,227.59Z" transform="translate(-32.14 -26.7)"/><circle class="cls-5" cx="81.1" cy="182" r="1.02"/><path class="cls-5" d="M112.22,190.07a1,1,0,1,1,1,1A1,1,0,0,1,112.22,190.07Z" transform="translate(-32.14 -26.7)"/><path class="cls-5" d="M112.22,170.92a1,1,0,1,1,1,1A1,1,0,0,1,112.22,170.92Z" transform="translate(-32.14 -26.7)"/><path class="cls-18" d="M81.78,203.55h0l0-.05-.42-.94h0a45.19,45.19,0,0,0-4.6-7.34,2.77,2.77,0,0,1,2.78-2.3,78.8,78.8,0,0,1,5.27,9s6.31,14.2,11.36,18.7a1.15,1.15,0,0,1,1.11-.26c.74.17,2.42,2.84,1.47,3.41a3.1,3.1,0,0,1-3.11.16C94.68,223.41,89.61,221.08,81.78,203.55Z" transform="translate(-32.14 -26.7)"/><path class="cls-19" d="M96.16,142.91l1-3.32c-18.23,2.35-17.47,25.12-16.45,34.1-2.09.93-4.25,2.91-5.42,7-2.7,9.51,1.63,14.66,1.63,14.66a3.27,3.27,0,0,1,2.72-2.21,15.35,15.35,0,0,1-1.21-11.41c1.73-6.8,8.17-5.3,9.95-4S91.92,186,91,190c0,0,1.82-1.35,3.21,0,0,0,1.41-15.43-8.11-17a9,9,0,0,0-2.49-.1C81.52,143.57,96.16,142.91,96.16,142.91Z" transform="translate(-32.14 -26.7)"/><path class="cls-20" d="M88.82,221.84a2,2,0,0,0-1.76-1.42c-1.5-.19-3.83-.54-4.45,1.08s-.5,4.14,1.56,4.54,3.88.88,4.22-.15C88.39,225.89,89.26,222.94,88.82,221.84Z" transform="translate(-32.14 -26.7)"/><path class="cls-21" d="M93.58,199.71h0v-.05l-.06-1h0a45.37,45.37,0,0,1,.71-8.63S93,188.08,91,190a46.88,46.88,0,0,0-.85,9.72s.92,15.5-1.49,21.82a1.17,1.17,0,0,0-1.11.28c-.58.49-.85,3.63.26,3.7a3.09,3.09,0,0,0,2.83-1.29C91.24,223.28,94.67,218.88,93.58,199.71Z" transform="translate(-32.14 -26.7)"/><path class="cls-20" d="M96.17,221a2,2,0,0,1,.9-2.08c1.25-.86,3.17-2.24,4.46-1.09s2.34,3.46.7,4.76-3,2.56-3.82,1.8C98.41,224.42,96.29,222.2,96.17,221Z" transform="translate(-32.14 -26.7)"/><path class="cls-22" d="M94.09,140.22A6.7,6.7,0,0,1,92.81,144a9.62,9.62,0,0,1,3.35-1.06l1-3.32A31.3,31.3,0,0,0,94.09,140.22Z" transform="translate(-32.14 -26.7)"/><ellipse class="cls-23" cx="98.23" cy="170.55" rx="7.96" ry="7.82"/><circle class="cls-24" cx="130.54" cy="196.64" r="7.82" transform="translate(-132.95 123.2) rotate(-45)"/><path class="cls-19" d="M126.92,139.59l1.06,3.53s7,1,7.34,19.2-5.18,28.86-5.18,28.86a6,6,0,0,1,4.2,2.43s5.93-20.13,4.55-35.62C138.13,149.39,134.61,141.36,126.92,139.59Z" transform="translate(-32.14 -26.7)"/><circle class="cls-25" cx="98.4" cy="169.41" r="5.66"/><path class="cls-21" d="M129.51,191.4a30.78,30.78,0,0,0,1.83-4s3.41-.76,4.7,1.75a49.75,49.75,0,0,1-1.4,5S133.61,191.55,129.51,191.4Z" transform="translate(-32.14 -26.7)"/><path class="cls-21" d="M125.57,195.69a5,5,0,1,1,5,5A5,5,0,0,1,125.57,195.69Z" transform="translate(-32.14 -26.7)"/><path class="cls-26" d="M127.47,195a3.45,3.45,0,1,1,3.45,3.45A3.44,3.44,0,0,1,127.47,195Z" transform="translate(-32.14 -26.7)"/><path class="cls-22" d="M129.18,140.34a5,5,0,0,0-.31,3.11,3.5,3.5,0,0,0-.89-.33l-1.06-3.53A9,9,0,0,1,129.18,140.34Z" transform="translate(-32.14 -26.7)"/><path class="cls-5" d="M75.09,153.68,58.18,158c-6.68,2.63-5.74,18.76-5.74,18.76S31,234.84,32.19,242.57c1.37,8.6,13.55,34.05,42.2,43.45,0,0-7.43-25.37,14.35-34.29,0,0-18.76-.33-28.54-12a4.49,4.49,0,0,1-2.9-5.82c1.38-4.47,5.72-22.58,10.19-39.79l4.21-17.26A194.74,194.74,0,0,1,75.09,153.68Z" transform="translate(-32.14 -26.7)"/><path class="cls-1" d="M88.74,251.73S66.59,262.63,74.39,286C74.39,286,92.58,276.33,88.74,251.73Z" transform="translate(-32.14 -26.7)"/><polygon class="cls-7" points="31.82 217.56 14.82 173.96 59.36 179.28 79.22 253.2 43.27 246.1 31.82 217.56"/><path class="cls-5" d="M54.39,229.37s16.3,18.1,35.09,22.36a25.32,25.32,0,0,0-16.49,21l-10.76-9.26S51.37,241.17,54.39,229.37Z" transform="translate(-32.14 -26.7)"/><path class="cls-10" d="M163.5,267.57s-2.27,3.91-4.55,7.63c0,0-8.35-12.3-16.7-13.67s-10.55,5-10.55,5a3.89,3.89,0,0,0,5,1.1c3.15-1.51,6.12-1.36,7.9.61,0,0-4-2.12-10.63,3.27,0,0,1,3.72,4.51,2.81s10.82,0,11.18.14-11.54-.6-12.43,1.38.92,2.88,3.06,2.73,9.93,1.37,9.93,1.37-7.94.45-8.25,1.06-.3,2.58,1.37,2.73,8.68-1.21,9.88,0,2.72,8.87,6.52,8.54S175.84,279,175.84,279,173.7,273,163.5,267.57Z" transform="translate(-32.14 -26.7)"/><polygon class="cls-1" points="107.84 177.23 121.63 177.76 121.63 180.98 106.54 180.62 107.84 177.23"/><path class="cls-1" d="M156.81,192.23s-3.73-12.63-5.4-16.74c0,0,4.57,4.59,5.4,8.37,0,0,6.75-18.69,10.7-24,0,0-7,15.8-8.73,26.12,0,0,8.12-5.92,8.73-7,0,0-9.67,13-9.92,16.36Z" transform="translate(-32.14 -26.7)"/><path class="cls-1" d="M66.93,196.11s4.1-14.56,4.59-18.51.18-.73.18-.73-1.13,1.36-3.16,7.59c0,0-5.82-18.68-9.92-24.61,0,0,6.64,15.8,6.58,24.45a32.74,32.74,0,0,0-5-6.7S66.13,190.6,66.93,196.11Z" transform="translate(-32.14 -26.7)"/><path class="cls-1" d="M57.66,232.68a17.7,17.7,0,0,0-13.93,1.69S50.7,226.07,57.66,232.68Z" transform="translate(-32.14 -26.7)"/><path class="cls-1" d="M191.91,224.73a17.65,17.65,0,0,0-13.92,1.7S185,218.13,191.91,224.73Z" transform="translate(-32.14 -26.7)"/><path class="cls-1" d="M57.66,232.69s-2.75-4.22-6-6.22C51.63,226.47,57.68,226.79,57.66,232.69Z" transform="translate(-32.14 -26.7)"/><path class="cls-1" d="M184.83,220s-4.49,2.27-6.84,5.31C178,225.34,179,219.37,184.83,220Z" transform="translate(-32.14 -26.7)"/><path class="cls-14" d="M158.46,262.81s17.76,2.06,22,20.09L178,287.4s-.28-16.07-20.83-22.15Z" transform="translate(-32.14 -26.7)"/><path class="cls-27" d="M163.43,267.68l-.75,1.29s8.48,4.74,9.74,13.45l3.19-3.2A27.83,27.83,0,0,0,163.43,267.68Z" transform="translate(-32.14 -26.7)"/><path class="cls-3" d="M62.58,331.94l-.42,2.74S83.83,351.14,99.27,353v-4.74A182.44,182.44,0,0,1,62.58,331.94Z" transform="translate(-32.14 -26.7)"/><path class="cls-28" d="M108.51,102.15s3.26-10.67,7.66,0C116.17,102.15,111.77,96.65,108.51,102.15Z" transform="translate(-32.14 -26.7)"/><path class="cls-29" d="M136.79,82.4a5.52,5.52,0,0,0-.23-.71,9.46,9.46,0,0,0-.88-1.75,11.18,11.18,0,0,0-.77-1,10,10,0,0,0-1-1,7.66,7.66,0,0,0-1.25-.9,11.12,11.12,0,0,0-1.44-.68,9.32,9.32,0,0,0-1.55-.41c-.54-.06-1-.21-1.54-.23s-1-.17-1.46-.25-.92-.11-1.34-.18a11.8,11.8,0,0,0-1.17-.17l-.92-.15c-.52-.1-.83-.19-.83-.19l0-.19a7,7,0,0,1,.77-.32,9.28,9.28,0,0,1,2.13-.56c.46-.07,1-.11,1.49-.14a9.89,9.89,0,0,1,1.69.12,8.36,8.36,0,0,1,1.77.49,14.52,14.52,0,0,1,1.72.76,14,14,0,0,1,1.57,1,10,10,0,0,1,1.29,1.21,9,9,0,0,1,1,1.28,10.51,10.51,0,0,1,.62,1.27,8.39,8.39,0,0,1,.57,2,6.06,6.06,0,0,1,.07.77Z" transform="translate(-32.14 -26.7)"/><path class="cls-29" d="M86.11,85.38a6.67,6.67,0,0,1,.18-.82,9.28,9.28,0,0,1,.83-2.07,10.32,10.32,0,0,1,.8-1.29,9.83,9.83,0,0,1,1.17-1.27,10.89,10.89,0,0,1,1.49-1.15,13,13,0,0,1,1.75-.88,12.71,12.71,0,0,1,1.87-.6,8.36,8.36,0,0,1,1.88-.3,10.11,10.11,0,0,1,1.77.1c.54.1,1.05.22,1.52.35a9.28,9.28,0,0,1,2.13.9,7.82,7.82,0,0,1,.76.45l-.06.21a7.82,7.82,0,0,1-.88.09c-.28,0-.61,0-1,0s-.78,0-1.22,0-.92,0-1.41,0-1,.07-1.54.07-1.06,0-1.62,0a9.25,9.25,0,0,0-1.65.24,10.94,10.94,0,0,0-1.58.55,8.38,8.38,0,0,0-1.4.81,10.51,10.51,0,0,0-1.2,1,12.25,12.25,0,0,0-.93,1,9.63,9.63,0,0,0-1.13,1.79,5.3,5.3,0,0,0-.33.74Z" transform="translate(-32.14 -26.7)"/><path class="cls-30" d="M86,50a15.65,15.65,0,0,0-4.91,11.09C81,68.12,87.13,50.52,86,50Z" transform="translate(-32.14 -26.7)"/><path class="cls-30" d="M88.92,51.58a10.06,10.06,0,0,0-2.09,7.51C87.43,63.55,89.71,51.78,88.92,51.58Z" transform="translate(-32.14 -26.7)"/><path class="cls-30" d="M93.08,52.77a7.14,7.14,0,0,0-1.48,5.31C92,61.23,93.63,52.92,93.08,52.77Z" transform="translate(-32.14 -26.7)"/><polygon class="cls-31" points="59.36 179.28 58.14 180.98 78.42 253.04 79.22 253.2 59.36 179.28"/><path class="cls-10" d="M86.36,253.1s.28-7.69,3.12-8.91A68.65,68.65,0,0,0,96.69,241c1-.71,3.34,1.82,1.11,4.05s-3.34,4.05-3,4.35,8.81-4.77,10.53-2.38.13,5.52-.4,6.13.9,1.46,1.18,4.76,2.44,3.55,1.44,7.6-25.87,13.3-34.34,6C73.17,271.48,73.17,260,86.36,253.1Z" transform="translate(-32.14 -26.7)"/><path class="cls-27" d="M83.83,254.58s-7.16,10.73-5.27,19.26c0,0-3.91-.73-5.39-2.36A21.49,21.49,0,0,1,83.83,254.58Z" transform="translate(-32.14 -26.7)"/><path class="cls-14" d="M84.43,250.25S65,258.06,70.71,284.69L74.39,286s-7.47-22.39,12-32.92l.19-2.15Z" transform="translate(-32.14 -26.7)"/><polygon class="cls-32" points="58.14 180.98 15.6 175.97 14.82 173.96 59.36 179.28 58.14 180.98"/></g><g id="Capa_3" data-name="Capa 3"><path class="cls-14" d="M87.08,87.05s8-9.28,16.59,0C103.67,87.05,97.75,95,87.08,87.05Z" transform="translate(-32.14 -26.7)"/><circle class="cls-33" cx="63.23" cy="59.69" r="3.33"/><circle class="cls-34" cx="63.46" cy="60.14" r="2.25"/><circle class="cls-14" cx="64.82" cy="58.49" r="0.79"/><path d="M102,85a11.67,11.67,0,0,0-2-1.29,9.68,9.68,0,0,0-4.64-1.16,10.34,10.34,0,0,0-4.64,1.15,10.74,10.74,0,0,0-1.44.89l-.25,0-.41-.06a5.5,5.5,0,0,1-.83-.24,6.39,6.39,0,0,0,.75.48l.29.12-.06,0-.19.05a2.73,2.73,0,0,1-.41,0,6.33,6.33,0,0,1-.86-.06,5.89,5.89,0,0,0,.83.31l.2,0a9.83,9.83,0,0,0-1.27,1.31,17.36,17.36,0,0,1,4-2.23,11.65,11.65,0,0,1,4.33-.86,5,5,0,0,1,1.09,0,6.51,6.51,0,0,1,1.09.16l1.08.26,1,.4.53.19.5.27,1,.52c.66.37,1.27.84,2,1.24C103.14,86.11,102.58,85.55,102,85Z" transform="translate(-32.14 -26.7)"/><path class="cls-14" d="M138,86.94s-8-9.57-16.58,0C121.38,86.94,127.29,95.09,138,86.94Z" transform="translate(-32.14 -26.7)"/><circle class="cls-33" cx="97.53" cy="59.45" r="3.33"/><circle class="cls-34" cx="97.3" cy="59.9" r="2.25"/><circle class="cls-14" cx="95.94" cy="58.25" r="0.79"/><path d="M123.05,84.79a11.81,11.81,0,0,1,2-1.29,9.68,9.68,0,0,1,4.64-1.16,10.34,10.34,0,0,1,4.64,1.15,11.87,11.87,0,0,1,1.44.89.94.94,0,0,0,.25,0l.41-.06a5.19,5.19,0,0,0,.83-.24,6.39,6.39,0,0,1-.75.48l-.28.13.06,0,.18,0a2.73,2.73,0,0,0,.41,0,5,5,0,0,0,.86-.06,5.46,5.46,0,0,1-.83.31l-.2,0A11.2,11.2,0,0,1,138,86.43a17.36,17.36,0,0,0-4-2.23,11.59,11.59,0,0,0-4.32-.86,5,5,0,0,0-1.1,0,5.75,5.75,0,0,0-1.09.17l-1.08.25-1,.4-.53.19-.5.27-1,.52c-.67.37-1.27.85-2,1.24C121.91,85.87,122.46,85.31,123.05,84.79Z" transform="translate(-32.14 -26.7)"/></g><g id="sonriza"><path class="cls-5" d="M103.67,113.63s8.58,7.75,17.71,0Z" transform="translate(-32.14 -26.7)"/></g></svg>