<?xml version="1.0" encoding="utf-8"?>
<!-- Generator: Adobe Illustrator 22.0.0, SVG Export Plug-In . SVG Version: 6.00 Build 0)  -->
<svg version="1.1" id="Layer_1" xmlns="http://www.w3.org/2000/svg" xmlns:xlink="http://www.w3.org/1999/xlink" x="0px" y="0px"
	 viewBox="0 0 141.7 141.7" style="enable-background:new 0 0 141.7 141.7;" xml:space="preserve">
<style type="text/css">
	.st0{fill:#C0E7F1;}
	.st1{opacity:0.55;}
	.st2{fill:#6B7072;}
	.st3{fill:#349980;}
	.st4{opacity:0.52;fill:#C1A98A;}
	.st5{opacity:0.28;fill:#F2F2F2;}
	.st6{fill:#FFFFFF;}
	.st7{opacity:0.33;}
	.st8{fill:#81878A;}
	.st9{fill:#BBABA7;}
</style>
<g>
	<path class="st0" d="M113.2,32C103.6,44.6,91.9,54.1,80,63.9l-2-1.7c0,0,0-0.1,0.1-0.1l-1.4-1.2c7.9-13.3,15.5-26.3,26.4-37.6
		c2.4-2.5,9.8-9.4,13.6-7l1.4,1.4C120.9,20.9,115.3,29.3,113.2,32z"/>
	<g class="st1">
		<path class="st2" d="M113.2,32C103.6,44.6,91.9,54.1,80,63.9l-2-1.7c0,0,0-0.1,0.1-0.1l0.6,0.5c11.9-9.8,23.6-19.3,33.1-31.9
			c1.9-2.5,6.8-9.7,5.5-13.5c-0.1-0.4-0.3-0.7-0.6-1l1.4,1.4C120.9,20.9,115.3,29.3,113.2,32z"/>
	</g>
	<path class="st3" d="M130.7,64.9c0,2.8-0.2,5.6-0.6,8.4c-0.1,1-0.3,2-0.5,2.9c-0.2,1.1-0.4,2.3-0.7,3.4c-0.4,1.5-0.8,3-1.3,4.4
		c-0.7,2.2-1.5,4.3-2.5,6.3c-0.4,0.8-0.7,1.6-1.1,2.3c-0.7,1.5-1.5,2.9-2.4,4.2c-0.3,0.5-0.6,1-0.9,1.5c-0.6,0.9-1.2,1.8-1.8,2.6
		c-1,1.3-2,2.6-3,3.8c-0.8,1-1.7,1.9-2.6,2.8c-0.8,0.8-1.6,1.6-2.4,2.3c-3.4,3.1-7.2,5.9-11.2,8.1H39.8c-4-2.3-7.8-5-11.2-8.1
		c-0.8-0.8-1.6-1.5-2.4-2.3c-0.9-0.9-1.8-1.9-2.6-2.8c-1.1-1.2-2.1-2.5-3-3.8c-0.6-0.9-1.2-1.7-1.8-2.6c-0.3-0.5-0.6-1-0.9-1.5
		c-0.9-1.4-1.7-2.8-2.4-4.2c-0.4-0.8-0.8-1.5-1.1-2.3c-0.9-2.1-1.8-4.2-2.5-6.3c-0.5-1.4-0.9-2.9-1.3-4.4c-0.3-1.1-0.5-2.2-0.7-3.4
		c-0.2-1-0.4-1.9-0.5-2.9c-0.4-2.7-0.6-5.5-0.6-8.4H130.7z"/>
	<path class="st4" d="M130.7,64.9c0,2.8-0.2,5.6-0.6,8.4c-0.1,1-0.3,2-0.5,2.9c-0.2,1.1-0.4,2.3-0.7,3.4c-0.4,1.5-0.8,3-1.3,4.4
		c-0.7,2.2-1.5,4.3-2.5,6.3c-0.4,0.8-0.7,1.6-1.1,2.3c-0.7,1.5-1.5,2.9-2.4,4.2c-0.3,0.5-0.6,1-0.9,1.5c-0.6,0.9-1.2,1.8-1.8,2.6
		c-1,1.3-2,2.6-3,3.8c-0.8,1-1.7,1.9-2.6,2.8c-0.8,0.8-1.6,1.6-2.4,2.3c-3.4,3.1-7.2,5.9-11.2,8.1H71.1c3.5-2.3,6.7-5,9.6-8.1
		c0.7-0.8,1.4-1.5,2-2.3c0.8-0.9,1.5-1.9,2.2-2.8c0.9-1.2,1.8-2.5,2.6-3.8c0.5-0.9,1.1-1.7,1.5-2.6c0.3-0.5,0.5-1,0.8-1.5
		c0.7-1.4,1.4-2.8,2-4.2c0.3-0.8,0.7-1.5,1-2.3c0.8-2.1,1.5-4.2,2.1-6.3c0.4-1.4,0.8-2.9,1.1-4.4c0.2-1.1,0.4-2.2,0.6-3.4
		c0.2-1,0.3-1.9,0.4-2.9c0.3-2.7,0.5-5.5,0.5-8.4H130.7z"/>
	<path class="st5" d="M130.1,73.2c-0.1,1-0.3,2-0.5,2.9H9.8c-0.2-1-0.4-1.9-0.5-2.9H130.1z"/>
	<path class="st5" d="M128.9,79.5c-0.4,1.5-0.8,3-1.3,4.4H11.7c-0.5-1.4-0.9-2.9-1.3-4.4H128.9z"/>
	<path class="st5" d="M125.1,90.3c-0.4,0.8-0.7,1.6-1.1,2.3H15.4c-0.4-0.8-0.8-1.5-1.1-2.3H125.1z"/>
	<path class="st5" d="M113.2,107.5c-0.8,0.8-1.6,1.6-2.4,2.3H28.5c-0.8-0.8-1.6-1.5-2.4-2.3H113.2z"/>
	<path class="st5" d="M121.6,96.8c-0.3,0.5-0.6,1-0.9,1.5h-102c-0.3-0.5-0.6-1-0.9-1.5H121.6z"/>
	<path class="st5" d="M118.9,100.9c-1,1.3-2,2.6-3,3.8H23.5c-1.1-1.2-2.1-2.5-3-3.8H118.9z"/>
	<path class="st6" d="M119.8,64.9H19.6c0-2-1.3-5.3-0.7-6.6c1.4-2.5,4.3-1.4,6.5-1.2c2.3,0.2,4.3,0.2,6.5-1.2c2.9-2,2.2-4.5,6.3-3.7
		c3.1,0.6,3.9,1.2,6.8,0.2c3.5-1.4,3.9-2.7,6.3-5.5c4.9-5.9,10.6,0.4,16.2,1.4c4.3,1,3.5-1.6,7.8-1.8c4.5-0.2,5.3-0.2,7.8,2.9
		c3.5,4.1,8.8,1.6,13.5,1c3.1-0.4,6.4-0.4,8,2.9c1.4,2.7-0.2,4.3,3.7,5.3c2.1,0.6,5.7-0.6,7.4,0.6C116.1,59.6,118.8,63.3,119.8,64.9
		z"/>
	<g class="st7">
		<path class="st8" d="M96.3,47.4c-1.4,1.3-2.8,2.6-4.3,3.8c-3.2,0.6-6.4,1-8.8-1.6c1-1.7,2.1-3.3,3.1-5c1.6,1.5,3.3,2.6,5.6,2.7
			C93.4,47.4,94.9,47.3,96.3,47.4z"/>
	</g>
	<g class="st7">
		<path class="st9" d="M119.8,64.9h-10.6c-0.6-0.9-1.6-1.4-2.6-2.1c-0.9-0.6-2.5-1.5-2.9-2.4c-0.6-0.9-0.2-1.5-0.2-2.5
			c0.1-3.5-1.4-5.9-3.9-7.5c2,0.1,3.9,0.9,4.9,3.1c1.4,2.7-0.2,4.3,3.7,5.3c2.1,0.6,5.7-0.6,7.4,0.6
			C116.1,59.6,118.8,63.3,119.8,64.9z"/>
	</g>
	<g class="st7">
		<path class="st9" d="M90.7,51.5c-2.1,0.8-4.2,1.5-6.6,1.5c-1.9,0-3.6-0.4-5.1-1.8c-1.4-1.4-2.3-3.6-4-4.8c0.1,0,0.2,0,0.2,0
			c4.5-0.2,5.3-0.2,7.8,2.9C85.1,51.9,87.8,52,90.7,51.5z"/>
	</g>
	<g class="st7">
		<path class="st9" d="M86.7,64.9h-24c0.7-0.5,1.4-0.8,2.5-0.9c2.3-0.3,5.7,0.7,7.7-0.2c3.4-1.5-5.1-2.7-0.6-3.2
			c2.8-0.3,6.5,0.8,9.1,1.7C83.1,62.7,84.9,63.9,86.7,64.9z"/>
	</g>
</g>
</svg>
