<?xml version="1.0" encoding="utf-8"?>
<!-- Generator: Adobe Illustrator 22.0.0, SVG Export Plug-In . SVG Version: 6.00 Build 0)  -->
<svg version="1.1" id="Layer_1" xmlns="http://www.w3.org/2000/svg" xmlns:xlink="http://www.w3.org/1999/xlink" x="0px" y="0px"
	 viewBox="0 0 141.7 141.7" style="enable-background:new 0 0 141.7 141.7;" xml:space="preserve">
<style type="text/css">
	.st0{fill:#F49294;}
	.st1{fill:#F17171;}
	.st2{fill:#FFFFFF;}
</style>
<g>
	<path class="st0" d="M126.7,86.1c-0.5,7.9,0.5,15.8-8,19.3c-14.5,5.8-33.6,8-49.1,7.8c-12.7-0.2-25.7-2.9-38-5.8
		c-7.3-1.7-17.2-4.3-21.4-11.2C5.8,89.1,7,79.3,10.1,72L126.7,86.1z"/>
	<path class="st1" d="M126.1,90.5c7.1-12-7.6-20.8-16.4-22.3c-5.3-0.9-10.4-1.5-15.6-3.2c-10-3.3-19.2-9.1-27.8-15.7
		c-6.9-5.3-13.2-6.9-20.7-2.1c-6.2,3.9-10.5,11-16.8,14.6c-5.5,3.2-12.1,2-17.5,5.8C3,73.7,7.8,83.2,14.6,88
		c11.7,8.2,27,8.7,40.4,9.4c12.8,0.7,25.4,2.6,38.2,3.5C103.6,101.7,119.6,101.6,126.1,90.5z"/>
	<path class="st2" d="M45.9,80c0.8-4.4-12.7-8.5-15.8-8.3c-4,0.3-8.3,2.5-6.5,7.1c2.1,5.2,11.3,4.9,15.6,4.2
		C40.9,82.8,45.4,82.3,45.9,80z"/>
	<path class="st0" d="M58.3,70.9c-4.7-0.8-17.9,1.5-15.4-7.1c1.8-6.2,10.3-9.9,16.1-8C67.9,58.7,70.9,73.1,58.3,70.9z"/>
	<path class="st0" d="M60.1,93.1c-5.5,0-12-3.2-10.5-9.8c1.3-5.8,6.6-5.8,11.2-6.4c5-0.6,9.1-3.5,12.6-7c6.4-6.6,10.9-1.1,17.5,3.2
		c6.2,4,11,9.4,2.8,15.2C85.4,94.3,70.1,93,60.1,93.1z"/>
	<path class="st0" d="M98.1,93.6c1.9-3.3,5.5-4.6,7.5-7.7c2-3.1,0.7-4.7,0.8-8c6.9-1.2,12.9,1.5,12.9,9.3c0,4.9-3.5,7.4-8,8.1
		c-3,0.5-10.4,0.8-13.2-1.3V93.6z"/>
	<path class="st0" d="M29.2,77.6c-1.8,2.4,7.6,4.7,10.5,3c5.4-3.1-6.5-5-8.8-4.1C30,76.8,29.5,77.2,29.2,77.6z"/>
	<path class="st2" d="M60.8,77.8c5.9-0.2,9.7-3.5,14.9-5.5c2.6-1,5.2-1.7,8-0.9c2.6,0.7,4.5,3.5,7,4c5.5,1.2,1.7-4.6-0.9-6.6
		c-3.7-2.7-9.3-3.8-13.5-2.2c-5.5,2-10.3,7.3-15,10.7L60.8,77.8z"/>
	<path class="st2" d="M55.4,70.9c-4.4-2.8-14.7-7.1-7.9-13.7c-4.5,1-8.9,6-7,11c2.5,6.4,14.3,4.6,19.1,2.7H55.4z"/>
	<path class="st2" d="M106,86.1c0.1,2.8-11.5,4.4-12.9,8.7c4.5,5.1,14.8,0.1,20.2,0.9c-3.7-1.2-8-0.1-11.4-1.8
		c-1.4-2.7,0.4-4.9,2.8-6.2L106,86.1z"/>
</g>
</svg>
