<?xml version="1.0" encoding="utf-8"?>
<!-- Generator: Adobe Illustrator 22.0.0, SVG Export Plug-In . SVG Version: 6.00 Build 0)  -->
<svg version="1.1" id="Layer_1" xmlns="http://www.w3.org/2000/svg" xmlns:xlink="http://www.w3.org/1999/xlink" x="0px" y="0px"
	 viewBox="0 0 141.7 141.7" style="enable-background:new 0 0 141.7 141.7;" xml:space="preserve">
<style type="text/css">
	.st0{fill:#609340;}
	.st1{fill:#522D1B;}
	.st2{fill:#D0442E;}
	.st3{fill:#C73C27;}
	.st4{fill:#FFF6D5;}
	.st5{fill:#EDD692;}
	.st6{fill:#51250C;}
	.st7{fill:#584B29;}
</style>
<g>
	<g>
		<g>
			<g>
				<g>
					<path class="st0" d="M101.6,21.3c-5.4,1.3-9.1,5.8-9,10.5c3.4-2.9,7.8-5.2,13-6.3c5.8-1.3,11.4-1.1,16,0.4
						c-4.3-1.1-9.4-1.3-14.6,0c-4.3,1-8.1,2.8-11.2,5c0,0,0,0,0,0c-1.5,0.7-3.3,2.4-4.4,3.5c0.2,0.4,0.4,0.9,0.6,1.5
						c0-0.1-0.1-0.2-0.1-0.3c0.4-0.4,0.8-0.9,1.2-1.2c1.6,5,7.3,7.9,13.1,6.5c8.2-2,13-14.6,20.5-12.9
						C126.6,27.9,117,17.5,101.6,21.3z"/>
					<path class="st1" d="M91.3,34.3c-2.3-4.6-5.4-6.6-5.7-6.8c-1.5-1.3-3.8-1.1-5.1,0.4c-1.3,1.5-1.1,3.8,0.4,5.1
						c0.1,0.1,6.7,3.7,5.4,15.2c1.2,0.3,2.2,0.7,2.7,1.1c0,0,1.8-0.6,4.6-1.2c0.4-5.2-0.4-9.3-1.6-12.3
						C91.7,35.3,91.4,34.7,91.3,34.3C91.3,34.3,91.3,34.3,91.3,34.3z"/>
				</g>
				<g>
					<path class="st2" d="M88.9,49.3c-0.6-0.4-1.6-0.7-2.7-1.1v0c-1.4-0.4-3.2-0.7-5.2-1.1c-1.4-0.2-2.7-0.4-3.7-0.5
						c-9.6-1-22.2,0-27.5,10.8c-9.2,18.7-3,44.2,12.8,55.4c14.1,10,24.7,6.3,26.8,5.4V49.2C89.1,49.3,88.9,49.3,88.9,49.3z"/>
					<path class="st3" d="M129.7,57.5c-2.7-5.6-7.4-8.5-12.6-10c0.1,0.1,0.2,0.1,0.3,0.2c-0.1-0.1-0.2-0.1-0.3-0.2
						c-8.5-2.3-18.3-0.6-23.6,0.7c0,0,0-0.1,0-0.1c-2,0.5-3.5,0.9-4.2,1.1v69.1c0.2-0.1,0.4-0.2,0.4-0.2s11.5,5.9,27.2-5.2
						C132.7,101.7,138.9,76.2,129.7,57.5z"/>
				</g>
			</g>
		</g>
		<path class="st4" d="M81,65.2c-2.4-5-6.1-7.1-10.7-8.4c-7.5-2.1-17.5-0.5-22.1,0.6c0,0,0.8-0.8,0.8-0.9c-1.8,0.4-2.7,0.8-3.3,1
			c-0.2,0.1-0.6,0.1-0.6,0.1c-0.5-0.4-1.6-0.7-2.7-1v0c-1.2-0.3-2.4-0.7-4.1-1c-1.2-0.2-2.2-0.4-3.1-0.5c-8.6-0.9-19.7,0-24.4,9.6
			c-8.2,16.6-2.6,39.4,11.5,49.4c12.5,8.9,22,5.6,23.9,4.8c0.2-0.1,0.4-0.2,0.4-0.2s9.4,5.1,23.4-4.8C83.8,104.3,89.1,81.9,81,65.2z
			"/>
		<path class="st5" d="M46.2,77l0.1,0.1c0,0,2.7,1.5,5.1,3.7c1.9,1.8,4.1,4.4,3.8,6.8c-0.4,3-2.4,5.9-4.1,7.7
			c-1.9,2.1-3.7,3.5-3.8,3.5l-0.9,0.7l-0.8,0.3l-0.9-0.7c-0.1-0.1-7.1-5.3-7.9-11.3c-0.3-2.5,1.9-5.1,3.8-6.8
			c2.4-2.2,5.1-3.7,5.1-3.7L46.2,77 M50.6,58.1l-5.1,1.2v0.1l-4.2-1c0,0,2.7,7.1,2.7,16c0,0-11.6,6.3-10.6,13.9
			c1,7.6,9.3,13.6,9.3,13.6s3.3,11.5,1,16.2h2.6v-0.3h1.9c-2.3-4.7,1-16.2,1-16.2s8.3-5.9,9.3-13.5c1-7.6-10.6-13.9-10.6-13.9
			C47.9,65.2,50.6,58.1,50.6,58.1L50.6,58.1z"/>
		<path class="st3" d="M61.9,56.9c3,0,5.7,0.3,7.9,1c2.3,0.6,4.4,1.6,6.1,2.8c1.9,1.4,3.4,3.1,4.4,5.1c1.9,3.8,3.1,8.1,3.5,12.7
			c0.4,4.4,0.1,8.9-1,13.3c-1,4.4-2.7,8.4-4.9,12c-2.3,3.7-5.1,6.7-8.3,9c-3,2.1-6,3.6-8.9,4.6c-2.4,0.8-4.7,1.1-7,1.1
			c-3.9,0-6.3-1.1-6.4-1.2l-0.8-0.4l-0.8,0.4c0,0-0.1,0.1-0.3,0.1l0,0l0,0c-0.6,0.3-2.8,1.1-6.2,1.1c-2.3,0-4.6-0.4-7-1.1
			c-3-0.9-6-2.5-9-4.6c-3.2-2.3-6-5.3-8.4-9c-2.3-3.6-3.9-7.7-5-12c-1-4.4-1.4-8.9-1-13.3c0.4-4.6,1.6-8.8,3.5-12.7
			c2.9-5.9,8.9-8.9,17.7-8.9c1.5,0,3.2,0.1,4.8,0.3c0.8,0.1,1.6,0.2,2.6,0.4l0.4,0.1c1.4,0.2,2.4,0.5,3.4,0.8c0.2,0,0.4,0.1,0.5,0.1
			l0.4,0.1c0.6,0.2,1.4,0.4,1.7,0.6l0.6,0.4l0.7-0.1c0.2,0,0.6-0.1,0.9-0.2c0.2-0.1,0.4-0.1,0.7-0.2c0.1,0,0.1-0.1,0.2-0.1v0
			l2.3-0.6C51.2,58,56.3,56.9,61.9,56.9 M61.8,55c-5.1,0-10.1,0.9-13.1,1.7c0,0,0-0.1,0-0.1c-1.7,0.4-2.6,0.8-3.2,1
			c-0.2,0.1-0.6,0.1-0.6,0.1c-0.5-0.4-1.6-0.7-2.7-1v0c-1.2-0.3-2.3-0.7-4.1-1c-1.2-0.2-2.1-0.4-3.1-0.5c-1.6-0.2-3.3-0.3-5-0.3
			c-7.5,0-15.5,2.1-19.4,9.9c-8.2,16.6-2.6,39.4,11.5,49.4c6.8,4.8,12.7,6.1,17,6.1c3.6,0,6-0.9,6.9-1.2c0.2-0.1,0.4-0.2,0.4-0.2
			s2.7,1.4,7.2,1.4c4.3,0,10.2-1.2,17-6.1c14-9.9,19.6-32.7,11.4-49.4c-2.4-5-7.1-7.6-11.7-8.9C67.6,55.3,64.7,55,61.8,55L61.8,55z"
			/>
		<path class="st6" d="M38.9,90.7c0.4-2.2,1.9-5,3.1-4.8c1.2,0.2,1.7,3.4,1.3,5.6c-0.4,2.2-1.4,2.5-2.7,2.2
			C39.4,93.5,38.5,92.9,38.9,90.7z"/>
		<path class="st6" d="M51.9,90.7c-0.4-2.2-1.9-5-3.1-4.8c-1.2,0.2-1.7,3.4-1.3,5.6c0.4,2.2,1.4,2.5,2.7,2.2
			C51.4,93.5,52.3,92.9,51.9,90.7z"/>
	</g>
	<path class="st7" d="M46.8,58.2C46.8,58.2,46.8,58.2,46.8,58.2c-0.9,0-1.3-0.7-1.3-1.6c0.3-8.2-2.8-10.3-2.8-10.3
		c-0.8-0.5-1-1.4-0.5-2.2c0.5-0.8,1.5-1,2.2-0.5c0.5,0.3,4.1,2.9,3.7,13C48,57.5,47.7,58.2,46.8,58.2z"/>
	<path class="st6" d="M45.4,117.5c2.5,0,3.3,3.7,3.3,3.7l-1.7-1.1l0.2,1.1l-1-1.1l-0.5,1.1l-0.5-1.1l-1.2,1.7l-0.1-1.7l-1.2,1.9
		C42.7,121.9,42.8,117.5,45.4,117.5z"/>
</g>
</svg>
