<?xml version="1.0" encoding="utf-8"?>
<!-- Generator: Adobe Illustrator 22.0.0, SVG Export Plug-In . SVG Version: 6.00 Build 0)  -->
<svg version="1.1" id="Layer_1" xmlns="http://www.w3.org/2000/svg" xmlns:xlink="http://www.w3.org/1999/xlink" x="0px" y="0px"
	 viewBox="0 0 141.7 141.7" style="enable-background:new 0 0 141.7 141.7;" xml:space="preserve">
<style type="text/css">
	.st0{fill:#695201;}
	.st1{fill:#66AE24;}
	.st2{fill:#63B320;}
	.st3{fill:#FF8700;}
	.st4{opacity:0.6;fill:#FF8700;}
</style>
<g id="XMLID_225_">
	<g id="XMLID_227_">
		<g id="XMLID_267_">
			<path id="XMLID_268_" class="st0" d="M77.4,53.2c0,0-0.2-0.9-0.6-2.5C76.5,50,76.3,49,76,48c-0.2-1.1-0.8-2.2-1.2-3.5
				c-0.5-1.3-0.9-2.7-1.7-4.1c-0.7-1.4-1.4-2.9-2.2-4.4c-0.7-1.1-1.4-2.2-2.1-3.3c-0.2-0.4-0.5-0.7-0.7-1.1
				c-0.6-0.7-1.1-1.5-1.7-2.3c-0.5-0.6-1-1.3-1.6-1.9c-1.2-1.3-2.4-2.7-3.7-3.8c-1.2-1.2-2.6-2.3-3.9-3.3c-1.3-1-2.7-1.9-3.9-2.7
				c-1.3-0.7-2.5-1.5-3.7-2.1c-2.4-1.2-4.4-2-5.8-2.5c-0.7-0.2-1.3-0.4-1.6-0.5c-0.4-0.1-0.6-0.2-0.6-0.2l2-6.5c0,0,0.3,0.1,0.7,0.3
				c0.5,0.2,1.1,0.5,1.9,0.9c1.6,0.7,3.8,1.9,6.2,3.5c1.2,0.7,2.5,1.7,3.8,2.7c1.3,1.1,2.6,2.2,3.9,3.4c1.3,1.3,2.6,2.6,3.8,4
				c0.1,0.1,0.2,0.2,0.3,0.4c0.5,0.6,1,1.2,1.5,1.8c0.6,0.8,1.1,1.6,1.7,2.3c0.5,0.6,1,1.3,1.4,2c0.4,0.6,0.7,1.3,1.1,1.9
				c0.2,0.3,0.3,0.6,0.5,0.9c0.9,1.6,1.6,3.3,2.4,4.9c0.7,1.6,1.2,3.3,1.8,4.8c0.6,1.5,0.8,3,1.2,4.4c0.3,1.4,0.7,2.6,0.8,3.7
				c0.2,1.1,0.3,2.1,0.4,2.9C77.2,52.3,77.4,53.2,77.4,53.2z"/>
			<path class="st1" d="M77.7,2.4c0,0-4.9,1.8-8.9,5.4c-3.4,3.1-6.1,7.5-4.5,13.3c0.2,0.6,0.4,1.2,0.6,1.9c0.3,0,0.6-0.1,0.9-0.1
				c1.1-0.2,2.1-0.4,3-0.7C79.5,18.3,77.7,2.4,77.7,2.4z"/>
			<path class="st2" d="M74.6,7.2c-0.9,1.3-2.1,3.1-3.2,4.9c-1.1,1.8-2.2,3.7-3,5.1c-0.8,1.4-1.2,2.4-1.2,2.4s0.7-0.8,1.6-2.2
				c0.9-1.3,2.1-3.1,3.2-4.9c1.1-1.8,2.2-3.7,3-5.1C75.7,6,76.1,5,76.1,5S75.5,5.8,74.6,7.2z"/>
		</g>
		<path id="XMLID_246_" class="st3" d="M123.8,84.1c0,30.3-24.6,54.9-54.9,54.9s-54.9-24.6-54.9-54.9c0-29.5,23.3-53.6,52.5-54.8
			c0.8-0.1,1.6-0.1,2.5-0.1c0.4,0,0.7,0,1.1,0C99.8,29.8,123.8,54.1,123.8,84.1z"/>
		<path class="st3" d="M54.6,40.5c-15.5,4.7-29.7,19.9-33.2,35.9c-1.1,4.9,6.5,7.1,7.6,2.1C31.9,65.2,43.8,52,56.7,48.1
			C61.6,46.6,59.5,39,54.6,40.5z"/>
		<path class="st3" d="M67.6,38.2c-2.1,0.1-3.9,1.7-3.9,3.9v0.5c0,2.1,1.8,4,3.9,3.9c2.1-0.1,3.9-1.7,3.9-3.9v-0.5
			C71.6,40,69.8,38.1,67.6,38.2z"/>
		<path class="st4" d="M123.8,84.1c0-6-1-11.7-2.7-17.1c-2.2,6.6-5.2,12.9-8.2,18.3c-8.9,15.8-24.2,21.7-41.6,23.8
			C45.5,112.2,26.1,100.3,14,82c0,0.7-0.1,1.4-0.1,2.1c0,30.3,24.6,54.9,54.9,54.9S123.8,114.4,123.8,84.1z"/>
	</g>
</g>
</svg>
