<?xml version="1.0" encoding="utf-8"?>
<!-- Generator: Adobe Illustrator 22.0.0, SVG Export Plug-In . SVG Version: 6.00 Build 0)  -->
<svg version="1.1" id="Layer_1" xmlns="http://www.w3.org/2000/svg" xmlns:xlink="http://www.w3.org/1999/xlink" x="0px" y="0px"
	 viewBox="0 0 141.7 141.7" style="enable-background:new 0 0 141.7 141.7;" xml:space="preserve">
<style type="text/css">
	.st0{fill:#C91F20;}
	.st1{fill:#FFC644;}
	.st2{fill:#F0A408;}
	.st3{fill:#FFDA9F;}
	.st4{fill:#E5403C;}
	.st5{fill:#FF846D;}
</style>
<g>
	<path class="st0" d="M33.5,49.2l-8.1,9.3c0,0,32.9,32.9,51.6,31.7c18.7-1.2,41.8-31.3,41.8-31.3l-11.4-10.1
		C107.4,48.8,62.7,43.1,33.5,49.2z"/>
	<g>
		<path class="st1" d="M50.5,68.9c0-1.2,1-56,1-56L40.4,8.8l2.4,56.4L50.5,68.9z"/>
		<polygon class="st2" points="51.6,12.9 57,6 56.7,68.1 50.5,68.9 		"/>
		<polygon class="st3" points="40.4,8.8 57,6 51.6,12.9 		"/>
	</g>
	<g>
		<path class="st1" d="M74.4,66.4c0-2,7.8-52.8,7.8-52.8l-8.8,5.7l-6.1,53.2L74.4,66.4z"/>
		<polygon class="st2" points="68,13.3 73.4,19.4 67.3,72.5 61.5,75.8 		"/>
		<polygon class="st3" points="68,13.3 82.3,13.7 73.4,19.4 		"/>
	</g>
	<g>
		<path class="st1" d="M96.8,57.1l3.9-42.2L92.1,20c0,0-4,40.2-2.8,39.5C90.6,58.8,96.8,57.1,96.8,57.1z"/>
		<polygon class="st2" points="90.2,10.5 92.1,20 89.3,59.5 84.5,58 		"/>
		<polygon class="st3" points="90.2,10.5 100.8,14.9 92.1,20 		"/>
	</g>
	<g>
		<path class="st1" d="M36.8,62L22.1,21.4l11.4,3.2c0,0,14.2,38.6,12.6,38.2C44.5,62.4,36.8,62,36.8,62z"/>
		<polygon class="st2" points="33.5,14.9 33.5,24.6 46.1,62.8 51.4,60.4 		"/>
		<polygon class="st3" points="33.5,14.9 22.1,21.4 33.5,24.6 		"/>
	</g>
	<g>
		<path class="st1" d="M58.7,77c0-2-9.3-52.8-9.3-52.8l10.6,5.7l7.3,53.2L58.7,77z"/>
		<polygon class="st2" points="66.4,23.8 59.9,29.9 67.2,83.1 74.1,86.3 		"/>
		<polygon class="st3" points="66.4,23.8 49.3,24.2 59.9,29.9 		"/>
	</g>
	<g>
		<path class="st2" d="M76.1,81.5c0-1.2,1.6-54.8,1.6-54.8l13.4-4.1l-8.5,57.6L76.1,81.5z"/>
		<polygon class="st1" points="77.8,26.7 71.3,19.8 71.7,81.9 79,82.7 		"/>
		<polygon class="st3" points="91.2,22.6 71.3,19.8 77.8,26.7 		"/>
	</g>
	<g>
		<polygon class="st1" points="101.7,75.7 104.5,23.4 116.3,23.4 110.6,75.4 		"/>
		<polygon class="st2" points="104.1,23.8 96.8,17.3 95.8,73.4 104.2,75.1 		"/>
		<polygon class="st3" points="104.1,23.8 96.8,17.3 116.3,23.4 		"/>
	</g>
	<g>
		<polygon class="st1" points="48.9,86.1 32.3,36.5 22.8,39.2 41.6,87.9 		"/>
		<polygon class="st2" points="32.7,36.8 36.8,28.9 53,82.6 46.7,86.1 		"/>
		<polygon class="st3" points="32.7,36.8 36.8,28.9 22.8,39.2 		"/>
	</g>
	<path class="st4" d="M25.4,58.5l11.4,73.1c0,0,42.2,9.3,70.2,0.8c0.8-2,11.8-73.9,11.8-73.9l-33.7-3.2c0,0,2.4,23.1-13,23.1
		c-17.2,0-15.8-24-15.8-24L25.4,58.5z"/>
	<path class="st5" d="M34,73.9l6.5,49.1c0,0,13-2.4,12.6-18.3C52.7,88.9,34,73.9,34,73.9z"/>
	<path class="st5" d="M102.6,62.5c-4.1,0.4-7.9,2.5-9.4,6.5c-0.6,1.6,0.1,4,1.3,5.1c1.8,1.5,3.5,2.4,5.9,2.3c0.9,0,1.8-0.3,2.5-0.6
		c3.4-0.2,6.4-1.7,7.3-5.1C111.4,65.8,107.2,62.1,102.6,62.5z"/>
	<path class="st0" d="M39.6,130.6c0,0,45.1,7.3,65.5,0C68.5,124.8,39.6,130.6,39.6,130.6z"/>
</g>
</svg>
