<svg height="512pt" viewBox="0 0 512 512.00074" width="512pt" xmlns="http://www.w3.org/2000/svg"><path d="m435.378906 313.644531c-4.945312-4.933593-10.851562-8.566406-17.292968-10.722656-3.125-16.238281-15.1875-29.367187-30.890626-34.082031-3.78125-11.601563-12.230468-21.125-23.230468-26.316406-.003906-2.425782-.164063-4.859376-.484375-7.292969-3.289063-25.285157-23.25-45.242188-48.53125-48.535157l-.566407-.070312c-5.113281-.613281-9.636718-3.160156-12.414062-6.980469-10.578125-14.5625-27.625-23.253906-45.59375-23.253906-17.609375 0-33.878906 8.011719-44.644531 21.980469-3.574219 4.644531-8.597657 7.609375-14.171875 8.355468l-.53125.074219c-25.425782 3.664063-45.609375 24.894531-47.992188 50.484375-.15625 1.667969-.238281 3.328125-.25 4.988282-10.996094 5.191406-19.441406 14.714843-23.226562 26.3125-15.644532 4.699218-27.695313 17.769531-30.867188 33.953124-6.398437 2.136719-12.265625 5.722657-17.1875 10.597657-8.445312 8.355469-13.109375 19.488281-13.132812 31.34375-.050782 24.644531 19.867187 44.738281 44.4375 44.792969h295.007812.0625c24.492188-.003907 44.445313-19.824219 44.5-44.226563.027344-11.859375-4.589844-23.007813-13-31.402344zm0 0" fill="#fbe8a0"/><path d="m435.378906 313.644531c-4.945312-4.933593-10.851562-8.566406-17.292968-10.722656-3.125-16.238281-15.1875-29.367187-30.890626-34.082031-3.78125-11.601563-12.230468-21.125-23.230468-26.316406-.003906-2.425782-.164063-4.859376-.484375-7.292969-3.289063-25.285157-23.25-45.242188-48.53125-48.535157l-.566407-.070312c-5.113281-.613281-9.636718-3.160156-12.414062-6.980469-10.578125-14.5625-27.625-23.253906-45.59375-23.253906l-.375 232.882813h147.878906c24.496094-.003907 44.449219-19.824219 44.5-44.230469.027344-11.855469-4.589844-23.003907-13-31.398438zm0 0" fill="#fbd43a"/><g fill="#f07a97"><path d="m192.824219 55.792969.964843-1.164063c5.300782-6.363281 4.4375-15.824218-1.929687-21.125-6.367187-5.296875-15.824219-4.433594-21.125 1.933594l-.96875 1.164062c-13.238281 15.902344-12.726563 39.445313 1.191406 54.757813 4.085938 4.496094 4.085938 11.273437 0 15.773437l-3.261719 3.585938c-5.570312 6.132812-5.117187 15.617188 1.015626 21.191406 2.871093 2.609375 6.484374 3.898438 10.082031 3.898438 4.078125 0 8.144531-1.65625 11.105469-4.914063l3.257812-3.585937c14.542969-16 14.542969-40.128906 0-56.128906-3.910156-4.304688-4.054688-10.917969-.332031-15.386719zm0 0"/><path d="m266.769531 25.753906.96875-1.164062c5.296875-6.367188 4.425781-15.824219-1.941406-21.125-6.371094-5.292969-15.828125-4.425782-21.125 1.945312l-.960937 1.15625c-13.242188 15.90625-12.730469 39.445313 1.191406 54.757813 4.085937 4.496093 4.085937 11.277343 0 15.773437l-3.261719 3.585938c-5.570313 6.128906-5.121094 15.617187 1.011719 21.1875 2.871094 2.613281 6.484375 3.902344 10.082031 3.902344 4.082031 0 8.144531-1.65625 11.105469-4.914063l3.261718-3.585937c14.542969-16 14.542969-40.128907 0-56.128907-3.914062-4.300781-4.054687-10.914062-.332031-15.390625zm0 0"/><path d="m341.042969 71.179688c-3.910157-4.304688-4.054688-10.917969-.335938-15.386719l.96875-1.164063c5.296875-6.363281 4.433594-15.824218-1.933593-21.125-6.367188-5.296875-15.824219-4.433594-21.125 1.933594l-.96875 1.164062c-13.238282 15.902344-12.726563 39.445313 1.195312 54.757813 4.085938 4.496094 4.085938 11.273437 0 15.769531l-3.261719 3.585938c-5.574219 6.132812-5.121093 15.617187 1.011719 21.191406 2.871094 2.613281 6.484375 3.898438 10.082031 3.898438 4.082031 0 8.144531-1.652344 11.105469-4.910157l3.261719-3.585937c14.542969-16 14.542969-40.128906 0-56.128906zm0 0"/></g><path d="m209.523438 313.589844c0 8.117187-6.578126 14.691406-14.691407 14.691406s-14.691406-6.574219-14.691406-14.691406c0-8.113282 6.578125-14.6875 14.691406-14.6875s14.691407 6.574218 14.691407 14.6875zm0 0" fill="#fbd43a"/><path d="m270.691406 313.589844c0 8.117187-6.578125 14.691406-14.691406 14.691406s-14.691406-6.574219-14.691406-14.691406c0-8.113282 6.578125-14.6875 14.691406-14.6875s14.691406 6.574218 14.691406 14.6875zm0 0" fill="#fbd43a"/><path d="m256 328.285156v-29.382812c8.113281 0 14.691406 6.578125 14.691406 14.691406s-6.578125 14.691406-14.691406 14.691406zm0 0" fill="#fb8626"/><path d="m331.859375 313.589844c0 8.117187-6.578125 14.691406-14.691406 14.691406s-14.691407-6.574219-14.691407-14.691406c0-8.113282 6.578126-14.6875 14.691407-14.6875s14.691406 6.574218 14.691406 14.6875zm0 0" fill="#fb8626"/><path d="m240.105469 268.695312c0 8.113282-6.578125 14.6875-14.691407 14.6875-8.113281 0-14.691406-6.574218-14.691406-14.6875 0-8.113281 6.578125-14.691406 14.691406-14.691406 8.113282 0 14.691407 6.578125 14.691407 14.691406zm0 0" fill="#fbd43a"/><path d="m301.277344 268.695312c0 8.113282-6.578125 14.6875-14.691406 14.6875-8.113282 0-14.691407-6.574218-14.691407-14.6875 0-8.113281 6.578125-14.691406 14.691407-14.691406 8.113281 0 14.691406 6.578125 14.691406 14.691406zm0 0" fill="#fb8626"/><path d="m448.453125 359.265625h-384.902344c-16.84375 0-30.546875 13.652344-30.546875 30.4375 0 33.578125 27.457032 60.894531 61.207032 60.894531h16.804687c-.003906.167969-.011719.339844-.011719.511719 0 33.574219 27.457032 60.890625 61.207032 60.890625h167.578124c33.75 0 61.207032-27.316406 61.207032-60.890625 0-.171875-.007813-.34375-.011719-.511719h16.804687c33.75 0 61.207032-27.316406 61.207032-60.894531 0-16.785156-13.703125-30.4375-30.542969-30.4375zm0 0" fill="#f2f7ff"/><path d="m448.453125 359.265625h-192.394531v152.734375h83.730468c33.75 0 61.207032-27.316406 61.207032-60.890625 0-.171875-.007813-.339844-.011719-.511719h16.804687c33.75 0 61.207032-27.316406 61.207032-60.894531 0-16.785156-13.703125-30.4375-30.542969-30.4375zm0 0" fill="#b5c9f5"/><path d="m497 359.332031h-482c-8.285156 0-15 6.714844-15 15 0 8.28125 6.714844 15 15 15h482c8.285156 0 15-6.71875 15-15 0-8.285156-6.714844-15-15-15zm0 0" fill="#b5c9f5"/><path d="m497 359.332031h-241v30h241c8.285156 0 15-6.71875 15-15 0-8.285156-6.714844-15-15-15zm0 0" fill="#799ce3"/></svg>