<?xml version="1.0" encoding="utf-8"?>
<!-- Generator: Adobe Illustrator 22.0.0, SVG Export Plug-In . SVG Version: 6.00 Build 0)  -->
<svg version="1.1" id="Layer_1" xmlns="http://www.w3.org/2000/svg" xmlns:xlink="http://www.w3.org/1999/xlink" x="0px" y="0px"
	 viewBox="0 0 141.7 141.7" style="enable-background:new 0 0 141.7 141.7;" xml:space="preserve">
<style type="text/css">
	.st0{fill:#FFF45F;}
	.st1{fill:#FFD833;}
	.st2{fill:#FFC20E;}
	.st3{fill:#FCAF17;}
</style>
<g>
	<g>
		<path class="st0" d="M131.7,44.7v54.4c0,2-1.9,4-5.3,5.7V93.3h-20.7v17.2c-9.8,1.6-21.7,2.5-34.5,2.5c-33.4,0-60.5-6.2-60.5-13.9
			V44.7H131.7z"/>
	</g>
	<g>
		<ellipse class="st1" cx="71.2" cy="44.7" rx="60.5" ry="13.9"/>
	</g>
	<g>
		<path class="st2" d="M126.4,104.8c-6.9-0.8-13.8-1.7-20.7-2.5c-0.1-2.7-0.1-5.4-0.2-8.1c0-1.9-0.1-3.7-0.1-5.6
			c-0.2-10.9-0.5-21.8-0.7-32.7c-10-3.8-20-7.5-29.9-11.3c-1.2-0.4-2.3-0.9-3.5-1.3c3.3,0.4,6.5,0.9,9.8,1.3c15,2,30.1,4.1,45.1,6.1
			C126.2,68.8,126.3,86.8,126.4,104.8z"/>
	</g>
	<g>
		<circle class="st1" cx="70.8" cy="76.3" r="7.1"/>
	</g>
	<g>
		
			<ellipse transform="matrix(0.2284 -0.9736 0.9736 0.2284 -56.1727 132.6139)" class="st1" cx="55.6" cy="101.7" rx="5.6" ry="5.6"/>
	</g>
	<g>
		<ellipse transform="matrix(0.7071 -0.7071 0.7071 0.7071 -62.3048 45.0679)" class="st1" cx="23.2" cy="97.7" rx="4" ry="4"/>
	</g>
	<g>
		<ellipse transform="matrix(0.7071 -0.7071 0.7071 0.7071 -44.0067 57.975)" class="st1" cx="48" cy="82.1" rx="4" ry="4"/>
	</g>
	<g>
		<ellipse transform="matrix(0.9735 -0.2288 0.2288 0.9735 -13.83 13.1865)" class="st1" cx="50" cy="66.2" rx="4" ry="4"/>
	</g>
	<g>
		<path class="st1" d="M131.7,60.4v8c-2.2,0-4-1.8-4-4C127.6,62.2,129.4,60.4,131.7,60.4z"/>
	</g>
	<g>
		<path class="st1" d="M10.7,58.7c0.6-0.3,1.2-0.5,1.9-0.5c2.2,0,4,1.8,4,4c0,2.2-1.8,4-4,4c-0.7,0-1.4-0.2-1.9-0.5V58.7z"/>
	</g>
	<g>
		<path class="st1" d="M88.6,73.2c0,2.2,1.8,4,4,4c2.2,0,4-1.8,4-4c0-2.2-1.8-4-4-4C90.4,69.2,88.6,71,88.6,73.2z"/>
	</g>
	<g>
		<path class="st3" d="M112.4,73.2c0,3,2.4,5.3,5.3,5.3c3,0,5.3-2.4,5.3-5.3c0-3-2.4-5.3-5.3-5.3C114.8,67.9,112.4,70.3,112.4,73.2z
			"/>
	</g>
	<g>
		<circle class="st3" cx="111.4" cy="55.8" r="2.4"/>
	</g>
	<g>
		<circle class="st3" cx="120.2" cy="95.7" r="2.4"/>
	</g>
	<g>
		<path class="st3" d="M108.4,91.5c0,1.6-1.3,2.8-2.8,2.8c-0.1,0-0.1,0-0.1,0c0-1.9-0.1-3.7-0.1-5.6c0.1,0,0.2,0,0.3,0
			C107.2,88.6,108.4,89.9,108.4,91.5z"/>
	</g>
	<g>
		<ellipse transform="matrix(0.9821 -0.1884 0.1884 0.9821 -13.2939 6.6064)" class="st1" cx="28.1" cy="73.2" rx="8.9" ry="8.9"/>
	</g>
	<g>
		
			<ellipse transform="matrix(0.3878 -0.9218 0.9218 0.3878 -34.5135 139.5137)" class="st1" cx="87.8" cy="95.7" rx="8.9" ry="8.9"/>
	</g>
	<g>
		
			<ellipse transform="matrix(1.300388e-02 -0.9999 0.9999 1.300388e-02 7.8695 93.563)" class="st3" cx="51.3" cy="42.8" rx="3.1" ry="10.1"/>
	</g>
	<g>
		<path class="st3" d="M77.9,40.4c-5.6-0.1-10.1-1.5-10.1-3.2c0-1.7,4.6-3,10.1-3c5.6,0.1,10.1,1.5,10.1,3.2
			C88,39.2,83.5,40.5,77.9,40.4z"/>
	</g>
	<g>
		
			<ellipse transform="matrix(1.300427e-02 -0.9999 0.9999 1.300427e-02 71.4229 157.9483)" class="st3" cx="115.7" cy="42.8" rx="3.1" ry="10.1"/>
	</g>
	<g>
		<path class="st3" d="M67.8,53.2c-2.5,0-4.5-0.7-4.4-1.4c0-0.8,2-1.3,4.5-1.3c2.5,0,4.5,0.7,4.4,1.4C72.3,52.7,70.3,53.2,67.8,53.2
			z"/>
	</g>
	<g>
		<path class="st3" d="M28.1,51.8c-2.5,0-4.5-0.7-4.4-1.4c0-0.8,2-1.3,4.5-1.3c2.5,0,4.5,0.7,4.4,1.4C32.6,51.3,30.6,51.9,28.1,51.8
			z"/>
	</g>
	<g>
		<path class="st3" d="M95.4,41.4c-2.5,0-4.5-0.7-4.4-1.4c0-0.8,2-1.3,4.5-1.3c2.5,0,4.5,0.7,4.4,1.4C99.8,40.8,97.8,41.4,95.4,41.4
			z"/>
	</g>
	<g>
		<path class="st3" d="M59.1,37c-2.5,0-4.5-0.7-4.4-1.4c0-0.8,2-1.3,4.5-1.3c2.5,0,4.5,0.7,4.4,1.4C63.5,36.4,61.5,37,59.1,37z"/>
	</g>
	<g>
		<path class="st3" d="M27.2,43.3c-3.4,0-6.2-0.9-6.2-2c0-1.1,2.8-1.9,6.2-1.8c3.4,0,6.2,0.9,6.2,2C33.5,42.5,30.7,43.4,27.2,43.3z"
			/>
	</g>
</g>
</svg>
