<?xml version="1.0" encoding="utf-8"?>
<!-- Generator: Adobe Illustrator 22.0.0, SVG Export Plug-In . SVG Version: 6.00 Build 0)  -->
<svg version="1.1" id="Layer_1" xmlns="http://www.w3.org/2000/svg" xmlns:xlink="http://www.w3.org/1999/xlink" x="0px" y="0px"
	 viewBox="0 0 141.7 141.7" style="enable-background:new 0 0 141.7 141.7;" xml:space="preserve">
<style type="text/css">
	.st0{fill:#FF2120;}
	.st1{opacity:0.6;fill:#FF5252;}
	.st2{opacity:0.8;fill:#EF1414;}
	.st3{fill:#63B320;}
	.st4{opacity:0.7;fill:#63B320;}
	.st5{fill:#3F2901;}
</style>
<g id="XMLID_605_">
	<g id="XMLID_606_">
		<path id="XMLID_626_" class="st0" d="M134.2,56.5c-0.4,1.1-15.8,39-50.3,60.5C49,138.8,7.5,135.6,7.5,135.6L8,125.4L14.7,6
			l110.2,46.5L134.2,56.5z"/>
		<path class="st1" d="M74.4,38.1c-13.6-4.9-26.7-10.9-39.3-17.9c-3.7-2.1-7,3.6-3.3,5.7c13.1,7.3,26.8,13.5,40.9,18.5
			C76.6,45.9,78.3,39.6,74.4,38.1z"/>
		<path class="st1" d="M83.9,43c-4.2,0-4.2,6.6,0,6.6C88.1,49.6,88.1,43,83.9,43z"/>
		<path class="st2" d="M15.9,21.1c-0.5-2.5-1.1-5.2-1.6-8.1L8,125.4l-0.6,10.2c0,0,22.4,1.7,48.2-6c-14.3-16.9-24.2-36.9-29.7-59
			C21.9,54.3,18.9,37.6,15.9,21.1z"/>
		<path id="XMLID_625_" class="st3" d="M134.2,56.5C134.2,56.5,134.2,56.5,134.2,56.5c-0.4,1.1-15.8,39-50.3,60.5
			C49,138.8,7.5,135.6,7.5,135.6L8,125.4c13.3-0.1,43.2-2.3,69.5-18.7c26.2-16.4,41.4-42.3,47.3-54.2L134.2,56.5z"/>
		<path class="st4" d="M8,125.4l-0.6,10.2c0,0,22.4,1.7,48.2-6c-2.7-3.2-5.3-6.5-7.7-9.9C31.5,124.4,16.4,125.3,8,125.4z"/>
		<g id="XMLID_622_">
			<g id="XMLID_623_">
				<path id="XMLID_624_" class="st5" d="M48.5,73.9c0,0-0.4,14.9,6.7,10.8C62,80.1,48.5,73.9,48.5,73.9z"/>
			</g>
		</g>
		<g id="XMLID_619_">
			<g id="XMLID_620_">
				<path id="XMLID_621_" class="st5" d="M26,80.5c0,0-2.3,14.7,5.2,11.6C38.6,88.5,26,80.5,26,80.5z"/>
			</g>
		</g>
		<g id="XMLID_616_">
			<g id="XMLID_617_">
				<path id="XMLID_618_" class="st5" d="M70.8,40.7c0,0,3.5,14.5,9.3,8.7C85.5,43.3,70.8,40.7,70.8,40.7z"/>
			</g>
		</g>
		<g id="XMLID_613_">
			<g id="XMLID_614_">
				<path id="XMLID_615_" class="st5" d="M36.6,30c0,0,1.1,14.9,7.8,10C50.7,34.8,36.6,30,36.6,30z"/>
			</g>
		</g>
		<g id="XMLID_610_">
			<g id="XMLID_611_">
				<path id="XMLID_612_" class="st5" d="M70.9,62.9c0,0,3.5,14.5,9.3,8.7C85.6,65.4,70.9,62.9,70.9,62.9z"/>
			</g>
		</g>
		<g id="XMLID_607_">
			<g id="XMLID_608_">
				<path id="XMLID_609_" class="st5" d="M31.8,58.5c0,0-1.8,14.8,5.6,11.4C44.7,66,31.8,58.5,31.8,58.5z"/>
			</g>
		</g>
	</g>
</g>
</svg>
