<svg height="511pt" viewBox="0 1 511 511.99943" width="511pt" xmlns="http://www.w3.org/2000/svg"><path d="m15.5 512c-3.839844 0-7.675781-1.464844-10.605469-4.394531-5.859375-5.859375-5.859375-15.351563 0-21.210938l140.742188-140.746093c5.859375-5.855469 15.351562-5.855469 21.210937 0 5.859375 5.859374 5.859375 15.351562 0 21.210937l-140.742187 140.746094c-2.929688 2.929687-6.769531 4.394531-10.605469 4.394531zm0 0" fill="#4a696f"/><path d="m287.476562 60.007812-30 64.371094 30 100.621094 93.691407-81.523438 33.695312-81.523437c-2.214843-1.253906-4.753906-1.945313-7.390625-1.945313zm0 0" fill="#d03b00"/><path d="m452.480469 224.988281-64.371094-29.996093-100.621094 29.996093 81.523438 93.695313 81.519531 33.695312c1.257812-2.21875 1.949219-4.757812 1.949219-7.394531zm0 0" fill="#ff9f00"/><path d="m287.496094 389.992188 30-64.371094-30-100.621094-93.691406 81.523438-33.695313 81.523437c2.21875 1.253906 4.753906 1.945313 7.394531 1.945313zm0 0" fill="#ff7816"/><path d="m122.492188 225.011719 64.375 30 100.621093-30-81.523437-93.691407-81.523438-33.695312c-1.253906 2.214844-1.949218 4.753906-1.949218 7.390625zm0 0" fill="#93bf00"/><path d="m287.488281 15.019531c0-11.519531-12.640625-18.902343-22.71875-12.859375l-134.996093 89.996094c-2.253907 1.355469-4.074219 3.25-5.332032 5.46875l163.046875 127.386719zm0 0" fill="#a8d32a"/><path d="m77.503906 225c-11.515625 0-18.898437 12.640625-12.859375 22.71875l89.996094 134.996094c1.355469 2.253906 3.253906 4.074218 5.46875 5.332031l127.386719-163.046875zm0 0" fill="#ff9f00"/><path d="m287.488281 434.980469c0 11.519531 12.640625 18.902343 22.71875 12.863281l134.992188-89.996094c2.257812-1.355468 4.078125-3.253906 5.332031-5.46875l-163.042969-127.390625zm0 0" fill="#ffd400"/><path d="m497.46875 225c11.519531 0 18.902344-12.640625 12.859375-22.71875l-89.996094-134.996094c-1.355469-2.253906-3.25-4.074218-5.46875-5.332031l-127.386719 163.046875zm0 0" fill="#ff4b00"/><path d="m287.488281 180.011719c-24.902343 0-45 20.097656-45 45 0 24.898437 20.101563 44.996093 45 44.996093 24.898438 0 44.996094-20.097656 44.996094-44.996093 0-24.902344-20.097656-45-44.996094-45zm0 0" fill="#ececf1"/><path d="m332.484375 225.011719c0 24.898437-20.097656 44.996093-44.996094 44.996093v-89.996093c24.898438 0 44.996094 20.097656 44.996094 45zm0 0" fill="#e2e2e7"/></svg>