<svg id="Capa_3" data-name="Capa 3" xmlns="http://www.w3.org/2000/svg" viewBox="0 0 371.63 401.39"><defs><style>.cls-1{fill:#9dd5e9;stroke:#7c7c7c;stroke-miterlimit:10;}.cls-2{fill:#3f5ffc;}.cls-3{fill:#abb9ed;}.cls-4{fill:#607eea;}.cls-5{fill:#d1eef5;}.cls-6{fill:#3ecdff;}.cls-7{fill:#e6f5f9;opacity:0.14;}.cls-8{fill:#fff;opacity:0.25;}</style></defs><title>Vaso De agua</title><g id="Agua"><path class="cls-1" d="M1703.88,140.58V116.65h-88.35v23.93a50.06,50.06,0,0,0-44.18,49.69V443.54a50.07,50.07,0,0,0,50.07,50.07H1698a50.07,50.07,0,0,0,50.06-50.07V190.27A50,50,0,0,0,1703.88,140.58Z" transform="translate(-1376.93 -93.09)"/><rect class="cls-2" x="236.39" width="92.77" height="41.23"/><rect class="cls-3" x="194.43" y="159.03" width="176.7" height="103.08"/><path class="cls-4" d="M1674.43,310.6c0,12.54-7.91,22.72-17.67,22.72s-17.67-10.18-17.67-22.72,18.51-39.55,18.51-39.55S1674.43,298.05,1674.43,310.6Z" transform="translate(-1376.93 -93.09)"/><path class="cls-5" d="M1528.29,236.92V476.84a17.65,17.65,0,0,1-17.64,17.64H1394.57a17.62,17.62,0,0,1-17.64-17.64V236.92h9.31V460.39c0,9.07,6.91,16.45,15.49,16.45h101.75c8.54,0,15.49-7.38,15.49-16.45V236.92Z" transform="translate(-1376.93 -93.09)"/><path class="cls-6" d="M1519,309.25V460.39c0,9.07-7,16.45-15.49,16.45H1401.73c-8.58,0-15.49-7.38-15.49-16.45V309.07c40.93-6.21,87.64.18,127.94.18Z" transform="translate(-1376.93 -93.09)"/><path class="cls-7" d="M1528.88,236.92V476.84a17.64,17.64,0,0,1-17.64,17.64H1395.16a17.62,17.62,0,0,1-17.64-17.64V236.92Z" transform="translate(-1376.93 -93.09)"/><rect class="cls-8" x="16.74" y="143.83" width="47.03" height="257.56"/></g></svg>