<?xml version="1.0" encoding="utf-8"?>
<!-- Generator: Adobe Illustrator 22.0.0, SVG Export Plug-In . SVG Version: 6.00 Build 0)  -->
<svg version="1.1" id="Layer_1" xmlns="http://www.w3.org/2000/svg" xmlns:xlink="http://www.w3.org/1999/xlink" x="0px" y="0px"
	 viewBox="0 0 141.7 141.7" style="enable-background:new 0 0 141.7 141.7;" xml:space="preserve">
<style type="text/css">
	.st0{fill:#9DD5E9;stroke:#7C7C7C;stroke-miterlimit:10;}
	.st1{fill:#3F5FFC;}
	.st2{fill:#ABB9ED;}
	.st3{fill:#607EEA;}
</style>
<g>
	<path class="st0" d="M86,18.5v-8H56.6v8c-8.3,1-14.7,8-14.7,16.5v84.3c0,9.2,7.5,16.7,16.7,16.7h25.5c9.2,0,16.7-7.5,16.7-16.7V35
		C100.7,26.5,94.3,19.5,86,18.5z"/>
	<rect x="55.9" y="2.7" class="st1" width="30.9" height="13.7"/>
	<rect x="41.9" y="55.6" class="st2" width="58.8" height="34.3"/>
	<path class="st3" d="M76.2,75.1c0,4.2-2.6,7.6-5.9,7.6c-3.2,0-5.9-3.4-5.9-7.6s6.2-13.2,6.2-13.2S76.2,70.9,76.2,75.1z"/>
</g>
</svg>
