<svg xmlns="http://www.w3.org/2000/svg" viewBox="0 0 568.07 831.98"><defs><style>.cls-1{fill:#e5e5e5;}.cls-2{fill:#a89384;}.cls-3{fill:#8a8a8a;}.cls-4{fill:#877060;}.cls-5{fill:#fff;}.cls-6{fill:#fbddc2;}.cls-7{fill:#e1a68e;}.cls-8{fill:none;stroke:#e1a68e;stroke-miterlimit:10;}.cls-9{fill:#eaeaea;}.cls-10{fill:#edc29f;}.cls-11{fill:#c6c6c6;}.cls-12{fill:#ba503c;}.cls-13{fill:#cc8e5a;}.cls-14{fill:#4672cc;}.cls-15{fill:#111;}.cls-16{fill:#421603;}</style></defs><title>niño señalando</title><g id="Layer_5" data-name="Layer 5"><path class="cls-1" d="M366.5,860.83a58.38,58.38,0,0,1,0,8c-.34,3.33-.84,5.16,2.66,8s20,8.5,36.42,7.33,30.08-4,35.75-9.17,4.5-9.16,4.5-11.33,0-5.67.1-7.67Z" transform="translate(-80.96 -52.5)"/><path class="cls-2" d="M369,818.83s-2.84,19-4.34,23.83-3.5,24.33,12,29.5S432,879.49,446,859c3.83-13.66-4.17-28.66-5.84-32.83A87.79,87.79,0,0,1,437,814Z" transform="translate(-80.96 -52.5)"/><path class="cls-3" d="M417.33,580.83l3,93.66,21,139.34s-13.67,8.33-27,8.33-36,3.33-51-4V580.83Z" transform="translate(-80.96 -52.5)"/><path class="cls-4" d="M381.16,852s25.67,10.34,48.84,0C430,852,405.83,870,381.16,852Z" transform="translate(-80.96 -52.5)"/><path class="cls-5" d="M591.53,377.4s-35.67,43-88.4,66.06S408,475.36,408,475.36l-8.66-79.92,88.37-12,80.47-38Z" transform="translate(-80.96 -52.5)"/><path class="cls-6" d="M630.1,280.93s4.41-8.59,5.28-11,3.45-11.18,3.54-14.69-.08-7.51-.79-9.68-1.52-4.68-2.18-4.83a12.63,12.63,0,0,1-2.52-1.66l-3.42.73s-2.83,1.7-3.06,1.9-6,7.22-6.07,7.35-5.88,9.54-6,9.7-6.15,12-6.15,12-2.58,5.53-2.7,5.8S600,290.93,599.91,291l-.58,1.48a17.41,17.41,0,0,0-1.91.81c-.54.31-3.86,3-4,3.17s-4,4.72-4.2,5-4.64,7.34-4.7,7.44-3.52,7-3.59,7.13-6.07,12.76-8.39,23.61L603.65,368l4-.33s5.43-.77,5.76-.85,3.94-1.28,4.18-1.38,4.18-2.36,4.83-2.93a42.25,42.25,0,0,0,3-3.25c.28-.39,1.74-2.13,2.88-7.17,0,0,7.46-2.08,8.22-2.93s4.33-2.08,5.11-4.41,1.5-4.19-.44-5.82a18.63,18.63,0,0,0-3.76-2.45l-1.82-.66-.94-.45-.9-.13,4.12-1s4.75-2.85,5.15-3.23,1.74-2.33,2.42-2.88,1.23-2.67,1.44-3.17a4.15,4.15,0,0,0-.39-2.51c-.35-.52-4.89-4.52-9.56-5,0,0-1.44-.19-1.25-.25s4.22-1.77,5-2.24,5.28-4.24,5.37-4.34,2-2.45,2.16-3.23a11.58,11.58,0,0,0,.17-2.83,11.57,11.57,0,0,0-2.37-2.77,45.74,45.74,0,0,0-5.6-2c-1-.19-7.26-.79-7.26-.79s2.34-2.31,2.43-2.42,2.14-2.63,2.58-3.33,1.63-3,1.85-3.52,1-2.88,1-3.22a17.14,17.14,0,0,0,.08-3.83,4.14,4.14,0,0,0-1.29-1.94,12.65,12.65,0,0,0-3.18-.84c-.4,0-4.84.73-4.84.73Z" transform="translate(-80.96 -52.5)"/><path class="cls-7" d="M607.1,326.83a11.64,11.64,0,0,0,2.23-1.72,22,22,0,0,0,1.89-2.09,29,29,0,0,0,3-4.74,42,42,0,0,0,2.24-5.15l.88-2.68.75-2.7,0-.14.13-.05a48.33,48.33,0,0,0,14.41-8.64,36.06,36.06,0,0,0,3-3l1.29-1.65a20.23,20.23,0,0,0,1.16-1.74c.18-.3.38-.58.54-.89l.45-.94a12.3,12.3,0,0,0,.81-1.91c.21-.66.44-1.32.63-2l.2-1c.06-.34.08-.68.12-1a4.1,4.1,0,0,0-1.08-3.52,5.4,5.4,0,0,0-3.71-.89,29.82,29.82,0,0,0-8.1,2c-2.64,1-5.22,2.11-7.83,3.24s-5.3,2.13-8,3l-8.08,2.67c-1.34.45-2.69.9-4,1.38-.66.25-1.31.5-2,.77-.29.16-.59.3-.89.47l-.85.56a32.82,32.82,0,0,0-5.86,6,68.16,68.16,0,0,0-4.75,7c-5.71,9.77-9.7,20.46-13,31.29,1.55-5.46,3.23-10.88,5.24-16.2a114,114,0,0,1,7.21-15.44,69.74,69.74,0,0,1,4.7-7.14,32.1,32.1,0,0,1,6-6.17l.91-.61c.32-.19.66-.36,1-.53.67-.28,1.33-.54,2-.79,1.34-.5,2.68-1,4-1.41l8.06-2.71c2.68-.92,5.33-1.87,7.9-3s5.21-2.27,7.89-3.24a30.09,30.09,0,0,1,8.39-2,6.2,6.2,0,0,1,4.34,1.12,4,4,0,0,1,1.22,2,7.38,7.38,0,0,1,.18,1.13c0,.38,0,.76,0,1.13s-.07.73-.13,1.09l-.22,1.07c-.2.7-.44,1.39-.66,2.08a13.43,13.43,0,0,1-.86,2l-.47,1c-.17.32-.38.61-.57.92a21.59,21.59,0,0,1-1.21,1.79l-1.35,1.69a37.9,37.9,0,0,1-3.07,3,49,49,0,0,1-14.74,8.56l.17-.18-.81,2.72-1,2.67a42.06,42.06,0,0,1-2.39,5.14,28.57,28.57,0,0,1-3.15,4.7,21,21,0,0,1-2,2.05A11.72,11.72,0,0,1,607.1,326.83Z" transform="translate(-80.96 -52.5)"/><path class="cls-8" d="M599.33,292.52s13.65-35.91,26.5-49.73c3.61-3.88,9-5.24,11.17-.4,7.16,16.09-7.07,38.82-7.07,38.82" transform="translate(-80.96 -52.5)"/><path class="cls-8" d="M633.25,299s17.21.4,15.1,7.65S632.81,322,614.57,318" transform="translate(-80.96 -52.5)"/><path class="cls-8" d="M635.72,317.19s13.28,2.22,11,8.42S636.66,338.74,615,336c-15.1-6.52,5.33-17,5.33-17" transform="translate(-80.96 -52.5)"/><path class="cls-8" d="M635,335.27s10.1,2.92,6.77,9.27-21.6,12.14-30.95,4.59,8.07-12.53,11.68-12.54" transform="translate(-80.96 -52.5)"/><path class="cls-8" d="M628.32,352.1s-1.2,16.95-26.47,15.6" transform="translate(-80.96 -52.5)"/><path class="cls-9" d="M604.67,366l.5,5.89L594.71,381l-5.42-.94s-23.3-23.6-25.66-31.88l.86-4.92,9.51-8s2.8-1.54,5.18-.62Z" transform="translate(-80.96 -52.5)"/><rect class="cls-10" x="282.37" y="291.66" width="17.67" height="69.67"/><path class="cls-11" d="M381,365.13s12.33,3.36,18.33,12c0,0-9.33,38-36,70v-51S377.66,374.47,381,365.13Z" transform="translate(-80.96 -52.5)"/><path class="cls-12" d="M399.33,377.16s23.83,3,40.17,13.83c0,0-24.67,65.17-22.17,97.67s5.5,91.5,5.5,91.5-16.5,17-27.5,24.5l-32-5v-172Z" transform="translate(-80.96 -52.5)"/><path class="cls-1" d="M361.15,861a56.71,56.71,0,0,0,0,8c.33,3.33.83,5.17-2.67,8s-20,8.5-36.42,7.33-30.08-4-35.75-9.16-4.5-9.17-4.5-11.34,0-5.66-.1-7.66Z" transform="translate(-80.96 -52.5)"/><path class="cls-2" d="M358.65,819s2.83,19,4.33,23.83,3.5,24.34-12,29.5-55.33,7.34-69.33-13.16c-3.84-13.67,4.16-28.67,5.83-32.84s3.17-12.16,3.17-12.16Z" transform="translate(-80.96 -52.5)"/><path class="cls-3" d="M310.31,581l-3,93.67L286.31,814s13.67,8.33,27,8.33,36,3.34,51-4V581Z" transform="translate(-80.96 -52.5)"/><path class="cls-4" d="M346.48,852.16s-25.67,10.33-48.83,0C297.65,852.16,321.81,870.16,346.48,852.16Z" transform="translate(-80.96 -52.5)"/><path class="cls-5" d="M136.62,374.42s34.56,43.91,86.7,68.28S317.61,477,317.61,477l10.69-79.68-88-14.25-79.47-40Z" transform="translate(-80.96 -52.5)"/><path class="cls-6" d="M100.51,277s-4.19-8.7-5-11.1-3.16-11.27-3.16-14.78.27-7.5,1-9.66,1.63-4.63,2.3-4.77a12.57,12.57,0,0,0,2.56-1.6l3.39.82s2.79,1.77,3,2,5.8,7.37,5.89,7.5l5.72,9.85,5.85,12.12,2.55,5.87c.11.27,5.73,14.54,5.78,14.65l.54,1.5a16.9,16.9,0,0,1,1.89.86c.53.32,3.77,3.12,3.91,3.26s3.88,4.82,4.07,5.1,4.45,7.45,4.51,7.56,3.34,7.07,3.4,7.22,5.75,12.91,7.79,23.81l-31.81,27.54-4-.43s-5.4-.91-5.73-1-3.91-1.37-4.14-1.48-4.12-2.47-4.77-3.05a43.23,43.23,0,0,1-2.94-3.33c-.26-.4-1.68-2.17-2.7-7.24,0,0-7.4-2.27-8.13-3.13s-4.29-2.2-5-4.55-1.38-4.23.59-5.8a18.23,18.23,0,0,1,3.83-2.36l1.83-.61,1-.43.9-.1-4.09-1.1s-4.68-3-5.07-3.36-1.68-2.37-2.35-2.94-1.16-2.7-1.35-3.21a4.14,4.14,0,0,1,.45-2.49c.36-.52,5-4.4,9.69-4.78,0,0,1.45-.16,1.25-.23s-4.17-1.87-4.94-2.36-5.17-4.37-5.25-4.48-2-2.5-2.08-3.28a10.8,10.8,0,0,1-.1-2.84A11.69,11.69,0,0,1,84,297.43a45.94,45.94,0,0,1,5.65-1.82c1-.17,7.28-.6,7.28-.6s-2.29-2.38-2.38-2.49-2.07-2.68-2.48-3.39-1.56-3-1.77-3.56-.88-2.91-.93-3.26a17,17,0,0,1,0-3.83,4.06,4.06,0,0,1,1.34-1.9,12.91,12.91,0,0,1,3.2-.76c.4,0,4.82.85,4.82.85Z" transform="translate(-80.96 -52.5)"/><path class="cls-7" d="M122.33,323.46a11.19,11.19,0,0,1-2.22-1.72,20.94,20.94,0,0,1-1.9-2.1,29.06,29.06,0,0,1-3-4.78,42.71,42.71,0,0,1-2.25-5.2L112,307l-.73-2.74.16.19A49,49,0,0,1,97,295.48a36.47,36.47,0,0,1-3-3.09l-1.31-1.71c-.45-.57-.77-1.22-1.16-1.83-.18-.31-.38-.61-.55-.94l-.44-1a13.52,13.52,0,0,1-.81-2c-.2-.69-.42-1.38-.61-2.09l-.19-1.07c0-.37-.07-.74-.11-1.1s0-.75,0-1.13a9.25,9.25,0,0,1,.2-1.13,4.09,4.09,0,0,1,1.27-2,6.22,6.22,0,0,1,4.38-1,30.18,30.18,0,0,1,8.32,2.22c2.66,1,5.25,2.23,7.81,3.44s5.17,2.26,7.82,3.25l8,2.91c1.34.49,2.67,1,4,1.51q1,.4,2,.84c.33.19.66.36,1,.55l.9.64a31.74,31.74,0,0,1,5.82,6.33,65.46,65.46,0,0,1,4.52,7.25A113.28,113.28,0,0,1,151.59,320c1.87,5.37,3.42,10.83,4.82,16.32-3-10.9-6.78-21.7-12.24-31.61a67.56,67.56,0,0,0-4.57-7.1,32.53,32.53,0,0,0-5.7-6.12l-.84-.59-.88-.49c-.64-.28-1.28-.55-1.94-.81-1.31-.52-2.64-1-4-1.49l-8-2.87c-2.66-1-5.34-2-7.9-3.24s-5.13-2.41-7.75-3.44a29.66,29.66,0,0,0-8-2.19,5.39,5.39,0,0,0-3.73.79,4.08,4.08,0,0,0-1.17,3.5c0,.34,0,.67.09,1l.18,1c.17.67.38,1.33.57,2a12.32,12.32,0,0,0,.77,1.93l.42.95c.15.31.35.6.52.9.38.59.68,1.22,1.11,1.77l1.25,1.68a36.19,36.19,0,0,0,2.89,3.05,48.39,48.39,0,0,0,14.18,9l.13.06,0,.13.68,2.73.81,2.69a44.35,44.35,0,0,0,2.11,5.21,28.81,28.81,0,0,0,2.9,4.82,21.86,21.86,0,0,0,1.83,2.13A11.57,11.57,0,0,0,122.33,323.46Z" transform="translate(-80.96 -52.5)"/><path class="cls-8" d="M131,289.37S118.25,253.12,105.75,239c-3.52-4-8.88-5.47-11.16-.68-7.57,15.9,6.08,39,6.08,39" transform="translate(-80.96 -52.5)"/><path class="cls-8" d="M96.9,294.94s-17.21,0-15.29,7.26S96.76,318,115.1,314.43" transform="translate(-80.96 -52.5)"/><path class="cls-8" d="M94,313.1S80.64,315,82.75,321.24s9.73,13.39,31.48,11.18c15.26-6.14-4.89-17.09-4.89-17.09" transform="translate(-80.96 -52.5)"/><path class="cls-8" d="M94.23,331.2s-10.18,2.65-7,9.09S108.51,353,118,345.67s-7.74-12.74-11.36-12.84" transform="translate(-80.96 -52.5)"/><path class="cls-8" d="M100.48,348.19s.77,17,26.08,16.26" transform="translate(-80.96 -52.5)"/><path class="cls-9" d="M123.77,362.71l-.65,5.88,10.23,9.35,5.45-.81s23.88-23,26.46-31.21l-.74-4.95-9.3-8.23s-2.77-1.61-5.17-.75Z" transform="translate(-80.96 -52.5)"/><rect class="cls-10" x="265.68" y="291.82" width="17.67" height="69.67"/><path class="cls-11" d="M346.65,365.3s-12.34,3.36-18.34,12c0,0,9.34,38,36,70v-51S350,374.63,346.65,365.3Z" transform="translate(-80.96 -52.5)"/><path class="cls-12" d="M328.31,377.32s-23.83,3-40.16,13.84c0,0,24.66,65.16,22.16,97.66s-5.5,91.5-5.5,91.5,16.5,17,27.5,24.5l32-5V426.28Z" transform="translate(-80.96 -52.5)"/></g><g id="Layer_2" data-name="Layer 2"><path class="cls-6" d="M476.67,277.83a20.35,20.35,0,0,0,18.64-3.11c9.33-6.83,25.49-24.24,16.17-41s-28.6-2.49-28.6-2.49Z" transform="translate(-80.96 -52.5)"/><path class="cls-13" d="M488.48,248s6.21,3.73,5,10.56c0,0,2.48-5-2.49-11.81Z" transform="translate(-80.96 -52.5)"/><path class="cls-13" d="M497.8,238.67c1.24.62,13.05,4.35,4.35,16.79,0,0,11.81-13.06-3.11-19.9Z" transform="translate(-80.96 -52.5)"/><path class="cls-6" d="M364.78,357.19s10.56.83,23.62-6c31.7-16.6,96.35-9.32,90.75-98.21-7.46-69.62-19.27-112.51-114.37-110.65Z" transform="translate(-80.96 -52.5)"/><ellipse class="cls-5" cx="342.25" cy="186.17" rx="17.4" ry="30.46"/><ellipse class="cls-14" cx="342.25" cy="186.17" rx="12.43" ry="18.03"/><ellipse class="cls-15" cx="342.25" cy="186.17" rx="6.84" ry="10.57"/><circle class="cls-5" cx="334.79" cy="183.68" r="2.49"/><circle class="cls-5" cx="337.27" cy="174.98" r="4.97"/><path class="cls-5" d="M364.78,303.2s33.56.12,46.62-6.72c0,0-2.49,39.18-46.62,38.55Z" transform="translate(-80.96 -52.5)"/><path class="cls-13" d="M364.78,246.13s16.78-1.24,10.56,19.89c0,0,5.6-18.65-10.56-18.65Z" transform="translate(-80.96 -52.5)"/><path class="cls-16" d="M404.35,203.24s18.86-14.71,37.71,0C442.06,203.24,423.62,177.34,404.35,203.24Z" transform="translate(-80.96 -52.5)"/><path class="cls-6" d="M252.89,277.83a20.38,20.38,0,0,1-18.65-3.11c-9.32-6.83-25.49-24.24-16.16-41s28.59-2.49,28.59-2.49Z" transform="translate(-80.96 -52.5)"/><path class="cls-13" d="M241.08,248s-6.22,3.73-5,10.56c0,0-2.49-5,2.48-11.81Z" transform="translate(-80.96 -52.5)"/><path class="cls-13" d="M231.75,238.67c-1.24.62-13.05,4.35-4.35,16.79,0,0-11.81-13.06,3.11-19.9Z" transform="translate(-80.96 -52.5)"/><path class="cls-6" d="M364.78,357.19s-10.57.83-23.62-6c-31.7-16.6-96.35-9.32-90.76-98.21,7.46-69.62,19.27-112.51,114.38-110.65Z" transform="translate(-80.96 -52.5)"/><ellipse class="cls-5" cx="225.38" cy="186.17" rx="17.4" ry="30.46"/><ellipse class="cls-14" cx="225.38" cy="186.17" rx="12.43" ry="18.03"/><ellipse class="cls-15" cx="225.38" cy="186.17" rx="6.84" ry="10.57"/><circle class="cls-5" cx="232.84" cy="183.68" r="2.49"/><circle class="cls-5" cx="230.36" cy="174.98" r="4.97"/><path class="cls-5" d="M364.78,303.2s-33.57.12-46.62-6.72c0,0,2.48,39.18,46.62,38.55Z" transform="translate(-80.96 -52.5)"/><path class="cls-13" d="M364.78,246.13S348,244.89,354.21,266c0,0-5.59-18.65,10.57-18.65Z" transform="translate(-80.96 -52.5)"/><path class="cls-16" d="M325.2,203.24s-18.85-14.71-37.71,0C287.49,203.24,305.93,177.34,325.2,203.24Z" transform="translate(-80.96 -52.5)"/><path class="cls-16" d="M314.61,155.07s15,21.13,58.74,19.27c0,0-7.18-5-11.75-16.79,0,0,20.89,23.62,69.84,23,0,0,40.47,27.35,37.86,86.4,0,0,3.91-7.45,14.36-13s27.41-23,26.76-46.62-3.92-37.92-11.75-47.86c0,0,11.1,1.24,14.36,5.59,0,0-7.83-69.62-80.94-78.32,0,0,2-5,15.67-10,0,0-39.82-28.59-97.91-9.32,0,0,5.88-13.67,12.4-14.92,0,0-39.81,3.73-69.84,44.76,0,0-41.12-7.46-71.14,34.81,0,0,7.83-1.25,14.36.62,0,0-16.32,10.57-15.67,39.78s4.57,47.86,21.54,68.38c7.18,9.32,8.49,13.05,8.49,14.92,0,0,1.3-37.92,9.79-49.73s35.24-28,42.42-35.43A117.38,117.38,0,0,0,314.61,155.07Z" transform="translate(-80.96 -52.5)"/></g></svg>