<?xml version="1.0" encoding="utf-8"?>
<!-- Generator: Adobe Illustrator 22.0.0, SVG Export Plug-In . SVG Version: 6.00 Build 0)  -->
<svg version="1.1" id="Layer_1" xmlns="http://www.w3.org/2000/svg" xmlns:xlink="http://www.w3.org/1999/xlink" x="0px" y="0px"
	 viewBox="0 0 141.7 141.7" style="enable-background:new 0 0 141.7 141.7;" xml:space="preserve">
<style type="text/css">
	.st0{fill:#626868;}
	.st1{fill:#FFBC00;}
	.st2{fill:#7F7F7F;}
	.st3{fill:#CBE9F7;}
	.st4{fill:#663514;}
	.st5{fill:#B76821;}
	.st6{fill:#512508;}
</style>
<g>
	<g>
		<path class="st0" d="M115.1,38.8l-1.3-5l-25.2,6.5c-1.1,0.3-3.9,0.6-3.5,2.2l1,3.8L115.1,38.8z"/>
		<path class="st1" d="M104.3,42l-1.5-5.9c-0.1-0.4,0.1-0.8,0.5-0.9l30.5-7.9c4.8-1.2,6.6,6.1,1.9,7.3l-30.5,7.9
			C104.8,42.6,104.4,42.4,104.3,42z"/>
		<path class="st2" d="M80.9,54c-2.6,0.7-5.3,0.6-7.6,0c-3.6-1-6.4-3.4-7.2-6.7L79.1,44l11.5-3C92,46.5,87.7,52.3,80.9,54z"/>
	</g>
	<path class="st3" d="M79.2,44.1c-2.4,2.4-4.3,5.9-5.8,10c-4.4,11.8-5.6,27.3-5.6,27.3H39.3c5.1-27.3,26.9-34,26.9-34L79.2,44.1
		L79.2,44.1z"/>
	<g>
		<path class="st4" d="M56.4,83.7v41.6H36.8c-15.2-7.6-25.2-23.6-24-41.6H56.4z"/>
		<rect x="36.8" y="125.3" class="st5" width="19.7" height="6.7"/>
		<path class="st6" d="M76.1,125.3H56.4V83.7h43.7C101.3,101.7,91.4,117.7,76.1,125.3z"/>
		<rect x="56.4" y="125.3" class="st4" width="19.7" height="6.7"/>
		<path class="st5" d="M99.9,86.2H13c-3.4,0-3.1-4.9,0-4.9h86.9C103,81.3,103.3,86.2,99.9,86.2z"/>
	</g>
	<g>
		<path class="st4" d="M45.7,75.4c0,2.2-1.8,4.1-4.1,4.1c-2.2,0-4.1-1.8-4.1-4.1c0-2.2,1.8-4.1,4.1-4.1
			C43.9,71.4,45.7,73.2,45.7,75.4z"/>
		<path class="st4" d="M55.8,75.4c0,2.2-1.8,4.1-4.1,4.1s-4.1-1.8-4.1-4.1c0-2.2,1.8-4.1,4.1-4.1S55.8,73.2,55.8,75.4z"/>
		<path class="st4" d="M65.8,75.4c0,2.2-1.8,4.1-4.1,4.1c-2.2,0-4.1-1.8-4.1-4.1c0-2.2,1.8-4.1,4.1-4.1C64,71.4,65.8,73.2,65.8,75.4
			z"/>
		<path class="st4" d="M75.8,75.4c0,2.2-1.8,4.1-4.1,4.1c-2.2,0-4.1-1.8-4.1-4.1c0-2.2,1.8-4.1,4.1-4.1C74,71.4,75.8,73.2,75.8,75.4
			z"/>
	</g>
	<g>
		<path class="st4" d="M50.7,65.4c0,2.2-1.8,4.1-4.1,4.1c-2.2,0-4.1-1.8-4.1-4.1c0-2.2,1.8-4.1,4.1-4.1
			C48.9,61.4,50.7,63.2,50.7,65.4z"/>
		<path class="st4" d="M60.8,65.4c0,2.2-1.8,4.1-4.1,4.1c-2.2,0-4.1-1.8-4.1-4.1c0-2.2,1.8-4.1,4.1-4.1C59,61.4,60.8,63.2,60.8,65.4
			z"/>
		<path class="st4" d="M70.8,65.4c0,2.2-1.8,4.1-4.1,4.1c-2.2,0-4.1-1.8-4.1-4.1c0-2.2,1.8-4.1,4.1-4.1C69,61.4,70.8,63.2,70.8,65.4
			z"/>
	</g>
	<g>
		<path class="st4" d="M55.8,55.4c0,2.2-1.8,4.1-4.1,4.1s-4.1-1.8-4.1-4.1s1.8-4.1,4.1-4.1S55.8,53.2,55.8,55.4z"/>
		<path class="st4" d="M65.8,55.4c0,2.2-1.8,4.1-4.1,4.1c-2.2,0-4.1-1.8-4.1-4.1s1.8-4.1,4.1-4.1C64,51.4,65.8,53.2,65.8,55.4z"/>
	</g>
	<path class="st4" d="M72,42c0,2.2-1.8,4.1-4.1,4.1c-2.2,0-4.1-1.8-4.1-4.1c0-2.2,1.8-4.1,4.1-4.1C70.2,38,72,39.8,72,42z"/>
	<path class="st4" d="M83,38c0,2.2-1.8,4.1-4.1,4.1c-2.2,0-4.1-1.8-4.1-4.1c0-2.2,1.8-4.1,4.1-4.1C81.2,33.9,83,35.7,83,38z"/>
	<path class="st5" d="M28.5,94.6c0,2-1.6,3.6-3.6,3.6c-2,0-3.6-1.6-3.6-3.6c0-2,1.6-3.6,3.6-3.6C26.9,91,28.5,92.6,28.5,94.6z"/>
</g>
</svg>
