<?xml version="1.0" encoding="utf-8"?>
<!-- Generator: Adobe Illustrator 22.0.0, SVG Export Plug-In . SVG Version: 6.00 Build 0)  -->
<svg version="1.1" id="Layer_1" xmlns="http://www.w3.org/2000/svg" xmlns:xlink="http://www.w3.org/1999/xlink" x="0px" y="0px"
	 viewBox="0 0 103.2 69.1" style="enable-background:new 0 0 103.2 69.1;" xml:space="preserve">
<style type="text/css">
	.st0{fill:#F05F37;}
	.st1{display:none;}
	.st2{display:inline;fill:#DAD731;}
	.st3{display:inline;fill:#E1C962;}
	.st4{display:inline;fill:#F28727;}
	.st5{display:inline;fill:#ECD975;}
	.st6{display:inline;fill:#A3C734;}
	.st7{display:inline;fill:#EAD96D;}
	.st8{display:inline;fill:#DDAE63;}
	.st9{display:inline;fill:#DCC36C;}
	.st10{display:inline;fill:#CDE1E8;}
	.st11{fill:#C91F20;}
	.st12{fill:#FFC644;}
	.st13{fill:#F0A408;}
	.st14{fill:#FFDA9F;}
	.st15{fill:#E5403C;}
	.st16{fill:#FF846D;}
	.st17{fill:#BC732E;}
	.st18{fill:#E7913C;}
	.st19{fill:#FCBD4C;}
	.st20{fill:#D13D35;}
	.st21{fill:#FFEBBC;}
	.st22{fill:#99AF17;}
	.st23{fill:#FBDA97;}
	.st24{fill:#A81E1B;}
	.st25{fill:#D36E13;}
	.st26{fill:#E69045;}
	.st27{opacity:0.75;}
	.st28{fill:#DBC4AD;}
	.st29{fill:#E2CBBF;}
	.st30{fill:#C9702D;}
	.st31{fill:#FF92B7;}
	.st32{fill:#FFC2DB;}
	.st33{fill:#7BE0FF;}
	.st34{fill:#F8CB78;}
	.st35{fill:#D67730;}
	.st36{fill:#962B25;}
	.st37{fill:#F3A855;}
	.st38{fill:#D19E66;}
	.st39{fill:#E5B780;}
	.st40{fill:#B47029;}
	.st41{fill:#E0934C;}
	.st42{fill:#FFE0AE;}
	.st43{fill:#E8B564;}
	.st44{fill:#F8CB7C;}
	.st45{fill:#D69F47;}
	.st46{fill:#FFEAC5;}
	.st47{fill:#EFD0A4;}
	.st48{fill:#B74B4B;}
	.st49{fill:#FBEACC;}
	.st50{fill:#FFF7EC;}
	.st51{fill:#98A826;}
	.st52{fill:#DD6B6B;}
	.st53{fill:#EAD4BB;}
	.st54{fill:#7EA81A;}
	.st55{fill:#94322F;}
	.st56{fill:#E0413B;}
	.st57{fill:#DDA650;}
	.st58{fill:#FDEAC9;}
	.st59{fill:#E5A03B;}
	.st60{fill:#EFDCCA;}
</style>
<g id="Capa_3">
	<g>
		<g>
			<polygon class="st0" points="102.6,69.5 1.6,69.5 48.6,0.5 			"/>
		</g>
		<g class="st1">
			<polygon class="st2" points="167.6,148.5 -57.4,148.5 -4.4,76.5 106.6,76.5 			"/>
			<path class="st3" d="M109.6,80.7H-6.5c-3.3,0-5.9-2.7-5.9-5.9v-1.3c0-3.3,2.7-5.9,5.9-5.9h116.1c3.3,0,5.9,2.7,5.9,5.9v1.3
				C115.6,78,112.9,80.7,109.6,80.7z"/>
		</g>
		<g class="st1">
			<polygon class="st4" points="254.6,235.5 -132.4,235.5 -64.4,155.5 175.6,155.5 			"/>
			<path class="st5" d="M179,159.9H-67.9c-3.6,0-6.6-2.9-6.6-6.6v-8c0-3.6,2.9-6.6,6.6-6.6h246.8c3.6,0,6.6,2.9,6.6,6.6v8
				C185.6,157,182.6,159.9,179,159.9z"/>
		</g>
		<g class="st1">
			<polygon class="st6" points="357.6,338.5 -224.4,338.5 -143.4,247.5 265.6,247.5 			"/>
			<path class="st7" d="M269.1,252.8H-144c-4.1,0-7.5-3.3-7.5-7.5v-9.1c0-4.1,3.3-7.5,7.5-7.5h413.1c4.1,0,7.5,3.3,7.5,7.5v9.1
				C276.6,249.5,273.2,252.8,269.1,252.8z"/>
		</g>
		<g class="st1">
			<polygon class="st8" points="469.6,450.5 -322.4,450.5 -238.4,352.5 373.6,352.5 			"/>
			<path class="st9" d="M375.4,357.8h-619.7c-4.5,0-8.1-3.6-8.1-8.1v-9.9c0-4.5,3.6-8.1,8.1-8.1h619.8c4.5,0,8.1,3.6,8.1,8.1v9.9
				C383.6,354.2,379.9,357.8,375.4,357.8z"/>
		</g>
		<g class="st1">
			<polygon class="st10" points="605.8,574.5 -436,574.5 -338.4,465.5 487.6,465.5 			"/>
			<path class="st9" d="M491.6,471.6h-835c-5,0-9-4-9-9v-10.9c0-5,4-9,9-9h835c5,0,9,4,9,9v10.9
				C500.6,467.5,496.5,471.6,491.6,471.6z"/>
		</g>
	</g>
</g>
<g id="Capa_10">
	<g>
		<path class="st11" d="M56.3,32.6l-1.1,1.3c0,0,4.5,4.5,7.1,4.4c2.6-0.1,5.8-4.3,5.8-4.3l-1.6-1.4C66.5,32.6,60.3,31.8,56.3,32.6z"
			/>
		<g>
			<path class="st12" d="M58.6,35.3c0-0.2,0.1-7.8,0.1-7.8l-1.6-0.6l0.3,7.8L58.6,35.3z"/>
			<polygon class="st13" points="58.8,27.6 59.5,26.6 59.5,35.2 58.6,35.3 			"/>
			<polygon class="st14" points="57.2,27 59.5,26.6 58.8,27.6 			"/>
		</g>
		<g>
			<path class="st12" d="M61.9,35c0-0.3,1.1-7.3,1.1-7.3l-1.2,0.8L61,35.9L61.9,35z"/>
			<polygon class="st13" points="61,27.6 61.8,28.5 60.9,35.8 60.1,36.3 			"/>
			<polygon class="st14" points="61,27.6 63,27.7 61.8,28.5 			"/>
		</g>
		<g>
			<path class="st12" d="M65,33.7l0.5-5.8l-1.2,0.7c0,0-0.6,5.6-0.4,5.5C64.2,33.9,65,33.7,65,33.7z"/>
			<polygon class="st13" points="64.1,27.3 64.4,28.6 64,34 63.3,33.8 			"/>
			<polygon class="st14" points="64.1,27.3 65.6,27.9 64.4,28.6 			"/>
		</g>
		<g>
			<path class="st12" d="M56.7,34.4l-2-5.6l1.6,0.4c0,0,2,5.3,1.7,5.3C57.8,34.4,56.7,34.4,56.7,34.4z"/>
			<polygon class="st13" points="56.3,27.9 56.3,29.2 58,34.5 58.7,34.2 			"/>
			<polygon class="st14" points="56.3,27.9 54.7,28.8 56.3,29.2 			"/>
		</g>
		<g>
			<path class="st12" d="M59.7,36.5c0-0.3-1.3-7.3-1.3-7.3l1.5,0.8l1,7.4L59.7,36.5z"/>
			<polygon class="st13" points="60.8,29.1 59.9,29.9 60.9,37.3 61.9,37.8 			"/>
			<polygon class="st14" points="60.8,29.1 58.5,29.2 59.9,29.9 			"/>
		</g>
		<g>
			<path class="st13" d="M62.2,37.1c0-0.2,0.2-7.6,0.2-7.6l1.9-0.6l-1.2,8L62.2,37.1z"/>
			<polygon class="st12" points="62.4,29.5 61.5,28.5 61.5,37.1 62.6,37.2 			"/>
			<polygon class="st14" points="64.2,28.9 61.5,28.5 62.4,29.5 			"/>
		</g>
		<g>
			<polygon class="st12" points="65.7,36.3 66.1,29 67.7,29 66.9,36.2 			"/>
			<polygon class="st13" points="66,29.1 65,28.2 64.9,36 66,36.2 			"/>
			<polygon class="st14" points="66,29.1 65,28.2 67.7,29 			"/>
		</g>
		<g>
			<polygon class="st12" points="58.4,37.7 56.1,30.9 54.8,31.2 57.4,38 			"/>
			<polygon class="st13" points="56.2,30.9 56.7,29.8 59,37.2 58.1,37.7 			"/>
			<polygon class="st14" points="56.2,30.9 56.7,29.8 54.8,31.2 			"/>
		</g>
		<path class="st15" d="M55.1,33.9L56.7,44c0,0,5.8,1.3,9.7,0.1c0.1-0.3,1.6-10.2,1.6-10.2l-4.7-0.4c0,0,0.3,3.2-1.8,3.2
			c-2.4,0-2.2-3.3-2.2-3.3L55.1,33.9z"/>
		<path class="st16" d="M56.3,36l0.9,6.8c0,0,1.8-0.3,1.7-2.5S56.3,36,56.3,36z"/>
		<path class="st16" d="M65.8,34.5c-0.6,0.1-1.1,0.4-1.3,0.9c-0.1,0.2,0,0.6,0.2,0.7c0.2,0.2,0.5,0.3,0.8,0.3c0.1,0,0.2,0,0.3-0.1
			c0.5,0,0.9-0.2,1-0.7C67,34.9,66.5,34.4,65.8,34.5z"/>
		<path class="st11" d="M57.1,43.9c0,0,6.2,1,9.1,0C61.1,43.1,57.1,43.9,57.1,43.9z"/>
	</g>
	<g>
		<path class="st17" d="M27.8,49.5l-9,14.6c-0.2,0.4,0.2,1,0.6,0.9L36,60.7c0.3-0.1,0.4-0.4,0.3-0.7c-0.9-2.1-4.2-9.7-8-10.7
			C28.1,49.2,27.9,49.3,27.8,49.5z"/>
		<path class="st18" d="M35.2,60.2c-1.3-4.2-3.8-7.7-7.3-10.4c-0.6-0.4-0.7-1.2-0.2-1.9l0,0c0.5-0.6,1.4-0.7,2-0.3
			c3.8,2.9,6.6,6.9,8.1,11.5c0.2,0.8-0.2,1.6-0.9,1.8l0,0C36.1,61.2,35.4,60.9,35.2,60.2z"/>
		<path class="st19" d="M29.9,52.3c-1.5-0.9-1.9,0.1-2.9-0.2s-2.3,0.4-2.7,1.7c-0.4,1.3,0.7,1.7-0.3,2.8c-1.1,1.1-2.6,0.3-2.6,1.9
			c0,1.7,0.5,3.3-0.5,3.8s-2.4,0-2.2,0.9c0.2,1,1.5,0.2,1.2,0.9c-0.3,0.7-2.1,1.4-0.9,1.8c1.2,0.4,1.9-1.2,3.1-1.7
			c1.2-0.5,1.7,0.3,3.4-0.9c1.6-1.1,1.1-1.7,2.8-1.7c1.8,0,3,0.6,4.1-0.3s2.3-1.2,1.3-2.8s-2.5-2-2.5-2.8
			C31.2,54.7,31.1,53,29.9,52.3z"/>
		<path class="st20" d="M29.1,53.7c-1.2-1.3-3.4,0.6-2,2.1C28.3,57.4,30.7,55.5,29.1,53.7z"/>
		<path class="st20" d="M29,59.8c-0.4-1.5-2.9-1-2.3,0.8C27.3,62.3,29.3,61,29,59.8z"/>
		<path class="st20" d="M24.1,59.6c-0.9-1.1-3,0.2-1.7,1.4C23.7,62.2,24.7,60.3,24.1,59.6z"/>
		<path class="st21" d="M30.5,58.2l-0.7,0.1l0.3,1l0.6-0.4c0,0,0.3,1.6,1.2,1c0.9-0.6,0-1.1-0.1-1.6c-0.1-0.5-0.1-1.5-0.9-1.5
			C30.2,56.9,30.5,58.2,30.5,58.2z"/>
		<path class="st21" d="M25,57.3L24.3,58l0.9,0.7l0.4-0.9c0,0,0.8,0.4,1.3-0.2c0.4-0.6-0.7-0.6-1-0.8c-0.3-0.2-0.5-1.5-1.1-0.9
			C24.3,56.6,25,57.3,25,57.3z"/>
		<polygon class="st22" points="25.6,60.8 24.5,62.1 25.2,62.5 26,61.2 		"/>
		<polygon class="st22" points="28.1,57.8 27.9,57.2 29.2,56.7 29.5,57.3 		"/>
		<polygon class="st22" points="26.1,55 25.9,53.2 25.3,53.5 25.5,55 		"/>
		<path class="st22" d="M22.7,62.7c0.1,0.2,0.1,0.8,0.1,0.8h-1.7v-0.7L22.7,62.7z"/>
		<path class="st23" d="M33.6,59.1L33.6,59.1c-0.1-0.2-0.3-0.2-0.4-0.2c-0.2,0-0.3,0.1-0.4,0.3l0,0c-0.1,0.2-0.1,0.3,0,0.5
			c0.1,0.1,0.3,0.2,0.4,0.2C33.6,59.8,33.8,59.4,33.6,59.1z"/>
		<path class="st23" d="M30.6,60.9c0.1-0.2,0-0.3,0-0.5c-0.1-0.2-0.3-0.2-0.4-0.3c-0.3,0-0.5,0.1-0.6,0.4c0,0.2,0.1,0.5,0.4,0.6
			c0.1,0,0.1,0,0.2,0c0,0,0,0,0.1,0C30.4,61.2,30.5,61.1,30.6,60.9z"/>
		<path class="st23" d="M31,56.2c0.2-0.2,0.2-0.5-0.1-0.7c-0.1-0.2-0.3-0.3-0.4-0.3s-0.2,0.1-0.3,0.1c0,0-0.1,0-0.1,0.1h0.1l0,0
			c0,0,0,0-0.1,0.1c0,0-0.1,0-0.1,0.1c-0.1,0.1-0.1,0.2-0.1,0.3c0,0.1,0,0.2,0.1,0.3c0.1,0.2,0.2,0.3,0.4,0.3
			C30.6,56.5,30.8,56.4,31,56.2z"/>
		<path class="st23" d="M26.1,59.8c0-0.2-0.1-0.4-0.4-0.5c-0.1-0.1-0.3-0.1-0.4,0c-0.2,0.1-0.3,0.2-0.3,0.4c0,0.2,0.1,0.4,0.3,0.5
			c0.1,0.1,0.2,0.1,0.4,0.1C25.9,60.3,26.1,60,26.1,59.8z"/>
		<path class="st23" d="M23.2,57.9c-0.1-0.1-0.2-0.1-0.3-0.1c-0.1,0-0.3,0-0.1,0c-0.2,0-0.4,0.1-0.5,0.3c-0.1,0.2,0,0.4,0.2,0.6
			c0.2,0.1,0.4,0.1,0.6-0.1C23.4,58.4,23.4,58.1,23.2,57.9z"/>
		<path class="st23" d="M27.5,52.8c0-0.2-0.1-0.4-0.2-0.4s-0.2,0-0.3,0c-0.2,0-0.4,0.3-0.3,0.5c0,0.2,0.3,0.4,0.5,0.3
			S27.5,53,27.5,52.8z"/>
		<path class="st24" d="M28.9,55.1c0-0.2-0.2-0.5-0.5-0.5c-0.1,0-0.1,0-0.2,0l0,0h-0.1l0,0c-0.1,0-0.1,0-0.2-0.1h-0.1h-0.1
			c-0.2-0.1-0.5,0-0.5,0.3c-0.1,0.4,0.1,0.7,0.4,0.9c0.1,0.1,0.3,0.2,0.5,0.2s0.4,0,0.6-0.1C28.9,55.6,29,55.3,28.9,55.1z"/>
		<path class="st24" d="M28.6,60.6c0.1-0.1,0.1-0.3,0-0.4c-0.1-0.3-0.4-0.5-0.7-0.3l0,0h-0.1c0.1,0,0,0,0,0l0,0h-0.1l0,0
			c-0.1,0-0.1,0-0.2,0s-0.2,0.1-0.3,0.2c0,0.1,0,0.2,0,0.3c0,0.2,0.3,0.4,0.5,0.4c0.2,0.1,0.5,0.1,0.7,0
			C28.4,60.8,28.5,60.7,28.6,60.6z"/>
		<path class="st24" d="M24,60.1c-0.1-0.2-0.3-0.3-0.5-0.2l0,0c0,0,0,0-0.1,0h-0.1h-0.1c-0.2,0-0.3,0.1-0.4,0.2s-0.2,0.3-0.1,0.5
			s0.2,0.3,0.4,0.4c0.1,0,0.2,0,0.3,0c0.2,0,0.4-0.1,0.5-0.2C24.1,60.6,24.2,60.3,24,60.1z"/>
		<path class="st24" d="M28.7,54c0-0.2-0.1-0.3-0.2-0.3l0,0c-0.2-0.1-0.6,0.1-0.6,0.4l0,0c0,0.2,0.1,0.3,0.2,0.3
			c0.1,0.1,0.3,0,0.4,0S28.7,54.1,28.7,54z"/>
		<path class="st25" d="M37.8,59.2c-1.4-4.6-4.2-8.6-8.1-11.5c-0.4-0.3-1-0.4-1.5-0.2c0.4,0.3,0.7,0.7,0.8,0.9
			c-0.1,0.4-0.1,0.8,0.2,1.3c0.3,0.5,0.9,0.7,1.5,0.8c0.3,0,0.6,0,0.9,0c0.3,0.3,0.5,0.6,0.8,0.9c0,0.7,0,1.3,0.4,1.9
			c0.4,0.8,1,1,1.8,1.3c0.6,0.2,0.5,0.2,0.4,0.7c-0.1,0.3-0.2,0.6-0.1,0.9c0.1,0.6,0.4,1.1,1,1.4c0.2,0.1,0.6,0.2,0.8,0.3
			c0.1,0.1,0.2,0.2,0.2,0.3c0,0.2-0.3,0.6-0.3,0.8c-0.1,0.4-0.1,0.7,0.1,1.1c0.1,0.3,0.3,0.5,0.5,0.7C37.7,60.6,38,59.8,37.8,59.2z"
			/>
	</g>
	<g>
		<g>
			<g>
				<path class="st26" d="M35.3,34.3c-3.6,0-6.5,2.9-6.5,6.5s2.9,6.5,6.5,6.5c3.6,0,6.5-2.9,6.5-6.5S38.9,34.3,35.3,34.3z
					 M35.3,42.6c-1,0-1.8-0.8-1.8-1.8s0.8-1.8,1.8-1.8s1.8,0.8,1.8,1.8C37.1,41.8,36.3,42.6,35.3,42.6z"/>
			</g>
			<g class="st27">
				<path class="st28" d="M35.3,34.3c-3.6,0-6.5,2.9-6.5,6.5s2.9,6.5,6.5,6.5c3.6,0,6.5-2.9,6.5-6.5S38.9,34.3,35.3,34.3z
					 M35.3,42.6c-1,0-1.8-0.8-1.8-1.8s0.8-1.8,1.8-1.8s1.8,0.8,1.8,1.8C37.1,41.8,36.3,42.6,35.3,42.6z"/>
			</g>
		</g>
		<path class="st29" d="M41.8,40.5c-0.1,3.5-3,6.2-6.5,6.2s-6.3-2.8-6.5-6.2c0,0.1,0,0.2,0,0.3c0,3.6,2.9,6.5,6.5,6.5
			c3.6,0,6.5-2.9,6.5-6.5C41.8,40.7,41.8,40.6,41.8,40.5z"/>
		<path class="st30" d="M36.8,36c-0.5-0.6-2-1-3.1-0.5c-1.9,1-1.3,1.6-2.1,2.4c-0.8,0.8-2.8,2.2-1.9,4s1.8,1.5,2.6,2.6
			c0.7,1.2,2.3,2.3,4.3,1.8c2.1-0.5,2-2.1,2.7-2.6s1.9-1.4,1.9-3.4C41.1,38.3,37.3,36.6,36.8,36z M35.4,43.1c-1.2,0-2.2-1-2.2-2.2
			s1-2.2,2.2-2.2s2.2,1,2.2,2.2S36.7,43.1,35.4,43.1z"/>
		<path class="st31" d="M36.7,35.8c-0.5-0.6-2-1-3.1-0.5c-1.9,1-1.3,1.6-2.1,2.4c-0.8,0.8-2.8,2.2-1.9,4s1.8,1.5,2.6,2.6
			c0.7,1.2,2.3,2.3,4.3,1.8c2.1-0.5,2-2.1,2.7-2.6s1.9-1.4,1.9-3.4C40.9,38.1,37.2,36.4,36.7,35.8z M35.3,43c-1.2,0-2.2-1-2.2-2.2
			s1-2.2,2.2-2.2s2.2,1,2.2,2.2S36.5,43,35.3,43z"/>
		<path class="st15" d="M31.6,40.2c-0.1-0.1-0.3,0-0.4,0.1c0,0,0,0.1-0.1,0.1c-0.1,0.1,0,0.3,0.1,0.4s0.3,0,0.4-0.1
			c0,0,0-0.1,0.1-0.1C31.8,40.5,31.8,40.3,31.6,40.2z"/>
		<path class="st15" d="M34.8,37.1c-0.1-0.1-0.2-0.2-0.3-0.2c-0.3,0-0.6,0.2-0.8,0.4c-0.1,0.1-0.1,0.3,0,0.4s0.3,0.2,0.4,0.1
			s0.2-0.1,0.3-0.2h0.1c0.1,0,0.1-0.1,0.2-0.1C34.8,37.3,34.8,37.2,34.8,37.1z"/>
		<path class="st15" d="M39.1,38.9c0-0.1-0.1-0.1-0.1-0.2l-0.1-0.1l0,0c-0.1-0.1-0.1-0.1-0.2-0.2c-0.1-0.1-0.3-0.1-0.5,0
			c-0.1,0.1-0.2,0.3-0.1,0.5c0.1,0.1,0.1,0.2,0.2,0.3l0.1,0.1c0.1,0.1,0.2,0.1,0.3,0.1c0.1,0.1,0.3,0,0.4-0.1
			C39.2,39.2,39.2,39,39.1,38.9z"/>
		<path class="st15" d="M37.6,42.3c-0.2,0-0.4,0.1-0.5,0.3v0.1l0,0c0,0,0,0,0,0.1s0,0.2,0,0.3c0,0.2,0.3,0.4,0.5,0.3
			c0.1-0.1,0.2-0.2,0.3-0.3C38,43,38,42.9,38,42.8C37.9,42.6,37.8,42.4,37.6,42.3z"/>
		<path class="st15" d="M35,44c-0.5,0-0.5,0.8,0,0.8C35.5,44.7,35.5,44,35,44z"/>
		<path class="st15" d="M31.9,38.5c-0.5,0-0.5,0.8,0,0.8S32.4,38.5,31.9,38.5z"/>
		<path class="st15" d="M36.8,36.9c-0.5,0-0.5,0.8,0,0.8S37.3,36.9,36.8,36.9z"/>
		<path class="st15" d="M31.7,43.4c-0.1-0.1-0.1-0.1-0.2-0.2c-0.2,0-0.4,0.1-0.4,0.3c0,0.2,0.2,0.4,0.4,0.3c0.1,0,0.2-0.1,0.2-0.2
			C31.8,43.6,31.8,43.5,31.7,43.4z"/>
		<path class="st15" d="M39,41.8c-0.1-0.1-0.2-0.1-0.4-0.1c-0.1,0-0.3,0.2-0.3,0.4l0,0c0,0.2,0.1,0.3,0.3,0.3l0,0
			c0.1,0,0.3-0.1,0.3-0.2C39.1,42.1,39.1,41.9,39,41.8z"/>
		<path class="st32" d="M30.7,40.6c0-0.1-0.1-0.1-0.1-0.1l0,0l0,0l0,0c0,0,0,0,0-0.1s0-0.1,0-0.2s-0.2-0.3-0.3-0.2
			c-0.2,0-0.3,0.1-0.3,0.2c-0.1,0.2-0.1,0.4,0,0.6c0,0.1,0.1,0.3,0.2,0.3c0.2,0.1,0.3,0.1,0.5,0C30.7,41,30.7,40.8,30.7,40.6z"/>
		<path class="st32" d="M32.9,42.4c-0.1-0.1-0.2-0.1-0.3-0.1c0,0-0.1,0,0,0c0,0-0.1,0-0.1-0.1c-0.2-0.1-0.4,0-0.5,0.1
			c-0.1,0.2,0,0.4,0.1,0.5c0,0,0,0,0.1,0l0,0c0.1,0.1,0.1,0.1,0.3,0.2C32.9,43.2,33.1,42.7,32.9,42.4z"/>
		<path class="st32" d="M32.2,36.6c-0.1,0.1-0.2,0.2-0.4,0.2c-0.2,0.1-0.3,0.2-0.4,0.4c-0.1,0.2,0.1,0.4,0.3,0.5
			c0.2,0,0.4-0.1,0.5-0.3c0.1-0.1,0.2-0.2,0.3-0.3C32.8,36.9,32.5,36.5,32.2,36.6z"/>
		<path class="st32" d="M38.4,40.6c0-0.1,0-0.1-0.1-0.2c-0.1-0.2-0.2-0.3-0.5-0.3c-0.2,0.1-0.3,0.2-0.3,0.5c0-0.1,0,0,0,0v0.1
			c0,0.1,0,0.2,0.1,0.3c0.1,0.2,0.5,0.1,0.6-0.1C38.4,40.8,38.4,40.7,38.4,40.6z"/>
		<path class="st32" d="M35.7,35.7C35.6,35.7,35.6,35.7,35.7,35.7C35.6,35.7,35.6,35.7,35.7,35.7c-0.1,0-0.1-0.1-0.2-0.1
			c-0.1,0-0.1,0-0.2,0c-0.2-0.1-0.4,0.1-0.5,0.3c0,0.2,0.1,0.4,0.3,0.5c0.1,0,0.2,0,0.2,0.1c0.1,0,0.2,0,0.3,0s0.3-0.2,0.2-0.3
			C35.9,35.8,35.8,35.7,35.7,35.7z"/>
		<path class="st32" d="M40.1,40.5c-0.1-0.2-0.3-0.2-0.5-0.2c-0.2,0.1-0.3,0.3-0.2,0.5v0.1V41l0,0c0,0.1,0,0.3,0,0.4
			c0.1,0.4,0.8,0.4,0.9,0C40.4,41.1,40.3,40.8,40.1,40.5z"/>
		<path class="st32" d="M37,44.7c-0.2-0.1-0.4-0.1-0.6,0c-0.1,0.1-0.2,0.2-0.4,0.3c-0.1,0.1-0.1,0.2-0.1,0.3c0,0.1,0,0.2,0.1,0.3
			c0.2,0.1,0.5,0.2,0.6,0c0.1-0.1,0.2-0.2,0.3-0.4C37.1,45.1,37.2,44.9,37,44.7z"/>
		<path class="st32" d="M33.2,44.1c-0.3,0-0.5,0.3-0.4,0.5c0,0.1,0.1,0.2,0.2,0.3c0.2,0.1,0.3,0.1,0.5-0.1c0.1-0.1,0.1-0.1,0.1-0.2
			C33.7,44.4,33.5,44.1,33.2,44.1z"/>
		<g>
			<path class="st33" d="M33.6,38.2c-0.1-0.1-0.2-0.1-0.3,0l0,0l0,0c0,0,0,0-0.1,0h-0.1c-0.2,0.1-0.3,0.2-0.2,0.4
				c0.1,0.1,0.3,0.2,0.4,0.1s0.1-0.2,0.2-0.2C33.7,38.4,33.6,38.3,33.6,38.2z"/>
			<path class="st33" d="M30.8,38.5c0-0.1-0.2-0.2-0.2-0.1c-0.1,0.1-0.2,0.2-0.3,0.3c-0.1,0.1-0.1,0.3,0,0.4s0.3,0.1,0.4-0.1
				C30.7,38.9,30.8,38.7,30.8,38.5z"/>
			<path class="st33" d="M31.5,41.9C31.5,41.9,31.4,41.9,31.5,41.9C31.4,41.8,31.4,41.8,31.5,41.9c-0.1-0.1-0.1-0.1-0.1-0.1l0,0l0,0
				l0,0c-0.1-0.1-0.2-0.2-0.3-0.1c-0.1,0-0.2,0.2-0.1,0.3c0.1,0.2,0.2,0.4,0.4,0.5c0.1,0.1,0.3-0.1,0.3-0.2
				C31.7,42.1,31.6,42,31.5,41.9z"/>
			<path class="st33" d="M33.9,43.3c-0.1,0-0.1,0-0.2,0s-0.1,0-0.2-0.1s-0.2,0.1-0.1,0.2s0.1,0.1,0.2,0.2c0,0.2,0.1,0.4,0.3,0.4
				C34.4,44,34.4,43.3,33.9,43.3z"/>
			<path class="st33" d="M34.9,45.5c-0.1,0-0.2,0-0.3,0c-0.1,0-0.2,0-0.2-0.1c-0.1,0-0.2,0-0.2,0.1s0,0.2,0.1,0.2
				c0.2,0.1,0.4,0.3,0.6,0.3S35.2,45.6,34.9,45.5z"/>
			<path class="st33" d="M36.8,43.8c-0.1,0-0.3,0-0.4,0c-0.1,0-0.1,0.2,0,0.2c0.1,0.1,0.3,0.1,0.4,0.2c0.1,0,0.3-0.1,0.3-0.2
				C37,43.8,36.9,43.8,36.8,43.8z"/>
			<path class="st33" d="M38.4,36.8c-0.1-0.3-0.4-0.3-0.6-0.4c-0.1,0-0.2,0-0.3,0.1s0,0.2,0.1,0.3c0,0,0.1,0,0.1,0.1l0,0l0,0
				c0.1,0.1,0.1,0.2,0.3,0.3C38.3,37.2,38.5,37.1,38.4,36.8z"/>
			<path class="st33" d="M34.6,35.7c-0.2,0-0.4,0.1-0.7,0.1c-0.2,0-0.2,0.2,0,0.3c0.2,0,0.4,0.1,0.7,0.1
				C34.8,36.1,34.8,35.8,34.6,35.7z"/>
			<path class="st33" d="M40,38.5C40,38.5,40,38.4,40,38.5c-0.2-0.2-0.2-0.3-0.3-0.3c-0.1-0.1-0.3-0.1-0.3,0
				c-0.1,0.1-0.1,0.2-0.1,0.3c0,0.1,0.1,0.1,0.1,0.2c0.1,0.1,0.1,0.2,0.2,0.2c0.1,0.1,0.4,0,0.4-0.2C40,38.7,40,38.6,40,38.5z"/>
			<path class="st33" d="M38.5,43.4c-0.1,0-0.2,0.1-0.3,0.2c0,0.1-0.1,0.1-0.1,0.2S38,43.9,38,44c-0.1,0.1,0,0.3,0.1,0.4
				s0.3,0.1,0.4,0c0.2-0.2,0.3-0.5,0.3-0.7C38.7,43.6,38.6,43.4,38.5,43.4z"/>
			<path class="st33" d="M39.2,36.8c-0.2,0-0.3,0.2-0.2,0.4l0,0c0.1,0.1,0.2,0.2,0.3,0.2s0.2-0.1,0.2-0.3l0,0
				C39.6,36.9,39.4,36.8,39.2,36.8z"/>
			<path class="st33" d="M35.5,37.5c-0.4,0-0.4,0.6,0,0.6C35.9,38.1,35.9,37.5,35.5,37.5z"/>
			<path class="st33" d="M30.1,41.9c0-0.1-0.1-0.2-0.3-0.2c-0.2,0-0.3,0.2-0.2,0.3v0.1c0.1,0.1,0.2,0.2,0.4,0.1
				C30.1,42.2,30.1,42.1,30.1,41.9z"/>
			<path class="st33" d="M39.8,42.6L39.8,42.6c-0.2,0.1-0.3,0.3-0.1,0.5c0.1,0.1,0.4,0.1,0.5-0.1l0,0C40.2,42.8,40,42.5,39.8,42.6z"
				/>
		</g>
		<path class="st34" d="M39.6,43.7c-0.3,0-0.3,0.5,0,0.5S39.9,43.7,39.6,43.7z"/>
		<path class="st34" d="M40.5,39.4c-0.4,0-0.4,0.7,0,0.7C40.9,40.1,40.9,39.4,40.5,39.4z"/>
		<path class="st34" d="M39.1,39.7c-0.4,0-0.4,0.6,0,0.6C39.5,40.3,39.5,39.7,39.1,39.7z"/>
		<path class="st34" d="M36.9,38c-0.4,0-0.4,0.7,0,0.7C37.3,38.6,37.3,38,36.9,38z"/>
		<path class="st34" d="M36.6,35.2L36.6,35.2c-0.2,0.1-0.2,0.4-0.1,0.5c0.2,0.2,0.4,0.1,0.5-0.1l0,0C37.2,35.3,36.9,35,36.6,35.2z"
			/>
		<path class="st34" d="M33.1,36.2c-0.2,0-0.3,0.1-0.3,0.3c0,0.2,0.1,0.3,0.3,0.3c0.2,0,0.3-0.1,0.3-0.3
			C33.4,36.4,33.3,36.2,33.1,36.2z"/>
		<circle class="st34" cx="34.5" cy="38.3" r="0.3"/>
		<path class="st34" d="M32.4,40.1c-0.2,0-0.3,0.1-0.3,0.3c0,0.2,0.1,0.3,0.3,0.3c0.2,0,0.3-0.1,0.3-0.3S32.5,40.1,32.4,40.1z"/>
		<path class="st34" d="M30.3,42.8c-0.2,0-0.4,0.3-0.3,0.5l0,0c0.1,0.1,0.2,0.2,0.3,0.2c0.1,0,0.2-0.1,0.3-0.2l0,0
			C30.8,43,30.6,42.8,30.3,42.8z"/>
		<path class="st34" d="M32.1,44.8c-0.4,0-0.4,0.6,0,0.6C32.5,45.3,32.5,44.8,32.1,44.8z"/>
		<path class="st34" d="M35.5,43.1c-0.4,0-0.4,0.6,0,0.6S35.9,43.1,35.5,43.1z"/>
		<path class="st34" d="M35.8,45.8c-0.2,0-0.2,0.4,0,0.4S36,45.8,35.8,45.8z"/>
		<path class="st34" d="M30.8,37.3c-0.2,0-0.3,0.1-0.3,0.3c0,0.2,0.1,0.3,0.3,0.3c0.2,0,0.3-0.1,0.3-0.3
			C31.1,37.5,30.9,37.3,30.8,37.3z"/>
		<path class="st34" d="M33.4,35.4c-0.2,0-0.2,0.3,0,0.3C33.6,35.7,33.6,35.4,33.4,35.4z"/>
		<path class="st34" d="M38.9,44.4c-0.4,0-0.4,0.6,0,0.6C39.2,45,39.2,44.4,38.9,44.4z"/>
	</g>
	<g>
		<g>
			<g>
				<path class="st26" d="M39.3,29.4c-3.6,0-6.5,2.9-6.5,6.5s2.9,6.5,6.5,6.5s6.5-2.9,6.5-6.5S42.9,29.4,39.3,29.4z M39.3,37.7
					c-1,0-1.8-0.8-1.8-1.8s0.8-1.8,1.8-1.8s1.8,0.8,1.8,1.8C41.1,36.9,40.3,37.7,39.3,37.7z"/>
			</g>
			<g class="st27">
				<path class="st28" d="M39.3,29.4c-3.6,0-6.5,2.9-6.5,6.5s2.9,6.5,6.5,6.5s6.5-2.9,6.5-6.5S42.9,29.4,39.3,29.4z M39.3,37.7
					c-1,0-1.8-0.8-1.8-1.8s0.8-1.8,1.8-1.8s1.8,0.8,1.8,1.8C41.1,36.9,40.3,37.7,39.3,37.7z"/>
			</g>
		</g>
		<path class="st29" d="M45.8,35.6c-0.1,3.5-3,6.2-6.5,6.2S33,39,32.8,35.6c0,0.1,0,0.2,0,0.3c0,3.6,2.9,6.5,6.5,6.5
			s6.5-2.9,6.5-6.5C45.8,35.8,45.8,35.7,45.8,35.6z"/>
		<path class="st30" d="M40.8,31.1c-0.5-0.6-2-1-3.1-0.5c-1.9,1-1.3,1.6-2.1,2.4c-0.8,0.8-2.8,2.2-1.9,4s1.8,1.5,2.6,2.6
			c0.7,1.2,2.3,2.3,4.3,1.8s2-2.1,2.7-2.6s1.9-1.4,1.9-3.4C45.1,33.4,41.3,31.7,40.8,31.1z M39.4,38.2c-1.2,0-2.2-1-2.2-2.2
			s1-2.2,2.2-2.2s2.2,1,2.2,2.2C41.6,37.3,40.7,38.2,39.4,38.2z"/>
		<path class="st31" d="M40.7,30.9c-0.5-0.6-2-1-3.1-0.5c-1.9,1-1.3,1.6-2.1,2.4s-2.8,2.2-1.9,4s1.8,1.5,2.6,2.6
			c0.7,1.2,2.3,2.3,4.3,1.8c2.1-0.5,2-2.1,2.7-2.6s1.9-1.4,1.9-3.4C44.9,33.2,41.2,31.5,40.7,30.9z M39.3,38.1c-1.2,0-2.2-1-2.2-2.2
			s1-2.2,2.2-2.2s2.2,1,2.2,2.2S40.5,38.1,39.3,38.1z"/>
		<path class="st15" d="M35.6,35.4c-0.1-0.1-0.3,0-0.4,0.1c0,0,0,0.1-0.1,0.1c-0.1,0.1,0,0.3,0.1,0.4s0.3,0,0.4-0.1
			c0,0,0-0.1,0.1-0.1C35.8,35.6,35.8,35.4,35.6,35.4z"/>
		<path class="st15" d="M38.8,32.2c-0.1-0.1-0.2-0.2-0.3-0.2c-0.3,0-0.6,0.2-0.8,0.4c-0.1,0.1-0.1,0.3,0,0.4s0.3,0.2,0.4,0.1
			c0.1-0.1,0.2-0.1,0.3-0.2h0.1c0.1,0,0.1-0.1,0.2-0.1C38.8,32.4,38.8,32.3,38.8,32.2z"/>
		<path class="st15" d="M43.1,34c0-0.1-0.1-0.1-0.1-0.2l-0.1-0.1l0,0c-0.1-0.1-0.1-0.1-0.2-0.2c-0.1-0.1-0.3-0.1-0.5,0
			c-0.1,0.1-0.2,0.3-0.1,0.5c0.1,0.1,0.1,0.2,0.2,0.3l0.1,0.1c0.1,0.1,0.2,0.1,0.3,0.1c0.1,0.1,0.3,0,0.4-0.1
			C43.2,34.3,43.2,34.1,43.1,34z"/>
		<path class="st15" d="M41.6,37.4c-0.2,0-0.4,0.1-0.5,0.3v0.1l0,0c0,0,0,0,0,0.1s0,0.2,0,0.3c0,0.2,0.3,0.4,0.5,0.3
			c0.1-0.1,0.2-0.2,0.3-0.3C42,38.1,42,38,42,37.9C41.9,37.7,41.8,37.5,41.6,37.4z"/>
		<path class="st15" d="M39,39.1c-0.5,0-0.5,0.8,0,0.8C39.5,39.8,39.5,39.1,39,39.1z"/>
		<path class="st15" d="M35.9,33.6c-0.5,0-0.5,0.8,0,0.8C36.4,34.4,36.4,33.6,35.9,33.6z"/>
		<path class="st15" d="M40.8,32.1c-0.5,0-0.5,0.8,0,0.8C41.3,32.9,41.3,32.1,40.8,32.1z"/>
		<path class="st15" d="M35.7,38.6c-0.1-0.1-0.1-0.1-0.2-0.2c-0.2,0-0.4,0.1-0.4,0.3c0,0.2,0.2,0.4,0.4,0.3c0.1,0,0.2-0.1,0.2-0.2
			C35.8,38.8,35.8,38.6,35.7,38.6z"/>
		<path class="st15" d="M43,36.9c-0.1-0.1-0.2-0.1-0.4-0.1c-0.1,0-0.3,0.2-0.3,0.4l0,0c0,0.2,0.1,0.3,0.3,0.3l0,0
			c0.1,0,0.3-0.1,0.3-0.2C43.1,37.2,43.1,37,43,36.9z"/>
		<path class="st32" d="M34.7,35.7c0-0.1-0.1-0.1-0.1-0.1l0,0l0,0l0,0c0,0,0,0,0-0.1s0-0.1,0-0.2s-0.2-0.3-0.3-0.2
			c-0.2,0-0.3,0.1-0.3,0.2c-0.1,0.2-0.1,0.4,0,0.6c0,0.1,0.1,0.3,0.2,0.3c0.2,0.1,0.3,0.1,0.5,0C34.7,36.2,34.7,35.9,34.7,35.7z"/>
		<path class="st32" d="M36.9,37.5c-0.1-0.1-0.2-0.1-0.3-0.1c0,0-0.1,0,0,0c0,0-0.1,0-0.1-0.1c-0.2-0.1-0.4,0-0.5,0.1
			c-0.1,0.2,0,0.4,0.1,0.5c0,0,0,0,0.1,0l0,0c0.1,0.1,0.1,0.1,0.3,0.2C36.9,38.3,37.1,37.8,36.9,37.5z"/>
		<path class="st32" d="M36.2,31.8C36.1,31.9,36,32,35.8,32c-0.2,0.1-0.3,0.2-0.4,0.4c-0.1,0.2,0.1,0.4,0.3,0.5
			c0.2,0,0.4-0.1,0.5-0.3c0.1-0.1,0.2-0.2,0.3-0.3C36.8,32,36.5,31.6,36.2,31.8z"/>
		<path class="st32" d="M42.4,35.7c0-0.1,0-0.1-0.1-0.2c-0.1-0.2-0.2-0.3-0.5-0.3c-0.2,0.1-0.3,0.2-0.3,0.5c0-0.1,0,0,0,0v0.1
			c0,0.1,0,0.2,0.1,0.3c0.1,0.2,0.5,0.1,0.6-0.1C42.4,36,42.4,35.8,42.4,35.7z"/>
		<path class="st32" d="M39.7,30.8C39.6,30.8,39.6,30.8,39.7,30.8C39.6,30.8,39.6,30.8,39.7,30.8c-0.1,0-0.1-0.1-0.2-0.1
			c-0.1,0-0.1,0-0.2,0c-0.2-0.1-0.4,0.1-0.5,0.3c0,0.2,0.1,0.4,0.3,0.5c0.1,0,0.2,0,0.2,0.1c0.1,0,0.2,0,0.3,0s0.3-0.2,0.2-0.3
			C39.9,31,39.8,30.8,39.7,30.8z"/>
		<path class="st32" d="M44.1,35.6c-0.1-0.2-0.3-0.2-0.5-0.2c-0.2,0.1-0.3,0.3-0.2,0.5V36v0.1l0,0c0,0.1,0,0.3,0,0.4
			c0.1,0.4,0.8,0.4,0.9,0C44.4,36.2,44.3,35.9,44.1,35.6z"/>
		<path class="st32" d="M41,39.9c-0.2-0.1-0.4-0.1-0.6,0c-0.1,0.1-0.2,0.2-0.4,0.3c-0.1,0.1-0.1,0.2-0.1,0.3c0,0.1,0,0.2,0.1,0.3
			c0.2,0.1,0.5,0.2,0.6,0c0.1-0.1,0.2-0.2,0.3-0.4C41.1,40.3,41.2,40,41,39.9z"/>
		<path class="st32" d="M37.2,39.2c-0.3,0-0.5,0.3-0.4,0.5c0,0.1,0.1,0.2,0.2,0.3c0.2,0.1,0.3,0.1,0.5-0.1c0.1-0.1,0.1-0.1,0.1-0.2
			C37.7,39.5,37.5,39.2,37.2,39.2z"/>
		<g>
			<path class="st33" d="M37.6,33.3c-0.1-0.1-0.2-0.1-0.3,0l0,0l0,0c0,0,0,0-0.1,0h-0.1c-0.2,0.1-0.3,0.2-0.2,0.4
				c0.1,0.1,0.3,0.2,0.4,0.1c0.1-0.1,0.1-0.2,0.2-0.2C37.7,33.5,37.6,33.4,37.6,33.3z"/>
			<path class="st33" d="M34.8,33.6c0-0.1-0.2-0.2-0.2-0.1c-0.1,0.1-0.2,0.2-0.3,0.3c-0.1,0.1-0.1,0.3,0,0.4s0.3,0.1,0.4-0.1
				C34.7,34,34.8,33.8,34.8,33.6z"/>
			<path class="st33" d="M35.5,37C35.5,37,35.4,37,35.5,37C35.4,37,35.4,37,35.5,37C35.4,36.9,35.4,36.9,35.5,37L35.5,37L35.5,37
				L35.5,37c-0.2-0.2-0.3-0.3-0.4-0.2c-0.1,0-0.2,0.2-0.1,0.3c0.1,0.2,0.2,0.4,0.4,0.5c0.1,0.1,0.3-0.1,0.3-0.2
				C35.7,37.2,35.6,37.1,35.5,37z"/>
			<path class="st33" d="M37.9,38.4c-0.1,0-0.1,0-0.2,0c-0.1,0-0.1,0-0.2-0.1c-0.1-0.1-0.2,0.1-0.1,0.2c0.1,0.1,0.1,0.1,0.2,0.2
				c0,0.2,0.1,0.4,0.3,0.4C38.4,39.2,38.4,38.4,37.9,38.4z"/>
			<path class="st33" d="M38.9,40.6c-0.1,0-0.2,0-0.3,0s-0.2,0-0.2-0.1c-0.1,0-0.2,0-0.2,0.1s0,0.2,0.1,0.2c0.2,0.1,0.4,0.3,0.6,0.3
				C39.1,41.2,39.2,40.7,38.9,40.6z"/>
			<path class="st33" d="M40.8,38.9c-0.1,0-0.3,0-0.4,0c-0.1,0-0.1,0.2,0,0.2c0.1,0.1,0.3,0.1,0.4,0.2c0.1,0,0.3-0.1,0.3-0.2
				C41,39,40.9,38.9,40.8,38.9z"/>
			<path class="st33" d="M42.4,32c-0.1-0.3-0.4-0.3-0.6-0.4c-0.1,0-0.2,0-0.3,0.1s0,0.2,0.1,0.3c0,0,0.1,0,0.1,0.1l0,0l0,0
				c0.1,0.1,0.1,0.2,0.3,0.3C42.3,32.4,42.5,32.2,42.4,32z"/>
			<path class="st33" d="M38.6,30.9c-0.2,0-0.4,0.1-0.7,0.1c-0.2,0-0.2,0.2,0,0.3c0.2,0,0.4,0.1,0.7,0.1
				C38.8,31.2,38.8,30.9,38.6,30.9z"/>
			<path class="st33" d="M44,33.7C44,33.7,44,33.6,44,33.7c-0.2-0.2-0.2-0.3-0.3-0.3c-0.1-0.1-0.3-0.1-0.3,0
				c-0.1,0.1-0.1,0.2-0.1,0.3c0,0.1,0.1,0.1,0.1,0.2c0.1,0.1,0.1,0.2,0.2,0.2c0.1,0.1,0.4,0,0.4-0.2C44,33.8,44,33.7,44,33.7z"/>
			<path class="st33" d="M42.5,38.5c-0.1,0-0.2,0.1-0.3,0.2c0,0.1-0.1,0.1-0.1,0.2S42,39,42,39.1c-0.1,0.1,0,0.3,0.1,0.4
				s0.3,0.1,0.4,0c0.2-0.2,0.3-0.5,0.3-0.7C42.7,38.7,42.6,38.6,42.5,38.5z"/>
			<path class="st33" d="M43.2,31.9c-0.2,0-0.3,0.2-0.2,0.4l0,0c0.1,0.1,0.2,0.2,0.3,0.2s0.2-0.1,0.2-0.3l0,0
				C43.6,32,43.4,31.9,43.2,31.9z"/>
			<path class="st33" d="M39.5,32.6c-0.4,0-0.4,0.6,0,0.6S39.9,32.6,39.5,32.6z"/>
			<path class="st33" d="M34.1,37c0-0.1-0.1-0.2-0.3-0.2c-0.2,0-0.3,0.2-0.2,0.3v0.1c0.1,0.1,0.2,0.2,0.4,0.1
				C34.1,37.3,34.1,37.2,34.1,37z"/>
			<path class="st33" d="M43.8,37.7L43.8,37.7c-0.2,0.1-0.3,0.3-0.1,0.5c0.1,0.1,0.4,0.1,0.5-0.1l0,0C44.2,37.9,44,37.7,43.8,37.7z"
				/>
		</g>
		<path class="st34" d="M43.6,38.8c-0.3,0-0.3,0.5,0,0.5S43.9,38.8,43.6,38.8z"/>
		<path class="st34" d="M44.5,34.6c-0.4,0-0.4,0.7,0,0.7C44.9,35.2,44.9,34.6,44.5,34.6z"/>
		<path class="st34" d="M43.1,34.8c-0.4,0-0.4,0.6,0,0.6C43.5,35.4,43.5,34.8,43.1,34.8z"/>
		<path class="st34" d="M40.9,33.1c-0.4,0-0.4,0.7,0,0.7C41.3,33.8,41.3,33.1,40.9,33.1z"/>
		<path class="st34" d="M40.6,30.3L40.6,30.3c-0.2,0.1-0.2,0.4-0.1,0.5c0.2,0.2,0.4,0.1,0.5-0.1l0,0C41.2,30.5,40.9,30.1,40.6,30.3z
			"/>
		<path class="st34" d="M37.1,31.3c-0.2,0-0.3,0.1-0.3,0.3s0.1,0.3,0.3,0.3s0.3-0.1,0.3-0.3C37.4,31.5,37.3,31.3,37.1,31.3z"/>
		<circle class="st34" cx="38.5" cy="33.4" r="0.3"/>
		<path class="st34" d="M36.4,35.2c-0.2,0-0.3,0.1-0.3,0.3c0,0.2,0.1,0.3,0.3,0.3s0.3-0.1,0.3-0.3S36.5,35.2,36.4,35.2z"/>
		<path class="st34" d="M34.3,37.9c-0.2,0-0.4,0.3-0.3,0.5l0,0c0.1,0.1,0.2,0.2,0.3,0.2c0.1,0,0.2-0.1,0.3-0.2l0,0
			C34.8,38.1,34.6,37.9,34.3,37.9z"/>
		<path class="st34" d="M36.1,39.9c-0.4,0-0.4,0.6,0,0.6C36.5,40.5,36.5,39.9,36.1,39.9z"/>
		<path class="st34" d="M39.5,38.2c-0.4,0-0.4,0.6,0,0.6S39.9,38.2,39.5,38.2z"/>
		<path class="st34" d="M39.8,40.9c-0.2,0-0.2,0.4,0,0.4S40,40.9,39.8,40.9z"/>
		<path class="st34" d="M34.8,32.4c-0.2,0-0.3,0.1-0.3,0.3c0,0.2,0.1,0.3,0.3,0.3c0.2,0,0.3-0.1,0.3-0.3
			C35.1,32.6,34.9,32.4,34.8,32.4z"/>
		<path class="st34" d="M37.4,30.5c-0.2,0-0.2,0.3,0,0.3S37.6,30.5,37.4,30.5z"/>
		<path class="st34" d="M42.9,39.5c-0.4,0-0.4,0.6,0,0.6C43.2,40.1,43.2,39.5,42.9,39.5z"/>
	</g>
	<g>
		<path class="st35" d="M87.6,54.8c-0.8-2.7-2.7-3-5.5-1.8c-2.7,1.3-4.4,1.7-5.7,0.4c-1.3-1.4-2.7-4.5-5.4-3.1s-1.7,7.5,4.6,9.6
			C82.3,62.1,88.5,57.8,87.6,54.8z"/>
		<path class="st36" d="M87.3,57.5c0,0,0.8-1.2,0.6-2c0.1,0,1.1-0.3,1.1-0.3L88.4,54l-0.7,0.9c0,0-0.5-1.2-2.6-0.8
			c-2.1,0.4-4.2,2.8-6.6,2c-2.4-0.8-5.3-4.6-6.8-4.5c-1.5,0.2-1.9,0.7-1.9,0.7s-0.5-1.1-0.7-0.9s-0.7,1.1-0.7,1.1l0.7,0.3
			c0,0-1,1.9,1.9,4.9C73.9,60.6,79.8,61.5,87.3,57.5z"/>
		<path class="st15" d="M83.6,56c0.3,0.4,0.6,0.9,1,1s0.7-0.1,0.8-0.5s-0.2-1-0.3-1.4c-0.1-0.3-0.1-0.6-0.2-0.9c0,0,0,0,0-0.1
			c0.1,0.1,0.3,0.2,0.4,0.3c0.2,0.1,0.4-0.1,0.3-0.3c-0.4-0.6-1.3-0.9-1.2,0.1c0,0.5,0.2,1,0.3,1.5c0.1,0.4,0.3,1-0.2,0.5
			c-0.6-0.6-1-1.9-1.9-2.1c-1.1-0.2-0.9,1.2-0.8,1.8c0.1,0.3,0.1,0.7-0.4,0.6c-0.3,0-0.4-0.3-0.6-0.5c-0.3-0.3-0.5-0.8-0.9-1
			c-1.2-0.6-1.1,1.6-1.3,2.1c-0.3,0.9-1.1,0.2-1.3-0.4c-0.1-0.2,0-0.4-0.1-0.7c0-0.6-0.1-1.2-0.3-1.8c-0.4-1.1-1.3-0.5-1.6,0.4
			c0,0.2-0.1,0.6-0.3,0.7c-0.3,0.1-0.5-0.4-0.6-0.6c-0.2-0.6-0.2-1.2,0-1.8c0.1-0.5,0.2-1.4-0.5-1.6c-0.5-0.1-0.8,0.4-0.9,0.8
			c-0.1,0.2-0.1,0.4-0.3,0.5c-0.3,0.3-0.6,0.2-0.7-0.2c-0.1-0.4-0.2-1-0.1-1.4c0-0.2-0.3-0.3-0.3-0.1c-0.1,0.6-0.2,3.1,1.2,2.4
			c0.5-0.2,0.5-0.9,0.8-1.3l0.1-0.2c0.4-0.1,0.3,0.5,0.3,0.6c0,0.2-0.1,0.3-0.2,0.5c-0.1,0.4-0.2,0.9-0.1,1.3c0.1,0.6,0.3,1.4,1,1.6
			c0.6,0.2,1-0.3,1.1-0.8c0.1-0.2,0.1-1,0.5-0.8c0.2,0.1,0.3,0.8,0.3,1c0.1,0.5,0,1,0.1,1.5c0.2,1.1,1.7,2,2.3,0.6
			c0.2-0.4,0.2-0.8,0.2-1.2c0.1-0.3,0.1-0.9,0.5-0.7c0.4,0.2,0.7,0.9,1,1.2c0.7,0.6,1.7,0.3,1.6-0.7c0-0.3-0.5-1.4,0.1-1.4
			C82.9,54.7,83.4,55.7,83.6,56z"/>
		<path class="st12" d="M83.4,54.8c0.3,0.3,0.3,1,0.5,1.4s0.8,1.1,1.3,0.7c0.2-0.2,0.2-0.5,0.2-0.8c0-0.1-0.1-0.3-0.1-0.4
			s-0.1-0.2-0.1-0.3c0.2-0.4,0.4-0.5,0.7-0.4c0.2,0.1,0.3-0.3,0.2-0.4c-0.4-0.3-1-0.3-1.3,0.2c-0.1,0.2-0.1,0.5-0.1,0.7
			c0,0.1,0.1,0.1,0.1,0.2c0.1,0.2,0.2,0.4,0.2,0.6c-0.3-0.1-0.5-0.2-0.6-0.5c-0.2-0.5-0.3-1.3-0.9-1.6c-0.5-0.3-1.2-0.1-1.4,0.4
			c-0.2,0.4,0,0.8,0.2,1.2c0.1,0.2,0.3,0.5,0.4,0.7c0.2,0.8-0.7,0.2-0.9-0.2c-0.4-0.6-0.5-1.2-1.2-1.5c-0.4-0.2-0.8,0-1,0.4
			s-0.1,1,0,1.4c0.1,0.2,0.1,0.5,0.2,0.7c0,0.3,0.1,0.5-0.2,0.6c-0.5,0.2-0.8-0.6-0.9-1c-0.1-0.5,0.1-1.3-0.4-1.7
			c-0.4-0.3-0.8-0.1-1.1,0.2c-0.2,0.3-0.5,1.2-1,0.9c-0.2-0.1-0.3-0.5-0.3-0.7c-0.2-0.6-0.1-1.2-0.1-1.9c0-0.4-0.2-0.9-0.7-1
			c-0.5,0-0.7,0.5-0.8,0.9c0,0.1-0.1,0.4-0.2,0.5c-0.6,0.3-0.5-0.8-0.4-1.1c0.1-0.3,0.2-0.6,0.2-0.9c0-0.5,0-1.2-0.6-1.3
			c-0.7-0.1-0.8,0.5-0.9,1c0,0.2,0,1.1-0.3,1.1c-0.6,0.2-0.5-1.2-0.5-1.5s-0.4-0.2-0.4,0c0,0.6-0.2,1.4,0.3,1.8
			c0.3,0.3,0.8,0.3,1.1-0.1s0.2-0.9,0.4-1.4c0-0.1,0-0.2,0-0.3c0.3,0,0.5,0.1,0.4,0.4c0,0.2-0.1,0.4-0.1,0.6
			c-0.1,0.4-0.3,0.8-0.2,1.3c0.1,0.4,0.3,0.9,0.8,0.9c0.6,0,0.7-0.5,0.9-0.9l0.1-0.3c0.4-0.2,0.6-0.1,0.5,0.3c0,0.2,0,0.4,0,0.6
			c0,0.3,0,0.5,0,0.8c0.1,0.5,0.2,1,0.5,1.4c0.2,0.3,0.5,0.4,0.8,0.3c0.2-0.1,0.4-0.3,0.6-0.5c0.1-0.1,0.2-0.3,0.2-0.4
			c0.1-0.3,0.4-0.4,0.8-0.1c0,0.2,0,0.4,0,0.5c0,0.6,0.1,1.2,0.5,1.6c0.3,0.3,1,0.5,1.4,0.2c0.3-0.3,0.3-0.8,0.2-1.2
			c0-0.2-0.1-0.4-0.2-0.7c0-0.2-0.1-0.4,0-0.6c0.1-0.7,0.7-0.4,1,0.1c0.4,0.5,0.5,1.2,1.1,1.5c0.4,0.1,0.9,0.1,1.1-0.3
			c0.2-0.4-0.2-1-0.4-1.3c0-0.1-0.2-0.3-0.2-0.4C82.4,54.7,82.9,54.2,83.4,54.8z"/>
		<path class="st26" d="M87.7,58.2c-0.8-2.9-2.9-3.2-5.8-1.9c-2.9,1.3-4.7,1.8-6.1,0.4c-1.4-1.4-2.9-4.7-5.8-3.3
			c-2.9,1.5-1.8,8,4.8,10.2C82.1,65.9,88.7,61.4,87.7,58.2z"/>
		<path class="st37" d="M85.9,58.3c-1.5-1.9-3.7-1.1-5.3,0.1s-6,2.2-4.8,3.7s4.2,1.7,7.3,0.3C86.2,60.9,86.7,59.2,85.9,58.3z"/>
		<path class="st37" d="M73.6,55.7c-1.1-1.8-3.9-2.1-4.1,0.4c-0.2,2.5,2.3,3.2,3.4,2.3S74.2,56.7,73.6,55.7z"/>
	</g>
	<g>
		<polygon class="st38" points="61.7,53.6 55.1,52.7 55.4,59.6 		"/>
		<path class="st39" d="M49.2,53.9c0.3,0,6-1.2,6-1.2s0.3,10.3,0.4,10.1C55.6,62.6,49.2,53.9,49.2,53.9z"/>
		<path class="st40" d="M56,54.5c-0.2-0.1-1.2-8.2-1.2-8.2l0.5-0.3l1.2,8.4L56,54.5z"/>
		<polygon class="st41" points="55.8,46.4 55.3,46 56.4,54.4 56.7,54.2 		"/>
		<polygon class="st41" points="58.4,46.6 56.3,53.9 56.6,53.9 59,46.3 		"/>
		<polygon class="st40" points="59.3,47.1 59,46.3 56.6,53.9 56.9,53.9 		"/>
		<path class="st42" d="M52.9,54.6c0,0-0.1-1.6,1.5-2c1.5-0.3,2.7,1,2.7,1s1-1.2,2.6-1s0.9,2,0.9,2l-5,0.8L52.9,54.6z"/>
		<g>
			<g>
				<path class="st43" d="M53.7,53.2c0,0.2,0,0.3,0,0.4c0,0.2,0,0.3,0,0.5c0,0.4,0.6,0.4,0.6,0c0-0.3-0.1-0.8-0.4-1
					C53.9,53.1,53.7,53.1,53.7,53.2z M54.8,53c-0.1,0-0.2,0-0.2,0.1c0,0.2,0.1,0.4,0.1,0.7c0,0.2-0.1,0.5,0,0.7
					c0,0.2,0.3,0.2,0.4,0.1c0.2-0.2,0.1-0.6,0.1-0.9C55.1,53.4,55,53.1,54.8,53z M59.5,53.1c-0.3,0.1-0.6,0.2-0.8,0.4
					c-0.2,0.2-0.5,0.5-0.4,0.8c0,0.1,0.2,0.2,0.3,0.1c0.2-0.1,0.3-0.4,0.4-0.6c0.2-0.2,0.4-0.3,0.6-0.4C59.8,53.3,59.7,53,59.5,53.1
					z M55.4,53c0,0.2,0,0.3,0.1,0.5s0,0.4,0.1,0.6S56,54.2,56,54c0-0.4-0.1-0.8-0.4-1C55.5,52.9,55.4,52.9,55.4,53z M58.9,53
					C58.9,52.9,58.9,52.9,58.9,53c-0.3-0.1-0.5,0.1-0.7,0.2s-0.3,0.4-0.4,0.6c0,0.1,0.1,0.2,0.2,0.2c0.2-0.1,0.3-0.3,0.4-0.5
					C58.6,53.3,58.9,53.2,58.9,53z"/>
			</g>
		</g>
		<path class="st44" d="M50.7,54.4c0,0,0.7-0.6,2-0.6s1.8,0.6,1.8,0.6s1.1-0.9,2.4-0.9s2.3,1.2,2.3,1.2l-4.1,1.2L50.7,54.4z"/>
		<path class="st45" d="M53.4,54.1c-0.2,0-0.4,0.2-0.5,0.3c-0.1,0.1-0.3,0.4-0.2,0.6c0,0.1,0.3,0.2,0.3,0c0.1-0.2,0.1-0.3,0.2-0.5
			C53.3,54.5,53.4,54.3,53.4,54.1C53.5,54.2,53.5,54.1,53.4,54.1z M52.6,54c-0.2,0.1-0.3,0.3-0.5,0.5C52,54.7,51.8,54.9,52,55
			c0,0,0.1,0.1,0.1,0c0.2-0.1,0.2-0.2,0.3-0.4C52.5,54.4,52.6,54.2,52.6,54C52.9,54.1,52.7,53.9,52.6,54z M53.9,54.3
			c-0.1,0.1-0.2,0.3-0.3,0.4s-0.1,0.3-0.1,0.4l0.1,0.1c0.2,0,0.2-0.2,0.2-0.3c0-0.2,0.1-0.3,0.2-0.5C54.2,54.3,54,54.1,53.9,54.3z
			 M57.2,54.2c-0.1-0.1-0.3-0.2-0.5-0.3c-0.1,0-0.1,0-0.1,0.1c0,0.2,0.2,0.3,0.3,0.4s0.1,0.3,0.2,0.5c0.1,0.1,0.4,0,0.4-0.2
			C57.5,54.5,57.3,54.3,57.2,54.2z M55.9,54.1c-0.2,0-0.2,0.2,0,0.3c0.1,0,0.2,0.2,0.3,0.3c0.1,0.1,0.1,0.3,0.2,0.4
			c0.1,0.2,0.4,0.1,0.4-0.1s-0.2-0.4-0.3-0.5C56.3,54.2,56.1,54.1,55.9,54.1z M57.3,53.7c-0.1,0-0.2,0.1-0.1,0.2
			c0.2,0.2,0.5,0.4,0.6,0.7c0.1,0.3,0.4,0.1,0.4-0.1C58.1,54.1,57.7,53.7,57.3,53.7z"/>
		<polygon class="st46" points="55.2,55.1 49.2,53.9 50.6,63.6 55.7,65.2 		"/>
		<polygon class="st47" points="61.7,53.6 55.2,55.1 55.7,65.2 60.4,63.8 		"/>
		<path class="st48" d="M53.3,54.6c0.1-0.2-0.3-1.1-1-0.9c-0.8,0.1-0.4,0.8-0.2,1C52.4,54.8,53.1,55.2,53.3,54.6z"/>
		<path class="st48" d="M57.4,52.7c-0.6,0-0.8,0.6-0.3,0.9C57.5,54,58.2,52.7,57.4,52.7z"/>
		<path class="st48" d="M55,52.6c-0.5-0.1-0.8,0.8-0.2,0.7S55.5,52.7,55,52.6z"/>
		<path class="st48" d="M59.7,53.3c-0.5-0.1-1.1,1-0.2,1C60.4,54.4,60.1,53.4,59.7,53.3z"/>
		<path class="st48" d="M55.8,54.3c-0.6-0.2-1.1,0.8-0.2,0.9C56.4,55.3,56.1,54.4,55.8,54.3z"/>
		<polygon class="st49" points="61.6,53.6 55.1,55.1 58,56.7 64.6,55.2 		"/>
		<polygon class="st50" points="55.1,55.1 49.1,53.9 46.4,55.5 52.7,56.9 		"/>
		<path class="st51" d="M56.2,53.4c-0.3,0-0.3,0.4,0,0.4C56.4,53.7,56.4,53.4,56.2,53.4z"/>
		<path class="st51" d="M54.5,54.2C54.5,54.3,54.5,54.3,54.5,54.2c-0.2,0.2,0.1,0.5,0.3,0.3l0,0C55,54.4,54.7,54.1,54.5,54.2z"/>
		<path class="st51" d="M53.3,54c-0.1,0-0.2,0-0.3,0c-0.1,0.1-0.1,0.2,0,0.3c0.1,0.1,0.2,0.1,0.3,0C53.5,54.2,53.5,54,53.3,54z"/>
		<path class="st51" d="M53.6,52.9L53.6,52.9c-0.2,0.2,0.1,0.5,0.3,0.3l0,0C54.1,53,53.8,52.6,53.6,52.9z"/>
		<path class="st51" d="M51.6,53.7c-0.3,0-0.3,0.4,0,0.4S51.9,53.7,51.6,53.7z"/>
		<path class="st51" d="M54.6,54.7c-0.2,0-0.2,0.3,0,0.3C54.8,55,54.9,54.7,54.6,54.7z"/>
		<path class="st51" d="M57.8,53.9L57.8,53.9C57.8,53.9,57.7,53.9,57.8,53.9c-0.2-0.1-0.2-0.1-0.3,0c-0.2,0.1-0.1,0.4,0.1,0.4
			c0.1,0,0.2,0,0.2-0.1C57.9,54.1,57.9,54,57.8,53.9z"/>
		<path class="st51" d="M59.3,53.2c-0.3,0-0.3,0.5,0,0.5C59.6,53.7,59.6,53.2,59.3,53.2z"/>
		<path class="st51" d="M59.2,52.5c-0.3,0-0.3,0.5,0,0.5S59.5,52.5,59.2,52.5z"/>
		<path class="st51" d="M55.4,53.5c-0.1,0-0.2,0-0.3,0S55,53.7,55,53.8c0.1,0.1,0.2,0.1,0.3,0.1s0.2-0.1,0.2-0.2
			C55.6,53.6,55.5,53.6,55.4,53.5z"/>
		<path class="st51" d="M56.5,54.1c-0.3,0-0.3,0.5,0,0.5S56.9,54.1,56.5,54.1z"/>
		<path class="st48" d="M55.8,58.5c0,0.1,0.2,3.2,0.2,3.2l0.7-0.2c0,0,0.9,0.5,1.8,0.3c1-0.2,1.3-0.9,1.3-0.9l0.5-0.2l0.3-2.8
			L59.7,58c0,0-0.5-0.6-1.6-0.5c-1,0.1-1.5,0.8-1.5,0.8L55.8,58.5z"/>
		<path class="st52" d="M54.9,58.5c0,0.1,0,2.9,0,2.9l-0.8-0.1c0,0-0.6,0.4-1.5,0.2c-0.9-0.2-1.4-0.8-1.4-0.8l-0.7-0.1L50.3,58
			l0.6,0.1c0,0,0.7-0.5,1.6-0.4c1.2,0.1,1.8,0.7,1.8,0.7L54.9,58.5z"/>
	</g>
	<g>
		<path class="st53" d="M52.3,26.7c0,0-10.6-0.3-12-1.4c-1.4-1.1,5.1-10.1,5.1-10.1s1.9-1.6,3.1-1.5C49.8,13.7,54.3,24.9,52.3,26.7z
			"/>
		<path class="st54" d="M51.8,14.3c0,0,1.1-2.1,2.4-1.3c1.4,0.8,0.3,1.7,1.5,2.5s1.9-0.3,2.6,1.2c0.8,1.6-1.5,1.8-1.1,2.8
			s1.6,0.4,1.2,2.4c-0.4,2-3.7,1.7-3.7,1.7l-3.4-5.7L51.8,14.3z"/>
		<path class="st55" d="M52.2,14c0,0,1.6-0.3,1.5,0.4s-0.8,1-0.8,1s0.7-0.1,0.7,0.6s-0.8,0.7-0.8,0.7s0.8,0.4,0.5,1
			c-0.4,0.6-2,0.1-2,0.1L52.2,14z"/>
		<path class="st55" d="M55.7,22.3c0,0,1.5-0.1,1.2-1S56,20.4,56,20.4s0.6-1,0.1-1.5S55,18.7,55,18.7s0.7-1.1-0.3-1.2
			c-1-0.1-1.4,1.3-1.4,1.3L55.7,22.3z"/>
		<path class="st56" d="M54.4,15l-1.5,3.4c0,0,1.8,1.7,2.4-0.2C55.9,16.3,54.4,15,54.4,15z"/>
		<path class="st57" d="M51.3,17.8c0,0,2.1-3.6,0.7-4.5s-12.8,5.6-13.1,6.4s0.5,2.4,0.5,2.4L51.3,17.8z"/>
		<path class="st44" d="M38.8,21c0.2-0.3,8.4-5.1,10.6-5.6c2.2-0.5,7.8,6.5,6.4,8.7c-1.3,2.2-14.2,1.8-15.5,1.2
			C39.1,24.7,38.3,22.2,38.8,21z"/>
		<path class="st58" d="M54.1,16L54.1,16c0-0.1,0-0.2-0.1-0.2c0-0.2-0.1-0.3-0.2-0.4c-0.2-0.3-0.4-0.5-0.8-0.4
			c-0.1,0-0.1,0.2-0.1,0.3c0.2,0.3,0.2,0.4,0.2,0.7s0,0.6,0.2,0.8C53.9,17.1,54.6,16.5,54.1,16z"/>
		<path class="st58" d="M56.7,20.1c0-0.3-0.2-0.7-0.5-0.8l0,0c0.1-0.2,0.1-0.4,0-0.6c-0.1-0.7-0.4-1.1-1.1-1.2
			c-0.4-0.1-0.5,0.7-0.1,0.8c0.3,0.1-0.1,0.8-0.1,1c0,0.3,0.1,0.6,0.2,0.8c0.1,0.1,0.1,0.1,0.2,0.2c0.1,0,0.1,0.1,0.2,0.1
			C55.7,20.9,56.8,20.8,56.7,20.1z"/>
		<path class="st58" d="M55.6,16.6c0.1-0.2,0-0.5-0.2-0.6l0,0c-0.1,0-0.1-0.1-0.2-0.1c-0.2-0.1-0.4,0-0.5,0.2s-0.1,0.4,0.1,0.6
			c0.1,0.1,0.2,0.2,0.3,0.2C55.3,17,55.5,16.9,55.6,16.6z"/>
		<path class="st59" d="M50,17.6c0.1-0.3-0.1-0.7-0.3-0.8c-0.3-0.2-0.6-0.1-0.9-0.1c-0.6,0.1-1.2,0.5-1.1,1.2
			c0.1,0.5,0.4,0.6,0.8,0.6c0.1,0,0.1,0,0.2,0C49.2,18.5,49.9,18.1,50,17.6z"/>
		<path class="st59" d="M52.7,20c0.1-0.2,0.1-0.3,0-0.5s-0.3-0.4-0.5-0.4c-0.1,0-0.2,0-0.3,0c-0.2,0-0.3,0-0.5,0.2s-0.2,0.6,0.1,0.7
			h0.1c0,0,0,0,0.1,0.1s0.3,0.1,0.4,0.2C52.4,20.2,52.6,20.1,52.7,20z"/>
		<path class="st59" d="M45.9,22.4c0.4-0.2,0.5-0.7,0.4-1.1c-0.2-0.7-1.4-1.1-1.9-0.5c0,0-0.1,0-0.1,0.1c-0.3,0.2-0.4,0.6-0.2,0.9
			c0.2,0.3,0.5,0.6,0.8,0.7C45.2,22.5,45.6,22.5,45.9,22.4z"/>
		<path class="st59" d="M48.3,21.2C48.4,21.2,48.2,21.3,48.3,21.2L48.3,21.2c0.1,0,0.2-0.1,0.2-0.2c0.1-0.3-0.1-0.7-0.4-0.7
			c-0.1,0-0.3,0-0.4,0.1c-0.2,0.1-0.3,0.3-0.2,0.5s0.2,0.4,0.5,0.4c0.1,0,0.1,0,0.2,0C48.2,21.3,48.3,21.3,48.3,21.2z"/>
		<path class="st59" d="M45.5,19c0-0.1-0.1-0.2-0.2-0.2c0-0.1-0.1-0.1-0.2-0.1c-0.1,0-0.2,0-0.2,0.1c-0.1,0.1-0.2,0.2-0.2,0.3
			c0,0.2,0.1,0.4,0.3,0.4c0,0,0,0,0.1,0h0.1l0,0C45.3,19.4,45.5,19.2,45.5,19z"/>
		<path class="st59" d="M43.1,22.1c0-0.6-0.7-1.2-1.3-0.9c-0.2,0.1-0.3,0.3-0.3,0.4c-0.1,0.2-0.1,0.3,0,0.5s0.2,0.5,0.4,0.6
			C42.4,23.1,43.1,22.7,43.1,22.1z"/>
		<path class="st59" d="M52.9,24.6c0.3-0.1,0.6-0.3,0.7-0.6c0.1-0.4-0.1-0.8-0.4-1c-0.5-0.4-1.6-0.2-2.1,0.1
			c-0.1,0.1-0.2,0.2-0.3,0.4c-0.3,0.3-0.3,0.8,0.2,1.1C51.6,24.9,52.4,24.8,52.9,24.6z"/>
		<path class="st59" d="M49.7,24.1c0-0.1,0-0.1,0-0.2c0-0.1,0-0.2,0-0.3c-0.1-0.4-0.5-0.5-0.8-0.3c-0.2,0-0.4,0.2-0.4,0.4
			c0,0.4,0.4,0.6,0.7,0.6C49.4,24.4,49.6,24.3,49.7,24.1z"/>
		<g>
			<path class="st59" d="M50.9,22c0.2,0,0.3-0.2,0.3-0.4s-0.1-0.3-0.2-0.4c-0.1-0.1-0.1-0.1-0.2-0.1c-0.1,0-0.1,0-0.2,0h-0.1l0,0
				l0,0l0,0c0,0,0,0-0.1,0c0,0,0,0,0.1,0l0,0c-0.1,0-0.1,0.1-0.2,0.1c-0.1,0.1-0.1,0.4-0.1,0.5c0,0,0,0,0,0.1s0.1,0.1,0.2,0.2
				C50.7,22,50.8,22,50.9,22z"/>
			<path class="st59" d="M50.6,21.1L50.6,21.1L50.6,21.1z"/>
		</g>
		<path class="st59" d="M45.3,25c0.4-0.4,0.1-1-0.2-1.3c-0.4-0.5-1.2-0.8-1.6-0.2c-0.1,0.2-0.1,0.4,0,0.5c-0.1,0.3,0,0.6,0.2,0.8
			C44.1,25.2,44.9,25.5,45.3,25z"/>
		<path class="st59" d="M41.5,24.5c0.3-0.2,0.3-0.5,0.1-0.7l0,0c-0.1-0.2-0.4-0.2-0.6-0.1c-0.2,0.1-0.3,0.3-0.2,0.5l0,0
			c0.1,0.2,0.2,0.3,0.3,0.3C41.3,24.5,41.4,24.5,41.5,24.5z"/>
		<path class="st53" d="M54.7,23.5c0.8-1.7-3.9-2-6.8-1.1c-3,0.9-5.8,2.1-6.4,0.8s-0.8-2.3-1.6-1.7s-0.1,2.9,1,3.5
			C41.8,25.5,54,25.1,54.7,23.5z"/>
		<path class="st60" d="M45.4,15.2c0,0-1.5,10.4-2.2,10.6C42.5,26,40,25.7,39.3,25s-1.3-3.8-0.4-5.4C39.4,18.9,45.4,15.2,45.4,15.2z
			"/>
	</g>
</g>
</svg>
