<svg xmlns="http://www.w3.org/2000/svg" viewBox="0 0 410.67 417.41"><defs><style>.cls-1{isolation:isolate;}.cls-2{fill:#c4c5ae;}.cls-11,.cls-13,.cls-15,.cls-16,.cls-2,.cls-6,.cls-8{opacity:0.5;}.cls-11,.cls-13,.cls-15,.cls-16,.cls-2,.cls-20,.cls-21,.cls-32,.cls-5,.cls-6,.cls-8{mix-blend-mode:multiply;}.cls-3{fill:#efefef;}.cls-4,.cls-5{fill:#eaebe3;}.cls-6{fill:#acbbbe;}.cls-15,.cls-7{fill:#fbc532;}.cls-8{fill:#fcd66d;}.cls-9{fill:#fcd057;}.cls-10{fill:#f0b129;}.cls-11{fill:#edbb95;}.cls-12{fill:#fff;}.cls-13{fill:#e0d0b8;}.cls-14{fill:#f6e219;opacity:0.6;}.cls-16{fill:#efe6da;}.cls-17{fill:#fefae7;}.cls-18{fill:#c9ad83;}.cls-19{fill:#cf3e32;}.cls-20{fill:#e4d5c0;}.cls-21{fill:#dcc9ad;}.cls-22{fill:#df8077;}.cls-23{fill:#f1a848;}.cls-24{fill:#f7c56b;}.cls-25{fill:#e38238;}.cls-26{fill:#e89c49;}.cls-27{fill:#b36124;}.cls-28{fill:#d3712f;}.cls-29{fill:#e89842;}.cls-30{mix-blend-mode:screen;}.cls-31{fill:#240d00;}.cls-33{fill:#faf2f2;}</style></defs><title>Desayuno</title><g class="cls-1"><g id="Capa_3" data-name="Capa 3"><g id="Desayuno"><circle class="cls-2" cx="214.47" cy="221.21" r="196.2"/><circle class="cls-3" cx="196.2" cy="196.2" r="196.2"/><circle class="cls-4" cx="196.2" cy="196.2" r="145.23"/><path class="cls-5" d="M130,267.41A145.19,145.19,0,0,1,375.22,162.1,145.19,145.19,0,1,0,160.89,356.84,144.55,144.55,0,0,1,130,267.41Z" transform="translate(-64.64 -55.34)"/><path class="cls-6" d="M130,201.65s-9.93,14.29-6.14,17.53,65.49,28.08,74.33,31S221,256.44,221,256.44s5.45-15.21-.83-19.59S130,201.65,130,201.65Z" transform="translate(-64.64 -55.34)"/><path class="cls-7" d="M136.63,196.09s-10.83,13.62-7.26,17.1,63.52,32.29,72.15,35.77,22.28,7.73,22.28,7.73,6.43-14.82.45-19.6S136.63,196.09,136.63,196.09Z" transform="translate(-64.64 -55.34)"/><path class="cls-8" d="M155.75,223.45c-10.33-5.92-20.13-13.41-21.31-24.39-3,4.21-7.59,11.67-5.07,14.13,3.57,3.48,63.52,32.29,72.15,35.77s22.28,7.73,22.28,7.73.34-.78.77-2C201.75,244.15,177.42,235.87,155.75,223.45Z" transform="translate(-64.64 -55.34)"/><path class="cls-9" d="M176.8,219.71c-4.78-2.93-10.4-4.32-15.38-7a114.23,114.23,0,0,0-15.27-7.29c-.39-.14-.8.36-.43.65a59.29,59.29,0,0,0,14.93,8.24c2.59,1,5.45,1.79,8,2.92,2.8,1.24,4.85,2.78,7.88,3.38A.46.46,0,0,0,176.8,219.71Z" transform="translate(-64.64 -55.34)"/><path class="cls-9" d="M221.48,241.11c-6.19-3.92-13.56-7-20.31-9.92-6-2.6-12.18-6-18.39-7.93-1.12-.35-1.44,1.28-.59,1.8,3.26,2,6.87,2.94,10.34,4.55s6.66,3.53,10.11,5.07c6,2.7,12.09,5.84,18.42,7.72C221.87,242.64,222.08,241.49,221.48,241.11Z" transform="translate(-64.64 -55.34)"/><path class="cls-6" d="M140.19,362.46s11.25,14,18.2,9.58,78.74-71.58,77.19-77.89-11.51-7.32-11.51-7.32S139.28,345.62,136.54,349,140.19,362.46,140.19,362.46Z" transform="translate(-64.64 -55.34)"/><path class="cls-10" d="M136.12,354.83s10.31,14.66,17.53,10.74,83.24-66.3,82.11-72.7-11-8.05-11-8.05-88.44,53.14-91.4,56.31S136.12,354.83,136.12,354.83Z" transform="translate(-64.64 -55.34)"/><path class="cls-11" d="M207,309.49c-9.61,8.4-18.48,17.62-28.19,25.92-8.18,7-23.34,23.08-36.63,26.3,3.48,3.16,7.84,5.81,11.43,3.86,7.22-3.93,83.24-66.3,82.11-72.7a7,7,0,0,0-1.39-3.05C225.09,296.15,215.59,302,207,309.49Z" transform="translate(-64.64 -55.34)"/><path class="cls-7" d="M167.09,333.32c-4.25,1.25-7.81,4.26-11.49,6.67-4.73,3.11-9.67,6.08-14.12,9.59-1.13.89.07,2.9,1.37,2.17,4.45-2.47,8.62-5.49,12.84-8.32,4.06-2.72,9-5.17,12.09-9C168.14,334,167.68,333.15,167.09,333.32Z" transform="translate(-64.64 -55.34)"/><path class="cls-7" d="M187.12,318.85a14.49,14.49,0,0,0-6.23,3.47,26.51,26.51,0,0,1-4.43,3.49c-1.21.7-2.39,1.36-3.53,2.17-1.64,1.16.58,3.79,2,2.37.84-.86,1.62-1.76,2.43-2.66a17.53,17.53,0,0,1,4.85-3.58c1.93-1.14,4.22-2.46,5.56-4.26A.64.64,0,0,0,187.12,318.85Z" transform="translate(-64.64 -55.34)"/><path class="cls-7" d="M190.6,316.06a4.21,4.21,0,0,0-2.23,1.48c-.76.82.71,1.93,1.43,1a18.67,18.67,0,0,1,1.33-1.34C191.53,316.8,191.3,315.89,190.6,316.06Z" transform="translate(-64.64 -55.34)"/><path class="cls-7" d="M208.23,304.46a31.57,31.57,0,0,0-6.92,3.71c-.84.66.27,2,1.06,1.28a34.18,34.18,0,0,1,5.94-4.81A.1.1,0,0,0,208.23,304.46Z" transform="translate(-64.64 -55.34)"/><path class="cls-7" d="M216.76,298.29c-1.48.81-2.77,1.89-4.27,2.67-1,.53-.07,2,.83,1.32a14.26,14.26,0,0,0,3.65-3.74C217,298.41,216.92,298.2,216.76,298.29Z" transform="translate(-64.64 -55.34)"/><path class="cls-7" d="M222.8,293.46a8.73,8.73,0,0,0-2.58,1.79c-.54.43.14,1.25.69.83a8.83,8.83,0,0,0,2.32-2.11A.35.35,0,0,0,222.8,293.46Z" transform="translate(-64.64 -55.34)"/><path class="cls-7" d="M227,290.45a10.28,10.28,0,0,0-2.57,1.64c-.63.46.15,1.41.79.94a10.06,10.06,0,0,0,2.32-1.93C227.81,290.72,227.37,290.31,227,290.45Z" transform="translate(-64.64 -55.34)"/><path class="cls-6" d="M114.48,315.55s3.69,16,13.37,13.64,95.9-44.82,95-51.83-9.26-19.56-13.51-18.7S113.66,312.06,114.48,315.55Z" transform="translate(-64.64 -55.34)"/><path class="cls-10" d="M113.52,306.33s2.64,16.26,12.45,14.49,98.62-38.47,98.21-45.52-8-20.13-12.26-19.55S112.93,302.81,113.52,306.33Z" transform="translate(-64.64 -55.34)"/><path class="cls-7" d="M147.36,294.39c-9.33,2.72-18.61,8.15-27.51,12.09a.93.93,0,0,0,.71,1.72l15.7-6.83c3.89-1.69,8.6-3,11.68-6A.59.59,0,0,0,147.36,294.39Z" transform="translate(-64.64 -55.34)"/><path class="cls-7" d="M159.74,287a19.82,19.82,0,0,0-3.58,1.2c-1.63.72-.14,3.17,1.18,2.07a19.35,19.35,0,0,0,2.71-2.72C160.23,287.36,160,287,159.74,287Z" transform="translate(-64.64 -55.34)"/><path class="cls-7" d="M167.1,282.75c-1.63.05-3.11,1.19-4.5,2a1,1,0,1,0,1,1.81c1.37-.81,3.09-1.51,4-2.9A.55.55,0,0,0,167.1,282.75Z" transform="translate(-64.64 -55.34)"/><path class="cls-7" d="M182.46,274.76c-1.84.2-3.45,1.44-5.14,2.16-1.95.82-3.8,1.81-5.67,2.78-1.37.71-.42,3,.91,2.22,1.81-1,3.62-2,5.36-3.11s3.71-1.85,4.94-3.34A.45.45,0,0,0,182.46,274.76Z" transform="translate(-64.64 -55.34)"/><path class="cls-7" d="M190.4,270.33a2.3,2.3,0,0,0-1.81.61c-.89.69-1.73,1.4-2.65,2.06-.33.24,0,.83.37.63,1-.52,2-1,3-1.43a2.29,2.29,0,0,0,1.39-1.33A.4.4,0,0,0,190.4,270.33Z" transform="translate(-64.64 -55.34)"/><path class="cls-7" d="M198.56,265.6c-1-.24-1.63.35-2.4.92s0,2.17,1,1.69,1.74-.74,2-1.83A.71.71,0,0,0,198.56,265.6Z" transform="translate(-64.64 -55.34)"/><path class="cls-11" d="M150.8,304.52c-8.79,4.42-23,12.87-34.16,10.79,1.92,3.41,4.88,6.31,9.33,5.51,9.82-1.76,98.62-38.47,98.21-45.52a25.28,25.28,0,0,0-2.41-8.33C198.82,280.57,174.51,292.59,150.8,304.52Z" transform="translate(-64.64 -55.34)"/><path class="cls-6" d="M367.77,213.3c-60.21-18.84-68.83,47.7-91.1,86.79-15,18.51-46.49,5.57-58.89,26.87-8.36,14.36-.07,32.88,9.3,44.43,27,33.32,82.34,32.56,120.14,21.77,43.79-12.5,79.11-52.5,82.59-99.1C432.62,256.42,402,224,367.77,213.3Z" transform="translate(-64.64 -55.34)"/><path class="cls-12" d="M364.27,203.43c-60.2-18.84-68.83,47.69-91.1,86.79-15,18.51-46.49,5.57-58.89,26.87-8.36,14.36-.07,32.87,9.3,44.42,27,33.32,82.34,32.57,120.14,21.78,43.8-12.51,79.11-52.51,82.59-99.11C429.12,246.55,398.54,214.16,364.27,203.43Z" transform="translate(-64.64 -55.34)"/><path class="cls-13" d="M355.63,265.84c-23.76-4.44-46.45,19-49.48,41.94C303.32,329.25,318,348.13,340,352.6c27.72,5.63,52.84-20.71,50.49-47.6C388.86,286,374.42,269.36,355.63,265.84Z" transform="translate(-64.64 -55.34)"/><path class="cls-7" d="M353.07,262.59c-22.79-4.27-43.36,15-46.26,37-2.73,20.61,10.06,43.09,31.18,47.38,26.6,5.4,50.82-21,48.56-46.76C385,282,371.1,266,353.07,262.59Z" transform="translate(-64.64 -55.34)"/><path class="cls-14" d="M348,267.87a29.45,29.45,0,0,0-22.51,8.47c-5.42,5.23-10.35,13-8.07,20.75a2,2,0,0,0,3.41.75c3.84-4.83,5.58-10.88,10-15.34,4.77-4.85,11.52-8,18.12-9.51C352,272.31,350.8,268,348,267.87Z" transform="translate(-64.64 -55.34)"/><path class="cls-14" d="M312.8,307.11a24.6,24.6,0,0,0,1.29,5.37,1.58,1.58,0,0,0,3-.12,24.06,24.06,0,0,0,.84-5.47C318.24,303.57,312.22,303.82,312.8,307.11Z" transform="translate(-64.64 -55.34)"/><path class="cls-15" d="M386.55,300.15a42.06,42.06,0,0,0-7.06-19.73,40.78,40.78,0,0,1,1.56,8c2.26,25.81-22,52.16-48.56,46.76-10.26-2.08-18.52-8.47-24-16.83,4.22,13.81,14.86,25.57,29.53,28.55C364.59,352.32,388.81,326,386.55,300.15Z" transform="translate(-64.64 -55.34)"/><path class="cls-16" d="M329.07,370.41c-6.52-1-12.41.71-18.94,1.22a101.43,101.43,0,0,1-29.24-1.95c-18.08-3.9-31.77-13-47.22-22.39-1.57-1-3.68,1.21-2.49,2.71,11,13.89,28.82,22.25,45.76,26.4,15.18,3.72,39.48,7.22,52.69-2.8C330.72,372.77,330.69,370.66,329.07,370.41Z" transform="translate(-64.64 -55.34)"/><path class="cls-16" d="M337.55,367.07a19.57,19.57,0,0,0-3.13.48c-2.73.67-1.39,4.84,1.34,4.17a16.37,16.37,0,0,0,2.47-.85C340.15,370.08,339.88,366.86,337.55,367.07Z" transform="translate(-64.64 -55.34)"/><path class="cls-16" d="M390.78,333.58c-6.41,3.47-11.2,10.44-16.71,15.22a127.65,127.65,0,0,1-20,14.5c-1.51.88-.06,3.08,1.46,2.27a139.58,139.58,0,0,0,22.1-14.06c5.48-4.43,12.55-9.4,15.12-16.14A1.39,1.39,0,0,0,390.78,333.58Z" transform="translate(-64.64 -55.34)"/><path class="cls-16" d="M402.08,319.22a21.88,21.88,0,0,0-2.34,3c-1.55,2.32,2.9,4.47,3.8,1.42a20.56,20.56,0,0,0,.68-3.3A1.26,1.26,0,0,0,402.08,319.22Z" transform="translate(-64.64 -55.34)"/><path class="cls-16" d="M402.39,236c-1.65-.46-2.66,1.46-1.95,2.77,8.83,16.27,13.76,31.55,11.77,50.52-.28,2.67,3.56,3.74,4.17,1C419.57,275.79,421.47,241.41,402.39,236Z" transform="translate(-64.64 -55.34)"/><path class="cls-16" d="M393.94,229.39c-3.38.14-3.16,5.38.22,5.24S397.31,229.24,393.94,229.39Z" transform="translate(-64.64 -55.34)"/><path class="cls-6" d="M113,262.12c1.09.58,104.91,14.78,109.46,7.86s-3.32-11.68-3.32-11.68-93-25.5-96.68-24.83S108.16,259.53,113,262.12Z" transform="translate(-64.64 -55.34)"/><path class="cls-10" d="M115.56,252.93c1,.65,103.72,21.58,108.71,15S221.71,256,221.71,256,130.52,224.53,126.86,225,110.86,250,115.56,252.93Z" transform="translate(-64.64 -55.34)"/><path class="cls-11" d="M194,261.22c-26.2-4.3-52.84-9.67-78.3-17.09-1.36,4.25-1.77,7.81-.16,8.8,1,.65,103.72,21.58,108.71,15a7,7,0,0,0,.7-8.2C220.36,267,201,262.37,194,261.22Z" transform="translate(-64.64 -55.34)"/><path class="cls-7" d="M148,249.83c-8.8-2.58-18.19-3.88-27.14-6-1.12-.26-1.61,1.71-.48,2,8.83,2.12,18.24,4.75,27.31,5.34C148.42,251.2,148.78,250.06,148,249.83Z" transform="translate(-64.64 -55.34)"/><path class="cls-7" d="M153.29,251.8a.86.86,0,0,0,.27,1.69A.86.86,0,0,0,153.29,251.8Z" transform="translate(-64.64 -55.34)"/><path class="cls-6" d="M201.14,241.35s-16.39,6.6-35.5,14.57a.68.68,0,0,0-.85-.63.7.7,0,0,0-.36,1.14c-26.2,10.95-56.94,24.28-57.66,26.81-1.25,4.44,8,19.68,8,19.68s92.2-42.11,93.88-48.44S201.14,241.35,201.14,241.35Z" transform="translate(-64.64 -55.34)"/><path class="cls-7" d="M204.83,238s-16.78,5.51-36.37,12.22a.68.68,0,0,0-.81-.68.69.69,0,0,0-.43,1.11c-26.86,9.22-58.4,20.51-59.28,23-1.54,4.34,6.66,20.15,6.66,20.15s94.75-36,96.84-42.21S204.83,238,204.83,238Z" transform="translate(-64.64 -55.34)"/><path class="cls-8" d="M207.76,241c.71,9.09-5.91,13-17.15,17.2-26,9.7-53,19.48-78.1,31.28,1.17,2.52,2.09,4.31,2.09,4.31s94.75-36,96.84-42.21C212.69,247.82,210.06,243.68,207.76,241Z" transform="translate(-64.64 -55.34)"/><path class="cls-9" d="M165.32,258c-7.89,1.46-15.33,5.42-22.83,8.26-8.71,3.31-17.5,6.39-26.35,9.32-2.09.69-.64,3.78,1.44,3.11,15.56-5.08,35-9.53,48.5-19A1,1,0,0,0,165.32,258Z" transform="translate(-64.64 -55.34)"/><path class="cls-9" d="M183.27,250.36c-2.87-.33-5.62,1.78-8.1,3.06-2.08,1.08-.48,4.45,1.52,3.29,2.52-1.47,5.85-2.68,7.17-5.39A.72.72,0,0,0,183.27,250.36Z" transform="translate(-64.64 -55.34)"/><path class="cls-9" d="M205.66,241.44c-3.06-.71-5.84,1.46-8.72,2.33a53.91,53.91,0,0,0-8.58,3.35c-2.13,1-.51,4.48,1.54,3.33,2.75-1.55,5.53-3.11,8.37-4.48,2.65-1.28,5.66-.88,7.86-3A.9.9,0,0,0,205.66,241.44Z" transform="translate(-64.64 -55.34)"/><path class="cls-6" d="M129.39,337.53s9.07,14.85,13.57,12.69,52.09-48.62,58.32-55.53,14.9-18.29,14.9-18.29-11.72-11.12-18.26-7.13S129.39,337.53,129.39,337.53Z" transform="translate(-64.64 -55.34)"/><path class="cls-7" d="M127,329.25s8.09,15.4,12.72,13.54,55.15-45.12,61.82-51.61,16.06-17.28,16.06-17.28-11-11.86-17.76-8.31S127,329.25,127,329.25Z" transform="translate(-64.64 -55.34)"/><path class="cls-8" d="M159.7,322.78c-9.58,7.07-20.38,13-30.91,9.67,2.66,4.4,7.63,11.65,10.89,10.34,4.62-1.87,55.15-45.12,61.82-51.61s16.06-17.28,16.06-17.28-.58-.61-1.52-1.5C197.19,289,179.8,308,159.7,322.78Z" transform="translate(-64.64 -55.34)"/><path class="cls-9" d="M164.76,302c-4.6,3.19-8.14,7.78-12.63,11.24a114.35,114.35,0,0,0-12.83,11c-.28.3,0,.88.43.65a59.27,59.27,0,0,0,13.56-10.34c2-2,3.83-4.27,5.88-6.13,2.27-2.05,4.51-3.31,6.28-5.84C165.77,302.17,165.18,301.72,164.76,302Z" transform="translate(-64.64 -55.34)"/><path class="cls-9" d="M202.36,269.74c-6.08,4.09-11.87,9.6-17.26,14.6-4.81,4.46-10.41,8.72-14.67,13.63-.77.88.59,1.83,1.4,1.27,3.16-2.18,5.47-5.1,8.34-7.63s5.91-4.67,8.71-7.21c4.9-4.43,10.22-8.71,14.49-13.75C203.92,270,203,269.35,202.36,269.74Z" transform="translate(-64.64 -55.34)"/><path class="cls-9" d="M207.89,267.67a.27.27,0,0,0,0,.54A.27.27,0,0,0,207.89,267.67Z" transform="translate(-64.64 -55.34)"/><path class="cls-6" d="M195.41,331.25S169.07,374.2,173.7,379s21.4,3.09,21.4,3.09,44.38-76.62,43.27-81.58-13.4-.05-13.4-.05Z" transform="translate(-64.64 -55.34)"/><path class="cls-7" d="M193.26,327.28s-29.09,41.15-24.78,46.21S189.63,378,189.63,378s49.28-73.56,48.49-78.59-13.36-.92-13.36-.92Z" transform="translate(-64.64 -55.34)"/><path class="cls-8" d="M235.61,297.1c-5.56,14.72-17.82,27.48-26.8,39.9-9.84,13.6-18.19,27.93-29.08,40.52a73.8,73.8,0,0,0,9.9.45s49.28-73.56,48.49-78.59A2.85,2.85,0,0,0,235.61,297.1Z" transform="translate(-64.64 -55.34)"/><path class="cls-9" d="M195.35,344.63c-4.3,3.53-6.9,9.11-9.84,13.77s-6.86,9.51-8.68,14.71c-.28.78.72,1.64,1.38,1,3.93-3.86,6.64-9.41,9.61-14.05s7-9.42,8.34-14.84A.52.52,0,0,0,195.35,344.63Z" transform="translate(-64.64 -55.34)"/><path class="cls-9" d="M201.1,337a.8.8,0,0,0-1-.38c-1,.38-1.28,1.26-1.68,2.19-.72,1.67,2.11,2.71,2.6,1C201.26,338.81,201.63,337.92,201.1,337Z" transform="translate(-64.64 -55.34)"/><path class="cls-9" d="M203.28,332a.91.91,0,0,0,.29,1.79A.91.91,0,0,0,203.28,332Z" transform="translate(-64.64 -55.34)"/><path class="cls-9" d="M225.8,301.47c-4,1.44-6.69,7-9,10.41-3.19,4.58-6.4,9.11-9.72,13.6-1,1.37,1.21,3,2.15,1.54a167.12,167.12,0,0,1,9.88-13.49c2.6-3.21,7.27-7.11,7.77-11.32A.74.74,0,0,0,225.8,301.47Z" transform="translate(-64.64 -55.34)"/><circle class="cls-6" cx="196.67" cy="180.82" r="49.52"/><circle class="cls-17" cx="195.28" cy="177.3" r="47.49"/><circle class="cls-18" cx="195.28" cy="177.3" r="40.43"/><circle class="cls-19" cx="195.28" cy="177.3" r="36.58"/><path class="cls-20" d="M259.92,196.06a36.58,36.58,0,1,0,36.58,36.57A36.57,36.57,0,0,0,259.92,196.06Zm-2.08,64.81a30.32,30.32,0,1,1,30.32-30.32A30.33,30.33,0,0,1,257.84,260.87Z" transform="translate(-64.64 -55.34)"/><path class="cls-21" d="M255.75,207.93a1.93,1.93,0,0,0,0,3.85A1.93,1.93,0,0,0,255.75,207.93Z" transform="translate(-64.64 -55.34)"/><path class="cls-21" d="M275,212.84a1.19,1.19,0,0,0,0,2.37A1.19,1.19,0,0,0,275,212.84Z" transform="translate(-64.64 -55.34)"/><path class="cls-21" d="M257,226.36a1.46,1.46,0,0,0,0,2.92A1.46,1.46,0,0,0,257,226.36Z" transform="translate(-64.64 -55.34)"/><path class="cls-21" d="M263.77,244.38a.13.13,0,0,0,0,.25A.13.13,0,1,0,263.77,244.38Z" transform="translate(-64.64 -55.34)"/><path class="cls-21" d="M279.49,228.1c-2.94,0-2.94,4.57,0,4.57S282.44,228.1,279.49,228.1Z" transform="translate(-64.64 -55.34)"/><path class="cls-21" d="M257.35,252.91c-2.81,0-2.81,4.37,0,4.37S260.17,252.91,257.35,252.91Z" transform="translate(-64.64 -55.34)"/><path class="cls-21" d="M239.07,241.92c-2.92,0-2.93,4.53,0,4.53S242,241.92,239.07,241.92Z" transform="translate(-64.64 -55.34)"/><path class="cls-21" d="M236.18,226.68a1.47,1.47,0,0,0,0,2.93A1.47,1.47,0,0,0,236.18,226.68Z" transform="translate(-64.64 -55.34)"/><path class="cls-21" d="M272.43,240.43a1.83,1.83,0,0,0,0,3.65A1.83,1.83,0,0,0,272.43,240.43Z" transform="translate(-64.64 -55.34)"/><path class="cls-21" d="M242.27,212.18a1.53,1.53,0,0,0,0,3A1.53,1.53,0,0,0,242.27,212.18Z" transform="translate(-64.64 -55.34)"/><path class="cls-22" d="M265.54,212.92a1.59,1.59,0,0,0,0,3.17A1.59,1.59,0,0,0,265.54,212.92Z" transform="translate(-64.64 -55.34)"/><path class="cls-22" d="M250.46,217.53a.67.67,0,0,0,0,1.33A.67.67,0,0,0,250.46,217.53Z" transform="translate(-64.64 -55.34)"/><path class="cls-22" d="M247.89,230.93a1.71,1.71,0,0,0,0,3.41A1.71,1.71,0,0,0,247.89,230.93Z" transform="translate(-64.64 -55.34)"/><path class="cls-22" d="M254.15,241.38a1.52,1.52,0,0,0,0,3A1.52,1.52,0,0,0,254.15,241.38Z" transform="translate(-64.64 -55.34)"/><path class="cls-22" d="M267.78,229.18a1,1,0,0,0,0,2.09A1,1,0,0,0,267.78,229.18Z" transform="translate(-64.64 -55.34)"/><path class="cls-22" d="M265.06,245.81a1.43,1.43,0,0,0,0,2.85A1.43,1.43,0,0,0,265.06,245.81Z" transform="translate(-64.64 -55.34)"/><path class="cls-22" d="M245.32,248.92a1.85,1.85,0,0,0,0,3.69A1.85,1.85,0,0,0,245.32,248.92Z" transform="translate(-64.64 -55.34)"/><path class="cls-22" d="M237.78,219.22c-2.81,0-2.82,4.37,0,4.37S240.6,219.22,237.78,219.22Z" transform="translate(-64.64 -55.34)"/><path class="cls-22" d="M262,204.46a.9.9,0,0,0,0,1.8A.9.9,0,0,0,262,204.46Z" transform="translate(-64.64 -55.34)"/><path class="cls-22" d="M276.28,219.74a1.35,1.35,0,0,0,0,2.69A1.35,1.35,0,0,0,276.28,219.74Z" transform="translate(-64.64 -55.34)"/><path class="cls-22" d="M263.45,219.84c-2.63,0-2.64,4.09,0,4.09S266.09,219.84,263.45,219.84Z" transform="translate(-64.64 -55.34)"/><path class="cls-22" d="M261.37,234.92a1.73,1.73,0,0,0,0,3.45A1.73,1.73,0,0,0,261.37,234.92Z" transform="translate(-64.64 -55.34)"/><path class="cls-22" d="M280.46,238.77a.76.76,0,0,0,0,1.52A.76.76,0,0,0,280.46,238.77Z" transform="translate(-64.64 -55.34)"/><g id="_Grupo_" data-name="&lt;Grupo&gt;"><path class="cls-23" d="M280.74,100.92s12.5,14.47,18.45,29.53c-6.81-10.23-27.53-29.53-27.53-29.53A26.52,26.52,0,0,1,280.74,100.92Z" transform="translate(-64.64 -55.34)"/><path class="cls-23" d="M242.7,112s13.34,16.46,20.15,29.36C247.52,135,233.33,112,233.33,112Z" transform="translate(-64.64 -55.34)"/><path class="cls-23" d="M204.37,126.46s14.2,18.75,29.25,33.22C213.47,152.86,197,127.32,197,127.32Z" transform="translate(-64.64 -55.34)"/><path class="cls-23" d="M193.55,171a53.26,53.26,0,0,1-26.92-19.84l3.12-2.26S181.94,159.66,193.55,171Z" transform="translate(-64.64 -55.34)"/><path class="cls-24" d="M285.19,97.51c14.37,11.36,14,32.94,14,32.94-5.95-15.06-18.45-29.53-18.45-29.53C281.6,98.37,285.19,97.51,285.19,97.51Z" transform="translate(-64.64 -55.34)"/><path class="cls-24" d="M242.7,112l3.13-4c15.32,11.64,17,33.35,17,33.35C256,128.46,242.7,112,242.7,112Z" transform="translate(-64.64 -55.34)"/><path class="cls-24" d="M204.37,126.46c.86-2,4.26-3.39,4.26-3.39,21.57,11.07,25,36.61,25,36.61C218.57,145.21,204.37,126.46,204.37,126.46Z" transform="translate(-64.64 -55.34)"/><path class="cls-24" d="M171.18,145.21s13.33,8.22,22.41,25.81l0,0c-11.61-11.34-23.8-22.1-23.8-22.1Z" transform="translate(-64.64 -55.34)"/><path class="cls-25" d="M149.87,185.78c-7.65-16.83,16.76-34.62,16.76-34.62A53.26,53.26,0,0,0,193.55,171l0,0c-9.08-17.59-22.41-25.81-22.41-25.81,4.25-6.82,25.81-17.89,25.81-17.89s16.48,25.54,36.63,32.36c0,0-3.42-25.54-25-36.61,13.06-9.38,24.7-11.07,24.7-11.07s14.19,23,29.52,29.36c0,0-1.7-21.71-17-33.35,9.64-5.39,25.83-7.09,25.83-7.09s20.72,19.3,27.53,29.53c0,0,.37-21.58-14-32.94,0,0,41.24-3,54.87,17s-24.21,45-69.26,61.69C211.73,198.07,161.24,210.78,149.87,185.78Z" transform="translate(-64.64 -55.34)"/></g><path class="cls-26" d="M340.25,131.43c-.19-3.67-.65-6.69-2-8.84a12.21,12.21,0,0,0-2.05-2.71c-.4-.38-.78-.76-1.2-1.11-.19-.14-.48-.42-.6-.43-.29-.24-.65-.66-.84-.76a55,55,0,0,0-13.27-6.89c-5.09-2-10.69-3.71-16.55-5.62A164.51,164.51,0,0,1,285.22,98l-.07-1a101.15,101.15,0,0,1,19.53.3,79.66,79.66,0,0,1,19.14,4.26c6.1,2.4,12,6,16.08,11.36a16.81,16.81,0,0,1,3.67,9.3,18.7,18.7,0,0,1-2.44,9.62Z" transform="translate(-64.64 -55.34)"/><path class="cls-27" d="M170.48,198.76a94.93,94.93,0,0,0,23.14-2.19A220.21,220.21,0,0,0,216.21,191c7.42-2.3,14.87-4.52,22.23-7.07s14.75-5,22.08-7.7a397.8,397.8,0,0,0,43.1-17.51,153.34,153.34,0,0,0,20.1-11.47c6.42-4.24,12.51-9.17,16.8-15.7l.35.17a39,39,0,0,1-7,9.44A77.7,77.7,0,0,1,325,148.9,152.25,152.25,0,0,1,305,161.4c-13.83,7.42-28.45,13.28-43.21,18.51S232.16,190.07,217,194a214.79,214.79,0,0,1-23.05,4.67c-7.76,1-15.67,1.6-23.48.53Z" transform="translate(-64.64 -55.34)"/><path class="cls-26" d="M166.91,151.55c-2.22,6.06-4.63,11-6.52,15.59s-3.12,8.61-3.2,11.38a13.21,13.21,0,0,0,.42,4.12,19.55,19.55,0,0,0,2.07,4.86c1.92,3.39,5.86,6.83,10.85,11l-.14,1a38.59,38.59,0,0,1-8.3-1.8,24.51,24.51,0,0,1-7.48-4.21,20.76,20.76,0,0,1-5.33-6.82,17.36,17.36,0,0,1-1.84-8.54c.36-5.94,3.3-11.17,6.7-15.64a57.4,57.4,0,0,1,12.19-11.67Z" transform="translate(-64.64 -55.34)"/><path class="cls-24" d="M171.26,145.23a4.94,4.94,0,0,1,.51,2.32,5.63,5.63,0,0,1-.39,2l-.19.52-.42.27a5.6,5.6,0,0,1-1.78.83,5.13,5.13,0,0,1-2.31.09l-.11-.16,3.06-2.33-.06.08,1.5-3.67Z" transform="translate(-64.64 -55.34)"/><path class="cls-26" d="M197.13,127.57a25,25,0,0,1-5,7.19,33.25,33.25,0,0,1-6,4.88,38.89,38.89,0,0,1-6.77,3.38c-1.19.46-2.47.8-3.73,1.2s-2.61.68-4.21,1.13l-.49-.31a22.7,22.7,0,0,1,5.57-5.74c2.09-1.64,4.27-3.15,6.48-4.6s4.54-2.73,6.85-4,4.64-2.52,7-3.64Z" transform="translate(-64.64 -55.34)"/><path class="cls-24" d="M208.67,123.14c-.59.92-1.19,1.63-1.7,2.32a6.17,6.17,0,0,0-1,1.68l-.22.8-1.16.22a11.41,11.41,0,0,1-1.84.22,16.67,16.67,0,0,1-1.87,0,10.81,10.81,0,0,1-3.85-1l0-.19,3.68-.49c1.23-.14,2.45-.34,3.69-.45l-.15.11a5.52,5.52,0,0,1,1.93-2.08A12.74,12.74,0,0,1,208.6,123Z" transform="translate(-64.64 -55.34)"/><path class="cls-26" d="M233.37,112.28a27.93,27.93,0,0,1-5.29,5.42A27.45,27.45,0,0,1,222.6,121a28.09,28.09,0,0,1-6.14,2,24.4,24.4,0,0,1-7.65.31l-.35-.47a60.8,60.8,0,0,1,11.7-7.13,63.89,63.89,0,0,1,6.43-2.44,35.43,35.43,0,0,1,6.7-1.55Z" transform="translate(-64.64 -55.34)"/><path class="cls-24" d="M245.9,108.07a10.72,10.72,0,0,1-.75,2.63A15,15,0,0,1,244,113l-.3.48-1,.14a18.34,18.34,0,0,1-2.34.12,20.63,20.63,0,0,1-2.35-.17,14,14,0,0,1-2.34-.5,10.6,10.6,0,0,1-2.34-1v-.19c3.12,0,6.25-.14,9.37-.07l-.13.06,3.17-3.93Z" transform="translate(-64.64 -55.34)"/><path class="cls-26" d="M271.68,101.21a21.34,21.34,0,0,1-5.92,4.85,24.61,24.61,0,0,1-6.05,2.4,26.44,26.44,0,0,1-6.33.78,30.36,30.36,0,0,1-7.42-1l-.28-.51a31.65,31.65,0,0,1,6.13-2.93c2.12-.79,4.28-1.46,6.46-2s4.41-1,6.64-1.34a62.71,62.71,0,0,1,6.71-.82Z" transform="translate(-64.64 -55.34)"/><path class="cls-24" d="M285.21,97.61a21.64,21.64,0,0,0-2,2.09,3.71,3.71,0,0,0-.89,1.75l-.17,1.41-1.79-.29c-.59-.1-1.36-.11-2-.22s-1.42-.17-2.14-.28a25.75,25.75,0,0,1-4.53-1.06l0-.19a27.94,27.94,0,0,1,4.56-.44,21.35,21.35,0,0,1,4.58.36l-.2.12a4.69,4.69,0,0,1,1.89-2.27,8.75,8.75,0,0,1,2.7-1.17Z" transform="translate(-64.64 -55.34)"/><path class="cls-28" d="M193.56,171.12a47.07,47.07,0,0,1-7.89-3.24,54.83,54.83,0,0,1-7.29-4.45,50.16,50.16,0,0,1-11.84-12.22l.16-.11c1.12,1,2.09,2,3.19,2.88s2.05,1.91,3.13,2.78c2.15,1.76,4.26,3.51,6.51,5.09s4.51,3.16,6.85,4.67,4.73,3,7.24,4.41Z" transform="translate(-64.64 -55.34)"/><path class="cls-29" d="M171.22,145.11a29.49,29.49,0,0,1,7.66,4.41,44.27,44.27,0,0,1,6.39,6.08,43.07,43.07,0,0,1,5,7.24c.69,1.3,1.36,2.61,2,3.95a36.12,36.12,0,0,1,1.4,4.19l-.18.09a73.53,73.53,0,0,0-9.7-14.2,76,76,0,0,0-6-6.21,53.44,53.44,0,0,0-6.73-5.38Z" transform="translate(-64.64 -55.34)"/><path class="cls-29" d="M233.52,159.69a55.23,55.23,0,0,0-3.12-11,56.07,56.07,0,0,0-5.23-10.16,43.64,43.64,0,0,0-16.58-15.39l.09-.17a31,31,0,0,1,5.38,2.31,41.24,41.24,0,0,1,4.87,3.35,38.19,38.19,0,0,1,7.88,8.84,44.94,44.94,0,0,1,5,10.66,36.55,36.55,0,0,1,1.88,11.53Z" transform="translate(-64.64 -55.34)"/><path class="cls-28" d="M197.08,127.26a110.3,110.3,0,0,0,7.51,9.85,107.9,107.9,0,0,0,8.51,9c6,5.65,12.72,10.75,20.55,13.48l-.07.19A32.11,32.11,0,0,1,227.5,158a52.63,52.63,0,0,1-5.67-2.84,65,65,0,0,1-10.07-7.67,85.73,85.73,0,0,1-8.34-9.43c-1.23-1.7-2.42-3.42-3.55-5.18a54.36,54.36,0,0,1-3-5.54Z" transform="translate(-64.64 -55.34)"/><path class="cls-29" d="M262.75,141.37a55.71,55.71,0,0,0-1.9-9.38,56.82,56.82,0,0,0-3.42-8.94,40.29,40.29,0,0,0-11.67-15l.12-.16a24.57,24.57,0,0,1,4.19,2.6,37.56,37.56,0,0,1,3.62,3.41,34.58,34.58,0,0,1,5.5,8.26,41.33,41.33,0,0,1,3.14,9.37,32.19,32.19,0,0,1,.62,9.79Z" transform="translate(-64.64 -55.34)"/><path class="cls-28" d="M233.41,111.93a118,118,0,0,0,12.94,16.59,72.41,72.41,0,0,0,7.64,7.22,38.29,38.29,0,0,0,8.9,5.53l-.07.18a24.52,24.52,0,0,1-5.11-1.76,46.54,46.54,0,0,1-4.67-2.76,50.73,50.73,0,0,1-8.12-7.07,68.55,68.55,0,0,1-6.63-8.4,51,51,0,0,1-5-9.42Z" transform="translate(-64.64 -55.34)"/><path class="cls-29" d="M299.09,130.43a52.06,52.06,0,0,0-1-9.14,50.86,50.86,0,0,0-2.55-8.82,34.34,34.34,0,0,0-10.43-14.88l.12-.16a22,22,0,0,1,4,2.6,28.83,28.83,0,0,1,8.14,11.73,37.09,37.09,0,0,1,2.24,9.25,29.85,29.85,0,0,1-.33,9.43Z" transform="translate(-64.64 -55.34)"/><path class="cls-28" d="M271.72,100.84q7.39,6.9,14.47,14.13c2.32,2.44,4.61,4.92,6.83,7.46a82.76,82.76,0,0,1,6.25,7.95l-.17.11-7.22-7.06c-2.43-2.31-4.75-4.72-7.1-7.11A147.56,147.56,0,0,1,271.58,101Z" transform="translate(-64.64 -55.34)"/><g class="cls-30"><path class="cls-31" d="M315,112c1.47,1.48,3.53,2.63,3.8,0,.63.28,1.63-.1,3.16-1.75l0,0c1.26,1.19,2.16-.46,1.94-1.46.18-.93-.38-2.19-1.18-2.36-1.25-1.13-4.15-.94-4.56.58-.07.26-.13.55-.18.85a1.68,1.68,0,0,0-2.14-.62,3.26,3.26,0,0,0,1-1.33c1.59-3.22-2.59-2.6-2.55-1.15,0,1,.48,2.72,1.28,2.6a3.55,3.55,0,0,0-.68.49c-1.82-1.88-4.61-3.35-4,1.94C311.44,113.56,313.66,113.28,315,112Z" transform="translate(-64.64 -55.34)"/><path class="cls-31" d="M322.44,124.89c-.21.15-.45.33-.68.53a2,2,0,0,0-.87-.34c.69-.8.74-1.65-1.3-1.83a2.45,2.45,0,0,0-1.24-2.54,10.71,10.71,0,0,0-3.48-.59c-.17-.11-.33-.23-.53-.35-4.73-2.88-4.34,3.62-2.11,3.76a8.47,8.47,0,0,0,1.31,0,11.68,11.68,0,0,0,.88,1.07c1.44,1.58,2.62,1.93,3.48,1.64a1.23,1.23,0,0,0,1.2.22c-.41,1.09-.26,2.51.63,2.89l.1,0a3,3,0,0,0,2.08.54,4.18,4.18,0,0,0,1.38,0c1.28,1.09,2.25.09,2.51-1.05C327.53,127,324.13,123.75,322.44,124.89Z" transform="translate(-64.64 -55.34)"/><path class="cls-31" d="M337.1,115.09c.5-.86,0-1.86-2.86-2.78-5.48-1.78-4.53,3.58-2.46,4.75a1.65,1.65,0,0,0-.41.75,2.76,2.76,0,0,0-2.13-1.13,7.05,7.05,0,0,0-.93-1.1c-2.09-2-3.23-.68-3.35.75-.3.2-.43.68-.25,1.54-1.67-.16-3.25.35-.93,2.84.9,1,1.62,1.2,2.17,1.05.33,1.93,1.5,3,4.31-.26a4.44,4.44,0,0,0,1.34-2.77,6.39,6.39,0,0,0,3.09,1.93C341.4,123.22,339.86,115.63,337.1,115.09Z" transform="translate(-64.64 -55.34)"/><path class="cls-31" d="M334.76,130.19c-1.79-1.22-6.1-2.68-3.61,2.06S336.54,131.42,334.76,130.19Z" transform="translate(-64.64 -55.34)"/><path class="cls-31" d="M328.6,108.37c1.36.32,4.31.19,1.7-2.09S327.24,108.05,328.6,108.37Z" transform="translate(-64.64 -55.34)"/><path class="cls-31" d="M323,104c2.59-2.93-2-3.47-2.34-1.94S320.4,106.93,323,104Z" transform="translate(-64.64 -55.34)"/><path class="cls-31" d="M305,104.13c.51,6.55,6.49,1.66,5.06-.58S304.48,97.59,305,104.13Z" transform="translate(-64.64 -55.34)"/><path class="cls-31" d="M301.18,111.67c1.94-.66,5.48-3.08.49-3.89S299.25,112.32,301.18,111.67Z" transform="translate(-64.64 -55.34)"/><path class="cls-31" d="M304.34,100.65c.92-1.22,2.08-4.21-1.34-2.62S303.42,101.87,304.34,100.65Z" transform="translate(-64.64 -55.34)"/><path class="cls-31" d="M294.36,102.94a5.07,5.07,0,0,0,2.48-.06c-1.29,1.76-1.51,3.64,3,3,6.61-.93,1.28-6.69-.9-5.1a10,10,0,0,0-1.52,1.38c0-.38-.35-.91-1.2-1.62C293.23,98,292.81,102.61,294.36,102.94Z" transform="translate(-64.64 -55.34)"/><path class="cls-31" d="M284.63,140.81c.63-4.57-4.2-2.12-3.56-.37S284,145.37,284.63,140.81Z" transform="translate(-64.64 -55.34)"/><path class="cls-31" d="M294.19,110.67c.31-1.31.21-4.13-2-1.64S293.88,112,294.19,110.67Z" transform="translate(-64.64 -55.34)"/><path class="cls-31" d="M299.18,116.65a5.23,5.23,0,0,0-.51-.47,8.34,8.34,0,0,0-.41-1.41,5.58,5.58,0,0,0-.8-1.52c.12-.22.25-.47.38-.75,2.09-4.53-3.69-3.52-3.58-1.5a7,7,0,0,0,.24,1.47c-1.56-.19-3.32.19-1.07,2.45l.24.21a1.57,1.57,0,0,0,.42,1.36,9.27,9.27,0,0,0,1.92,1.27,1.4,1.4,0,0,0,.78,1.3C298.46,119.63,302.17,119.83,299.18,116.65Z" transform="translate(-64.64 -55.34)"/><path class="cls-31" d="M309.26,116.17a7.06,7.06,0,0,0-1.07-1.8c.16-1.41-.18-2.55-1.65-2.26-.26-.6-1.12-.78-3.05,0-2.48,1-2.33,2.39-1.42,3.27-.65,1.54.72,2.69,2.22,3a3.1,3.1,0,0,0,1,2c-.07.15-.13.31-.2.48-3.31-.1-2.07,5.32.16,5.21,2-.1,5.54-1.17,4.4-2.91.68-.87.91-1.79-.35-2a1.33,1.33,0,0,0-.22-.65C310.83,118.93,312.51,116.43,309.26,116.17Z" transform="translate(-64.64 -55.34)"/><path class="cls-31" d="M296.29,123.51c-1.31-.22-4.08.09-1.47,2.08S297.6,123.72,296.29,123.51Z" transform="translate(-64.64 -55.34)"/><path class="cls-31" d="M309.63,130.42c.06-.14.11-.26.17-.42,1.85-5-3.91-3.72-4.11-1.62a7,7,0,0,0-.74,2.78c-.7,6.69,6.23,2.89,5.22.37A11.17,11.17,0,0,0,309.63,130.42Z" transform="translate(-64.64 -55.34)"/><path class="cls-31" d="M306.33,136.44a9.42,9.42,0,0,0-2.41-1c.48-2.59.12-6.29-3.81-2.37-2.88,2.86-.88,4.42,1.11,4.53-.29.34-.41,1-.22,2.33.49,3.26,2.66,2.21,3.4.84C306.55,141.49,307.94,137.4,306.33,136.44Z" transform="translate(-64.64 -55.34)"/><path class="cls-31" d="M296.56,138.12c-2.69,3.92,2.91,3.89,3.12,2S299.24,134.19,296.56,138.12Z" transform="translate(-64.64 -55.34)"/><path class="cls-31" d="M294.43,140.55c.8-2.21-3.22-2.78-3.75-1.21s-.75,4.76,1.31,3.72a.88.88,0,0,0,.37.1C294,143.25,297.29,142.52,294.43,140.55Z" transform="translate(-64.64 -55.34)"/><path class="cls-31" d="M292.57,133.05a3.4,3.4,0,0,0-.33-1.63.86.86,0,0,0,.45.05c.89-.18,2.28-.77,2.44-1.45.16,1.07,1,2.21,1.92,2a7,7,0,0,0,2.27-.89c.88.28,1.95.14,2.25-.56.67-1.55,1.14-4.92-1.61-3.12a.08.08,0,0,0,0,0c.36-1.35.3-4.28-2-1.75-1.73,1.89,0,2.68,1.21,2.4a4,4,0,0,0-.58.59l-.59-.2c-2.13-.64-2.87.19-2.88,1.21-.13-.35-.62-.7-1.68-1l-.34-.07c0-1.16-.39-2.21-2-.5l0,.06a1.92,1.92,0,0,1,0-.22c.88-.43,1.07-1.69-.4-4.45a9,9,0,0,0-.84-1.29c.24-1.83-1-4.25-2.61-4.13l-.58,0c.75-.35.86-1.24-.71-3.08-3.39-4-5,2-3,2.75a7.82,7.82,0,0,0,2.66.53,10.29,10.29,0,0,0-1.76.55c-.34-1.41-1.67-1.18-2.5-.49,0,0,0,0,0-.06a10.53,10.53,0,0,0,.42-3.47,1.31,1.31,0,0,0,.85-1.19c-.17-1.63-1.44-4.85-3-1.08a4.08,4.08,0,0,0-.16.5,8.15,8.15,0,0,0-2.05,1.58c-4.25,4.24,1.25,5.89,3.28,4.48a1,1,0,0,0-.05.81c.4.94,1.36,2.31,2.14,2.32A10.27,10.27,0,0,0,285,123.5a3.67,3.67,0,0,0-.07,1.88,3.73,3.73,0,0,0-3.86-.82,1.88,1.88,0,0,0-1.28-1c-3-.54-9.26.06-3.41,4.66a5.42,5.42,0,0,0,2.74,1.33c.16,1.25,1.24,1.79,4.2.07a6.73,6.73,0,0,0,1.57-1.2c-1.17,2.72,2.88,4,4.75,3a1.61,1.61,0,0,0-.57,1.81C289.91,134.83,292.62,137.61,292.57,133.05Zm-7.12-5.61a1.75,1.75,0,0,0,.05-1.08l.08.08.51.32A6.58,6.58,0,0,0,285.45,127.44Zm4.66,3.56a1.64,1.64,0,0,0,.26-.42c.09-.21.17-.44.25-.69a1.25,1.25,0,0,0,.66.38,2.37,2.37,0,0,0,.2.46A1.73,1.73,0,0,0,290.11,131Z" transform="translate(-64.64 -55.34)"/><path class="cls-31" d="M272.85,117.48c-.69-1.48-2.94-4.09-3.14,0S273.54,119,272.85,117.48Z" transform="translate(-64.64 -55.34)"/><path class="cls-31" d="M275,112.48c1,3.59,5.05,0,4-1.64a7.78,7.78,0,0,0-2.19-2.2,1.45,1.45,0,0,0,.33-1.27c-.6-2.2-3.06-6.33-4.31-.82-.45,2,.07,2.92.88,3.22-1.65-.35-3.75-.15-1.46,2.45C273.62,113.79,274.59,113.36,275,112.48Zm-.23-2.65c0,.1,0,.21,0,.31a.94.94,0,0,0-.22-.12,5.52,5.52,0,0,0-.53-.17A2.44,2.44,0,0,0,274.8,109.83Z" transform="translate(-64.64 -55.34)"/><path class="cls-31" d="M256.68,111.27c-.42.12-.82.71-1.11,2.06-.73,3.39,2.19,2.76,3.07,1.51-.63,2.35,1.32,2.42,2.43,1.7A5.91,5.91,0,0,0,262,118c2.93,3.78,4.62-1.59,2.86-2.38a6,6,0,0,0-3.11-.55c0-.17-.09-.36-.14-.55a2.76,2.76,0,0,0,1.58-.14c1.42,2.73,5.2-.74,4.1-2.47a9.29,9.29,0,0,0-1.6-1.85c1.88-.93,1.14-4.08-.37-5.27,1.22-1.63,1.58-3.46-2.56-2.79a3.84,3.84,0,0,0-2.42,1.1c-.35,0-.74,0-1.2,0-3.54.31-3.48,2.29-2.41,3.65-.1.19-.2.36-.3.58C255.37,109.58,255.78,110.77,256.68,111.27Zm2.19,2.87a.9.9,0,0,0,0-.23,5.49,5.49,0,0,0-1.39-2.4,3.87,3.87,0,0,0,1.22-.05,1.94,1.94,0,0,0,.56,1.9A5.2,5.2,0,0,0,258.87,114.14Z" transform="translate(-64.64 -55.34)"/><path class="cls-31" d="M254,112.92c2.61.07,2.08-2.35.94-3.34a1.31,1.31,0,0,0-.45-.61c-2.06-1.54-7.11-3.48-4.39,2.27C251.4,114,253,113.93,254,112.92Z" transform="translate(-64.64 -55.34)"/><path class="cls-31" d="M261.82,130.41a2.53,2.53,0,0,0,2.88-.42,11.18,11.18,0,0,0,1.29-2.23c2.47-.12,2.67-4.93.61-5.49-1.87-.5-5.27-.62-5.46.94-.66-.24-1.32,0-1.9,1.27a2,2,0,0,0-1.1-1.46,11,11,0,0,0-2.26-.63,5,5,0,0,0,.1-.65c.31-3.23-3-1.36-2.52-.15a5,5,0,0,0,.36.67,3.47,3.47,0,0,0-.84.17c-.59-.39-1.24-.1-1.69,1.82-.6,2.5,1,2.73,2.09,2.16.13.17.25.34.41.53,2.05,2.44,3.64,2.31,4.59,1.27a3.47,3.47,0,0,0,.21,1.3c-1.33-.2-2.74.16-3.13,1.19-1.05,2.79-1.58,9,3.93,4.15a7.67,7.67,0,0,0,1-1,5.89,5.89,0,0,0,.91.33c4.33,1.27,2.65-3.76.87-3.39a6.76,6.76,0,0,0-1.08.32,1.6,1.6,0,0,0-.23-.4A3.84,3.84,0,0,0,261.82,130.41Z" transform="translate(-64.64 -55.34)"/><path class="cls-31" d="M272.06,144c-4.48-.87-2.32,4-.55,3.51S276.55,144.83,272.06,144Z" transform="translate(-64.64 -55.34)"/><path class="cls-31" d="M271.46,151.83c-2.59.15-7.75,1.92-1.93,4.6S274.05,151.69,271.46,151.83Z" transform="translate(-64.64 -55.34)"/><path class="cls-31" d="M266.56,147.83a2.07,2.07,0,0,0,1.29-2.08,1,1,0,0,0,.43-.61,2.17,2.17,0,0,0,1.23-2.07,10,10,0,0,0-.73-2.21c3,.9,3.59-2.85,2.49-4.73a1.7,1.7,0,0,0,1.17-1.32,7.86,7.86,0,0,0-.45-3.42,11.27,11.27,0,0,0,.37-1.71c.89-6.58-6.06-3-5.13-.52a9.71,9.71,0,0,0,1.69,2.88c-.11.16-.22.29-.33.47a5.54,5.54,0,0,0-.71,1.51c-.2-1.13-2.15-2-2.87-1.19-.89,1-2,3.26-.44,3.33-.47.64-.25,1.59,1.34,3a2.16,2.16,0,0,0-.35.42,2.42,2.42,0,0,0-.43.13c-1.22,0-2.78,1.29-2.37,2.35.08.19.18.4.29.62-1.44.49-2.82,1.27-3,2.19-1,.06-2,.73-2,1.55.12,1.31.9,3.58,2,2.91a3.86,3.86,0,0,0,1.11,1.21,5.81,5.81,0,0,0,0,.93l-.1,0c-2.64-.09-8.06,1.23-2.38,4.5,4.08,2.35,4.88-1,4-3a4.55,4.55,0,0,0,.94-1,3.58,3.58,0,0,0,.54-1A9.69,9.69,0,0,0,266.56,147.83Zm1.21-13.17a2.46,2.46,0,0,0,0,.4l-.35,0A1.62,1.62,0,0,0,267.77,134.66Z" transform="translate(-64.64 -55.34)"/><path class="cls-31" d="M255.46,151.77c1.77-.26,5.19-1.8,1-3.27a2.91,2.91,0,0,0-1.94-.16c.89-1.34-1.41-2.94-2.53-2.36.15-1.26-.47-2.79-1.54-2.87a3.17,3.17,0,0,0-.44,0c.72-1.61-1.22-4.39-2.82-3.85a9.07,9.07,0,0,0-1.35.6c.49-.67.12-1.63-2.12-2.91-4.83-2.77-4.69,3-2.75,4a4.05,4.05,0,0,0,.66,1.64c1,1.7,2,1.52,2.59.8a5.4,5.4,0,0,0,1.21.46,1.38,1.38,0,0,0,.81,1h0c.14.52.72,1.18,2,2a3.52,3.52,0,0,0,2.46.74c-.72,1.33-.76,2.71,2.2,1.75a3.84,3.84,0,0,0,.95-.43C253.39,150,254.34,151.94,255.46,151.77Zm-11.13-10.89,0,0-.14-.08c.17-.05.33-.09.48-.15Z" transform="translate(-64.64 -55.34)"/><path class="cls-31" d="M253.83,153.3a7.43,7.43,0,0,0-.4-.68c-1.4-2.21-2.69-1.79-3.36-.74a1.22,1.22,0,0,0-1.37.25l0,0a2.23,2.23,0,0,0-2.55-.15.6.6,0,0,0-.08.08L246,152c-.08-1.31-.76-2.62-1.84-2.72l-.57,0c-.35-2.69-4.82-1.18-4.54.73a5.59,5.59,0,0,0,.12.62c-.26.48-.12,1.11.68,1.9a3.61,3.61,0,0,0,.72,1,4,4,0,0,0,2.51,1.21,7.2,7.2,0,0,0,.83.14c-.72,1.57-.33,2.91,3.51,2,1.92-.43,2.73-1.21,2.89-2a7.49,7.49,0,0,0,1.06.47c-.61,1.26-.45,2.41,2.42,1.57C257.24,155.92,255.42,153.63,253.83,153.3Z" transform="translate(-64.64 -55.34)"/><path class="cls-31" d="M245.9,133.62c1,3.44,4.21,0,3.15-1.26a6.67,6.67,0,0,0-.7-.72c1.55-2.4-2.67-3.17-3.21-1.62C244.67,131.36,244.44,134,245.9,133.62Z" transform="translate(-64.64 -55.34)"/><path class="cls-31" d="M234.8,129.51a1.66,1.66,0,0,0,0,1c.61,1.66,2.14,4.1,3.5,4.33.59,1,1.65,1.12,3.35-1.29h.05c5,.89,2.5-4.5.55-3.88l-.06,0a2.6,2.6,0,0,0-1.63-.57c0-.2-.07-.39-.11-.56a2.53,2.53,0,0,0-1.34-2.62C236.45,125.09,230.67,124.86,234.8,129.51Z" transform="translate(-64.64 -55.34)"/><path class="cls-31" d="M237.07,120.06c3.25-3.59-2.4-4.32-2.88-2.43S233.82,123.65,237.07,120.06Z" transform="translate(-64.64 -55.34)"/><path class="cls-31" d="M229.2,119.35c-.62,2.29-.61,6.63,3.29,2.77,1.41-1.39,1.52-2.43,1.06-3.13a1.13,1.13,0,0,0,.12-.18c.77-1.8,1.3-5.89-2.47-2.84-1.16.94-1.44,1.74-1.25,2.35a1.42,1.42,0,0,0-.67.74,1.79,1.79,0,0,0-.48-2c-1.77-1.09-6-2.26-3.35,2.15C227.07,121.9,228.65,120.82,229.2,119.35Z" transform="translate(-64.64 -55.34)"/><path class="cls-31" d="M216.72,123.4l.32.14a6,6,0,0,0,.11,3.12c1.08,4.86,4.3,2.93,5.18.77a3.85,3.85,0,0,0,1.28-1.06,1,1,0,0,0,.77.27c1.44-.25,4.21-1.57.78-2.7a2.66,2.66,0,0,0-1.46-.15c-.83-2.64-2.82-5.73-4.61-1.83l-.17,0c-.13,0-.2,0-.31,0a1,1,0,0,0-.84-.7C216.5,121.21,213.94,122,216.72,123.4Z" transform="translate(-64.64 -55.34)"/><path class="cls-31" d="M224,141.45a4.91,4.91,0,0,0,.28-.89,1.48,1.48,0,0,0,1.07-.31c1.25-1.06,2.92-3.27,2.32-4.36a.83.83,0,0,0,.21-.28,4.36,4.36,0,0,0,.2-.52,3.69,3.69,0,0,0,1-1.6c2.15-1.44,5.06-4.74.17-4.85a1.75,1.75,0,0,0-.08-.59c.81.33,1.79-.63,1.93-1.48.72,1.14,1.84,2,2.23-.73.49-3.41-3-1.74-2.76-.4-1.08-1-3-2-2.33,1a4,4,0,0,0,.11.41.9.9,0,0,0-.77-.15,4.92,4.92,0,0,0-1.94,1.12.73.73,0,0,0-.39.87c-1-.1-1.69.81-1.6,3.78a4.54,4.54,0,0,0,.87,2.92c-.15,0-.27,0-.43.08-3.4.74-3.25,2.61-2.11,3.86C219.39,141.65,223.44,142.8,224,141.45Z" transform="translate(-64.64 -55.34)"/><path class="cls-31" d="M230.77,135.4c-1.13,2.26-2.13,7.49,3,3.85S231.91,133.13,230.77,135.4Z" transform="translate(-64.64 -55.34)"/><path class="cls-31" d="M225.89,147c4.93-4.64-2.85-6.29-3.74-3.7S221,151.59,225.89,147Z" transform="translate(-64.64 -55.34)"/><path class="cls-31" d="M209.2,176c.55,1.51,2.52,4.28,3.08.33S208.65,174.44,209.2,176Z" transform="translate(-64.64 -55.34)"/><path class="cls-31" d="M238.58,143.67c-.76-2.84-3.9-8.17-5.55-1.08S239.33,146.52,238.58,143.67Z" transform="translate(-64.64 -55.34)"/><path class="cls-31" d="M233.71,151.59c1-.85,1.44-1.87,0-2.37a1.21,1.21,0,0,0-.5-.5,8.56,8.56,0,0,0-2.56-.84c.43-1.73-2.59-1.72-2.8-.53s-.05,3.06,1,2.7a8.16,8.16,0,0,0,.7,1.22,3,3,0,0,0,1.21,1.38C232.13,153.72,233.24,152.82,233.71,151.59Z" transform="translate(-64.64 -55.34)"/><path class="cls-31" d="M230.16,153.39c-.85-1.43-3.37-3.82-3.17.27S231,154.81,230.16,153.39Z" transform="translate(-64.64 -55.34)"/><path class="cls-31" d="M239.08,157.65c.27,1.55,1.7,4.53,2.91.83S238.81,156.1,239.08,157.65Z" transform="translate(-64.64 -55.34)"/><path class="cls-31" d="M234.64,156.26c-2.24-.44-4.69-.06-1.76,3.52a6.94,6.94,0,0,0,.85.86c-.81.29-1.07,1,.58,2.3,2.36,1.92,3.06-.52,2.48-1.76,1.48.74,2.77.42,2.07-3.25C238.13,154.11,235.84,154.77,234.64,156.26Z" transform="translate(-64.64 -55.34)"/><path class="cls-31" d="M234,165.23c-1.92.55-5.5,2.77-.66,3.79S235.92,164.68,234,165.23Z" transform="translate(-64.64 -55.34)"/><path class="cls-31" d="M230.16,163c.34-.21.63-.77.8-1.91.6-3.91-3.57-1.87-3.05-.36a6.19,6.19,0,0,0,.66,1.31c-1,.32-1.89,1.67-1.36,2.44,1,1.38,3.67,3.63,3.19-.49A4.22,4.22,0,0,0,230.16,163Z" transform="translate(-64.64 -55.34)"/><path class="cls-31" d="M222.33,163.22c-5.41-2.94-4.72,4.39-2.16,4.46a9.21,9.21,0,0,0,1.52-.1c1.84,5.61,6.56-.05,4.78-2C225.47,164.53,223.56,163.16,222.33,163.22Z" transform="translate(-64.64 -55.34)"/><path class="cls-31" d="M214.51,167.64c.73,3.22,3.35.35,2.48-.66S213.77,164.42,214.51,167.64Z" transform="translate(-64.64 -55.34)"/><path class="cls-31" d="M221.8,157.18c0-.05,0-.08,0-.13l0,0a1.9,1.9,0,0,0,1.13,1.73c2.32.69,7.41.77,3.14-3.43-1.14-1.13-2.06-1.44-2.75-1.3-.76-.68-2.34-.79-2.74,0l0,.09a1,1,0,0,0-1.23-.41c1.43-2.05,1.93-4.41-2.56-3.55a7.14,7.14,0,0,0-.88-1,2.92,2.92,0,0,0-2-1.08.9.9,0,0,0,0-.16c-.6-1.79-2.85-5.06-3.6-.46-.42,2.62,1,3,2.17,2.5a1.85,1.85,0,0,0,.86,1.91h0a1.66,1.66,0,0,0-1.81.72c-.73,1.74-1.21,5.68,2.4,2.72l.31-.28a3.91,3.91,0,0,0,2.19,1,2.69,2.69,0,0,0-.3,1.84c-1.14-2.12-5.67-.63-5.49,1.51.25,2.86,2.38,8.53,5.16,2a4.46,4.46,0,0,0,.42-3.22,1.41,1.41,0,0,0,.19.34C218.19,160.74,223.23,164.25,221.8,157.18Z" transform="translate(-64.64 -55.34)"/><path class="cls-31" d="M210.4,154.14c-.44-1.88-2.41-5.44-3.62-.82S210.84,156,210.4,154.14Z" transform="translate(-64.64 -55.34)"/><path class="cls-31" d="M204.37,150.75c-.14-.05-.26-.07-.39-.11.43-.4.31-1.13-1-2.38a2.58,2.58,0,0,0-1.94-.9,1,1,0,0,0-.58-.41c-1.6-.33-5-.08-1.91,2.49a2.8,2.8,0,0,0,1.51.75,1.12,1.12,0,0,0,.71.67,7.29,7.29,0,0,0,.92.16c-.8,1.12.31,3.53,1.61,3.33C205.19,154.05,209,152.34,204.37,150.75Z" transform="translate(-64.64 -55.34)"/><path class="cls-31" d="M201.28,145.1c.8-.82,1.84-2.56,1-3.06a.8.8,0,0,0,.55-.32,4.86,4.86,0,0,0,.69-1.59c.89-.46,1.59-1.31,1.37-2.1-.59-2.12-3-6.07-4.16-.76a3.19,3.19,0,0,0,.23,2.63c-1.05.86-.43,1.7.39,2a6,6,0,0,0-1.13.27C196.44,143.42,200.16,146.25,201.28,145.1Z" transform="translate(-64.64 -55.34)"/><path class="cls-31" d="M184.13,190.21c-2.2.61-6.29,3.08-.8,4.3S186.32,189.61,184.13,190.21Z" transform="translate(-64.64 -55.34)"/><path class="cls-31" d="M177.92,147.24c2.1-2.73-1.94-2.92-2.17-1.55S175.83,150,177.92,147.24Z" transform="translate(-64.64 -55.34)"/><path class="cls-31" d="M186.29,141.51c.19,1.39.82,2.35,2.23,1.61a1.65,1.65,0,0,0-.09,1c-.51,1.69.56,4.3,2.17,4.26,2.56-.06,7.44-1.51,3.74-4.1a2.34,2.34,0,0,0,.94-2.34,11.74,11.74,0,0,0-1.11-2.39c1.15-.48,1.37-1.72-1-4.32-3.39-3.73-5.36-.89-5.33,1.56a1.83,1.83,0,0,0-1.32,1.2,1.36,1.36,0,0,0,0,.17.88.88,0,0,0-.39.35C185.54,139.57,185,141.67,186.29,141.51Z" transform="translate(-64.64 -55.34)"/><path class="cls-31" d="M181.77,148.77c.31-3.49-3.27-1.45-2.72-.14S181.46,152.26,181.77,148.77Z" transform="translate(-64.64 -55.34)"/><path class="cls-31" d="M189.17,149.43c-2.87,1.77.76,3.35,1.45,2.18S192,147.66,189.17,149.43Z" transform="translate(-64.64 -55.34)"/><path class="cls-31" d="M186,159.62a11.37,11.37,0,0,0,2.18-1.48,5.65,5.65,0,0,0,2.24-1.92c.23,1.43,2.57,2.72,3.57,1.75a7.78,7.78,0,0,0,1.62-2.27,7.4,7.4,0,0,0,2.27-.31c-.2.57.22,1.09,2,1.21,3.05.21,2.23-2.19,1-2.89,1.54-2.23-2.73-5.1-4.32-3.56a9.47,9.47,0,0,0-2.3,3.54,7.6,7.6,0,0,0-1.6.32,3.29,3.29,0,0,0-2.13,1.35c-.16-.74-1.14-1.44-3.56-1.91-.3-.06-.56-.08-.83-.11.41-.16.88-.68,1.42-1.76,2-4-3.23-3.29-3.19-1.46,0,1.06.42,2.75,1.14,3.18a2.56,2.56,0,0,0-2.52,1.1C180.19,156,183.84,160.73,186,159.62Z" transform="translate(-64.64 -55.34)"/><path class="cls-31" d="M201.6,160.07c-2.34-.85-7.22-1.29-5,2.23a2.57,2.57,0,0,0-1.52,1,2,2,0,0,0-1.68-.54,6.65,6.65,0,0,0-.77-2.07c-.75-1.4-1.53-1.9-2.22-1.89-.41-.46-1.26-.39-2.84.81-3.18,2.43-.35,4.07,1.43,3.77-.42,2.11-.17,5.16,2.9,2.31.19.41.81.55,2.19,0a2.37,2.37,0,0,0,1.4-1,4.42,4.42,0,0,0,.73.62,1.68,1.68,0,0,0-.26,1.86,8,8,0,0,0,1.54,1.67l-.15.11a3.77,3.77,0,0,0-3.27,1.69,6.91,6.91,0,0,0-3.31.65,8.81,8.81,0,0,0-1.41.7c.46-3.52-3.46-1.64-3-.2a4.55,4.55,0,0,0,1.48,2.19c-.2,2.24,3.79,4.21,5.18,2.61a11.86,11.86,0,0,0,1.58-2.43c.16.24.34.46.52.68,0,.78.44,1.57,1.09,1.63a5.84,5.84,0,0,0,1.17,0,1,1,0,0,0,.67-.12c.78-.2,1.35-.58,1.08-1.21,1.09.43,2-.23,1.93-3.43,0-1.81-.55-2.74-1.24-3.12a5.92,5.92,0,0,0,0-1.94,1.35,1.35,0,0,0,0-.18,1.47,1.47,0,0,0,.84-.87C203,165.45,203.58,160.79,201.6,160.07Z" transform="translate(-64.64 -55.34)"/><path class="cls-31" d="M192.26,179.12c-.87-1.5-3.28-2.51-4.54-1.65-.25-.19-.52-.38-.84-.58-2.92-1.8-4.29-.74-4.61.82a.47.47,0,0,0-.33,0c.14-2.17-.38-5-2.52-3.44a1.62,1.62,0,0,0-1.06-.11c-.26.07-.54.16-.83.26a5.61,5.61,0,0,0-1.05-1.11,1.9,1.9,0,0,0,1.23-1.26c.44-1.9.44-5.26-1-5.63a1.86,1.86,0,0,0,.26-2.07c-1.31-1.94-5.08-5.11-4.45.65a6.55,6.55,0,0,0,.2,1.05,1.19,1.19,0,0,0,.55,1.18,1.52,1.52,0,0,0,.84.56c-.23.23-.46.47-.72.76-1.27,1.47-1.56,2.6-1.32,3.42-.57.48-.73,1.05.06,1.61a2.44,2.44,0,0,0,.09,1c-.84.42-1.48,1.74-.91,2.37a4.39,4.39,0,0,0,2.29,1.37,3.22,3.22,0,0,0,.27.86,8.06,8.06,0,0,0-1.21.85,5.41,5.41,0,0,0-.76.75c-.54-1.63-1.91-1.13-2.6-.23.18-1.58-.77-2.54-4.42-1a1.39,1.39,0,0,1-.21.11c-.17-1.41-1.08-2.84-2.26-2.79l-.38,0c-.58-3.12-2.72-7.48-5.34-1.16a8.07,8.07,0,0,0-.48,1.61c-.77-.38-1.46,0-1.52,2.31-.12,3.8,3,2.35,3.53.82h0a8.86,8.86,0,0,0,2,1.28l.3.12a.24.24,0,0,1,0,.08c-4.69-1.79-4.24,5.5-1.5,5.75,1.59.14,4-.13,5.13-1-1.68,2,2.23,4.37,3.51,3,1.55-1.69,3.71-6-1.64-4.1a5.57,5.57,0,0,0-1.58.85,1.07,1.07,0,0,0,.23-.87c.14-.09.27-.19.4-.29a2.19,2.19,0,0,0,2.23-.55,11.33,11.33,0,0,0,1.62-2.83.71.71,0,0,0,.08.18c.68,1,2.31,2.48,2.89,1.46,1.1.78,3.12.79,3.58-.32a8.7,8.7,0,0,0,.52-1.94c1.59.15,3.68-.1,3.7-1.24a3.25,3.25,0,0,0,1.37-.43c-.25,2,1.17,2,2.06,1.38a1.64,1.64,0,0,0,1.06.55c.31,0,.65,0,1,0-.38,1.67.45,2.83,4.37,1.45a10.91,10.91,0,0,0,1.11-.47c.75.38,1.72.42,2.11-.16C193.59,181.19,194.52,178.43,192.26,179.12Z" transform="translate(-64.64 -55.34)"/><path class="cls-31" d="M168.9,171.37c1.76-.56,5-2.7.5-3.5S167.15,171.93,168.9,171.37Z" transform="translate(-64.64 -55.34)"/><path class="cls-31" d="M163.88,160c3.17-2.94-1.79-4-2.36-2.38S160.71,162.94,163.88,160Z" transform="translate(-64.64 -55.34)"/><path class="cls-31" d="M284.29,154.33c-7,2.93.51,7.75,2.47,5.38S291.32,151.4,284.29,154.33Z" transform="translate(-64.64 -55.34)"/><path class="cls-31" d="M157.74,165.06a5.79,5.79,0,0,0,.9-.89c-.77,2.65-.85,7.1,3.45,3.52a4.06,4.06,0,0,0,.93-.26c1.77,1.2,3.63,1.36,2.84-3-.71-3.94-3-3.4-4.33-1.93a3.21,3.21,0,0,0-2.15.45c.21-.77-.25-1.33-2.32-1C153,162.69,156.44,166.09,157.74,165.06Z" transform="translate(-64.64 -55.34)"/></g><g class="cls-32"><path class="cls-33" d="M175.42,156.4c-2.8-4.38-4-1.55-4.19,1a3.23,3.23,0,0,0-.94.09c.86-.3.11-2-.51-2.78-.88-1.12-4.41,1-1.21,2.44a3.07,3.07,0,0,0,1.59.38,1.65,1.65,0,0,0-1.27,1.8c-.22-.19-.44-.38-.65-.53-1.26-.89-3.55.77-3.8,2.39a2.09,2.09,0,0,0,.57,2.5c.46.89,2.15,1.58,2.36-.1h.06c2.17.29,3.16,0,3.46-.64,1.83,1.82,2.67-.32,2.87-2.35C175.6,160.73,177.44,159.57,175.42,156.4Z" transform="translate(-64.64 -55.34)"/><path class="cls-33" d="M179.09,166c-.08.22-.13.41-.18.6a10.29,10.29,0,0,0-2.26,2.59,2.39,2.39,0,0,0,.64,2.67c-1.42,1.41-.85,2,.16,2.19a2,2,0,0,0-.45.79,5.64,5.64,0,0,0-.84,0c-2,.18-2.51,4.74-.1,5,.9.69,2.25.85,2.53-.76a4,4,0,0,0,1.06-.84,2.86,2.86,0,0,0,1.24-1.69l0-.08c.44-.84-.33-2-1.31-2.57a1.21,1.21,0,0,0,.77-.91c.83-.31,1.5-1.3,1.6-3.38a12.11,12.11,0,0,0,0-1.35,8.07,8.07,0,0,0,1-.78C184.6,166.07,180.87,160.94,179.09,166Z" transform="translate(-64.64 -55.34)"/><path class="cls-33" d="M170.11,171c-.4-.76-.79-1-1.14-1-1-1-2.68-1.33-3,1.51a6.78,6.78,0,0,0,0,1.4,2.7,2.7,0,0,0-.9,2.17,1.45,1.45,0,0,0-.77-.31c.83-2.17-1.77-6.79-4.78-2.06-1.56,2.44-1.35,3.52-.44,3.86-1.74,2.11,1.78,8.78,5.25,2.7a6.21,6.21,0,0,0,1.14-3.36,4.36,4.36,0,0,0,2.72,1.26c4.14.72,4.36-.81,3.41-2.47.5-.23.9-.86,1-2.13C172.78,169.26,171.28,169.86,170.11,171Z" transform="translate(-64.64 -55.34)"/><path class="cls-33" d="M153.7,171.77c-.59,2,5.05,4.42,4-.69S154.28,169.74,153.7,171.77Z" transform="translate(-64.64 -55.34)"/><path class="cls-33" d="M158.75,165.74c-.56,3.33,1.74,1.61,2.56.53.35-.45.06-1.18-.43-1.66,1.86-.2.3-2.17-.74-3s-4.11,2.09-.89,2.83A2.49,2.49,0,0,0,158.75,165.74Z" transform="translate(-64.64 -55.34)"/><path class="cls-33" d="M164.42,155.55c1.46-3.3-1.38-2.13-2.52-1.22S163,158.85,164.42,155.55Z" transform="translate(-64.64 -55.34)"/><path class="cls-33" d="M176.46,148.48c-3.65-5.24-4.49.14-4.17,2.7S180.11,153.73,176.46,148.48Z" transform="translate(-64.64 -55.34)"/><path class="cls-33" d="M190.29,183.77c-3.25,3.69.92,3.33,2.78,2.62S193.54,180.08,190.29,183.77Z" transform="translate(-64.64 -55.34)"/><path class="cls-33" d="M213.63,179c-1.82,3.74,1.49,2.5,2.85,1.51S215.44,175.31,213.63,179Z" transform="translate(-64.64 -55.34)"/><path class="cls-33" d="M174.8,145.46c1.44.35,3-3.71-.61-2.79S173.36,145.11,174.8,145.46Z" transform="translate(-64.64 -55.34)"/><path class="cls-33" d="M181.41,146.62c2.85-1.73,2.81-2.88,1.75-3.57a10.87,10.87,0,0,0,.62-1.55,1.44,1.44,0,0,0,0-.62c.51-.95-1-2.77-2.08-2.16-1.75-.7-3.82-.16-3.09,3.57C176.29,143,176.09,149.87,181.41,146.62Z" transform="translate(-64.64 -55.34)"/><path class="cls-33" d="M187.1,142.05c-.74,3.26-.06,4.31,1.09,4.28a5.15,5.15,0,0,0,.44.4c.7.52,2.1-.53,2-1.44a11.34,11.34,0,0,0,2-1.78c1.24-1.43-.67-4.52-2.65-4.75a.38.38,0,0,0,0-.1c-.59-1.7-5.63-.6-2.54,2.38A9.45,9.45,0,0,0,187.1,142.05Z" transform="translate(-64.64 -55.34)"/><path class="cls-33" d="M187,150.36c.28.13.52.24.75.33a5.57,5.57,0,0,0,.33,1.64,10.25,10.25,0,0,0,.56,1.31,4.24,4.24,0,0,0-.08.67c-.29,4.24,2.38,1.8,3.29.34a1.39,1.39,0,0,0-.22-1.46,8.79,8.79,0,0,0,.65-2.14,1.48,1.48,0,0,0-.52-1.28,2.51,2.51,0,0,0,.05-.31c.3-3.09-1.26-2.29-2.32-1.19a7,7,0,0,0-.72-1.25C187.63,145.43,182.64,148.24,187,150.36Z" transform="translate(-64.64 -55.34)"/><path class="cls-33" d="M197.38,158.34c.73-3.1-1.54-1.62-2.39-.65S196.64,161.45,197.38,158.34Z" transform="translate(-64.64 -55.34)"/><path class="cls-33" d="M186.75,161.13l-.45-.24a3,3,0,0,0-.47-2.07c.91-1.2,1.23-2.91-.21-3.67.15-1.23-.59-2.35-3.08-1.58-1.95.6-2.49,1.26-2.32,1.88-1.28.69-.83,1.76.17,2.72a6.84,6.84,0,0,0,.3,2c-2.28,2.2.53,3,2.8,3.1a1.33,1.33,0,0,0,.25.63c-.8,1-.05,1.52,1,1.76.21,2,3.52.63,5.1-.53C191.59,163.85,189.18,159,186.75,161.13Z" transform="translate(-64.64 -55.34)"/><path class="cls-33" d="M190.92,167.16c-1.45-1.44-6.59,1.12-2.09,3.76a4,4,0,0,0,.4.22,8.28,8.28,0,0,0,.27,1.16c.8,2.53,8.37,1.1,3.7-3.5A6.7,6.7,0,0,0,190.92,167.16Z" transform="translate(-64.64 -55.34)"/><path class="cls-33" d="M200,171.35c1.43-1.3,2-3.71-2-4.09-5.39-.52-3.37,2.49-1.4,4.14a9.31,9.31,0,0,0-1.22,2.23c-.62,1.72,3,3.93,4.14,2.08,1.41.58,3.69,0,2-2.73C201,171.89,200.43,171.43,200,171.35Z" transform="translate(-64.64 -55.34)"/><path class="cls-33" d="M203.82,168.85c-4.45-1.3-2.48,2.11-1.13,3.42S208.27,170.14,203.82,168.85Z" transform="translate(-64.64 -55.34)"/><path class="cls-33" d="M209,166.14c-1.37-.86-4,2.06-2.08,3.23-.93,3.24,2,1.76,3.18.68a1,1,0,0,0,.21-.3C212.5,169.26,210.37,167,209,166.14Z" transform="translate(-64.64 -55.34)"/><path class="cls-33" d="M207.46,147.49a1.83,1.83,0,0,0-.34,1.56,3.61,3.61,0,0,0-2.39,3,3.66,3.66,0,0,0-1.22-1.37,9.51,9.51,0,0,0,.84-2.26c.58-.49.46-2.12.18-3.06a1,1,0,0,0-.54-.59c2.4-.19,5.53-4.83-.29-5.39a7.93,7.93,0,0,0-2.53.07,4,4,0,0,0-.43-.27c-3.48-1.89-2.45,1.31-1.57,2.65a1.32,1.32,0,0,0,1.39.37,10.1,10.1,0,0,0,2.46,2.35l.06,0c-1.06,0-2.2.65-1.59,1.92a10.68,10.68,0,0,0-1.66.67,7.81,7.81,0,0,0,1.68-2c1-1.81-3.89-5.32-4-.21,0,2.36.6,3,1.38,2.76-.17.1-.33.21-.47.31-1.3.92-.72,3.5.59,4.73a7.82,7.82,0,0,0,.17,1.49c.6,3,1.52,3.82,2.45,3.6l.15.14-.07,0c-2.26-.29-1.93.76-1.19,1.61-.07.09-.14.17-.21.27-.6.9-.75,1.47-.64,1.81-.63-.76-1.7-.93-2.91.87-.13.19-.22.35-.32.52a4.42,4.42,0,0,0-.8-.09c1.05-.51,1.9-2.2-.57-2.55-3.32-.46-1.55,1.77-.45,2.57l.05,0c-3.19.34-.75,2.59.71,3.34.66.34,1.55-.22,2-1a7,7,0,0,0,2.25-.73c.8-.43.74-1.81.19-2.72.55.41,2,0,2.74-.42a.77.77,0,0,0,.31-.31,3.28,3.28,0,0,0,.76,1.43c2.78,3.47,3.1-.3,2.76-2.06-.12-.61-.81-.95-1.55-1,2-.37,4.28-3.87,1.72-5.19a6.49,6.49,0,0,0,1.93-.07c3.29-.54,3.77-1.61,3.12-2.65a5.3,5.3,0,0,0,1.24-2.69C214.47,141.81,209.35,145.25,207.46,147.49Zm-4.39,12.66a2.52,2.52,0,0,0-.13-.47,1.28,1.28,0,0,0,.26-.69,6.88,6.88,0,0,0,.61.36,1.31,1.31,0,0,0,.46.15A1.73,1.73,0,0,0,203.07,160.15Zm1.61-6.32c.07-.19.13-.38.18-.56a.34.34,0,0,0,0-.1,1.71,1.71,0,0,0,.71.78A5.77,5.77,0,0,0,204.68,153.83Z" transform="translate(-64.64 -55.34)"/><path class="cls-33" d="M211.24,136.68c-2.65-2.91-2.73.44-2.33,2S213.89,139.6,211.24,136.68Z" transform="translate(-64.64 -55.34)"/><path class="cls-33" d="M200.47,134.45a7.37,7.37,0,0,0-.29,3c.22,1.94,5.43,2.13,4-1.22.88.4,1.88.12,1.94-1.91.12-3.38-1.58-2.23-2.61-.94.43-.73.24-1.75-1.33-3-4.34-3.37-3.65,1.25-2.74,3.28A1.43,1.43,0,0,0,200.47,134.45Zm2.83-.8a3.58,3.58,0,0,0-.3.46.92.92,0,0,0-.09.23,2.2,2.2,0,0,0-.2-.23A2.23,2.23,0,0,0,203.3,133.65Z" transform="translate(-64.64 -55.34)"/><path class="cls-33" d="M209.82,128.33a8.93,8.93,0,0,0-.13,2.7c.25,2,5.24,2.26,4.62-.67a2.8,2.8,0,0,0,1.28-.88c.07.18.15.35.23.51a5.78,5.78,0,0,0-2,2.33c-.84,1.69,3.75,4.68,3.62,0a5.49,5.49,0,0,0-.25-1.67c1.28-.14,2.7-1.4.79-2.78,1.43.39,4-.93,1.36-3-1.05-.84-1.71-1-2.1-.87.37-.93-.06-2.07-2.18-3.08-4.78-2.29-4.16.91-2.95,3.19a2.4,2.4,0,0,0-2,1.81C208.85,126.63,209,127.52,209.82,128.33Zm7-3.67a5.39,5.39,0,0,0,.45,2.66,1.22,1.22,0,0,0,.12.19,5,5,0,0,0-.75-.36,1.91,1.91,0,0,0-.76-1.78A3.53,3.53,0,0,0,216.79,124.66Z" transform="translate(-64.64 -55.34)"/><path class="cls-33" d="M220.29,123.57c1.39.13,2.63-.76,1.89-3.68-1.51-6-4.11-1.42-4.71,1a1.3,1.3,0,0,0,.05.73C217.27,123.09,218.37,125.23,220.29,123.57Z" transform="translate(-64.64 -55.34)"/><path class="cls-33" d="M221.27,135.74c-1.11-1.05-3.6,1.14-4.7,2.67-1.21,1.69,1.92,5.19,3.85,3.75a10.87,10.87,0,0,0,2.35.88,2.45,2.45,0,0,0,2.43-1.47,3.64,3.64,0,0,0,.9-.4,1.62,1.62,0,0,0,.07.44,6.83,6.83,0,0,0-1,.42c-1.57.83.28,5.65,2.75,2a6.24,6.24,0,0,0,.48-.8,8.74,8.74,0,0,0,1.38.16c7.15.26,2.9-4.1.4-5.54-.94-.54-2.22.06-3.1,1a3.31,3.31,0,0,0-.64-1.11c1.35.2,2.63-.69,2.67-3.79,0-.24,0-.44,0-.65,1.2-.27,2.23-1.4.24-2.92-1.53-1.17-2.19-1-2.4-.32a2.79,2.79,0,0,0-.74.39,3.61,3.61,0,0,0-.15-.73c-.37-1.22-4-.56-1.8,1.67a5.59,5.59,0,0,0,.48.43,10.67,10.67,0,0,0-1.31,1.87,1.91,1.91,0,0,0,.08,1.78C222.28,135,221.61,135.15,221.27,135.74Z" transform="translate(-64.64 -55.34)"/><path class="cls-33" d="M225.87,158.11c-2.84,3.43.92,3,2.58,2.3S228.71,154.68,225.87,158.11Z" transform="translate(-64.64 -55.34)"/><path class="cls-33" d="M231.19,163.66c-2,1.49,1.56,7.89,4.29,2.27S233.22,162.17,231.19,163.66Z" transform="translate(-64.64 -55.34)"/><path class="cls-33" d="M238.71,156.94s0,.05-.07.08a5.16,5.16,0,0,0-.56-.71,4,4,0,0,0,.09-1.6c1.23-.17.41-2.36-.31-3.42-.45-.66-1.66-.5-2.43.05-.7-.59-2.22-.33-3.6.19-.05-.23-.11-.45-.17-.64-.35-1.06-2.36-1.1-3.24-.3a3.08,3.08,0,0,0-.38.16,3.13,3.13,0,0,0-.54-.1c.35-2-.06-2.85-.82-3,1.16-1-1.09-2-2.39-2.25-1-.17-2,1.71-1.42,2.68a5.31,5.31,0,0,0-1.47-.7l-.53-.15a9.73,9.73,0,0,0-.51-3.21c-.86-2.47-8.28-.84-3.54,3.56a11.1,11.1,0,0,0,1.33,1.07,8,8,0,0,0,1.77,2.85,1.7,1.7,0,0,0,1.7.27c.34,2.09,3.08,4.56,4.8,2a9.77,9.77,0,0,0,.82,2.11,2.08,2.08,0,0,0,2.2.79.92.92,0,0,0,.7.2,2,2,0,0,0,2.26.77,9.43,9.43,0,0,0,3.58.79,3.14,3.14,0,0,0,1.05.45,4.66,4.66,0,0,0,1.34.21c.65,2.09,3.29,4.07,4.91-.22C245.53,152.88,240.64,155.23,238.71,156.94Zm-14.87-8.36-.28.2a1.6,1.6,0,0,0-.21-.32A1.68,1.68,0,0,0,223.84,148.58Z" transform="translate(-64.64 -55.34)"/><path class="cls-33" d="M247.89,138.27a3.94,3.94,0,0,0-.52-1.64c.84-2-2.62-6.38-4.54-1.31-.9,2.35-.58,3.3.21,3.5a9,9,0,0,0-1.39.38c-1.54.58-1.29,3.87.25,4.63l-.32.29c-.75.73-.27,2.26.62,3.12-1.2.26-1.95,2.89-.45,3.34a2.89,2.89,0,0,0-1.36,1.32c-2.22,3.67,1.31,2.72,2.8,1.82.94-.56.46-2.61-.59-3.11a4.24,4.24,0,0,0,1-.27c2.82-1.1,1.94-2.12.58-2.68a3.42,3.42,0,0,0,1.39-2.07,4.07,4.07,0,0,0,.27-2.72,0,0,0,0,0,0,0,1.33,1.33,0,0,0,0-1.28,5,5,0,0,0,.63-1.1C247.31,140.66,248.17,140.18,247.89,138.27Zm-3,.2-.06.14v0h-.4Z" transform="translate(-64.64 -55.34)"/><path class="cls-33" d="M236.1,134.18a6.9,6.9,0,0,0-.08,1c0,1.63,4.5,2.22,3.15-1,1.31-.65-.48-2.46-1.66-3.18C236.15,130.15,233.45,133.33,236.1,134.18Z" transform="translate(-64.64 -55.34)"/><path class="cls-33" d="M239.53,128.93l-.07,0c-1.84.74-.36,6.32,2.82,2.58,0,0,0,0,0,0,2.76.77,3.49,0,3.31-1.1.88-1,.53-3.79,0-5.42a1.71,1.71,0,0,0-.61-.77c.24-6.06-4-2.3-5.46,0a2.45,2.45,0,0,0,.62,2.79,4.7,4.7,0,0,0,.26.49A2.47,2.47,0,0,0,239.53,128.93Z" transform="translate(-64.64 -55.34)"/><path class="cls-33" d="M243.77,120.57c2,1.79,2.3.47,2.14-.84.62.56,2,.68,2.35-.07a1.52,1.52,0,0,0,.31.49c-3.6,3.11.62,3.8,3.13,3.55a3.66,3.66,0,0,0,1.78.55,4.66,4.66,0,0,0,.47.27.68.68,0,0,0,.34.08c.21,1.19,2.84,1.82,4.43,1.85a1.49,1.49,0,0,0,1-.43,5.21,5.21,0,0,0,.76.5c1.27.66,3.61-2.71.21-2.78.08-1.64-1-3.15-4-1.61l-.37.21a4.45,4.45,0,0,0-1.15-2.73c-1.77-2.29-2.88-2.53-3.54-1.86a.72.72,0,0,0-.84-.41,4.67,4.67,0,0,0-2.15.36.88.88,0,0,0-.48.59,3.26,3.26,0,0,0-.18-.38c-1.44-2.73-2.23-.8-2.4.65C245,117.39,241.29,118.29,243.77,120.57Z" transform="translate(-64.64 -55.34)"/><path class="cls-33" d="M237.43,118.49c4.67.69,2.2-2.47.67-3.61S232.77,117.79,237.43,118.49Z" transform="translate(-64.64 -55.34)"/><path class="cls-33" d="M239.21,115.45a1.66,1.66,0,0,0,.21.06c.08.81.81,1.53,2.73,1.7,5.53.51,2.43-3,.55-4.28a1.34,1.34,0,0,0-1-.15c-.23-.57-.93-1-2.39-1C234.6,111.82,237.52,114.56,239.21,115.45Z" transform="translate(-64.64 -55.34)"/><path class="cls-33" d="M251.05,115.59a.86.86,0,0,0,.41-.67,3.69,3.69,0,0,0,1.62,0c2,1.09,5.62.55,3.42-3.78a5.91,5.91,0,0,0-1.84-2.42c.05-.09.1-.18.15-.29,1.21-2.81-1.19-1.79-2.15-1a.93.93,0,0,0-.2,1l-.22.23s-.05.09-.09.14c-3.78-1.84-3.36,1.72-2.35,4.22a2.69,2.69,0,0,0-1,1C246.91,117,249.81,116.3,251.05,115.59Z" transform="translate(-64.64 -55.34)"/><path class="cls-33" d="M251.65,126.14c-2.25-1-5.93,5.15.15,4.73S253.9,127.14,251.65,126.14Z" transform="translate(-64.64 -55.34)"/><path class="cls-33" d="M259.2,129.2c-1.06.27-1.84,1.24-.19,2.76,1.87,1.7,2.42.9,2.44-.28a8.5,8.5,0,0,0,1,.14c6.58.44,2.8-3.69.53-5.1C261.69,125.92,259.56,127.57,259.2,129.2Z" transform="translate(-64.64 -55.34)"/><path class="cls-33" d="M254.39,133c-5.62-4.32-4.69,1.64-3.5,4.24S260,137.26,254.39,133Z" transform="translate(-64.64 -55.34)"/><path class="cls-33" d="M261.25,133.32c-.9-.77-3.17,1.09-1.77,2.13a8.58,8.58,0,0,0-1.42,2.22,1.21,1.21,0,0,0-.06.68c-.79,1.28.2,1.74,1.45,1.8,1.11.63,2.5.62,2.89-1.05a2.92,2.92,0,0,0,.07-1.78,9.3,9.3,0,0,0-.23-1.36C263.18,135.59,262.05,134,261.25,133.32Z" transform="translate(-64.64 -55.34)"/><path class="cls-33" d="M263.23,139.3c.24,1.6,4.93,1.45,2.55-1.75S263,137.71,263.23,139.3Z" transform="translate(-64.64 -55.34)"/><path class="cls-33" d="M255.38,144.61c.11-1.09-.17-1.65-.66-1.85-.1-.2-.2-.39-.3-.55-1-1.6-5.27,0-3.87,2.26l-.41.38c-.75.73-.45,2.14.3,3.18l0,.11h-.11c-.83,0-1.5.74-1.83,1.68h0a1.2,1.2,0,0,0-1.19.67c-1.15-.38-2.38.1-2.07,2.63,0,.28.08.53.12.76-1,1.23-.94,4.07,2.27,2.7,2.68-1.14,2.08-2.11.85-2.68a6.84,6.84,0,0,0,.51-1c.63.52,1.72.6,3.43-.26,3.42-1.72,2.89-3,1.37-3.71a5.72,5.72,0,0,0,.54-.62,3.9,3.9,0,0,0,1.14-2.46A3.5,3.5,0,0,0,255.38,144.61Z" transform="translate(-64.64 -55.34)"/><path class="cls-33" d="M257.48,150.44c3.19,2.05,2.42-1.08,1.67-2.41S254.29,148.41,257.48,150.44Z" transform="translate(-64.64 -55.34)"/><path class="cls-33" d="M265,147a5.75,5.75,0,0,0,.11-1.17c0-4.51-2.08-3.29-3.49-1.56-1.83-.39-4,.53-2.14,3.86s2.9,2.64,3.56,1.17c.32,1.28,2.36,2.69,2.95-.22C266.42,147,265.82,146.68,265,147Z" transform="translate(-64.64 -55.34)"/><path class="cls-33" d="M267.66,150.59c-1.79.77-.18,6.2,2.83,2.44S269.45,149.81,267.66,150.59Z" transform="translate(-64.64 -55.34)"/><path class="cls-33" d="M269.75,144.81a6.15,6.15,0,0,0-.31-1.4c-.54-1.46-4.95-.41-2.08,2.16.84.75,1.41,1,1.78.94a4.53,4.53,0,0,0,.44.89c2.18,3.39,2.83,0,2.7-1.6C272.2,144.89,270.69,144.44,269.75,144.81Z" transform="translate(-64.64 -55.34)"/><path class="cls-33" d="M275.2,141.85c-1,.72-1.55,2.94-1.64,4.37-.15,2.55,6.9,3.89,4.82-1.47a9.32,9.32,0,0,0,1.2-.87C281.46,142.25,277.45,136.31,275.2,141.85Z" transform="translate(-64.64 -55.34)"/><path class="cls-33" d="M281.54,141.39c0,1.3,3.72,1.84,2.28-1S281.58,140.09,281.54,141.39Z" transform="translate(-64.64 -55.34)"/><path class="cls-33" d="M276.78,134.6a1.22,1.22,0,0,0-.07-.38,4.39,4.39,0,0,0,2.31,2.17c6.14,3.2,4.25-2.38,2.66-4.68-1.19-1.73-5.52-.05-5.06,2.25a2.68,2.68,0,0,0-1.37-1.2,3.7,3.7,0,0,0,1.05-2.08l.41,0c4.55,0,1.75-2.67.12-3.53a1.62,1.62,0,0,0-1.8.58h0a1.77,1.77,0,0,0-.53-2c1.19-.37,2-1.51.09-3.22-3.41-3-3.08.85-2.43,2.57,0,.05.06.09.08.14a2.86,2.86,0,0,0-.83,2,6.51,6.51,0,0,0,0,1.3c-3.92,2.14-2.08,3.6.26,4.25a1,1,0,0,0-.67,1.08l-.09-.05c-.81-.38-1.93.68-2.08,1.67-.61.32-1.11,1.12-1.27,2.67-.62,5.8,3.16,2.6,4.48.64a1.84,1.84,0,0,0-.21-2h0l.05.11C275.16,143.2,276.78,137.44,276.78,134.6Z" transform="translate(-64.64 -55.34)"/><path class="cls-33" d="M278.57,127.65c.83,1.69,6-.13,2.22-2.85S277.74,126,278.57,127.65Z" transform="translate(-64.64 -55.34)"/><path class="cls-33" d="M283.23,119.89a5.06,5.06,0,0,0,.59-.69,1.06,1.06,0,0,0,.13-.94,2.84,2.84,0,0,0,.67-1.5c.76-3.86-2-1.93-3-.69a.93.93,0,0,0-.18.66,2.5,2.5,0,0,0-.9,1.89c-.25,1.77.1,2.4.68,2.43l-.23.32c-2.46,4,1.42,3,3.07,2C285.18,122.74,284.52,120.24,283.23,119.89Z" transform="translate(-64.64 -55.34)"/><path class="cls-33" d="M288.74,120.87a7.25,7.25,0,0,0,1.9-1.16,8.07,8.07,0,0,0,2.62.71c1.35.11,2.33-2.31,1.61-3.54a5.35,5.35,0,0,0,2.87.07,11.16,11.16,0,0,0,2.55-.24c2.34-.52,2.19-6.3-1-5.76a2.53,2.53,0,0,0-2.59.73c.29-.77-.46-2.28-1.1-3.1-1.1-1.4-5.53,1.29-1.5,3.08a3.42,3.42,0,0,0,2.16.44c-.18.18-.36.36-.56.59-1.53,1.86-1.84,3-1.49,3.65a3.17,3.17,0,0,0-2.44.29,7.92,7.92,0,0,0-1.4.75,9.29,9.29,0,0,0-3.93-1.24c-2.15-.18-3.58,4.62-1,5.36-.47,1.25.4,3.57,2.57,1.52C289.25,121.83,289.25,121.18,288.74,120.87Z" transform="translate(-64.64 -55.34)"/><path class="cls-33" d="M275.08,112.86a4.66,4.66,0,0,0,1.5.77.81.81,0,0,0,.63-.12c-.37.9,1.51,1.58,2.63,1.71,1.56.17,2.61-4.27-1-2.85a5.7,5.7,0,0,0-1,.5c.41-.74.33-1.72-.95-1.74,0-.6-.42-1.32-1.46-2.14-4.15-3.29-3.53,1.17-2.66,3.14C273.07,112.86,274.12,113.07,275.08,112.86Z" transform="translate(-64.64 -55.34)"/><path class="cls-33" d="M281.75,106.28a11.37,11.37,0,0,0,.68,2.88,2.29,2.29,0,0,0,2.16,1.18c-1.18,4.23,3.38,2.31,5.35.77,1.23-1,.43-3.59-1-4.55a1.54,1.54,0,0,0-.71-.72c1.52-.31,1.4-1.43.69-2.59,1.08-.69-.63-1.93-1.69-2.35a.74.74,0,0,0-.51,0l-.13-.11c-1.12-.82-3.11.35-3.8,1.78a7.27,7.27,0,0,0-1.31.72C280.64,103.84,281,105.44,281.75,106.28Z" transform="translate(-64.64 -55.34)"/><path class="cls-33" d="M296.1,147l0,0c1.35-.54,2.06-2,.06-4.41-3.92-4.79-4.58-.28-4.23,2.51-2.07.69-3.95,4.67-.68,5.46-.08.14-.16.25-.24.41-1.09,2.14-.8,3,0,3.18.17.56.84.44,1.5.11a7.66,7.66,0,0,0-.29,1.74c-.36,7.1,4,2.94,5.51.47.67-1.12-.34-2.78-1.67-3.6a4.33,4.33,0,0,0,2.29-2.69,4.94,4.94,0,0,0,.48-.58C301.53,145.73,298.06,146.16,296.1,147Z" transform="translate(-64.64 -55.34)"/><path class="cls-33" d="M294.75,137.44c1.39-1.92-3.7-6.58-4.49-.77S293.37,139.37,294.75,137.44Z" transform="translate(-64.64 -55.34)"/><path class="cls-33" d="M298.74,102.39c3.26.75,1.71-1.63.68-2.51S295.48,101.63,298.74,102.39Z" transform="translate(-64.64 -55.34)"/><path class="cls-33" d="M298.76,104.13c-.39-1.32-4.35-.65-2,1.79S299.15,105.45,298.76,104.13Z" transform="translate(-64.64 -55.34)"/><path class="cls-33" d="M291.89,113.53c1.25.45,3-3-.25-2.54S290.65,113.07,291.89,113.53Z" transform="translate(-64.64 -55.34)"/><path class="cls-33" d="M302.14,136.36a5.33,5.33,0,0,0,.91-.71c.45-.44.26-1.28-.19-1.9,0-.27,0-.55,0-.83a11,11,0,0,0,2.69.85c2,.35,3.82-3.6,2.28-5.16a4.49,4.49,0,0,0-.24-2.56c-.53-1.39-4.65-.38-2.12,2a7.75,7.75,0,0,0-1.5.33,6.68,6.68,0,0,0-2.89,1.56,3.63,3.63,0,0,0-3.5.75h-.19a7.33,7.33,0,0,0,.13-2.21c-.05-.61-.64-1.05-1.35-1.24a4.76,4.76,0,0,0,.18-.92,2.26,2.26,0,0,0,1.68-.09c1.36-.46,1.75-.95,1.63-1.38,4.08.26,2.38-2.19.76-3.53,1.53-.87,2.63-3.85-1.25-3.71-1.94.07-2.63.54-2.65,1.14-.52.42-.8,1.27-.49,2.79a6,6,0,0,0,.7,2,2,2,0,0,0-.94,1.44,2.48,2.48,0,0,0-1.74.21c-.54-4-3.94-.65-5.17,1.44-1,1.77,2.25,4.92,4.09,3.53a1.46,1.46,0,0,0,1.17.14,1.19,1.19,0,0,1,.09.15,5.72,5.72,0,0,0,1.23,1.43c-.28.72-.09,1.73,1,3.12,1.92,2.45,3,2.38,3.59,1.39.18.64.85.57,1.55.24A.94.94,0,0,0,302.14,136.36Z" transform="translate(-64.64 -55.34)"/><path class="cls-33" d="M327,123.14c-.13-1.42-3.89-1.63-3,.78a6.3,6.3,0,0,0-1-.09,8.27,8.27,0,0,0-1.44.11,2.47,2.47,0,0,0-.33-.81,4.15,4.15,0,0,0,.88-2.45c0-.83-1.25-1.43-2.15-1.22a2.54,2.54,0,0,0-.57-.85c.24-.91-.24-1.24-.95-1.25-.34-.76-1.25-1.43-3.12-1.75-.37-.06-.69-.1-1-.13a1.56,1.56,0,0,0,.28-.94,1.16,1.16,0,0,0-.32-1.23,6.15,6.15,0,0,0-.5-.92c-3.09-4.72-4,0-3.75,2.27a1.83,1.83,0,0,0,1.48,1.4c-.88,1.18,1.19,3.71,2.7,4.87a1.85,1.85,0,0,0,1.71.19,5.79,5.79,0,0,0-.11,1.48,8.39,8.39,0,0,0-.78.32,1.54,1.54,0,0,0-.73.74c-2.59.13-1.22,2.6.23,4.14a.47.47,0,0,0-.25.21c-1.21-1-2.9-.93-4,2.23-.12.35-.21.66-.29.95-1.47.14-2.66,2.38-2.39,4.05-2.13.88.28,2.38,1.67,2.81.65.2,1.35-.43,1.69-1.19a7.49,7.49,0,0,0,1.11-.33c3.81-1.38,3.72-2.77,2.4-3.79.27-.21.53-.42.74-.62a1.57,1.57,0,0,0,.46-1.07c1.06-.09,2.13-1,.71-2.32a3,3,0,0,0,1.29-.52c.72.85,2.44-.26,3.55-1.35a8.28,8.28,0,0,0,1.59,1.14c1,.55,2.55-.7,2.89-2C326.83,126.44,327.14,124.32,327,123.14Z" transform="translate(-64.64 -55.34)"/><path class="cls-33" d="M317.91,112.64c-2.87,3.38.88,3,2.54,2.33S320.79,109.27,317.91,112.64Z" transform="translate(-64.64 -55.34)"/><path class="cls-33" d="M318.43,107.84c2.12,3.8,3.42,2.53,4,.54a4.41,4.41,0,0,0,.87-.39c5.86,0,2.15-3.79-.09-5.09-.81-.48-1.92,0-2.72.81C318.6,103.41,316.53,104.44,318.43,107.84Z" transform="translate(-64.64 -55.34)"/><path class="cls-33" d="M317.21,103.32c4.2.25,1.76-2.37.31-3.25S313,103.07,317.21,103.32Z" transform="translate(-64.64 -55.34)"/><path class="cls-33" d="M303.51,143.78c-3.49,1.95-.21,2.8,1.41,2.77S307,141.84,303.51,143.78Z" transform="translate(-64.64 -55.34)"/></g></g></g></g></svg>