<svg xmlns="http://www.w3.org/2000/svg" viewBox="0 0 866.09 1068.65"><defs><style>.cls-1{fill:#64bc2b;}.cls-2{fill:#522d1b;}.cls-3{fill:#c73c27;}.cls-4{fill:#e8bb00;}.cls-4,.cls-5,.cls-6{stroke:#333;stroke-miterlimit:10;stroke-width:3px;}.cls-5{fill:#00bc0d;}.cls-6{fill:#0f7bf2;}</style></defs><title>Diversan Logo</title><g id="Capa_3" data-name="Capa 3"><path class="cls-1" d="M612.7,175.08c-28.42,6.88-47.88,30.15-47.38,55,17.69-15,41-27,67.93-33.16,30.2-7.06,59.48-5.67,83.54,2.14-22.69-5.94-49.32-6.57-76.6-.23a166.11,166.11,0,0,0-58.87,26.08v0c-7.81,3.78-17.1,12.5-22.88,18.42.91,2.14,2,4.9,3.2,7.83-.2-.52-.35-1.14-.57-1.64,2.23-2.28,4.37-4.45,6.46-6.41,8.24,26,38.28,41.48,68.78,34,43-10.51,68-76.66,107.33-67.33C743.64,209.88,693.13,155.56,612.7,175.08Z" transform="translate(-103.62 -14.84)"/><path class="cls-1" d="M506.35,266.65c6.71-1.72,11.25-7.3,11-13.2a38.15,38.15,0,0,1-16,8.09,37.33,37.33,0,0,1-19.8-.23,38.11,38.11,0,0,0,18.15-.2,39.37,39.37,0,0,0,13.87-6.38h0a23.49,23.49,0,0,0,5.36-4.44c-.23-.5-.5-1.15-.79-1.84,0,.12.09.27.14.38-.52.55-1,1.07-1.51,1.55-2-6.15-9.21-9.71-16.41-7.84-10.15,2.63-15.85,18.39-25.21,16.32A33.13,33.13,0,0,0,506.35,266.65Z" transform="translate(-103.62 -14.84)"/><path class="cls-2" d="M558.34,243.48c-11.89-24.16-28.23-34.35-29.93-35.79a19,19,0,0,0-24.62,29c.58.5,34.91,19.37,28.12,79.74,6.09,1.67,11.33,3.53,14.27,5.59,0,0,9.67-2.88,24-6.31,2.08-27.42-2.12-48.47-8.55-64.48-1.17-2.93-2.29-5.69-3.2-7.83A.46.46,0,0,0,558.34,243.48Z" transform="translate(-103.62 -14.84)"/><path class="cls-3" d="M546.18,322c-2.94-2.06-8.18-3.92-14.27-5.59v0c-7.38-1.85-16.71-3.88-27.12-5.64-7.33-1.18-14.17-2.07-19.56-2.71-50.46-5.47-116.29-.16-144.12,56.54-48.05,97.79-15.46,231.64,66.91,290,73.65,52.17,129.34,33,140.31,28.38V321.38Z" transform="translate(-103.62 -14.84)"/><path class="cls-3" d="M759.79,364.63c-14.34-29.18-38.77-44.71-66-52.25.45.33,1,.53,1.48.88-.44-.35-1-.55-1.48-.88-44.35-12.22-96.05-3.05-123.64,3.76v-.45c-10.44,2.49-18.3,4.67-21.86,5.69V683c1.3-.54,2.12-.94,2.12-.94S610.51,713,692.88,654.62,807.84,462.42,759.79,364.63Z" transform="translate(-103.62 -14.84)"/><path class="cls-1" d="M903.06,939.86c-12.77,6.62-19.34,20-16.18,31.85a79.09,79.09,0,0,1,28.57-23.81c13.6-6.91,27.75-9.68,40.16-8.77A79.16,79.16,0,0,0,919,948a81.52,81.52,0,0,0-25.07,19.37h0c-3.28,2.72-6.7,8-8.77,11.48.69.91,1.55,2.1,2.45,3.37-.16-.23-.3-.51-.47-.72.8-1.35,1.57-2.64,2.34-3.82,7,11.47,23.15,15.33,36.85,8.2,19.29-10.06,23.49-44.6,43.38-44.76C969.7,941.13,939.2,921.11,903.06,939.86Z" transform="translate(-103.62 -14.84)"/><path class="cls-1" d="M858.26,1016.08c6.64,1.56,13-1.1,15.42-6.16a40.46,40.46,0,0,1-34.86-9.49,39.22,39.22,0,0,0,16,8,39.87,39.87,0,0,0,14.95.86h0a23,23,0,0,0,6.64-1.33c0-.52.06-1.2.1-1.91,0,.13,0,.27,0,.39-.7.23-1.36.44-2,.62.86-6.09-3.9-12.32-11-14-10.05-2.35-21.89,8.37-29.22,2.41A33.56,33.56,0,0,0,858.26,1016.08Z" transform="translate(-103.62 -14.84)"/><path class="cls-2" d="M888,978.51c-5.42-16.36-12.85-23.26-13.63-24.23-3.65-4.58-9.09-3.92-12.19,1.48s-2.65,13.54,1,18.14c.26.34,15.9,13.11,12.81,54l.08,0a20.79,20.79,0,0,0,15.05.31l2.3-.84c.94-18.56-1-32.82-3.9-43.66-.53-2-1-3.85-1.46-5.29Z" transform="translate(-103.62 -14.84)"/><path d="M342.82,979.09a203,203,0,0,1-10.57,33.6,157.56,157.56,0,0,1-13.38,25.41,114,114,0,0,1-14.9,18.43,106.62,106.62,0,0,1-15,12.51,81.78,81.78,0,0,1-36.19,14.11,90.1,90.1,0,0,1-15,.06,68.76,68.76,0,0,1-12.37-2.06,23.36,23.36,0,0,1-11.31-6.52,29,29,0,0,1-6.06-10.11,41.07,41.07,0,0,1-2.19-11.51,78.09,78.09,0,0,1,.2-10.85,88.19,88.19,0,0,1,1.93-11.31,22.79,22.79,0,0,0,2,11.05,21.1,21.1,0,0,0,6.32,7.71,31.09,31.09,0,0,0,9.72,4.79,51.45,51.45,0,0,0,12,2.13,22,22,0,0,1-8.12-6.58q-3.33-4.34-2.53-11.78.41-3.47,1.73-9.78t3.26-14.5q1.94-8.19,4.4-17.77t5-19.56q2.6-10,5.26-19.82t5.12-18.63q2.46-8.79,4.46-16t3.33-12a99.18,99.18,0,0,0-14.18,7.05,116.05,116.05,0,0,0-27.61,23.69,61.69,61.69,0,0,0-7.38,11,35.31,35.31,0,0,0-3.39,9.44,30.74,30.74,0,0,0-.54,7.92,23,23,0,0,0,6.52,14.37q-18.49-10-25.68-22.22a30.38,30.38,0,0,1-3.92-11.44,25,25,0,0,1,2.19-13.38q3.06-7.11,10.78-15t21.82-16.57a152.93,152.93,0,0,1,24.82-12.51,99.48,99.48,0,0,1,19.76-5.45q29.26-4,49.63,3.86a61.9,61.9,0,0,1,16.3,9.71,44.59,44.59,0,0,1,12.31,16.7q4.65,10.44,5.52,25.61T342.82,979.09Zm-88.88,75.71a77.06,77.06,0,0,0,19.69-9.31,120.3,120.3,0,0,0,16.23-12.77,111,111,0,0,0,12.38-13.64,121.92,121.92,0,0,0,8.12-11.91A227.18,227.18,0,0,0,324,979.49a151.83,151.83,0,0,0,7.25-22.62,72.32,72.32,0,0,0,2-18,53.83,53.83,0,0,0-2-13.58,28.61,28.61,0,0,0-4.73-9.51,26,26,0,0,0-6.32-5.92,33.09,33.09,0,0,0-12.7-4.46,86.5,86.5,0,0,0-14.64-1,113.64,113.64,0,0,0-13.51,1c-4.17.58-7.23,1-9.18,1.4l14.77,7.32c0,.08-.51,1.77-1.53,5.05s-2.33,7.68-3.92,13.18-3.42,11.86-5.46,19.09-4.1,14.79-6.19,22.69-4.08,15.9-6,24-3.54,15.8-4.92,23-2.35,13.77-2.93,19.62A58.92,58.92,0,0,0,253.94,1054.8Z" transform="translate(-103.62 -14.84)"/><path d="M391.79,990.8c-.26,1.06-.78,2.84-1.53,5.32s-1.64,5.3-2.66,8.45-2.15,6.44-3.39,9.85a101.19,101.19,0,0,1-4,9.51,48.34,48.34,0,0,1-4.32,7.39q-2.19,3-4.19,3.39l.13.13-.13-.13a1.18,1.18,0,0,1-.53.13,7.24,7.24,0,0,1-1.73-.26q-2.81-.13-7-.73a25.22,25.22,0,0,1-8.05-2.6,16.42,16.42,0,0,1-6.39-6q-2.52-4.07-1.73-11.11.41-4.12,1.2-8.79t1.73-9.51c.62-3.24,1.26-6.45,1.93-9.65s1.35-6.25,2.06-9.18q2.4-10.25,5.06-20.76L377,965.78c0,.09-.26.94-.8,2.53s-1.17,3.71-1.93,6.32-1.59,5.68-2.53,9.18S370,991,369.17,994.72s-1.51,7.59-2.13,11.45a81.29,81.29,0,0,0-1.06,11,10.36,10.36,0,0,0,1.46,3.59,2.38,2.38,0,0,0,2.53,1.06c.71-.08,1.55-.73,2.53-1.93a43.05,43.05,0,0,0,3.19-4.59q1.72-2.79,3.59-6.25c1.24-2.31,2.49-4.66,3.73-7q4.26-8.38,8.78-18.9a4.58,4.58,0,0,1,.67,1.47,6.83,6.83,0,0,1,.13,2.39A23.53,23.53,0,0,1,391.79,990.8Zm-1.33-72.39q-2.67,6.26-4.72,11.65t-4.53,12.64q-2.46,7.24-4.59,15.63l-14-6.25q2.13-8.39,3.79-16.17t2.86-13.77q1.47-7,2.4-13.31Z" transform="translate(-103.62 -14.84)"/><path d="M415.74,965.78q-2,6.39-3.46,11.58t-3.06,11.71q-1.59,6.52-2.79,13.17-.14.68-.27,1.47c-.09.53-.18,1.06-.26,1.59-.18,1.42-.32,3.06-.4,4.93a21.32,21.32,0,0,0,.4,5.39,10.88,10.88,0,0,0,1.86,4.39,4.62,4.62,0,0,0,4,1.79,6.59,6.59,0,0,0,4.13-1.59,20.76,20.76,0,0,0,3.92-4.39,47.32,47.32,0,0,0,3.73-6.59c1.19-2.53,2.33-5.26,3.39-8.18a11.62,11.62,0,0,1-5.19-3.46,18.32,18.32,0,0,1-3.19-5.66,29.3,29.3,0,0,1-1.73-7.65,30.43,30.43,0,0,1,.4-8.52,23.46,23.46,0,0,1,3.32-8.38,25.49,25.49,0,0,1,7-7.12A34.32,34.32,0,0,1,439,955.4l9.45,10.38c-1,2.75-2,5.73-3.06,8.92q-1.47,4.13-3.4,9.38c-1.28,3.51-2.73,7.21-4.32,11.11a8.31,8.31,0,0,0,3.92-.4,13.67,13.67,0,0,0,3.6-1.86,24.14,24.14,0,0,0,3.19-2.79,28,28,0,0,0,2.73-3.33,47.81,47.81,0,0,0,5.19-9.18,5.82,5.82,0,0,1,.53,2.79,17.3,17.3,0,0,1-.73,4.26,38.76,38.76,0,0,1-2.73,6.65,17.56,17.56,0,0,1-7.72,7.65,25.39,25.39,0,0,1-10.91,3.13q-2.79,6.25-5.79,12.11a97.08,97.08,0,0,1-6.12,10.44,40.24,40.24,0,0,1-6.25,7.39q-3.14,2.79-6.06,2.79a3.38,3.38,0,0,1-.6-.06,2.68,2.68,0,0,0-.59-.07l-4.13-.33a44.21,44.21,0,0,1-5.46-.8,28.38,28.38,0,0,1-5.78-1.86,16.5,16.5,0,0,1-5.06-3.46,14.13,14.13,0,0,1-3.33-5.66,20.76,20.76,0,0,1-.6-8.51q.94-8.25,2.87-18.17t3.92-18.56q2.4-10.11,4.92-20.22ZM437,965q-1.86,2.13-4.26,5.38a33.9,33.9,0,0,0-3.92,6.92,19,19,0,0,0-1.53,7.39,9.14,9.14,0,0,0,2.93,6.65q2.25-7.19,4-14.1C435.39,972.62,436.32,968.53,437,965Z" transform="translate(-103.62 -14.84)"/><path d="M455.26,1026.33a23.1,23.1,0,0,1-5.72-9.25,35,35,0,0,1-1.73-11,49.59,49.59,0,0,1,1.46-11.71,73.74,73.74,0,0,1,3.86-11.57,94.16,94.16,0,0,1,5.32-10.58,68.66,68.66,0,0,1,5.86-8.59,32.9,32.9,0,0,1,5.59-5.58c1.77-1.33,3.24-2,4.39-1.87h0a5.41,5.41,0,0,1,.93.27l.27.27c1,.44,2.35,1.11,4.12,2a58.89,58.89,0,0,1,5.46,3.13,43.54,43.54,0,0,1,5.19,3.92,12,12,0,0,1,3.32,4.53,18.1,18.1,0,0,1,2.93,9.71,36.25,36.25,0,0,1-1.46,11,56.89,56.89,0,0,1-4.39,10.78,64.67,64.67,0,0,1-5.79,9.11,32,32,0,0,1-5.72,5.92c-1.82,1.38-3.18,1.76-4.06,1.13-2.13-1.41-4.11-2.77-5.92-4.05s-3.22-2.33-4.2-3.13a27,27,0,0,0-.13,4.59,17,17,0,0,0,.8,4.33,12.32,12.32,0,0,0,2.79,5,9.58,9.58,0,0,0,4.79,2.93,10.69,10.69,0,0,0,6.19-.4,20.72,20.72,0,0,0,7.25-4.72c.18-.18.42-.44.74-.8s.64-.75,1-1.2a22.37,22.37,0,0,0,2.73-3.52c1-1.55,2.08-3.28,3.2-5.19s2.21-4,3.32-6.12,2.2-4.33,3.26-6.46q3.6-7.44,7.45-16.1a4.58,4.58,0,0,1,.67,1.47,6.6,6.6,0,0,1,.13,2.39,22.51,22.51,0,0,1-.8,3.86c-.26.89-.71,2.4-1.33,4.52s-1.35,4.57-2.19,7.32-1.82,5.66-2.93,8.72-2.26,6-3.46,8.85a78.58,78.58,0,0,1-3.73,7.72,24.28,24.28,0,0,1-3.79,5.32,9.71,9.71,0,0,1-1.73,1l-1.46.59a34.73,34.73,0,0,1-11.51,1.6,29.77,29.77,0,0,1-9.12-1.8,26.73,26.73,0,0,1-6.92-3.79A34.85,34.85,0,0,1,455.26,1026.33Zm10-18.1a41.29,41.29,0,0,0,8.85-8.51,75.38,75.38,0,0,0,6.59-10.12,71.17,71.17,0,0,0,4.52-10.11c1.15-3.28,2-6.08,2.66-8.38A54.68,54.68,0,0,0,476,983.61a101.07,101.07,0,0,0-8.38,14.64c-.27.89-.58,1.86-.94,2.93A68.62,68.62,0,0,0,465.24,1008.23Z" transform="translate(-103.62 -14.84)"/><path d="M560,983.08a4.38,4.38,0,0,1,.66,1.47,6.57,6.57,0,0,1,.14,2.39,23.53,23.53,0,0,1-.8,3.86q-.4,1.59-1.53,5.46t-2.73,8.78q-1.59,4.92-3.59,10.18T548,1024.8a40.06,40.06,0,0,1-4.39,7.18c-1.51,1.91-2.92,2.86-4.25,2.86a4.18,4.18,0,0,1-.74-.06,3.29,3.29,0,0,0-.73-.07l-4.12-.33a35.19,35.19,0,0,1-5.39-.87,31.08,31.08,0,0,1-5.72-1.93,15.46,15.46,0,0,1-5-3.46,14.27,14.27,0,0,1-3.26-5.65,19.93,19.93,0,0,1-.6-8.38q.8-6.8,2.53-15.31T520.06,982q2-8.31,3.93-15.43t3-11a3.06,3.06,0,0,0-.86-.4,3,3,0,0,1-.87-.4q-3.59,8.91-7.45,18.43t-7.19,17.5q-3.86,9.32-7.45,18.23a21.79,21.79,0,0,1-.4-7.19,47.48,47.48,0,0,1,1.2-6.78,41.38,41.38,0,0,1,2.53-7.06l14.24-35.79a17,17,0,0,1-5.46-7.12,21.42,21.42,0,0,1-1.53-8.25,28.4,28.4,0,0,1,1.33-8.18,31.28,31.28,0,0,1,3-6.86,15.41,15.41,0,0,1,3.65-4.32c1.29-1,2.38-1.2,3.26-.67a54.55,54.55,0,0,1,7.19,5.26,30,30,0,0,1,2.79,2.73,2.46,2.46,0,0,1,.67,1.46,6.66,6.66,0,0,1-.4,2.66q-.4,1.47-2.46,6.92t-5.12,13a21.87,21.87,0,0,0,4.32,5.39,34.37,34.37,0,0,0,3.92,3.13,1.27,1.27,0,0,0,.47.33,5,5,0,0,1,.47.2,45.89,45.89,0,0,0,5,2.4,23.4,23.4,0,0,0,5,1.46c0,.09-.29,1-.87,2.66s-1.29,3.93-2.13,6.72-1.79,6-2.86,9.71-2.06,7.52-3,11.51-1.75,8-2.46,12.11-1.2,7.94-1.47,11.58a14.51,14.51,0,0,0,1.33,4.46,2.35,2.35,0,0,0,2.8,1.39c.71-.08,1.55-.73,2.53-1.93a44.57,44.57,0,0,0,3.19-4.59q1.73-2.79,3.59-6.25t3.73-7Q555.46,993.6,560,983.08ZM529.64,930a19.07,19.07,0,0,0-3.33,5.59,15.65,15.65,0,0,0-.93,5.19Z" transform="translate(-103.62 -14.84)"/><path d="M708.35,903.78a29.92,29.92,0,0,1,3.92,9.71,30.54,30.54,0,0,1,.47,9.58,37.54,37.54,0,0,1-2.07,8.78,44.34,44.34,0,0,1-3.52,7.45q-7.73,13.05-15.17,20.3t-14.37,10.31a28,28,0,0,1-13.18,2.66,33.25,33.25,0,0,1-11.57-2.79q-12.51-5.6-23.42-21.56A22.22,22.22,0,0,0,643,953.94a25.58,25.58,0,0,0,7.39-.6,34.91,34.91,0,0,0,8.78-3.32,63,63,0,0,0,10.18-6.86,96.53,96.53,0,0,0,11.57-11.31,31.45,31.45,0,0,0,3.46-5,30.61,30.61,0,0,0,2.8-6.45,23.94,23.94,0,0,0,.4-5.59,20.1,20.1,0,0,0-1.07-5.19,15.13,15.13,0,0,0-3.19-5.32,3.68,3.68,0,0,0-.93-.67l.53.14a17.32,17.32,0,0,0-4.46-3.13,24.57,24.57,0,0,0-6.58-2.13,49.51,49.51,0,0,0-9.12-.73,70,70,0,0,0-12,1.2q-14.37,2.38-21.89,9a30.3,30.3,0,0,0-9.78,15.23,40.52,40.52,0,0,0-.27,18.5,79,79,0,0,0,6.39,18.9c1.51,2.83,3.15,5.61,4.92,8.31s3.6,5.44,5.46,8.18c2.4,2.93,4.74,6.13,7.05,9.59a114.53,114.53,0,0,1,5.72,10.24,53.91,53.91,0,0,1,4.39,12.38,60,60,0,0,1,1.47,11.64,62.57,62.57,0,0,1-2.93,20.56,85,85,0,0,1-3.19,8.38,74.77,74.77,0,0,1-10.25,16.5,57.7,57.7,0,0,1-8.11,6.72,53.37,53.37,0,0,1-10.05,5.39,63.82,63.82,0,0,1-12.11,3.53,76.18,76.18,0,0,1-14.3,1.26,43.25,43.25,0,0,1-18.37-3.86,35.4,35.4,0,0,1-12.57-9.85,37.74,37.74,0,0,1-6.92-13.77,45.61,45.61,0,0,1-1.46-15.5,46.24,46.24,0,0,1,3.79-15.17,38.47,38.47,0,0,1,8.78-12.64q8.38-7.85,16-10.51a38.38,38.38,0,0,1,13.44-2.53,29.34,29.34,0,0,1,12.5,2.93,78.68,78.68,0,0,0-20.22,12.24,62.72,62.72,0,0,0-7.19,7,45.9,45.9,0,0,0-6,8.65,42.24,42.24,0,0,0-3.86,10.32,35.5,35.5,0,0,0-.67,12,25.21,25.21,0,0,0,3.59,11.44,19.79,19.79,0,0,0,7.26,6.86,21.45,21.45,0,0,0,9.78,2.46,33.43,33.43,0,0,0,11-1.66,44.15,44.15,0,0,0,11.05-5.46,46,46,0,0,0,9.84-9,28.14,28.14,0,0,0,5.32-11.25,43.94,43.94,0,0,0,1-12,55,55,0,0,0-1.86-11.51,78.94,78.94,0,0,0-3.33-9.85,76.4,76.4,0,0,0-3.26-6.92c-1-1.77-1.51-2.7-1.59-2.79q-3.33-4.53-6.72-8.92t-6.72-9q-10.78-12.12-14.37-25.82a53.23,53.23,0,0,1-1.8-12.57,43.62,43.62,0,0,1,2-14,57.55,57.55,0,0,1,7.31-15,78.77,78.77,0,0,1,14.18-15.56,81.6,81.6,0,0,1,16.16-11,78.58,78.58,0,0,1,16.5-6.32A68.62,68.62,0,0,1,677,884a60.45,60.45,0,0,1,13.17,4.39,47.6,47.6,0,0,1,10.58,6.72,35,35,0,0,1,4.19,4.06A32.78,32.78,0,0,1,708.35,903.78Z" transform="translate(-103.62 -14.84)"/><path d="M735.76,1034.71l-4.13-.33a42.15,42.15,0,0,1-5.39-.8,28.89,28.89,0,0,1-5.72-1.86,15.16,15.16,0,0,1-5-3.53,15,15,0,0,1-3.26-5.65,20.08,20.08,0,0,1-.6-8.45q.41-4,1.2-8.39-1.61,4.8-3.59,10t-4.13,9.45a39.34,39.34,0,0,1-4.32,7c-1.47,1.82-2.86,2.72-4.2,2.72a7.91,7.91,0,0,1-4.45-1.46,20.09,20.09,0,0,1-4.06-3.59,37.71,37.71,0,0,1-3.4-4.53c-1-1.59-1.83-3-2.46-4.12-.08-.18-.17-.35-.26-.53l-.27-.54a1.62,1.62,0,0,1-.4-.6l-.26-.59a1.05,1.05,0,0,1-.14-.4h.14a31.92,31.92,0,0,1-2.2-13.58,59.17,59.17,0,0,1,2.53-14.57,81.3,81.3,0,0,1,5.65-13.9A78.42,78.42,0,0,1,694.17,965a36.09,36.09,0,0,1,6.92-7.19q3.25-2.4,5.13-1.33,4.65,3.06,8.58,5.85c2.61,1.87,4.67,3.33,6.18,4.4.45-1.6.8-3,1.07-4.26s.53-2.35.8-3.33.53-2,.8-2.93l18.76,9.58q0,.13-1.47,4.73t-3.32,11.57q-1.87,7-3.66,15.37a129.82,129.82,0,0,0-2.46,16,27.18,27.18,0,0,0,.46,3.26,13.28,13.28,0,0,0,.87,2.86,5,5,0,0,0,1.33,1.86,2,2,0,0,0,1.86.4c.71-.08,1.55-.73,2.53-1.93a43.05,43.05,0,0,0,3.19-4.59q1.72-2.79,3.6-6.25t3.72-7q4.26-8.38,8.78-18.9a4.58,4.58,0,0,1,.67,1.47,6.6,6.6,0,0,1,.13,2.39,22.51,22.51,0,0,1-.8,3.86q-.39,1.59-1.53,5.46t-2.72,8.78Q752,1010,750,1015.22t-4.12,9.64a37.69,37.69,0,0,1-4.39,7.19q-2.26,2.79-4.26,2.79a4.7,4.7,0,0,1-.67-.06A4.22,4.22,0,0,0,735.76,1034.71Zm-40.32-12.91c.88-.17,2-1.13,3.26-2.86a69,69,0,0,0,4.12-6.38c1.47-2.53,3-5.3,4.53-8.32s3-5.9,4.25-8.65,2.42-5.21,3.4-7.38,1.64-3.66,2-4.46c.54-2.48,1.07-4.86,1.6-7.12s1-4.41,1.46-6.45A53.63,53.63,0,0,0,708.94,981a85.29,85.29,0,0,0-8.11,12.77,94.72,94.72,0,0,0-5.59,13q-2.21,6.46-3.4,11.51a7.43,7.43,0,0,0,1.4,2.73A2.15,2.15,0,0,0,695.44,1021.8Z" transform="translate(-103.62 -14.84)"/><path d="M835.82,983.08a4.81,4.81,0,0,1,.66,1.47,6.8,6.8,0,0,1,.14,2.39,23.53,23.53,0,0,1-.8,3.86c-.27,1.06-.78,2.84-1.53,5.32s-1.65,5.3-2.66,8.45-2.16,6.44-3.4,9.85-2.55,6.59-3.92,9.51a45.33,45.33,0,0,1-4.26,7.39q-2.19,3-4.19,3.39c0,.09,0,.13.13.13-.18,0-.27,0-.27-.13a1.12,1.12,0,0,1-.53.13,7.31,7.31,0,0,1-1.73-.26q-2.79-.13-7-.73a25.14,25.14,0,0,1-8.05-2.6,16.29,16.29,0,0,1-6.39-6q-2.53-4.07-1.73-11.11.66-5.87,1.86-12.65t2.6-13.43q1.4-6.66,2.86-12.71t2.53-10.45A30.93,30.93,0,0,0,793,971a63.74,63.74,0,0,0-6.32,8.59,98.21,98.21,0,0,0-5.33,9.78Q779,994.4,777.2,999t-3.06,8.25q-1.26,3.66-1.79,5.53a55.89,55.89,0,0,0,.39,14.17q1.07,6,5.19,7.91a16.48,16.48,0,0,0-3.32-.33,44.2,44.2,0,0,1-5.46-.53,33.6,33.6,0,0,1-6.25-1.6,17.52,17.52,0,0,1-5.72-3.32,15,15,0,0,1-4-5.86,18.52,18.52,0,0,1-.79-9.11q.93-8.25,2.86-18.17t3.92-18.56q2.4-10.11,4.93-20.22,5.17,2.52,9.44,4.52l3.46,1.6c1.15.53,2.2,1,3.13,1.39l2.2.93c.53.23.79.29.79.2,0,.09-.26,1-.79,2.73l-2.13,6.85A68.42,68.42,0,0,1,788.91,964q4.46-4.59,7.52-6.06a7.82,7.82,0,0,1,5.39-.86,12.33,12.33,0,0,1,4.32,1.93l14.91,6.78c0,.09-.25.94-.74,2.53s-1.13,3.71-1.92,6.32-1.67,5.68-2.6,9.18S814,991,813.2,994.72s-1.51,7.59-2.13,11.45a83,83,0,0,0-1.07,11,10.35,10.35,0,0,0,1.47,3.59,2.37,2.37,0,0,0,2.52,1.06,4.55,4.55,0,0,0,2.53-1.93,43,43,0,0,0,3.2-4.59q1.72-2.79,3.59-6.25t3.73-7Q831.29,993.6,835.82,983.08Z" transform="translate(-103.62 -14.84)"/><path d="M531.62,870.84A428.1,428.1,0,0,1,365,48.49,428.1,428.1,0,0,1,698.22,837.2,425.39,425.39,0,0,1,531.62,870.84Zm0-814.4c-213.07,0-386.41,173.34-386.41,386.4S318.55,829.25,531.62,829.25,918,655.91,918,442.84,744.68,56.44,531.62,56.44Z" transform="translate(-103.62 -14.84)"/><path class="cls-4" d="M633.87,617.6c15.18,8.5,42.33,15.94,64.66,15.94,47.19,0,75.32-26.92,75.32-66.62,0-36.22-24.33-58.25-59.57-81.46-35.47-21.54-84.9-58.07-84.9-108.7,0-59.28,47.67-102.92,119.24-102.92,27.94,0,52.22,7.8,63,14.37l-12.37,38.32c-11.5-7-30.42-13.38-53.68-13.38-44.11,0-65,29.12-65,56.1,0,38.83,23.38,54.35,66.24,80.58C801,483.33,825,519.34,825,562.73c0,67.76-54.63,110.11-126.19,110.11-30.82,0-63.18-8.78-76-17.15Z" transform="translate(-103.62 -14.84)"/><path class="cls-5" d="M523.46,662.27,416.12,410.34h56l89.13,206.73h3.08l80.79-206.73h59L595.59,662.27Z" transform="translate(-103.62 -14.84)"/><path class="cls-6" d="M260.62,273.59c19.61-5.42,43.75-7.75,69.63-7.75,47.66,0,81.63,10.43,106.5,30.22C472,323,498,374.94,498,458.75c0,91.84-25.26,141.77-54.45,169.54-29.32,29.42-73.05,43.18-125.09,43.18-21.1,0-42.94-1.31-57.83-3.93Zm51.47,358.28a127.92,127.92,0,0,0,19.8,1.19c57.12,0,112.47-36.51,112.47-173.07,0-101.12-35.08-156.69-108-156.69a134.74,134.74,0,0,0-24.25,2.2Z" transform="translate(-103.62 -14.84)"/></g></svg>