<svg xmlns="http://www.w3.org/2000/svg" viewBox="0 0 356.59 771.3"><defs><style>.cls-1{fill:#0c0c0c;}.cls-2{fill:#212130;}.cls-3{fill:#33333d;}.cls-4{fill:#363668;}.cls-5{fill:#202046;}.cls-6{fill:#966230;}.cls-7{fill:#afafaf;}.cls-8{fill:#e9b6a3;}.cls-9{fill:#ea2683;}.cls-10{fill:#d1d1d1;}.cls-11{fill:#f2f2f2;}.cls-12{fill:#fff;}</style></defs><title>Doctora</title><g id="Capa_6" data-name="Capa 6"><path class="cls-1" d="M343.62,790l.17,5.17,22.56.31s.93-1.25,1.45-1.25l65.39.94s.21-4.27-.52-5.83Z" transform="translate(-115.52 -25.14)"/><path class="cls-2" d="M353.32,755a22.74,22.74,0,0,1-5.55,14.7c-2.64,2.89-5,10.53-4.15,20.79l89.54.83s3-21.21-31.33-25.51c-27.28-3.41-25.22-6.09-25.78-12.19Z" transform="translate(-115.52 -25.14)"/><path class="cls-3" d="M415,769.67c.81-.1-10.19,3.32-10.81,16.08C404.19,785.75,402.87,771.19,415,769.67Z" transform="translate(-115.52 -25.14)"/><path class="cls-3" d="M411.74,768.42c.81-.1-10.18,3.33-10.81,16.08C400.93,784.5,399.62,769.94,411.74,768.42Z" transform="translate(-115.52 -25.14)"/><path class="cls-1" d="M238.06,791l-.17,5.17-22.56.31s-.94-1.25-1.46-1.25l-65.39.94s-.21-4.27.52-5.83Z" transform="translate(-115.52 -25.14)"/><path class="cls-2" d="M228.36,756a22.76,22.76,0,0,0,5.54,14.7c2.64,2.89,5,10.53,4.16,20.79l-89.55.83s-3-21.21,31.33-25.51c27.28-3.41,25.23-6.09,25.78-12.19Z" transform="translate(-115.52 -25.14)"/><path class="cls-3" d="M166.67,770.67a18.41,18.41,0,0,1,10.82,16.08S178.8,772.19,166.67,770.67Z" transform="translate(-115.52 -25.14)"/><path class="cls-3" d="M169.93,769.42a18.41,18.41,0,0,1,10.81,16.08S182.06,770.94,169.93,769.42Z" transform="translate(-115.52 -25.14)"/></g><g id="Capa_4" data-name="Capa 4"><polygon class="cls-4" points="247.93 735.51 232.93 735.76 172.43 483.51 193.43 477.51 247.93 735.51"/><path class="cls-4" d="M205.1,762.66l-7.46.06s-14-213.4-11-237.73L207,529.66Z" transform="translate(-115.52 -25.14)"/><path class="cls-5" d="M284.79,419.76l4.67,83.68,68.26,257.22h29.92s19.64-296.48,2.8-347.1Z" transform="translate(-115.52 -25.14)"/><path class="cls-5" d="M305.26,421.76l-4.67,83.68L232.33,762.66H202.41s-19.64-296.48-2.81-347.1Z" transform="translate(-115.52 -25.14)"/></g><g id="Capa_3" data-name="Capa 3"><path class="cls-6" d="M378.45,207.16a233.16,233.16,0,0,1-12.5-63.5c-2-36-1.67-91.89-28-105.34-15.5-7.91-31.66-13.47-48.25-13.16A79.69,79.69,0,0,0,246,38.82c-24.6,16.4-25,69.34-27,105.34a233.16,233.16,0,0,1-12.5,63.5l85.49,42Z" transform="translate(-115.52 -25.14)"/><ellipse class="cls-7" cx="176.71" cy="187.26" rx="20.53" ry="15.56"/><path class="cls-8" d="M350,126.12a6.9,6.9,0,0,0-4.58,1c0-.11,0-.22,0-.33,0-34.9-22.71-63.26-50.94-64a.06.06,0,0,0,0,0l-.53,0-.54,0v0c-28.23.7-50.94,29.06-50.94,64,0,.11,0,.22,0,.33a6.9,6.9,0,0,0-4.58-1c-4.75.7-7.8,6.74-6.81,13.47s5.65,11.64,10.41,10.94a6.82,6.82,0,0,0,4-2.2c6.07,20.92,20.72,40.13,38.74,45.51v12c-6.11,2.63-24.95,8.23-24.95,14.58,0,8.9,22.9,16,33.12,16s32.75-7.1,32.75-16c0-6.52-18.7-12.25-25.08-14.79V193.89c10.85-3.25,32.14-13.55,42.31-45.56a6.85,6.85,0,0,0,4,2.2c4.76.7,9.42-4.2,10.41-10.94S354.78,126.82,350,126.12Z" transform="translate(-115.52 -25.14)"/><path class="cls-6" d="M358.83,143s-.75-6-11-8.87-22.25-1.25-29.13-24-29.25-11.88-36.5-23.75c0,0,1.08,16.91-11.58,23.58s-17.67,14-20,20.67S234.28,147,224.28,146.32l17-46.66s16.34-25.34,21-27.34,29.67-14,32.34-14S327,72,331.62,77s16.66,22.33,18,25.67S357.7,130.41,358.83,143Z" transform="translate(-115.52 -25.14)"/><path class="cls-9" d="M328,221.89l5.31-1.57,12.26,219.43-105-1.5,9-219,7.8,2.37A123.22,123.22,0,0,0,328,221.89Z" transform="translate(-115.52 -25.14)"/><path class="cls-10" d="M400.62,555.16c.45,0,10.28-.57,10.28-.57L387.24,264.06l3.64-28.68-5.76-1.9s-10.61,17.85-6.82,33.24S400.62,555.16,400.62,555.16Z" transform="translate(-115.52 -25.14)"/><path class="cls-11" d="M311.55,251.41c.54,1.77-11.79,307.77-11.79,307.77L403,555,380.94,265.75s-1.13-27.44,8.93-31.79L318.7,212.14Z" transform="translate(-115.52 -25.14)"/><path class="cls-8" d="M436,487.32c1.35.58,28,24.52,34.61,41.4,4.94,14.2-3.23,15.14-14.06-2.92-4.86-8.11-6.59.74-5.63,7.05,1.18,7.75,5.74,16.88,4.77,19.12-1.74,4.06-4.78,4.07-7.32-.33s-6.55-19.9-8.73-19.9-3.62,15.08-5.49,19.85-3.79,10.53-7.39,5.95.73-15.09,1.65-20.74-.38-9.12-2.72-5.87-9.83,22.31-13.95,20.91-5.48-4.15,1.23-16.46,8.8-18.5,6.74-19.19-6.23,3-11,3.28c-3.57.22-11.33.33-11.83-5.19-.34-3.63,23.83-8.44,27.31-20.92Z" transform="translate(-115.52 -25.14)"/><path class="cls-10" d="M307.7,202.16s13.13,22.66-10.77,32.69l3,324.81L316.75,253l15.88-11.66-15.34-13.16,15.7-3.08Z" transform="translate(-115.52 -25.14)"/><path class="cls-11" d="M389.62,234s17.79,3,37.45,91.66C447.29,416.8,453,489.75,453,489.75L406.05,506,382.39,265.58h0a82.08,82.08,0,0,1,5.84-30.81Z" transform="translate(-115.52 -25.14)"/><path class="cls-10" d="M183.89,555.16c-.46,0-9.89-.57-9.89-.57l23.66-290.53L194,235.38l5.76-1.9s10.62,17.85,6.83,33.24S183.89,555.16,183.89,555.16Z" transform="translate(-115.52 -25.14)"/><path class="cls-11" d="M273.35,251.41c-.54,1.77,11.8,307.77,11.8,307.77L181.89,555,204,265.75S205.09,238.31,195,234l71.16-21.82Z" transform="translate(-115.52 -25.14)"/><path class="cls-8" d="M151.61,489c-1.36.59-28,24.52-34.62,41.4-4.93,14.21,3.23,15.15,14.07-2.92,4.86-8.11,6.59.74,5.63,7.06-1.19,7.75-5.74,16.88-4.78,19.12,1.75,4.06,4.78,4.06,7.33-.34s6.55-19.9,8.72-19.89,3.63,15.08,5.49,19.85,3.8,10.52,7.4,6-.73-15.09-1.65-20.74.37-9.12,2.71-5.88,9.83,22.32,14,20.92,5.49-4.15-1.22-16.46-8.81-18.5-6.75-19.2,6.24,3,11,3.28c3.57.23,11.33.33,11.84-5.18.33-3.63-23.83-8.45-27.31-20.92Z" transform="translate(-115.52 -25.14)"/><path class="cls-10" d="M276.7,202.16S264.07,224.82,288,234.85l-3,324.81L268.15,253l-15.88-11.66,15.34-13.16-15.7-3.08Z" transform="translate(-115.52 -25.14)"/><path class="cls-11" d="M195.28,234s-17.79,3-37.45,91.66C137.61,416.8,132,489.75,132,489.75L178.86,506l23.65-240.38h0a81.89,81.89,0,0,0-5.84-30.81Z" transform="translate(-115.52 -25.14)"/><path class="cls-10" d="M268.28,449.32s-44.66.34-62.33-6.33l-1.33,12s50,7,64,5.33Z" transform="translate(-115.52 -25.14)"/><path class="cls-10" d="M320.62,451s44.66.33,62.33-6.33l1.33,12s-50,7-64,5.33Z" transform="translate(-115.52 -25.14)"/><path class="cls-12" d="M304.42,143.94c-.61-.25-2.19-9.31.94-15.6,0,0,3.09-5.37,3.28-5.62a16.73,16.73,0,0,1,3.12-2.38,14.56,14.56,0,0,1,2.44.13c.25.12,2.38,1.25,2.81,1.56s2.38,1.31,2.69,2.13,1.5,2.43,2.25,3.75,1.81,2.12,2,3.25a40.53,40.53,0,0,1,.81,4.37c.07,1.31.32,4.13.32,4.88s-.44,3.43-.44,3.43-6.81.75-8.44.75S307,145,304.42,143.94Z" transform="translate(-115.52 -25.14)"/><path d="M304.33,131.16a26.05,26.05,0,0,1,1.73-5.18,14.7,14.7,0,0,1,3.14-4.61,7.13,7.13,0,0,1,2.51-1.57,5.68,5.68,0,0,1,3.06-.14,10.39,10.39,0,0,1,4.94,3,22.1,22.1,0,0,1,5.62,9.69,24,24,0,0,1,.8,5.58,20.94,20.94,0,0,1-.56,5.65l-.13.55-.55.1c-1.7.32-3.37.54-5.06.69s-3.38.23-5.07.23a47.54,47.54,0,0,1-5.07-.23,39.9,39.9,0,0,1-5-.81c1.68.09,3.35.15,5,.11s3.33-.12,5-.27,3.31-.33,4.95-.58,3.28-.54,4.86-.89l-.68.65a23.28,23.28,0,0,0-.43-10.26,21.4,21.4,0,0,0-5-9,9.58,9.58,0,0,0-4-2.81,4.86,4.86,0,0,0-4.45,1.12,15,15,0,0,0-3.29,4A32,32,0,0,0,304.33,131.16Z" transform="translate(-115.52 -25.14)"/><ellipse cx="196.43" cy="113.76" rx="5" ry="6"/><path class="cls-6" d="M301.78,119.16a10.25,10.25,0,0,1,3-4,11.46,11.46,0,0,1,4.63-2.33,9.12,9.12,0,0,1,5.3.28,8.14,8.14,0,0,1,4,3.08,27.94,27.94,0,0,0-4.56-.78,13.44,13.44,0,0,0-4.11.34,23.85,23.85,0,0,0-4.06,1.4C304.68,117.72,303.3,118.41,301.78,119.16Z" transform="translate(-115.52 -25.14)"/><path class="cls-12" d="M279.54,143.94c.61-.25,2.19-9.31-.94-15.6,0,0-3.09-5.37-3.28-5.62a16.73,16.73,0,0,0-3.12-2.38,14.56,14.56,0,0,0-2.44.13c-.25.12-2.38,1.25-2.81,1.56s-2.38,1.31-2.69,2.13-1.5,2.43-2.25,3.75-1.81,2.12-2,3.25a40.53,40.53,0,0,0-.81,4.37c-.07,1.31-.32,4.13-.32,4.88s.44,3.43.44,3.43,6.81.75,8.44.75S277,145,279.54,143.94Z" transform="translate(-115.52 -25.14)"/><path d="M279.63,131.16a32,32,0,0,0-2.34-4.86,15.22,15.22,0,0,0-3.29-4,4.87,4.87,0,0,0-4.45-1.12,9.46,9.46,0,0,0-4,2.81,21.4,21.4,0,0,0-5,9,23.13,23.13,0,0,0-.43,10.26l-.68-.65c1.58.35,3.23.63,4.86.89s3.29.43,4.95.58,3.31.24,5,.27,3.34,0,5-.11a39.9,39.9,0,0,1-5,.81,47.66,47.66,0,0,1-5.07.23c-1.69,0-3.38-.08-5.07-.23s-3.36-.37-5.06-.69l-.55-.1-.13-.55a20.94,20.94,0,0,1-.56-5.65,23.49,23.49,0,0,1,.8-5.58,21.91,21.91,0,0,1,5.62-9.69,10.39,10.39,0,0,1,4.94-3,5.68,5.68,0,0,1,3.06.14,7.13,7.13,0,0,1,2.51,1.57A14.7,14.7,0,0,1,277.9,126,26.05,26.05,0,0,1,279.63,131.16Z" transform="translate(-115.52 -25.14)"/><ellipse cx="156.49" cy="113.76" rx="5" ry="6"/><path class="cls-6" d="M282.17,119.16c-1.51-.75-2.9-1.44-4.27-2a23.75,23.75,0,0,0-4-1.4,13.47,13.47,0,0,0-4.11-.34,28.23,28.23,0,0,0-4.57.78,8.21,8.21,0,0,1,4.06-3.08,9.12,9.12,0,0,1,5.3-.28,11.46,11.46,0,0,1,4.63,2.33A10.13,10.13,0,0,1,282.17,119.16Z" transform="translate(-115.52 -25.14)"/><path class="cls-12" d="M271.62,165.32s22.66,7.67,40-.66c0,0-7,14.75-20.29,14.75S271.62,165.32,271.62,165.32Z" transform="translate(-115.52 -25.14)"/></g></svg>