<?xml version="1.0" encoding="utf-8"?>
<!-- Generator: Adobe Illustrator 22.0.0, SVG Export Plug-In . SVG Version: 6.00 Build 0)  -->
<svg version="1.1" id="Layer_1" xmlns="http://www.w3.org/2000/svg" xmlns:xlink="http://www.w3.org/1999/xlink" x="0px" y="0px"
	 viewBox="0 0 141.7 141.7" style="enable-background:new 0 0 141.7 141.7;" xml:space="preserve">
<style type="text/css">
	.st0{fill:#EAD4BB;}
	.st1{fill:#7EA81A;}
	.st2{fill:#94322F;}
	.st3{fill:#E0413B;}
	.st4{fill:#DDA650;}
	.st5{fill:#F8CB7C;}
	.st6{fill:#FDEAC9;}
	.st7{fill:#E5A03B;}
	.st8{fill:#EFDCCA;}
</style>
<g>
	<path class="st0" d="M94.4,114.5c0,0-65.6-2.1-74.4-8.9C11.3,98.9,51.4,43,51.4,43s11.6-9.7,19.3-9.4
		C78.5,33.9,106.5,103.3,94.4,114.5z"/>
	<path class="st1" d="M91.2,37.5c0,0,6.7-13,15.1-8.3c8.4,4.7,2.2,10.3,9.3,15.3c7.1,5,11.7-2.1,16.4,7.6s-9.4,11-7,17.1
		c2.5,6.2,10.1,2.4,7.4,14.9c-2.7,12.5-23.2,10.4-23.2,10.4L88.1,59.1L91.2,37.5z"/>
	<path class="st2" d="M93.9,35.4c0,0,10-1.6,9.2,2.2c-0.8,3.8-5.2,6.3-5.2,6.3s4.4-0.7,4.2,3.9c-0.2,4.6-4.8,4.4-4.8,4.4
		s5.2,2.8,3,6.5c-2.2,3.7-12.1,0.4-12.1,0.4L93.9,35.4z"/>
	<path class="st2" d="M115.1,87.1c0,0,9.4-0.6,7.4-6.4c-1.9-5.8-5.9-5.3-5.9-5.3s3.9-6,0.8-9.3c-3.1-3.3-7-0.9-7-0.9s4.6-7-1.9-7.7
		c-6.5-0.6-8.4,8-8.4,8L115.1,87.1z"/>
	<path class="st3" d="M107.2,41.6l-9.6,21c0,0,11.2,10.3,15.1-1.1C116.6,50.1,107.2,41.6,107.2,41.6z"/>
	<path class="st4" d="M88.1,59.1c0,0,12.9-22.3,4.2-28.2S12.8,65.4,11,70.9C9.2,76.3,13.9,86,13.9,86L88.1,59.1z"/>
	<path class="st5" d="M10.6,78.8c1-2.1,52.1-32,65.9-34.8c13.8-2.8,48.3,40.3,40,54.1c-8.3,13.8-88.5,11.4-96.4,7.5
		S7.1,86.2,10.6,78.8z"/>
	<path class="st6" d="M105.6,47.9c0,0,0-0.1,0-0.1c0-0.4-0.3-1-0.4-1.4c-0.3-0.9-0.6-1.8-1.1-2.7c-1-1.9-2.7-3.2-4.9-2.8
		c-0.8,0.1-0.9,1.1-0.5,1.6c1.4,1.7,1.2,2.4,1,4.5c-0.2,1.7,0,3.9,1.5,5.1C104.2,54.6,108.2,50.8,105.6,47.9z"/>
	<path class="st6" d="M121.7,73.4c-0.2-1.9-1.2-4.4-3.3-5.2c0-0.1,0-0.1,0.1-0.2c0.5-1,0.4-2.4,0.2-3.5c-0.5-4.3-2.7-7-7-7.5
		c-2.7-0.4-3.3,4.1-0.7,4.7c2.1,0.6-0.5,4.9-0.6,6.3c-0.1,1.8,0.5,3.4,1.5,4.8c0.3,0.4,0.7,0.8,1.1,1.2c0.3,0.3,0.7,0.5,1,0.8
		C115.3,78.5,122.1,77.6,121.7,73.4z"/>
	<path class="st6" d="M114.9,51.9c0.5-1.3,0.2-3.2-1.2-3.9c-0.1,0-0.1,0-0.2-0.1c-0.3-0.2-0.7-0.3-1.1-0.4c-1.2-0.4-2.7,0.2-3.3,1.3
		c-0.6,1.2-0.5,2.6,0.4,3.6c0.5,0.5,1,1.1,1.8,1.2C112.7,53.9,114.2,53.4,114.9,51.9z"/>
	<path class="st7" d="M80.1,57.7c0.5-1.9-0.3-4.1-2-5.1c-1.6-0.9-3.5-0.9-5.3-0.6c-3.5,0.7-7.4,3.2-7,7.2c0.3,2.8,2.4,3.9,4.7,3.8
		c0.3,0.1,0.7,0.1,1,0.1C74.9,63.3,79.2,61.1,80.1,57.7z"/>
	<path class="st7" d="M96.8,72.6c0.7-0.9,0.7-2,0.2-3.1c-0.6-1.3-1.6-2.3-3-2.7c-0.5-0.2-1.1-0.3-1.6-0.3c-1.1-0.1-1.9,0.3-2.8,0.9
		c-1.3,1.1-1,3.8,0.5,4.5c0.3,0.1,0.5,0.2,0.7,0.3c0.1,0.1,0.2,0.2,0.3,0.3c0.8,0.6,1.7,0.9,2.6,1.1C95,73.9,96.1,73.6,96.8,72.6z"
		/>
	<path class="st7" d="M54.6,87.4c2.4-1.3,3.1-4.1,2.4-6.5c-1.5-4.6-8.9-6.8-12.1-3.3c-0.3,0.1-0.5,0.2-0.8,0.3
		c-2.1,1.2-2.4,3.7-1.3,5.7c1.1,2,2.9,3.5,5.1,4.2C50,88.4,52.6,88.5,54.6,87.4z"/>
	<path class="st7" d="M69.4,80.4c0.3-0.1-0.4,0.1-0.5,0.2l0,0c0.9-0.3,1.7-0.9,2.1-1.7c0.9-2-0.6-4.2-2.7-4.3
		c-0.9,0-1.7,0.2-2.4,0.6c-1.1,0.6-1.8,2.1-1.4,3.4c0.4,1.2,1.5,2.4,2.9,2.3c0.4,0,0.9,0,1.3-0.1C68.8,80.7,69.1,80.5,69.4,80.4z"/>
	<path class="st7" d="M51.8,66.5c-0.2-0.7-0.6-1.1-1.1-1.4c-0.3-0.5-0.9-0.9-1.5-0.7c-0.5,0.1-1,0.1-1.4,0.4c-0.7,0.4-1,1.1-1.1,1.8
		c-0.2,1.3,0.5,2.5,1.9,2.6c0.1,0,0.3,0,0.4,0c0.2,0.1,0.4,0.1,0.6,0.1c0,0,0,0,0,0C51,69.2,52.1,68,51.8,66.5z"/>
	<path class="st7" d="M37,85.7c0-3.8-4.4-7.3-8.1-5.5c-1,0.5-1.6,1.6-1.6,2.7c-0.3,1-0.4,2-0.1,3.1c0.4,1.5,1.3,3,2.6,3.9
		C32.9,92.2,37,89.4,37,85.7z"/>
	<path class="st7" d="M98.2,101.1c1.8-0.7,3.5-1.9,4.1-3.9c0.6-2.2-0.4-4.8-2.2-6.1c-3.4-2.3-9.8-1.4-13.1,0.9
		c-0.9,0.6-1.5,1.5-1.6,2.5c-1.8,2.1-1.9,5.2,1.3,6.8C90.1,102.9,94.8,102.5,98.2,101.1z"/>
	<path class="st7" d="M77.9,98.3c0.1-0.3,0.2-0.7,0.2-1c0.2-0.5,0.2-1.1,0-1.7c-0.6-2.5-3.3-2.9-5-1.8c-1.3,0.3-2.3,1.1-2.4,2.7
		c-0.1,2.5,2.3,3.8,4.5,3.9C76.4,100.3,77.5,99.4,77.9,98.3z"/>
	<g>
		<path class="st7" d="M85.7,85.2c1.1-0.2,1.9-1.3,2.1-2.3c0.2-1.1-0.3-2-1.2-2.7c-0.3-0.3-0.8-0.6-1.2-0.8
			c-0.4-0.1-0.7-0.1-1.1-0.1c-0.2,0-0.4,0-0.6,0.1c0.1,0,0.2,0,0.2,0c0,0,0,0,0,0c-0.1,0-0.2,0-0.2,0c-0.1,0-0.3,0.1-0.4,0.1
			c0.1-0.1,0.2-0.1,0.3-0.1c-0.1,0-0.2,0-0.3,0c-0.4,0.1-0.8,0.3-1.1,0.6c-0.8,0.9-0.9,2.2-0.3,3.3c0.1,0.1,0.2,0.3,0.3,0.4
			c0.3,0.5,0.7,0.8,1.2,1.1C84.1,85.4,84.8,85.3,85.7,85.2z"/>
		<path class="st7" d="M83.7,79.5C83.6,79.5,83.6,79.5,83.7,79.5C83.6,79.5,83.6,79.5,83.7,79.5C83.6,79.5,83.6,79.5,83.7,79.5z"/>
	</g>
	<path class="st7" d="M50.6,104c2.3-2.5,0.8-6.1-1-8.3c-2.4-3-7.4-4.7-10-1c-0.7,0.9-0.5,2.2,0.1,3.2c-0.6,1.7-0.2,3.7,1.3,5.1
		C43.3,105.3,48.1,106.6,50.6,104z"/>
	<path class="st7" d="M27.4,100.4c1.7-1,1.9-3.2,0.6-4.6c0,0,0,0-0.1-0.1c-0.8-0.9-2.5-1.2-3.5-0.5c-1,0.6-1.9,2.1-1.4,3.3
		c0,0,0,0.1,0,0.1c0.4,1,0.9,1.8,2,2.1C25.9,100.9,26.7,100.8,27.4,100.4z"/>
	<path class="st0" d="M109.3,94.4c4.8-10.5-24-12.5-42.5-6.9c-18.5,5.6-36,13.2-40,4.7c-4-8.5-4.9-14.1-9.9-10.6s-0.4,18.2,5.9,21.6
		C29.1,106.6,104.6,104.7,109.3,94.4z"/>
	<path class="st8" d="M51.4,43c0,0-9.4,64.8-13.7,65.9c-4.3,1.1-20-0.4-24.3-4.7C9.2,99.8,5.3,80.5,11,70.9
		C14.1,65.6,51.4,43,51.4,43z"/>
</g>
</svg>
