<svg xmlns="http://www.w3.org/2000/svg" xmlns:xlink="http://www.w3.org/1999/xlink" viewBox="0 0 1280 798.98"><defs><style>.cls-1{isolation:isolate;}.cls-2{fill:#d3d4d8;}.cls-3{opacity:0.8;}.cls-4{fill:#90aea8;}.cls-5{fill:#b5d8bb;}.cls-6{fill:#ececec;}.cls-26,.cls-7{fill:#fff;}.cls-8{fill:#64a74a;}.cls-9{fill:#7a4d05;}.cls-10{fill:#a06920;}.cls-11{fill:#b1b1b1;}.cls-12{fill:#3c3c3b;}.cls-13{fill:#c6c6c5;}.cls-14{fill:#31a6c9;}.cls-15{fill:#54b9d1;}.cls-16{fill:#575756;}.cls-17{fill:#868686;}.cls-18{fill:#c6701a;}.cls-19{fill:#e58128;}.cls-20{fill:#d9d9d9;}.cls-21{fill:#5b3f09;}.cls-22{fill:url(#linear-gradient);}.cls-23{fill:#d1eef5;}.cls-24{fill:#ff9600;}.cls-25{fill:#e6f5f9;opacity:0.14;}.cls-26{opacity:0.25;}.cls-27{fill:#492101;}.cls-28,.cls-30{fill:#c2ca27;}.cls-29{fill:#dddd45;}.cls-30{opacity:0.7;}.cls-30,.cls-41,.cls-48,.cls-54,.cls-57,.cls-59,.cls-65,.cls-67,.cls-68,.cls-74,.cls-80{mix-blend-mode:multiply;}.cls-31{fill:#66ae24;}.cls-32{fill:#f1a848;}.cls-33{fill:#f7c56b;}.cls-34{fill:#e38238;}.cls-35{fill:#e89c49;}.cls-36{fill:#b36124;}.cls-37{fill:#d3712f;}.cls-38{fill:#e89842;}.cls-39,.cls-79{mix-blend-mode:screen;}.cls-40{fill:#240d00;}.cls-42{fill:#faf2f2;}.cls-43{fill:#07a1c7;}.cls-44{fill:#28aecf;}.cls-45,.cls-58{fill:#f2f2f2;}.cls-46{fill:#5ac1da;}.cls-47{opacity:0.46;}.cls-48{fill:#8d999c;opacity:0.37;}.cls-49{fill:#9dd5e9;stroke:#7c7c7c;stroke-miterlimit:10;}.cls-50{fill:#3f5ffc;}.cls-51{fill:#abb9ed;}.cls-52{fill:#607eea;}.cls-53{fill:#c0e7f1;}.cls-54{opacity:0.55;}.cls-55{fill:#6b7072;}.cls-56{fill:#349980;}.cls-57{fill:#c1a98a;opacity:0.52;}.cls-58{opacity:0.28;}.cls-59{opacity:0.33;}.cls-60{fill:#81878a;}.cls-61{fill:#bbaba7;}.cls-62{fill:#fecc75;}.cls-63{fill:#fdbb65;}.cls-64{fill:#e1a65a;}.cls-65{opacity:0.47;}.cls-66{fill:#d3b9af;}.cls-67{opacity:0.57;}.cls-68{opacity:0.51;}.cls-69{opacity:0.75;}.cls-70{fill:#fee391;}.cls-71{fill:#fecc67;}.cls-72{fill:#febb56;}.cls-73{fill:#e2a635;}.cls-74{opacity:0.59;}.cls-75{fill:#8f8984;}.cls-76{fill:#695201;}.cls-77{fill:#63b320;}.cls-78,.cls-79,.cls-80{fill:#ff8700;}.cls-80{opacity:0.6;}.cls-81{fill:#bf8443;}.cls-82{fill:#fff45f;}.cls-83{fill:#c4c4c4;}</style><linearGradient id="linear-gradient" y1="637.33" x2="1279.83" y2="637.33" gradientUnits="userSpaceOnUse"><stop offset="0.01" stop-color="#3b2b16"/><stop offset="1" stop-color="#51390d"/></linearGradient></defs><title>Fondo</title><g class="cls-1"><g id="Background"><rect class="cls-2" width="1280" height="798.98"/><g class="cls-3"><rect class="cls-4" x="1150.95" y="718.47" width="111.1" height="69.35"/><rect class="cls-5" x="1025.02" y="718.47" width="111.1" height="69.35"/><rect class="cls-4" x="899.08" y="718.47" width="111.1" height="69.35"/><rect class="cls-5" x="773.15" y="718.47" width="111.1" height="69.35"/><rect class="cls-4" x="646.19" y="718.47" width="111.1" height="69.35"/><rect class="cls-5" x="520.26" y="718.47" width="111.1" height="69.35"/><rect class="cls-4" x="394.32" y="718.47" width="111.1" height="69.35"/><rect class="cls-5" x="268.39" y="718.47" width="111.1" height="69.35"/><rect class="cls-4" x="142.45" y="718.47" width="111.1" height="69.35"/><rect class="cls-5" x="16.52" y="718.47" width="111.1" height="69.35"/><rect class="cls-4" x="16.52" y="639.69" width="111.1" height="69.34"/><rect class="cls-5" x="142.45" y="639.69" width="111.1" height="69.34"/><rect class="cls-4" x="268.39" y="639.69" width="111.1" height="69.34"/><rect class="cls-5" x="394.32" y="639.69" width="111.1" height="69.34"/><rect class="cls-4" x="520.26" y="639.69" width="111.1" height="69.34"/><rect class="cls-4" x="773.15" y="639.69" width="111.1" height="69.34"/><rect class="cls-5" x="899.08" y="639.69" width="111.1" height="69.34"/><rect class="cls-5" x="646.19" y="639.69" width="111.1" height="69.34"/><rect class="cls-4" x="1025.02" y="639.69" width="111.1" height="69.34"/><rect class="cls-5" x="1150.95" y="641.14" width="111.1" height="69.34"/><rect class="cls-4" x="1150.95" y="560.8" width="111.1" height="69.35"/><rect class="cls-5" x="1025.02" y="560.8" width="111.1" height="69.35"/><rect class="cls-4" x="899.08" y="560.8" width="111.1" height="69.35"/><rect class="cls-5" x="773.15" y="560.8" width="111.1" height="69.35"/><rect class="cls-4" x="646.19" y="560.8" width="111.1" height="69.35"/><rect class="cls-5" x="520.26" y="560.8" width="111.1" height="69.35"/><rect class="cls-4" x="394.32" y="560.8" width="111.1" height="69.35"/><rect class="cls-5" x="268.39" y="560.8" width="111.1" height="69.35"/><rect class="cls-4" x="142.45" y="560.8" width="111.1" height="69.35"/><rect class="cls-5" x="16.52" y="560.8" width="111.1" height="69.35"/><rect class="cls-4" x="16.52" y="482.01" width="111.1" height="69.34"/><rect class="cls-5" x="142.45" y="482.01" width="111.1" height="69.34"/><rect class="cls-4" x="268.39" y="482.01" width="111.1" height="69.34"/><rect class="cls-5" x="394.32" y="482.01" width="111.1" height="69.34"/><rect class="cls-4" x="520.26" y="482.01" width="111.1" height="69.34"/><rect class="cls-4" x="773.15" y="482.01" width="111.1" height="69.34"/><rect class="cls-5" x="899.08" y="482.01" width="111.1" height="69.34"/><rect class="cls-5" x="646.19" y="482.01" width="111.1" height="69.34"/><rect class="cls-4" x="1025.02" y="482.01" width="111.1" height="69.34"/><rect class="cls-5" x="1150.95" y="483.47" width="111.1" height="69.34"/><rect class="cls-4" x="1150.95" y="403.13" width="111.1" height="69.35"/><rect class="cls-5" x="1025.02" y="403.13" width="111.1" height="69.35"/><rect class="cls-4" x="899.08" y="403.13" width="111.1" height="69.35"/><rect class="cls-5" x="773.15" y="403.13" width="111.1" height="69.35"/><rect class="cls-4" x="646.19" y="403.13" width="111.1" height="69.35"/><rect class="cls-5" x="520.26" y="403.13" width="111.1" height="69.35"/><rect class="cls-4" x="394.32" y="403.13" width="111.1" height="69.35"/><rect class="cls-5" x="268.39" y="403.13" width="111.1" height="69.35"/><rect class="cls-4" x="142.45" y="403.13" width="111.1" height="69.35"/><rect class="cls-5" x="16.52" y="403.13" width="111.1" height="69.35"/><rect class="cls-4" x="16.52" y="324.34" width="111.1" height="69.34"/><rect class="cls-5" x="142.45" y="324.34" width="111.1" height="69.34"/><rect class="cls-4" x="268.39" y="324.34" width="111.1" height="69.34"/><rect class="cls-5" x="394.32" y="324.34" width="111.1" height="69.34"/><rect class="cls-4" x="520.26" y="324.34" width="111.1" height="69.34"/><rect class="cls-4" x="773.15" y="324.34" width="111.1" height="69.34"/><rect class="cls-5" x="899.08" y="324.34" width="111.1" height="69.34"/><rect class="cls-5" x="646.19" y="324.34" width="111.1" height="69.34"/><rect class="cls-4" x="1025.02" y="324.34" width="111.1" height="69.34"/><rect class="cls-5" x="1150.95" y="325.8" width="111.1" height="69.34"/><rect class="cls-4" x="1150.95" y="245.46" width="111.1" height="69.35"/><rect class="cls-5" x="1025.02" y="245.46" width="111.1" height="69.35"/><rect class="cls-4" x="899.08" y="245.46" width="111.1" height="69.35"/><rect class="cls-5" x="773.15" y="245.46" width="111.1" height="69.35"/><rect class="cls-4" x="646.19" y="245.46" width="111.1" height="69.35"/><rect class="cls-5" x="520.26" y="245.46" width="111.1" height="69.35"/><rect class="cls-4" x="394.32" y="245.46" width="111.1" height="69.35"/><rect class="cls-5" x="268.39" y="245.46" width="111.1" height="69.35"/><rect class="cls-4" x="142.45" y="245.46" width="111.1" height="69.35"/><rect class="cls-5" x="16.52" y="245.46" width="111.1" height="69.35"/><rect class="cls-4" x="16.52" y="166.67" width="111.1" height="69.34"/><rect class="cls-5" x="142.45" y="166.67" width="111.1" height="69.34"/><rect class="cls-4" x="268.39" y="166.67" width="111.1" height="69.34"/><rect class="cls-5" x="394.32" y="166.67" width="111.1" height="69.34"/><rect class="cls-4" x="520.26" y="166.67" width="111.1" height="69.34"/><rect class="cls-4" x="773.15" y="166.67" width="111.1" height="69.34"/><rect class="cls-5" x="899.08" y="166.67" width="111.1" height="69.34"/><rect class="cls-5" x="646.19" y="166.67" width="111.1" height="69.34"/><rect class="cls-4" x="1025.02" y="166.67" width="111.1" height="69.34"/><rect class="cls-5" x="1150.95" y="168.13" width="111.1" height="69.34"/><rect class="cls-4" x="1150.95" y="87.79" width="111.1" height="69.35"/><rect class="cls-5" x="1025.02" y="87.79" width="111.1" height="69.35"/><rect class="cls-4" x="899.08" y="87.79" width="111.1" height="69.35"/><rect class="cls-5" x="773.15" y="87.79" width="111.1" height="69.35"/><rect class="cls-4" x="646.19" y="87.79" width="111.1" height="69.35"/><rect class="cls-5" x="520.26" y="87.79" width="111.1" height="69.35"/><rect class="cls-4" x="394.32" y="87.79" width="111.1" height="69.35"/><rect class="cls-5" x="268.39" y="87.79" width="111.1" height="69.35"/><rect class="cls-4" x="142.45" y="87.79" width="111.1" height="69.35"/><rect class="cls-5" x="16.52" y="87.79" width="111.1" height="69.35"/><rect class="cls-4" x="16.52" y="9" width="111.1" height="69.34"/><rect class="cls-5" x="142.45" y="9" width="111.1" height="69.34"/><rect class="cls-4" x="268.39" y="9" width="111.1" height="69.34"/><rect class="cls-5" x="394.32" y="9" width="111.1" height="69.34"/><rect class="cls-4" x="520.26" y="9" width="111.1" height="69.34"/><rect class="cls-4" x="773.15" y="9" width="111.1" height="69.34"/><rect class="cls-5" x="899.08" y="9" width="111.1" height="69.34"/><rect class="cls-5" x="646.19" y="9" width="111.1" height="69.34"/><rect class="cls-4" x="1025.02" y="9" width="111.1" height="69.34"/><rect class="cls-5" x="1150.95" y="10.46" width="111.1" height="69.34"/></g></g><g id="mesa"><g id="cocina"><rect class="cls-6" x="705.57" y="621.63" width="267.72" height="48.47"/><rect class="cls-7" x="705.57" y="364.4" width="267.72" height="281.47"/><path class="cls-8" d="M880.86,336.13c0,3.46,3.1,6.27,6.94,6.27s6.93-2.81,6.93-6.27-3.1-6.26-6.93-6.26-6.94,2.8-6.94,6.26" transform="translate(0 -1.54)"/><path class="cls-8" d="M884.92,322.43a6,6,0,0,0,2.54,8.56,7.36,7.36,0,0,0,9.48-2.3,5.93,5.93,0,0,0-2.54-8.55,7.35,7.35,0,0,0-9.48,2.29" transform="translate(0 -1.54)"/><path class="cls-8" d="M896,312.4a5.94,5.94,0,0,0-2.54,8.56,7.36,7.36,0,0,0,9.48,2.29,6,6,0,0,0,2.54-8.56A7.35,7.35,0,0,0,896,312.4" transform="translate(0 -1.54)"/><path class="cls-8" d="M911.21,308.73c-3.84,0-7,2.8-7,6.26s3.11,6.27,7,6.27,6.93-2.81,6.93-6.27-3.1-6.26-6.93-6.26" transform="translate(0 -1.54)"/><path class="cls-8" d="M926.38,312.4a7.36,7.36,0,0,0-9.48,2.29,5.94,5.94,0,0,0,2.54,8.56,7.36,7.36,0,0,0,9.48-2.29,5.94,5.94,0,0,0-2.54-8.56" transform="translate(0 -1.54)"/><path class="cls-8" d="M937.49,322.43a7.35,7.35,0,0,0-9.48-2.29,5.94,5.94,0,0,0-2.54,8.56A7.37,7.37,0,0,0,935,331a6,6,0,0,0,2.54-8.56" transform="translate(0 -1.54)"/><path class="cls-8" d="M941.56,336.13c0-3.46-3.11-6.26-6.95-6.26s-6.94,2.8-6.94,6.26,3.11,6.27,6.94,6.27,6.95-2.81,6.95-6.27" transform="translate(0 -1.54)"/><path class="cls-8" d="M911.21,315c12.92,0,23.4,9.47,23.4,21.14s-10.48,21.14-23.4,21.14-23.41-9.46-23.41-21.14S898.28,315,911.21,315" transform="translate(0 -1.54)"/><rect class="cls-9" x="880.86" y="324.03" width="60.7" height="32.8"/><rect class="cls-10" x="880.86" y="324.03" width="30.35" height="32.8"/><rect class="cls-11" x="739.92" y="392.2" width="61.89" height="11.35"/><rect class="cls-11" x="877.06" y="392.2" width="61.89" height="11.35"/><rect class="cls-11" x="801.18" y="480.97" width="12.57" height="55.89"/><rect class="cls-11" x="865.12" y="480.97" width="12.57" height="55.89"/><rect class="cls-6" x="705.57" y="423.78" width="267.72" height="5.92"/><rect class="cls-6" x="836.15" y="364.4" width="6.56" height="281.47"/><rect class="cls-12" x="705.57" y="356.83" width="267.72" height="15.14"/><rect class="cls-13" x="973.29" y="621.63" width="287.1" height="48.47"/><rect class="cls-14" x="973.29" y="48.33" width="287.1" height="597.53"/><rect class="cls-15" x="973.29" y="48.33" width="143.55" height="597.53"/><rect class="cls-16" x="995.7" y="449.94" width="12.57" height="102.16"/><rect class="cls-16" x="995.7" y="301.39" width="12.57" height="102.16"/><rect class="cls-17" x="973.29" y="423.78" width="287.1" height="5.92"/><rect class="cls-6" x="150.76" y="621.63" width="248.34" height="48.47"/><rect class="cls-7" x="131.38" y="364.4" width="267.72" height="281.47"/><rect class="cls-6" x="234.29" y="426.74" width="6.56" height="219.12"/><rect class="cls-11" x="234.29" y="392.2" width="61.89" height="11.35"/><rect class="cls-11" x="151.89" y="448.46" width="61.89" height="11.35"/><rect class="cls-11" x="151.89" y="503.24" width="61.89" height="11.35"/><rect class="cls-11" x="151.89" y="558.02" width="61.89" height="11.35"/><rect class="cls-11" x="263.25" y="480.97" width="12.57" height="55.89"/><rect class="cls-6" x="131.38" y="533.34" width="106.19" height="5.92"/><rect class="cls-6" x="131.38" y="478.57" width="106.19" height="5.92"/><rect class="cls-6" x="131.38" y="423.78" width="267.72" height="5.92"/><path class="cls-18" d="M205.88,318.77c7.79,22.92,31.42,39.6,59.36,39.6s51.57-16.68,59.36-39.6Z" transform="translate(0 -1.54)"/><path class="cls-19" d="M265.24,318.77H205.88c7.79,22.92,31.42,39.6,59.36,39.6Z" transform="translate(0 -1.54)"/><rect class="cls-12" x="112" y="356.83" width="287.1" height="15.14"/><rect class="cls-13" x="399.1" y="621.63" width="306.48" height="48.47"/><rect class="cls-16" x="547.42" y="361.27" width="9.83" height="10.69"/><path class="cls-16" d="M679.13,358.37H425.55c-9.26,0-16.76,6.77-16.76,15.13h9.83c0-3.45,3.11-6.25,6.93-6.25H679.13c3.81,0,6.92,2.8,6.92,6.25h9.83C695.88,365.14,688.38,358.37,679.13,358.37Z" transform="translate(0 -1.54)"/><rect class="cls-11" x="399.1" y="371.96" width="306.48" height="273.9"/><path class="cls-16" d="M607.94,462.83H496.73c-3.47,0-6.28-2.54-6.28-5.68h0c0-3.13,2.81-5.67,6.28-5.67H607.94c3.47,0,6.28,2.54,6.28,5.67h0C614.22,460.29,611.41,462.83,607.94,462.83Z" transform="translate(0 -1.54)"/><path class="cls-20" d="M437.22,499.05V591c0,8.83,7.92,16,17.7,16H649.75c9.78,0,17.71-7.15,17.71-16v-91.9c0-8.83-7.93-16-17.71-16H454.92C445.14,483.06,437.22,490.22,437.22,499.05Z" transform="translate(0 -1.54)"/><path class="cls-6" d="M552.34,483.06H454.92c-9.78,0-17.7,7.16-17.7,16V591c0,8.83,7.92,16,17.7,16h97.42Z" transform="translate(0 -1.54)"/><rect class="cls-13" x="521.39" y="386.52" width="61.89" height="22.7"/><path class="cls-16" d="M472.81,399.41c0,6.27-5.62,11.35-12.57,11.35s-12.57-5.08-12.57-11.35,5.63-11.35,12.57-11.35,12.57,5.08,12.57,11.35" transform="translate(0 -1.54)"/><path class="cls-16" d="M657,399.41c0,6.27-5.63,11.35-12.57,11.35s-12.57-5.08-12.57-11.35,5.62-11.35,12.57-11.35S657,393.14,657,399.41" transform="translate(0 -1.54)"/><rect class="cls-17" x="399.1" y="423.78" width="306.48" height="5.92"/><path class="cls-11" d="M505.19,283.17v31.6H482.67c-4.3,0-7.8-3-7.8-6.66V289.83c0-3.68,3.5-6.66,7.8-6.66h22.52m4-4H482.67c-6.51,0-11.8,4.77-11.8,10.66v18.28c0,5.88,5.29,10.66,11.8,10.66h26.52v-39.6Z" transform="translate(0 -1.54)"/><path class="cls-11" d="M622,283.17c4.3,0,7.8,3,7.8,6.66v18.28c0,3.67-3.5,6.66-7.8,6.66H599.48v-31.6H622m0-4H595.48v39.6H622c6.52,0,11.8-4.78,11.8-10.66V289.83c0-5.89-5.28-10.66-11.8-10.66Z" transform="translate(0 -1.54)"/><path class="cls-11" d="M490.25,279.17v68.54c0,5.89,5.28,10.66,11.8,10.66H602.62c6.52,0,11.8-4.77,11.8-10.66V279.17Z" transform="translate(0 -1.54)"/><path class="cls-13" d="M552.34,279.17H490.25v68.54c0,5.89,5.29,10.66,11.8,10.66h50.29Z" transform="translate(0 -1.54)"/></g><g id="mesa-2" data-name="mesa"><rect class="cls-21" y="591.53" width="1280" height="207.24"/><rect class="cls-22" y="590.44" width="1279.83" height="93.78"/></g><g id="Comidas"><g id="_Grupo_" data-name="&lt;Grupo&gt;"><path class="cls-23" d="M287.75,549.45v100.9a7.42,7.42,0,0,1-7.42,7.42H231.51a7.41,7.41,0,0,1-7.42-7.42V549.45H228v94a6.72,6.72,0,0,0,6.51,6.91h42.8a6.73,6.73,0,0,0,6.51-6.91v-94Z" transform="translate(0 -1.54)"/><path class="cls-24" d="M283.83,579.87v63.57a6.73,6.73,0,0,1-6.51,6.91h-42.8a6.72,6.72,0,0,1-6.51-6.91V579.79c17.21-2.61,36.86.08,53.81.08Z" transform="translate(0 -1.54)"/><path class="cls-25" d="M288,549.45v100.9a7.42,7.42,0,0,1-7.42,7.42H231.76a7.41,7.41,0,0,1-7.42-7.42V549.45Z" transform="translate(0 -1.54)"/><rect class="cls-26" x="231.13" y="547.91" width="19.78" height="108.32"/><g id="_Grupo_2" data-name="&lt;Grupo&gt;"><path id="_Trazado_" data-name="&lt;Trazado&gt;" class="cls-27" d="M245,631.41l-.59.87-.5.75.41-.81c.14-.25.3-.56.48-.91a12.24,12.24,0,0,0,.53-1.23,12.71,12.71,0,0,0,.55-1.48c.15-.54.33-1.1.46-1.69,0-.28.11-.56.16-.85a9.09,9.09,0,0,0,.15-.91.17.17,0,0,1,0-.07c0-.63.15-1.27.12-1.91a14.93,14.93,0,0,0-.07-1.89,17.15,17.15,0,0,0-.25-1.81c-.1-.58-.26-1.13-.39-1.65s-.31-1-.49-1.43a16.44,16.44,0,0,0-.94-2,5.3,5.3,0,0,0-.3-.5l-.12-.18,2.08-1.24s0,.09.12.23.18.4.3.69a16.41,16.41,0,0,1,.8,2.41c.14.5.24,1.06.36,1.64s.18,1.2.22,1.84a16.4,16.4,0,0,1,0,2v.18c0,.27,0,.54,0,.81s-.07.69-.11,1a1.65,1.65,0,0,1,0,.31c-.07.57-.23,1.13-.32,1.69l-.1.41c-.14.5-.31,1-.45,1.45s-.46,1.15-.67,1.68a16,16,0,0,1-.73,1.44A11.78,11.78,0,0,1,245,631.41Z" transform="translate(0 -1.54)"/><path id="_Trazado_2" data-name="&lt;Trazado&gt;" class="cls-28" d="M219.71,671.89c-21.64-12.66-11.06-31.39,3.8-35.78,8.27-2.43,12.75-16.74,23.16-11l.29.16.59.36c9.62,6.28-.44,17.05,1.47,25.37C252.49,666.15,240.78,684.22,219.71,671.89Z" transform="translate(0 -1.54)"/><path class="cls-29" d="M240.61,625.57c-4.46,1.27-6.74,6.22-10,9.19-4.29,3.9-10.41,4.26-14.38,8.43-1.2,1.26.71,3.17,1.91,1.91,3.38-3.55,8.83-4,12.71-7,3.37-2.6,6.32-8.74,10.48-9.91a1.35,1.35,0,0,0-.72-2.61Z" transform="translate(0 -1.54)"/><path class="cls-30" d="M247.55,625.67l-.59-.36-.29-.16c-.36-.2-.71-.37-1-.52,2.16,5.88-1.16,11-3,16.52-1.77,5.21-1.63,10.61-2.52,16s-3,10.43-8.36,12.7-11.18,1-16.45-1a36.7,36.7,0,0,0,4.45,3c21.07,12.33,32.78-5.74,29.31-20.85C247.11,642.72,257.17,632,247.55,625.67Z" transform="translate(0 -1.54)"/><path id="_Trazado_3" data-name="&lt;Trazado&gt;" class="cls-31" d="M256.19,619.68s-3.65,5-7.61,2.84a4.92,4.92,0,0,1-.46-.29,2,2,0,0,1-.25-.18,4,4,0,0,1,.29-.63,4.17,4.17,0,0,1,2.29-2.08C253,618.37,256.19,619.68,256.19,619.68Z" transform="translate(0 -1.54)"/></g></g><g id="_Grupo_3" data-name="&lt;Grupo&gt;"><g id="_Grupo_4" data-name="&lt;Grupo&gt;"><path id="_Trazado_4" data-name="&lt;Trazado&gt;" class="cls-27" d="M261.24,627.57c0,.41,0,.76,0,1,0,.58,0,.9,0,.9s0-.32-.13-.9c0-.28-.08-.63-.13-1a11.54,11.54,0,0,0-.28-1.31,12.86,12.86,0,0,0-.41-1.52c-.19-.52-.36-1.09-.6-1.65-.13-.25-.24-.52-.37-.78a9,9,0,0,0-.4-.83l0-.06a18.36,18.36,0,0,0-1-1.63,14.17,14.17,0,0,0-1.15-1.5,14.5,14.5,0,0,0-1.25-1.33c-.42-.42-.87-.78-1.28-1.12s-.83-.64-1.23-.89a14.93,14.93,0,0,0-1.94-1.1,5.64,5.64,0,0,0-.53-.24l-.2-.08,1-2.21.23.12c.17.09.38.22.64.38a17.56,17.56,0,0,1,2.05,1.5c.41.33.81.73,1.24,1.13s.85.88,1.25,1.38a17.88,17.88,0,0,1,1.18,1.6,1.21,1.21,0,0,1,.1.14,8.09,8.09,0,0,1,.44.69c.18.29.35.6.51.9.05.09.11.18.15.27.27.51.46,1.06.71,1.57l.16.4c.17.48.31,1,.47,1.44s.29,1.2.42,1.76a14.66,14.66,0,0,1,.24,1.59A12.2,12.2,0,0,1,261.24,627.57Z" transform="translate(0 -1.54)"/><path id="_Trazado_5" data-name="&lt;Trazado&gt;" class="cls-28" d="M264,675.23c-25,2.2-27.19-19.2-17.61-31.37,5.34-6.78.7-21,12.54-22.35l.32,0,.7,0c11.48-.46,9.51,14.15,15.88,19.83C287.44,651.57,288.35,673.08,264,675.23Z" transform="translate(0 -1.54)"/><path class="cls-29" d="M254.26,625.37c-2.91,3.61-1.89,9-2.83,13.27-1.24,5.66-6,9.5-6.85,15.2-.25,1.72,2.42,2.18,2.67.45.7-4.85,4.87-8.38,6.3-13.07,1.25-4.07.1-10.79,2.81-14.15a1.35,1.35,0,0,0-2.1-1.7Z" transform="translate(0 -1.54)"/><path class="cls-30" d="M260,621.43l-.7,0-.32,0c-.41,0-.79.11-1.16.18,5.16,3.55,5.44,9.68,7.1,15.23,1.57,5.27,4.81,9.59,7.18,14.48s3.56,10.27.54,15.19-8.53,7.31-14,8.73a37.91,37.91,0,0,0,5.39-.09c24.32-2.15,23.41-23.66,11.83-34C269.49,635.58,271.46,621,260,621.43Z" transform="translate(0 -1.54)"/><path id="_Trazado_6" data-name="&lt;Trazado&gt;" class="cls-31" d="M263.56,611.54s-.06,6.22-4.56,6.72a4.68,4.68,0,0,1-.55,0h-.3a3.38,3.38,0,0,1-.14-.69,4.18,4.18,0,0,1,.67-3C260.18,612.32,263.56,611.54,263.56,611.54Z" transform="translate(0 -1.54)"/></g></g><g id="_Grupo_5" data-name="&lt;Grupo&gt;"><path class="cls-32" d="M334.55,628.57s7.17,8.3,10.59,16.94c-3.91-5.87-15.8-16.94-15.8-16.94A15.31,15.31,0,0,1,334.55,628.57Z" transform="translate(0 -1.54)"/><path class="cls-32" d="M312.73,634.92s7.65,9.45,11.56,16.86c-8.8-3.67-16.94-16.86-16.94-16.86Z" transform="translate(0 -1.54)"/><path class="cls-32" d="M290.73,643.23a191.07,191.07,0,0,0,16.78,19.06c-11.56-3.91-21-18.57-21-18.57Z" transform="translate(0 -1.54)"/><path class="cls-32" d="M284.52,668.78a30.48,30.48,0,0,1-15.45-11.38l1.79-1.3S277.86,662.27,284.52,668.78Z" transform="translate(0 -1.54)"/><path class="cls-33" d="M337.11,626.61c8.24,6.52,8,18.9,8,18.9-3.42-8.64-10.59-16.94-10.59-16.94C335,627.1,337.11,626.61,337.11,626.61Z" transform="translate(0 -1.54)"/><path class="cls-33" d="M312.73,634.92l1.79-2.28c8.79,6.68,9.77,19.14,9.77,19.14C320.38,644.37,312.73,634.92,312.73,634.92Z" transform="translate(0 -1.54)"/><path class="cls-33" d="M290.73,643.23c.49-1.15,2.44-2,2.44-2,12.38,6.35,14.34,21,14.34,21A191.07,191.07,0,0,1,290.73,643.23Z" transform="translate(0 -1.54)"/><path class="cls-33" d="M271.68,654a40,40,0,0,1,12.86,14.81h0c-6.66-6.51-13.66-12.68-13.66-12.68Z" transform="translate(0 -1.54)"/><path class="cls-34" d="M259.46,677.27c-4.4-9.66,9.61-19.87,9.61-19.87a30.48,30.48,0,0,0,15.45,11.38h0A40,40,0,0,0,271.68,654c2.44-3.91,14.81-10.26,14.81-10.26s9.46,14.66,21,18.57c0,0-2-14.66-14.34-21a35.93,35.93,0,0,1,14.18-6.36s8.14,13.19,16.94,16.86c0,0-1-12.46-9.77-19.14,5.53-3.1,14.82-4.07,14.82-4.07s11.89,11.07,15.8,16.94c0,0,.21-12.38-8-18.9,0,0,23.66-1.74,31.48,9.78s-13.89,25.84-39.74,35.4C295,684.31,266,691.61,259.46,677.27Z" transform="translate(0 -1.54)"/></g><path class="cls-35" d="M368.7,646.07a11.05,11.05,0,0,0-1.12-5.06,6.8,6.8,0,0,0-1.18-1.56c-.23-.22-.45-.44-.69-.64a1.52,1.52,0,0,0-.34-.25c-.17-.13-.38-.38-.49-.43a31.81,31.81,0,0,0-7.61-4c-2.92-1.12-6.13-2.12-9.5-3.22a95,95,0,0,1-10.65-4.06l0-.56a58.32,58.32,0,0,1,11.21.17,46,46,0,0,1,11,2.45,20.78,20.78,0,0,1,9.22,6.51,9.73,9.73,0,0,1,2.11,5.34,10.73,10.73,0,0,1-1.4,5.52Z" transform="translate(0 -1.54)"/><path class="cls-36" d="M271.28,684.71a53.68,53.68,0,0,0,13.28-1.26,121.28,121.28,0,0,0,13-3.19c4.26-1.31,8.54-2.59,12.76-4s8.46-2.88,12.67-4.42a226.89,226.89,0,0,0,24.73-10,88.11,88.11,0,0,0,11.54-6.58,32.63,32.63,0,0,0,9.64-9l.2.1a22.79,22.79,0,0,1-4,5.42,45.64,45.64,0,0,1-5.09,4.43,88,88,0,0,1-11.43,7.18,180.16,180.16,0,0,1-24.8,10.62c-8.47,3-17,5.83-25.74,8.05a122,122,0,0,1-13.23,2.68,50.31,50.31,0,0,1-13.48.31Z" transform="translate(0 -1.54)"/><path class="cls-35" d="M269.23,657.62c-1.27,3.48-2.65,6.32-3.74,9a20.57,20.57,0,0,0-1.84,6.53,4.86,4.86,0,0,0,0,1.15,5,5,0,0,0,.22,1.21,11.59,11.59,0,0,0,1.18,2.79c1.11,2,3.37,3.92,6.23,6.3l-.08.55a21.76,21.76,0,0,1-4.76-1,14.08,14.08,0,0,1-4.3-2.42,11.93,11.93,0,0,1-3.06-3.91,10,10,0,0,1-1.05-4.9,16.77,16.77,0,0,1,3.85-9,32.85,32.85,0,0,1,7-6.69Z" transform="translate(0 -1.54)"/><path class="cls-33" d="M271.73,654a2.75,2.75,0,0,1,.29,1.33,3.2,3.2,0,0,1-.22,1.13l-.11.3-.24.16a3.28,3.28,0,0,1-1,.47,2.89,2.89,0,0,1-1.33.05l-.06-.09L270.8,656l0,0,.86-2.1Z" transform="translate(0 -1.54)"/><path class="cls-35" d="M286.57,643.86a14.34,14.34,0,0,1-2.85,4.13,18.82,18.82,0,0,1-3.46,2.79,21.4,21.4,0,0,1-3.89,1.94c-.68.27-1.42.46-2.14.69s-1.49.39-2.41.65l-.29-.17a13,13,0,0,1,3.2-3.3c1.2-.94,2.45-1.81,3.72-2.64s2.6-1.56,3.93-2.3,2.66-1.45,4-2.09Z" transform="translate(0 -1.54)"/><path class="cls-33" d="M293.2,641.32c-.34.53-.69.93-1,1.33a3.37,3.37,0,0,0-.58,1l-.13.46-.66.13a6.37,6.37,0,0,1-1.06.12,7.79,7.79,0,0,1-1.08,0,6.19,6.19,0,0,1-2.21-.55v-.11l2.12-.28c.7-.08,1.4-.2,2.11-.26l-.08.06a3.23,3.23,0,0,1,1.1-1.19,8.06,8.06,0,0,1,1.41-.77Z" transform="translate(0 -1.54)"/><path class="cls-35" d="M307.37,635.08a15.83,15.83,0,0,1-6.18,5,16.29,16.29,0,0,1-3.52,1.13,14.42,14.42,0,0,1-4.4.18l-.19-.28a35.61,35.61,0,0,1,6.71-4.09,38.28,38.28,0,0,1,3.69-1.4,20.8,20.8,0,0,1,3.84-.89Z" transform="translate(0 -1.54)"/><path class="cls-33" d="M314.56,632.67a6.32,6.32,0,0,1-.43,1.51,9.49,9.49,0,0,1-.67,1.31l-.18.28-.56.08a12,12,0,0,1-1.34.07,12.26,12.26,0,0,1-1.35-.1,7.31,7.31,0,0,1-1.34-.29,5.88,5.88,0,0,1-1.34-.56v-.11c1.79,0,3.58-.08,5.37,0l-.07,0,1.82-2.26Z" transform="translate(0 -1.54)"/><path class="cls-35" d="M329.35,628.73a12.05,12.05,0,0,1-3.4,2.79,14.17,14.17,0,0,1-3.46,1.37,14.58,14.58,0,0,1-3.64.45,17.25,17.25,0,0,1-4.25-.56l-.17-.29a19.26,19.26,0,0,1,3.52-1.68c1.22-.45,2.46-.84,3.71-1.17s2.53-.56,3.81-.77a32.9,32.9,0,0,1,3.85-.47Z" transform="translate(0 -1.54)"/><path class="cls-33" d="M337.12,626.67a13.5,13.5,0,0,0-1.14,1.2,2.1,2.1,0,0,0-.51,1l-.1.81-1-.17c-.34,0-.78-.06-1.18-.12s-.81-.1-1.22-.16a14.67,14.67,0,0,1-2.6-.61l0-.11a16.36,16.36,0,0,1,2.61-.25,11.63,11.63,0,0,1,2.63.21l-.11.06a2.65,2.65,0,0,1,1.08-1.3,5.21,5.21,0,0,1,1.55-.67Z" transform="translate(0 -1.54)"/><path class="cls-37" d="M284.53,668.85A27.12,27.12,0,0,1,280,667a31.43,31.43,0,0,1-4.19-2.55,28.8,28.8,0,0,1-6.79-7l.09-.07c.64.55,1.2,1.14,1.83,1.66s1.18,1.09,1.8,1.59c1.23,1,2.44,2,3.73,2.92s2.59,1.81,3.93,2.68,2.72,1.71,4.16,2.54Z" transform="translate(0 -1.54)"/><path class="cls-38" d="M271.7,653.93a16.74,16.74,0,0,1,4.4,2.53,24.71,24.71,0,0,1,3.67,3.49,24.32,24.32,0,0,1,2.9,4.15c.39.75.78,1.5,1.12,2.27a19.86,19.86,0,0,1,.8,2.4l-.1.05a41.9,41.9,0,0,0-5.57-8.14,41.2,41.2,0,0,0-3.42-3.57,30.83,30.83,0,0,0-3.85-3.09Z" transform="translate(0 -1.54)"/><path class="cls-38" d="M307.45,662.29a30.88,30.88,0,0,0-1.79-6.31,31.8,31.8,0,0,0-3-5.83,25.07,25.07,0,0,0-9.51-8.83l.05-.1a17.56,17.56,0,0,1,3.09,1.33,22.67,22.67,0,0,1,2.79,1.92,21.84,21.84,0,0,1,4.52,5.07,25.57,25.57,0,0,1,2.89,6.12,21.3,21.3,0,0,1,1.08,6.62Z" transform="translate(0 -1.54)"/><path class="cls-37" d="M286.54,643.68a65.94,65.94,0,0,0,4.31,5.66,64.41,64.41,0,0,0,4.89,5.16,33.87,33.87,0,0,0,11.79,7.73l0,.11a18.22,18.22,0,0,1-3.49-1,29.88,29.88,0,0,1-3.25-1.63,37,37,0,0,1-5.78-4.4,51.18,51.18,0,0,1-4.79-5.41c-.7-1-1.38-2-2-3a31.4,31.4,0,0,1-1.7-3.19Z" transform="translate(0 -1.54)"/><path class="cls-38" d="M324.23,651.78a33.3,33.3,0,0,0-3.05-10.51,23.19,23.19,0,0,0-6.7-8.59l.07-.09a15.05,15.05,0,0,1,2.41,1.49,23.89,23.89,0,0,1,2.07,2,20.1,20.1,0,0,1,3.16,4.74,23.9,23.9,0,0,1,1.8,5.37,18.62,18.62,0,0,1,.35,5.62Z" transform="translate(0 -1.54)"/><path class="cls-37" d="M307.4,634.89a67.58,67.58,0,0,0,7.42,9.52,41.81,41.81,0,0,0,4.38,4.14,22.18,22.18,0,0,0,5.11,3.18l0,.1a14,14,0,0,1-2.93-1,24.78,24.78,0,0,1-2.68-1.58,27.77,27.77,0,0,1-4.66-4.06,37.45,37.45,0,0,1-3.8-4.82,28.93,28.93,0,0,1-2.9-5.4Z" transform="translate(0 -1.54)"/><path class="cls-38" d="M345.08,645.5a30.69,30.69,0,0,0-2-10.31,19.75,19.75,0,0,0-6-8.53l.07-.09a12.48,12.48,0,0,1,2.29,1.49,17.79,17.79,0,0,1,1.92,2,17.45,17.45,0,0,1,2.74,4.77,21.38,21.38,0,0,1,1.29,5.3,17.3,17.3,0,0,1-.19,5.42Z" transform="translate(0 -1.54)"/><path class="cls-37" d="M329.38,628.52q4.25,4,8.3,8.11c1.33,1.4,2.65,2.82,3.92,4.28a46.33,46.33,0,0,1,3.58,4.56l-.09.07-4.15-4.06c-1.39-1.32-2.72-2.7-4.07-4.07a85.46,85.46,0,0,1-7.57-8.8Z" transform="translate(0 -1.54)"/><g class="cls-39"><path class="cls-40" d="M354.24,634.92c.84.85,2,1.51,2.18,0,.36.16.93,0,1.81-1l0,0c.73.68,1.24-.26,1.12-.84a1.22,1.22,0,0,0-.68-1.35c-.72-.65-2.38-.54-2.62.33,0,.15-.07.31-.1.49a1,1,0,0,0-1.23-.36,1.9,1.9,0,0,0,.56-.76c.92-1.85-1.49-1.5-1.46-.66,0,.58.27,1.56.73,1.49a1.75,1.75,0,0,0-.39.28c-1-1.08-2.64-1.92-2.27,1.11C352.17,635.82,353.44,635.66,354.24,634.92Z" transform="translate(0 -1.54)"/><path class="cls-40" d="M358.48,642.32l-.39.31a1.14,1.14,0,0,0-.5-.2c.4-.46.43-.94-.75-1a1.4,1.4,0,0,0-.7-1.46,6.12,6.12,0,0,0-2-.33l-.3-.21c-2.72-1.65-2.5,2.08-1.22,2.16a5,5,0,0,0,.76,0,4.82,4.82,0,0,0,.5.61c.83.91,1.5,1.11,2,.94a.69.69,0,0,0,.69.13c-.24.63-.16,1.44.36,1.66l.05,0a1.71,1.71,0,0,0,1.2.31,2.3,2.3,0,0,0,.79,0c.73.62,1.29.05,1.44-.61C361.4,643.55,359.45,641.67,358.48,642.32Z" transform="translate(0 -1.54)"/><path class="cls-40" d="M366.89,636.7c.29-.49,0-1.07-1.64-1.6-3.14-1-2.6,2.06-1.41,2.73a.87.87,0,0,0-.23.43,1.61,1.61,0,0,0-1.22-.65,4.36,4.36,0,0,0-.54-.63c-1.2-1.18-1.85-.39-1.92.43-.18.12-.25.39-.15.89-1-.09-1.86.19-.53,1.63.52.55.93.68,1.25.6.18,1.11.85,1.73,2.47-.15a2.56,2.56,0,0,0,.77-1.59,3.65,3.65,0,0,0,1.77,1.11C369.36,641.36,368.48,637,366.89,636.7Z" transform="translate(0 -1.54)"/><path class="cls-40" d="M365.55,645.37c-1-.71-3.5-1.54-2.07,1.18S366.57,646.07,365.55,645.37Z" transform="translate(0 -1.54)"/><path class="cls-40" d="M362,632.84c.78.19,2.47.11,1-1.2S361.23,632.66,362,632.84Z" transform="translate(0 -1.54)"/><path class="cls-40" d="M358.8,630.34c1.48-1.67-1.13-2-1.34-1.1S357.31,632,358.8,630.34Z" transform="translate(0 -1.54)"/><path class="cls-40" d="M348.47,630.41c.3,3.76,3.73,1,2.91-.33S348.18,626.66,348.47,630.41Z" transform="translate(0 -1.54)"/><path class="cls-40" d="M346.28,634.74c1.11-.38,3.15-1.77.29-2.24S345.17,635.11,346.28,634.74Z" transform="translate(0 -1.54)"/><path class="cls-40" d="M348.1,628.41c.52-.7,1.19-2.42-.77-1.5S347.57,629.11,348.1,628.41Z" transform="translate(0 -1.54)"/><path class="cls-40" d="M342.37,629.73a2.84,2.84,0,0,0,1.42,0c-.74,1-.86,2.09,1.73,1.73,3.79-.54.73-3.84-.52-2.93a5.66,5.66,0,0,0-.87.79c0-.22-.2-.52-.69-.93C341.72,626.9,341.48,629.54,342.37,629.73Z" transform="translate(0 -1.54)"/><path class="cls-40" d="M336.78,651.46c.37-2.62-2.41-1.22-2-.21S336.42,654.08,336.78,651.46Z" transform="translate(0 -1.54)"/><path class="cls-40" d="M342.27,634.16c.18-.75.12-2.36-1.14-.94S342.09,634.91,342.27,634.16Z" transform="translate(0 -1.54)"/><path class="cls-40" d="M345.13,637.59a3.58,3.58,0,0,0-.29-.27,4.19,4.19,0,0,0-.23-.8,3.1,3.1,0,0,0-.47-.88,2.73,2.73,0,0,0,.22-.42c1.2-2.61-2.11-2-2.05-.87a4.06,4.06,0,0,0,.14.85c-.9-.11-1.91.11-.61,1.4l.13.12a.88.88,0,0,0,.25.78,5.13,5.13,0,0,0,1.1.73.78.78,0,0,0,.44.75C344.72,639.3,346.85,639.42,345.13,637.59Z" transform="translate(0 -1.54)"/><path class="cls-40" d="M350.92,637.32a4.15,4.15,0,0,0-.62-1c.1-.81-.1-1.47-.94-1.3-.15-.34-.65-.45-1.76,0-1.42.58-1.33,1.37-.81,1.87-.37.88.42,1.54,1.28,1.75a1.75,1.75,0,0,0,.56,1.12,2.33,2.33,0,0,0-.11.28c-1.9-.06-1.19,3.05.09,3s3.18-.67,2.52-1.66c.39-.5.53-1-.2-1.18a.85.85,0,0,0-.12-.38C351.82,638.9,352.78,637.47,350.92,637.32Z" transform="translate(0 -1.54)"/><path class="cls-40" d="M343.48,641.53c-.75-.12-2.34.05-.85,1.19S344.23,641.65,343.48,641.53Z" transform="translate(0 -1.54)"/><path class="cls-40" d="M351.13,645.5c0-.08.07-.15.1-.25,1.06-2.88-2.24-2.13-2.36-.93a4,4,0,0,0-.42,1.6c-.41,3.84,3.57,1.66,3,.21C351.36,645.94,351.25,645.72,351.13,645.5Z" transform="translate(0 -1.54)"/><path class="cls-40" d="M349.24,649a5.31,5.31,0,0,0-1.39-.56c.28-1.49.07-3.61-2.18-1.36-1.65,1.64-.51,2.54.63,2.6-.16.19-.23.6-.12,1.34.28,1.86,1.53,1.27,1.95.48C349.37,651.85,350.16,649.5,349.24,649Z" transform="translate(0 -1.54)"/><path class="cls-40" d="M343.63,649.91c-1.54,2.26,1.67,2.23,1.79,1.14S345.17,647.66,343.63,649.91Z" transform="translate(0 -1.54)"/><path class="cls-40" d="M342.41,651.31c.46-1.27-1.85-1.6-2.15-.69s-.43,2.73.75,2.13a.65.65,0,0,0,.21.06C342.16,652.86,344.05,652.44,342.41,651.31Z" transform="translate(0 -1.54)"/><path class="cls-40" d="M341.34,647a2,2,0,0,0-.19-.94.47.47,0,0,0,.26,0c.51-.1,1.31-.44,1.4-.84.09.62.59,1.27,1.1,1.17a4,4,0,0,0,1.3-.51c.51.16,1.12.08,1.3-.32.38-.89.65-2.82-.93-1.79a0,0,0,0,0,0,0c.21-.77.18-2.45-1.16-1-1,1.09,0,1.54.69,1.38a3.44,3.44,0,0,0-.33.34l-.34-.12c-1.22-.37-1.65.11-1.65.7-.07-.2-.35-.4-1-.59l-.19,0c0-.66-.22-1.26-1.15-.28l0,0s0-.08,0-.12c.51-.25.62-1-.22-2.55a4.31,4.31,0,0,0-.49-.74c.14-1-.56-2.44-1.49-2.38l-.34,0c.44-.21.5-.72-.4-1.77-2-2.3-2.86,1.12-1.73,1.57a4.39,4.39,0,0,0,1.53.31,5.4,5.4,0,0,0-1,.31c-.2-.81-1-.68-1.44-.28l0,0a6.11,6.11,0,0,0,.24-2,.76.76,0,0,0,.49-.69c-.1-.93-.83-2.78-1.7-.62a2.52,2.52,0,0,0-.1.29,4.71,4.71,0,0,0-1.17.91c-2.45,2.43.71,3.37,1.88,2.57a.57.57,0,0,0,0,.46c.23.54.78,1.33,1.23,1.33a5.26,5.26,0,0,0,1.23.71,2.15,2.15,0,0,0-.05,1.09,2.14,2.14,0,0,0-2.21-.48,1.07,1.07,0,0,0-.74-.58c-1.69-.31-5.31,0-2,2.68a3.21,3.21,0,0,0,1.57.76c.09.72.71,1,2.41,0a4,4,0,0,0,.9-.69c-.67,1.56,1.65,2.31,2.73,1.72a.92.92,0,0,0-.33,1C339.82,648,341.37,649.62,341.34,647Zm-4.09-3.22a1,1,0,0,0,0-.62l.05,0,.29.19A4.43,4.43,0,0,0,337.25,643.79Zm2.68,2a1,1,0,0,0,.15-.24,3.73,3.73,0,0,0,.14-.4.73.73,0,0,0,.38.22,1.59,1.59,0,0,0,.12.27A1,1,0,0,0,339.93,645.83Z" transform="translate(0 -1.54)"/><path class="cls-40" d="M330,638.07c-.39-.85-1.68-2.34-1.8,0S330.42,638.92,330,638.07Z" transform="translate(0 -1.54)"/><path class="cls-40" d="M331.27,635.2c.6,2.06,2.9,0,2.28-.94a4.45,4.45,0,0,0-1.26-1.26.84.84,0,0,0,.19-.73c-.34-1.27-1.76-3.63-2.47-.47-.26,1.14,0,1.68.51,1.85-1-.21-2.16-.09-.85,1.4C330.46,636,331,635.71,331.27,635.2Zm-.13-1.52v.18l-.13-.07-.3-.1A1.25,1.25,0,0,0,331.14,633.68Z" transform="translate(0 -1.54)"/><path class="cls-40" d="M320.74,634.51c-.24.07-.46.4-.63,1.18-.42,1.94,1.25,1.58,1.76.86-.36,1.35.76,1.39,1.39,1a3.39,3.39,0,0,0,.52.85c1.68,2.18,2.65-.9,1.64-1.36a3.43,3.43,0,0,0-1.79-.31c0-.1-.05-.21-.08-.32a1.62,1.62,0,0,0,.91-.08c.81,1.57,3-.43,2.35-1.42a4.92,4.92,0,0,0-.92-1.06c1.08-.54.66-2.34-.21-3,.7-.93.91-2-1.47-1.6a2.19,2.19,0,0,0-1.39.64,5.65,5.65,0,0,0-.69,0c-2,.18-2,1.31-1.38,2.09l-.17.34C320,633.54,320.23,634.22,320.74,634.51Zm1.26,1.65a.66.66,0,0,0,0-.14,3.17,3.17,0,0,0-.79-1.38,2,2,0,0,0,.69,0,1.14,1.14,0,0,0,.32,1.09A3.22,3.22,0,0,0,322,636.16Z" transform="translate(0 -1.54)"/><path class="cls-40" d="M319.2,635.45c1.49,0,1.19-1.34.53-1.91a.76.76,0,0,0-.25-.36c-1.18-.88-4.08-2-2.52,1.31C317.72,636.09,318.61,636,319.2,635.45Z" transform="translate(0 -1.54)"/><path class="cls-40" d="M323.7,645.49a1.44,1.44,0,0,0,1.65-.24,6.43,6.43,0,0,0,.74-1.28c1.41-.07,1.53-2.83.35-3.15s-3-.35-3.14.54c-.37-.14-.75,0-1.08.73a1.13,1.13,0,0,0-.64-.84,6.17,6.17,0,0,0-1.29-.36c0-.11,0-.23.06-.37.17-1.86-1.74-.79-1.45-.09a2.81,2.81,0,0,0,.2.38,2.26,2.26,0,0,0-.48.1c-.34-.22-.71-.06-1,1-.34,1.44.56,1.57,1.2,1.24l.24.31c1.17,1.4,2.09,1.32,2.63.73a1.94,1.94,0,0,0,.12.74c-.76-.11-1.57.1-1.79.69-.61,1.6-.91,5.17,2.25,2.38a5.15,5.15,0,0,0,.57-.6,3,3,0,0,0,.52.19c2.48.73,1.52-2.16.49-2a4.64,4.64,0,0,0-.61.19,1.71,1.71,0,0,0-.13-.23A2.46,2.46,0,0,0,323.7,645.49Z" transform="translate(0 -1.54)"/><path class="cls-40" d="M329.57,653.27c-2.57-.5-1.33,2.32-.32,2S332.15,653.77,329.57,653.27Z" transform="translate(0 -1.54)"/><path class="cls-40" d="M329.23,657.79c-1.49.08-4.45,1.09-1.11,2.63S330.71,657.7,329.23,657.79Z" transform="translate(0 -1.54)"/><path class="cls-40" d="M326.42,655.48a1.2,1.2,0,0,0,.74-1.19.54.54,0,0,0,.24-.35,1.24,1.24,0,0,0,.71-1.18,6.08,6.08,0,0,0-.42-1.27c1.73.51,2.06-1.64,1.43-2.72a1,1,0,0,0,.67-.76,4.48,4.48,0,0,0-.26-2,6,6,0,0,0,.21-1c.52-3.77-3.47-1.74-2.94-.29a5.62,5.62,0,0,0,1,1.65,3.15,3.15,0,0,0-.19.27,3.27,3.27,0,0,0-.41.86c-.11-.64-1.23-1.16-1.65-.68s-1.16,1.87-.24,1.91c-.28.37-.15.91.76,1.69a2.54,2.54,0,0,0-.2.24l-.25.08c-.7,0-1.59.74-1.35,1.35a3.52,3.52,0,0,0,.16.35c-.83.28-1.61.73-1.71,1.26-.56,0-1.17.42-1.13.89.07.75.52,2.05,1.14,1.67a2.33,2.33,0,0,0,.64.69,3.29,3.29,0,0,0,0,.54h-.06c-1.52-.06-4.62.7-1.37,2.58,2.34,1.35,2.81-.55,2.32-1.74a2.8,2.8,0,0,0,.53-.6,1.78,1.78,0,0,0,.31-.59A5.5,5.5,0,0,0,326.42,655.48Zm.69-7.55a1.64,1.64,0,0,0,0,.23h-.2A.94.94,0,0,0,327.11,647.93Z" transform="translate(0 -1.54)"/><path class="cls-40" d="M320.05,657.75c1-.15,3-1,.59-1.88a1.69,1.69,0,0,0-1.12-.09c.52-.77-.81-1.69-1.45-1.35.09-.73-.27-1.61-.88-1.65h-.26c.42-.93-.69-2.52-1.61-2.21a5.61,5.61,0,0,0-.78.34c.29-.38.07-.93-1.21-1.67-2.77-1.59-2.7,1.71-1.58,2.3a2.41,2.41,0,0,0,.38.94c.58,1,1.15.87,1.48.46a3.87,3.87,0,0,0,.7.26.81.81,0,0,0,.46.6h0c.08.31.42.68,1.15,1.14a2,2,0,0,0,1.4.42c-.41.77-.43,1.56,1.27,1a2.37,2.37,0,0,0,.55-.25C318.86,656.73,319.41,657.84,320.05,657.75Zm-6.39-6.25h0l-.08,0a1.31,1.31,0,0,0,.28-.09Z" transform="translate(0 -1.54)"/><path class="cls-40" d="M319.11,658.63l-.23-.4c-.8-1.26-1.54-1-1.92-.42a.7.7,0,0,0-.79.15h0a1.29,1.29,0,0,0-1.47-.08l-.05,0a.64.64,0,0,1,0-.07c-.05-.75-.44-1.5-1.06-1.56h-.33c-.2-1.54-2.76-.68-2.6.42a2.41,2.41,0,0,0,.07.35c-.15.28-.07.64.39,1.1a2.11,2.11,0,0,0,.41.59,2.31,2.31,0,0,0,1.44.69,3,3,0,0,0,.48.08c-.42.9-.19,1.67,2,1.18,1.1-.25,1.57-.7,1.66-1.17a4.3,4.3,0,0,0,.61.27c-.35.72-.26,1.39,1.39.9C321.07,660.13,320,658.82,319.11,658.63Z" transform="translate(0 -1.54)"/><path class="cls-40" d="M314.56,647.33c.58,2,2.41,0,1.81-.72a3.17,3.17,0,0,0-.41-.41c.9-1.38-1.53-1.82-1.84-.93S313.72,647.52,314.56,647.33Z" transform="translate(0 -1.54)"/><path class="cls-40" d="M308.19,645a1,1,0,0,0,0,.57c.35,1,1.23,2.36,2,2.49.34.59,1,.64,1.92-.74h0c2.85.51,1.44-2.59.32-2.23h0a1.44,1.44,0,0,0-.93-.33,2.55,2.55,0,0,0-.07-.32,1.45,1.45,0,0,0-.76-1.5C309.14,642.44,305.82,642.3,308.19,645Z" transform="translate(0 -1.54)"/><path class="cls-40" d="M309.49,639.55c1.87-2.06-1.37-2.48-1.65-1.39S307.63,641.61,309.49,639.55Z" transform="translate(0 -1.54)"/><path class="cls-40" d="M305,639.14c-.36,1.32-.35,3.81,1.89,1.59.8-.79.87-1.39.6-1.79a.26.26,0,0,0,.07-.11c.44-1,.75-3.37-1.41-1.63-.67.55-.83,1-.72,1.35a.82.82,0,0,0-.39.43,1,1,0,0,0-.27-1.18c-1-.62-3.43-1.3-1.93,1.23C303.76,640.61,304.66,640,305,639.14Z" transform="translate(0 -1.54)"/><path class="cls-40" d="M297.82,641.47l.18.08a3.42,3.42,0,0,0,.06,1.79c.62,2.79,2.47,1.68,3,.44a2.24,2.24,0,0,0,.74-.61.54.54,0,0,0,.44.16c.83-.14,2.42-.9.45-1.55a1.56,1.56,0,0,0-.84-.09c-.47-1.51-1.62-3.29-2.65-1.05l-.09,0a.56.56,0,0,0-.18,0,.58.58,0,0,0-.48-.41C297.69,640.21,296.22,640.64,297.82,641.47Z" transform="translate(0 -1.54)"/><path class="cls-40" d="M302,651.82a2.79,2.79,0,0,0,.16-.51.89.89,0,0,0,.62-.17c.71-.61,1.67-1.88,1.32-2.5a.43.43,0,0,0,.13-.17c0-.08.07-.19.11-.29a2,2,0,0,0,.6-.92c1.24-.83,2.9-2.72.1-2.79a.93.93,0,0,0,0-.33c.46.19,1-.37,1.1-.85.41.65,1.06,1.13,1.28-.42.28-2-1.73-1-1.58-.23-.62-.6-1.7-1.18-1.34.6l.06.24a.54.54,0,0,0-.44-.09A2.81,2.81,0,0,0,303,644a.42.42,0,0,0-.22.5c-.56-.06-1,.47-.92,2.17a2.61,2.61,0,0,0,.5,1.68l-.25,0c-1.95.43-1.87,1.5-1.21,2.22C299.35,651.94,301.67,652.6,302,651.82Z" transform="translate(0 -1.54)"/><path class="cls-40" d="M305.88,648.35c-.65,1.3-1.22,4.3,1.7,2.22S306.53,647.05,305.88,648.35Z" transform="translate(0 -1.54)"/><path class="cls-40" d="M303.08,655c2.83-2.66-1.64-3.61-2.15-2.12S300.25,657.64,303.08,655Z" transform="translate(0 -1.54)"/><path class="cls-40" d="M293.5,671.63c.31.87,1.44,2.45,1.77.19S293.19,670.75,293.5,671.63Z" transform="translate(0 -1.54)"/><path class="cls-40" d="M310.36,653.1c-.43-1.63-2.24-4.69-3.19-.62S310.79,654.73,310.36,653.1Z" transform="translate(0 -1.54)"/><path class="cls-40" d="M307.57,657.65c.55-.5.82-1.08,0-1.37a.69.69,0,0,0-.28-.28,4.79,4.79,0,0,0-1.47-.48c.24-1-1.49-1-1.61-.31s0,1.76.57,1.55a4,4,0,0,0,.4.7,1.69,1.69,0,0,0,.7.79C306.66,658.87,307.3,658.35,307.57,657.65Z" transform="translate(0 -1.54)"/><path class="cls-40" d="M305.53,658.68c-.49-.82-1.94-2.19-1.82.15S306,659.49,305.53,658.68Z" transform="translate(0 -1.54)"/><path class="cls-40" d="M310.65,661.12c.15.89,1,2.6,1.66.48S310.49,660.23,310.65,661.12Z" transform="translate(0 -1.54)"/><path class="cls-40" d="M308.1,660.33c-1.29-.26-2.69,0-1,2a3.34,3.34,0,0,0,.49.5c-.47.16-.62.55.33,1.32,1.36,1.1,1.75-.3,1.42-1,.85.42,1.59.24,1.19-1.86S308.79,659.47,308.1,660.33Z" transform="translate(0 -1.54)"/><path class="cls-40" d="M307.73,665.47c-1.1.32-3.15,1.59-.38,2.17S308.83,665.15,307.73,665.47Z" transform="translate(0 -1.54)"/><path class="cls-40" d="M305.53,664.17c.19-.12.36-.44.46-1.1.34-2.24-2.05-1.07-1.75-.2a3.78,3.78,0,0,0,.38.75c-.57.18-1.09,1-.78,1.4.54.79,2.1,2.08,1.82-.28A1.92,1.92,0,0,0,305.53,664.17Z" transform="translate(0 -1.54)"/><path class="cls-40" d="M301,664.32c-3.1-1.69-2.7,2.52-1.24,2.56a7.1,7.1,0,0,0,.88-.06c1.05,3.22,3.76,0,2.74-1.13A4.08,4.08,0,0,0,301,664.32Z" transform="translate(0 -1.54)"/><path class="cls-40" d="M296.55,666.85c.42,1.85,1.92.21,1.42-.37S296.12,665,296.55,666.85Z" transform="translate(0 -1.54)"/><path class="cls-40" d="M300.73,660.85a.64.64,0,0,0,0-.07h0a1.11,1.11,0,0,0,.65,1c1.33.39,4.25.44,1.8-2-.66-.65-1.18-.82-1.58-.74-.43-.39-1.34-.46-1.57,0,0,0,0,0,0,0a.56.56,0,0,0-.71-.24c.82-1.17,1.11-2.52-1.47-2a4.5,4.5,0,0,0-.5-.59,1.68,1.68,0,0,0-1.14-.61s0-.06,0-.09c-.35-1-1.64-2.91-2.06-.27-.25,1.5.56,1.72,1.24,1.43a1.06,1.06,0,0,0,.49,1.1h0a1,1,0,0,0-1,.41c-.42,1-.7,3.26,1.38,1.56l.17-.16a2.19,2.19,0,0,0,1.26.55,1.59,1.59,0,0,0-.18,1.06c-.65-1.22-3.25-.37-3.14.86.14,1.65,1.36,4.9,3,1.14a2.56,2.56,0,0,0,.24-1.85.78.78,0,0,0,.11.2C298.66,662.9,301.55,664.91,300.73,660.85Z" transform="translate(0 -1.54)"/><path class="cls-40" d="M294.19,659.11c-.26-1.08-1.38-3.12-2.08-.47S294.44,660.18,294.19,659.11Z" transform="translate(0 -1.54)"/><path class="cls-40" d="M290.73,657.16l-.22-.06c.24-.23.17-.65-.61-1.36a1.44,1.44,0,0,0-1.11-.52.59.59,0,0,0-.33-.24c-.92-.19-2.89,0-1.1,1.43a1.62,1.62,0,0,0,.87.43.6.6,0,0,0,.4.38,2.77,2.77,0,0,0,.53.1c-.46.64.18,2,.93,1.91C291.2,659.06,293.36,658.08,290.73,657.16Z" transform="translate(0 -1.54)"/><path class="cls-40" d="M289,653.92c.46-.47,1.05-1.47.57-1.76a.42.42,0,0,0,.32-.18,2.76,2.76,0,0,0,.39-.91c.52-.27.92-.75.79-1.21-.34-1.21-1.72-3.48-2.38-.43a1.88,1.88,0,0,0,.12,1.51c-.59.49-.24,1,.23,1.16a3.84,3.84,0,0,0-.65.15C286.18,653,288.31,654.58,289,653.92Z" transform="translate(0 -1.54)"/><path class="cls-40" d="M279.11,679.81c-1.26.34-3.61,1.76-.46,2.47S280.37,679.46,279.11,679.81Z" transform="translate(0 -1.54)"/><path class="cls-40" d="M275.55,655.15c1.2-1.57-1.11-1.68-1.25-.89S274.35,656.71,275.55,655.15Z" transform="translate(0 -1.54)"/><path class="cls-40" d="M280.36,651.86c.1.8.47,1.35,1.28.92a1,1,0,0,0-.06.6c-.29,1,.32,2.47,1.25,2.45,1.47,0,4.26-.87,2.14-2.36a1.32,1.32,0,0,0,.54-1.34,6.41,6.41,0,0,0-.64-1.37c.67-.28.79-1-.56-2.48-1.95-2.14-3.08-.51-3.06.89a1.09,1.09,0,0,0-.76.69s0,.07,0,.1a.48.48,0,0,0-.22.2C279.92,650.75,279.6,652,280.36,651.86Z" transform="translate(0 -1.54)"/><path class="cls-40" d="M277.76,656c.18-2-1.88-.83-1.56-.09S277.58,658,277.76,656Z" transform="translate(0 -1.54)"/><path class="cls-40" d="M282,656.41c-1.65,1,.43,1.92.83,1.25S283.65,655.39,282,656.41Z" transform="translate(0 -1.54)"/><path class="cls-40" d="M280.21,662.25a7.15,7.15,0,0,0,1.24-.84,3.29,3.29,0,0,0,1.29-1.11c.13.82,1.48,1.56,2.05,1a4.55,4.55,0,0,0,.93-1.31,4.14,4.14,0,0,0,1.3-.18c-.11.33.13.63,1.15.7,1.75.12,1.28-1.26.6-1.66.88-1.28-1.57-2.93-2.48-2a5.29,5.29,0,0,0-1.32,2,5.23,5.23,0,0,0-.92.18,1.83,1.83,0,0,0-1.22.78c-.09-.43-.66-.83-2.05-1.1l-.47-.06c.23-.09.5-.39.82-1,1.16-2.32-1.86-1.89-1.84-.84,0,.61.24,1.58.66,1.82a1.46,1.46,0,0,0-1.45.64C276.85,660.2,279,662.89,280.21,662.25Z" transform="translate(0 -1.54)"/><path class="cls-40" d="M289.14,662.51c-1.34-.49-4.14-.74-2.89,1.28a1.54,1.54,0,0,0-.88.55,1.14,1.14,0,0,0-1-.3,3.77,3.77,0,0,0-.44-1.19c-.43-.81-.88-1.09-1.27-1.09-.24-.26-.73-.22-1.63.47-1.83,1.39-.21,2.34.81,2.16-.24,1.22-.09,3,1.67,1.33.11.24.46.31,1.26,0a1.34,1.34,0,0,0,.8-.59,2.68,2.68,0,0,0,.42.36,1,1,0,0,0-.15,1.07,4.88,4.88,0,0,0,.88,1s-.05,0-.08.06a2.17,2.17,0,0,0-1.88,1,4.06,4.06,0,0,0-1.9.37,5.07,5.07,0,0,0-.81.41c.27-2-2-1-1.71-.12a2.72,2.72,0,0,0,.85,1.26c-.12,1.28,2.17,2.41,3,1.5a6.63,6.63,0,0,0,.91-1.4q.13.2.3.39c0,.45.25.9.62.94a4,4,0,0,0,.68,0,.62.62,0,0,0,.38-.07c.45-.11.77-.33.62-.69.63.24,1.15-.14,1.11-2,0-1-.32-1.58-.71-1.8a3.52,3.52,0,0,0,0-1.11.44.44,0,0,0,0-.1.86.86,0,0,0,.49-.5C290,665.6,290.27,662.93,289.14,662.51Z" transform="translate(0 -1.54)"/><path class="cls-40" d="M283.78,673.44c-.5-.86-1.88-1.44-2.6-1l-.49-.33c-1.67-1-2.46-.42-2.64.47a.31.31,0,0,0-.19,0c.08-1.24-.22-2.88-1.45-2a.83.83,0,0,0-.6-.06,3.29,3.29,0,0,0-.48.15,3.39,3.39,0,0,0-.6-.64,1.08,1.08,0,0,0,.7-.73c.25-1.09.25-3-.59-3.23A1.05,1.05,0,0,0,275,665c-.75-1.12-2.92-2.94-2.56.37a4,4,0,0,0,.12.6.68.68,0,0,0,.31.68.91.91,0,0,0,.48.32c-.13.13-.26.27-.4.44-.73.84-.9,1.49-.76,2-.33.27-.42.6,0,.92a1.31,1.31,0,0,0,.05.6c-.48.25-.85,1-.52,1.36a2.4,2.4,0,0,0,1.31.79,1.88,1.88,0,0,0,.16.49,5.09,5.09,0,0,0-.7.49,2.9,2.9,0,0,0-.43.43c-.31-.93-1.09-.64-1.49-.13.1-.9-.45-1.45-2.54-.55l-.12.06c-.1-.81-.62-1.63-1.29-1.6h-.22c-.34-1.79-1.57-4.29-3.07-.66a4.78,4.78,0,0,0-.27.92c-.44-.21-.84,0-.88,1.33-.07,2.18,1.73,1.35,2,.47h0a5,5,0,0,0,1.18.73l.17.07s0,0,0,0c-2.69-1-2.44,3.15-.86,3.29a4.82,4.82,0,0,0,2.94-.57c-1,1.13,1.28,2.51,2,1.7.89-1,2.13-3.45-.94-2.35a2.85,2.85,0,0,0-.9.49.67.67,0,0,0,.13-.5l.23-.17a1.27,1.27,0,0,0,1.28-.31,6.88,6.88,0,0,0,.93-1.63.49.49,0,0,0,0,.11c.39.57,1.33,1.42,1.66.83.63.45,1.79.45,2.05-.18a4.94,4.94,0,0,0,.3-1.12c.92.09,2.12-.05,2.13-.7a1.8,1.8,0,0,0,.78-.25c-.14,1.15.67,1.14,1.18.79a1,1,0,0,0,.61.32h.58c-.22,1,.25,1.62,2.51.83a4.11,4.11,0,0,0,.63-.27c.43.22,1,.24,1.21-.09C284.54,674.63,285.08,673,283.78,673.44Z" transform="translate(0 -1.54)"/><path class="cls-40" d="M270.38,669c1-.33,2.85-1.55.28-2S269.37,669.32,270.38,669Z" transform="translate(0 -1.54)"/><path class="cls-40" d="M267.5,662.47c1.82-1.68-1-2.31-1.36-1.36S265.68,664.16,267.5,662.47Z" transform="translate(0 -1.54)"/><path class="cls-40" d="M336.59,659.21c-4,1.69.29,4.46,1.42,3.09S340.62,657.53,336.59,659.21Z" transform="translate(0 -1.54)"/><path class="cls-40" d="M264,665.38a4.25,4.25,0,0,0,.52-.52c-.44,1.53-.49,4.08,2,2a2.64,2.64,0,0,0,.54-.16c1,.69,2.08.78,1.63-1.74-.41-2.26-1.74-2-2.49-1.11a1.89,1.89,0,0,0-1.23.26c.12-.44-.14-.76-1.33-.55C261.27,664,263.22,666,264,665.38Z" transform="translate(0 -1.54)"/></g><g class="cls-41"><path class="cls-42" d="M274.11,660.4c-1.6-2.51-2.28-.88-2.4.57a2,2,0,0,0-.54.06c.49-.18.07-1.14-.29-1.6-.5-.65-2.53.57-.7,1.4a1.84,1.84,0,0,0,.92.22.93.93,0,0,0-.73,1,4.5,4.5,0,0,0-.38-.3c-.71-.51-2,.44-2.17,1.37a1.17,1.17,0,0,0,.33,1.43c.26.52,1.23.91,1.35-.06h0c1.25.17,1.81,0,2-.37,1.06,1.05,1.54-.18,1.65-1.34C274.22,662.89,275.28,662.22,274.11,660.4Z" transform="translate(0 -1.54)"/><path class="cls-42" d="M276.22,665.93l-.1.34a6.41,6.41,0,0,0-1.3,1.49,1.38,1.38,0,0,0,.37,1.54c-.81.8-.49,1.15.09,1.25a1.27,1.27,0,0,0-.26.45l-.48,0c-1.14.1-1.44,2.72-.06,2.88.52.4,1.29.49,1.46-.43a2.58,2.58,0,0,0,.6-.48c.48-.39.69-.71.71-1l0,0c.25-.49-.19-1.15-.76-1.48A.67.67,0,0,0,277,670c.47-.18.86-.75.92-1.94,0-.3,0-.55,0-.78a4.87,4.87,0,0,0,.58-.44C279.39,666,277.24,663,276.22,665.93Z" transform="translate(0 -1.54)"/><path class="cls-42" d="M271.07,668.79c-.23-.44-.45-.6-.65-.58-.56-.57-1.54-.76-1.71.87a3.71,3.71,0,0,0,0,.8,1.58,1.58,0,0,0-.52,1.25.84.84,0,0,0-.44-.18c.48-1.24-1-3.89-2.74-1.18-.9,1.4-.78,2-.25,2.21-1,1.22,1,5,3,1.56a3.61,3.61,0,0,0,.65-1.93,2.57,2.57,0,0,0,1.56.72c2.38.41,2.5-.47,2-1.42.28-.13.51-.49.56-1.22C272.6,667.79,271.74,668.13,271.07,668.79Z" transform="translate(0 -1.54)"/><path class="cls-42" d="M261.65,669.22c-.34,1.16,2.9,2.54,2.29-.39S262,668.06,261.65,669.22Z" transform="translate(0 -1.54)"/><path class="cls-42" d="M264.55,665.76c-.32,1.92,1,.93,1.47.31.2-.26,0-.68-.25-1,1.07-.12.17-1.25-.42-1.7s-2.36,1.2-.51,1.62A1.39,1.39,0,0,0,264.55,665.76Z" transform="translate(0 -1.54)"/><path class="cls-42" d="M267.8,659.92c.84-1.89-.79-1.22-1.44-.71S267,661.81,267.8,659.92Z" transform="translate(0 -1.54)"/><path class="cls-42" d="M274.71,655.86c-2.09-3-2.57.08-2.39,1.55S276.81,658.87,274.71,655.86Z" transform="translate(0 -1.54)"/><path class="cls-42" d="M282.65,676.11c-1.87,2.12.53,1.91,1.59,1.51S284.51,674,282.65,676.11Z" transform="translate(0 -1.54)"/><path class="cls-42" d="M296,673.4c-1,2.14.86,1.43,1.64.86S297.08,671.25,296,673.4Z" transform="translate(0 -1.54)"/><path class="cls-42" d="M273.76,654.12c.83.21,1.7-2.12-.35-1.6S272.93,653.93,273.76,654.12Z" transform="translate(0 -1.54)"/><path class="cls-42" d="M277.55,654.79c1.64-1,1.62-1.65,1-2a5.94,5.94,0,0,0,.35-.88.73.73,0,0,0,0-.36c.3-.54-.56-1.59-1.19-1.24-1-.4-2.19-.09-1.77,2C274.62,652.72,274.5,656.66,277.55,654.79Z" transform="translate(0 -1.54)"/><path class="cls-42" d="M280.82,652.17c-.42,1.87,0,2.47.62,2.46l.26.22c.4.31,1.2-.3,1.14-.82a6.88,6.88,0,0,0,1.15-1c.71-.83-.39-2.6-1.52-2.73,0,0,0,0,0-.06-.34-1-3.23-.34-1.46,1.37A5.83,5.83,0,0,0,280.82,652.17Z" transform="translate(0 -1.54)"/><path class="cls-42" d="M280.78,656.94l.42.19a3.18,3.18,0,0,0,.19.94,5,5,0,0,0,.33.75,2.18,2.18,0,0,0-.05.39c-.17,2.43,1.36,1,1.88.19a.78.78,0,0,0-.12-.84,4.76,4.76,0,0,0,.37-1.23.82.82,0,0,0-.3-.73.52.52,0,0,0,0-.18c.18-1.77-.72-1.31-1.33-.68a4.4,4.4,0,0,0-.41-.72C281.12,654.11,278.26,655.72,280.78,656.94Z" transform="translate(0 -1.54)"/><path class="cls-42" d="M286.72,661.52c.42-1.78-.89-.93-1.37-.38S286.3,663.31,286.72,661.52Z" transform="translate(0 -1.54)"/><path class="cls-42" d="M280.62,663.12l-.26-.14a1.74,1.74,0,0,0-.27-1.19c.52-.69.71-1.67-.12-2.1.08-.71-.34-1.35-1.77-.91-1.12.34-1.42.73-1.33,1.08-.73.39-.48,1,.1,1.56a3.92,3.92,0,0,0,.17,1.16c-1.31,1.26.3,1.75,1.61,1.78a.7.7,0,0,0,.14.36c-.46.56,0,.87.58,1,.12,1.15,2,.36,2.93-.3S282,661.9,280.62,663.12Z" transform="translate(0 -1.54)"/><path class="cls-42" d="M283,666.58c-.83-.83-3.78.64-1.2,2.16l.23.12a4.11,4.11,0,0,0,.16.67c.45,1.45,4.8.63,2.12-2A3.86,3.86,0,0,0,283,666.58Z" transform="translate(0 -1.54)"/><path class="cls-42" d="M288.22,669c.82-.75,1.13-2.14-1.12-2.36-3.1-.29-1.94,1.43-.81,2.38a5.61,5.61,0,0,0-.7,1.28c-.35,1,1.7,2.26,2.38,1.19.81.34,2.12,0,1.17-1.56C288.77,669.3,288.47,669,288.22,669Z" transform="translate(0 -1.54)"/><path class="cls-42" d="M290.41,667.55c-2.55-.75-1.42,1.21-.65,2S293,668.29,290.41,667.55Z" transform="translate(0 -1.54)"/><path class="cls-42" d="M293.38,666c-.78-.49-2.32,1.18-1.19,1.86-.53,1.86,1.15,1,1.83.39a.57.57,0,0,0,.12-.18C295.4,667.78,294.17,666.49,293.38,666Z" transform="translate(0 -1.54)"/><path class="cls-42" d="M292.5,655.29a1.08,1.08,0,0,0-.19.9,2.09,2.09,0,0,0-1.38,1.72,1.93,1.93,0,0,0-.7-.79,5.68,5.68,0,0,0,.49-1.29c.33-.29.26-1.22.1-1.76a.57.57,0,0,0-.31-.34c1.38-.11,3.17-2.77-.17-3.09a4.57,4.57,0,0,0-1.44,0l-.25-.16c-2-1.08-1.41.76-.9,1.52a.75.75,0,0,0,.79.22A5.93,5.93,0,0,0,290,653.6l0,0c-.61,0-1.26.37-.91,1.1a6,6,0,0,0-1,.38,4.37,4.37,0,0,0,1-1.17c.57-1-2.23-3-2.27-.12,0,1.35.34,1.7.78,1.59l-.27.18c-.74.52-.41,2,.35,2.71a3.91,3.91,0,0,0,.09.85c.34,1.71.87,2.19,1.41,2.07l.09.08h-.05c-1.29-.17-1.1.43-.68.92l-.12.16c-.35.51-.43.84-.36,1-.37-.44-1-.54-1.68.5-.07.1-.12.2-.18.29a2.81,2.81,0,0,0-.46-.05c.6-.29,1.09-1.26-.33-1.46-1.9-.27-.89,1-.25,1.47h0c-1.83.2-.43,1.49.41,1.92.38.2.89-.12,1.17-.56a4,4,0,0,0,1.29-.41c.46-.25.43-1.05.11-1.56.32.23,1.13,0,1.58-.24a.58.58,0,0,0,.17-.18,2,2,0,0,0,.44.82c1.59,2,1.78-.18,1.58-1.19-.06-.35-.46-.54-.89-.58,1.18-.22,2.46-2.22,1-3a3.91,3.91,0,0,0,1.11,0c1.88-.31,2.16-.92,1.79-1.52a3.11,3.11,0,0,0,.71-1.54C296.52,652,293.59,654,292.5,655.29ZM290,662.56a1.43,1.43,0,0,0-.07-.28.68.68,0,0,0,.15-.39l.35.21a1.14,1.14,0,0,0,.26.09A1,1,0,0,0,290,662.56Zm.92-3.63c0-.11.08-.22.11-.32s0,0,0-.06a1,1,0,0,0,.4.45A3.64,3.64,0,0,0,290.9,658.93Z" transform="translate(0 -1.54)"/><path class="cls-42" d="M294.67,649.09c-1.52-1.67-1.56.25-1.34,1.13S296.19,650.76,294.67,649.09Z" transform="translate(0 -1.54)"/><path class="cls-42" d="M288.49,647.81a4.39,4.39,0,0,0-.17,1.72c.13,1.12,3.12,1.23,2.3-.69.5.23,1.07.06,1.11-1.1.07-1.94-.91-1.28-1.5-.54.25-.42.14-1-.76-1.71-2.5-1.93-2.1.72-1.57,1.89A.79.79,0,0,0,288.49,647.81Zm1.62-.46-.17.26a1.12,1.12,0,0,0-.05.13l-.11-.12A1.49,1.49,0,0,0,290.11,647.35Z" transform="translate(0 -1.54)"/><path class="cls-42" d="M293.85,644.3a5.49,5.49,0,0,0-.07,1.55c.14,1.14,3,1.29,2.65-.39a1.6,1.6,0,0,0,.74-.5,2.55,2.55,0,0,0,.13.29,3.35,3.35,0,0,0-1.15,1.34c-.48,1,2.15,2.68,2.08,0a3.5,3.5,0,0,0-.14-1c.73-.08,1.55-.8.45-1.59.82.22,2.3-.54.78-1.74-.6-.48-1-.6-1.21-.5.22-.54,0-1.19-1.25-1.77-2.74-1.31-2.39.52-1.69,1.83a1.37,1.37,0,0,0-1.16,1C293.3,643.32,293.4,643.83,293.85,644.3Zm4-2.11a3,3,0,0,0,.25,1.53.39.39,0,0,0,.08.1,3.9,3.9,0,0,0-.44-.2,1.08,1.08,0,0,0-.43-1A2.2,2.2,0,0,0,297.86,642.19Z" transform="translate(0 -1.54)"/><path class="cls-42" d="M299.86,641.56c.8.08,1.51-.43,1.09-2.1-.87-3.46-2.36-.82-2.7.57a.79.79,0,0,0,0,.43C298.13,641.29,298.76,642.52,299.86,641.56Z" transform="translate(0 -1.54)"/><path class="cls-42" d="M300.43,648.55c-.64-.61-2.07.65-2.7,1.53s1.1,3,2.21,2.15a6.13,6.13,0,0,0,1.35.51,1.41,1.41,0,0,0,1.39-.84,3,3,0,0,0,.52-.23,1.09,1.09,0,0,0,0,.25,3.49,3.49,0,0,0-.58.24c-.9.47.16,3.24,1.58,1.16a3.38,3.38,0,0,0,.27-.46,5.73,5.73,0,0,0,.8.09c4.1.15,1.66-2.35.22-3.18-.53-.31-1.27,0-1.77.59a2,2,0,0,0-.37-.63c.77.11,1.51-.4,1.53-2.18,0-.14,0-.25,0-.37.69-.16,1.28-.81.13-1.68-.87-.67-1.25-.56-1.37-.18a1.7,1.7,0,0,0-.42.22,2.09,2.09,0,0,0-.09-.41c-.21-.71-2.31-.33-1,1l.27.25a6.56,6.56,0,0,0-.75,1.07,1.14,1.14,0,0,0,0,1C301,648.1,300.62,648.21,300.43,648.55Z" transform="translate(0 -1.54)"/><path class="cls-42" d="M303.07,661.39c-1.63,2,.52,1.71,1.48,1.31S304.69,659.42,303.07,661.39Z" transform="translate(0 -1.54)"/><path class="cls-42" d="M306.12,664.57c-1.17.86.9,4.53,2.46,1.31S307.28,663.71,306.12,664.57Z" transform="translate(0 -1.54)"/><path class="cls-42" d="M310.43,660.71l0,0a3.47,3.47,0,0,0-.33-.41,2.17,2.17,0,0,0,.05-.91c.71-.1.24-1.36-.17-2-.26-.38-1-.29-1.4,0-.4-.34-1.27-.19-2.07.11a3.35,3.35,0,0,0-.09-.37c-.2-.6-1.35-.63-1.86-.17l-.22.09a1.24,1.24,0,0,0-.31,0c.2-1.15,0-1.64-.47-1.75.66-.6-.63-1.16-1.37-1.29s-1.13,1-.81,1.54a2.81,2.81,0,0,0-.85-.4l-.31-.09a5.19,5.19,0,0,0-.29-1.84c-.49-1.42-4.75-.48-2,2a5.62,5.62,0,0,0,.77.61,4.47,4.47,0,0,0,1,1.64,1,1,0,0,0,1,.15c.19,1.2,1.76,2.62,2.75,1.16a5.66,5.66,0,0,0,.47,1.21,1.2,1.2,0,0,0,1.27.46.49.49,0,0,0,.4.11,1.15,1.15,0,0,0,1.29.44,5.36,5.36,0,0,0,2.06.46,1.88,1.88,0,0,0,.6.26,2.51,2.51,0,0,0,.77.11c.37,1.2,1.89,2.34,2.82-.12C314.35,658.38,311.54,659.74,310.43,660.71Zm-8.53-4.8-.16.12a.94.94,0,0,0-.12-.18A.77.77,0,0,0,301.9,655.91Z" transform="translate(0 -1.54)"/><path class="cls-42" d="M315.7,650a2.13,2.13,0,0,0-.3-.94c.48-1.13-1.5-3.66-2.6-.75-.52,1.35-.34,1.89.12,2a5.08,5.08,0,0,0-.8.23c-.88.33-.74,2.21.15,2.65l-.19.17c-.43.42-.15,1.3.36,1.79-.69.15-1.12,1.66-.26,1.91a1.66,1.66,0,0,0-.78.76c-1.27,2.11.75,1.56,1.6,1,.54-.33.27-1.5-.33-1.79a2.69,2.69,0,0,0,.57-.15c1.61-.64,1.11-1.22.32-1.54a2,2,0,0,0,.8-1.19,2.28,2.28,0,0,0,.16-1.56h0a.81.81,0,0,0,0-.74,2.73,2.73,0,0,0,.35-.63C315.37,651.37,315.86,651.1,315.7,650Zm-1.71.11,0,.09v0h-.23A1.53,1.53,0,0,0,314,650.11Z" transform="translate(0 -1.54)"/><path class="cls-42" d="M308.94,647.65a4,4,0,0,0-.05.56c0,.94,2.58,1.27,1.81-.57.75-.37-.28-1.41-.95-1.83S307.41,647.17,308.94,647.65Z" transform="translate(0 -1.54)"/><path class="cls-42" d="M310.9,644.64h0c-1.06.43-.21,3.63,1.62,1.48v0c1.59.44,2,0,1.91-.63.5-.58.3-2.18,0-3.11a.89.89,0,0,0-.35-.44c.14-3.48-2.28-1.32-3.13,0a1.43,1.43,0,0,0,.36,1.61c0,.09.09.18.14.27A1.52,1.52,0,0,0,310.9,644.64Z" transform="translate(0 -1.54)"/><path class="cls-42" d="M313.34,639.84c1.13,1,1.32.27,1.22-.48.36.32,1.13.39,1.36,0a.78.78,0,0,0,.17.28c-2.07,1.79.36,2.18,1.8,2a2,2,0,0,0,1,.32,1.82,1.82,0,0,0,.27.15.67.67,0,0,0,.19,0c.13.68,1.63,1,2.55,1.06a.87.87,0,0,0,.57-.25,2.55,2.55,0,0,0,.44.29c.72.38,2.07-1.56.12-1.6.05-.94-.55-1.8-2.29-.92l-.21.12a2.53,2.53,0,0,0-.66-1.56c-1-1.32-1.65-1.46-2-1.07a.41.41,0,0,0-.48-.24,2.71,2.71,0,0,0-1.23.21.49.49,0,0,0-.28.33,2,2,0,0,0-.1-.21c-.83-1.57-1.29-.46-1.38.37C314,638,311.92,638.54,313.34,639.84Z" transform="translate(0 -1.54)"/><path class="cls-42" d="M309.7,638.65c2.68.4,1.26-1.42.38-2.07S307,638.25,309.7,638.65Z" transform="translate(0 -1.54)"/><path class="cls-42" d="M310.72,636.9l.12,0c.05.46.47.88,1.57,1,3.17.29,1.39-1.75.31-2.46a.72.72,0,0,0-.56-.08c-.14-.34-.54-.58-1.38-.58C308.08,634.82,309.75,636.4,310.72,636.9Z" transform="translate(0 -1.54)"/><path class="cls-42" d="M317.52,637a.51.51,0,0,0,.23-.39,2.08,2.08,0,0,0,.93,0c1.15.63,3.22.32,2-2.17a3.23,3.23,0,0,0-1.05-1.38l.08-.17c.7-1.61-.68-1-1.23-.58a.53.53,0,0,0-.12.58,1.74,1.74,0,0,0-.12.14l-.05.07c-2.17-1.05-1.93,1-1.35,2.43a1.43,1.43,0,0,0-.58.58C315.14,637.81,316.81,637.39,317.52,637Z" transform="translate(0 -1.54)"/><path class="cls-42" d="M317.86,643c-1.29-.58-3.4,3,.09,2.72S319.15,643.62,317.86,643Z" transform="translate(0 -1.54)"/><path class="cls-42" d="M322.19,644.8c-.6.15-1.06.71-.11,1.58s1.39.52,1.4-.16a3.38,3.38,0,0,0,.58.08c3.78.25,1.61-2.12.31-2.92C323.62,642.91,322.4,643.86,322.19,644.8Z" transform="translate(0 -1.54)"/><path class="cls-42" d="M319.43,647c-3.22-2.48-2.69.94-2,2.43S322.66,649.42,319.43,647Z" transform="translate(0 -1.54)"/><path class="cls-42" d="M323.37,647.16c-.52-.44-1.82.62-1,1.22a5.11,5.11,0,0,0-.81,1.27.78.78,0,0,0,0,.4c-.45.73.12,1,.83,1,.64.36,1.44.36,1.67-.61a1.58,1.58,0,0,0,0-1,4.34,4.34,0,0,0-.13-.78C324.48,648.46,323.83,647.56,323.37,647.16Z" transform="translate(0 -1.54)"/><path class="cls-42" d="M324.5,650.59c.14.92,2.83.83,1.47-1S324.37,649.68,324.5,650.59Z" transform="translate(0 -1.54)"/><path class="cls-42" d="M320,653.64c.06-.63-.1-.95-.38-1.06-.06-.12-.11-.22-.17-.32-.56-.92-3,0-2.22,1.3-.09.07-.16.15-.24.21-.43.43-.26,1.23.17,1.83a.14.14,0,0,1,0,.07h-.06c-.48,0-.86.43-1.05,1h0a.66.66,0,0,0-.68.38c-.66-.22-1.36.06-1.19,1.5,0,.17.05.31.07.44-.57.71-.54,2.34,1.3,1.55,1.54-.65,1.2-1.21.49-1.54a3.41,3.41,0,0,0,.29-.57c.36.29,1,.34,2-.15,2-1,1.66-1.71.79-2.13.1-.11.2-.22.31-.36.52-.66.69-1.11.65-1.41A1.91,1.91,0,0,0,320,653.64Z" transform="translate(0 -1.54)"/><path class="cls-42" d="M321.2,657c1.83,1.17,1.4-.63,1-1.39S319.37,655.82,321.2,657Z" transform="translate(0 -1.54)"/><path class="cls-42" d="M325.53,655a3.21,3.21,0,0,0,.07-.67c0-2.59-1.2-1.88-2-.9-1-.22-2.27.31-1.23,2.22s1.67,1.52,2,.67c.19.74,1.36,1.55,1.7-.12C326.34,655,326,654.83,325.53,655Z" transform="translate(0 -1.54)"/><path class="cls-42" d="M327.05,657.07c-1,.44-.11,3.56,1.62,1.4S328.07,656.63,327.05,657.07Z" transform="translate(0 -1.54)"/><path class="cls-42" d="M328.25,653.75a3.62,3.62,0,0,0-.18-.8c-.31-.84-2.84-.24-1.19,1.24.48.43.8.57,1,.54a2.37,2.37,0,0,0,.25.51c1.25,2,1.63,0,1.55-.92C329.65,653.8,328.79,653.54,328.25,653.75Z" transform="translate(0 -1.54)"/><path class="cls-42" d="M331.38,652.06a3.94,3.94,0,0,0-.94,2.51c-.09,1.45,3.95,2.22,2.76-.85a4.92,4.92,0,0,0,.69-.5C335,652.28,332.67,648.88,331.38,652.06Z" transform="translate(0 -1.54)"/><path class="cls-42" d="M335,651.79c0,.75,2.14,1.06,1.31-.59S335,651.05,335,651.79Z" transform="translate(0 -1.54)"/><path class="cls-42" d="M332.28,647.89a.78.78,0,0,0,0-.21,2.48,2.48,0,0,0,1.33,1.24c3.52,1.84,2.43-1.36,1.52-2.69-.68-1-3.17,0-2.9,1.3a1.55,1.55,0,0,0-.79-.69,2.16,2.16,0,0,0,.61-1.19h.23c2.61,0,1-1.53.07-2a.91.91,0,0,0-1,.34h0a1,1,0,0,0-.3-1.13c.69-.21,1.16-.86.05-1.84-2-1.73-1.76.48-1.39,1.47a.35.35,0,0,0,.05.08,1.58,1.58,0,0,0-.48,1.17,3.25,3.25,0,0,0,0,.75c-2.25,1.23-1.2,2.06.15,2.44a.54.54,0,0,0-.39.61l-.05,0c-.46-.22-1.1.39-1.19,1-.35.19-.64.65-.73,1.54-.36,3.33,1.82,1.49,2.57.37a1,1,0,0,0-.12-1.15h0l0,.06C331.35,652.83,332.28,649.53,332.28,647.89Z" transform="translate(0 -1.54)"/><path class="cls-42" d="M333.31,643.91c.47,1,3.43-.08,1.27-1.64S332.83,642.94,333.31,643.91Z" transform="translate(0 -1.54)"/><path class="cls-42" d="M336,639.45a3.78,3.78,0,0,0,.34-.39.6.6,0,0,0,.07-.54,1.53,1.53,0,0,0,.39-.86c.43-2.22-1.13-1.11-1.71-.4a.56.56,0,0,0-.1.38,1.42,1.42,0,0,0-.52,1.08c-.15,1,.06,1.38.39,1.4,0,.06-.09.11-.13.18-1.41,2.32.81,1.73,1.76,1.17C337.1,641.09,336.72,639.66,336,639.45Z" transform="translate(0 -1.54)"/><path class="cls-42" d="M339.14,640a4,4,0,0,0,1.09-.67,4.48,4.48,0,0,0,1.51.41c.77.06,1.33-1.33.92-2a3.21,3.21,0,0,0,1.65,0,6.52,6.52,0,0,0,1.46-.14c1.35-.3,1.26-3.61-.56-3.31a1.45,1.45,0,0,0-1.48.42c.16-.44-.27-1.31-.64-1.78-.63-.8-3.17.75-.86,1.77a1.92,1.92,0,0,0,1.24.25c-.1.11-.21.21-.32.34-.88,1.07-1.06,1.72-.86,2.1a1.77,1.77,0,0,0-1.4.17,4.42,4.42,0,0,0-.8.42,5.45,5.45,0,0,0-2.25-.71c-1.24-.1-2.06,2.65-.6,3.08-.27.72.23,2,1.47.87C339.44,640.57,339.43,640.2,339.14,640Z" transform="translate(0 -1.54)"/><path class="cls-42" d="M331.3,635.42a2.75,2.75,0,0,0,.87.44.41.41,0,0,0,.35-.07c-.21.52.87.91,1.52,1,.89.1,1.49-2.44-.58-1.63a2.82,2.82,0,0,0-.58.29c.23-.43.19-1-.55-1a1.78,1.78,0,0,0-.83-1.23c-2.39-1.89-2,.67-1.53,1.8C330.15,635.42,330.76,635.54,331.3,635.42Z" transform="translate(0 -1.54)"/><path class="cls-42" d="M335.13,631.64a7.1,7.1,0,0,0,.39,1.66,1.3,1.3,0,0,0,1.24.67c-.68,2.43,1.94,1.33,3.07.45.71-.56.25-2.06-.58-2.62a1,1,0,0,0-.4-.41c.87-.18.8-.82.39-1.48.62-.4-.36-1.11-1-1.35a.41.41,0,0,0-.29,0l-.08-.07c-.64-.47-1.78.2-2.18,1a4.35,4.35,0,0,0-.75.4C334.5,630.25,334.68,631.16,335.13,631.64Z" transform="translate(0 -1.54)"/><path class="cls-42" d="M343.37,655l0,0c.77-.31,1.18-1.12,0-2.52-2.24-2.75-2.62-.16-2.42,1.44-1.19.39-2.27,2.67-.39,3.13a1.76,1.76,0,0,0-.14.23c-.62,1.23-.46,1.72,0,1.83.1.32.49.25.87.06a3.84,3.84,0,0,0-.17,1c-.21,4.08,2.31,1.69,3.16.27.38-.64-.2-1.59-1-2.06a2.55,2.55,0,0,0,1.32-1.55,3.19,3.19,0,0,0,.27-.33C346.48,654.28,344.49,654.53,343.37,655Z" transform="translate(0 -1.54)"/><path class="cls-42" d="M342.59,649.53c.8-1.11-2.12-3.78-2.57-.45S341.8,650.63,342.59,649.53Z" transform="translate(0 -1.54)"/><path class="cls-42" d="M344.88,629.41c1.87.43,1-.93.39-1.44S343,629,344.88,629.41Z" transform="translate(0 -1.54)"/><path class="cls-42" d="M344.89,630.41c-.22-.76-2.49-.37-1.12,1S345.12,631.17,344.89,630.41Z" transform="translate(0 -1.54)"/><path class="cls-42" d="M341,635.8c.72.26,1.72-1.71-.14-1.46S340.24,635.54,341,635.8Z" transform="translate(0 -1.54)"/><path class="cls-42" d="M346.84,648.91a3.79,3.79,0,0,0,.51-.41c.26-.25.16-.74-.11-1.09a3.85,3.85,0,0,0,0-.48,6.42,6.42,0,0,0,1.55.49c1.16.2,2.19-2.07,1.31-3A2.51,2.51,0,0,0,350,643c-.31-.8-2.67-.22-1.22,1.14a5.17,5.17,0,0,0-.86.2,3.86,3.86,0,0,0-1.66.89,2.13,2.13,0,0,0-2,.43h-.1a4.28,4.28,0,0,0,.07-1.27c0-.35-.37-.6-.77-.71a5.24,5.24,0,0,0,.1-.53,1.35,1.35,0,0,0,1,0c.78-.27,1-.55.94-.79,2.34.14,1.36-1.26.43-2,.88-.5,1.52-2.21-.72-2.13-1.1,0-1.5.31-1.51.66-.3.23-.46.73-.29,1.6a3.58,3.58,0,0,0,.41,1.17,1.09,1.09,0,0,0-.54.82,1.43,1.43,0,0,0-1,.13c-.31-2.3-2.26-.38-3,.82-.6,1,1.29,2.82,2.35,2a.87.87,0,0,0,.67.08l0,.08a3.08,3.08,0,0,0,.71.82c-.16.41-.06,1,.57,1.79,1.1,1.41,1.73,1.37,2.05.8.11.37.49.33.9.14A.64.64,0,0,0,346.84,648.91Z" transform="translate(0 -1.54)"/><path class="cls-42" d="M361.12,641.32c-.08-.82-2.24-.94-1.7.45a3.54,3.54,0,0,0-.6,0,3.87,3.87,0,0,0-.82.06,2.21,2.21,0,0,0-.19-.47,2.44,2.44,0,0,0,.5-1.4c0-.48-.72-.82-1.23-.7a1.41,1.41,0,0,0-.33-.49c.14-.52-.14-.71-.55-.72-.19-.43-.72-.82-1.79-1-.21,0-.39-.06-.57-.08a.91.91,0,0,0,.16-.54.66.66,0,0,0-.18-.7,4.12,4.12,0,0,0-.29-.53c-1.77-2.71-2.27,0-2.15,1.3,0,.39.4.67.85.8-.51.68.68,2.13,1.54,2.8a1.07,1.07,0,0,0,1,.11,2.89,2.89,0,0,0-.06.85l-.46.18a.9.9,0,0,0-.41.43c-1.49.07-.7,1.49.13,2.37a.33.33,0,0,0-.14.12c-.7-.56-1.67-.53-2.28,1.28-.07.2-.12.38-.17.55-.84.08-1.52,1.37-1.37,2.32-1.22.51.16,1.37,1,1.61.37.12.77-.24,1-.68a4.39,4.39,0,0,0,.64-.19c2.18-.79,2.13-1.59,1.37-2.17a5.44,5.44,0,0,0,.43-.36.92.92,0,0,0,.26-.61c.61-.05,1.23-.55.41-1.33a1.78,1.78,0,0,0,.74-.3c.41.49,1.4-.15,2-.78a5.12,5.12,0,0,0,.92.66c.59.31,1.46-.41,1.66-1.14C361,643.21,361.18,642,361.12,641.32Z" transform="translate(0 -1.54)"/><path class="cls-42" d="M355.88,635.3c-1.65,1.93.51,1.71,1.46,1.33S357.54,633.36,355.88,635.3Z" transform="translate(0 -1.54)"/><path class="cls-42" d="M356.18,632.54c1.22,2.18,2,1.45,2.3.31a3.05,3.05,0,0,0,.5-.22c3.37,0,1.23-2.18-.05-2.93a1.37,1.37,0,0,0-1.56.47C356.28,630,355.09,630.59,356.18,632.54Z" transform="translate(0 -1.54)"/><path class="cls-42" d="M355.48,629.94c2.41.15,1-1.36.18-1.86S353.07,629.8,355.48,629.94Z" transform="translate(0 -1.54)"/><path class="cls-42" d="M347.62,653.17c-2,1.11-.12,1.6.81,1.58S349.62,652.05,347.62,653.17Z" transform="translate(0 -1.54)"/></g><path class="cls-7" d="M173.15,579.85v75.9a16.92,16.92,0,0,1-16.93,16.93h-39.9a16.92,16.92,0,0,1-16.93-16.93v-75.9A16.92,16.92,0,0,1,116,562.94V551.18h40.62v11.76A16.92,16.92,0,0,1,173.15,579.85Z" transform="translate(0 -1.54)"/><path class="cls-43" d="M158.15,547.89v3.87H114.39v-3.87a2.7,2.7,0,0,1,2.71-2.71h38.35A2.7,2.7,0,0,1,158.15,547.89Z" transform="translate(0 -1.54)"/><path class="cls-44" d="M161,554.47a2.71,2.71,0,0,1-2.7,2.7H114.22a2.69,2.69,0,0,1-1.91-4.61,2.75,2.75,0,0,1,1.91-.8h44.11A2.71,2.71,0,0,1,161,554.47Z" transform="translate(0 -1.54)"/><rect class="cls-45" x="95.54" y="583.81" width="81.47" height="6.95" rx="2.82" ry="2.82"/><rect class="cls-45" x="95.54" y="636.3" width="81.47" height="6.95" rx="2.82" ry="2.82"/><rect class="cls-46" x="98.36" y="590.76" width="75.83" height="45.55"/><g class="cls-47"><path class="cls-7" d="M156.12,621.43c-5.15-.64-9-1.5-14,.75a25.81,25.81,0,0,0-4.56,3c1.37-9.17,6.92-17.67,16.83-19.8,6.56-1.31,15.63,2,14.25,9.9C167.67,621.09,161.05,621.83,156.12,621.43Z" transform="translate(0 -1.54)"/></g><g class="cls-47"><path class="cls-7" d="M141,625.07c2.77-2.38,7.93-2.56,11.1-2,2.93.42,7.12,3.85,4.15,6.86C152.61,633.9,146.22,626,141,625.07Z" transform="translate(0 -1.54)"/></g><g class="cls-47"><path class="cls-7" d="M135.63,621.41a13.52,13.52,0,0,1-2.35-13c1-3.37,6.63-12.18,11.38-8.4,3.4,2.75-1.38,8.32-3.19,10.46C138.76,613.8,136.16,617,135.63,621.41Z" transform="translate(0 -1.54)"/></g><path class="cls-7" d="M116.21,624.87l2.64-12.51-5,12.51h-3.62v-11.3l-3.5,11.3h-2.12l5.93-18.18a5.89,5.89,0,0,0-4.26,6,3.79,3.79,0,0,0,.37,1.8c-1.82,0-2.83-.66-2.83-2.57,0-3.22,4.47-6.77,8.6-6.77a6,6,0,0,1,1.83.27v15.23L120,605.4h4.15L120,624.87Z" transform="translate(0 -1.54)"/><path class="cls-7" d="M129.09,611.64l-1.91,9a5.48,5.48,0,0,0-.1.83c0,.58.26,1,1.32,1s2.43-1.48,3.49-2.33h.9c-1.21,1.22-4.2,4.74-6.27,4.74s-3.3-.9-3.3-2.89a7.12,7.12,0,0,1,.15-1.35l1.91-9ZM127.87,606a2.11,2.11,0,1,1,0,4.21,2.11,2.11,0,0,1,0-4.21Z" transform="translate(0 -1.54)"/><path class="cls-7" d="M137.55,606.35l-3,14.28a4.76,4.76,0,0,0-.13.85c0,.58.29,1,1.32,1s2.43-1.48,3.49-2.33h.9c-1.22,1.22-4.21,4.74-6.27,4.74s-3.28-.9-3.28-2.89a6.46,6.46,0,0,1,.16-1.35l2.94-13.75Z" transform="translate(0 -1.54)"/><path class="cls-7" d="M150.86,611.64l-5.27,3.57c.21,0,.4-.05.61-.05a3.46,3.46,0,0,1,3.07,3.33,2.69,2.69,0,0,1-.08.61l-.34,1.53a5.93,5.93,0,0,0-.21,1.12c0,.45.21.76,1,.76a2.1,2.1,0,0,0,.69-.08c-.74,2.28-1.85,2.44-2.75,2.44-1.88,0-2.7-1.25-2.7-2.91a5.62,5.62,0,0,1,.16-1.33l.26-1.24a3.76,3.76,0,0,0,0-.61c0-.84-.36-1.64-1.19-1.64a2.64,2.64,0,0,0-1.63.56L141,624.87h-3.81l3.83-18,3.92-.53-2,9.23c2-1.56,5-4,5-3.94Z" transform="translate(0 -1.54)"/><path class="cls-48" d="M174.19,592.3v45.54a2.82,2.82,0,0,1,2.82,2.82V642a2.82,2.82,0,0,1-2.82,2.82h-1v11a16.92,16.92,0,0,1-16.93,16.93H144.51c5.6,0,10.12-7.57,10.12-16.93V579.86c0-9.23-4.42-16.73-9.91-16.92v-5.77h1c.89,0,1.62-1.21,1.62-2.71s-.73-2.69-1.62-2.69h-.1v-3.88c0-1.51-.73-2.71-1.62-2.71h11.41a2.71,2.71,0,0,1,2.71,2.71v3.88h.17a2.7,2.7,0,1,1,0,5.4h-1.75v5.77a16.93,16.93,0,0,1,16.58,16.92v5.48h1a2.82,2.82,0,0,1,2.82,2.83v1.31A2.82,2.82,0,0,1,174.19,592.3Z" transform="translate(0 -1.54)"/><path class="cls-49" d="M1137.66,542.33V533.5h-32.61v8.83a18.47,18.47,0,0,0-16.3,18.34v93.48a18.47,18.47,0,0,0,18.48,18.47h28.26A18.47,18.47,0,0,0,1154,654.15V560.67A18.47,18.47,0,0,0,1137.66,542.33Z" transform="translate(0 -1.54)"/><rect class="cls-50" x="1104.24" y="523.27" width="34.24" height="15.22"/><rect class="cls-51" x="1088.75" y="581.96" width="65.21" height="38.04"/><path class="cls-52" d="M1126.79,605.08c0,4.63-2.92,8.39-6.52,8.39s-6.52-3.76-6.52-8.39,6.83-14.6,6.83-14.6S1126.79,600.45,1126.79,605.08Z" transform="translate(0 -1.54)"/><path class="cls-53" d="M1103.82,582c-9.87,13-21.92,22.8-34.22,32.91l-2.08-1.78a.91.91,0,0,0,.07-.14l-1.47-1.27c8.11-13.7,16-27.1,27.29-38.84,2.44-2.62,10.1-9.7,14-7.28l1.4,1.42C1111.84,570.56,1106,579.21,1103.82,582Z" transform="translate(0 -1.54)"/><g class="cls-54"><path class="cls-55" d="M1103.82,582c-9.87,13-21.92,22.8-34.22,32.91l-2.08-1.78a.91.91,0,0,0,.07-.14l.6.51c12.3-10.12,24.34-19.93,34.21-32.91,2-2.57,7-10,5.64-13.92a3.43,3.43,0,0,0-.6-1.07l1.4,1.42C1111.84,570.56,1106,579.21,1103.82,582Z" transform="translate(0 -1.54)"/></g><path class="cls-56" d="M1121.9,615.94a63,63,0,0,1-.59,8.63c-.14,1-.31,2-.5,3-.21,1.17-.46,2.34-.74,3.47q-.57,2.32-1.32,4.56a58.16,58.16,0,0,1-2.56,6.53c-.37.81-.75,1.62-1.17,2.41-.76,1.5-1.58,2.95-2.46,4.37-.31.51-.63,1-1,1.51-.61.92-1.23,1.83-1.89,2.73-1,1.34-2,2.65-3.14,3.91-.84,1-1.74,2-2.67,2.9s-1.62,1.63-2.47,2.41a63.45,63.45,0,0,1-11.58,8.39h-61.79a63.86,63.86,0,0,1-11.59-8.39c-.84-.78-1.66-1.58-2.46-2.41s-1.83-1.91-2.68-2.9c-1.1-1.26-2.14-2.57-3.13-3.91q-1-1.35-1.89-2.73c-.33-.49-.66-1-1-1.51-.88-1.42-1.7-2.87-2.47-4.37-.41-.79-.79-1.6-1.16-2.41a58.16,58.16,0,0,1-2.56-6.53c-.5-1.49-.94-3-1.33-4.56-.27-1.13-.53-2.3-.73-3.47-.2-1-.37-2-.5-3a63,63,0,0,1-.59-8.63Z" transform="translate(0 -1.54)"/><path class="cls-57" d="M1121.9,615.94a63,63,0,0,1-.59,8.63c-.14,1-.31,2-.5,3-.21,1.17-.46,2.34-.74,3.47q-.57,2.32-1.32,4.56a58.16,58.16,0,0,1-2.56,6.53c-.37.81-.75,1.62-1.17,2.41-.76,1.5-1.58,2.95-2.46,4.37-.31.51-.63,1-1,1.51-.61.92-1.23,1.83-1.89,2.73-1,1.34-2,2.65-3.14,3.91-.84,1-1.74,2-2.67,2.9s-1.62,1.63-2.47,2.41a63.45,63.45,0,0,1-11.58,8.39h-29.43a55.49,55.49,0,0,0,9.87-8.39c.71-.78,1.41-1.58,2.09-2.41s1.56-1.91,2.28-2.9c.94-1.26,1.82-2.57,2.67-3.91.56-.9,1.09-1.81,1.6-2.73.28-.49.55-1,.82-1.51.75-1.42,1.45-2.87,2.09-4.37.35-.79.68-1.6,1-2.41a67.55,67.55,0,0,0,2.18-6.53c.42-1.49.79-3,1.12-4.56.24-1.13.45-2.3.63-3.47.17-1,.32-2,.43-3a76.5,76.5,0,0,0,.5-8.63Z" transform="translate(0 -1.54)"/><path class="cls-58" d="M1121.31,624.57c-.14,1-.31,2-.5,3H997.1c-.2-1-.37-2-.5-3Z" transform="translate(0 -1.54)"/><path class="cls-58" d="M1120.07,631.07c-.38,1.55-.82,3.07-1.32,4.55H999.15c-.49-1.48-.93-3-1.32-4.55Z" transform="translate(0 -1.54)"/><path class="cls-58" d="M1116.19,642.16c-.37.81-.75,1.62-1.17,2.41H1002.88c-.41-.79-.8-1.6-1.16-2.41Z" transform="translate(0 -1.54)"/><path class="cls-58" d="M1103.9,660c-.8.82-1.62,1.62-2.47,2.41h-85c-.84-.79-1.66-1.59-2.46-2.41Z" transform="translate(0 -1.54)"/><path class="cls-58" d="M1112.56,648.94c-.31.51-.63,1-1,1.51H1006.31c-.33-.49-.66-1-1-1.51Z" transform="translate(0 -1.54)"/><path class="cls-58" d="M1109.71,653.18c-1,1.34-2,2.65-3.14,3.91h-95.24c-1.1-1.26-2.14-2.57-3.13-3.91Z" transform="translate(0 -1.54)"/><path class="cls-7" d="M1110.67,615.94H1007.22c0-2.09-1.3-5.43-.68-6.8,1.41-2.63,4.44-1.42,6.66-1.21,2.42.2,4.44.2,6.65-1.21,3-2,2.23-4.64,6.47-3.84,3.22.61,4,1.21,7.06.21,3.63-1.42,4-2.82,6.45-5.66,5.05-6,10.89.41,16.75,1.42,4.43,1,3.63-1.61,8.06-1.82,4.65-.2,5.45-.2,8.08,3,3.63,4.24,9.08,1.61,13.92,1,3.23-.39,6.66-.39,8.27,3,1.41,2.83-.2,4.44,3.83,5.45,2.22.6,5.85-.61,7.67.6A58.3,58.3,0,0,1,1110.67,615.94Z" transform="translate(0 -1.54)"/><g class="cls-59"><path class="cls-60" d="M1086.39,598c-1.46,1.35-2.92,2.67-4.4,4-3.31.66-6.56,1-9-1.61,1.07-1.74,2.15-3.45,3.25-5.16a8.83,8.83,0,0,0,5.8,2.76C1083.44,598,1084.92,597.87,1086.39,598Z" transform="translate(0 -1.54)"/></g><g class="cls-59"><path class="cls-61" d="M1110.67,615.94h-10.9a8.54,8.54,0,0,0-2.64-2.16c-.91-.61-2.53-1.52-3-2.52s-.21-1.52-.21-2.63a8.28,8.28,0,0,0-4.07-7.72,5.48,5.48,0,0,1,5.08,3.18c1.41,2.83-.2,4.44,3.83,5.45,2.22.6,5.85-.61,7.67.6A58.3,58.3,0,0,1,1110.67,615.94Z" transform="translate(0 -1.54)"/></g><g class="cls-59"><path class="cls-61" d="M1080.6,602.2a18,18,0,0,1-6.77,1.59,7.25,7.25,0,0,1-5.25-1.82c-1.44-1.44-2.4-3.76-4.18-4.92l.24,0c4.65-.2,5.45-.2,8.08,3C1074.87,602.58,1077.67,602.67,1080.6,602.2Z" transform="translate(0 -1.54)"/></g><g class="cls-59"><path class="cls-61" d="M1076.53,615.94h-24.76a5.32,5.32,0,0,1,2.58-1c2.33-.31,5.86.71,8-.2,3.52-1.51-5.25-2.83-.6-3.33,2.91-.3,6.65.8,9.38,1.71A53.75,53.75,0,0,1,1076.53,615.94Z" transform="translate(0 -1.54)"/></g><path class="cls-62" d="M991.26,665.87a16.7,16.7,0,0,1-3.86,4.87c-4.57,4-11.11,5.67-17,5.94a17.2,17.2,0,0,1-8.3-1.57h0c-5.46-2.74-7.85-8.68-10.42-15.36-1.63-3.8-6.93-12.9-6.69-19a6.3,6.3,0,0,1,2.37-5.13c9.15-6.37,32.16-12.32,43.43-5A13.7,13.7,0,0,1,997,641C997.75,649.3,995.23,658.67,991.26,665.87Z" transform="translate(0 -1.54)"/><path class="cls-63" d="M1008,646.78c-.23,6.17-1.1,12.26-4.33,16.82a16.25,16.25,0,0,1-7.19,5.69,24.57,24.57,0,0,1-9.09,1.45,16.7,16.7,0,0,0,3.86-4.87c4-7.2,6.49-16.57,5.77-24.85a13.7,13.7,0,0,0-6.28-10.44c4.64,0,8.89.25,13.12,2.69a7.78,7.78,0,0,1,3.93,4.92C1008.55,640.82,1008.22,643.89,1008,646.78Z" transform="translate(0 -1.54)"/><path class="cls-64" d="M1015.4,653.8c-.9,3.61-2.7,7-6.12,8.65a23,23,0,0,1-5.6,1.15c3.23-4.56,4.1-10.65,4.33-16.82.21-2.89.54-6-.21-8.59,3,.65,6.61,3.26,7.6,5.53C1016.66,646.6,1016.3,650.74,1015.4,653.8Z" transform="translate(0 -1.54)"/><path class="cls-63" d="M962.06,675.11a15,15,0,0,1-12-1.26c-4.6-2.57-8.24-7.35-11.37-12.3a27.08,27.08,0,0,1-2.88-7.32,14.94,14.94,0,0,1-.18-6.73c1-3.13,5.89-5.66,9.34-6.76-.24,6.11,5.06,15.21,6.69,19C954.21,666.43,956.6,672.37,962.06,675.11Z" transform="translate(0 -1.54)"/><path class="cls-64" d="M950,673.85c-5.71,2.8-12.2,1.66-16.23-3.83-4-5.86-5.24-12.82,2-15.79a27.08,27.08,0,0,0,2.88,7.32C941.8,666.5,945.44,671.28,950,673.85Z" transform="translate(0 -1.54)"/><g class="cls-65"><path class="cls-66" d="M991.26,665.87a16.7,16.7,0,0,1-3.86,4.87c-4.57,4-11.11,5.67-17,5.94a17.06,17.06,0,0,1-8.3-1.57h0c-5.46-2.74-7.85-8.68-10.42-15.36-1.1-2.55-3.85-7.5-5.46-12.32a19.55,19.55,0,0,1-1.23-6.69c.08-2,.75-4,2.35-5.11-1,7.3,2.83,17.89,5.66,22.32a27.84,27.84,0,0,0,8.16,8.16c3,2,6.12,1.32,9.49.6,5.76-1.32,12.25-2.88,17.41-6.13,5.28-3.48,5.52-12.24,5.52-18,0-4.79-1-9.54-4.16-12.79.47.25.93.51,1.37.8A13.7,13.7,0,0,1,997,641C997.75,649.3,995.23,658.67,991.26,665.87Z" transform="translate(0 -1.54)"/></g><g class="cls-67"><path class="cls-66" d="M1006,659.23a5.83,5.83,0,0,1-.23.58l-.15.38a2.87,2.87,0,0,1-.18.4c0,.12-.11.24-.16.35s-.2.43-.32.64a3.11,3.11,0,0,1-.22.4,8.16,8.16,0,0,1-.53.9q-.23.38-.48.72a16.33,16.33,0,0,1-7.19,5.7,24.77,24.77,0,0,1-9.09,1.44,16.7,16.7,0,0,0,3.86-4.87c4-7.2,6.49-16.57,5.77-24.85a13.7,13.7,0,0,0-6.28-10.44c1.19,0,2.35,0,3.49.09,3.44,2.79,4.16,7.62,5,11.79a26.65,26.65,0,0,1,.54,6.57c-.09,2.25-.9,6,.09,8.2C1000.94,659.62,1003.74,660,1006,659.23Z" transform="translate(0 -1.54)"/></g><g class="cls-68"><path class="cls-66" d="M1012.87,659.46a9.54,9.54,0,0,1-3.59,3,23,23,0,0,1-5.6,1.15q.26-.35.48-.72a8.16,8.16,0,0,0,.53-.9,3.11,3.11,0,0,0,.22-.4c.12-.21.22-.42.32-.64s.11-.23.16-.35a2.87,2.87,0,0,0,.18-.4,2.5,2.5,0,0,0,.15-.38,5.83,5.83,0,0,0,.23-.58,6,6,0,0,0,.25-.71c.09-.24.17-.49.24-.73.23-.73.42-1.48.58-2.24.07-.31.14-.62.19-.93s.13-.67.18-1,.09-.58.13-.88.06-.42.08-.63.06-.43.08-.65c.05-.4.09-.81.12-1.22l.06-.71c0-.33,0-.66.07-1a1.09,1.09,0,0,0,0-.18c0-.52,0-1,.08-1.56.2-2.89.53-6-.22-8.59a10.76,10.76,0,0,1,2.05.69c-1.4,2.43,0,7.65,0,10a42.93,42.93,0,0,1-.46,6C1009.17,657.1,1010.86,658.75,1012.87,659.46Z" transform="translate(0 -1.54)"/></g><g class="cls-68"><path class="cls-66" d="M962.06,675.11a14.92,14.92,0,0,1-12-1.26l-.73-.43c-.2-.13-.39-.25-.58-.39s-.39-.26-.58-.39c-.45-.33-.88-.66-1.31-1l-.59-.53c-.19-.16-.37-.33-.55-.51a.28.28,0,0,1-.1-.09c-.18-.16-.35-.33-.52-.51a10.29,10.29,0,0,0,4.21.85c3,0,3.69-1.26,3.06-3.87-.54-2.34-1.44-4.68-2.16-7-1.2-4.06-3.65-8.19-4-12.5,1.61,4.82,4.36,9.77,5.46,12.32C954.21,666.43,956.6,672.37,962.06,675.11Z" transform="translate(0 -1.54)"/></g><g class="cls-68"><path class="cls-66" d="M950.05,673.85a12.67,12.67,0,0,1-13.14-.76c2.08.26,4-.09,3.92-2.35-.09-1.62-1.35-3-2-4.42-.9-2.07-1.72-4.32-2.44-6.48a19.84,19.84,0,0,1-1.61-5.14,9.05,9.05,0,0,1,1-.47,27.08,27.08,0,0,0,2.88,7.32c.39.62.79,1.23,1.2,1.84.2.31.41.62.62.91l.42.6q.39.55.78,1.08c.32.41.63.82.95,1.22s.46.58.7.85.56.65.86,1,.58.63.89.94.34.35.52.51a.28.28,0,0,0,.1.09c.18.18.36.35.55.51s.39.36.59.53c.43.37.86.7,1.31,1,.19.13.38.27.58.39s.38.26.58.39Z" transform="translate(0 -1.54)"/></g><g class="cls-69"><path class="cls-70" d="M954.94,639.65a36,36,0,0,0,7.73-3.41c2.65-1.45,6.56-1.59,9.5-1.91,1-.11,6.93-.2,4.76,1.58-5,4.11-13.53,4.09-17.37,9.79a1.37,1.37,0,0,0,.6,2.25c5.63,2.78,12.63-.41,18.14-1.37,1.78-.31,5-1.09,5.57-3.17s-3.06-2-4.14-1.83c-2.25.39-4.45,1-6.66,1.51-1.58.39-3.56,1.12-5.1.36l.6,2.25c1.43-2.11,7-3.58,9.65-4.8,2.88-1.34,8.53-3.56,9-7.27.66-4.92-8.34-4.65-11.22-4.48a73.37,73.37,0,0,0-11.14,1.65,38.61,38.61,0,0,0-6,1.83c-1.77.7-3.32,2-5.16,2.55-1.25.35-4.79,1.6-4.27,3.54s4.21,1.27,5.47.93Z" transform="translate(0 -1.54)"/></g><path class="cls-71" d="M1019.48,673.69a14.4,14.4,0,0,1-3.25,4.09l-.45.36c-3.82,3.11-9.09,4.42-13.89,4.64a16.11,16.11,0,0,1-4.91-.53c-.23-.06-.46-.14-.68-.21l-.66-.26c-.13,0-.25-.1-.37-.15l-.37-.17a13.05,13.05,0,0,1-5.3-5.22,49.65,49.65,0,0,1-3.47-7.71l-.22-.49c-.12-.25-.24-.52-.38-.8s-.27-.57-.42-.87l-.43-.88-.46-.94c-.15-.32-.31-.65-.46-1-.08-.16-.16-.34-.24-.51l-.48-1c-.34-.78-.68-1.59-1-2.4-.09-.22-.17-.45-.25-.68s-.18-.51-.27-.76c-.15-.46-.3-.92-.42-1.37l-.18-.68-.12-.54c-.07-.32-.13-.64-.17-1,0-.14,0-.29-.06-.42a.6.6,0,0,1,0-.12V654a0,0,0,0,1,0,0,.41.41,0,0,1,0-.11,1.41,1.41,0,0,1,0-.2,8.47,8.47,0,0,1,0-1.12,6.2,6.2,0,0,1,.94-3.25,3.43,3.43,0,0,1,.36-.47,2.85,2.85,0,0,1,.44-.41.54.54,0,0,1,.12-.09l.11-.08h0c7.4-5.16,25.57-10,35.39-4.91h0a4.92,4.92,0,0,1,.56.29l.6.36c.35.23.69.48,1,.74s.63.54.93.83a10.85,10.85,0,0,1,1.89,2.53,1.51,1.51,0,0,1,.09.18,1.62,1.62,0,0,1,.1.18,13.13,13.13,0,0,1,1.25,4.33C1024.93,659.74,1022.81,667.62,1019.48,673.69Z" transform="translate(0 -1.54)"/><g class="cls-65"><path class="cls-66" d="M1019.48,673.69a14.4,14.4,0,0,1-3.25,4.09l-.45.36c-3.82,3.11-9.09,4.42-13.89,4.64a16.11,16.11,0,0,1-4.91-.53c-.23-.06-.46-.14-.68-.21l-.67-.25a3.92,3.92,0,0,1-.36-.16l-.37-.17a13.05,13.05,0,0,1-5.3-5.22,49.65,49.65,0,0,1-3.47-7.71l-.22-.49c-.12-.25-.24-.52-.38-.8s-.27-.57-.42-.87l-.43-.88-.46-.94c-.15-.32-.31-.65-.46-1-.08-.16-.16-.34-.24-.51l-.48-1c-.34-.78-.68-1.59-1-2.4-.09-.22-.17-.45-.25-.68s-.18-.51-.27-.76c-.15-.46-.3-.92-.42-1.37l-.18-.68-.12-.54c-.07-.32-.13-.64-.17-1,0-.14,0-.29-.06-.42a.6.6,0,0,1,0-.12V654a.43.43,0,0,1,0-.11,1.41,1.41,0,0,1,0-.2,8.47,8.47,0,0,1,0-1.12,6.2,6.2,0,0,1,.94-3.25,3.43,3.43,0,0,1,.36-.47,2.85,2.85,0,0,1,.44-.41.54.54,0,0,1,.12-.09.48.48,0,0,1,.11-.09h0c-.83,6.15,2.38,15,4.77,18.78a23.4,23.4,0,0,0,6.86,6.87c2.53,1.72,5.16,1.11,8,.5,4.85-1.11,10.31-2.42,14.66-5.15,4.44-2.93,4.64-10.31,4.64-15.16,0-4-.85-8-3.5-10.75a4.92,4.92,0,0,1,.56.29l.6.36c.35.23.69.48,1,.74s.63.54.93.83a10.85,10.85,0,0,1,1.89,2.53,1.51,1.51,0,0,1,.09.18.76.76,0,0,1,.09.18h0a13.13,13.13,0,0,1,1.25,4.33C1024.93,659.74,1022.81,667.62,1019.48,673.69Z" transform="translate(0 -1.54)"/></g><path class="cls-72" d="M1033.22,658.56c-.23,2.88-1.31,5.64-2,8.53s-1.69,6.48-4.21,8.28l-.28.19h0a18.64,18.64,0,0,1-6.8,2.57,18.28,18.28,0,0,1-4.12,0l.45-.36a14.4,14.4,0,0,0,3.25-4.09c3.33-6.07,5.45-14,4.85-20.93a13.13,13.13,0,0,0-1.25-4.33,15.89,15.89,0,0,1,7.38,2.32,5.78,5.78,0,0,1,2.64,4.19h0A13.76,13.76,0,0,1,1033.22,658.56Z" transform="translate(0 -1.54)"/><path class="cls-73" d="M1039.83,667.09c-.84,2.76-2.88,6.6-5.52,7.8-2.33,1.12-5,.7-7.61.67l.28-.19c2.52-1.8,3.6-5.4,4.21-8.28s1.8-5.65,2-8.53a13.76,13.76,0,0,0-.12-3.62c2.43.44,5.88,1.91,7,4S1040.43,665.16,1039.83,667.09Z" transform="translate(0 -1.54)"/><path class="cls-72" d="M995.63,681.79a11.14,11.14,0,0,1-7.62.76c-3.62-.94-6.92-3.71-9.72-7.54-2.14-3.13-5.8-7.32-6-11.46h0a7.24,7.24,0,0,1,0-1.14c.47-3.74,4.46-6.95,8.21-8.44a0,0,0,0,0,0,0v.09a.6.6,0,0,0,0,.12c0,.13,0,.28.06.42,0,.31.1.63.17,1l.12.54.18.68c.12.45.27.91.42,1.37.09.25.17.5.27.76s.16.46.25.68c.31.81.65,1.62,1,2.4q.23.54.48,1c.08.17.16.35.24.51.15.34.31.67.46,1l.46.94.43.88c.15.3.3.6.42.87s.26.55.38.8l.22.49a49.65,49.65,0,0,0,3.47,7.71,13.05,13.05,0,0,0,5.3,5.22l.37.17.19.08Z" transform="translate(0 -1.54)"/><path class="cls-73" d="M988,682.55c-6.19,3.34-11.42,6.19-17.29-.87-2.88-3.43-5-6.4-3.42-10.72a14.39,14.39,0,0,1,5-7.41c.18,4.14,3.84,8.33,6,11.46C981.09,678.84,984.39,681.61,988,682.55Z" transform="translate(0 -1.54)"/><g class="cls-67"><path class="cls-66" d="M1030.34,670.23a10.12,10.12,0,0,1-3.36,5.14l-.28.19h0a18.64,18.64,0,0,1-6.8,2.57,18.28,18.28,0,0,1-4.12,0l.45-.36a14.31,14.31,0,0,0,3.25-4.1c3.33-6.06,5.45-13.94,4.85-20.92a13.13,13.13,0,0,0-1.25-4.33c.53.05,1.07.11,1.6.2,1,4.23,2.61,7.78,1.94,12.45-.24,1.81-1.56,4.92-.72,6.73A4.15,4.15,0,0,0,1030.34,670.23Z" transform="translate(0 -1.54)"/></g><g class="cls-67"><path class="cls-66" d="M1039.78,667.24c-.86,2.74-2.88,6.47-5.47,7.65-2.33,1.12-5,.7-7.61.67l.28-.19a10.12,10.12,0,0,0,3.36-5.14,25.57,25.57,0,0,0,.85-3.15c.72-2.88,1.8-5.64,2-8.52a13.76,13.76,0,0,0-.12-3.62,13.36,13.36,0,0,1,2.37.67h0c.38,2.45-.2,5-.09,7.4C1035.54,666,1037.4,667.06,1039.78,667.24Z" transform="translate(0 -1.54)"/></g><g class="cls-67"><path class="cls-66" d="M995.63,681.79a11.14,11.14,0,0,1-7.62.76,15.14,15.14,0,0,1-6.49-3.83c2,.36,3.81-1.61,3.91-3.71.12-2.52-1-5-2-7.2-1.77-3.45-5.61-8.54-4.84-12.89a15.18,15.18,0,0,1,2-1,0,0,0,0,0,0,0v.09a.6.6,0,0,0,0,.12c0,.13,0,.28.06.42,0,.31.1.63.17,1q.06.25.12.54l.18.68c.12.45.27.91.42,1.37.09.25.17.5.27.76s.16.46.25.68c.31.81.65,1.62,1,2.4q.23.54.48,1c.08.17.16.35.24.51.15.34.31.67.46,1l.46.94.43.88c.15.3.3.6.42.87s.26.55.38.8l.22.49a50.08,50.08,0,0,0,3.47,7.71,13.05,13.05,0,0,0,5.3,5.22l.37.17.19.08Z" transform="translate(0 -1.54)"/></g><g class="cls-67"><path class="cls-66" d="M988,682.55c-4.26,2.3-8.07,4.37-12,3.12a4.29,4.29,0,0,0,2.66-2.85c.35-1.92-1.45-3.85-2.53-5.17-2.64-3.41-5.69-7.74-5.9-12.24a10.81,10.81,0,0,1,2-1.86c.18,4.14,3.84,8.33,6,11.46C981.09,678.84,984.39,681.61,988,682.55Z" transform="translate(0 -1.54)"/></g><path class="cls-70" d="M990.47,652c5.53-.48,11.19-3.22,16.75-2.17l-1.28-2.17c-2.14,2.91-18.85,7.75-15.85,13,1.85,3.22,7.8,2,10.69,1.43,2.33-.45,4.61-1,6.9-1.64,1.07-.28,2.14-.58,3.21-.85.62-.16,1.66-.32.86-.28,1.89-.09,4.32-.6,5.53-2.22s-1-2.3-2.21-2.25a43.41,43.41,0,0,0-9.13,1.93c-.8.21-7.11,2.32-7.67,1.35-.43-.74,13.94-8.4,15.41-10.4.85-1.16-.16-1.95-1.28-2.16-7.17-1.36-13.68,1.55-20.71,2.15-1.52.13-4.3,1-4.78,2.73s2.63,1.67,3.56,1.6Z" transform="translate(0 -1.54)"/><g class="cls-74"><path class="cls-75" d="M984.44,647c-.71.4-1.35.8-1.93,1.2h0l-.06,0s-.05,0-.06.05l-.12.08-.44.41a5.32,5.32,0,0,0-.36.47,6.36,6.36,0,0,0-.94,3.26,8.32,8.32,0,0,0,0,1.11,1.55,1.55,0,0,0,0,.21.45.45,0,0,0,0,.11,15.67,15.67,0,0,0-2,1c-3.07,1.69-5.83,4.4-6.21,7.49a6.18,6.18,0,0,0,0,1.14h0a10,10,0,0,0-.94.75l-.25.23-.37.37c-.15.15-.29.31-.43.48l0,0a13.12,13.12,0,0,0-1.17,1.6,16.72,16.72,0,0,0-1.82,4,7.37,7.37,0,0,0,0,5.6,15,15,0,0,1-5.21-1.46h0a16.37,16.37,0,0,1-5.62.68l0-.1c.61-.84,2.05-.84,2.65-1.56a2.87,2.87,0,0,0,.43-.64c.61-1.23.24-2.75.65-4.17a8,8,0,0,1,1.47-2.85,10.67,10.67,0,0,1,1.65-1.71c1.08-.84,2.76-1.32,3.6-2,1.08-1.08,1-2.88,2-4.08,1.08-1.44,3-2.52,4-4,.83-1.2.6-2.77,1.32-4a7,7,0,0,1,3.6-2.53C979.84,647.57,982.22,647.48,984.44,647Z" transform="translate(0 -1.54)"/></g><g id="_Grupo_6" data-name="&lt;Grupo&gt;"><g id="_Grupo_7" data-name="&lt;Grupo&gt;"><g id="_Grupo_8" data-name="&lt;Grupo&gt;"><path id="_Trazado_7" data-name="&lt;Trazado&gt;" class="cls-76" d="M194.9,637.41l-.31-1.17c-.09-.37-.21-.82-.34-1.34a17,17,0,0,0-.58-1.68c-.26-.6-.43-1.29-.78-2s-.65-1.38-1-2.08c-.33-.51-.65-1.05-1-1.58a5.76,5.76,0,0,0-.35-.51c-.28-.35-.54-.72-.82-1.09a10.52,10.52,0,0,0-.75-.9,20.08,20.08,0,0,0-1.77-1.8,19,19,0,0,0-1.86-1.56c-.62-.49-1.27-.88-1.87-1.28s-1.19-.72-1.76-1a21.35,21.35,0,0,0-2.73-1.17l-.75-.22-.29-.07.95-3.08.33.12.91.4a24.39,24.39,0,0,1,2.95,1.67c.59.36,1.18.83,1.81,1.29s1.26,1,1.87,1.64a22.08,22.08,0,0,1,1.82,1.91l.15.18c.25.27.49.56.71.85l.8,1.11c.23.31.45.64.65,1s.35.6.53.9c.07.14.16.28.24.41.43.78.76,1.59,1.13,2.34s.57,1.54.84,2.26a19.58,19.58,0,0,1,.56,2.07,14.6,14.6,0,0,1,.38,1.77c.08.53.15,1,.2,1.38Z" transform="translate(0 -1.54)"/><path class="cls-31" d="M195.07,613.28a14.28,14.28,0,0,0-4.22,2.56,6.12,6.12,0,0,0-2.16,6.32,7.07,7.07,0,0,0,.29.89l.42,0a7.52,7.52,0,0,0,1.45-.34C195.91,620.8,195.07,613.28,195.07,613.28Z" transform="translate(0 -1.54)"/><path class="cls-77" d="M193.57,615.51c-.44.63-1,1.47-1.54,2.34s-1.05,1.74-1.42,2.41-.6,1.12-.6,1.12.32-.4.75-1,1-1.47,1.54-2.33,1-1.74,1.42-2.41.59-1.13.59-1.13S194,614.89,193.57,615.51Z" transform="translate(0 -1.54)"/></g><path id="_Trazado_8" data-name="&lt;Trazado&gt;" class="cls-78" d="M216.94,652.07A26.1,26.1,0,1,1,189.68,626c.38,0,.77,0,1.17,0a4.78,4.78,0,0,1,.53,0A26.07,26.07,0,0,1,216.94,652.07Z" transform="translate(0 -1.54)"/><path class="cls-79" d="M184.09,631.36c-7.37,2.24-14.14,9.48-15.76,17.08-.5,2.35,3.11,3.35,3.61,1,1.35-6.31,7-12.59,13.14-14.46C187.38,634.28,186.4,630.66,184.09,631.36Z" transform="translate(0 -1.54)"/><path class="cls-79" d="M190.28,630.25a1.9,1.9,0,0,0-1.87,1.87v.22a1.87,1.87,0,1,0,3.74,0v-.22A1.89,1.89,0,0,0,190.28,630.25Z" transform="translate(0 -1.54)"/><path class="cls-80" d="M216.94,652.07a25.85,25.85,0,0,0-1.3-8.11,50.18,50.18,0,0,1-3.91,8.68C207.49,660.13,200.25,663,192,664c-12.21,1.49-21.42-4.18-27.18-12.87,0,.32-.05.64-.05,1a26.1,26.1,0,1,0,52.19,0Z" transform="translate(0 -1.54)"/></g></g><rect class="cls-81" x="1133.57" y="634.64" width="107.16" height="17.52" rx="4.14" ry="4.14"/><rect class="cls-82" x="1147.51" y="608.53" width="79.28" height="31.95" rx="7.54" ry="7.54"/><path class="cls-83" d="M1205.09,666a54.28,54.28,0,0,0-10.27-1.55,93.41,93.41,0,0,0-15.33.12c-4.18.32-5.8.69-11,1.42-18.09,2.53-42.62,6-45.44-1.26a4.8,4.8,0,0,1,0-3.15,6,6,0,0,1,5.83-6.1c19.08,0,45.41,0,78.43,0,0,0,42.59,0,42.68,5a3.51,3.51,0,0,1-.89,2c-.73.72-1.4.51-2.51,1-1.71.73-1.41,1.75-3,2.7s-2.21,0-4.19.93c-1.66.78-1.44,1.54-3,2.12-1.69.63-2.26-.33-4,.32-1.49.56-1.32,1.32-2.65,1.59-1.12.22-1.56-.28-3.27-.13-.29,0-.55.07-.77.11a7.16,7.16,0,0,0-1,.26c-1.53.48-5.23-.15-5.23-.15-3.54-.59-5.31-.89-6.33-1.34-1.36-.6-1.45-.89-4-2.28A19.56,19.56,0,0,0,1205.09,666Z" transform="translate(0 -1.54)"/></g></g></g></svg>