<?xml version="1.0" encoding="utf-8"?>
<!-- Generator: Adobe Illustrator 22.0.0, SVG Export Plug-In . SVG Version: 6.00 Build 0)  -->
<svg version="1.1" id="Layer_1" xmlns="http://www.w3.org/2000/svg" xmlns:xlink="http://www.w3.org/1999/xlink" x="0px" y="0px"
	 viewBox="0 0 141.7 141.7" style="enable-background:new 0 0 141.7 141.7;" xml:space="preserve">
<style type="text/css">
	.st0{fill:#FF2120;}
	.st1{opacity:0.8;fill:#EF1414;}
	.st2{fill:#FF8700;}
	.st3{fill:#009245;}
	.st4{opacity:0.7;fill:#009245;}
</style>
<g id="XMLID_455_">
	<g id="XMLID_458_">
		<path id="XMLID_596_" class="st0" d="M78.9,52.2c0.2,0.3,0.3,0.6,0.4,0.9c0.2,0.5,0.4,1.1,0.7,1.6c1.7,4.6,2.9,10.6,3.5,17.1
			c0,0.3,0,0.5,0.1,0.8c1.1,15-1.4,32-9.2,38c-11.9,9.2-45.7,0-57.7-10.2c-8-6.8-23.3-24.3-1.6-46.9c2.4-2.5,5.3-5.1,8.7-7.8
			l0.2-0.1c0.4-0.3,0.8-0.7,1.3-1c2.7-2,5.2-3.7,7.6-5.1c15.1-8.8,25.9-7.2,33.4-2.4c0,0,0.1,0,0.1,0.1c0.4,0.2,0.8,0.5,1.1,0.8
			c0,0,0,0,0.1,0.1C73.3,42.1,76.9,48,78.9,52.2z"/>
		<path class="st1" d="M83.7,75.4C72.9,85.8,61,94,44.3,89.6C28.6,85.5,18,73.1,10,59.7c-13.8,19.6-0.6,34.5,6.7,40.7
			c12,10.3,45.8,19.4,57.7,10.2C81.7,105,84.3,89.6,83.7,75.4z"/>
		<g id="XMLID_463_">
			<g id="XMLID_594_">
				<path id="XMLID_595_" class="st2" d="M73.5,101.5c0,0,0.5,6.5,3.4,4.4C79.6,103.6,73.5,101.5,73.5,101.5z"/>
			</g>
			<g id="XMLID_592_">
				<path id="XMLID_593_" class="st2" d="M67,106.5c0,0,0.5,6.5,3.4,4.4C73.2,108.6,67,106.5,67,106.5z"/>
			</g>
			<g id="XMLID_590_">
				<path id="XMLID_591_" class="st2" d="M76.7,86.9c0,0,0.5,6.5,3.4,4.4C82.9,89,76.7,86.9,76.7,86.9z"/>
			</g>
			<g id="XMLID_588_">
				<path id="XMLID_589_" class="st2" d="M70.3,91.9c0,0,0.5,6.5,3.4,4.4C76.4,94,70.3,91.9,70.3,91.9z"/>
			</g>
			<g id="XMLID_586_">
				<path id="XMLID_587_" class="st2" d="M63.8,96.9c0,0,0.5,6.5,3.4,4.4C70,99,63.8,96.9,63.8,96.9z"/>
			</g>
			<g id="XMLID_584_">
				<path id="XMLID_585_" class="st2" d="M57.3,101.9c0,0,0.5,6.5,3.4,4.4C63.5,104,57.3,101.9,57.3,101.9z"/>
			</g>
			<g id="XMLID_582_">
				<path id="XMLID_583_" class="st2" d="M50.9,106.9c0,0,0.5,6.5,3.4,4.4C57,109,50.9,106.9,50.9,106.9z"/>
			</g>
			<g id="XMLID_580_">
				<path id="XMLID_581_" class="st2" d="M74.7,76.4c0,0,0.5,6.5,3.4,4.4C80.9,78.5,74.7,76.4,74.7,76.4z"/>
			</g>
			<g id="XMLID_578_">
				<path id="XMLID_579_" class="st2" d="M68.3,81.4c0,0,0.5,6.5,3.4,4.4C74.4,83.5,68.3,81.4,68.3,81.4z"/>
			</g>
			<g id="XMLID_576_">
				<path id="XMLID_577_" class="st2" d="M61.8,86.4c0,0,0.5,6.5,3.4,4.4C68,88.5,61.8,86.4,61.8,86.4z"/>
			</g>
			<g id="XMLID_574_">
				<path id="XMLID_575_" class="st2" d="M55.3,91.4c0,0,0.5,6.5,3.4,4.4C61.5,93.5,55.3,91.4,55.3,91.4z"/>
			</g>
			<g id="XMLID_572_">
				<path id="XMLID_573_" class="st2" d="M48.9,96.4c0,0,0.5,6.5,3.4,4.4C55,98.5,48.9,96.4,48.9,96.4z"/>
			</g>
			<g id="XMLID_570_">
				<path id="XMLID_571_" class="st2" d="M42.4,101.4c0,0,0.5,6.5,3.4,4.4C48.5,103.5,42.4,101.4,42.4,101.4z"/>
			</g>
			<g id="XMLID_568_">
				<path id="XMLID_569_" class="st2" d="M36,103.9c0,0,0.5,6.5,3.4,4.4C42.2,106.1,36,103.9,36,103.9z"/>
			</g>
			<g id="XMLID_566_">
				<path id="XMLID_567_" class="st2" d="M78,61.8c0,0,0.5,6.5,3.4,4.4C84.2,63.9,78,61.8,78,61.8z"/>
			</g>
			<g id="XMLID_564_">
				<path id="XMLID_565_" class="st2" d="M83.5,71.8c0.1,0.2,0.1,0.5,0.1,0.8c-0.1,0.3-0.3,0.6-0.7,1c-2.9,2.1-3.4-4.4-3.4-4.4
					S82.9,70.3,83.5,71.8z"/>
			</g>
			<g id="XMLID_562_">
				<path id="XMLID_563_" class="st2" d="M71.5,66.8c0,0,0.5,6.5,3.4,4.4C77.7,68.9,71.5,66.8,71.5,66.8z"/>
			</g>
			<g id="XMLID_560_">
				<path id="XMLID_561_" class="st2" d="M65.1,71.8c0,0,0.5,6.5,3.4,4.4C71.2,73.9,65.1,71.8,65.1,71.8z"/>
			</g>
			<g id="XMLID_558_">
				<path id="XMLID_559_" class="st2" d="M58.6,76.8c0,0,0.5,6.5,3.4,4.4C64.8,78.9,58.6,76.8,58.6,76.8z"/>
			</g>
			<g id="XMLID_556_">
				<path id="XMLID_557_" class="st2" d="M52.1,81.8c0,0,0.5,6.5,3.4,4.4C58.3,83.9,52.1,81.8,52.1,81.8z"/>
			</g>
			<g id="XMLID_554_">
				<path id="XMLID_555_" class="st2" d="M45.6,86.8c0,0,0.5,6.5,3.4,4.4C51.8,88.9,45.6,86.8,45.6,86.8z"/>
			</g>
			<g id="XMLID_552_">
				<path id="XMLID_553_" class="st2" d="M39.2,91.8c0,0,0.5,6.5,3.4,4.4C45.3,93.9,39.2,91.8,39.2,91.8z"/>
			</g>
			<g id="XMLID_550_">
				<path id="XMLID_551_" class="st2" d="M32.7,96.8c0,0,0.5,6.5,3.4,4.4C38.9,98.9,32.7,96.8,32.7,96.8z"/>
			</g>
			<g id="XMLID_548_">
				<path id="XMLID_549_" class="st2" d="M26.2,101.8c0,0,0.5,6.5,3.4,4.4C32.4,103.9,26.2,101.8,26.2,101.8z"/>
			</g>
			<g id="XMLID_546_">
				<path id="XMLID_547_" class="st2" d="M80,54.8c-0.1,0.3-0.3,0.6-0.7,0.9c-2.9,2.1-3.4-4.4-3.4-4.4s2.2,0.8,3.4,1.9
					C79.9,53.6,80.2,54.2,80,54.8z"/>
			</g>
			<g id="XMLID_544_">
				<path id="XMLID_545_" class="st2" d="M69.5,56.3c0,0,0.5,6.5,3.4,4.4C75.7,58.4,69.5,56.3,69.5,56.3z"/>
			</g>
			<g id="XMLID_542_">
				<path id="XMLID_543_" class="st2" d="M63.1,61.3c0,0,0.5,6.5,3.4,4.4C69.2,63.4,63.1,61.3,63.1,61.3z"/>
			</g>
			<g id="XMLID_540_">
				<path id="XMLID_541_" class="st2" d="M56.6,66.3c0,0,0.5,6.5,3.4,4.4C62.7,68.4,56.6,66.3,56.6,66.3z"/>
			</g>
			<g id="XMLID_538_">
				<path id="XMLID_539_" class="st2" d="M50.1,71.3c0,0,0.5,6.5,3.4,4.4C56.3,73.4,50.1,71.3,50.1,71.3z"/>
			</g>
			<g id="XMLID_536_">
				<path id="XMLID_537_" class="st2" d="M43.6,76.3c0,0,0.5,6.5,3.4,4.4C49.8,78.4,43.6,76.3,43.6,76.3z"/>
			</g>
			<g id="XMLID_534_">
				<path id="XMLID_535_" class="st2" d="M37.2,81.3c0,0,0.5,6.5,3.4,4.4C43.3,83.4,37.2,81.3,37.2,81.3z"/>
			</g>
			<g id="XMLID_532_">
				<path id="XMLID_533_" class="st2" d="M30.7,86.3c0,0,0.5,6.5,3.4,4.4C36.9,88.4,30.7,86.3,30.7,86.3z"/>
			</g>
			<g id="XMLID_530_">
				<path id="XMLID_531_" class="st2" d="M24.2,91.3c0,0,0.5,6.5,3.4,4.4C30.4,93.4,24.2,91.3,24.2,91.3z"/>
			</g>
			<g id="XMLID_528_">
				<path id="XMLID_529_" class="st2" d="M17.8,96.3c0,0,0.5,6.5,3.4,4.4C23.9,98.4,17.8,96.3,17.8,96.3z"/>
			</g>
			<g id="XMLID_526_">
				<path id="XMLID_527_" class="st2" d="M66.3,46.7c0,0,0.5,6.5,3.4,4.4C72.5,48.8,66.3,46.7,66.3,46.7z"/>
			</g>
			<g id="XMLID_524_">
				<path id="XMLID_525_" class="st2" d="M59.8,51.7c0,0,0.5,6.5,3.4,4.4C66,53.8,59.8,51.7,59.8,51.7z"/>
			</g>
			<g id="XMLID_522_">
				<path id="XMLID_523_" class="st2" d="M53.4,56.7c0,0,0.5,6.5,3.4,4.4C59.5,58.8,53.4,56.7,53.4,56.7z"/>
			</g>
			<g id="XMLID_520_">
				<path id="XMLID_521_" class="st2" d="M46.9,61.7c0,0,0.5,6.5,3.4,4.4C53.1,63.8,46.9,61.7,46.9,61.7z"/>
			</g>
			<g id="XMLID_518_">
				<path id="XMLID_519_" class="st2" d="M40.4,66.7c0,0,0.5,6.5,3.4,4.4C46.6,68.8,40.4,66.7,40.4,66.7z"/>
			</g>
			<g id="XMLID_516_">
				<path id="XMLID_517_" class="st2" d="M34,71.7c0,0,0.5,6.5,3.4,4.4C40.1,73.8,34,71.7,34,71.7z"/>
			</g>
			<g id="XMLID_514_">
				<path id="XMLID_515_" class="st2" d="M27.5,76.7c0,0,0.5,6.5,3.4,4.4C33.7,78.8,27.5,76.7,27.5,76.7z"/>
			</g>
			<g id="XMLID_512_">
				<path id="XMLID_513_" class="st2" d="M21,81.7c0,0,0.5,6.5,3.4,4.4C27.2,83.8,21,81.7,21,81.7z"/>
			</g>
			<g id="XMLID_510_">
				<path id="XMLID_511_" class="st2" d="M14.6,86.7c0,0,0.5,6.5,3.4,4.4C20.7,88.8,14.6,86.7,14.6,86.7z"/>
			</g>
			<g id="XMLID_508_">
				<path id="XMLID_509_" class="st2" d="M67.7,40.5c-2.9,2.1-3.4-4.4-3.4-4.4s1,0.4,2,0.9c0,0,0.1,0,0.1,0.1
					c0.4,0.2,0.8,0.5,1.1,0.8c0,0,0,0,0.1,0.1C68.5,38.7,68.9,39.6,67.7,40.5z"/>
			</g>
			<g id="XMLID_506_">
				<path id="XMLID_507_" class="st2" d="M57.8,41.2c0,0,0.5,6.5,3.4,4.4C64,43.3,57.8,41.2,57.8,41.2z"/>
			</g>
			<g id="XMLID_504_">
				<path id="XMLID_505_" class="st2" d="M51.4,46.2c0,0,0.5,6.5,3.4,4.4C57.5,48.3,51.4,46.2,51.4,46.2z"/>
			</g>
			<g id="XMLID_502_">
				<path id="XMLID_503_" class="st2" d="M44.9,51.2c0,0,0.5,6.5,3.4,4.4C51.1,53.3,44.9,51.2,44.9,51.2z"/>
			</g>
			<g id="XMLID_500_">
				<path id="XMLID_501_" class="st2" d="M38.4,56.2c0,0,0.5,6.5,3.4,4.4C44.6,58.3,38.4,56.2,38.4,56.2z"/>
			</g>
			<g id="XMLID_498_">
				<path id="XMLID_499_" class="st2" d="M32,61.2c0,0,0.5,6.5,3.4,4.4C38.1,63.3,32,61.2,32,61.2z"/>
			</g>
			<g id="XMLID_496_">
				<path id="XMLID_497_" class="st2" d="M25.5,66.2c0,0,0.5,6.5,3.4,4.4C31.7,68.3,25.5,66.2,25.5,66.2z"/>
			</g>
			<g id="XMLID_494_">
				<path id="XMLID_495_" class="st2" d="M19,71.2c0,0,0.5,6.5,3.4,4.4C25.2,73.3,19,71.2,19,71.2z"/>
			</g>
			<g id="XMLID_492_">
				<path id="XMLID_493_" class="st2" d="M12.5,76.2c0,0,0.5,6.5,3.4,4.4C18.7,78.3,12.5,76.2,12.5,76.2z"/>
			</g>
			<g id="XMLID_490_">
				<path id="XMLID_491_" class="st2" d="M6.1,81.2c0,0,0.5,6.5,3.4,4.4C12.2,83.3,6.1,81.2,6.1,81.2z"/>
			</g>
			<g id="XMLID_488_">
				<path id="XMLID_489_" class="st2" d="M48.2,36.6c0,0,0.5,6.5,3.4,4.4C54.3,38.7,48.2,36.6,48.2,36.6z"/>
			</g>
			<g id="XMLID_486_">
				<path id="XMLID_487_" class="st2" d="M41.7,41.6c0,0,0.5,6.5,3.4,4.4C47.9,43.7,41.7,41.6,41.7,41.6z"/>
			</g>
			<g id="XMLID_484_">
				<path id="XMLID_485_" class="st2" d="M35.2,46.6c0,0,0.5,6.5,3.4,4.4C41.4,48.7,35.2,46.6,35.2,46.6z"/>
			</g>
			<g id="XMLID_482_">
				<path id="XMLID_483_" class="st2" d="M28.8,51.6c0,0,0.5,6.5,3.4,4.4C34.9,53.7,28.8,51.6,28.8,51.6z"/>
			</g>
			<g id="XMLID_480_">
				<path id="XMLID_481_" class="st2" d="M22.3,56.6c0,0,0.5,6.5,3.4,4.4C28.4,58.7,22.3,56.6,22.3,56.6z"/>
			</g>
			<g id="XMLID_478_">
				<path id="XMLID_479_" class="st2" d="M15.8,61.6c0,0,0.5,6.5,3.4,4.4C22,63.7,15.8,61.6,15.8,61.6z"/>
			</g>
			<g id="XMLID_467_">
				<path id="XMLID_468_" class="st2" d="M9.3,66.6c0,0,0.5,6.5,3.4,4.4C15.5,68.7,9.3,66.6,9.3,66.6z"/>
			</g>
		</g>
		<path id="XMLID_462_" class="st3" d="M23.1,29.7c0,0-2.7,5.7,0.8,13.9c0.2,0.4,0.3,0.8,0.5,1.1c0.2,0.5,0.5,1,0.8,1.5l-1.9,1.4
			c0,0-0.4-0.5-1-1.4c-0.2-0.3-0.4-0.7-0.7-1.1c-0.3-0.5-0.6-1-0.9-1.6c-2-3.7-4.3-9.4-3.1-14.9C17.6,28.8,20,27.7,23.1,29.7z"/>
		<path id="XMLID_461_" class="st3" d="M43.6,46.8C35,43.9,29,45.1,29,45.1c7.4,4.9,4,9.5,4,9.5c0.3-4.9-6.5-7.9-6.5-7.9
			s-0.1,0.6-0.1,1.7c-0.1,3,0.1,9.3,3,13.7c0,0-5.7-5.4-7.4-11.6c-0.2,0.3-2.7,5.8-2,14.6c0,0-3.6-5.3-2.1-12.8
			c0,0-4.7,3.4-9.2,10.9c0.1-0.4,1.3-5.4,5.4-11.2c2-2.8,4.6-5.8,8.2-8.5l0.2-0.2c0.5-0.4,1-0.7,1.4-1.1c2.8-1.9,5.5-3.3,8-4.3
			c6.9-2.7,12.3-2.7,12.7-2.7c-8.4,2.5-12.9,6.2-12.9,6.2C39.3,42.1,43.6,46.8,43.6,46.8z"/>
		<path class="st4" d="M74.4,56.8c-2-11.3-11.6-19-22.9-19.3c-4.1-0.1-4.1,6.3,0,6.4c8.7,0.2,15.2,6.1,16.7,14.6
			C69,62.6,75.1,60.8,74.4,56.8z"/>
		<path class="st4" d="M73.7,63.6c-4.1,0-4.1,6.4,0,6.4C77.8,70,77.8,63.6,73.7,63.6z"/>
	</g>
</g>
<g id="XMLID_313_">
	<g id="XMLID_314_">
		<path id="XMLID_454_" class="st0" d="M130.2,53.1c0.2,0.3,0.3,0.6,0.4,0.9c0.2,0.5,0.4,1.1,0.7,1.6c1.7,4.6,2.9,10.6,3.5,17.1
			c0,0.3,0,0.5,0.1,0.8c1.1,15-1.4,32-9.2,38c-11.9,9.2-45.7,0-57.7-10.2c-8-6.8-23.3-24.3-1.6-46.9c2.4-2.5,5.3-5.1,8.7-7.8
			l0.2-0.1c0.4-0.3,0.8-0.7,1.3-1c2.7-2,5.2-3.7,7.6-5.1c15.1-8.8,25.9-7.2,33.4-2.4c0,0,0.1,0,0.1,0.1c0.4,0.2,0.8,0.5,1.1,0.8
			c0,0,0,0,0.1,0.1C124.5,42.9,128.1,48.9,130.2,53.1z"/>
		<path class="st1" d="M135,76.2c-10.8,10.5-22.8,18.6-39.5,14.3c-15.7-4.1-26.3-16.5-34.3-30C47.5,80.1,60.7,95,68,101.2
			c12,10.3,45.8,19.4,57.7,10.2C132.9,105.8,135.6,90.5,135,76.2z"/>
		<g id="XMLID_317_">
			<g id="XMLID_452_">
				<path id="XMLID_453_" class="st2" d="M124.7,102.4c0,0,0.5,6.5,3.4,4.4C130.9,104.5,124.7,102.4,124.7,102.4z"/>
			</g>
			<g id="XMLID_450_">
				<path id="XMLID_451_" class="st2" d="M118.2,107.4c0,0,0.5,6.5,3.4,4.4C124.4,109.5,118.2,107.4,118.2,107.4z"/>
			</g>
			<g id="XMLID_448_">
				<path id="XMLID_449_" class="st2" d="M128,87.8c0,0,0.5,6.5,3.4,4.4C134.1,89.9,128,87.8,128,87.8z"/>
			</g>
			<g id="XMLID_446_">
				<path id="XMLID_447_" class="st2" d="M121.5,92.8c0,0,0.5,6.5,3.4,4.4C127.7,94.9,121.5,92.8,121.5,92.8z"/>
			</g>
			<g id="XMLID_444_">
				<path id="XMLID_445_" class="st2" d="M115,97.8c0,0,0.5,6.5,3.4,4.4C121.2,99.9,115,97.8,115,97.8z"/>
			</g>
			<g id="XMLID_442_">
				<path id="XMLID_443_" class="st2" d="M108.6,102.8c0,0,0.5,6.5,3.4,4.4C114.7,104.9,108.6,102.8,108.6,102.8z"/>
			</g>
			<g id="XMLID_440_">
				<path id="XMLID_441_" class="st2" d="M102.1,107.8c0,0,0.5,6.5,3.4,4.4C108.3,109.9,102.1,107.8,102.1,107.8z"/>
			</g>
			<g id="XMLID_438_">
				<path id="XMLID_439_" class="st2" d="M126,77.2c0,0,0.5,6.5,3.4,4.4C132.1,79.4,126,77.2,126,77.2z"/>
			</g>
			<g id="XMLID_436_">
				<path id="XMLID_437_" class="st2" d="M119.5,82.2c0,0,0.5,6.5,3.4,4.4C125.7,84.4,119.5,82.2,119.5,82.2z"/>
			</g>
			<g id="XMLID_434_">
				<path id="XMLID_435_" class="st2" d="M113,87.3c0,0,0.5,6.5,3.4,4.4C119.2,89.4,113,87.3,113,87.3z"/>
			</g>
			<g id="XMLID_432_">
				<path id="XMLID_433_" class="st2" d="M106.5,92.3c0,0,0.5,6.5,3.4,4.4C112.7,94.4,106.5,92.3,106.5,92.3z"/>
			</g>
			<g id="XMLID_430_">
				<path id="XMLID_431_" class="st2" d="M100.1,97.3c0,0,0.5,6.5,3.4,4.4C106.2,99.4,100.1,97.3,100.1,97.3z"/>
			</g>
			<g id="XMLID_428_">
				<path id="XMLID_429_" class="st2" d="M93.6,102.3c0,0,0.5,6.5,3.4,4.4C99.8,104.4,93.6,102.3,93.6,102.3z"/>
			</g>
			<g id="XMLID_426_">
				<path id="XMLID_427_" class="st2" d="M87.2,104.8c0,0,0.5,6.5,3.4,4.4C93.4,106.9,87.2,104.8,87.2,104.8z"/>
			</g>
			<g id="XMLID_424_">
				<path id="XMLID_425_" class="st2" d="M129.2,62.6c0,0,0.5,6.5,3.4,4.4C135.4,64.8,129.2,62.6,129.2,62.6z"/>
			</g>
			<g id="XMLID_422_">
				<path id="XMLID_423_" class="st2" d="M134.7,72.7c0.1,0.2,0.1,0.5,0.1,0.8c-0.1,0.3-0.3,0.6-0.7,1c-2.9,2.1-3.4-4.4-3.4-4.4
					S134.1,71.2,134.7,72.7z"/>
			</g>
			<g id="XMLID_420_">
				<path id="XMLID_421_" class="st2" d="M122.8,67.7c0,0,0.5,6.5,3.4,4.4C128.9,69.8,122.8,67.7,122.8,67.7z"/>
			</g>
			<g id="XMLID_418_">
				<path id="XMLID_419_" class="st2" d="M116.3,72.7c0,0,0.5,6.5,3.4,4.4C122.4,74.8,116.3,72.7,116.3,72.7z"/>
			</g>
			<g id="XMLID_416_">
				<path id="XMLID_417_" class="st2" d="M109.8,77.7c0,0,0.5,6.5,3.4,4.4C116,79.8,109.8,77.7,109.8,77.7z"/>
			</g>
			<g id="XMLID_414_">
				<path id="XMLID_415_" class="st2" d="M103.3,82.7c0,0,0.5,6.5,3.4,4.4C109.5,84.8,103.3,82.7,103.3,82.7z"/>
			</g>
			<g id="XMLID_412_">
				<path id="XMLID_413_" class="st2" d="M96.9,87.7c0,0,0.5,6.5,3.4,4.4C103,89.8,96.9,87.7,96.9,87.7z"/>
			</g>
			<g id="XMLID_410_">
				<path id="XMLID_411_" class="st2" d="M90.4,92.7c0,0,0.5,6.5,3.4,4.4C96.6,94.8,90.4,92.7,90.4,92.7z"/>
			</g>
			<g id="XMLID_408_">
				<path id="XMLID_409_" class="st2" d="M83.9,97.7c0,0,0.5,6.5,3.4,4.4C90.1,99.8,83.9,97.7,83.9,97.7z"/>
			</g>
			<g id="XMLID_406_">
				<path id="XMLID_407_" class="st2" d="M77.5,102.7c0,0,0.5,6.5,3.4,4.4C83.6,104.8,77.5,102.7,77.5,102.7z"/>
			</g>
			<g id="XMLID_404_">
				<path id="XMLID_405_" class="st2" d="M131.3,55.6c-0.1,0.3-0.3,0.6-0.7,0.9c-2.9,2.1-3.4-4.4-3.4-4.4s2.2,0.8,3.4,1.9
					C131.1,54.5,131.5,55,131.3,55.6z"/>
			</g>
			<g id="XMLID_402_">
				<path id="XMLID_403_" class="st2" d="M120.7,57.1c0,0,0.5,6.5,3.4,4.4C126.9,59.3,120.7,57.1,120.7,57.1z"/>
			</g>
			<g id="XMLID_400_">
				<path id="XMLID_401_" class="st2" d="M114.3,62.1c0,0,0.5,6.5,3.4,4.4C120.4,64.3,114.3,62.1,114.3,62.1z"/>
			</g>
			<g id="XMLID_398_">
				<path id="XMLID_399_" class="st2" d="M107.8,67.2c0,0,0.5,6.5,3.4,4.4C114,69.3,107.8,67.2,107.8,67.2z"/>
			</g>
			<g id="XMLID_394_">
				<path id="XMLID_395_" class="st2" d="M101.3,72.2c0,0,0.5,6.5,3.4,4.4C107.5,74.3,101.3,72.2,101.3,72.2z"/>
			</g>
			<g id="XMLID_389_">
				<path id="XMLID_392_" class="st2" d="M94.9,77.2c0,0,0.5,6.5,3.4,4.4C101,79.3,94.9,77.2,94.9,77.2z"/>
			</g>
			<g id="XMLID_387_">
				<path id="XMLID_388_" class="st2" d="M88.4,82.2c0,0,0.5,6.5,3.4,4.4C94.6,84.3,88.4,82.2,88.4,82.2z"/>
			</g>
			<g id="XMLID_384_">
				<path id="XMLID_386_" class="st2" d="M81.9,87.2c0,0,0.5,6.5,3.4,4.4C88.1,89.3,81.9,87.2,81.9,87.2z"/>
			</g>
			<g id="XMLID_382_">
				<path id="XMLID_383_" class="st2" d="M75.5,92.2c0,0,0.5,6.5,3.4,4.4C81.6,94.3,75.5,92.2,75.5,92.2z"/>
			</g>
			<g id="XMLID_380_">
				<path id="XMLID_381_" class="st2" d="M69,97.2c0,0,0.5,6.5,3.4,4.4C75.1,99.3,69,97.2,69,97.2z"/>
			</g>
			<g id="XMLID_378_">
				<path id="XMLID_379_" class="st2" d="M117.5,47.6c0,0,0.5,6.5,3.4,4.4C123.7,49.7,117.5,47.6,117.5,47.6z"/>
			</g>
			<g id="XMLID_376_">
				<path id="XMLID_377_" class="st2" d="M111.1,52.6c0,0,0.5,6.5,3.4,4.4C117.2,54.7,111.1,52.6,111.1,52.6z"/>
			</g>
			<g id="XMLID_374_">
				<path id="XMLID_375_" class="st2" d="M104.6,57.6c0,0,0.5,6.5,3.4,4.4C110.8,59.7,104.6,57.6,104.6,57.6z"/>
			</g>
			<g id="XMLID_372_">
				<path id="XMLID_373_" class="st2" d="M98.1,62.6c0,0,0.5,6.5,3.4,4.4C104.3,64.7,98.1,62.6,98.1,62.6z"/>
			</g>
			<g id="XMLID_369_">
				<path id="XMLID_370_" class="st2" d="M91.7,67.6c0,0,0.5,6.5,3.4,4.4C97.8,69.7,91.7,67.6,91.7,67.6z"/>
			</g>
			<g id="XMLID_366_">
				<path id="XMLID_368_" class="st2" d="M85.2,72.6c0,0,0.5,6.5,3.4,4.4C91.4,74.7,85.2,72.6,85.2,72.6z"/>
			</g>
			<g id="XMLID_364_">
				<path id="XMLID_365_" class="st2" d="M78.7,77.6c0,0,0.5,6.5,3.4,4.4C84.9,79.7,78.7,77.6,78.7,77.6z"/>
			</g>
			<g id="XMLID_361_">
				<path id="XMLID_363_" class="st2" d="M72.2,82.6c0,0,0.5,6.5,3.4,4.4C78.4,84.7,72.2,82.6,72.2,82.6z"/>
			</g>
			<g id="XMLID_359_">
				<path id="XMLID_360_" class="st2" d="M65.8,87.6c0,0,0.5,6.5,3.4,4.4C71.9,89.7,65.8,87.6,65.8,87.6z"/>
			</g>
			<g id="XMLID_357_">
				<path id="XMLID_358_" class="st2" d="M118.9,41.4c-2.9,2.1-3.4-4.4-3.4-4.4s1,0.4,2,0.9c0,0,0.1,0,0.1,0.1
					c0.4,0.2,0.8,0.5,1.1,0.8c0,0,0,0,0.1,0.1C119.7,39.6,120.1,40.5,118.9,41.4z"/>
			</g>
			<g id="XMLID_355_">
				<path id="XMLID_356_" class="st2" d="M109.1,42c0,0,0.5,6.5,3.4,4.4C115.2,44.2,109.1,42,109.1,42z"/>
			</g>
			<g id="XMLID_346_">
				<path id="XMLID_354_" class="st2" d="M102.6,47.1c0,0,0.5,6.5,3.4,4.4C108.8,49.2,102.6,47.1,102.6,47.1z"/>
			</g>
			<g id="XMLID_344_">
				<path id="XMLID_345_" class="st2" d="M96.1,52.1c0,0,0.5,6.5,3.4,4.4C102.3,54.2,96.1,52.1,96.1,52.1z"/>
			</g>
			<g id="XMLID_342_">
				<path id="XMLID_343_" class="st2" d="M89.6,57.1c0,0,0.5,6.5,3.4,4.4C95.8,59.2,89.6,57.1,89.6,57.1z"/>
			</g>
			<g id="XMLID_340_">
				<path id="XMLID_341_" class="st2" d="M83.2,62.1c0,0,0.5,6.5,3.4,4.4C89.3,64.2,83.2,62.1,83.2,62.1z"/>
			</g>
			<g id="XMLID_338_">
				<path id="XMLID_339_" class="st2" d="M76.7,67.1c0,0,0.5,6.5,3.4,4.4C82.9,69.2,76.7,67.1,76.7,67.1z"/>
			</g>
			<g id="XMLID_336_">
				<path id="XMLID_337_" class="st2" d="M70.2,72.1c0,0,0.5,6.5,3.4,4.4C76.4,74.2,70.2,72.1,70.2,72.1z"/>
			</g>
			<g id="XMLID_334_">
				<path id="XMLID_335_" class="st2" d="M63.8,77.1c0,0,0.5,6.5,3.4,4.4C69.9,79.2,63.8,77.1,63.8,77.1z"/>
			</g>
			<g id="XMLID_332_">
				<path id="XMLID_333_" class="st2" d="M57.3,82.1c0,0,0.5,6.5,3.4,4.4C63.5,84.2,57.3,82.1,57.3,82.1z"/>
			</g>
			<g id="XMLID_330_">
				<path id="XMLID_331_" class="st2" d="M99.4,37.5c0,0,0.5,6.5,3.4,4.4C105.5,39.6,99.4,37.5,99.4,37.5z"/>
			</g>
			<g id="XMLID_328_">
				<path id="XMLID_329_" class="st2" d="M92.9,42.5c0,0,0.5,6.5,3.4,4.4C99.1,44.6,92.9,42.5,92.9,42.5z"/>
			</g>
			<g id="XMLID_326_">
				<path id="XMLID_327_" class="st2" d="M86.4,47.5c0,0,0.5,6.5,3.4,4.4C92.6,49.6,86.4,47.5,86.4,47.5z"/>
			</g>
			<g id="XMLID_324_">
				<path id="XMLID_325_" class="st2" d="M80,52.5c0,0,0.5,6.5,3.4,4.4C86.1,54.6,80,52.5,80,52.5z"/>
			</g>
			<g id="XMLID_322_">
				<path id="XMLID_323_" class="st2" d="M73.5,57.5c0,0,0.5,6.5,3.4,4.4C79.7,59.6,73.5,57.5,73.5,57.5z"/>
			</g>
			<g id="XMLID_320_">
				<path id="XMLID_321_" class="st2" d="M67,62.5c0,0,0.5,6.5,3.4,4.4C73.2,64.6,67,62.5,67,62.5z"/>
			</g>
			<g id="XMLID_318_">
				<path id="XMLID_319_" class="st2" d="M60.6,67.5c0,0,0.5,6.5,3.4,4.4C66.7,69.6,60.6,67.5,60.6,67.5z"/>
			</g>
		</g>
		<path id="XMLID_316_" class="st3" d="M74.4,30.6c0,0-2.7,5.7,0.8,13.9c0.2,0.4,0.3,0.8,0.5,1.1c0.2,0.5,0.5,1,0.8,1.5l-1.9,1.4
			c0,0-0.4-0.5-1-1.4c-0.2-0.3-0.4-0.7-0.7-1.1c-0.3-0.5-0.6-1-0.9-1.6c-2-3.7-4.3-9.4-3.1-14.9C68.8,29.7,71.2,28.6,74.4,30.6z"/>
		<path id="XMLID_315_" class="st3" d="M94.8,47.7c-8.6-3-14.7-1.7-14.7-1.7c7.4,4.9,4,9.5,4,9.5c0.3-4.9-6.5-7.9-6.5-7.9
			s-0.1,0.6-0.1,1.7c-0.1,3,0.1,9.3,3,13.7c0,0-5.7-5.4-7.4-11.6c-0.2,0.3-2.7,5.8-2,14.6c0,0-3.6-5.3-2.1-12.8
			c0,0-4.7,3.4-9.2,10.9c0.1-0.4,1.3-5.4,5.4-11.2c2-2.8,4.6-5.8,8.2-8.5l0.2-0.2c0.5-0.4,1-0.7,1.4-1.1c2.8-1.9,5.5-3.3,8-4.3
			c6.9-2.7,12.3-2.7,12.7-2.7C87.4,38.8,83,42.5,83,42.5C90.6,42.9,94.8,47.7,94.8,47.7z"/>
		<path class="st4" d="M125.6,57.7c-2-11.3-11.6-19-22.9-19.3c-4.1-0.1-4.1,6.3,0,6.4c8.7,0.2,15.2,6.1,16.7,14.6
			C120.2,63.5,126.4,61.7,125.6,57.7z"/>
		<path class="st4" d="M124.9,64.4c-4.1,0-4.1,6.4,0,6.4C129,70.9,129.1,64.4,124.9,64.4z"/>
	</g>
</g>
</svg>
