<svg xmlns="http://www.w3.org/2000/svg" viewBox="0 0 410.67 417.41"><defs><style>.cls-1{isolation:isolate;}.cls-2{fill:#c4c5ae;opacity:0.5;}.cls-15,.cls-2,.cls-23,.cls-27,.cls-5{mix-blend-mode:multiply;}.cls-3{fill:#efefef;}.cls-4,.cls-5{fill:#eaebe3;}.cls-6{fill:#609340;}.cls-7{fill:#522d1b;}.cls-8{fill:#d0442e;}.cls-9{fill:#c73c27;}.cls-10{fill:#fff6d5;}.cls-11{fill:#edd692;}.cls-12{fill:#51250c;}.cls-13{fill:#584b29;}.cls-14{fill:#ff2120;}.cls-15{fill:#ef1414;opacity:0.8;}.cls-16,.cls-22,.cls-23{fill:#ff8700;}.cls-17,.cls-18{fill:#009245;}.cls-18,.cls-27{opacity:0.7;}.cls-18,.cls-22,.cls-28{mix-blend-mode:screen;}.cls-19{fill:#695201;}.cls-20{fill:#66ae24;}.cls-21{fill:#63b320;}.cls-23,.cls-28{opacity:0.6;}.cls-24{fill:#492101;}.cls-25,.cls-27{fill:#c2ca27;}.cls-26{fill:#dddd45;}.cls-28{fill:#ff5252;}</style></defs><title>Comidas Frutas</title><g class="cls-1"><g id="Capa_3" data-name="Capa 3"><g id="Frutas"><circle class="cls-2" cx="214.47" cy="221.21" r="196.2"/><circle class="cls-3" cx="196.2" cy="196.2" r="196.2"/><circle class="cls-4" cx="196.2" cy="196.2" r="145.23"/><path class="cls-5" d="M781,274.91A145.19,145.19,0,0,1,1026.19,169.6,145.19,145.19,0,1,0,811.86,364.34,144.55,144.55,0,0,1,781,274.91Z" transform="translate(-715.61 -62.84)"/><path class="cls-6" d="M991.42,81.49c-6.35,1.54-10.7,6.74-10.59,12.3A35.87,35.87,0,0,1,996,86.38a35.14,35.14,0,0,1,18.68.48,36,36,0,0,0-17.13,0,37,37,0,0,0-13.16,5.83h0a22.12,22.12,0,0,0-5.12,4.12c.2.48.45,1.1.71,1.75,0-.11-.07-.25-.12-.36.5-.51,1-1,1.44-1.44,1.85,5.82,8.56,9.28,15.38,7.62,9.61-2.35,15.21-17.15,24-15.06A31.27,31.27,0,0,0,991.42,81.49Z" transform="translate(-715.61 -62.84)"/><path class="cls-7" d="M979.27,96.78a20.8,20.8,0,0,0-6.7-8,4.25,4.25,0,1,0-5.5,6.48c.13.11,7.8,4.33,6.29,17.84a11.09,11.09,0,0,1,3.19,1.25s2.16-.65,5.37-1.42A31.77,31.77,0,0,0,980,98.51c-.26-.65-.51-1.27-.71-1.75Z" transform="translate(-715.61 -62.84)"/><path class="cls-8" d="M976.55,114.35a11.09,11.09,0,0,0-3.19-1.25h0c-1.65-.41-3.74-.87-6.07-1.26-1.64-.26-3.17-.46-4.37-.61-11.29-1.22-26,0-32.23,12.65-10.75,21.87-3.46,51.8,15,64.85,16.47,11.67,28.92,7.39,31.38,6.35V114.21Z" transform="translate(-715.61 -62.84)"/><path class="cls-9" d="M1024.32,123.88c-3.21-6.53-8.67-10-14.75-11.69.1.08.23.12.33.2-.1-.08-.23-.12-.33-.2-9.92-2.73-21.48-.68-27.65.84v-.1c-2.34.56-4.09,1-4.89,1.28v80.87l.47-.21s13.43,6.91,31.85-6.14S1035.06,145.75,1024.32,123.88Z" transform="translate(-715.61 -62.84)"/><path class="cls-10" d="M967.22,132.93c-2.86-5.82-7.16-8.31-12.58-9.81-8.84-2.44-20.49-.6-25.9.76,0,0,.93-1,.93-1a39.13,39.13,0,0,0-3.85,1.14,6.29,6.29,0,0,1-.73.12,12.74,12.74,0,0,0-3.15-1.11h0c-1.4-.36-2.77-.77-4.85-1.12-1.46-.23-2.54-.41-3.62-.54-10.06-1.09-23,0-28.59,11.27-9.58,19.5-3,46.18,13.41,57.81,14.68,10.4,25.82,6.58,28,5.66l.43-.19s11,6,27.41-5.63S976.8,152.43,967.22,132.93Z" transform="translate(-715.61 -62.84)"/><path class="cls-11" d="M926.52,146.7l.14.08a34.56,34.56,0,0,1,6,4.35c2.23,2.05,4.81,5.1,4.43,8-.47,3.56-2.86,6.89-4.79,9.05a31,31,0,0,1-4.47,4.15l-1.08.78-1,.32-1.1-.79c-.08-.06-8.33-6.16-9.25-13.2-.38-2.91,2.2-6,4.43-8a35.14,35.14,0,0,1,6-4.35l.72-.39m5.17-22.09-6,1.43v.07l-5-1.19A57.88,57.88,0,0,1,924,143.7s-13.54,7.35-12.38,16.25,10.84,15.87,10.84,15.87,3.87,13.5,1.16,19h3.07v-.32h2.26c-2.71-5.46,1.16-19,1.16-19s9.67-7,10.83-15.85-12.39-16.27-12.39-16.27a58.28,58.28,0,0,1,3.19-18.78Z" transform="translate(-715.61 -62.84)"/><path class="cls-9" d="M944.94,123.19a35.37,35.37,0,0,1,9.31,1.11,22.83,22.83,0,0,1,7.11,3.27,15.91,15.91,0,0,1,5.18,6,41.86,41.86,0,0,1,4.05,14.85A49,49,0,0,1,969.45,164a46.73,46.73,0,0,1-5.79,14.11,36.35,36.35,0,0,1-9.78,10.57A38.3,38.3,0,0,1,943.41,194a26.81,26.81,0,0,1-8.19,1.33,18.45,18.45,0,0,1-7.5-1.39l-.9-.48-1,.43-.4.17h0a19.15,19.15,0,0,1-7.23,1.28,27.13,27.13,0,0,1-8.2-1.33,38.4,38.4,0,0,1-10.48-5.38,36.39,36.39,0,0,1-9.78-10.58,46.73,46.73,0,0,1-5.82-14.1,49,49,0,0,1-1.16-15.55,41.85,41.85,0,0,1,4-14.85c3.39-6.9,10.37-10.4,20.75-10.4a53.55,53.55,0,0,1,5.66.32c.91.11,1.86.26,3.07.46l.44.07a40.27,40.27,0,0,1,4,.91l.62.17.53.14a11.38,11.38,0,0,1,1.94.65l.65.46.81-.08a6.79,6.79,0,0,0,1.11-.2c.26-.07.47-.16.76-.26a1.23,1.23,0,0,1,.24-.1h0l2.73-.67a64.31,64.31,0,0,1,14.79-1.88m-.11-2.17A68,68,0,0,0,929.45,123v-.09c-2,.5-3,.94-3.74,1.14a6.38,6.38,0,0,1-.75.12,12.64,12.64,0,0,0-3.17-1.11h0A48.67,48.67,0,0,0,917,121.9c-1.46-.23-2.51-.41-3.59-.54a53,53,0,0,0-5.87-.33c-8.77,0-18.18,2.42-22.69,11.6-9.58,19.5-3,46.18,13.41,57.81,8,5.65,14.92,7.11,19.94,7.11a21.19,21.19,0,0,0,8.07-1.45l.44-.19a20,20,0,0,0,8.49,1.63c5,0,11.94-1.45,19.92-7.1,16.42-11.63,22.92-38.31,13.34-57.81-2.85-5.82-8.29-8.91-13.71-10.41a37.91,37.91,0,0,0-9.94-1.2Z" transform="translate(-715.61 -62.84)"/><path class="cls-12" d="M918,162.81c.44-2.54,2.22-5.9,3.64-5.65s2,4,1.51,6.55-1.69,2.87-3.11,2.62S917.51,165.34,918,162.81Z" transform="translate(-715.61 -62.84)"/><path class="cls-12" d="M933.22,162.81c-.44-2.54-2.22-5.9-3.64-5.65s-2,4-1.52,6.55,1.69,2.87,3.12,2.62S933.66,165.34,933.22,162.81Z" transform="translate(-715.61 -62.84)"/><path class="cls-13" d="M927.25,124.77h-.07c-1,0-1.51-.85-1.47-1.88.38-9.58-3.26-12.07-3.29-12.09a1.84,1.84,0,0,1-.61-2.54,1.87,1.87,0,0,1,2.58-.62c.53.32,4.79,3.38,4.32,15.25C928.67,123.89,928.25,124.77,927.25,124.77Z" transform="translate(-715.61 -62.84)"/><path class="cls-12" d="M925.55,194.12c3,0,3.82,4.36,3.82,4.36l-2-1.26.21,1.26-1.12-1.27-.61,1.27-.56-1.3L924,199.13l-.13-2-1.39,2.26S922.59,194.12,925.55,194.12Z" transform="translate(-715.61 -62.84)"/><g id="_Grupo_" data-name="&lt;Grupo&gt;"><g id="_Grupo_2" data-name="&lt;Grupo&gt;"><path id="_Trazado_" data-name="&lt;Trazado&gt;" class="cls-14" d="M848.71,184.83a4.91,4.91,0,0,1,.22.46c.11.25.22.52.32.81a32.29,32.29,0,0,1,1.72,8.42c0,.13,0,.25,0,.37.55,7.41-.7,15.79-4.51,18.74-5.85,4.53-22.54,0-28.45-5-4-3.38-11.46-12-.8-23.11a39.63,39.63,0,0,1,4.32-3.85l.09-.07.62-.48a39.26,39.26,0,0,1,3.77-2.52c7.43-4.33,12.76-3.55,16.46-1.18l0,0,.54.37s0,0,0,0A18.91,18.91,0,0,1,848.71,184.83Z" transform="translate(-715.61 -62.84)"/><path class="cls-15" d="M851.07,196.26c-5.32,5.17-11.22,9.19-19.46,7-7.74-2-13-8.13-16.9-14.77-6.78,9.66-.27,17,3.32,20.07,5.91,5.06,22.6,9.58,28.45,5C850.06,210.86,851.38,203.3,851.07,196.26Z" transform="translate(-715.61 -62.84)"/><g id="_Grupo_3" data-name="&lt;Grupo&gt;"><g id="_Grupo_4" data-name="&lt;Grupo&gt;"><path id="_Trazado_2" data-name="&lt;Trazado&gt;" class="cls-16" d="M846,209.13s.25,3.21,1.67,2.17S846,209.13,846,209.13Z" transform="translate(-715.61 -62.84)"/></g><g id="_Grupo_5" data-name="&lt;Grupo&gt;"><path id="_Trazado_3" data-name="&lt;Trazado&gt;" class="cls-16" d="M842.83,211.6s.25,3.21,1.67,2.17S842.83,211.6,842.83,211.6Z" transform="translate(-715.61 -62.84)"/></g><g id="_Grupo_6" data-name="&lt;Grupo&gt;"><path id="_Trazado_4" data-name="&lt;Trazado&gt;" class="cls-16" d="M847.63,201.94s.25,3.2,1.67,2.16S847.63,201.94,847.63,201.94Z" transform="translate(-715.61 -62.84)"/></g><g id="_Grupo_7" data-name="&lt;Grupo&gt;"><path id="_Trazado_5" data-name="&lt;Trazado&gt;" class="cls-16" d="M844.44,204.41s.24,3.2,1.67,2.16S844.44,204.41,844.44,204.41Z" transform="translate(-715.61 -62.84)"/></g><g id="_Grupo_8" data-name="&lt;Grupo&gt;"><path id="_Trazado_6" data-name="&lt;Trazado&gt;" class="cls-16" d="M841.25,206.88s.24,3.2,1.67,2.16S841.25,206.88,841.25,206.88Z" transform="translate(-715.61 -62.84)"/></g><g id="_Grupo_9" data-name="&lt;Grupo&gt;"><path id="_Trazado_7" data-name="&lt;Trazado&gt;" class="cls-16" d="M838.06,209.34s.24,3.21,1.67,2.17S838.06,209.34,838.06,209.34Z" transform="translate(-715.61 -62.84)"/></g><g id="_Grupo_10" data-name="&lt;Grupo&gt;"><path id="_Trazado_8" data-name="&lt;Trazado&gt;" class="cls-16" d="M834.87,211.81s.24,3.21,1.67,2.17S834.87,211.81,834.87,211.81Z" transform="translate(-715.61 -62.84)"/></g><g id="_Grupo_11" data-name="&lt;Grupo&gt;"><path id="_Trazado_9" data-name="&lt;Trazado&gt;" class="cls-16" d="M846.64,196.75s.24,3.2,1.67,2.16S846.64,196.75,846.64,196.75Z" transform="translate(-715.61 -62.84)"/></g><g id="_Grupo_12" data-name="&lt;Grupo&gt;"><path id="_Trazado_10" data-name="&lt;Trazado&gt;" class="cls-16" d="M843.45,199.22s.24,3.2,1.67,2.16S843.45,199.22,843.45,199.22Z" transform="translate(-715.61 -62.84)"/></g><g id="_Grupo_13" data-name="&lt;Grupo&gt;"><path id="_Trazado_11" data-name="&lt;Trazado&gt;" class="cls-16" d="M840.26,201.69s.24,3.2,1.67,2.16S840.26,201.69,840.26,201.69Z" transform="translate(-715.61 -62.84)"/></g><g id="_Grupo_14" data-name="&lt;Grupo&gt;"><path id="_Trazado_12" data-name="&lt;Trazado&gt;" class="cls-16" d="M837.07,204.16s.24,3.2,1.67,2.16S837.07,204.16,837.07,204.16Z" transform="translate(-715.61 -62.84)"/></g><g id="_Grupo_15" data-name="&lt;Grupo&gt;"><path id="_Trazado_13" data-name="&lt;Trazado&gt;" class="cls-16" d="M833.87,206.63s.25,3.2,1.68,2.16S833.87,206.63,833.87,206.63Z" transform="translate(-715.61 -62.84)"/></g><g id="_Grupo_16" data-name="&lt;Grupo&gt;"><path id="_Trazado_14" data-name="&lt;Trazado&gt;" class="cls-16" d="M830.68,209.1s.25,3.2,1.68,2.16S830.68,209.1,830.68,209.1Z" transform="translate(-715.61 -62.84)"/></g><g id="_Grupo_17" data-name="&lt;Grupo&gt;"><path id="_Trazado_15" data-name="&lt;Trazado&gt;" class="cls-16" d="M827.54,210.35s.25,3.21,1.68,2.16S827.54,210.35,827.54,210.35Z" transform="translate(-715.61 -62.84)"/></g><g id="_Grupo_18" data-name="&lt;Grupo&gt;"><path id="_Trazado_16" data-name="&lt;Trazado&gt;" class="cls-16" d="M848.25,189.55s.24,3.21,1.67,2.17S848.25,189.55,848.25,189.55Z" transform="translate(-715.61 -62.84)"/></g><g id="_Grupo_19" data-name="&lt;Grupo&gt;"><path id="_Trazado_17" data-name="&lt;Trazado&gt;" class="cls-16" d="M851,194.52a.59.59,0,0,1,0,.37.85.85,0,0,1-.33.48c-1.42,1-1.67-2.17-1.67-2.17S850.66,193.77,851,194.52Z" transform="translate(-715.61 -62.84)"/></g><g id="_Grupo_20" data-name="&lt;Grupo&gt;"><path id="_Trazado_18" data-name="&lt;Trazado&gt;" class="cls-16" d="M845.06,192s.24,3.21,1.67,2.16S845.06,192,845.06,192Z" transform="translate(-715.61 -62.84)"/></g><g id="_Grupo_21" data-name="&lt;Grupo&gt;"><path id="_Trazado_19" data-name="&lt;Trazado&gt;" class="cls-16" d="M841.87,194.49s.24,3.21,1.67,2.16S841.87,194.49,841.87,194.49Z" transform="translate(-715.61 -62.84)"/></g><g id="_Grupo_22" data-name="&lt;Grupo&gt;"><path id="_Trazado_20" data-name="&lt;Trazado&gt;" class="cls-16" d="M838.68,197s.24,3.21,1.67,2.16S838.68,197,838.68,197Z" transform="translate(-715.61 -62.84)"/></g><g id="_Grupo_23" data-name="&lt;Grupo&gt;"><path id="_Trazado_21" data-name="&lt;Trazado&gt;" class="cls-16" d="M835.48,199.43s.25,3.2,1.68,2.16S835.48,199.43,835.48,199.43Z" transform="translate(-715.61 -62.84)"/></g><g id="_Grupo_24" data-name="&lt;Grupo&gt;"><path id="_Trazado_22" data-name="&lt;Trazado&gt;" class="cls-16" d="M832.29,201.9s.25,3.2,1.68,2.16S832.29,201.9,832.29,201.9Z" transform="translate(-715.61 -62.84)"/></g><g id="_Grupo_25" data-name="&lt;Grupo&gt;"><path id="_Trazado_23" data-name="&lt;Trazado&gt;" class="cls-16" d="M829.1,204.37s.25,3.2,1.68,2.16S829.1,204.37,829.1,204.37Z" transform="translate(-715.61 -62.84)"/></g><g id="_Grupo_26" data-name="&lt;Grupo&gt;"><path id="_Trazado_24" data-name="&lt;Trazado&gt;" class="cls-16" d="M825.91,206.84s.25,3.2,1.68,2.16S825.91,206.84,825.91,206.84Z" transform="translate(-715.61 -62.84)"/></g><g id="_Grupo_27" data-name="&lt;Grupo&gt;"><path id="_Trazado_25" data-name="&lt;Trazado&gt;" class="cls-16" d="M822.72,209.31s.25,3.2,1.68,2.16S822.72,209.31,822.72,209.31Z" transform="translate(-715.61 -62.84)"/></g><g id="_Grupo_28" data-name="&lt;Grupo&gt;"><path id="_Trazado_26" data-name="&lt;Trazado&gt;" class="cls-16" d="M849.25,186.1a.86.86,0,0,1-.32.43c-1.42,1-1.67-2.16-1.67-2.16a5.74,5.74,0,0,1,1.67.92A.78.78,0,0,1,849.25,186.1Z" transform="translate(-715.61 -62.84)"/></g><g id="_Grupo_29" data-name="&lt;Grupo&gt;"><path id="_Trazado_27" data-name="&lt;Trazado&gt;" class="cls-16" d="M844.07,186.84s.24,3.2,1.67,2.16S844.07,186.84,844.07,186.84Z" transform="translate(-715.61 -62.84)"/></g><g id="_Grupo_30" data-name="&lt;Grupo&gt;"><path id="_Trazado_28" data-name="&lt;Trazado&gt;" class="cls-16" d="M840.87,189.31s.25,3.2,1.68,2.16S840.87,189.31,840.87,189.31Z" transform="translate(-715.61 -62.84)"/></g><g id="_Grupo_31" data-name="&lt;Grupo&gt;"><path id="_Trazado_29" data-name="&lt;Trazado&gt;" class="cls-16" d="M837.68,191.78s.25,3.2,1.68,2.16S837.68,191.78,837.68,191.78Z" transform="translate(-715.61 -62.84)"/></g><g id="_Grupo_32" data-name="&lt;Grupo&gt;"><path id="_Trazado_30" data-name="&lt;Trazado&gt;" class="cls-16" d="M834.49,194.25s.25,3.2,1.68,2.16S834.49,194.25,834.49,194.25Z" transform="translate(-715.61 -62.84)"/></g><g id="_Grupo_33" data-name="&lt;Grupo&gt;"><path id="_Trazado_31" data-name="&lt;Trazado&gt;" class="cls-16" d="M831.3,196.71s.25,3.21,1.68,2.17S831.3,196.71,831.3,196.71Z" transform="translate(-715.61 -62.84)"/></g><g id="_Grupo_34" data-name="&lt;Grupo&gt;"><path id="_Trazado_32" data-name="&lt;Trazado&gt;" class="cls-16" d="M828.11,199.18s.25,3.21,1.68,2.17S828.11,199.18,828.11,199.18Z" transform="translate(-715.61 -62.84)"/></g><g id="_Grupo_35" data-name="&lt;Grupo&gt;"><path id="_Trazado_33" data-name="&lt;Trazado&gt;" class="cls-16" d="M824.92,201.65s.25,3.21,1.68,2.17S824.92,201.65,824.92,201.65Z" transform="translate(-715.61 -62.84)"/></g><g id="_Grupo_36" data-name="&lt;Grupo&gt;"><path id="_Trazado_34" data-name="&lt;Trazado&gt;" class="cls-16" d="M821.73,204.12s.25,3.21,1.68,2.17S821.73,204.12,821.73,204.12Z" transform="translate(-715.61 -62.84)"/></g><g id="_Grupo_37" data-name="&lt;Grupo&gt;"><path id="_Trazado_35" data-name="&lt;Trazado&gt;" class="cls-16" d="M818.54,206.59s.25,3.21,1.68,2.17S818.54,206.59,818.54,206.59Z" transform="translate(-715.61 -62.84)"/></g><g id="_Grupo_38" data-name="&lt;Grupo&gt;"><path id="_Trazado_36" data-name="&lt;Trazado&gt;" class="cls-16" d="M842.48,182.11s.25,3.2,1.68,2.16S842.48,182.11,842.48,182.11Z" transform="translate(-715.61 -62.84)"/></g><g id="_Grupo_39" data-name="&lt;Grupo&gt;"><path id="_Trazado_37" data-name="&lt;Trazado&gt;" class="cls-16" d="M839.29,184.58s.25,3.2,1.68,2.16S839.29,184.58,839.29,184.58Z" transform="translate(-715.61 -62.84)"/></g><g id="_Grupo_40" data-name="&lt;Grupo&gt;"><path id="_Trazado_38" data-name="&lt;Trazado&gt;" class="cls-16" d="M836.1,187.05s.25,3.2,1.68,2.16S836.1,187.05,836.1,187.05Z" transform="translate(-715.61 -62.84)"/></g><g id="_Grupo_41" data-name="&lt;Grupo&gt;"><path id="_Trazado_39" data-name="&lt;Trazado&gt;" class="cls-16" d="M832.91,189.52s.25,3.2,1.68,2.16S832.91,189.52,832.91,189.52Z" transform="translate(-715.61 -62.84)"/></g><g id="_Grupo_42" data-name="&lt;Grupo&gt;"><path id="_Trazado_40" data-name="&lt;Trazado&gt;" class="cls-16" d="M829.72,192s.25,3.2,1.68,2.16S829.72,192,829.72,192Z" transform="translate(-715.61 -62.84)"/></g><g id="_Grupo_43" data-name="&lt;Grupo&gt;"><path id="_Trazado_41" data-name="&lt;Trazado&gt;" class="cls-16" d="M826.53,194.46s.25,3.2,1.68,2.16S826.53,194.46,826.53,194.46Z" transform="translate(-715.61 -62.84)"/></g><g id="_Grupo_44" data-name="&lt;Grupo&gt;"><path id="_Trazado_42" data-name="&lt;Trazado&gt;" class="cls-16" d="M823.34,196.93s.25,3.2,1.68,2.16S823.34,196.93,823.34,196.93Z" transform="translate(-715.61 -62.84)"/></g><g id="_Grupo_45" data-name="&lt;Grupo&gt;"><path id="_Trazado_43" data-name="&lt;Trazado&gt;" class="cls-16" d="M820.15,199.39s.25,3.21,1.67,2.17S820.15,199.39,820.15,199.39Z" transform="translate(-715.61 -62.84)"/></g><g id="_Grupo_46" data-name="&lt;Grupo&gt;"><path id="_Trazado_44" data-name="&lt;Trazado&gt;" class="cls-16" d="M817,201.86s.25,3.21,1.67,2.17S817,201.86,817,201.86Z" transform="translate(-715.61 -62.84)"/></g><g id="_Grupo_47" data-name="&lt;Grupo&gt;"><path id="_Trazado_45" data-name="&lt;Trazado&gt;" class="cls-16" d="M843.17,179.09c-1.43,1-1.67-2.17-1.67-2.17a8.6,8.6,0,0,1,1,.45l0,0a3,3,0,0,1,.54.37s0,0,0,0C843.54,178.17,843.74,178.62,843.17,179.09Z" transform="translate(-715.61 -62.84)"/></g><g id="_Grupo_48" data-name="&lt;Grupo&gt;"><path id="_Trazado_46" data-name="&lt;Trazado&gt;" class="cls-16" d="M838.3,179.39s.25,3.21,1.68,2.16S838.3,179.39,838.3,179.39Z" transform="translate(-715.61 -62.84)"/></g><g id="_Grupo_49" data-name="&lt;Grupo&gt;"><path id="_Trazado_47" data-name="&lt;Trazado&gt;" class="cls-16" d="M835.11,181.86s.25,3.21,1.68,2.16S835.11,181.86,835.11,181.86Z" transform="translate(-715.61 -62.84)"/></g><g id="_Grupo_50" data-name="&lt;Grupo&gt;"><path id="_Trazado_48" data-name="&lt;Trazado&gt;" class="cls-16" d="M831.92,184.33s.25,3.2,1.68,2.16S831.92,184.33,831.92,184.33Z" transform="translate(-715.61 -62.84)"/></g><g id="_Grupo_51" data-name="&lt;Grupo&gt;"><path id="_Trazado_49" data-name="&lt;Trazado&gt;" class="cls-16" d="M828.73,186.8s.25,3.2,1.68,2.16S828.73,186.8,828.73,186.8Z" transform="translate(-715.61 -62.84)"/></g><g id="_Grupo_52" data-name="&lt;Grupo&gt;"><path id="_Trazado_50" data-name="&lt;Trazado&gt;" class="cls-16" d="M825.54,189.27s.25,3.2,1.68,2.16S825.54,189.27,825.54,189.27Z" transform="translate(-715.61 -62.84)"/></g><g id="_Grupo_53" data-name="&lt;Grupo&gt;"><path id="_Trazado_51" data-name="&lt;Trazado&gt;" class="cls-16" d="M822.35,191.74s.25,3.2,1.67,2.16S822.35,191.74,822.35,191.74Z" transform="translate(-715.61 -62.84)"/></g><g id="_Grupo_54" data-name="&lt;Grupo&gt;"><path id="_Trazado_52" data-name="&lt;Trazado&gt;" class="cls-16" d="M819.16,194.21s.25,3.2,1.67,2.16S819.16,194.21,819.16,194.21Z" transform="translate(-715.61 -62.84)"/></g><g id="_Grupo_55" data-name="&lt;Grupo&gt;"><path id="_Trazado_53" data-name="&lt;Trazado&gt;" class="cls-16" d="M816,196.68s.25,3.2,1.67,2.16S816,196.68,816,196.68Z" transform="translate(-715.61 -62.84)"/></g><g id="_Grupo_56" data-name="&lt;Grupo&gt;"><path id="_Trazado_54" data-name="&lt;Trazado&gt;" class="cls-16" d="M812.78,199.15s.25,3.2,1.67,2.16S812.78,199.15,812.78,199.15Z" transform="translate(-715.61 -62.84)"/></g><g id="_Grupo_57" data-name="&lt;Grupo&gt;"><path id="_Trazado_55" data-name="&lt;Trazado&gt;" class="cls-16" d="M833.53,177.13s.25,3.21,1.68,2.17S833.53,177.13,833.53,177.13Z" transform="translate(-715.61 -62.84)"/></g><g id="_Grupo_58" data-name="&lt;Grupo&gt;"><path id="_Trazado_56" data-name="&lt;Trazado&gt;" class="cls-16" d="M830.34,179.6s.25,3.21,1.68,2.17S830.34,179.6,830.34,179.6Z" transform="translate(-715.61 -62.84)"/></g><g id="_Grupo_59" data-name="&lt;Grupo&gt;"><path id="_Trazado_57" data-name="&lt;Trazado&gt;" class="cls-16" d="M827.15,182.07s.25,3.21,1.67,2.16S827.15,182.07,827.15,182.07Z" transform="translate(-715.61 -62.84)"/></g><g id="_Grupo_60" data-name="&lt;Grupo&gt;"><path id="_Trazado_58" data-name="&lt;Trazado&gt;" class="cls-16" d="M824,184.54s.25,3.21,1.67,2.16S824,184.54,824,184.54Z" transform="translate(-715.61 -62.84)"/></g><g id="_Grupo_61" data-name="&lt;Grupo&gt;"><path id="_Trazado_59" data-name="&lt;Trazado&gt;" class="cls-16" d="M820.77,187s.25,3.2,1.67,2.16S820.77,187,820.77,187Z" transform="translate(-715.61 -62.84)"/></g><g id="_Grupo_62" data-name="&lt;Grupo&gt;"><path id="_Trazado_60" data-name="&lt;Trazado&gt;" class="cls-16" d="M817.58,189.48s.25,3.2,1.67,2.16S817.58,189.48,817.58,189.48Z" transform="translate(-715.61 -62.84)"/></g><g id="_Grupo_63" data-name="&lt;Grupo&gt;"><path id="_Trazado_61" data-name="&lt;Trazado&gt;" class="cls-16" d="M814.39,192s.25,3.2,1.67,2.16S814.39,192,814.39,192Z" transform="translate(-715.61 -62.84)"/></g></g><path id="_Trazado_62" data-name="&lt;Trazado&gt;" class="cls-17" d="M821.19,173.76s-1.32,2.79.38,6.86c.08.19.16.37.26.57a7.29,7.29,0,0,0,.37.74l-.92.71s-.19-.25-.48-.67c-.1-.15-.22-.33-.34-.53s-.3-.5-.47-.79c-1-1.82-2.13-4.64-1.52-7.36A3.05,3.05,0,0,1,821.19,173.76Z" transform="translate(-715.61 -62.84)"/><path id="_Trazado_63" data-name="&lt;Trazado&gt;" class="cls-17" d="M831.29,182.2a14.85,14.85,0,0,0-7.23-.85c3.63,2.4,2,4.7,2,4.7.14-2.41-3.22-3.89-3.22-3.89s0,.32-.05.85c0,1.48.05,4.57,1.48,6.75a14.59,14.59,0,0,1-3.64-5.74,15.17,15.17,0,0,0-1,7.2,9,9,0,0,1-1-6.31,19.37,19.37,0,0,0-4.55,5.37,17.16,17.16,0,0,1,2.67-5.5,19.81,19.81,0,0,1,4-4.18l.11-.09c.23-.18.47-.35.71-.52a20,20,0,0,1,4-2.13,17.17,17.17,0,0,1,6.29-1.32,19.38,19.38,0,0,0-6.35,3.06A9,9,0,0,1,831.29,182.2Z" transform="translate(-715.61 -62.84)"/><path class="cls-18" d="M846.48,187.11a11.56,11.56,0,0,0-11.3-9.51c-2,0-2,3.11,0,3.16a8.42,8.42,0,0,1,8.25,7.19C843.79,190,846.84,189.1,846.48,187.11Z" transform="translate(-715.61 -62.84)"/><path class="cls-18" d="M846.13,190.44a1.58,1.58,0,0,0,0,3.16A1.58,1.58,0,0,0,846.13,190.44Z" transform="translate(-715.61 -62.84)"/></g></g><g id="_Grupo_64" data-name="&lt;Grupo&gt;"><g id="_Grupo_65" data-name="&lt;Grupo&gt;"><path id="_Trazado_64" data-name="&lt;Trazado&gt;" class="cls-14" d="M874,185.27a4.71,4.71,0,0,1,.22.45c.11.26.22.53.32.81a32.29,32.29,0,0,1,1.72,8.42c0,.13,0,.26,0,.38.55,7.41-.7,15.78-4.51,18.74-5.85,4.53-22.54,0-28.45-5.06-4-3.37-11.46-12-.8-23.1a39.65,39.65,0,0,1,4.32-3.86l.09-.07.62-.47a41.44,41.44,0,0,1,3.77-2.53c7.43-4.32,12.76-3.55,16.46-1.18a.09.09,0,0,0,0,0c.18.12.37.25.54.38l0,0A18.94,18.94,0,0,1,874,185.27Z" transform="translate(-715.61 -62.84)"/><path class="cls-15" d="M876.33,196.69c-5.32,5.17-11.22,9.19-19.46,7-7.74-2-13-8.14-16.9-14.77-6.78,9.65-.27,17,3.32,20.06,5.91,5.06,22.6,9.59,28.45,5.06C875.32,211.29,876.64,203.74,876.33,196.69Z" transform="translate(-715.61 -62.84)"/><g id="_Grupo_66" data-name="&lt;Grupo&gt;"><g id="_Grupo_67" data-name="&lt;Grupo&gt;"><path id="_Trazado_65" data-name="&lt;Trazado&gt;" class="cls-16" d="M871.28,209.57s.25,3.2,1.67,2.16S871.28,209.57,871.28,209.57Z" transform="translate(-715.61 -62.84)"/></g><g id="_Grupo_68" data-name="&lt;Grupo&gt;"><path id="_Trazado_66" data-name="&lt;Trazado&gt;" class="cls-16" d="M868.09,212s.25,3.2,1.67,2.16S868.09,212,868.09,212Z" transform="translate(-715.61 -62.84)"/></g><g id="_Grupo_69" data-name="&lt;Grupo&gt;"><path id="_Trazado_67" data-name="&lt;Trazado&gt;" class="cls-16" d="M872.89,202.37s.25,3.21,1.67,2.16S872.89,202.37,872.89,202.37Z" transform="translate(-715.61 -62.84)"/></g><g id="_Grupo_70" data-name="&lt;Grupo&gt;"><path id="_Trazado_68" data-name="&lt;Trazado&gt;" class="cls-16" d="M869.7,204.84s.25,3.21,1.67,2.16S869.7,204.84,869.7,204.84Z" transform="translate(-715.61 -62.84)"/></g><g id="_Grupo_71" data-name="&lt;Grupo&gt;"><path id="_Trazado_69" data-name="&lt;Trazado&gt;" class="cls-16" d="M866.51,207.31s.24,3.2,1.67,2.16S866.51,207.31,866.51,207.31Z" transform="translate(-715.61 -62.84)"/></g><g id="_Grupo_72" data-name="&lt;Grupo&gt;"><path id="_Trazado_70" data-name="&lt;Trazado&gt;" class="cls-16" d="M863.32,209.78s.24,3.2,1.67,2.16S863.32,209.78,863.32,209.78Z" transform="translate(-715.61 -62.84)"/></g><g id="_Grupo_73" data-name="&lt;Grupo&gt;"><path id="_Trazado_71" data-name="&lt;Trazado&gt;" class="cls-16" d="M860.13,212.25s.24,3.2,1.67,2.16S860.13,212.25,860.13,212.25Z" transform="translate(-715.61 -62.84)"/></g><g id="_Grupo_74" data-name="&lt;Grupo&gt;"><path id="_Trazado_72" data-name="&lt;Trazado&gt;" class="cls-16" d="M871.9,197.19s.25,3.2,1.67,2.16S871.9,197.19,871.9,197.19Z" transform="translate(-715.61 -62.84)"/></g><g id="_Grupo_75" data-name="&lt;Grupo&gt;"><path id="_Trazado_73" data-name="&lt;Trazado&gt;" class="cls-16" d="M868.71,199.66s.24,3.2,1.67,2.16S868.71,199.66,868.71,199.66Z" transform="translate(-715.61 -62.84)"/></g><g id="_Grupo_76" data-name="&lt;Grupo&gt;"><path id="_Trazado_74" data-name="&lt;Trazado&gt;" class="cls-16" d="M865.52,202.13s.24,3.2,1.67,2.16S865.52,202.13,865.52,202.13Z" transform="translate(-715.61 -62.84)"/></g><g id="_Grupo_77" data-name="&lt;Grupo&gt;"><path id="_Trazado_75" data-name="&lt;Trazado&gt;" class="cls-16" d="M862.33,204.6s.24,3.2,1.67,2.16S862.33,204.6,862.33,204.6Z" transform="translate(-715.61 -62.84)"/></g><g id="_Grupo_78" data-name="&lt;Grupo&gt;"><path id="_Trazado_76" data-name="&lt;Trazado&gt;" class="cls-16" d="M859.14,207.06s.24,3.21,1.67,2.17S859.14,207.06,859.14,207.06Z" transform="translate(-715.61 -62.84)"/></g><g id="_Grupo_79" data-name="&lt;Grupo&gt;"><path id="_Trazado_77" data-name="&lt;Trazado&gt;" class="cls-16" d="M855.94,209.53s.25,3.21,1.68,2.17S855.94,209.53,855.94,209.53Z" transform="translate(-715.61 -62.84)"/></g><g id="_Grupo_80" data-name="&lt;Grupo&gt;"><path id="_Trazado_78" data-name="&lt;Trazado&gt;" class="cls-16" d="M852.81,210.79s.24,3.2,1.67,2.16S852.81,210.79,852.81,210.79Z" transform="translate(-715.61 -62.84)"/></g><g id="_Grupo_81" data-name="&lt;Grupo&gt;"><path id="_Trazado_79" data-name="&lt;Trazado&gt;" class="cls-16" d="M873.51,190s.24,3.2,1.67,2.16S873.51,190,873.51,190Z" transform="translate(-715.61 -62.84)"/></g><g id="_Grupo_82" data-name="&lt;Grupo&gt;"><path id="_Trazado_80" data-name="&lt;Trazado&gt;" class="cls-16" d="M876.23,195a.56.56,0,0,1,0,.38.83.83,0,0,1-.33.47c-1.42,1-1.67-2.16-1.67-2.16S875.92,194.21,876.23,195Z" transform="translate(-715.61 -62.84)"/></g><g id="_Grupo_83" data-name="&lt;Grupo&gt;"><path id="_Trazado_81" data-name="&lt;Trazado&gt;" class="cls-16" d="M870.32,192.46s.24,3.2,1.67,2.16S870.32,192.46,870.32,192.46Z" transform="translate(-715.61 -62.84)"/></g><g id="_Grupo_84" data-name="&lt;Grupo&gt;"><path id="_Trazado_82" data-name="&lt;Trazado&gt;" class="cls-16" d="M867.13,194.93s.24,3.2,1.67,2.16S867.13,194.93,867.13,194.93Z" transform="translate(-715.61 -62.84)"/></g><g id="_Grupo_85" data-name="&lt;Grupo&gt;"><path id="_Trazado_83" data-name="&lt;Trazado&gt;" class="cls-16" d="M863.94,197.4s.24,3.2,1.67,2.16S863.94,197.4,863.94,197.4Z" transform="translate(-715.61 -62.84)"/></g><g id="_Grupo_86" data-name="&lt;Grupo&gt;"><path id="_Trazado_84" data-name="&lt;Trazado&gt;" class="cls-16" d="M860.74,199.87s.25,3.2,1.68,2.16S860.74,199.87,860.74,199.87Z" transform="translate(-715.61 -62.84)"/></g><g id="_Grupo_87" data-name="&lt;Grupo&gt;"><path id="_Trazado_85" data-name="&lt;Trazado&gt;" class="cls-16" d="M857.55,202.34s.25,3.2,1.68,2.16S857.55,202.34,857.55,202.34Z" transform="translate(-715.61 -62.84)"/></g><g id="_Grupo_88" data-name="&lt;Grupo&gt;"><path id="_Trazado_86" data-name="&lt;Trazado&gt;" class="cls-16" d="M854.36,204.81s.25,3.2,1.68,2.16S854.36,204.81,854.36,204.81Z" transform="translate(-715.61 -62.84)"/></g><g id="_Grupo_89" data-name="&lt;Grupo&gt;"><path id="_Trazado_87" data-name="&lt;Trazado&gt;" class="cls-16" d="M851.17,207.28s.25,3.2,1.68,2.16S851.17,207.28,851.17,207.28Z" transform="translate(-715.61 -62.84)"/></g><g id="_Grupo_90" data-name="&lt;Grupo&gt;"><path id="_Trazado_88" data-name="&lt;Trazado&gt;" class="cls-16" d="M848,209.74s.25,3.21,1.68,2.17S848,209.74,848,209.74Z" transform="translate(-715.61 -62.84)"/></g><g id="_Grupo_91" data-name="&lt;Grupo&gt;"><path id="_Trazado_89" data-name="&lt;Trazado&gt;" class="cls-16" d="M874.51,186.53a.88.88,0,0,1-.32.44c-1.42,1-1.67-2.17-1.67-2.17a5.74,5.74,0,0,1,1.67.92C874.45,186,874.61,186.24,874.51,186.53Z" transform="translate(-715.61 -62.84)"/></g><g id="_Grupo_92" data-name="&lt;Grupo&gt;"><path id="_Trazado_90" data-name="&lt;Trazado&gt;" class="cls-16" d="M869.33,187.27s.24,3.21,1.67,2.17S869.33,187.27,869.33,187.27Z" transform="translate(-715.61 -62.84)"/></g><g id="_Grupo_93" data-name="&lt;Grupo&gt;"><path id="_Trazado_91" data-name="&lt;Trazado&gt;" class="cls-16" d="M866.14,189.74s.24,3.21,1.67,2.16S866.14,189.74,866.14,189.74Z" transform="translate(-715.61 -62.84)"/></g><g id="_Grupo_94" data-name="&lt;Grupo&gt;"><path id="_Trazado_92" data-name="&lt;Trazado&gt;" class="cls-16" d="M862.94,192.21s.25,3.21,1.68,2.16S862.94,192.21,862.94,192.21Z" transform="translate(-715.61 -62.84)"/></g><g id="_Grupo_95" data-name="&lt;Grupo&gt;"><path id="_Trazado_93" data-name="&lt;Trazado&gt;" class="cls-16" d="M859.75,194.68s.25,3.2,1.68,2.16S859.75,194.68,859.75,194.68Z" transform="translate(-715.61 -62.84)"/></g><g id="_Grupo_96" data-name="&lt;Grupo&gt;"><path id="_Trazado_94" data-name="&lt;Trazado&gt;" class="cls-16" d="M856.56,197.15s.25,3.2,1.68,2.16S856.56,197.15,856.56,197.15Z" transform="translate(-715.61 -62.84)"/></g><g id="_Grupo_97" data-name="&lt;Grupo&gt;"><path id="_Trazado_95" data-name="&lt;Trazado&gt;" class="cls-16" d="M853.37,199.62s.25,3.2,1.68,2.16S853.37,199.62,853.37,199.62Z" transform="translate(-715.61 -62.84)"/></g><g id="_Grupo_98" data-name="&lt;Grupo&gt;"><path id="_Trazado_96" data-name="&lt;Trazado&gt;" class="cls-16" d="M850.18,202.09s.25,3.2,1.68,2.16S850.18,202.09,850.18,202.09Z" transform="translate(-715.61 -62.84)"/></g><g id="_Grupo_99" data-name="&lt;Grupo&gt;"><path id="_Trazado_97" data-name="&lt;Trazado&gt;" class="cls-16" d="M847,204.56s.25,3.2,1.68,2.16S847,204.56,847,204.56Z" transform="translate(-715.61 -62.84)"/></g><g id="_Grupo_100" data-name="&lt;Grupo&gt;"><path id="_Trazado_98" data-name="&lt;Trazado&gt;" class="cls-16" d="M843.8,207s.25,3.2,1.68,2.16S843.8,207,843.8,207Z" transform="translate(-715.61 -62.84)"/></g><g id="_Grupo_101" data-name="&lt;Grupo&gt;"><path id="_Trazado_99" data-name="&lt;Trazado&gt;" class="cls-16" d="M867.74,182.54s.25,3.21,1.68,2.17S867.74,182.54,867.74,182.54Z" transform="translate(-715.61 -62.84)"/></g><g id="_Grupo_102" data-name="&lt;Grupo&gt;"><path id="_Trazado_100" data-name="&lt;Trazado&gt;" class="cls-16" d="M864.55,185s.25,3.21,1.68,2.17S864.55,185,864.55,185Z" transform="translate(-715.61 -62.84)"/></g><g id="_Grupo_103" data-name="&lt;Grupo&gt;"><path id="_Trazado_101" data-name="&lt;Trazado&gt;" class="cls-16" d="M861.36,187.48s.25,3.21,1.68,2.17S861.36,187.48,861.36,187.48Z" transform="translate(-715.61 -62.84)"/></g><g id="_Grupo_104" data-name="&lt;Grupo&gt;"><path id="_Trazado_102" data-name="&lt;Trazado&gt;" class="cls-16" d="M858.17,190s.25,3.21,1.68,2.17S858.17,190,858.17,190Z" transform="translate(-715.61 -62.84)"/></g><g id="_Grupo_105" data-name="&lt;Grupo&gt;"><path id="_Trazado_103" data-name="&lt;Trazado&gt;" class="cls-16" d="M855,192.42s.25,3.21,1.68,2.16S855,192.42,855,192.42Z" transform="translate(-715.61 -62.84)"/></g><g id="_Grupo_106" data-name="&lt;Grupo&gt;"><path id="_Trazado_104" data-name="&lt;Trazado&gt;" class="cls-16" d="M851.79,194.89s.25,3.21,1.68,2.16S851.79,194.89,851.79,194.89Z" transform="translate(-715.61 -62.84)"/></g><g id="_Grupo_107" data-name="&lt;Grupo&gt;"><path id="_Trazado_105" data-name="&lt;Trazado&gt;" class="cls-16" d="M848.6,197.36s.25,3.2,1.68,2.16S848.6,197.36,848.6,197.36Z" transform="translate(-715.61 -62.84)"/></g><g id="_Grupo_108" data-name="&lt;Grupo&gt;"><path id="_Trazado_106" data-name="&lt;Trazado&gt;" class="cls-16" d="M845.41,199.83s.25,3.2,1.67,2.16S845.41,199.83,845.41,199.83Z" transform="translate(-715.61 -62.84)"/></g><g id="_Grupo_109" data-name="&lt;Grupo&gt;"><path id="_Trazado_107" data-name="&lt;Trazado&gt;" class="cls-16" d="M842.22,202.3s.25,3.2,1.67,2.16S842.22,202.3,842.22,202.3Z" transform="translate(-715.61 -62.84)"/></g><g id="_Grupo_110" data-name="&lt;Grupo&gt;"><path id="_Trazado_108" data-name="&lt;Trazado&gt;" class="cls-16" d="M868.43,179.52c-1.43,1-1.67-2.16-1.67-2.16a7.59,7.59,0,0,1,1,.44.09.09,0,0,0,0,0,3.7,3.7,0,0,1,.54.38l0,0C868.8,178.61,869,179.06,868.43,179.52Z" transform="translate(-715.61 -62.84)"/></g><g id="_Grupo_111" data-name="&lt;Grupo&gt;"><path id="_Trazado_109" data-name="&lt;Trazado&gt;" class="cls-16" d="M863.56,179.83s.25,3.2,1.68,2.16S863.56,179.83,863.56,179.83Z" transform="translate(-715.61 -62.84)"/></g><g id="_Grupo_112" data-name="&lt;Grupo&gt;"><path id="_Trazado_110" data-name="&lt;Trazado&gt;" class="cls-16" d="M860.37,182.3s.25,3.2,1.68,2.16S860.37,182.3,860.37,182.3Z" transform="translate(-715.61 -62.84)"/></g><g id="_Grupo_113" data-name="&lt;Grupo&gt;"><path id="_Trazado_111" data-name="&lt;Trazado&gt;" class="cls-16" d="M857.18,184.77s.25,3.2,1.68,2.16S857.18,184.77,857.18,184.77Z" transform="translate(-715.61 -62.84)"/></g><g id="_Grupo_114" data-name="&lt;Grupo&gt;"><path id="_Trazado_112" data-name="&lt;Trazado&gt;" class="cls-16" d="M854,187.24s.25,3.2,1.68,2.16S854,187.24,854,187.24Z" transform="translate(-715.61 -62.84)"/></g><g id="_Grupo_115" data-name="&lt;Grupo&gt;"><path id="_Trazado_113" data-name="&lt;Trazado&gt;" class="cls-16" d="M850.8,189.71s.25,3.2,1.68,2.16S850.8,189.71,850.8,189.71Z" transform="translate(-715.61 -62.84)"/></g><g id="_Grupo_116" data-name="&lt;Grupo&gt;"><path id="_Trazado_114" data-name="&lt;Trazado&gt;" class="cls-16" d="M847.61,192.18s.25,3.2,1.67,2.16S847.61,192.18,847.61,192.18Z" transform="translate(-715.61 -62.84)"/></g><g id="_Grupo_117" data-name="&lt;Grupo&gt;"><path id="_Trazado_115" data-name="&lt;Trazado&gt;" class="cls-16" d="M844.42,194.65s.25,3.2,1.67,2.16S844.42,194.65,844.42,194.65Z" transform="translate(-715.61 -62.84)"/></g><g id="_Grupo_118" data-name="&lt;Grupo&gt;"><path id="_Trazado_116" data-name="&lt;Trazado&gt;" class="cls-16" d="M841.23,197.11s.25,3.21,1.67,2.17S841.23,197.11,841.23,197.11Z" transform="translate(-715.61 -62.84)"/></g><g id="_Grupo_119" data-name="&lt;Grupo&gt;"><path id="_Trazado_117" data-name="&lt;Trazado&gt;" class="cls-16" d="M838,199.58s.25,3.21,1.67,2.17S838,199.58,838,199.58Z" transform="translate(-715.61 -62.84)"/></g><g id="_Grupo_120" data-name="&lt;Grupo&gt;"><path id="_Trazado_118" data-name="&lt;Trazado&gt;" class="cls-16" d="M858.79,177.57s.25,3.2,1.68,2.16S858.79,177.57,858.79,177.57Z" transform="translate(-715.61 -62.84)"/></g><g id="_Grupo_121" data-name="&lt;Grupo&gt;"><path id="_Trazado_119" data-name="&lt;Trazado&gt;" class="cls-16" d="M855.6,180s.25,3.2,1.68,2.16S855.6,180,855.6,180Z" transform="translate(-715.61 -62.84)"/></g><g id="_Grupo_122" data-name="&lt;Grupo&gt;"><path id="_Trazado_120" data-name="&lt;Trazado&gt;" class="cls-16" d="M852.41,182.51s.25,3.2,1.67,2.16S852.41,182.51,852.41,182.51Z" transform="translate(-715.61 -62.84)"/></g><g id="_Grupo_123" data-name="&lt;Grupo&gt;"><path id="_Trazado_121" data-name="&lt;Trazado&gt;" class="cls-16" d="M849.22,185s.25,3.2,1.67,2.16S849.22,185,849.22,185Z" transform="translate(-715.61 -62.84)"/></g><g id="_Grupo_124" data-name="&lt;Grupo&gt;"><path id="_Trazado_122" data-name="&lt;Trazado&gt;" class="cls-16" d="M846,187.45s.25,3.2,1.67,2.16S846,187.45,846,187.45Z" transform="translate(-715.61 -62.84)"/></g><g id="_Grupo_125" data-name="&lt;Grupo&gt;"><path id="_Trazado_123" data-name="&lt;Trazado&gt;" class="cls-16" d="M842.84,189.92s.25,3.2,1.67,2.16S842.84,189.92,842.84,189.92Z" transform="translate(-715.61 -62.84)"/></g><g id="_Grupo_126" data-name="&lt;Grupo&gt;"><path id="_Trazado_124" data-name="&lt;Trazado&gt;" class="cls-16" d="M839.65,192.39s.25,3.2,1.67,2.16S839.65,192.39,839.65,192.39Z" transform="translate(-715.61 -62.84)"/></g></g><path id="_Trazado_125" data-name="&lt;Trazado&gt;" class="cls-17" d="M846.45,174.19s-1.32,2.79.38,6.87c.08.19.16.37.26.56s.23.5.37.74l-.92.71s-.19-.24-.48-.66l-.34-.54c-.15-.23-.3-.49-.46-.78-1-1.82-2.14-4.64-1.53-7.36A3,3,0,0,1,846.45,174.19Z" transform="translate(-715.61 -62.84)"/><path id="_Trazado_126" data-name="&lt;Trazado&gt;" class="cls-17" d="M856.55,182.63a14.9,14.9,0,0,0-7.23-.84c3.63,2.4,2,4.69,2,4.69.14-2.41-3.22-3.88-3.22-3.88s0,.32-.05.85c0,1.47.05,4.57,1.48,6.75a14.68,14.68,0,0,1-3.64-5.74,15.1,15.1,0,0,0-1,7.2,9,9,0,0,1-1-6.32,19.33,19.33,0,0,0-4.55,5.38,17.06,17.06,0,0,1,2.67-5.5,19.84,19.84,0,0,1,4-4.19l.11-.09c.23-.18.47-.34.71-.51a21,21,0,0,1,4-2.14,17.31,17.31,0,0,1,6.29-1.31A19.14,19.14,0,0,0,850.7,180,9,9,0,0,1,856.55,182.63Z" transform="translate(-715.61 -62.84)"/><path class="cls-18" d="M871.74,187.55A11.55,11.55,0,0,0,860.45,178c-2,0-2,3.11,0,3.16a8.41,8.41,0,0,1,8.24,7.19C869.05,190.39,872.1,189.54,871.74,187.55Z" transform="translate(-715.61 -62.84)"/><path class="cls-18" d="M871.39,190.88a1.58,1.58,0,0,0,0,3.16A1.58,1.58,0,0,0,871.39,190.88Z" transform="translate(-715.61 -62.84)"/></g></g><g id="_Grupo_127" data-name="&lt;Grupo&gt;"><g id="_Grupo_128" data-name="&lt;Grupo&gt;"><path id="_Trazado_127" data-name="&lt;Trazado&gt;" class="cls-14" d="M833.82,205.58c.08.15.14.3.21.46s.22.52.33.81a31.91,31.91,0,0,1,1.71,8.42l0,.38c.55,7.41-.7,15.78-4.52,18.73-5.85,4.53-22.53,0-28.44-5-4-3.38-11.47-12-.8-23.11a41.54,41.54,0,0,1,4.31-3.85l.1-.07.62-.48a41.93,41.93,0,0,1,3.77-2.52c7.43-4.33,12.76-3.55,16.46-1.18l0,0c.19.12.38.25.55.38,0,0,0,0,0,0A18.91,18.91,0,0,1,833.82,205.58Z" transform="translate(-715.61 -62.84)"/><path class="cls-15" d="M836.18,217c-5.33,5.17-11.22,9.19-19.46,7-7.74-2-13-8.14-16.9-14.78-6.78,9.66-.27,17,3.32,20.07,5.91,5.06,22.59,9.58,28.44,5C835.17,231.61,836.48,224.05,836.18,217Z" transform="translate(-715.61 -62.84)"/><g id="_Grupo_129" data-name="&lt;Grupo&gt;"><g id="_Grupo_130" data-name="&lt;Grupo&gt;"><path id="_Trazado_128" data-name="&lt;Trazado&gt;" class="cls-16" d="M831.13,229.89s.24,3.2,1.67,2.16S831.13,229.89,831.13,229.89Z" transform="translate(-715.61 -62.84)"/></g><g id="_Grupo_131" data-name="&lt;Grupo&gt;"><path id="_Trazado_129" data-name="&lt;Trazado&gt;" class="cls-16" d="M827.94,232.36s.24,3.2,1.67,2.16S827.94,232.36,827.94,232.36Z" transform="translate(-715.61 -62.84)"/></g><g id="_Grupo_132" data-name="&lt;Grupo&gt;"><path id="_Trazado_130" data-name="&lt;Trazado&gt;" class="cls-16" d="M832.74,222.69s.24,3.2,1.67,2.16S832.74,222.69,832.74,222.69Z" transform="translate(-715.61 -62.84)"/></g><g id="_Grupo_133" data-name="&lt;Grupo&gt;"><path id="_Trazado_131" data-name="&lt;Trazado&gt;" class="cls-16" d="M829.54,225.16s.25,3.2,1.68,2.16S829.54,225.16,829.54,225.16Z" transform="translate(-715.61 -62.84)"/></g><g id="_Grupo_134" data-name="&lt;Grupo&gt;"><path id="_Trazado_132" data-name="&lt;Trazado&gt;" class="cls-16" d="M826.35,227.63s.25,3.2,1.68,2.16S826.35,227.63,826.35,227.63Z" transform="translate(-715.61 -62.84)"/></g><g id="_Grupo_135" data-name="&lt;Grupo&gt;"><path id="_Trazado_133" data-name="&lt;Trazado&gt;" class="cls-16" d="M823.16,230.1s.25,3.2,1.68,2.16S823.16,230.1,823.16,230.1Z" transform="translate(-715.61 -62.84)"/></g><g id="_Grupo_136" data-name="&lt;Grupo&gt;"><path id="_Trazado_134" data-name="&lt;Trazado&gt;" class="cls-16" d="M820,232.57s.25,3.2,1.68,2.16S820,232.57,820,232.57Z" transform="translate(-715.61 -62.84)"/></g><g id="_Grupo_137" data-name="&lt;Grupo&gt;"><path id="_Trazado_135" data-name="&lt;Trazado&gt;" class="cls-16" d="M831.74,217.5s.25,3.21,1.68,2.17S831.74,217.5,831.74,217.5Z" transform="translate(-715.61 -62.84)"/></g><g id="_Grupo_138" data-name="&lt;Grupo&gt;"><path id="_Trazado_136" data-name="&lt;Trazado&gt;" class="cls-16" d="M828.55,220s.25,3.21,1.68,2.16S828.55,220,828.55,220Z" transform="translate(-715.61 -62.84)"/></g><g id="_Grupo_139" data-name="&lt;Grupo&gt;"><path id="_Trazado_137" data-name="&lt;Trazado&gt;" class="cls-16" d="M825.36,222.44s.25,3.21,1.68,2.16S825.36,222.44,825.36,222.44Z" transform="translate(-715.61 -62.84)"/></g><g id="_Grupo_140" data-name="&lt;Grupo&gt;"><path id="_Trazado_138" data-name="&lt;Trazado&gt;" class="cls-16" d="M822.17,224.91s.25,3.2,1.68,2.16S822.17,224.91,822.17,224.91Z" transform="translate(-715.61 -62.84)"/></g><g id="_Grupo_141" data-name="&lt;Grupo&gt;"><path id="_Trazado_139" data-name="&lt;Trazado&gt;" class="cls-16" d="M819,227.38s.25,3.2,1.68,2.16S819,227.38,819,227.38Z" transform="translate(-715.61 -62.84)"/></g><g id="_Grupo_142" data-name="&lt;Grupo&gt;"><path id="_Trazado_140" data-name="&lt;Trazado&gt;" class="cls-16" d="M815.79,229.85s.25,3.2,1.68,2.16S815.79,229.85,815.79,229.85Z" transform="translate(-715.61 -62.84)"/></g><g id="_Grupo_143" data-name="&lt;Grupo&gt;"><path id="_Trazado_141" data-name="&lt;Trazado&gt;" class="cls-16" d="M812.65,231.1s.25,3.21,1.68,2.17S812.65,231.1,812.65,231.1Z" transform="translate(-715.61 -62.84)"/></g><g id="_Grupo_144" data-name="&lt;Grupo&gt;"><path id="_Trazado_142" data-name="&lt;Trazado&gt;" class="cls-16" d="M833.35,210.3s.25,3.21,1.68,2.17S833.35,210.3,833.35,210.3Z" transform="translate(-715.61 -62.84)"/></g><g id="_Grupo_145" data-name="&lt;Grupo&gt;"><path id="_Trazado_143" data-name="&lt;Trazado&gt;" class="cls-16" d="M836.07,215.27a.55.55,0,0,1,0,.38.83.83,0,0,1-.33.47c-1.42,1-1.67-2.17-1.67-2.17S835.77,214.52,836.07,215.27Z" transform="translate(-715.61 -62.84)"/></g><g id="_Grupo_146" data-name="&lt;Grupo&gt;"><path id="_Trazado_144" data-name="&lt;Trazado&gt;" class="cls-16" d="M830.16,212.77s.25,3.21,1.68,2.17S830.16,212.77,830.16,212.77Z" transform="translate(-715.61 -62.84)"/></g><g id="_Grupo_147" data-name="&lt;Grupo&gt;"><path id="_Trazado_145" data-name="&lt;Trazado&gt;" class="cls-16" d="M827,215.24s.25,3.21,1.68,2.17S827,215.24,827,215.24Z" transform="translate(-715.61 -62.84)"/></g><g id="_Grupo_148" data-name="&lt;Grupo&gt;"><path id="_Trazado_146" data-name="&lt;Trazado&gt;" class="cls-16" d="M823.78,217.71s.25,3.21,1.68,2.17S823.78,217.71,823.78,217.71Z" transform="translate(-715.61 -62.84)"/></g><g id="_Grupo_149" data-name="&lt;Grupo&gt;"><path id="_Trazado_147" data-name="&lt;Trazado&gt;" class="cls-16" d="M820.59,220.18s.25,3.21,1.68,2.17S820.59,220.18,820.59,220.18Z" transform="translate(-715.61 -62.84)"/></g><g id="_Grupo_150" data-name="&lt;Grupo&gt;"><path id="_Trazado_148" data-name="&lt;Trazado&gt;" class="cls-16" d="M817.4,222.65s.25,3.21,1.68,2.16S817.4,222.65,817.4,222.65Z" transform="translate(-715.61 -62.84)"/></g><g id="_Grupo_151" data-name="&lt;Grupo&gt;"><path id="_Trazado_149" data-name="&lt;Trazado&gt;" class="cls-16" d="M814.21,225.12s.25,3.21,1.67,2.16S814.21,225.12,814.21,225.12Z" transform="translate(-715.61 -62.84)"/></g><g id="_Grupo_152" data-name="&lt;Grupo&gt;"><path id="_Trazado_150" data-name="&lt;Trazado&gt;" class="cls-16" d="M811,227.59s.25,3.2,1.67,2.16S811,227.59,811,227.59Z" transform="translate(-715.61 -62.84)"/></g><g id="_Grupo_153" data-name="&lt;Grupo&gt;"><path id="_Trazado_151" data-name="&lt;Trazado&gt;" class="cls-16" d="M807.83,230.06s.25,3.2,1.67,2.16S807.83,230.06,807.83,230.06Z" transform="translate(-715.61 -62.84)"/></g><g id="_Grupo_154" data-name="&lt;Grupo&gt;"><path id="_Trazado_152" data-name="&lt;Trazado&gt;" class="cls-16" d="M834.36,206.85a.86.86,0,0,1-.32.43c-1.43,1-1.68-2.16-1.68-2.16A5.62,5.62,0,0,1,834,206,.79.79,0,0,1,834.36,206.85Z" transform="translate(-715.61 -62.84)"/></g><g id="_Grupo_155" data-name="&lt;Grupo&gt;"><path id="_Trazado_153" data-name="&lt;Trazado&gt;" class="cls-16" d="M829.17,207.59s.25,3.2,1.68,2.16S829.17,207.59,829.17,207.59Z" transform="translate(-715.61 -62.84)"/></g><g id="_Grupo_156" data-name="&lt;Grupo&gt;"><path id="_Trazado_154" data-name="&lt;Trazado&gt;" class="cls-16" d="M826,210.06s.25,3.2,1.68,2.16S826,210.06,826,210.06Z" transform="translate(-715.61 -62.84)"/></g><g id="_Grupo_157" data-name="&lt;Grupo&gt;"><path id="_Trazado_155" data-name="&lt;Trazado&gt;" class="cls-16" d="M822.79,212.53s.25,3.2,1.68,2.16S822.79,212.53,822.79,212.53Z" transform="translate(-715.61 -62.84)"/></g><g id="_Grupo_158" data-name="&lt;Grupo&gt;"><path id="_Trazado_156" data-name="&lt;Trazado&gt;" class="cls-16" d="M819.6,215s.25,3.2,1.68,2.16S819.6,215,819.6,215Z" transform="translate(-715.61 -62.84)"/></g><g id="_Grupo_159" data-name="&lt;Grupo&gt;"><path id="_Trazado_157" data-name="&lt;Trazado&gt;" class="cls-16" d="M816.41,217.47s.25,3.2,1.67,2.16S816.41,217.47,816.41,217.47Z" transform="translate(-715.61 -62.84)"/></g><g id="_Grupo_160" data-name="&lt;Grupo&gt;"><path id="_Trazado_158" data-name="&lt;Trazado&gt;" class="cls-16" d="M813.22,219.94s.25,3.2,1.67,2.16S813.22,219.94,813.22,219.94Z" transform="translate(-715.61 -62.84)"/></g><g id="_Grupo_161" data-name="&lt;Grupo&gt;"><path id="_Trazado_159" data-name="&lt;Trazado&gt;" class="cls-16" d="M810,222.41s.25,3.2,1.67,2.16S810,222.41,810,222.41Z" transform="translate(-715.61 -62.84)"/></g><g id="_Grupo_162" data-name="&lt;Grupo&gt;"><path id="_Trazado_160" data-name="&lt;Trazado&gt;" class="cls-16" d="M806.84,224.88s.25,3.2,1.67,2.16S806.84,224.88,806.84,224.88Z" transform="translate(-715.61 -62.84)"/></g><g id="_Grupo_163" data-name="&lt;Grupo&gt;"><path id="_Trazado_161" data-name="&lt;Trazado&gt;" class="cls-16" d="M803.65,227.34s.25,3.21,1.67,2.17S803.65,227.34,803.65,227.34Z" transform="translate(-715.61 -62.84)"/></g><g id="_Grupo_164" data-name="&lt;Grupo&gt;"><path id="_Trazado_162" data-name="&lt;Trazado&gt;" class="cls-16" d="M827.59,202.86s.25,3.2,1.68,2.16S827.59,202.86,827.59,202.86Z" transform="translate(-715.61 -62.84)"/></g><g id="_Grupo_165" data-name="&lt;Grupo&gt;"><path id="_Trazado_163" data-name="&lt;Trazado&gt;" class="cls-16" d="M824.4,205.33s.25,3.2,1.68,2.16S824.4,205.33,824.4,205.33Z" transform="translate(-715.61 -62.84)"/></g><g id="_Grupo_166" data-name="&lt;Grupo&gt;"><path id="_Trazado_164" data-name="&lt;Trazado&gt;" class="cls-16" d="M821.21,207.8s.25,3.2,1.67,2.16S821.21,207.8,821.21,207.8Z" transform="translate(-715.61 -62.84)"/></g><g id="_Grupo_167" data-name="&lt;Grupo&gt;"><path id="_Trazado_165" data-name="&lt;Trazado&gt;" class="cls-16" d="M818,210.27s.25,3.2,1.67,2.16S818,210.27,818,210.27Z" transform="translate(-715.61 -62.84)"/></g><g id="_Grupo_168" data-name="&lt;Grupo&gt;"><path id="_Trazado_166" data-name="&lt;Trazado&gt;" class="cls-16" d="M814.83,212.74s.25,3.2,1.67,2.16S814.83,212.74,814.83,212.74Z" transform="translate(-715.61 -62.84)"/></g><g id="_Grupo_169" data-name="&lt;Grupo&gt;"><path id="_Trazado_167" data-name="&lt;Trazado&gt;" class="cls-16" d="M811.64,215.21s.25,3.2,1.67,2.16S811.64,215.21,811.64,215.21Z" transform="translate(-715.61 -62.84)"/></g><g id="_Grupo_170" data-name="&lt;Grupo&gt;"><path id="_Trazado_168" data-name="&lt;Trazado&gt;" class="cls-16" d="M808.45,217.68s.25,3.2,1.67,2.16S808.45,217.68,808.45,217.68Z" transform="translate(-715.61 -62.84)"/></g><g id="_Grupo_171" data-name="&lt;Grupo&gt;"><path id="_Trazado_169" data-name="&lt;Trazado&gt;" class="cls-16" d="M805.26,220.15s.25,3.2,1.67,2.16S805.26,220.15,805.26,220.15Z" transform="translate(-715.61 -62.84)"/></g><g id="_Grupo_172" data-name="&lt;Grupo&gt;"><path id="_Trazado_170" data-name="&lt;Trazado&gt;" class="cls-16" d="M802.07,222.62s.25,3.2,1.67,2.16S802.07,222.62,802.07,222.62Z" transform="translate(-715.61 -62.84)"/></g><g id="_Grupo_173" data-name="&lt;Grupo&gt;"><path id="_Trazado_171" data-name="&lt;Trazado&gt;" class="cls-16" d="M828.28,199.84c-1.43,1-1.68-2.16-1.68-2.16a8.06,8.06,0,0,1,1,.44l0,0a2.69,2.69,0,0,1,.55.38s0,0,0,0C828.65,198.92,828.85,199.37,828.28,199.84Z" transform="translate(-715.61 -62.84)"/></g><g id="_Grupo_174" data-name="&lt;Grupo&gt;"><path id="_Trazado_172" data-name="&lt;Trazado&gt;" class="cls-16" d="M823.41,200.14s.25,3.21,1.67,2.17S823.41,200.14,823.41,200.14Z" transform="translate(-715.61 -62.84)"/></g><g id="_Grupo_175" data-name="&lt;Grupo&gt;"><path id="_Trazado_173" data-name="&lt;Trazado&gt;" class="cls-16" d="M820.22,202.61s.25,3.21,1.67,2.17S820.22,202.61,820.22,202.61Z" transform="translate(-715.61 -62.84)"/></g><g id="_Grupo_176" data-name="&lt;Grupo&gt;"><path id="_Trazado_174" data-name="&lt;Trazado&gt;" class="cls-16" d="M817,205.08s.25,3.21,1.67,2.17S817,205.08,817,205.08Z" transform="translate(-715.61 -62.84)"/></g><g id="_Grupo_177" data-name="&lt;Grupo&gt;"><path id="_Trazado_175" data-name="&lt;Trazado&gt;" class="cls-16" d="M813.84,207.55s.25,3.21,1.67,2.17S813.84,207.55,813.84,207.55Z" transform="translate(-715.61 -62.84)"/></g><g id="_Grupo_178" data-name="&lt;Grupo&gt;"><path id="_Trazado_176" data-name="&lt;Trazado&gt;" class="cls-16" d="M810.65,210s.25,3.21,1.67,2.16S810.65,210,810.65,210Z" transform="translate(-715.61 -62.84)"/></g><g id="_Grupo_179" data-name="&lt;Grupo&gt;"><path id="_Trazado_177" data-name="&lt;Trazado&gt;" class="cls-16" d="M807.46,212.49s.25,3.21,1.67,2.16S807.46,212.49,807.46,212.49Z" transform="translate(-715.61 -62.84)"/></g><g id="_Grupo_180" data-name="&lt;Grupo&gt;"><path id="_Trazado_178" data-name="&lt;Trazado&gt;" class="cls-16" d="M804.27,215s.25,3.2,1.67,2.16S804.27,215,804.27,215Z" transform="translate(-715.61 -62.84)"/></g><g id="_Grupo_181" data-name="&lt;Grupo&gt;"><path id="_Trazado_179" data-name="&lt;Trazado&gt;" class="cls-16" d="M801.08,217.43s.24,3.2,1.67,2.16S801.08,217.43,801.08,217.43Z" transform="translate(-715.61 -62.84)"/></g><g id="_Grupo_182" data-name="&lt;Grupo&gt;"><path id="_Trazado_180" data-name="&lt;Trazado&gt;" class="cls-16" d="M797.89,219.9s.24,3.2,1.67,2.16S797.89,219.9,797.89,219.9Z" transform="translate(-715.61 -62.84)"/></g><g id="_Grupo_183" data-name="&lt;Grupo&gt;"><path id="_Trazado_181" data-name="&lt;Trazado&gt;" class="cls-16" d="M818.64,197.89s.25,3.2,1.67,2.16S818.64,197.89,818.64,197.89Z" transform="translate(-715.61 -62.84)"/></g><g id="_Grupo_184" data-name="&lt;Grupo&gt;"><path id="_Trazado_182" data-name="&lt;Trazado&gt;" class="cls-16" d="M815.45,200.35s.25,3.21,1.67,2.17S815.45,200.35,815.45,200.35Z" transform="translate(-715.61 -62.84)"/></g><g id="_Grupo_185" data-name="&lt;Grupo&gt;"><path id="_Trazado_183" data-name="&lt;Trazado&gt;" class="cls-16" d="M812.26,202.82s.25,3.21,1.67,2.17S812.26,202.82,812.26,202.82Z" transform="translate(-715.61 -62.84)"/></g><g id="_Grupo_186" data-name="&lt;Grupo&gt;"><path id="_Trazado_184" data-name="&lt;Trazado&gt;" class="cls-16" d="M809.07,205.29s.25,3.21,1.67,2.17S809.07,205.29,809.07,205.29Z" transform="translate(-715.61 -62.84)"/></g><g id="_Grupo_187" data-name="&lt;Grupo&gt;"><path id="_Trazado_185" data-name="&lt;Trazado&gt;" class="cls-16" d="M805.88,207.76s.24,3.21,1.67,2.17S805.88,207.76,805.88,207.76Z" transform="translate(-715.61 -62.84)"/></g><g id="_Grupo_188" data-name="&lt;Grupo&gt;"><path id="_Trazado_186" data-name="&lt;Trazado&gt;" class="cls-16" d="M802.69,210.23s.24,3.21,1.67,2.17S802.69,210.23,802.69,210.23Z" transform="translate(-715.61 -62.84)"/></g><g id="_Grupo_189" data-name="&lt;Grupo&gt;"><path id="_Trazado_187" data-name="&lt;Trazado&gt;" class="cls-16" d="M799.5,212.7s.24,3.21,1.67,2.16S799.5,212.7,799.5,212.7Z" transform="translate(-715.61 -62.84)"/></g></g><path id="_Trazado_188" data-name="&lt;Trazado&gt;" class="cls-17" d="M806.3,194.51s-1.32,2.79.37,6.86c.09.2.17.37.27.57a7.29,7.29,0,0,0,.37.74l-.92.71s-.19-.24-.48-.67l-.35-.53c-.14-.24-.3-.49-.46-.79-1-1.82-2.13-4.64-1.52-7.35A3,3,0,0,1,806.3,194.51Z" transform="translate(-715.61 -62.84)"/><path id="_Trazado_189" data-name="&lt;Trazado&gt;" class="cls-17" d="M816.4,203a14.76,14.76,0,0,0-7.23-.84c3.63,2.39,2,4.69,2,4.69.13-2.41-3.22-3.89-3.22-3.89s0,.32-.06.86c0,1.47,0,4.57,1.49,6.75a14.55,14.55,0,0,1-3.64-5.75,15,15,0,0,0-1,7.2,9,9,0,0,1-1-6.31,19.14,19.14,0,0,0-4.55,5.38,16.48,16.48,0,0,1,2.67-5.5,19.3,19.3,0,0,1,4-4.19l.12-.09.7-.52a20.11,20.11,0,0,1,4-2.13,17.17,17.17,0,0,1,6.28-1.32,19.25,19.25,0,0,0-6.34,3.06A9.07,9.07,0,0,1,816.4,203Z" transform="translate(-715.61 -62.84)"/><path class="cls-18" d="M831.59,207.86a11.56,11.56,0,0,0-11.3-9.51c-2,0-2,3.11,0,3.16a8.42,8.42,0,0,1,8.25,7.19C828.9,210.7,832,209.85,831.59,207.86Z" transform="translate(-715.61 -62.84)"/><path class="cls-18" d="M831.23,211.19a1.58,1.58,0,0,0,0,3.16A1.58,1.58,0,0,0,831.23,211.19Z" transform="translate(-715.61 -62.84)"/></g></g><g id="_Grupo_190" data-name="&lt;Grupo&gt;"><g id="_Grupo_191" data-name="&lt;Grupo&gt;"><path id="_Trazado_190" data-name="&lt;Trazado&gt;" class="cls-14" d="M837.11,228.24a4.91,4.91,0,0,1,.22.46c.11.26.21.52.32.81a32.29,32.29,0,0,1,1.72,8.42c0,.13,0,.25,0,.37.55,7.41-.7,15.79-4.51,18.74-5.86,4.53-22.54,0-28.45-5.05-4-3.38-11.46-12-.8-23.11A40.71,40.71,0,0,1,810,225L810,225l.62-.48a41.23,41.23,0,0,1,3.77-2.52c7.43-4.33,12.76-3.55,16.46-1.18l.05,0,.54.37s0,0,0,0A18.91,18.91,0,0,1,837.11,228.24Z" transform="translate(-715.61 -62.84)"/><path class="cls-15" d="M839.47,239.67c-5.32,5.17-11.22,9.19-19.46,7-7.74-2-13-8.13-16.9-14.77-6.78,9.66-.27,17,3.32,20.07,5.91,5.06,22.59,9.58,28.45,5.05C838.46,254.27,839.78,246.71,839.47,239.67Z" transform="translate(-715.61 -62.84)"/><g id="_Grupo_192" data-name="&lt;Grupo&gt;"><g id="_Grupo_193" data-name="&lt;Grupo&gt;"><path id="_Trazado_191" data-name="&lt;Trazado&gt;" class="cls-16" d="M834.42,252.55s.25,3.2,1.67,2.16S834.42,252.55,834.42,252.55Z" transform="translate(-715.61 -62.84)"/></g><g id="_Grupo_194" data-name="&lt;Grupo&gt;"><path id="_Trazado_192" data-name="&lt;Trazado&gt;" class="cls-16" d="M831.23,255s.24,3.21,1.67,2.17S831.23,255,831.23,255Z" transform="translate(-715.61 -62.84)"/></g><g id="_Grupo_195" data-name="&lt;Grupo&gt;"><path id="_Trazado_193" data-name="&lt;Trazado&gt;" class="cls-16" d="M836,245.35s.24,3.2,1.67,2.16S836,245.35,836,245.35Z" transform="translate(-715.61 -62.84)"/></g><g id="_Grupo_196" data-name="&lt;Grupo&gt;"><path id="_Trazado_194" data-name="&lt;Trazado&gt;" class="cls-16" d="M832.84,247.82s.24,3.2,1.67,2.16S832.84,247.82,832.84,247.82Z" transform="translate(-715.61 -62.84)"/></g><g id="_Grupo_197" data-name="&lt;Grupo&gt;"><path id="_Trazado_195" data-name="&lt;Trazado&gt;" class="cls-16" d="M829.65,250.29s.24,3.2,1.67,2.16S829.65,250.29,829.65,250.29Z" transform="translate(-715.61 -62.84)"/></g><g id="_Grupo_198" data-name="&lt;Grupo&gt;"><path id="_Trazado_196" data-name="&lt;Trazado&gt;" class="cls-16" d="M826.46,252.76s.24,3.2,1.67,2.16S826.46,252.76,826.46,252.76Z" transform="translate(-715.61 -62.84)"/></g><g id="_Grupo_199" data-name="&lt;Grupo&gt;"><path id="_Trazado_197" data-name="&lt;Trazado&gt;" class="cls-16" d="M823.27,255.23s.24,3.2,1.67,2.16S823.27,255.23,823.27,255.23Z" transform="translate(-715.61 -62.84)"/></g><g id="_Grupo_200" data-name="&lt;Grupo&gt;"><path id="_Trazado_198" data-name="&lt;Trazado&gt;" class="cls-16" d="M835,240.16s.24,3.21,1.67,2.16S835,240.16,835,240.16Z" transform="translate(-715.61 -62.84)"/></g><g id="_Grupo_201" data-name="&lt;Grupo&gt;"><path id="_Trazado_199" data-name="&lt;Trazado&gt;" class="cls-16" d="M831.85,242.63s.24,3.2,1.67,2.16S831.85,242.63,831.85,242.63Z" transform="translate(-715.61 -62.84)"/></g><g id="_Grupo_202" data-name="&lt;Grupo&gt;"><path id="_Trazado_200" data-name="&lt;Trazado&gt;" class="cls-16" d="M828.66,245.1s.24,3.2,1.67,2.16S828.66,245.1,828.66,245.1Z" transform="translate(-715.61 -62.84)"/></g><g id="_Grupo_203" data-name="&lt;Grupo&gt;"><path id="_Trazado_201" data-name="&lt;Trazado&gt;" class="cls-16" d="M825.47,247.57s.24,3.2,1.67,2.16S825.47,247.57,825.47,247.57Z" transform="translate(-715.61 -62.84)"/></g><g id="_Grupo_204" data-name="&lt;Grupo&gt;"><path id="_Trazado_202" data-name="&lt;Trazado&gt;" class="cls-16" d="M822.27,250s.25,3.2,1.68,2.16S822.27,250,822.27,250Z" transform="translate(-715.61 -62.84)"/></g><g id="_Grupo_205" data-name="&lt;Grupo&gt;"><path id="_Trazado_203" data-name="&lt;Trazado&gt;" class="cls-16" d="M819.08,252.51s.25,3.2,1.68,2.16S819.08,252.51,819.08,252.51Z" transform="translate(-715.61 -62.84)"/></g><g id="_Grupo_206" data-name="&lt;Grupo&gt;"><path id="_Trazado_204" data-name="&lt;Trazado&gt;" class="cls-16" d="M815.94,253.76s.25,3.21,1.68,2.17S815.94,253.76,815.94,253.76Z" transform="translate(-715.61 -62.84)"/></g><g id="_Grupo_207" data-name="&lt;Grupo&gt;"><path id="_Trazado_205" data-name="&lt;Trazado&gt;" class="cls-16" d="M836.65,233s.24,3.21,1.67,2.17S836.65,233,836.65,233Z" transform="translate(-715.61 -62.84)"/></g><g id="_Grupo_208" data-name="&lt;Grupo&gt;"><path id="_Trazado_206" data-name="&lt;Trazado&gt;" class="cls-16" d="M839.37,237.93a.59.59,0,0,1,0,.37.82.82,0,0,1-.33.48c-1.42,1-1.67-2.17-1.67-2.17S839.06,237.18,839.37,237.93Z" transform="translate(-715.61 -62.84)"/></g><g id="_Grupo_209" data-name="&lt;Grupo&gt;"><path id="_Trazado_207" data-name="&lt;Trazado&gt;" class="cls-16" d="M833.46,235.43s.24,3.21,1.67,2.17S833.46,235.43,833.46,235.43Z" transform="translate(-715.61 -62.84)"/></g><g id="_Grupo_210" data-name="&lt;Grupo&gt;"><path id="_Trazado_208" data-name="&lt;Trazado&gt;" class="cls-16" d="M830.27,237.9s.24,3.21,1.67,2.17S830.27,237.9,830.27,237.9Z" transform="translate(-715.61 -62.84)"/></g><g id="_Grupo_211" data-name="&lt;Grupo&gt;"><path id="_Trazado_209" data-name="&lt;Trazado&gt;" class="cls-16" d="M827.07,240.37s.25,3.21,1.68,2.16S827.07,240.37,827.07,240.37Z" transform="translate(-715.61 -62.84)"/></g><g id="_Grupo_212" data-name="&lt;Grupo&gt;"><path id="_Trazado_210" data-name="&lt;Trazado&gt;" class="cls-16" d="M823.88,242.84s.25,3.21,1.68,2.16S823.88,242.84,823.88,242.84Z" transform="translate(-715.61 -62.84)"/></g><g id="_Grupo_213" data-name="&lt;Grupo&gt;"><path id="_Trazado_211" data-name="&lt;Trazado&gt;" class="cls-16" d="M820.69,245.31s.25,3.2,1.68,2.16S820.69,245.31,820.69,245.31Z" transform="translate(-715.61 -62.84)"/></g><g id="_Grupo_214" data-name="&lt;Grupo&gt;"><path id="_Trazado_212" data-name="&lt;Trazado&gt;" class="cls-16" d="M817.5,247.78s.25,3.2,1.68,2.16S817.5,247.78,817.5,247.78Z" transform="translate(-715.61 -62.84)"/></g><g id="_Grupo_215" data-name="&lt;Grupo&gt;"><path id="_Trazado_213" data-name="&lt;Trazado&gt;" class="cls-16" d="M814.31,250.25s.25,3.2,1.68,2.16S814.31,250.25,814.31,250.25Z" transform="translate(-715.61 -62.84)"/></g><g id="_Grupo_216" data-name="&lt;Grupo&gt;"><path id="_Trazado_214" data-name="&lt;Trazado&gt;" class="cls-16" d="M811.12,252.72s.25,3.2,1.68,2.16S811.12,252.72,811.12,252.72Z" transform="translate(-715.61 -62.84)"/></g><g id="_Grupo_217" data-name="&lt;Grupo&gt;"><path id="_Trazado_215" data-name="&lt;Trazado&gt;" class="cls-16" d="M837.65,229.51a.86.86,0,0,1-.32.43c-1.42,1-1.67-2.16-1.67-2.16a5.74,5.74,0,0,1,1.67.92A.78.78,0,0,1,837.65,229.51Z" transform="translate(-715.61 -62.84)"/></g><g id="_Grupo_218" data-name="&lt;Grupo&gt;"><path id="_Trazado_216" data-name="&lt;Trazado&gt;" class="cls-16" d="M832.47,230.25s.24,3.2,1.67,2.16S832.47,230.25,832.47,230.25Z" transform="translate(-715.61 -62.84)"/></g><g id="_Grupo_219" data-name="&lt;Grupo&gt;"><path id="_Trazado_217" data-name="&lt;Trazado&gt;" class="cls-16" d="M829.27,232.72s.25,3.2,1.68,2.16S829.27,232.72,829.27,232.72Z" transform="translate(-715.61 -62.84)"/></g><g id="_Grupo_220" data-name="&lt;Grupo&gt;"><path id="_Trazado_218" data-name="&lt;Trazado&gt;" class="cls-16" d="M826.08,235.19s.25,3.2,1.68,2.16S826.08,235.19,826.08,235.19Z" transform="translate(-715.61 -62.84)"/></g><g id="_Grupo_221" data-name="&lt;Grupo&gt;"><path id="_Trazado_219" data-name="&lt;Trazado&gt;" class="cls-16" d="M822.89,237.66s.25,3.2,1.68,2.16S822.89,237.66,822.89,237.66Z" transform="translate(-715.61 -62.84)"/></g><g id="_Grupo_222" data-name="&lt;Grupo&gt;"><path id="_Trazado_220" data-name="&lt;Trazado&gt;" class="cls-16" d="M819.7,240.13s.25,3.2,1.68,2.16S819.7,240.13,819.7,240.13Z" transform="translate(-715.61 -62.84)"/></g><g id="_Grupo_223" data-name="&lt;Grupo&gt;"><path id="_Trazado_221" data-name="&lt;Trazado&gt;" class="cls-16" d="M816.51,242.6s.25,3.2,1.68,2.16S816.51,242.6,816.51,242.6Z" transform="translate(-715.61 -62.84)"/></g><g id="_Grupo_224" data-name="&lt;Grupo&gt;"><path id="_Trazado_222" data-name="&lt;Trazado&gt;" class="cls-16" d="M813.32,245.06s.25,3.21,1.68,2.17S813.32,245.06,813.32,245.06Z" transform="translate(-715.61 -62.84)"/></g><g id="_Grupo_225" data-name="&lt;Grupo&gt;"><path id="_Trazado_223" data-name="&lt;Trazado&gt;" class="cls-16" d="M810.13,247.53s.25,3.21,1.68,2.17S810.13,247.53,810.13,247.53Z" transform="translate(-715.61 -62.84)"/></g><g id="_Grupo_226" data-name="&lt;Grupo&gt;"><path id="_Trazado_224" data-name="&lt;Trazado&gt;" class="cls-16" d="M806.94,250s.25,3.21,1.67,2.17S806.94,250,806.94,250Z" transform="translate(-715.61 -62.84)"/></g><g id="_Grupo_227" data-name="&lt;Grupo&gt;"><path id="_Trazado_225" data-name="&lt;Trazado&gt;" class="cls-16" d="M830.88,225.52s.25,3.2,1.68,2.16S830.88,225.52,830.88,225.52Z" transform="translate(-715.61 -62.84)"/></g><g id="_Grupo_228" data-name="&lt;Grupo&gt;"><path id="_Trazado_226" data-name="&lt;Trazado&gt;" class="cls-16" d="M827.69,228s.25,3.2,1.68,2.16S827.69,228,827.69,228Z" transform="translate(-715.61 -62.84)"/></g><g id="_Grupo_229" data-name="&lt;Grupo&gt;"><path id="_Trazado_227" data-name="&lt;Trazado&gt;" class="cls-16" d="M824.5,230.46s.25,3.2,1.68,2.16S824.5,230.46,824.5,230.46Z" transform="translate(-715.61 -62.84)"/></g><g id="_Grupo_230" data-name="&lt;Grupo&gt;"><path id="_Trazado_228" data-name="&lt;Trazado&gt;" class="cls-16" d="M821.31,232.93s.25,3.2,1.68,2.16S821.31,232.93,821.31,232.93Z" transform="translate(-715.61 -62.84)"/></g><g id="_Grupo_231" data-name="&lt;Grupo&gt;"><path id="_Trazado_229" data-name="&lt;Trazado&gt;" class="cls-16" d="M818.12,235.4s.25,3.2,1.68,2.16S818.12,235.4,818.12,235.4Z" transform="translate(-715.61 -62.84)"/></g><g id="_Grupo_232" data-name="&lt;Grupo&gt;"><path id="_Trazado_230" data-name="&lt;Trazado&gt;" class="cls-16" d="M814.93,237.87s.25,3.2,1.68,2.16S814.93,237.87,814.93,237.87Z" transform="translate(-715.61 -62.84)"/></g><g id="_Grupo_233" data-name="&lt;Grupo&gt;"><path id="_Trazado_231" data-name="&lt;Trazado&gt;" class="cls-16" d="M811.74,240.34s.25,3.2,1.67,2.16S811.74,240.34,811.74,240.34Z" transform="translate(-715.61 -62.84)"/></g><g id="_Grupo_234" data-name="&lt;Grupo&gt;"><path id="_Trazado_232" data-name="&lt;Trazado&gt;" class="cls-16" d="M808.55,242.81s.25,3.2,1.67,2.16S808.55,242.81,808.55,242.81Z" transform="translate(-715.61 -62.84)"/></g><g id="_Grupo_235" data-name="&lt;Grupo&gt;"><path id="_Trazado_233" data-name="&lt;Trazado&gt;" class="cls-16" d="M805.36,245.28s.25,3.2,1.67,2.16S805.36,245.28,805.36,245.28Z" transform="translate(-715.61 -62.84)"/></g><g id="_Grupo_236" data-name="&lt;Grupo&gt;"><path id="_Trazado_234" data-name="&lt;Trazado&gt;" class="cls-16" d="M831.57,222.5c-1.43,1-1.68-2.16-1.68-2.16a7.39,7.39,0,0,1,1,.44l.05,0a3,3,0,0,1,.54.37s0,0,0,0C831.94,221.58,832.14,222,831.57,222.5Z" transform="translate(-715.61 -62.84)"/></g><g id="_Grupo_237" data-name="&lt;Grupo&gt;"><path id="_Trazado_235" data-name="&lt;Trazado&gt;" class="cls-16" d="M826.7,222.8S827,226,828.38,225,826.7,222.8,826.7,222.8Z" transform="translate(-715.61 -62.84)"/></g><g id="_Grupo_238" data-name="&lt;Grupo&gt;"><path id="_Trazado_236" data-name="&lt;Trazado&gt;" class="cls-16" d="M823.51,225.27s.25,3.21,1.68,2.17S823.51,225.27,823.51,225.27Z" transform="translate(-715.61 -62.84)"/></g><g id="_Grupo_239" data-name="&lt;Grupo&gt;"><path id="_Trazado_237" data-name="&lt;Trazado&gt;" class="cls-16" d="M820.32,227.74s.25,3.21,1.68,2.16S820.32,227.74,820.32,227.74Z" transform="translate(-715.61 -62.84)"/></g><g id="_Grupo_240" data-name="&lt;Grupo&gt;"><path id="_Trazado_238" data-name="&lt;Trazado&gt;" class="cls-16" d="M817.13,230.21s.25,3.21,1.68,2.16S817.13,230.21,817.13,230.21Z" transform="translate(-715.61 -62.84)"/></g><g id="_Grupo_241" data-name="&lt;Grupo&gt;"><path id="_Trazado_239" data-name="&lt;Trazado&gt;" class="cls-16" d="M813.94,232.68s.25,3.2,1.67,2.16S813.94,232.68,813.94,232.68Z" transform="translate(-715.61 -62.84)"/></g><g id="_Grupo_242" data-name="&lt;Grupo&gt;"><path id="_Trazado_240" data-name="&lt;Trazado&gt;" class="cls-16" d="M810.75,235.15s.25,3.2,1.67,2.16S810.75,235.15,810.75,235.15Z" transform="translate(-715.61 -62.84)"/></g><g id="_Grupo_243" data-name="&lt;Grupo&gt;"><path id="_Trazado_241" data-name="&lt;Trazado&gt;" class="cls-16" d="M807.56,237.62s.25,3.2,1.67,2.16S807.56,237.62,807.56,237.62Z" transform="translate(-715.61 -62.84)"/></g><g id="_Grupo_244" data-name="&lt;Grupo&gt;"><path id="_Trazado_242" data-name="&lt;Trazado&gt;" class="cls-16" d="M804.37,240.09s.25,3.2,1.67,2.16S804.37,240.09,804.37,240.09Z" transform="translate(-715.61 -62.84)"/></g><g id="_Grupo_245" data-name="&lt;Grupo&gt;"><path id="_Trazado_243" data-name="&lt;Trazado&gt;" class="cls-16" d="M801.18,242.56s.25,3.2,1.67,2.16S801.18,242.56,801.18,242.56Z" transform="translate(-715.61 -62.84)"/></g><g id="_Grupo_246" data-name="&lt;Grupo&gt;"><path id="_Trazado_244" data-name="&lt;Trazado&gt;" class="cls-16" d="M821.93,220.54s.25,3.21,1.68,2.17S821.93,220.54,821.93,220.54Z" transform="translate(-715.61 -62.84)"/></g><g id="_Grupo_247" data-name="&lt;Grupo&gt;"><path id="_Trazado_245" data-name="&lt;Trazado&gt;" class="cls-16" d="M818.74,223s.25,3.21,1.67,2.17S818.74,223,818.74,223Z" transform="translate(-715.61 -62.84)"/></g><g id="_Grupo_248" data-name="&lt;Grupo&gt;"><path id="_Trazado_246" data-name="&lt;Trazado&gt;" class="cls-16" d="M815.55,225.48s.25,3.21,1.67,2.17S815.55,225.48,815.55,225.48Z" transform="translate(-715.61 -62.84)"/></g><g id="_Grupo_249" data-name="&lt;Grupo&gt;"><path id="_Trazado_247" data-name="&lt;Trazado&gt;" class="cls-16" d="M812.36,228s.25,3.21,1.67,2.17S812.36,228,812.36,228Z" transform="translate(-715.61 -62.84)"/></g><g id="_Grupo_250" data-name="&lt;Grupo&gt;"><path id="_Trazado_248" data-name="&lt;Trazado&gt;" class="cls-16" d="M809.17,230.42s.25,3.21,1.67,2.16S809.17,230.42,809.17,230.42Z" transform="translate(-715.61 -62.84)"/></g><g id="_Grupo_251" data-name="&lt;Grupo&gt;"><path id="_Trazado_249" data-name="&lt;Trazado&gt;" class="cls-16" d="M806,232.89s.25,3.21,1.67,2.16S806,232.89,806,232.89Z" transform="translate(-715.61 -62.84)"/></g><g id="_Grupo_252" data-name="&lt;Grupo&gt;"><path id="_Trazado_250" data-name="&lt;Trazado&gt;" class="cls-16" d="M802.79,235.36s.25,3.2,1.67,2.16S802.79,235.36,802.79,235.36Z" transform="translate(-715.61 -62.84)"/></g></g><path id="_Trazado_251" data-name="&lt;Trazado&gt;" class="cls-17" d="M809.59,217.17S808.27,220,810,224c.08.2.16.37.26.57a7.29,7.29,0,0,0,.37.74l-.92.71s-.19-.25-.48-.67c-.1-.15-.22-.33-.34-.53s-.31-.5-.47-.79c-1-1.82-2.13-4.64-1.52-7.35A3,3,0,0,1,809.59,217.17Z" transform="translate(-715.61 -62.84)"/><path id="_Trazado_252" data-name="&lt;Trazado&gt;" class="cls-17" d="M819.69,225.61a14.85,14.85,0,0,0-7.23-.85c3.63,2.4,2,4.7,2,4.7.13-2.41-3.22-3.89-3.22-3.89s0,.32-.05.85c0,1.48.05,4.57,1.48,6.75a14.59,14.59,0,0,1-3.64-5.74,15,15,0,0,0-1,7.2,9,9,0,0,1-1-6.31,19.37,19.37,0,0,0-4.55,5.37,17.16,17.16,0,0,1,2.67-5.5,19.81,19.81,0,0,1,4-4.18l.11-.09c.23-.18.47-.35.71-.52a20,20,0,0,1,3.95-2.13,17.17,17.17,0,0,1,6.29-1.32,19.38,19.38,0,0,0-6.35,3.06A9,9,0,0,1,819.69,225.61Z" transform="translate(-715.61 -62.84)"/><path class="cls-18" d="M834.88,230.52a11.56,11.56,0,0,0-11.3-9.51c-2,0-2,3.11,0,3.16a8.42,8.42,0,0,1,8.25,7.19C832.19,233.36,835.24,232.51,834.88,230.52Z" transform="translate(-715.61 -62.84)"/><path class="cls-18" d="M834.53,233.85a1.58,1.58,0,0,0,0,3.16A1.58,1.58,0,0,0,834.53,233.85Z" transform="translate(-715.61 -62.84)"/></g></g><g id="_Grupo_253" data-name="&lt;Grupo&gt;"><g id="_Grupo_254" data-name="&lt;Grupo&gt;"><g id="_Grupo_255" data-name="&lt;Grupo&gt;"><path id="_Trazado_253" data-name="&lt;Trazado&gt;" class="cls-19" d="M1017.35,203.5l-.53-2c-.17-.63-.36-1.41-.59-2.29a28.37,28.37,0,0,0-1-2.88,35.8,35.8,0,0,0-1.34-3.34c-.59-1.14-1.11-2.36-1.79-3.56-.56-.88-1.11-1.8-1.7-2.71-.19-.29-.38-.59-.59-.86-.48-.61-.92-1.24-1.41-1.87a17,17,0,0,0-1.28-1.53,43.19,43.19,0,0,0-6.22-5.76c-1-.84-2.17-1.52-3.19-2.19s-2-1.24-3-1.68a35.36,35.36,0,0,0-4.69-2c-.59-.19-1-.31-1.28-.38l-.48-.12,1.62-5.28s.21.09.56.21.93.4,1.56.7a39.59,39.59,0,0,1,5,2.85c1,.61,2,1.41,3.11,2.21s2.15,1.77,3.2,2.8a38.94,38.94,0,0,1,3.11,3.28l.25.29a17,17,0,0,1,1.22,1.47c.46.63.9,1.26,1.37,1.89s.77,1.1,1.11,1.66.61,1,.9,1.54c.13.25.28.48.42.71.74,1.33,1.31,2.71,1.94,4s1,2.64,1.43,3.86a34.09,34.09,0,0,1,1,3.56,25.33,25.33,0,0,1,.66,3c.12.91.25,1.7.33,2.36Z" transform="translate(-715.61 -62.84)"/><path class="cls-20" d="M1017.64,162.19a24.63,24.63,0,0,0-7.23,4.4c-2.75,2.5-4.94,6.07-3.7,10.8a12.47,12.47,0,0,0,.51,1.53l.71-.06a12.87,12.87,0,0,0,2.48-.59C1019.07,175.08,1017.64,162.19,1017.64,162.19Z" transform="translate(-715.61 -62.84)"/><path class="cls-21" d="M1015.06,166c-.75,1.08-1.72,2.52-2.63,4s-1.8,3-2.43,4.12-1,1.93-1,1.93.54-.69,1.29-1.76,1.71-2.52,2.63-4,1.79-3,2.43-4.12,1-1.93,1-1.93S1015.81,165,1015.06,166Z" transform="translate(-715.61 -62.84)"/></g><path id="_Trazado_254" data-name="&lt;Trazado&gt;" class="cls-16" d="M1055.07,228.59a44.66,44.66,0,1,1-46.66-44.6c.65,0,1.33-.06,2-.06.29,0,.61,0,.9,0A44.62,44.62,0,0,1,1055.07,228.59Z" transform="translate(-715.61 -62.84)"/><path class="cls-22" d="M998.84,193.15c-12.6,3.82-24.19,16.21-27,29.22-.86,4,5.32,5.74,6.18,1.7,2.31-10.8,12-21.55,22.5-24.74C1004.48,198.14,1002.81,192,998.84,193.15Z" transform="translate(-715.61 -62.84)"/><path class="cls-22" d="M1009.44,191.25a3.25,3.25,0,0,0-3.21,3.2v.37a3.21,3.21,0,1,0,6.41,0v-.37A3.23,3.23,0,0,0,1009.44,191.25Z" transform="translate(-715.61 -62.84)"/><path class="cls-23" d="M1055.07,228.59a44.65,44.65,0,0,0-2.23-13.89,85.72,85.72,0,0,1-6.69,14.87c-7.26,12.82-19.65,17.68-33.81,19.39-20.88,2.54-36.66-7.16-46.51-22,0,.56-.08,1.11-.08,1.67a44.66,44.66,0,1,0,89.32,0Z" transform="translate(-715.61 -62.84)"/></g></g><g id="_Grupo_256" data-name="&lt;Grupo&gt;"><g id="_Grupo_257" data-name="&lt;Grupo&gt;"><path id="_Trazado_255" data-name="&lt;Trazado&gt;" class="cls-24" d="M921,254.26c-.75.64-1.41,1.19-2,1.63-1.07.92-1.68,1.42-1.68,1.42l1.51-1.61c.48-.49,1.07-1.11,1.72-1.82a26.13,26.13,0,0,0,2.07-2.52,31.23,31.23,0,0,0,2.25-3.09c.71-1.16,1.52-2.35,2.21-3.64.29-.63.63-1.25.93-1.89a20,20,0,0,0,1-2s0-.09.07-.15c.5-1.46,1.2-2.86,1.56-4.37a39.84,39.84,0,0,0,1.09-4.47,40.81,40.81,0,0,0,.62-4.4c.14-1.44.14-2.82.17-4.13s-.06-2.55-.19-3.68a36.8,36.8,0,0,0-.85-5.37c-.14-.62-.27-1.1-.36-1.36l-.16-.5,5.67-1.51s0,.22.13.61.17,1.06.27,1.81a44.19,44.19,0,0,1,.26,6.16c0,1.28-.16,2.65-.25,4.08s-.38,2.94-.72,4.46a40.7,40.7,0,0,1-1.22,4.67c0,.14-.09.28-.12.42-.18.63-.4,1.25-.64,1.88s-.61,1.57-.93,2.34c-.09.22-.18.47-.29.69-.56,1.29-1.3,2.49-1.88,3.73l-.52.9c-.66,1.07-1.38,2.08-2,3.1-.87,1.27-1.85,2.37-2.69,3.48s-1.87,2-2.67,2.88A26.1,26.1,0,0,1,921,254.26Z" transform="translate(-715.61 -62.84)"/><path id="_Trazado_256" data-name="&lt;Trazado&gt;" class="cls-25" d="M834.88,332.1c-42.19-44-5-80.78,32.68-81.14,21-.2,40.94-30.69,61.44-10.26.19.17.38.37.57.57.41.43.77.83,1.14,1.24,18.33,21.07-12.35,39.58-13.42,60.3C915.37,340.46,876,374.94,834.88,332.1Z" transform="translate(-715.61 -62.84)"/><path class="cls-26" d="M914.54,237.67c-11.27,0-19.88,10.07-29.49,14.84-12.61,6.26-27.16,3-39.22,10.15-3.65,2.15-.46,7.89,3.19,5.74,10.26-6,23.32-3.51,34.38-7.93,9.61-3.85,20.6-16.24,31.09-16.23,4.22,0,4.29-6.56,0-6.57Z" transform="translate(-715.61 -62.84)"/><path class="cls-27" d="M930.71,242.51c-.37-.41-.73-.82-1.14-1.24-.19-.2-.38-.4-.57-.57-.7-.69-1.4-1.32-2.1-1.91,1.12,15.19-10.07,25-18.07,36.63-7.61,11-10.87,23.72-16.52,35.67s-14.06,22.36-28,24.14c-14.17,1.81-26.83-5-37.83-13.23a90,90,0,0,0,8.38,10.1c41.09,42.84,80.49,8.36,82.41-29.29C918.36,282.09,949,263.58,930.71,242.51Z" transform="translate(-715.61 -62.84)"/><path id="_Trazado_257" data-name="&lt;Trazado&gt;" class="cls-20" d="M954.89,234.26s-11.88,9.36-19.66,1.58a9.65,9.65,0,0,1-.9-1c-.15-.18-.31-.38-.46-.59A10.67,10.67,0,0,1,935,233a10.17,10.17,0,0,1,6.74-3.34C948.29,229,954.89,234.26,954.89,234.26Z" transform="translate(-715.61 -62.84)"/></g></g><g id="_Grupo_258" data-name="&lt;Grupo&gt;"><g id="_Grupo_259" data-name="&lt;Grupo&gt;"><path id="_Trazado_258" data-name="&lt;Trazado&gt;" class="cls-24" d="M958.25,254.16c-.16,1-.3,1.83-.43,2.5-.23,1.4-.36,2.17-.36,2.17s0-.78.1-2.19c.05-.69.1-1.55.14-2.51a26,26,0,0,0-.06-3.26,32.34,32.34,0,0,0-.27-3.81c-.22-1.34-.37-2.78-.67-4.21-.19-.67-.34-1.35-.52-2a20.46,20.46,0,0,0-.59-2.17c0-.06,0-.1,0-.16-.56-1.44-.94-3-1.64-4.35a41.65,41.65,0,0,0-2.06-4.12,43.5,43.5,0,0,0-2.37-3.75c-.83-1.19-1.72-2.24-2.55-3.25s-1.69-1.91-2.52-2.69a37.59,37.59,0,0,0-4.13-3.54c-.51-.38-.91-.66-1.16-.81l-.44-.28,3.35-4.82.5.39c.36.29.81.69,1.37,1.2a44.94,44.94,0,0,1,4.18,4.53c.83,1,1.6,2.12,2.45,3.27s1.61,2.49,2.34,3.87a39.68,39.68,0,0,1,2.09,4.35c.07.13.11.27.18.4.27.59.5,1.21.73,1.84.28.78.55,1.6.8,2.39.08.23.17.47.23.72.41,1.34.62,2.74,1,4.06l.19,1c.18,1.24.29,2.48.47,3.66.16,1.53.12,3,.2,4.39s-.15,2.73-.17,3.93A26.83,26.83,0,0,1,958.25,254.16Z" transform="translate(-715.61 -62.84)"/><path id="_Trazado_259" data-name="&lt;Trazado&gt;" class="cls-25" d="M943,369.22c-60.63-6.24-56.07-58.35-27.58-83,15.86-13.72,11.36-49.89,40.21-47.57a7.36,7.36,0,0,1,.8.06c.59.06,1.13.14,1.68.21,27.61,4.2,16.19,38.17,28.78,54.66C1009.74,323.51,1002,375.3,943,369.22Z" transform="translate(-715.61 -62.84)"/><path class="cls-26" d="M942.61,245.68C934,253,934,266.22,929.72,276.07,924.16,289,911,296,906.38,309.19c-1.39,4,4.76,6.31,6.15,2.31,3.92-11.25,15.51-17.76,21.08-28.29,4.84-9.15,5.2-25.71,13.21-32.49,3.22-2.72-1-7.78-4.21-5Z" transform="translate(-715.61 -62.84)"/><path class="cls-27" d="M958.07,238.91c-.55-.07-1.09-.15-1.68-.21a7.36,7.36,0,0,0-.8-.06c-1-.08-1.92-.11-2.84-.1,10.69,10.85,8.53,25.6,9.92,39.62,1.32,13.3,7.07,25.11,10.49,37.89s3.75,26.14-5.72,36.5c-9.63,10.55-23.71,13.51-37.4,14.39A90.19,90.19,0,0,0,943,369.22c59,6.08,66.78-45.71,43.89-75.65C974.26,277.08,985.68,243.11,958.07,238.91Z" transform="translate(-715.61 -62.84)"/><path id="_Trazado_260" data-name="&lt;Trazado&gt;" class="cls-20" d="M971.16,217s-3,14.82-14,13.93a9.39,9.39,0,0,1-1.33-.18,7.3,7.3,0,0,1-.73-.15,9.54,9.54,0,0,1,0-1.69,10.14,10.14,0,0,1,3-6.91C962.76,217.26,971.16,217,971.16,217Z" transform="translate(-715.61 -62.84)"/></g></g><g id="_Grupo_260" data-name="&lt;Grupo&gt;"><g id="_Grupo_261" data-name="&lt;Grupo&gt;"><path id="_Trazado_261" data-name="&lt;Trazado&gt;" class="cls-24" d="M879.49,364.31l-.06-2c.16,0,16.21-.67,23.25-13.9l1.49-2.82.35,3.17c.07.62,1.48,15.45-14.86,28.46l-1.23-1.53c10.82-8.62,13.43-18.19,14-23.21C894.28,363.72,880.14,364.29,879.49,364.31Z" transform="translate(-715.61 -62.84)"/></g><path id="_Trazado_262" data-name="&lt;Trazado&gt;" class="cls-14" d="M876.09,372.23a8.62,8.62,0,1,1,6.35-10.4A8.6,8.6,0,0,1,876.09,372.23Z" transform="translate(-715.61 -62.84)"/><path id="_Trazado_263" data-name="&lt;Trazado&gt;" class="cls-28" d="M880.56,365c-1.44,1.08-3.89.24-5.48-1.88s-1.72-4.72-.28-5.79,3.89-.24,5.48,1.88S882,363.91,880.56,365Z" transform="translate(-715.61 -62.84)"/><path class="cls-15" d="M876.09,372.23a8.55,8.55,0,0,0,5.63-4.44,7.1,7.1,0,0,1-.82.25,8.62,8.62,0,0,1-10.41-6.35,8.51,8.51,0,0,1,.72-6,8.61,8.61,0,0,0,4.88,16.5Z" transform="translate(-715.61 -62.84)"/><path id="_Trazado_264" data-name="&lt;Trazado&gt;" class="cls-14" d="M886.61,389.23A8.62,8.62,0,1,1,893,378.82,8.62,8.62,0,0,1,886.61,389.23Z" transform="translate(-715.61 -62.84)"/><path id="_Trazado_265" data-name="&lt;Trazado&gt;" class="cls-28" d="M890.27,381.84c-1.43,1.08-3.89.23-5.48-1.89s-1.72-4.71-.28-5.79,3.89-.23,5.48,1.89S891.71,380.76,890.27,381.84Z" transform="translate(-715.61 -62.84)"/><path class="cls-15" d="M886.61,389.23a8.63,8.63,0,0,0,5.47-4.15,9.25,9.25,0,0,1-1.16.38,8.62,8.62,0,0,1-9.53-12.61,8.62,8.62,0,0,0,5.22,16.38Z" transform="translate(-715.61 -62.84)"/><g id="_Grupo_262" data-name="&lt;Grupo&gt;"><path id="_Trazado_266" data-name="&lt;Trazado&gt;" class="cls-20" d="M919.67,352.33s-9.51-6.19-14,1.26C911.43,360.12,919.67,352.33,919.67,352.33Z" transform="translate(-715.61 -62.84)"/></g><g id="_Grupo_263" data-name="&lt;Grupo&gt;"><path id="_Trazado_267" data-name="&lt;Trazado&gt;" class="cls-20" d="M906.57,332.52s-12.37,11-3.57,20.2C914.4,347.13,906.57,332.52,906.57,332.52Z" transform="translate(-715.61 -62.84)"/></g></g><g id="_Grupo_264" data-name="&lt;Grupo&gt;"><g id="_Grupo_265" data-name="&lt;Grupo&gt;"><path id="_Trazado_268" data-name="&lt;Trazado&gt;" class="cls-24" d="M922.39,373.92l-.06-2c.16,0,16.21-.67,23.25-13.9l1.49-2.82.35,3.17c.07.62,1.47,15.45-14.86,28.46l-1.23-1.53c10.82-8.62,13.42-18.19,14-23.21C937.18,373.33,923,373.9,922.39,373.92Z" transform="translate(-715.61 -62.84)"/></g><path id="_Trazado_269" data-name="&lt;Trazado&gt;" class="cls-14" d="M919,381.85a8.62,8.62,0,1,1,6.35-10.41A8.61,8.61,0,0,1,919,381.85Z" transform="translate(-715.61 -62.84)"/><path id="_Trazado_270" data-name="&lt;Trazado&gt;" class="cls-28" d="M923.46,374.6c-1.44,1.08-3.89.24-5.49-1.88s-1.71-4.71-.28-5.79,3.9-.24,5.49,1.88S924.9,373.52,923.46,374.6Z" transform="translate(-715.61 -62.84)"/><path class="cls-15" d="M919,381.85a8.61,8.61,0,0,0,5.63-4.44c-.27.09-.54.17-.82.24a8.62,8.62,0,0,1-10.41-6.35,8.51,8.51,0,0,1,.72-6A8.62,8.62,0,0,0,919,381.85Z" transform="translate(-715.61 -62.84)"/><path id="_Trazado_271" data-name="&lt;Trazado&gt;" class="cls-14" d="M929.51,398.84a8.62,8.62,0,1,1,6.34-10.41A8.62,8.62,0,0,1,929.51,398.84Z" transform="translate(-715.61 -62.84)"/><path id="_Trazado_272" data-name="&lt;Trazado&gt;" class="cls-28" d="M933.17,391.45c-1.43,1.08-3.89.23-5.48-1.89s-1.72-4.71-.28-5.79,3.89-.23,5.48,1.89S934.61,390.37,933.17,391.45Z" transform="translate(-715.61 -62.84)"/><path class="cls-15" d="M929.51,398.84a8.58,8.58,0,0,0,5.46-4.15,8.61,8.61,0,0,1-10.68-12.23,8.62,8.62,0,0,0,5.22,16.38Z" transform="translate(-715.61 -62.84)"/><g id="_Grupo_266" data-name="&lt;Grupo&gt;"><path id="_Trazado_273" data-name="&lt;Trazado&gt;" class="cls-20" d="M962.57,361.94s-9.51-6.19-14,1.26C954.33,369.73,962.57,361.94,962.57,361.94Z" transform="translate(-715.61 -62.84)"/></g><g id="_Grupo_267" data-name="&lt;Grupo&gt;"><path id="_Trazado_274" data-name="&lt;Trazado&gt;" class="cls-20" d="M949.47,342.13s-12.37,11-3.57,20.2C957.3,356.74,949.47,342.13,949.47,342.13Z" transform="translate(-715.61 -62.84)"/></g></g><g id="_Grupo_268" data-name="&lt;Grupo&gt;"><g id="_Grupo_269" data-name="&lt;Grupo&gt;"><path id="_Trazado_275" data-name="&lt;Trazado&gt;" class="cls-24" d="M1003,311.12l-.06-2c.16,0,16.21-.67,23.25-13.91l1.49-2.81.35,3.17c.07.62,1.48,15.45-14.86,28.46l-1.23-1.53c10.82-8.62,13.43-18.2,14-23.21C1017.78,310.53,1003.64,311.1,1003,311.12Z" transform="translate(-715.61 -62.84)"/></g><path id="_Trazado_276" data-name="&lt;Trazado&gt;" class="cls-14" d="M999.59,319a8.62,8.62,0,1,1,6.35-10.41A8.61,8.61,0,0,1,999.59,319Z" transform="translate(-715.61 -62.84)"/><path id="_Trazado_277" data-name="&lt;Trazado&gt;" class="cls-28" d="M1004.06,311.8c-1.44,1.08-3.89.23-5.48-1.89s-1.72-4.71-.28-5.79,3.89-.23,5.48,1.89S1005.5,310.72,1004.06,311.8Z" transform="translate(-715.61 -62.84)"/><path class="cls-15" d="M999.59,319a8.55,8.55,0,0,0,5.63-4.44,7.1,7.1,0,0,1-.82.25,8.61,8.61,0,0,1-9.69-12.32A8.62,8.62,0,0,0,999.59,319Z" transform="translate(-715.61 -62.84)"/><path id="_Trazado_278" data-name="&lt;Trazado&gt;" class="cls-14" d="M1010.11,336a8.62,8.62,0,1,1,6.34-10.4A8.61,8.61,0,0,1,1010.11,336Z" transform="translate(-715.61 -62.84)"/><path id="_Trazado_279" data-name="&lt;Trazado&gt;" class="cls-28" d="M1013.77,328.64c-1.43,1.08-3.89.24-5.48-1.88s-1.72-4.71-.28-5.79,3.89-.24,5.48,1.88S1015.21,327.57,1013.77,328.64Z" transform="translate(-715.61 -62.84)"/><path class="cls-15" d="M1010.11,336a8.62,8.62,0,0,0,5.47-4.14,7.83,7.83,0,0,1-1.16.37,8.61,8.61,0,0,1-9.53-12.6,8.61,8.61,0,0,0,5.22,16.37Z" transform="translate(-715.61 -62.84)"/><g id="_Grupo_270" data-name="&lt;Grupo&gt;"><path id="_Trazado_280" data-name="&lt;Trazado&gt;" class="cls-20" d="M1043.17,299.13s-9.51-6.18-14,1.27C1034.93,306.93,1043.17,299.13,1043.17,299.13Z" transform="translate(-715.61 -62.84)"/></g><g id="_Grupo_271" data-name="&lt;Grupo&gt;"><path id="_Trazado_281" data-name="&lt;Trazado&gt;" class="cls-20" d="M1030.07,279.33s-12.37,11-3.57,20.2C1037.9,293.94,1030.07,279.33,1030.07,279.33Z" transform="translate(-715.61 -62.84)"/></g></g></g></g></g></svg>