<?xml version="1.0" encoding="utf-8"?>
<!-- Generator: Adobe Illustrator 22.0.0, SVG Export Plug-In . SVG Version: 6.00 Build 0)  -->
<svg version="1.1" id="Layer_1" xmlns="http://www.w3.org/2000/svg" xmlns:xlink="http://www.w3.org/1999/xlink" x="0px" y="0px"
	 viewBox="0 0 141.7 141.7" style="enable-background:new 0 0 141.7 141.7;" xml:space="preserve">
<style type="text/css">
	.st0{fill:#FAFAFA;}
	.st1{fill:#BE894A;}
	.st2{fill:#FFFFFF;}
	.st3{fill:#ECC782;}
	.st4{fill:#D69B5A;}
	.st5{fill:#B26F34;}
	.st6{opacity:0.49;}
	.st7{fill:#B3B3B3;}
	.st8{fill:#80BC22;}
	.st9{fill:#A0642F;}
	.st10{fill:#E35F10;}
	.st11{fill:#F2E7AD;}
	.st12{opacity:0.76;fill:#878787;}
	.st13{opacity:0.76;}
	.st14{fill:#B8B8B8;}
</style>
<g>
	<g>
		<polygon class="st0" points="118.8,30.5 115.1,117.9 71.4,117.9 67.8,30.5 		"/>
		<polygon class="st1" points="120.3,49.5 118.4,95.4 68.2,95.4 66.3,49.5 		"/>
		<path class="st2" d="M122.4,31.2c0,1.9-1.5,3.4-3.4,3.4l-51.5,0c-1.9,0-3.4-1.5-3.4-3.4c0-0.9,0.4-1.8,1-2.4
			c0.5-0.5,1.2-0.9,1.9-1c0.2,0,0.3,0,0.5,0l51.5,0c0.2,0,0.3,0,0.5,0C121.2,28.1,122.4,29.5,122.4,31.2z"/>
		<path class="st0" d="M119.5,24.4v3.5c-0.2,0-0.3,0-0.5,0l-51.5,0c-0.2,0-0.3,0-0.5,0l0-3.5c0-1.8,1.5-3.4,3.3-3.4l30.5,0h15.3
			C118,21,119.5,22.5,119.5,24.4z"/>
		<path class="st3" d="M93.3,56.1c-9.5,0-17.1,7.7-17.2,17.1c0,9.5,7.7,17.1,17.1,17.2c9.5,0,17.1-7.7,17.2-17.1
			C110.4,63.8,102.8,56.1,93.3,56.1z M93.3,84.1c-6,0-10.9-4.9-10.9-10.9c0-6,4.9-10.9,10.9-10.9c6,0,10.9,4.9,10.9,10.9
			C104.2,79.3,99.3,84.1,93.3,84.1z"/>
		<path class="st4" d="M104.2,73.3c0,6-4.9,10.9-10.9,10.9c-6,0-10.9-4.9-10.9-10.9c0-6,4.9-10.9,10.9-10.9
			C99.3,62.4,104.2,67.3,104.2,73.3z"/>
		<path class="st5" d="M97.9,75.7c-1.8,2.3-6.3,3.7-9.3,2.7c-0.1,0-0.2-0.1-0.3-0.1c-0.7-0.3-1.2-0.8-1.5-1.5
			c-0.7-1.5-0.4-3.6,0.2-5c0.9-2.3,3.1-4.5,5.4-5.6c0.5-0.1,0.9-0.2,1.4-0.1c0.6,0,1.3,0.1,2,0.3c0.9,0.2,1.8,0.5,2.5,1
			c0.7,0.4,1.2,0.9,1.5,1.5C100.8,70.8,99,74.3,97.9,75.7z"/>
		<g class="st6">
			<g>
				<path class="st7" d="M98.5,67.4c-3.8,0.5-3.1,6-5.4,8.4c-1.3,1.4-3,2.1-4.8,2.5c-0.7-0.3-1.2-0.8-1.5-1.5c2.4-0.2,4.2-1.1,5-3.7
					c0.4-1.2,0.7-2.5,1.2-3.7c0.7-1.4,1.6-2.4,2.8-3C96.8,66.6,97.7,66.9,98.5,67.4z"/>
			</g>
		</g>
	</g>
	<path class="st8" d="M87.5,97.2c-0.3,0.6-1,1.1-1.9,1.4c-5.7,1.9-12.9-1.9-19-1c-4.9,0.6-9.2,2.2-14.1,1.9c-3.5,0-6.3-1.3-9.6-1.9
		c-7.8-1.2-15.2,1.3-22.9,1.3c-1,0-2.5,0-3.9-0.3c-1.9-0.3-3.7-1-4.5-2.4c-1.5-2.6,1.6-4.4,4.1-4.7c4.9,1,10.6,0.4,14.9,0.3
		c6.5-0.3,13.3-0.8,19.8-1c7.3-0.2,14.6-0.8,21.9-0.8c3.5,0,8.3,0.7,12.8,0.6C87.3,92.3,88.8,95.3,87.5,97.2z"/>
	<path class="st9" d="M90.7,105.8c-1.2-0.1-2.5-0.3-3.7-0.5c-2-0.3-4-0.7-6.1-0.6c-4.3,0.4-8.2,1.6-12.7,1.6
		c-14.1,0-29.1-1.8-43.2,0c-2.4,0.3-8.5,2.6-13.4,2.8c-3.1,0.2-5.7-0.6-6.2-3.3c-1-4.5,3.3-2.9,5.5-3.5c1.8-0.5,3.6-2.1,5.3-3.6
		c1.4,0.2,2.8,0.3,3.9,0.3c7.6,0,15-2.5,22.9-1.3c3.3,0.6,6.1,1.9,9.6,1.9c4.9,0.2,9.2-1.3,14.1-1.9c6.1-1,13.3,2.9,19,1
		c0.9-0.3,1.5-0.8,1.9-1.4c1.5,0.6,3,1.4,4.2,2.3C94.8,102.3,95.7,106,90.7,105.8z"/>
	<path class="st10" d="M89.5,112.8c-2.3-1-4.3,0.4-6.4,1c-4.3,1.2-8.6,0.7-12.9,0.2c-7-0.8-13.1-1.4-20.1,0
		c-3.1,0.8-5.5,1.8-8.8,1.8c-3.3-0.2-6.5-0.4-9.8-0.4c-3.1,0-6.1,0.2-9.2,1c-2.3,0.4-5.4,2.3-7.8,1.6c-2.7-1-1.6-2.5-1.9-5.1
		c-0.1-1.3-0.6-2.5-0.8-3.8c4.8-0.2,11-2.5,13.4-2.8c14.1-1.8,29.1,0,43.2,0c4.5,0,8.4-1.2,12.7-1.6c2.1-0.1,4.1,0.3,6.1,0.6
		C88.4,107.5,90.3,110.7,89.5,112.8z"/>
	<path class="st11" d="M91.5,111.4c-0.8,4.5-1,10.1-5.3,12.3c-6.5,2.9-16.1,0.5-23.2,2.1c-9.4,1.8-20.3,1.3-30,0.8
		c-8.4-0.5-20.1-3.1-23.2-12.1c5.5-1.1,10.9-2.3,16.5-2.3h31c7.6,0,15.4,0.8,23.2,0.5C84.3,112.6,87.9,111.8,91.5,111.4z"/>
	<path class="st11" d="M89.4,91.5c-0.3,0-0.7,0-1.1,0c-4.8,0.1-10-0.7-13.8-0.7c-7.9,0-15.8,0.6-23.7,0.8
		c-7.1,0.3-14.4,0.9-21.5,1.1C24.6,93,18.4,93.7,13,92.6c-1-0.2-2-0.4-2.9-0.8c2.3-17.4,38.6-13.6,48.8-13.4
		C71,78.7,83.6,81.6,89.4,91.5z"/>
	<path class="st12" d="M90.7,105.8c-1.2-0.1-2.5-0.3-3.7-0.5c1.2,1.9,2.7,4.3,2.7,6.4c-3,0.4-6,1-9.2,1.1c-1.7,0.1-3.4,0.1-5,0
		c0.9-1,1.2-2.4,0.9-4.4c-0.3-1.9,0-2.1,0.5-3.2c0.1-0.3,0.3-0.6,0.4-1c0.5-1,0.5-2.3,0.8-3.2c0.3-0.7,0.8-1.4,1.2-2
		c1-1.5,1.5-2.5-1.8-3.2c-3.1-0.6-6.5-1-9.6-1c-4.5,0-8.4,1-12.8,1.5c-4.4,0.5-8.7-0.8-13.1-0.8H22.6c-3.9,0-7.5,0.2-11.2-0.6
		c0-0.9,0.7-1.7,1.5-2.3c0.1,0,0.1,0,0.2,0c5.3,1.1,11.5,0.5,16.2,0.3c7.1-0.3,14.4-0.9,21.5-1.1c7.9-0.3,15.8-0.8,23.8-0.8
		c3.2,0,7.5,0.5,11.6,0.6c1.6,1.7,2.4,4.1,1.3,5.7c1.5,0.6,3,1.4,4.2,2.3C94.8,102.3,95.8,106,90.7,105.8z"/>
	<g>
		<path class="st2" d="M29,77.5c-1.2,1-2.1,2.4-2.9,3.8c-0.6,0.9,0.5,1.5,1.3,1.6c1.1,0.1,2.4-0.4,3-1.3c0.7-1.1,1.3-2.2,2.3-3
			c0.8-0.7,0.4-1.6-0.5-1.9C31,76.3,29.8,76.8,29,77.5L29,77.5z"/>
	</g>
	<g>
		<path class="st2" d="M36,77.3c0,1,0,1.9,0,2.9c0,0.9,4.5,0.2,4.5-1.2c0-1,0-1.9,0-2.9C40.6,75.2,36,75.9,36,77.3L36,77.3z"/>
	</g>
	<g>
		<path class="st2" d="M45.4,78.1c0.7,1.1,1.3,2.3,2.1,3.4c1.1,1.5,5.5-0.1,4.2-1.9c-0.8-1.1-1.4-2.2-2.1-3.4
			C48.6,74.5,44.3,76.1,45.4,78.1L45.4,78.1z"/>
	</g>
	<g>
		<path class="st2" d="M54.5,81c0.7,0.7,1.2,1.5,1.7,2.4c0.7,1.3,5-0.2,4.5-1.2c-0.5-1-1.2-2-2-2.8C57.8,78.4,53.5,80,54.5,81
			L54.5,81z"/>
	</g>
	<g>
		<path class="st2" d="M61.8,79.4c0.8,0.3,1.3,1,1.9,1.6c1.6,1.5,5.4-0.8,3.5-2.7c-0.8-0.8-1.7-1.6-2.8-2.1
			C62.3,75.3,59.1,78.3,61.8,79.4L61.8,79.4z"/>
	</g>
	<g>
		<path class="st2" d="M71.7,82.7c0.7,0.5,1.3,1.1,1.8,1.8c1.3,1.8,5.6-0.1,4.1-2c-0.7-0.9-1.5-1.7-2.4-2.4
			C73.5,78.8,69.6,81.2,71.7,82.7L71.7,82.7z"/>
	</g>
	<g>
		<path class="st2" d="M19.6,81.6c-0.6,0.4-0.9,0.9-1.2,1.5c-0.3,0.7,1.6,0.4,1.8,0.3c0.7-0.1,2.3-0.4,2.7-1.2
			c0.2-0.5,0.4-0.8,0.9-1.1c0.9-0.6-0.8-0.7-1-0.6C21.5,80.6,20.5,81,19.6,81.6L19.6,81.6z"/>
	</g>
	<g class="st13">
		<path class="st14" d="M118.7,34.6L118,49.5h2.3l-1.9,45.9h-2.3l-0.9,22.5h-10.1l-14.8,0c0.6-2.1,0.8-4.4,1.2-6.5
			c-0.6,0.1-1.2,0.2-1.8,0.2c0-2-1.5-4.5-2.7-6.3c1.2,0.2,2.4,0.5,3.7,0.5c5.1,0.2,4.1-3.5,1-6.3c-1.1-0.9-2.6-1.7-4.1-2.3
			c0.4-0.5,1.5-2.3-1.3-5.7c0.4,0,2.9,0,3.2,0c-0.1-0.2-1-1.6-1.2-1.8c-1.2-2-2.6-3-4.3-4.4c3.6,0.6,7.7,1.8,10.4,3.8
			c0.5,0.3,0.9,0.7,1.2,1.2c1.2,1.5,1.6,3.4,2.2,5.1c0.6,1.7,1.4,3.3,3.3,3.9c1.2,0.4,3.5,0.2,4.9,0.9l0.2-4.8l0.5-11.4l1-20.1
			l0.7-14.4l0.7-14.9h2.4c0,0,0,0,0,0c1.9,0,3.4-1.5,3.4-3.4c0-0.2,0-0.5-0.1-0.7c-0.3-1.4-1.4-2.4-2.8-2.6c-0.2,0-0.3,0-0.5,0H111
			v0l0.1-6.8h5c1.8,0,3.4,1.5,3.4,3.4v3.5c1.6,0.3,2.9,1.7,2.9,3.4c0,1.9-1.5,3.4-3.4,3.4H118.7z"/>
	</g>
</g>
</svg>
