<?xml version="1.0" encoding="utf-8"?>
<!-- Generator: Adobe Illustrator 22.0.0, SVG Export Plug-In . SVG Version: 6.00 Build 0)  -->
<svg version="1.1" id="Layer_1" xmlns="http://www.w3.org/2000/svg" xmlns:xlink="http://www.w3.org/1999/xlink" x="0px" y="0px"
	 viewBox="0 0 141.7 141.7" style="enable-background:new 0 0 141.7 141.7;" xml:space="preserve">
<style type="text/css">
	.st0{fill:#F9F9E5;}
	.st1{fill:#DFE6CE;}
	.st2{fill:#F49294;}
	.st3{fill:#F17171;}
</style>
<g>
	<path class="st0" d="M129.9,100c-2.9,3.5-8,4-11.5,1.1c-2.9-2.4-3.7-6.5-2.2-9.7l-18.7-2.9l1.6-10.6l17.7,2.7
		c0.2-1.4,0.8-2.7,1.8-3.8c2.9-3.5,8-4,11.5-1.1c3.5,2.9,4,8,1.1,11.5c-0.6,0.7-1.2,1.2-1.9,1.7C132.3,91.8,132.7,96.7,129.9,100z"
		/>
	<path class="st1" d="M129.9,100c0.5-2,0.5-4.1-0.2-6.2c-0.3-1-0.9-2-1.4-2.9c0.4-1.2,1-2.5,1.2-3.6c0.9-7.3-7.8-11.2-12.8-5.8
		c-0.9,0.9-1.6,1.9-2.4,2.8c-1.9-0.5-4.3-1.4-6.1-1.7c-2.1-0.3-4.1-1.1-6.3-0.7c-1.4,0.3-2.7,0.8-3.7,1.6l0.8-5.5l17.7,2.7
		c0.2-1.4,0.8-2.7,1.8-3.8c2.9-3.5,8-4,11.5-1.1c3.5,2.9,4,8,1.1,11.5c-0.6,0.7-1.2,1.2-1.9,1.7C132.3,91.8,132.6,96.6,129.9,100z"
		/>
	<path class="st2" d="M10.7,89.2c0,0,11.4,13.8,43.6,13.6c32.1-0.2,34-15.4,54.5-10.4c0,0-3.3-2.8-2.7-5.2l7.2-0.2l-5.1-4.2
		c0,0,5.2-5.9,8.5-4.5c0,0-7.7-2.7-11.1-1.2c-3.4,1.5,2.5-20.5-37-43.5L10.7,89.2z"/>
	<path class="st3" d="M17.1,86.1C30.4,101,52.8,100.3,70.6,95c8.7-2.6,17.4-6.2,25.6-10.2c0.5-0.3,5.9-2.6,3.2-1.5
		c1.1-0.4,2.3-0.9,3.5-1.2c-2.1,0.7,4.9,0.4,2-0.1c1.2,0.2,2.4,0.4,3.5,0.5c-0.1,0.1-0.2,0.2-0.2,0.2l5.1,4.2l-7.2,0.2
		c-0.7,2.4,2.7,5.2,2.7,5.2c-20.6-5-22.4,10.2-54.5,10.4c-32.1,0.2-43.6-13.6-43.6-13.6l5-4.8C16.2,85,16.6,85.6,17.1,86.1z"/>
	<g>
		<path class="st2" d="M21.7,91.5c10.8,0.1,23.3-8.2,29-16.3c1.9-2.6,4.5-5.5,7.4-8.6c6.9-7.5,14.7-16,14.2-23.6
			c-0.2-3.1-1.7-5.8-4.6-8.3c-3.6-3.1-7.6-4.7-12-4.8c-9.9-0.1-21.9,7.2-36.5,22.3C8.4,63.3,7.8,74.2,8,78.3c0.2,4.3,1.6,8,3.7,9.7
			C14.4,90.3,17.8,91.5,21.7,91.5L21.7,91.5z"/>
		<path class="st3" d="M55.7,31.4c4.1,0.1,7.7,1.5,11.1,4.4c2.6,2.2,3.9,4.6,4.1,7.3c0.4,7-7.5,15.6-13.8,22.5
			c-2.9,3.1-5.6,6.1-7.5,8.7C44.1,82,31.9,90.2,21.7,90c-3.6,0-6.6-1.1-9.1-3.2c-1.4-1.1-2.9-4-3.2-8.6c-0.2-4,0.4-14.3,10.7-25
			C34.6,38.4,46.2,31.3,55.7,31.4L55.7,31.4z M55.7,28.4c-12.8-0.2-26.6,11.4-37.6,22.8c-14.9,15.3-13.2,33.1-7.3,38
			c3.2,2.6,7,3.8,10.9,3.8C33,93.2,46,84.5,52,76.1c8-11.3,32.4-29,16.7-42.5C64.6,30,60.2,28.5,55.7,28.4L55.7,28.4z"/>
	</g>
	<path class="st0" d="M31.2,73.5c2.8-4.5,3.1-9.4,0.7-10.9c-2.4-1.5-6.7,0.9-9.5,5.4c-2.8,4.5-3.1,9.4-0.7,10.9
		C24.2,80.5,28.4,78,31.2,73.5z"/>
</g>
</svg>
