<?xml version="1.0" encoding="utf-8"?>
<!-- Generator: Adobe Illustrator 22.0.0, SVG Export Plug-In . SVG Version: 6.00 Build 0)  -->
<svg version="1.1" id="Layer_1" xmlns="http://www.w3.org/2000/svg" xmlns:xlink="http://www.w3.org/1999/xlink" x="0px" y="0px"
	 viewBox="0 0 141.7 141.7" style="enable-background:new 0 0 141.7 141.7;" xml:space="preserve">
<style type="text/css">
	.st0{fill:#FFFFFF;}
	.st1{fill:#07A1C7;}
	.st2{fill:#28AECF;}
	.st3{fill:#F2F2F2;}
	.st4{fill:#5AC1DA;}
	.st5{opacity:0.46;}
	.st6{opacity:0.37;fill:#8D999C;}
</style>
<g>
	<path class="st0" d="M109.4,39.4v76.5c0,9.4-7.6,17.1-17.1,17.1H52.1c-9.4,0-17.1-7.6-17.1-17.1V39.4c0-9.3,7.5-16.9,16.7-17V10.5
		h40.9v11.9C102,22.6,109.4,30.1,109.4,39.4z"/>
	<path class="st1" d="M94.3,7.2v3.9H50.2V7.2c0-1.5,1.2-2.7,2.7-2.7h38.7C93.1,4.5,94.3,5.7,94.3,7.2z"/>
	<path class="st2" d="M97.2,13.8c0,1.5-1.2,2.7-2.7,2.7H50c-1.5,0-2.7-1.2-2.7-2.7c0-0.7,0.3-1.4,0.8-1.9c0.5-0.5,1.2-0.8,1.9-0.8
		h44.5C96,11.1,97.2,12.3,97.2,13.8z"/>
	<path class="st3" d="M113.3,49.1c0,1.6-1.3,2.8-2.8,2.8H34.1c-1.6,0-2.8-1.3-2.8-2.8v-1.3c0-1.6,1.3-2.8,2.8-2.8h76.4
		c1.6,0,2.8,1.3,2.8,2.8V49.1z"/>
	<path class="st3" d="M113.3,102c0,1.6-1.3,2.8-2.8,2.8H34.1c-1.6,0-2.8-1.3-2.8-2.8v-1.3c0-1.6,1.3-2.8,2.8-2.8h76.4
		c1.6,0,2.8,1.3,2.8,2.8V102z"/>
	<rect x="34.1" y="52" class="st4" width="76.4" height="45.9"/>
	<g>
		<g class="st5">
			<path class="st0" d="M92.3,81.3c-5.2-0.6-9.1-1.5-14.1,0.8c-1.7,0.9-3.2,1.9-4.6,3.1c1.4-9.2,7-17.8,17-20
				c6.6-1.3,15.8,2,14.4,10C103.9,81,97.2,81.7,92.3,81.3z"/>
		</g>
		<g class="st5">
			<path class="st0" d="M77,85c2.8-2.4,8-2.6,11.2-2c3,0.4,7.2,3.9,4.2,6.9C88.7,93.9,82.3,85.9,77,85z"/>
		</g>
		<g class="st5">
			<path class="st0" d="M71.6,81.3c-3-3.7-3.9-8.4-2.4-13.1c1-3.4,6.7-12.3,11.5-8.5c3.4,2.8-1.4,8.4-3.2,10.5
				C74.8,73.6,72.2,76.9,71.6,81.3z"/>
		</g>
		<g>
			<path class="st0" d="M52,84.8l2.7-12.6l-5.1,12.6H46V73.4l-3.5,11.4h-2.1l6-18.3c-2.7,0.9-4.3,3-4.3,6c0,1.4,0.3,1.6,0.4,1.8
				c-1.8,0-2.9-0.7-2.9-2.6c0-3.3,4.5-6.8,8.7-6.8c0.6,0,1.3,0.1,1.8,0.3v15.4l5.8-15.4h4.2l-4.2,19.6H52z"/>
			<path class="st0" d="M65,71.5l-1.9,9.1c-0.1,0.3-0.1,0.6-0.1,0.8c0,0.6,0.3,1,1.3,1c1.1,0,2.5-1.5,3.5-2.3h0.9
				c-1.2,1.2-4.2,4.8-6.3,4.8c-2.1,0-3.3-0.9-3.3-2.9c0-0.4,0.1-0.9,0.2-1.4l1.9-9.1H65z M63.8,65.8c1.2,0,2.1,1,2.1,2.1
				c0,1.2-1,2.1-2.1,2.1c-1.2,0-2.1-0.9-2.1-2.1C61.7,66.8,62.6,65.8,63.8,65.8z"/>
			<path class="st0" d="M73.6,66.1l-3.1,14.4c-0.1,0.4-0.1,0.6-0.1,0.9c0,0.6,0.3,1,1.3,1c1.1,0,2.5-1.5,3.5-2.3h0.9
				c-1.2,1.2-4.2,4.8-6.3,4.8c-2.1,0-3.3-0.9-3.3-2.9c0-0.4,0.1-0.9,0.2-1.4l3-13.9L73.6,66.1z"/>
			<path class="st0" d="M87,71.5l-5.3,3.6c0.2,0,0.4-0.1,0.6-0.1c1.5,0,3.1,1.6,3.1,3.4c0,0.2,0,0.4-0.1,0.6l-0.3,1.5
				c-0.1,0.4-0.2,0.8-0.2,1.1c0,0.5,0.2,0.8,1,0.8c0.2,0,0.5,0,0.7-0.1c-0.7,2.3-1.9,2.5-2.8,2.5c-1.9,0-2.7-1.3-2.7-2.9
				c0-0.4,0.1-0.9,0.2-1.3l0.3-1.3c0-0.2,0.1-0.4,0.1-0.6c0-0.9-0.4-1.7-1.2-1.7c-0.6,0-1.1,0.2-1.7,0.6L77,84.8h-3.8L77,66.7
				l3.9-0.5l-2,9.3c2-1.6,5.1-4,5.1-4H87z"/>
		</g>
	</g>
	<path class="st6" d="M110.5,52v45.9c1.6,0,2.8,1.3,2.8,2.8v1.3c0,1.6-1.3,2.8-2.8,2.8h-1v11c0,9.4-7.6,17.1-17.1,17.1H80.6
		c5.6,0,10.2-7.6,10.2-17.1V39.4c0-9.3-4.5-16.9-10-17v-5.8h1.1c0.9,0,1.6-1.2,1.6-2.7c0-1.5-0.7-2.7-1.6-2.7h-0.1V7.2
		c0-1.5-0.7-2.7-1.6-2.7h11.5c1.5,0,2.7,1.2,2.7,2.7v3.9h0.2c1.5,0,2.7,1.2,2.7,2.7c0,1.5-1.2,2.7-2.7,2.7h-1.8v5.8
		c9.3,0.2,16.7,7.8,16.7,17V45h1c1.6,0,2.8,1.3,2.8,2.8v1.3C113.3,50.7,112.1,52,110.5,52z"/>
</g>
</svg>
