<svg xmlns="http://www.w3.org/2000/svg" viewBox="0 0 866.09 1097.97"><defs><style>.cls-1{fill:#64bc2b;}.cls-2{fill:#522d1b;}.cls-3{fill:#c73c27;}.cls-4{font-size:133.06px;font-family:MichailScript-Regular, Michail Script ;}.cls-5{fill:#e8bb00;}.cls-5,.cls-6,.cls-7{stroke:#333;stroke-miterlimit:10;stroke-width:3px;}.cls-6{fill:#00bc0d;}.cls-7{fill:#0f7bf2;}</style></defs><title>Diversan Logo</title><g id="Capa_4" data-name="Capa 4"><path class="cls-1" d="M612.7,175.08c-28.42,6.88-47.88,30.15-47.38,55,17.69-15,41-27,67.93-33.16,30.2-7.06,59.48-5.67,83.54,2.14-22.69-5.94-49.32-6.57-76.6-.23a166.11,166.11,0,0,0-58.87,26.08v0c-7.81,3.78-17.1,12.5-22.88,18.42.91,2.14,2,4.9,3.2,7.83-.2-.52-.35-1.14-.57-1.64,2.23-2.28,4.37-4.45,6.46-6.41,8.24,26,38.28,41.48,68.78,34,43-10.51,68-76.66,107.33-67.33C743.64,209.88,693.13,155.56,612.7,175.08Z" transform="translate(-103.62 -14.84)"/><path class="cls-1" d="M506.35,266.65c6.71-1.72,11.25-7.3,11-13.2a38.15,38.15,0,0,1-16,8.09,37.33,37.33,0,0,1-19.8-.23,38.11,38.11,0,0,0,18.15-.2,39.37,39.37,0,0,0,13.87-6.38h0a23.49,23.49,0,0,0,5.36-4.44c-.23-.5-.5-1.15-.79-1.84,0,.12.09.27.14.38-.52.55-1,1.07-1.51,1.55-2-6.15-9.21-9.71-16.41-7.84-10.15,2.63-15.85,18.39-25.21,16.32A33.13,33.13,0,0,0,506.35,266.65Z" transform="translate(-103.62 -14.84)"/><path class="cls-2" d="M558.34,243.48c-11.89-24.16-28.23-34.35-29.93-35.79a19,19,0,0,0-24.62,29c.58.5,34.91,19.37,28.12,79.74,6.09,1.67,11.33,3.53,14.27,5.59,0,0,9.67-2.88,24-6.31,2.08-27.42-2.12-48.47-8.55-64.48-1.17-2.93-2.29-5.69-3.2-7.83A.46.46,0,0,0,558.34,243.48Z" transform="translate(-103.62 -14.84)"/><path class="cls-3" d="M546.18,322c-2.94-2.06-8.18-3.92-14.27-5.59v0c-7.38-1.85-16.71-3.88-27.12-5.64-7.33-1.18-14.17-2.07-19.56-2.71-50.46-5.47-116.29-.16-144.12,56.54-48.05,97.79-15.46,231.64,66.91,290,73.65,52.17,129.34,33,140.31,28.38V321.38Z" transform="translate(-103.62 -14.84)"/><path class="cls-3" d="M759.79,364.63c-14.34-29.18-38.77-44.71-66-52.25.45.33,1,.53,1.48.88-.44-.35-1-.55-1.48-.88-44.35-12.22-96.05-3.05-123.64,3.76v-.45c-10.44,2.49-18.3,4.67-21.86,5.69V683c1.3-.54,2.12-.94,2.12-.94S610.51,713,692.88,654.62,807.84,462.42,759.79,364.63Z" transform="translate(-103.62 -14.84)"/></g><g id="Capa_5" data-name="Capa 5"><path class="cls-1" d="M903.06,939.86c-12.77,6.62-19.34,20-16.18,31.85a79.09,79.09,0,0,1,28.57-23.81c13.6-6.91,27.75-9.68,40.16-8.77A79.16,79.16,0,0,0,919,948a81.52,81.52,0,0,0-25.07,19.37h0c-3.28,2.72-6.7,8-8.77,11.48.69.91,1.55,2.1,2.45,3.37-.16-.23-.3-.51-.47-.72.8-1.35,1.57-2.64,2.34-3.82,7,11.47,23.15,15.33,36.85,8.2,19.29-10.06,23.49-44.6,43.38-44.76C969.7,941.13,939.2,921.11,903.06,939.86Z" transform="translate(-103.62 -14.84)"/><path class="cls-1" d="M858.26,1016.08c6.64,1.56,13-1.1,15.42-6.16a40.46,40.46,0,0,1-34.86-9.49,39.22,39.22,0,0,0,16,8,39.87,39.87,0,0,0,14.95.86h0a23,23,0,0,0,6.64-1.33c0-.52.06-1.2.1-1.91,0,.13,0,.27,0,.39-.7.23-1.36.44-2,.62.86-6.09-3.9-12.32-11-14-10.05-2.35-21.89,8.37-29.22,2.41A33.56,33.56,0,0,0,858.26,1016.08Z" transform="translate(-103.62 -14.84)"/><path class="cls-2" d="M888,978.51c-5.42-16.36-12.85-23.26-13.63-24.23-3.65-4.58-9.09-3.92-12.19,1.48s-2.65,13.54,1,18.14c.26.34,15.9,13.11,12.81,54l.08,0a20.79,20.79,0,0,0,15.05.31l2.3-.84c.94-18.56-1-32.82-3.9-43.66-.53-2-1-3.85-1.46-5.29Z" transform="translate(-103.62 -14.84)"/><text class="cls-4" transform="translate(80.06 1020)">DiverSan</text></g><g id="Capa_2" data-name="Capa 2"><path d="M531.62,870.84A428.1,428.1,0,0,1,365,48.49,428.1,428.1,0,0,1,698.22,837.2,425.39,425.39,0,0,1,531.62,870.84Zm0-814.4c-213.07,0-386.41,173.34-386.41,386.4S318.55,829.25,531.62,829.25,918,655.91,918,442.84,744.68,56.44,531.62,56.44Z" transform="translate(-103.62 -14.84)"/></g><g id="Capa_3" data-name="Capa 3"><path class="cls-5" d="M633.87,617.6c15.18,8.5,42.33,15.94,64.66,15.94,47.19,0,75.32-26.92,75.32-66.62,0-36.22-24.33-58.25-59.57-81.46-35.47-21.54-84.9-58.07-84.9-108.7,0-59.28,47.67-102.92,119.24-102.92,27.94,0,52.22,7.8,63,14.37l-12.37,38.32c-11.5-7-30.42-13.38-53.68-13.38-44.11,0-65,29.12-65,56.1,0,38.83,23.38,54.35,66.24,80.58C801,483.33,825,519.34,825,562.73c0,67.76-54.63,110.11-126.19,110.11-30.82,0-63.18-8.78-76-17.15Z" transform="translate(-103.62 -14.84)"/><path class="cls-6" d="M523.46,662.27,416.12,410.34h56l89.13,206.73h3.08l80.79-206.73h59L595.59,662.27Z" transform="translate(-103.62 -14.84)"/><path class="cls-7" d="M260.62,273.59c19.61-5.42,43.75-7.75,69.63-7.75,47.66,0,81.63,10.43,106.5,30.22C472,323,498,374.94,498,458.75c0,91.84-25.26,141.77-54.45,169.54-29.32,29.42-73.05,43.18-125.09,43.18-21.1,0-42.94-1.31-57.83-3.93Zm51.47,358.28a127.92,127.92,0,0,0,19.8,1.19c57.12,0,112.47-36.51,112.47-173.07,0-101.12-35.08-156.69-108-156.69a134.74,134.74,0,0,0-24.25,2.2Z" transform="translate(-103.62 -14.84)"/></g></svg>