<?xml version="1.0" encoding="utf-8"?>
<!-- Generator: Adobe Illustrator 22.0.0, SVG Export Plug-In . SVG Version: 6.00 Build 0)  -->
<svg version="1.1" id="Layer_1" xmlns="http://www.w3.org/2000/svg" xmlns:xlink="http://www.w3.org/1999/xlink" x="0px" y="0px"
	 viewBox="0 0 141.7 141.7" style="enable-background:new 0 0 141.7 141.7;" xml:space="preserve">
<style type="text/css">
	.st0{fill:#D68B1B;}
	.st1{fill:#BBABA7;}
	.st2{fill:#FECC75;}
	.st3{fill:#E4A84F;}
</style>
<g>
	<path class="st0" d="M19.1,115c-0.7,12.3,15.5,10.9,24.3,10.9h23.9c9,0,25.8,2.9,36.9-0.6c9.4-1.1,17-4.7,17.3-14.6
		c0.4-9-6.9-48.9,0.5-57c15.9-23.2-20-36-47.3-36c-0.2,0-0.4,0-0.6,0c-1.9-0.1-3.9-0.2-5.7-0.2c-31.9,0-65.9,12.9-46.4,37
		C25.3,60.5,20.1,97.3,19.1,115z M29.4,52.3l-0.3-0.5l-0.4-0.4c-5.8-7.7-3.6-13.9-3-15.2c4.2-8,23.6-13.5,45.1-12.8
		c0.4,0,0.7,0,1.1,0.1c19,0.9,37.6,8.2,41.7,16.6c0.6,1.2,2.4,4.9-2.1,11.3c-6.2,7-5.6,24.4-4.2,46.3c0.4,5.4,0.7,10.4,0.5,12.6
		c-0.1,2-0.4,5.6-6.1,7.5c-2.8,1-7,1.5-13.2,1.3c-4.3-0.2-8.8-0.6-12.8-1.1c-3.4-0.4-6.6-0.7-9.3-0.8L43,116.3
		c-0.8,0-1.6-0.1-2.5-0.1c-0.9,0-1.9,0-2.9-0.1c-6.6-0.2-10.7-1.1-12.1-2.7c0,0-0.1-0.1-0.1-0.2c-0.2-0.3-0.6-1-0.4-2.4
		c0.5-4.8,1.3-11.3,2.2-18.2c0.1-0.5,0.1-1,0.2-1.5c0,0,0-0.1,0-0.1C30.7,66.9,31.9,57.3,29.4,52.3z"/>
	<g>
		<path class="st1" d="M104.3,125.3c9.4-1.1,17-4.7,17.3-14.6c0.4-9-6.9-48.9,0.5-57c15.9-23.2-20-36-47.3-36c-0.2,0-0.4,0-0.6,0
			c19.3,1.2,40.7,8.4,44.8,20.8c1.3,4,0.8,8.6-2.2,13.8c-0.2,0.4-0.5,0.8-0.8,1.3c-0.1,0.1-0.2,0.3-0.3,0.4c-3.6,4-3.7,15.3-3,27.1
			c0,0.1,0,0.1,0,0.2c0.8,12.7,2.7,25.8,2.5,30.6C115,119.4,110.5,123.4,104.3,125.3z"/>
	</g>
	<path class="st2" d="M25,110.9c-0.2,1.7,0.3,2.3,0.5,2.5c1.4,1.6,5.5,2.5,12.1,2.7c1,0,2,0.1,2.9,0.1c0.9,0,1.7,0,2.5,0.1l23.3,0.8
		c2.7,0.1,5.9,0.4,9.3,0.8c4,0.4,8.5,0.9,12.8,1.1c18.7,0.6,19.1-5.7,19.3-8.8c0.2-2.1-0.2-7.2-0.5-12.6
		c-1.5-21.9-2.1-39.3,4.2-46.3c4.5-6.3,2.7-10,2.1-11.3c-4.2-8.5-23.4-15.9-42.8-16.6c-21.5-0.7-40.8,4.7-45.1,12.8
		c-0.6,1.2-2.8,7.5,3,15.2l0.4,0.4l0.3,0.5c2.6,5.1,1.3,15-2.1,40.4C26.3,99.6,25.5,106.1,25,110.9z"/>
	<path class="st3" d="M68.8,50.5c0,2.3,1.9,4.2,4.2,4.2c2.3,0,4.2-1.9,4.2-4.2c0-2.3-1.9-4.2-4.2-4.2C70.6,46.3,68.8,48.2,68.8,50.5
		z"/>
	<path class="st3" d="M57.9,62.2c0,1.3,1.1,2.4,2.4,2.4c1.3,0,2.4-1.1,2.4-2.4c0-1.3-1.1-2.4-2.4-2.4C59,59.8,57.9,60.9,57.9,62.2z"
		/>
	<path class="st3" d="M55,82.9c0,1.6,1.3,2.9,2.9,2.9c1.6,0,2.9-1.3,2.9-2.9c0-1.6-1.3-2.9-2.9-2.9C56.3,80,55,81.3,55,82.9z"/>
	<path class="st3" d="M86.3,100.2c0,1.4,1.1,2.5,2.5,2.5c1.4,0,2.5-1.1,2.5-2.5c0-1.4-1.1-2.5-2.5-2.5
		C87.4,97.7,86.3,98.8,86.3,100.2z"/>
	<path class="st3" d="M79.3,57.2c0,0.8,0.6,1.4,1.4,1.4c0.8,0,1.4-0.6,1.4-1.4c0-0.8-0.6-1.4-1.4-1.4C79.9,55.8,79.3,56.4,79.3,57.2
		z"/>
	<path class="st3" d="M44.4,37.5c0,2.5,2.1,4.6,4.6,4.6c2.5,0,4.6-2,4.6-4.6c0-2.5-2-4.6-4.6-4.6C46.5,32.9,44.4,34.9,44.4,37.5z"/>
	<path class="st3" d="M40.6,55.8c0,1,0.8,1.8,1.8,1.8c1,0,1.8-0.8,1.8-1.8c0-1-0.8-1.8-1.8-1.8C41.3,54,40.6,54.8,40.6,55.8z"/>
	<path class="st3" d="M36.3,100.2c0,1.4,1.1,2.5,2.5,2.5c1.4,0,2.5-1.1,2.5-2.5c0-1.4-1.1-2.5-2.5-2.5
		C37.4,97.7,36.3,98.8,36.3,100.2z"/>
	<path class="st3" d="M93,42c0,1,0.8,1.8,1.8,1.8c1,0,1.8-0.8,1.8-1.8c0-1-0.8-1.8-1.8-1.8C93.8,40.3,93,41.1,93,42z"/>
	<path class="st3" d="M77.8,36c0,1.6,1.3,2.9,2.9,2.9s2.9-1.3,2.9-2.9c0-1.6-1.3-2.9-2.9-2.9S77.8,34.4,77.8,36z"/>
	<path class="st3" d="M93,62.2c0,1.9,1.6,3.5,3.5,3.5c1.9,0,3.5-1.6,3.5-3.5c0-1.9-1.6-3.5-3.5-3.5C94.6,58.7,93,60.3,93,62.2z"/>
	<path class="st3" d="M78.7,85.8c0,1.1,0.9,2,2,2c1.1,0,2-0.9,2-2s-0.9-2-2-2C79.6,83.8,78.7,84.7,78.7,85.8z"/>
	<path class="st3" d="M59.8,106.1c0,1.6,1.3,2.8,2.8,2.8c1.6,0,2.8-1.3,2.8-2.8c0-1.6-1.3-2.8-2.8-2.8
		C61.1,103.3,59.8,104.6,59.8,106.1z"/>
	<path class="st3" d="M93.7,112c0,0.8,0.7,1.5,1.5,1.5c0.8,0,1.5-0.7,1.5-1.5c0-0.8-0.7-1.5-1.5-1.5C94.4,110.5,93.7,111.2,93.7,112
		z"/>
</g>
</svg>
