<?xml version="1.0" encoding="utf-8"?>
<!-- Generator: Adobe Illustrator 22.0.0, SVG Export Plug-In . SVG Version: 6.00 Build 0)  -->
<svg version="1.1" id="Layer_1" xmlns="http://www.w3.org/2000/svg" xmlns:xlink="http://www.w3.org/1999/xlink" x="0px" y="0px"
	 viewBox="0 0 141.7 141.7" style="enable-background:new 0 0 141.7 141.7;" xml:space="preserve">
<style type="text/css">
	.st0{fill:#FECC75;}
	.st1{fill:#FDBB65;}
	.st2{fill:#E1A65A;}
	.st3{opacity:0.47;}
	.st4{fill:#D3B9AF;}
	.st5{opacity:0.57;}
	.st6{opacity:0.51;}
	.st7{opacity:0.75;}
	.st8{fill:#FEE391;}
	.st9{fill:#FECC67;}
	.st10{fill:#FEBB56;}
	.st11{fill:#E2A635;}
	.st12{opacity:0.59;}
	.st13{fill:#8F8984;}
</style>
<g>
	<g>
		<path class="st0" d="M77.7,80.2c-1.2,2.3-2.8,4.2-4.6,5.8c-5.5,4.8-13.4,6.8-20.5,7.1c-4.1,0.1-7.3-0.6-10-1.9h0
			C36,88,33.1,80.8,30,72.8c-2-4.6-8.3-15.5-8-22.9c0.1-2.4,0.9-4.9,2.8-6.2c11-7.7,38.7-14.8,52.2-6.1c4.1,2.6,6.8,6.7,7.5,12.6
			C85.4,60.2,82.4,71.5,77.7,80.2z"/>
		<path class="st1" d="M97.8,57.2c-0.3,7.4-1.3,14.7-5.2,20.2c-2,2.9-4.8,5.2-8.7,6.8C80.5,85.6,76.8,86,73,86
			c1.9-1.6,3.4-3.6,4.6-5.8c4.8-8.7,7.8-19.9,6.9-29.9c-0.7-5.9-3.5-9.9-7.5-12.6c5.6,0,10.7,0.3,15.8,3.2c2.7,1.5,4.1,3.6,4.7,5.9
			C98.4,50,98,53.7,97.8,57.2z"/>
		<path class="st2" d="M106.7,65.6c-1.1,4.3-3.2,8.4-7.4,10.4c-1.7,0.7-4.2,1-6.7,1.4c3.9-5.5,4.9-12.8,5.2-20.2
			c0.3-3.5,0.6-7.2-0.3-10.3c3.7,0.8,7.9,3.9,9.1,6.6C108.2,57,107.8,62,106.7,65.6z"/>
		<path class="st1" d="M42.5,91.3c-5.6,1.6-10.3,0.8-14.4-1.5c-5.5-3.1-9.9-8.8-13.7-14.8c-1.4-2.4-2.7-5.6-3.5-8.8
			c-0.6-2.8-0.8-5.6-0.2-8.1c1.2-3.8,7.1-6.8,11.2-8.1c-0.3,7.3,6.1,18.3,8,22.9C33.1,80.8,36,88,42.5,91.3z"/>
		<path class="st2" d="M28.1,89.7c-6.9,3.4-14.7,2-19.5-4.6c-4.8-7-6.3-15.4,2.4-19c0.7,3.2,2.1,6.4,3.5,8.8
			C18.2,80.9,22.6,86.7,28.1,89.7z"/>
		<g class="st3">
			<path class="st4" d="M77.7,80.2c-1.2,2.3-2.8,4.2-4.6,5.8c-5.5,4.8-13.4,6.8-20.5,7.1c-4.1,0.1-7.3-0.6-10-1.9h0
				C36,88,33.1,80.8,30,72.8c-1.3-3.1-4.6-9-6.6-14.8c-0.9-2.8-1.6-5.6-1.5-8c0.1-2.4,0.9-4.9,2.8-6.2c-1.2,8.8,3.4,21.5,6.8,26.8
				c2.5,3.7,5.9,7.4,9.8,9.8c3.6,2.5,7.4,1.6,11.4,0.7c6.9-1.6,14.7-3.5,20.9-7.4c6.4-4.2,6.6-14.7,6.6-21.7c0-5.8-1.2-11.5-5-15.4
				c0.6,0.3,1.1,0.6,1.7,1c4.1,2.6,6.8,6.7,7.5,12.6C85.4,60.2,82.4,71.5,77.7,80.2z"/>
		</g>
		<g class="st5">
			<path class="st4" d="M95.3,72.2c-0.1,0.2-0.2,0.5-0.3,0.7c-0.1,0.1-0.1,0.3-0.2,0.5c-0.1,0.2-0.1,0.3-0.2,0.5
				c-0.1,0.1-0.1,0.3-0.2,0.4c-0.1,0.3-0.2,0.5-0.4,0.8c-0.1,0.2-0.2,0.3-0.3,0.5c-0.2,0.4-0.4,0.7-0.6,1.1
				c-0.2,0.3-0.4,0.6-0.6,0.9c-2,2.9-4.8,5.2-8.7,6.8C80.5,85.6,76.8,86,73,86c1.9-1.6,3.4-3.6,4.6-5.8c4.8-8.7,7.8-19.9,6.9-29.9
				c-0.7-5.9-3.5-9.9-7.5-12.6c1.4,0,2.8,0,4.2,0.1c4.1,3.4,5,9.2,6,14.2c0.5,2.6,0.8,5.2,0.6,7.9c-0.1,2.7-1.1,7.3,0.1,9.9
				C89.3,72.6,92.7,73.1,95.3,72.2z"/>
		</g>
		<g class="st6">
			<path class="st4" d="M103.6,72.5c-1.1,1.5-2.5,2.7-4.3,3.6c-1.7,0.7-4.2,1-6.7,1.4c0.2-0.3,0.4-0.6,0.6-0.9
				c0.2-0.4,0.4-0.7,0.6-1.1c0.1-0.2,0.2-0.3,0.3-0.5c0.1-0.3,0.3-0.5,0.4-0.8c0.1-0.1,0.1-0.3,0.2-0.4c0.1-0.2,0.1-0.3,0.2-0.5
				c0.1-0.1,0.1-0.3,0.2-0.5c0.1-0.2,0.2-0.5,0.3-0.7c0.1-0.3,0.2-0.6,0.3-0.9c0.1-0.3,0.2-0.6,0.3-0.9c0.3-0.9,0.5-1.8,0.7-2.7
				c0.1-0.4,0.2-0.7,0.2-1.1c0.1-0.4,0.2-0.8,0.2-1.2c0.1-0.4,0.1-0.7,0.2-1.1c0-0.3,0.1-0.5,0.1-0.8c0-0.3,0.1-0.5,0.1-0.8
				c0.1-0.5,0.1-1,0.1-1.5c0-0.3,0.1-0.6,0.1-0.9c0-0.4,0.1-0.8,0.1-1.2c0-0.1,0-0.1,0-0.2c0-0.6,0.1-1.2,0.1-1.9
				c0.3-3.5,0.6-7.2-0.3-10.3c0.8,0.2,1.6,0.5,2.5,0.8c-1.7,2.9,0,9.2,0,12c0,2.5-0.2,4.9-0.5,7.3C99.2,69.6,101.2,71.6,103.6,72.5z
				"/>
		</g>
		<g class="st6">
			<path class="st4" d="M42.5,91.3c-5.6,1.6-10.4,0.8-14.4-1.5c-0.3-0.2-0.6-0.3-0.9-0.5c-0.2-0.1-0.5-0.3-0.7-0.5
				c-0.2-0.1-0.5-0.3-0.7-0.5c-0.5-0.4-1.1-0.8-1.6-1.2c-0.2-0.2-0.5-0.4-0.7-0.6c-0.2-0.2-0.4-0.4-0.7-0.6c0,0-0.1-0.1-0.1-0.1
				c-0.2-0.2-0.4-0.4-0.6-0.6c1.6,0.7,3.4,1,5.1,1c3.6,0,4.4-1.5,3.7-4.7c-0.7-2.8-1.7-5.6-2.6-8.4c-1.4-4.9-4.4-9.8-4.8-15
				c1.9,5.8,5.2,11.7,6.6,14.8C33.1,80.8,36,88,42.5,91.3z"/>
		</g>
		<g class="st6">
			<path class="st4" d="M28.1,89.7c-5.3,2.6-11.2,2.4-15.8-0.9c2.5,0.3,4.8-0.1,4.7-2.8c-0.1-1.9-1.6-3.6-2.4-5.3
				c-1.1-2.5-2.1-5.2-2.9-7.8C11,71,9.9,68.8,9.8,66.7c0.4-0.2,0.8-0.4,1.2-0.6c0.7,3.2,2.1,6.4,3.5,8.8c0.5,0.7,1,1.5,1.4,2.2
				c0.2,0.4,0.5,0.7,0.7,1.1c0.2,0.2,0.3,0.5,0.5,0.7c0.3,0.4,0.6,0.9,0.9,1.3c0.4,0.5,0.8,1,1.1,1.5c0.3,0.3,0.6,0.7,0.8,1
				c0.3,0.4,0.7,0.8,1,1.2c0.3,0.4,0.7,0.8,1.1,1.1c0.2,0.2,0.4,0.4,0.6,0.6c0,0,0.1,0.1,0.1,0.1c0.2,0.2,0.4,0.4,0.7,0.6
				c0.2,0.2,0.5,0.4,0.7,0.6c0.5,0.4,1,0.8,1.6,1.2c0.2,0.2,0.5,0.3,0.7,0.5c0.2,0.2,0.5,0.3,0.7,0.5C27.5,89.4,27.8,89.6,28.1,89.7
				z"/>
		</g>
		<g class="st7">
			<path class="st8" d="M34,48.6c3.3-0.9,6.3-2.4,9.3-4.1c3.2-1.7,7.9-1.9,11.4-2.3c1.2-0.1,8.3-0.2,5.7,1.9
				c-6,4.9-16.3,4.9-20.9,11.8C38.8,57,39,58,40.3,58.6C47,62,55.4,58.1,62.1,57c2.1-0.4,6-1.3,6.7-3.8c0.7-2.5-3.7-2.4-5-2.2
				c-2.7,0.5-5.4,1.2-8,1.8c-1.9,0.5-4.3,1.3-6.1,0.4c0.2,0.9,0.5,1.8,0.7,2.7c1.7-2.5,8.4-4.3,11.6-5.8c3.5-1.6,10.3-4.3,10.9-8.7
				c0.8-5.9-10-5.6-13.5-5.4c-4.5,0.3-9,1-13.4,2c-2.5,0.5-4.8,1.3-7.2,2.2c-2.1,0.8-4,2.5-6.2,3.1c-1.5,0.4-5.8,1.9-5.1,4.3
				C28,49.8,32.5,49,34,48.6L34,48.6z"/>
		</g>
	</g>
	<g>
		<path class="st9" d="M111.6,89.6c-1,1.9-2.3,3.6-3.9,4.9c-0.2,0.2-0.4,0.3-0.5,0.4c-4.6,3.7-10.9,5.3-16.7,5.6
			c-2.3,0.1-4.2-0.2-5.9-0.6c-0.3-0.1-0.5-0.2-0.8-0.3c-0.3-0.1-0.5-0.2-0.8-0.3c-0.2-0.1-0.3-0.1-0.5-0.2C82.3,99,82.2,99,82,98.9
			c-2.8-1.4-4.8-3.6-6.4-6.3c-1.6-2.7-2.9-5.9-4.2-9.3c-0.1-0.2-0.2-0.4-0.3-0.6c-0.1-0.3-0.3-0.6-0.5-1c-0.2-0.3-0.3-0.7-0.5-1.1
			c-0.2-0.3-0.3-0.7-0.5-1.1c-0.2-0.4-0.4-0.7-0.5-1.1c-0.2-0.4-0.4-0.8-0.6-1.2c-0.1-0.2-0.2-0.4-0.3-0.6c-0.2-0.4-0.4-0.8-0.6-1.3
			c-0.4-0.9-0.8-1.9-1.2-2.9c-0.1-0.3-0.2-0.5-0.3-0.8c-0.1-0.3-0.2-0.6-0.3-0.9c-0.2-0.6-0.4-1.1-0.5-1.6c-0.1-0.3-0.1-0.5-0.2-0.8
			c-0.1-0.2-0.1-0.4-0.1-0.6c-0.1-0.4-0.2-0.8-0.2-1.1c0-0.2-0.1-0.3-0.1-0.5c0-0.1,0-0.1,0-0.1c0,0,0-0.1,0-0.1c0,0,0,0,0,0
			c0,0,0-0.1,0-0.1c0-0.1,0-0.2,0-0.2c0-0.5-0.1-0.9,0-1.3c0.1-1.4,0.4-2.8,1.1-3.9c0.1-0.2,0.3-0.4,0.4-0.6
			c0.2-0.2,0.3-0.3,0.5-0.5c0,0,0.1-0.1,0.1-0.1c0,0,0.1-0.1,0.1-0.1v0c0,0,0,0,0,0c8.9-6.2,30.7-12,42.6-5.9l0,0
			c0.2,0.1,0.5,0.2,0.7,0.4c0.2,0.1,0.5,0.3,0.7,0.4c0.4,0.3,0.8,0.6,1.2,0.9c0.4,0.3,0.8,0.7,1.1,1c0.9,0.9,1.7,1.9,2.3,3
			c0,0.1,0.1,0.1,0.1,0.2c0,0.1,0.1,0.1,0.1,0.2c0.8,1.5,1.3,3.2,1.5,5.2C118.1,72.8,115.6,82.3,111.6,89.6z"/>
		<g class="st3">
			<path class="st4" d="M111.6,89.6c-1,1.9-2.3,3.6-3.9,4.9c-0.2,0.2-0.4,0.3-0.5,0.4c-4.6,3.7-10.9,5.3-16.7,5.6
				c-2.3,0.1-4.2-0.2-5.9-0.6c-0.3-0.1-0.5-0.2-0.8-0.3c-0.3-0.1-0.5-0.2-0.8-0.3c-0.1-0.1-0.3-0.1-0.4-0.2C82.3,99,82.2,99,82,98.9
				c-2.8-1.4-4.8-3.6-6.4-6.3c-1.6-2.7-2.9-5.9-4.2-9.3c-0.1-0.2-0.2-0.4-0.3-0.6c-0.1-0.3-0.3-0.6-0.5-1c-0.2-0.3-0.3-0.7-0.5-1.1
				c-0.2-0.3-0.3-0.7-0.5-1.1c-0.2-0.4-0.4-0.7-0.5-1.1c-0.2-0.4-0.4-0.8-0.6-1.2c-0.1-0.2-0.2-0.4-0.3-0.6
				c-0.2-0.4-0.4-0.8-0.6-1.3c-0.4-0.9-0.8-1.9-1.2-2.9c-0.1-0.3-0.2-0.5-0.3-0.8c-0.1-0.3-0.2-0.6-0.3-0.9
				c-0.2-0.6-0.4-1.1-0.5-1.6c-0.1-0.3-0.1-0.5-0.2-0.8c-0.1-0.2-0.1-0.4-0.1-0.6c-0.1-0.4-0.2-0.8-0.2-1.1c0-0.2-0.1-0.3-0.1-0.5
				c0-0.1,0-0.1,0-0.1c0,0,0-0.1,0-0.1v0c0,0,0-0.1,0-0.1c0-0.1,0-0.2,0-0.2c0-0.5-0.1-0.9,0-1.3c0.1-1.4,0.4-2.8,1.1-3.9
				c0.1-0.2,0.3-0.4,0.4-0.6c0.2-0.2,0.3-0.3,0.5-0.5c0,0,0.1-0.1,0.1-0.1c0,0,0.1-0.1,0.1-0.1v0c-1,7.4,2.9,18.1,5.7,22.6
				c2.1,3.2,5,6.2,8.3,8.3c3,2.1,6.2,1.3,9.6,0.6c5.8-1.3,12.4-2.9,17.6-6.2c5.3-3.5,5.6-12.4,5.6-18.2c0-4.9-1-9.6-4.2-12.9
				c0.2,0.1,0.5,0.2,0.7,0.4c0.2,0.1,0.5,0.3,0.7,0.4c0.4,0.3,0.8,0.6,1.2,0.9c0.4,0.3,0.8,0.7,1.1,1c0.9,0.9,1.7,1.9,2.3,3
				c0,0.1,0.1,0.1,0.1,0.2c0,0.1,0.1,0.1,0.1,0.2h0c0.8,1.5,1.3,3.2,1.5,5.2C118.1,72.8,115.6,82.3,111.6,89.6z"/>
		</g>
		<path class="st10" d="M128.1,71.4c-0.3,3.5-1.6,6.8-2.5,10.2c-0.7,3.5-2,7.8-5.1,10c-0.1,0.1-0.2,0.2-0.3,0.2h0
			c-2.3,1.6-5.4,2.5-8.2,3.1c-1.5,0.3-3.2,0.1-4.9,0c0.2-0.1,0.4-0.3,0.5-0.4c1.6-1.4,2.9-3,3.9-4.9c4-7.3,6.6-16.8,5.8-25.2
			c-0.2-2-0.7-3.7-1.5-5.2c3.1,0.3,6.2,1.1,8.9,2.8c1.9,1.1,2.8,3,3.2,5v0C128.2,68.4,128.2,70,128.1,71.4z"/>
		<path class="st11" d="M136,81.6c-1,3.3-3.5,7.9-6.6,9.4c-2.8,1.4-6,0.8-9.1,0.8c0.1-0.1,0.2-0.2,0.3-0.2c3-2.2,4.3-6.5,5.1-10
			c0.9-3.5,2.2-6.8,2.5-10.2c0.1-1.4,0.1-2.9-0.1-4.3c2.9,0.5,7.1,2.3,8.4,4.8C137.6,74.3,136.8,79.3,136,81.6z"/>
		<path class="st10" d="M82.9,99.3c-3.2,1.5-6.3,1.7-9.2,0.9c-4.4-1.1-8.3-4.5-11.7-9.1c-2.6-3.8-7-8.8-7.2-13.8v0
			c0-0.5,0-0.9,0-1.4c0.6-4.5,5.4-8.4,9.9-10.2c0,0,0,0,0,0c0,0,0,0.1,0,0.1c0,0,0,0.1,0,0.1c0,0.2,0,0.3,0.1,0.5
			c0.1,0.4,0.1,0.8,0.2,1.1c0,0.2,0.1,0.4,0.1,0.6c0.1,0.3,0.1,0.5,0.2,0.8c0.1,0.5,0.3,1.1,0.5,1.6c0.1,0.3,0.2,0.6,0.3,0.9
			c0.1,0.3,0.2,0.5,0.3,0.8c0.4,1,0.8,1.9,1.2,2.9c0.2,0.4,0.4,0.9,0.6,1.3c0.1,0.2,0.2,0.4,0.3,0.6c0.2,0.4,0.4,0.8,0.6,1.2
			c0.2,0.4,0.4,0.8,0.5,1.1c0.2,0.4,0.3,0.7,0.5,1.1c0.2,0.4,0.4,0.7,0.5,1.1c0.2,0.3,0.3,0.7,0.5,1c0.1,0.2,0.2,0.4,0.3,0.6
			c1.3,3.4,2.6,6.6,4.2,9.3c1.6,2.7,3.6,4.9,6.4,6.3c0.1,0.1,0.3,0.1,0.4,0.2c0.1,0,0.1,0.1,0.2,0.1C82.8,99.2,82.8,99.3,82.9,99.3z
			"/>
		<path class="st11" d="M73.7,100.2c-7.4,4-13.7,7.4-20.8-1.1c-3.5-4.1-6.1-7.7-4.1-12.9c1.1-3.3,3.1-6.9,6-8.9
			c0.2,5,4.6,10,7.2,13.8C65.4,95.8,69.4,99.1,73.7,100.2z"/>
		<g class="st5">
			<path class="st4" d="M124.6,85.4c-0.8,2.4-2.1,4.8-4,6.2c-0.1,0.1-0.2,0.2-0.3,0.2h0c-2.3,1.6-5.4,2.5-8.2,3.1
				c-1.5,0.3-3.2,0.1-4.9,0c0.2-0.1,0.4-0.3,0.5-0.4c1.6-1.4,2.9-3,3.9-4.9c4-7.3,6.6-16.8,5.8-25.2c-0.2-2-0.7-3.7-1.5-5.2
				c0.6,0.1,1.3,0.1,1.9,0.2c1.2,5.1,3.1,9.3,2.3,15c-0.3,2.2-1.9,5.9-0.9,8.1C120.4,84.9,122.5,85.5,124.6,85.4z"/>
		</g>
		<g class="st5">
			<path class="st4" d="M136,81.8c-1,3.3-3.5,7.8-6.6,9.2c-2.8,1.4-6,0.8-9.1,0.8c0.1-0.1,0.2-0.2,0.3-0.2c2-1.4,3.2-3.8,4-6.2
				c0.4-1.3,0.8-2.6,1-3.8c0.9-3.5,2.2-6.8,2.5-10.2c0.1-1.4,0.1-2.9-0.1-4.3c0.9,0.2,1.9,0.4,2.8,0.8h0c0.5,3-0.2,6-0.1,8.9
				C130.9,80.3,133.1,81.6,136,81.8z"/>
		</g>
		<g class="st5">
			<path class="st4" d="M82.9,99.3c-3.2,1.5-6.3,1.7-9.2,0.9c-2.8-0.7-5.4-2.3-7.8-4.6c2.4,0.4,4.6-1.9,4.7-4.5
				c0.1-3-1.2-6.1-2.5-8.7C66,78.3,61.4,72.2,62.4,67c0.8-0.4,1.6-0.8,2.4-1.2c0,0,0,0,0,0c0,0,0,0.1,0,0.1c0,0,0,0.1,0,0.1
				c0,0.2,0,0.3,0.1,0.5c0.1,0.4,0.1,0.8,0.2,1.1c0,0.2,0.1,0.4,0.1,0.6c0.1,0.3,0.1,0.5,0.2,0.8c0.1,0.5,0.3,1.1,0.5,1.6
				c0.1,0.3,0.2,0.6,0.3,0.9c0.1,0.3,0.2,0.5,0.3,0.8c0.4,1,0.8,1.9,1.2,2.9c0.2,0.4,0.4,0.9,0.6,1.3c0.1,0.2,0.2,0.4,0.3,0.6
				c0.2,0.4,0.4,0.8,0.6,1.2c0.2,0.4,0.4,0.8,0.5,1.1c0.2,0.4,0.3,0.7,0.5,1.1c0.2,0.4,0.4,0.7,0.5,1.1c0.2,0.3,0.3,0.7,0.5,1
				c0.1,0.2,0.2,0.4,0.3,0.6c1.3,3.4,2.6,6.6,4.2,9.3c1.6,2.7,3.6,4.9,6.4,6.3c0.1,0.1,0.3,0.1,0.4,0.2c0.1,0,0.1,0.1,0.2,0.1
				C82.8,99.2,82.8,99.3,82.9,99.3z"/>
		</g>
		<g class="st5">
			<path class="st4" d="M73.7,100.2c-5.1,2.8-9.7,5.2-14.4,3.7c1.6-0.7,2.9-1.9,3.2-3.4c0.4-2.3-1.7-4.6-3-6.2
				c-3.2-4.1-6.8-9.3-7.1-14.7c0.7-0.9,1.5-1.6,2.4-2.2c0.2,5,4.6,10,7.2,13.8C65.4,95.8,69.4,99.1,73.7,100.2z"/>
		</g>
		<g>
			<path class="st8" d="M76.7,63.4c6.7-0.6,13.5-3.9,20.1-2.6c-0.5-0.9-1-1.7-1.5-2.6c-2.6,3.5-22.7,9.3-19.1,15.6
				c2.2,3.9,9.4,2.4,12.9,1.7c2.8-0.5,5.5-1.2,8.3-2c1.3-0.3,2.6-0.7,3.9-1c0.7-0.2,2-0.4,1-0.3c2.3-0.1,5.2-0.7,6.6-2.7
				c1.4-1.9-1.2-2.8-2.7-2.7c-3.8,0.2-7.4,1.3-11,2.3c-1,0.3-8.5,2.8-9.2,1.6c-0.5-0.9,16.8-10.1,18.5-12.5c1-1.4-0.2-2.4-1.5-2.6
				c-8.6-1.6-16.4,1.9-24.9,2.6c-1.8,0.2-5.2,1.2-5.7,3.3C71.8,63.7,75.6,63.5,76.7,63.4L76.7,63.4z"/>
		</g>
	</g>
	<g class="st12">
		<path class="st13" d="M69.4,57.5c-0.8,0.5-1.6,1-2.3,1.4c0,0,0,0,0,0c0,0-0.1,0-0.1,0.1c0,0-0.1,0-0.1,0.1c-0.1,0-0.1,0.1-0.1,0.1
			c-0.2,0.1-0.4,0.3-0.5,0.5c-0.2,0.2-0.3,0.4-0.4,0.6c-0.7,1.1-1.1,2.5-1.1,3.9c0,0.4,0,0.9,0,1.3c0,0.1,0,0.2,0,0.2
			c0,0,0,0.1,0,0.1c-0.8,0.3-1.6,0.7-2.4,1.2c-3.7,2-7,5.3-7.5,9c-0.1,0.5-0.1,0.9,0,1.4v0c-0.4,0.3-0.8,0.6-1.1,0.9
			c-0.1,0.1-0.2,0.2-0.3,0.3c-0.2,0.1-0.3,0.3-0.4,0.4c-0.2,0.2-0.4,0.4-0.5,0.6c0,0,0,0,0,0.1c-0.5,0.6-1,1.2-1.4,1.9
			c-1,1.5-1.7,3.2-2.2,4.7c-1,2.6-0.8,4.7,0,6.7c-2.4-0.3-4.5-0.9-6.3-1.8h0c-2.4,0.7-4.7,1-6.8,0.8c0,0,0-0.1,0.1-0.1
			c0.7-1,2.5-1,3.2-1.9c0.2-0.2,0.4-0.5,0.5-0.8c0.7-1.5,0.3-3.3,0.8-5c0.3-1.3,1-2.4,1.8-3.4c0.6-0.8,1.3-1.4,2-2
			c1.3-1,3.3-1.6,4.3-2.5c1.3-1.3,1.2-3.5,2.5-4.9c1.3-1.7,3.6-3,4.8-4.8c1-1.4,0.7-3.3,1.6-4.8c0.9-1.4,2.7-2.5,4.3-3
			C63.9,58.1,66.8,58,69.4,57.5z"/>
	</g>
</g>
</svg>
