<?xml version="1.0" encoding="utf-8"?>
<!-- Generator: Adobe Illustrator 22.0.0, SVG Export Plug-In . SVG Version: 6.00 Build 0)  -->
<svg version="1.1" id="Layer_1" xmlns="http://www.w3.org/2000/svg" xmlns:xlink="http://www.w3.org/1999/xlink" x="0px" y="0px"
	 viewBox="0 0 141.7 141.7" style="enable-background:new 0 0 141.7 141.7;" xml:space="preserve">
<style type="text/css">
	.st0{fill:#BC732E;}
	.st1{fill:#E7913C;}
	.st2{fill:#FCBD4C;}
	.st3{fill:#D13D35;}
	.st4{fill:#FFEBBC;}
	.st5{fill:#99AF17;}
	.st6{fill:#FBDA97;}
	.st7{fill:#A81E1B;}
	.st8{fill:#D36E13;}
</style>
<g>
	<path class="st0" d="M69.6,23.6l-54.3,87.9c-1.5,2.4,1.1,6,3.8,5.3l100.1-25.7c1.7-0.4,2.5-2.3,1.7-4.1
		c-5.3-12.9-25.6-58.8-48.4-64.5C71.4,22.2,70.2,22.6,69.6,23.6z"/>
	<path class="st1" d="M114.6,88.4c-7.9-25.1-23.2-46.8-44.1-62.6c-3.4-2.6-4-7.5-1.2-11.2l0,0c2.8-3.7,8.5-4.5,12.3-1.6
		c23.2,17.6,40.1,41.6,48.8,69.4c1.4,4.6-1.3,9.6-5.7,11l0,0C120.3,94.7,115.9,92.5,114.6,88.4z"/>
	<path class="st2" d="M82.8,40.4c-9.2-5.5-11.5,0.8-17.6-1.2c-6.1-2-13.9,2.5-16.2,10.4s4.3,10.6-2.1,17.1s-15.6,1.6-15.8,11.7
		c-0.2,10.1,3.2,20.2-2.7,22.8c-6,2.6-14.7-0.1-13.3,5.7c1.5,5.8,9,1,7.4,5.3c-1.7,4.3-12.8,8.5-5.5,10.7
		c7.3,2.2,11.4-7.5,18.7-10.6s10.5,1.5,20.3-5.4s6.4-10.2,17.2-10.5c10.8-0.3,18.1,3.5,24.9-1.8c6.7-5.3,13.8-7.1,7.9-17
		c-5.9-9.9-15.1-11.8-15.1-17C90.7,55.2,90,44.7,82.8,40.4z"/>
	<path class="st3" d="M77.6,49.3c-7.3-8.1-20.3,3.8-12.4,12.9C73.2,71.2,87.1,59.8,77.6,49.3z"/>
	<path class="st3" d="M77.1,85.7c-2.6-9.1-17.7-5.8-14,4.6C66.8,100.8,79.2,93.1,77.1,85.7z"/>
	<path class="st3" d="M47.8,84.9c-5.6-6.8-18,1.2-10.3,8.3C45.1,100.4,51.3,89.2,47.8,84.9z"/>
	<path class="st4" d="M86.1,76.2L82,77.1l1.7,6.1l3.5-2.5c0,0,2,9.6,7.3,5.9c5.2-3.7-0.1-6.8-0.5-9.6c-0.4-2.8-0.6-9-5.2-8.9
		C84.1,68.2,86.1,76.2,86.1,76.2z"/>
	<path class="st4" d="M53,70.8l-4.2,4.5l5.7,4.4l2.1-5.2c0,0,5.1,2.7,7.6-1.1c2.5-3.9-4-3.5-5.9-4.7c-1.9-1.3-3.1-8.8-6.4-5.4
		C48.5,66.6,53,70.8,53,70.8z"/>
	<polygon class="st5" points="56.4,91.9 49.8,99.7 54.3,102.3 59.3,94.6 	"/>
	<polygon class="st5" points="71.8,73.8 70.3,70.1 78.2,67.2 80,70.6 	"/>
	<polygon class="st5" points="59.4,56.9 58.2,46.2 54.8,48.1 56,57.2 	"/>
	<path class="st5" d="M39.3,103.4c0.7,1,0.7,4.7,0.7,4.7l-10.4,0l0.1-4.3L39.3,103.4z"/>
	<path class="st6" d="M104.7,81.7c0,0-0.1-0.1-0.1-0.1c-0.6-0.8-1.5-1.3-2.6-1.2c-0.9,0.1-2,0.7-2.4,1.7c0,0,0,0.1,0,0.1
		c-0.3,1-0.4,2,0.3,2.9c0.6,0.8,1.6,1.3,2.7,1.2C104.7,86.2,106.2,83.5,104.7,81.7z"/>
	<path class="st6" d="M86.8,92.8c0.4-1,0.3-1.9-0.3-2.8c-0.6-0.9-1.6-1.4-2.7-1.5c-1.5-0.2-3.2,0.8-3.4,2.4
		c-0.2,1.5,0.8,3.2,2.4,3.4c0.4,0.2,0.8,0.3,1.3,0.2c0.1,0,0.2,0,0.4,0C85.4,94.5,86.4,93.6,86.8,92.8z"/>
	<path class="st6" d="M89,64.2c0.9-1.2,1-3.3-0.3-4.3c-0.4-1-1.6-1.7-2.6-1.6c-0.6,0.1-1.1,0.3-1.6,0.7c-0.3,0.1-0.5,0.2-0.5,0.3
		c0.2-0.1,0.4-0.2,0.4-0.2c0,0,0,0,0,0c-0.1,0-0.2,0.1-0.6,0.3c-0.2,0.1-0.4,0.3-0.5,0.5c-0.5,0.6-0.6,1.4-0.5,2.1
		c0.1,0.6,0.3,1.1,0.6,1.5c0.4,1,1.1,1.6,2.2,1.9C86.8,65.8,88.2,65.2,89,64.2z"/>
	<path class="st6" d="M59.5,86c0.1-1.4-0.9-2.6-2.2-2.9c-0.7-0.4-1.7-0.7-2.5-0.3c-0.9,0.5-1.9,1.2-1.9,2.3
		c-0.1,1.4,0.4,2.5,1.7,3.2c0.7,0.4,1.5,0.5,2.3,0.4C58.3,88.7,59.4,87.3,59.5,86z"/>
	<path class="st6" d="M42.3,74.3c-0.4-0.4-0.9-0.7-1.5-0.8c-0.3-0.1-1.7-0.1-0.5,0c-1.4-0.1-2.7,0.5-3.1,1.9
		c-0.4,1.4,0.3,2.6,1.5,3.3c1.1,0.6,2.5,0.5,3.5-0.3C43.6,77.3,43.5,75.6,42.3,74.3z"/>
	<path class="st6" d="M68.3,43.8c0.2-1-0.4-2.1-1.3-2.5c-0.6-0.2-1.3-0.2-1.9,0c-1.4,0.2-2.2,1.7-1.9,2.9c0.3,1.3,1.9,2.5,3.2,1.8
		C67.4,45.6,68,45,68.3,43.8z"/>
	<path class="st7" d="M76.7,57.3c-0.3-1.3-1.5-2.8-3-2.9c-0.4,0-0.8-0.1-1.2,0c0,0,0,0-0.1,0c-0.2-0.1-0.6-0.1-0.8-0.2
		c0,0,0,0-0.1,0c-0.3-0.1-0.6-0.2-0.9-0.3c-0.3-0.1-0.6-0.2-0.9-0.3c-0.1,0-0.7-0.1-0.3,0c-1.4-0.4-2.9,0.1-3.2,1.7
		c-0.4,2.2,0.5,4,2.3,5.3c0.9,0.6,1.8,1.1,2.9,1.2c1.4,0.2,2.5,0,3.8-0.7C76.5,60.5,77,58.6,76.7,57.3z"/>
	<path class="st7" d="M74.5,90.6c0.3-0.7,0.4-1.8,0.1-2.6c-0.7-1.7-2.6-2.7-4.3-2.1c0,0-0.1,0-0.2,0.1c-0.2,0-0.5,0.1-0.7,0.1
		c0.5-0.1,0,0-0.1,0c0,0,0,0,0,0c-0.2,0-0.4,0-0.7,0c-0.2,0-0.2,0-0.1,0c-0.4,0-0.7,0-1.2,0.2c-0.6,0.2-1.3,0.8-1.6,1.4
		c-0.3,0.7-0.3,1.3-0.1,2.1c0.3,1.2,1.6,2.2,2.7,2.6c1.4,0.5,2.9,0.6,4.3-0.1C73.4,91.9,74.1,91.5,74.5,90.6z"/>
	<path class="st7" d="M47.1,87.9c-0.7-1.3-1.9-1.7-3.3-1.5c0,0,0,0-0.1,0c-0.1,0-0.2,0-0.4,0c-0.3,0-0.6,0-0.9,0.1
		c-0.3,0-0.5,0-0.8,0c-0.9,0.1-1.7,0.5-2.3,1.2c-0.6,0.7-0.9,2-0.5,2.9c0.6,1.1,1.3,1.9,2.5,2.1C42,93,42.6,93,43.2,93
		c1.1,0,2.2-0.6,3.1-1.3C47.4,90.8,47.8,89.3,47.1,87.9z"/>
	<path class="st7" d="M75,50.8c-0.1-1-0.7-1.6-1.5-2.1c-0.1,0-0.1-0.1-0.2-0.1c-1.5-0.9-3.8,0.7-3.4,2.4c0,0.1,0,0.1,0,0.2
		c0.2,0.9,0.6,1.7,1.5,2.1c0.8,0.4,1.8,0.3,2.5-0.2C74.7,52.6,75.1,51.7,75,50.8z"/>
	<path class="st8" d="M130.4,82.3c-8.7-27.8-25.6-51.8-48.8-69.4c-2.6-2-6.1-2.2-8.9-1c2.1,1.6,4.1,4.1,5.1,5.4
		c-0.8,2.4-0.7,5,1.2,7.9c2,3,5.6,4.4,9.1,4.7c1.7,0.2,3.6-0.1,5.3-0.2c1.7,1.7,3.3,3.5,4.9,5.3c0,4.2,0.1,7.6,2.2,11.7
		c2.4,4.8,5.8,6.1,10.6,7.7c3.5,1.2,3.1,1.5,2.3,4.4c-0.5,1.8-0.9,3.8-0.7,5.7c0.4,3.9,2.6,6.8,5.9,8.7c1.1,0.6,3.5,1.2,5,2.1
		c0.5,0.6,0.9,1.2,1.4,1.8c-0.2,1.3-1.6,3.6-1.8,4.6c-0.6,2.3-0.4,4.5,0.5,6.7c0.7,1.5,1.7,2.9,3,4
		C129.8,90.5,131.7,86.2,130.4,82.3z"/>
</g>
</svg>
