<?xml version="1.0" encoding="utf-8"?>
<!-- Generator: Adobe Illustrator 22.0.0, SVG Export Plug-In . SVG Version: 6.00 Build 0)  -->
<svg version="1.1" id="Layer_1" xmlns="http://www.w3.org/2000/svg" xmlns:xlink="http://www.w3.org/1999/xlink" x="0px" y="0px"
	 viewBox="0 0 141.7 141.7" style="enable-background:new 0 0 141.7 141.7;" xml:space="preserve">
<style type="text/css">
	.st0{fill:#AAAAAA;}
	.st1{fill:#CE7229;}
	.st2{fill:#B54726;}
</style>
<g>
	<path class="st0" d="M91.3,36.8c4.8-1.3,9.3-4.6,13.9-6.6c-6.2-0.5-1.8-10.3,2.8-10.8c7.1-0.7,8,6.7,3.1,10.3
		c3.6-0.3,9.5,4,7.1,8.1c-2.1,3.6-9.5,1.6-10.7-1.8c-7.1,1.4-17.7,3.6-23.1,9.1L91.3,36.8z"/>
	<path class="st1" d="M42.2,49.6c3-11,13.5-18.8,23.9-22.7c8.4-3.2,17.5,0.4,25.2,4.3c4.1,2.1,6.2,4.6,6.9,9.3
		c-3.9,1.7-4.6,9.4-6.8,12.9c-5.9,9.2-16.7,10.8-26.8,8.6L42.2,49.6z"/>
	<path class="st2" d="M82.3,36.5c4.7,1.5,11.4,8.5,10,14.1c-1.8,6.9-14.8,2.3-19.5,1.7c-4.1-0.6-8.3-0.9-12.5-1.1
		C57.1,51,51.5,53,49,50.5c-3-3.1,0.9-8.5,3.8-10.2C60.7,35.8,73.7,33.6,82.3,36.5z"/>
	<path class="st1" d="M10.7,62.9c3.7-6.1,8.9-11.6,13.7-13.1c4.4-1.4,9.2-1.5,13.7-3c19.2-6.3,47.1-14.6,59.7,10
		c4.9,9.5,9,28.1,2.3,37.7c-5.1,7.3-12.7,13.7-20.2,17.5c-6.3,3.2-15.3,1-22.1,0.7c-11.9-0.6-30.3-1.5-40.6-9.4
		c-7.8-6-13.7-16.5-11.8-27.5C6,71.9,8,67.3,10.7,62.9z"/>
	<path class="st2" d="M74,83.3c0-11.1,15.8-37.8,27.6-22.5C89.7,66.2,82.7,74.7,74,83.8V83.3z"/>
	<path class="st2" d="M15.3,80.3C8.8,72.7,23.9,62.9,29,60.5c2.9-1.4,10.5-4.7,6.4,1.5c-2.7,4-5.7,8.2-8.8,11.9
		C24.4,76.4,18.2,83.7,15.3,80.3z"/>
	<path class="st2" d="M7.6,86.4c7,8.2,8.9,8.9,18,12.4c3.9,1.5,7.8,4.5,12,5.1c8,1,19.4-4.7,24.9-10.2c3.1-3.1,5-7.2,8.1-10.3
		c0.5,7,0.9,9.6,4.9,15.2c2.9,4.2,6.2,7.5,9.3,11.5c-5.6,6.3-16.9,5.1-24.4,4.2c-9.8-1.2-18.4-1.8-28.1-3.7c-2.2-0.4-7.4-3-8.7-1.9
		C19,104.5,0.7,91.4,6.3,83.7c3.8,2.2,4,6.8,7.5,8.8L7.6,86.4z"/>
	<path class="st0" d="M112.4,61.8c5-1.2,9-5.7,13.9-6.6c-4.1-3-4.1-9.3,1.1-11.4c5-2,8.3,4.4,4.6,7.9c3.9,0.2,10.1,4.4,7.4,8.8
		c-2.5,4-8.6,1.6-10.8-1.6c-4.7,4.3-12.8,6.1-18.4,9.5L112.4,61.8z"/>
	<path class="st1" d="M110.9,57c11.8,0.9,8.3,19.7,6.9,26.7c-2,9.8-6.7,17.9-14.4,24.3c-6.2,5.1-17.4,8.8-25.1,4.4
		c-9.5-5.6-11-24-8.6-33.5c2.8-10.6,14.2-16.7,24-19.6C99.3,57.8,105.1,56.6,110.9,57z"/>
</g>
</svg>
