<?xml version="1.0" encoding="utf-8"?>
<!-- Generator: Adobe Illustrator 22.0.0, SVG Export Plug-In . SVG Version: 6.00 Build 0)  -->
<svg version="1.1" id="Layer_1" xmlns="http://www.w3.org/2000/svg" xmlns:xlink="http://www.w3.org/1999/xlink" x="0px" y="0px"
	 viewBox="0 0 141.7 141.7" style="enable-background:new 0 0 141.7 141.7;" xml:space="preserve">
<style type="text/css">
	.st0{fill:#E88873;}
	.st1{fill:#F0A291;}
	.st2{fill:#FFFFFF;}
</style>
<g>
	<path class="st0" d="M39.8,52.1C60.3,40,87,20.8,112.3,27.9c16.8,4.7,30.9,19.3,13.8,32.9c-17,13.6-39.1,26.2-58.6,36
		c-15.1,7.6-47.9,16.1-60.2-0.7C-7.2,76.4,27.3,59.5,39.8,52.1z"/>
	<path class="st1" d="M67.4,39.7c9.4-4.9,19.4-8.2,30-8.8c6.1-0.4,21.2,1.6,24,8c1.8,4-2.1,11.7-4.1,15
		c-5.9,9.5-17.1,14.7-26.8,19.5c-16.2,8-37,21.5-55.5,22.4C21.8,96.6,8.7,86.5,16.9,73C26.8,56.8,51.4,48.1,67.4,39.7z"/>
	<path class="st2" d="M9,84.2c5.8-5.4,12.5-10.3,20-13.3c-6.4,4.2-15.9,8.1-20.9,13.7L9,84.2z"/>
	<path class="st2" d="M121.8,36.6c-3.2-3.6-15.1,5.9-17.9,7.7C108.7,41.4,116.2,36.9,121.8,36.6L121.8,36.6z"/>
	<path class="st2" d="M41.5,89.1c0.9-3.1,5.5-5.9,8.2-7.2c2.7-1.4,7.5-3.5,10.5-3.3c-6.5,3-13,6.7-19,10.7L41.5,89.1z"/>
	<path class="st2" d="M64.6,46.6c4.5-3.4,12.6-6.4,18.2-6.5c-4.5,2.2-9.4,3.7-14,5.9c-2.9,1.4-5.2,3-8.3,3.5L64.6,46.6z"/>
	<path class="st2" d="M98.9,60.6c0.1-0.3,0.6-0.1,0.2-0.4c-3.4-0.6-7.3,3.2-9.8,5.1c1.6-1.2,4.2-2.2,6-3.3c2-1.2,4.6-1.6,6.9-1.9
		L98.9,60.6z"/>
	<path class="st2" d="M50.3,62.4c-1.8-1.7-5.6,2.6-6.5,4c2-1.7,4.2-2.9,6.8-3.9L50.3,62.4z"/>
	<path class="st2" d="M16.7,95.1c-0.2-3.6,6-5,8.1-4.7c-2.5-0.1-6.6,3.2-8.4,4.9L16.7,95.1z"/>
	<path class="st0" d="M68.6,70.5c2.4-0.9,4.7-2,7-3.1c1.2-0.6,0.3-2.6-0.9-1.9c-2.3,1.2-4.6,2.2-7,3.2C66.5,69.1,67.4,71,68.6,70.5
		L68.6,70.5z"/>
	<path class="st0" d="M92.8,36.6C92.8,36.6,93,36.5,92.8,36.6c-0.1,0.1-0.3,0.2-0.4,0.2c-0.3,0.2-0.7,0.4-1,0.6
		c-0.8,0.4-1.5,0.9-2.4,1.3c-1.2,0.6-0.4,2.5,0.9,1.9c0.9-0.4,1.8-0.9,2.7-1.4c0.6-0.3,1.6-0.7,1.9-1.3
		C95.2,36.7,93.5,35.5,92.8,36.6L92.8,36.6z"/>
	<path class="st0" d="M63.2,51.4c-1,0.3-1.8,0.8-2.7,1.4c-0.5,0.3-0.5,1.1-0.2,1.5c0.4,0.5,1,0.5,1.5,0.2c0.5-0.4,1.1-0.8,1.7-1
		c0.6-0.1,1-0.6,0.9-1.2C64.3,51.7,63.7,51.3,63.2,51.4L63.2,51.4z"/>
	<path class="st0" d="M45.4,54.7c-2,0.3-3.3,1.9-4.6,3.2c-1,0.9,0.3,2.6,1.3,1.6c1-1,2.1-2.5,3.6-2.7C47.1,56.6,46.7,54.5,45.4,54.7
		L45.4,54.7z"/>
	<path class="st0" d="M19,73.2c0.1,0,0.2-0.1,0.3-0.1c0.5-0.2,0.8-0.9,0.5-1.4c-0.2-0.5-0.9-0.8-1.4-0.5c-0.1,0-0.2,0.1-0.3,0.1
		c-0.5,0.2-0.8,0.9-0.5,1.4C17.8,73.2,18.4,73.4,19,73.2L19,73.2z"/>
	<path class="st0" d="M14.5,80c0.7-0.5,1.5-0.8,2.3-1.2c1.2-0.6,0.4-2.5-0.9-1.9c-0.9,0.4-1.9,0.9-2.7,1.5c-0.5,0.3-0.5,1.1-0.2,1.5
		C13.4,80.4,14.1,80.4,14.5,80L14.5,80z"/>
	<path class="st0" d="M18.8,84c-1.2,0.7-2.5,1.5-3.6,2.4c-1.1,0.8,0.3,2.5,1.3,1.6c1-0.8,2-1.5,3.1-2.1c0.5-0.3,0.8-0.8,0.5-1.4
		C20,84.1,19.3,83.7,18.8,84L18.8,84z"/>
	<path class="st0" d="M38.4,77c1.8-1,3.4-2.5,5.4-3c1.3-0.4,1-2.5-0.4-2.1c-2.2,0.6-4,2.1-6,3.2C36.3,75.7,37.2,77.6,38.4,77
		L38.4,77z"/>
	<path class="st0" d="M28.3,97.7c1.8-0.9,3.4-2.1,5.2-3.1c1.2-0.7,0.3-2.6-0.9-1.9c-1.7,1-3.3,2.2-5.2,3.1
		C26.2,96.4,27,98.3,28.3,97.7L28.3,97.7z"/>
	<path class="st0" d="M48.9,84.1c-0.1,0-0.1,0.1-0.2,0.1c-0.1,0.1-0.2,0.1-0.3,0.2c0.1-0.1,0.1-0.1,0,0c-0.1,0-0.2,0.1-0.2,0.1
		c-0.1,0-0.1,0,0,0c-0.1,0-0.1,0-0.2,0c-0.6,0.1-1,0.7-0.9,1.2c0.1,0.6,0.6,0.9,1.2,0.9c0.3,0,0.6-0.2,0.9-0.3
		c0.2-0.1,0.3-0.2,0.5-0.3c-0.2,0.1,0.1,0,0.1,0c0.5-0.3,0.8-0.9,0.5-1.4C50.1,84.1,49.4,83.8,48.9,84.1L48.9,84.1z"/>
	<path class="st0" d="M91.5,49.5c-2.9,1.3-5.7,2.9-8.6,4.3c-1.2,0.6-0.4,2.5,0.9,1.9C86.7,54.3,92.8,48.9,91.5,49.5L91.5,49.5z"/>
	<path class="st0" d="M116,32.4c-1.1,0.3-2.3,0.8-3.5,0.8c-0.6,0-1.1,0.3-1.1,1c0,0.5,0.4,1.2,1,1.1c1.4-0.1,2.7-0.4,4.1-0.8
		c0.6-0.2,1-0.6,0.9-1.2C117.1,32.8,116.6,32.3,116,32.4L116,32.4z"/>
	<path class="st0" d="M123.9,43.4c-1.1,0.3-2.3,0.7-3.4,1c-0.6,0.2-1,0.6-0.9,1.2c0.1,0.5,0.7,1,1.2,0.9c1.1-0.3,2.3-0.7,3.4-1
		c0.6-0.2,1-0.6,0.9-1.2C125,43.8,124.5,43.3,123.9,43.4L123.9,43.4z"/>
	<path class="st0" d="M90.6,70.2c-1.8,1.2-3.7,2.2-5.7,2.9c-1.3,0.5-0.4,2.4,0.9,1.9c2.2-0.8,4.2-1.9,6.1-3.2
		C93.1,71.1,91.7,69.4,90.6,70.2L90.6,70.2z"/>
</g>
</svg>
