<svg xmlns="http://www.w3.org/2000/svg" viewBox="0 0 1062.71 131.83"><defs><style>.cls-1{fill:#cde1e8;}.cls-2{fill:#c19326;}.cls-3{fill:#9dd5e9;stroke:#7c7c7c;stroke-miterlimit:10;}.cls-4{fill:#3f5ffc;}.cls-5{fill:#abb9ed;}.cls-6{fill:#607eea;}</style></defs><title>Agua</title><g id="Capa_3" data-name="Capa 3"><rect class="cls-1" x="11.25" y="22.51" width="1041.81" height="109.33"/><rect class="cls-2" width="1062.71" height="28.94" rx="9" ry="9"/></g><g id="Capa_4" data-name="Capa 4"><path class="cls-3" d="M116.44,88.76V84H98.76v4.79a10,10,0,0,0-8.84,9.95v50.7a10,10,0,0,0,10,10h15.33a10,10,0,0,0,10-10V98.71A10,10,0,0,0,116.44,88.76Z" transform="translate(-24 -43.78)"/><rect class="cls-4" x="74.32" y="35.48" width="18.57" height="8.25"/><rect class="cls-5" x="65.92" y="67.31" width="35.37" height="20.63"/><path class="cls-6" d="M110.55,122.8c0,2.51-1.58,4.54-3.54,4.54s-3.53-2-3.53-4.54,3.7-7.92,3.7-7.92S110.55,120.28,110.55,122.8Z" transform="translate(-24 -43.78)"/><path class="cls-3" d="M263.79,86.46v-4.8H246.11v4.8a10,10,0,0,0-8.84,9.94v50.7a10,10,0,0,0,10,10h15.33a10,10,0,0,0,10-10V96.4A10,10,0,0,0,263.79,86.46Z" transform="translate(-24 -43.78)"/><rect class="cls-4" x="221.67" y="33.17" width="18.57" height="8.25"/><rect class="cls-5" x="213.27" y="65" width="35.37" height="20.63"/><path class="cls-6" d="M257.9,120.49c0,2.51-1.58,4.55-3.54,4.55s-3.53-2-3.53-4.55,3.7-7.92,3.7-7.92S257.9,118,257.9,120.49Z" transform="translate(-24 -43.78)"/><path class="cls-3" d="M408.41,90.75V86H390.72v4.79a10,10,0,0,0-8.84,10v50.69a10,10,0,0,0,10,10h15.33a10,10,0,0,0,10-10V100.7A10,10,0,0,0,408.41,90.75Z" transform="translate(-24 -43.78)"/><rect class="cls-4" x="366.28" y="37.46" width="18.57" height="8.25"/><rect class="cls-5" x="357.88" y="69.3" width="35.37" height="20.63"/><path class="cls-6" d="M402.51,124.78c0,2.51-1.58,4.55-3.53,4.55s-3.54-2-3.54-4.55,3.71-7.91,3.71-7.91S402.51,122.27,402.51,124.78Z" transform="translate(-24 -43.78)"/><path class="cls-3" d="M575.32,90V85.19H557.64V90a10,10,0,0,0-8.84,10v50.69a10,10,0,0,0,10,10h15.32a10,10,0,0,0,10-10V99.93A10,10,0,0,0,575.32,90Z" transform="translate(-24 -43.78)"/><rect class="cls-4" x="533.2" y="36.69" width="18.57" height="8.25"/><rect class="cls-5" x="524.8" y="68.53" width="35.37" height="20.63"/><path class="cls-6" d="M569.43,124c0,2.51-1.59,4.55-3.54,4.55s-3.54-2-3.54-4.55,3.71-7.91,3.71-7.91S569.43,121.5,569.43,124Z" transform="translate(-24 -43.78)"/><path class="cls-3" d="M751.59,93V88.19H733.9V93a10,10,0,0,0-8.84,10v50.69a10,10,0,0,0,10,10h15.33a10,10,0,0,0,10-10V102.93A10,10,0,0,0,751.59,93Z" transform="translate(-24 -43.78)"/><rect class="cls-4" x="709.46" y="39.69" width="18.57" height="8.25"/><rect class="cls-5" x="701.06" y="71.53" width="35.37" height="20.63"/><path class="cls-6" d="M745.69,127c0,2.51-1.58,4.55-3.53,4.55s-3.54-2-3.54-4.55,3.7-7.91,3.7-7.91S745.69,124.5,745.69,127Z" transform="translate(-24 -43.78)"/><path class="cls-3" d="M877.28,94V89.19H859.6V94a10,10,0,0,0-8.84,10v50.69a10,10,0,0,0,10,10h15.33a10,10,0,0,0,10-10V103.93A10,10,0,0,0,877.28,94Z" transform="translate(-24 -43.78)"/><rect class="cls-4" x="835.16" y="40.69" width="18.57" height="8.25"/><rect class="cls-5" x="826.76" y="72.53" width="35.37" height="20.63"/><path class="cls-6" d="M871.39,128c0,2.51-1.58,4.55-3.54,4.55s-3.53-2-3.53-4.55,3.7-7.91,3.7-7.91S871.39,125.5,871.39,128Z" transform="translate(-24 -43.78)"/><path class="cls-3" d="M1005.51,94.37V89.58H987.83v4.79a10,10,0,0,0-8.85,9.95V155a10,10,0,0,0,10,10h15.33a10,10,0,0,0,10-10v-50.7A10,10,0,0,0,1005.51,94.37Z" transform="translate(-24 -43.78)"/><rect class="cls-4" x="963.38" y="41.09" width="18.57" height="8.25"/><rect class="cls-5" x="954.98" y="72.92" width="35.37" height="20.63"/><path class="cls-6" d="M999.62,128.4c0,2.52-1.59,4.55-3.54,4.55s-3.54-2-3.54-4.55,3.71-7.91,3.71-7.91S999.62,125.89,999.62,128.4Z" transform="translate(-24 -43.78)"/></g></svg>