<svg xmlns="http://www.w3.org/2000/svg" viewBox="0 0 881.27 115.57"><defs><style>.cls-1{isolation:isolate;}.cls-2{fill:#a3c734;}.cls-3{fill:#ead96d;}.cls-4{fill:#ff2120;}.cls-5{fill:#ff5252;}.cls-25,.cls-5{opacity:0.6;}.cls-18,.cls-24,.cls-5{mix-blend-mode:screen;}.cls-6{fill:#ef1414;opacity:0.8;}.cls-11,.cls-15,.cls-21,.cls-25,.cls-6,.cls-8{mix-blend-mode:multiply;}.cls-7,.cls-8{fill:#63b320;}.cls-11,.cls-18,.cls-21,.cls-8{opacity:0.7;}.cls-9{fill:#3f2901;}.cls-10,.cls-11{fill:#fce9ad;}.cls-12,.cls-21{fill:#c2ca27;}.cls-13,.cls-15{fill:#553709;}.cls-14{fill:#7f5318;}.cls-15{opacity:0.5;}.cls-16,.cls-24,.cls-25{fill:#ff8700;}.cls-17,.cls-18{fill:#009245;}.cls-19{fill:#492101;}.cls-20{fill:#dddd45;}.cls-22{fill:#66ae24;}.cls-23{fill:#695201;}.cls-26{fill:#609340;}.cls-27{fill:#522d1b;}.cls-28{fill:#d0442e;}.cls-29{fill:#c73c27;}.cls-30{fill:#fff6d5;}.cls-31{fill:#edd692;}.cls-32{fill:#51250c;}.cls-33{fill:#584b29;}.cls-34{fill:#c4965a;}.cls-35{fill:#9b734b;}.cls-36{fill:#cae0df;}.cls-37{fill:#fff;}.cls-38{fill:#e3e3e3;}</style></defs><title>Frutas</title><g class="cls-1"><g id="Capa_3" data-name="Capa 3"><rect class="cls-2" x="9.33" y="24.91" width="863.94" height="90.66"/><rect class="cls-3" y="6.24" width="881.27" height="24" rx="7.46" ry="7.46"/></g><g id="Capa_5" data-name="Capa 5"><g id="_Grupo_" data-name="&lt;Grupo&gt;"><g id="_Grupo_2" data-name="&lt;Grupo&gt;"><path id="_Trazado_" data-name="&lt;Trazado&gt;" class="cls-4" d="M191.68,96.7c-.16.41-6,14.81-19.09,23-13.26,8.28-29,7-29,7l.22-3.86,2.5-45.33L188.12,95.2Z" transform="translate(-114.72 -31.09)"/><path class="cls-5" d="M169,89.74A102.21,102.21,0,0,1,154,83a1.25,1.25,0,0,0-1.26,2.16,106.8,106.8,0,0,0,15.52,7C169.81,92.7,170.47,90.29,169,89.74Z" transform="translate(-114.72 -31.09)"/><path class="cls-5" d="M172.56,91.59a1.25,1.25,0,0,0,0,2.5A1.25,1.25,0,0,0,172.56,91.59Z" transform="translate(-114.72 -31.09)"/><path class="cls-6" d="M146.77,83.28c-.17-1-.4-2-.62-3.07l-2.36,42.65-.22,3.86a55.63,55.63,0,0,0,18.29-2.28,54.65,54.65,0,0,1-11.28-22.38C149.05,95.88,147.92,89.54,146.77,83.28Z" transform="translate(-114.72 -31.09)"/><path id="_Trazado_2" data-name="&lt;Trazado&gt;" class="cls-7" d="M191.68,96.7h0c-.16.41-6,14.81-19.09,23-13.26,8.28-29,7-29,7l.22-3.86c5,0,16.4-.88,26.36-7.1s15.73-16.05,18-20.56Z" transform="translate(-114.72 -31.09)"/><path class="cls-8" d="M143.79,122.86l-.22,3.86a55.63,55.63,0,0,0,18.29-2.28q-1.55-1.81-2.91-3.77A57.1,57.1,0,0,1,143.79,122.86Z" transform="translate(-114.72 -31.09)"/><g id="_Grupo_3" data-name="&lt;Grupo&gt;"><g id="_Grupo_4" data-name="&lt;Grupo&gt;"><path id="_Trazado_3" data-name="&lt;Trazado&gt;" class="cls-9" d="M159.13,103.32s-.13,5.65,2.55,4.08C164.27,105.68,159.13,103.32,159.13,103.32Z" transform="translate(-114.72 -31.09)"/></g></g><g id="_Grupo_5" data-name="&lt;Grupo&gt;"><g id="_Grupo_6" data-name="&lt;Grupo&gt;"><path id="_Trazado_4" data-name="&lt;Trazado&gt;" class="cls-9" d="M150.6,105.83s-.88,5.59,2,4.39C155.39,108.86,150.6,105.83,150.6,105.83Z" transform="translate(-114.72 -31.09)"/></g></g><g id="_Grupo_7" data-name="&lt;Grupo&gt;"><g id="_Grupo_8" data-name="&lt;Grupo&gt;"><path id="_Trazado_5" data-name="&lt;Trazado&gt;" class="cls-9" d="M167.61,90.72s1.32,5.51,3.51,3.3S167.61,90.72,167.61,90.72Z" transform="translate(-114.72 -31.09)"/></g></g><g id="_Grupo_9" data-name="&lt;Grupo&gt;"><g id="_Grupo_10" data-name="&lt;Grupo&gt;"><path id="_Trazado_6" data-name="&lt;Trazado&gt;" class="cls-9" d="M154.64,86.63s.43,5.65,2.94,3.81S154.64,86.63,154.64,86.63Z" transform="translate(-114.72 -31.09)"/></g></g><g id="_Grupo_11" data-name="&lt;Grupo&gt;"><g id="_Grupo_12" data-name="&lt;Grupo&gt;"><path id="_Trazado_7" data-name="&lt;Trazado&gt;" class="cls-9" d="M167.64,99.12s1.32,5.5,3.51,3.3S167.64,99.12,167.64,99.12Z" transform="translate(-114.72 -31.09)"/></g></g><g id="_Grupo_13" data-name="&lt;Grupo&gt;"><g id="_Grupo_14" data-name="&lt;Grupo&gt;"><path id="_Trazado_8" data-name="&lt;Trazado&gt;" class="cls-9" d="M152.82,97.47s-.69,5.61,2.13,4.32C157.7,100.33,152.82,97.47,152.82,97.47Z" transform="translate(-114.72 -31.09)"/></g></g></g></g><g id="_Grupo_15" data-name="&lt;Grupo&gt;"><g id="_Grupo_16" data-name="&lt;Grupo&gt;"><path id="_Trazado_9" data-name="&lt;Trazado&gt;" class="cls-10" d="M268.72,100c-3.59-8.4,5.2-21.76-6.93-26.2s-14.05,11.44-22.21,15.53c-14.55,7.3-22,28.63,2.73,37.68C266.39,135.81,275.12,115,268.72,100Z" transform="translate(-114.72 -31.09)"/><path class="cls-11" d="M268.72,100c-2-4.75-.1-11.1-.24-16.52a25.76,25.76,0,0,0-3.87,6.75A26.18,26.18,0,0,0,263,96.85c-.31,3,.22,6-1,8.61a8.51,8.51,0,0,1,.25,1.47,12.17,12.17,0,0,1-.86,5.53c-1.81,4.53-6.2,7.43-11.09,5.82a4.66,4.66,0,0,1-2.76-2.22,4.46,4.46,0,0,1-4.42,1,11.39,11.39,0,0,1-7.67-11.39,15.32,15.32,0,0,1,.46-3.07c-1.36-3.7-.62-8.06,1.11-11.87-12.82,8.34-18,27.72,5.23,36.24C266.39,135.81,275.12,115,268.72,100Z" transform="translate(-114.72 -31.09)"/><path id="_Trazado_compuesto_" data-name="&lt;Trazado compuesto&gt;" class="cls-12" d="M269.5,99.65c-1.25-2.91-.88-6.67-.52-10.31.53-5.33,1.12-11.29-3.84-14.79A13.06,13.06,0,0,0,262.08,73c-6.33-2.32-10.18.63-13.25,4.46-.91,1.15-1.76,2.38-2.57,3.57-.62.9-1.25,1.81-1.91,2.68a15.28,15.28,0,0,1-5.15,4.86c-8.62,4.33-14.32,13-13.86,21.2.28,4.83,2.61,9.1,6.76,12.55A33.21,33.21,0,0,0,242,127.8c10.14,3.71,18.74,2.57,24.21-3.2C271.88,118.63,273.23,108.38,269.5,99.65Zm-26.9,26.56a30.75,30.75,0,0,1-9.87-5.6,15.6,15.6,0,0,1-5.7-11c-.43-7.5,4.89-15.55,12.92-19.58A18,18,0,0,0,246,84.31c.56-.77,1.1-1.55,1.63-2.33,1-1.39,1.89-2.74,2.85-3.91,2.75-3.35,5.83-5.38,11-3.49a11.05,11.05,0,0,1,3,1.62c3.77,2.93,3.29,7.66,2.76,13a51.33,51.33,0,0,0-.35,5.77,14.23,14.23,0,0,0,1,5.39c3.47,8.11,2.25,17.61-2.95,23.1C260,128.68,252.06,129.67,242.6,126.21Z" transform="translate(-114.72 -31.09)"/><path id="_Trazado_10" data-name="&lt;Trazado&gt;" class="cls-13" d="M260.86,113.47c-2.23,6.1-9.45,9.07-16.13,6.62s-10.27-9.37-8-15.47,9.45-9.07,16.13-6.63S263.1,107.36,260.86,113.47Z" transform="translate(-114.72 -31.09)"/><path class="cls-14" d="M251.29,99.42c-3.24-.93-7.57-.75-10.22,1.61-1.4,1.24.66,3.29,2.05,2a8.24,8.24,0,0,1,3.67-1.25,8,8,0,0,1,3.72.39A1.45,1.45,0,0,0,251.29,99.42Z" transform="translate(-114.72 -31.09)"/><path class="cls-14" d="M255.25,101.41a1.45,1.45,0,0,0,0,2.9A1.45,1.45,0,0,0,255.25,101.41Z" transform="translate(-114.72 -31.09)"/><path class="cls-15" d="M238.05,102.07a10.9,10.9,0,0,0-1.35,2.55c-2.24,6.1,1.36,13,8,15.47s13.9-.52,16.13-6.62a11.19,11.19,0,0,0-.54-8.81C256.23,114.56,236.86,113.13,238.05,102.07Z" transform="translate(-114.72 -31.09)"/></g></g><g id="_Grupo_17" data-name="&lt;Grupo&gt;"><g id="_Grupo_18" data-name="&lt;Grupo&gt;"><path id="_Trazado_11" data-name="&lt;Trazado&gt;" class="cls-4" d="M351.33,101.92c.06.12.12.24.17.37s.18.43.27.67a26.55,26.55,0,0,1,1.41,6.9,3,3,0,0,0,0,.31c.45,6.07-.58,12.94-3.7,15.36-4.8,3.71-18.48,0-23.32-4.14-3.25-2.77-9.4-9.81-.66-19a32.72,32.72,0,0,1,3.54-3.16l.08-.06.51-.38a31.44,31.44,0,0,1,3.09-2.07c6.09-3.55,10.45-2.92,13.49-1l0,0,.44.31,0,0A15.55,15.55,0,0,1,351.33,101.92Z" transform="translate(-114.72 -31.09)"/><path class="cls-6" d="M353.26,111.28c-4.36,4.24-9.2,7.54-15.95,5.77-6.34-1.67-10.64-6.68-13.85-12.11-5.56,7.91-.23,13.93,2.72,16.45,4.84,4.15,18.52,7.85,23.32,4.14C352.43,123.26,353.51,117.06,353.26,111.28Z" transform="translate(-114.72 -31.09)"/><g id="_Grupo_19" data-name="&lt;Grupo&gt;"><g id="_Grupo_20" data-name="&lt;Grupo&gt;"><path id="_Trazado_12" data-name="&lt;Trazado&gt;" class="cls-16" d="M349.12,121.84s.2,2.63,1.37,1.78S349.12,121.84,349.12,121.84Z" transform="translate(-114.72 -31.09)"/></g><g id="_Grupo_21" data-name="&lt;Grupo&gt;"><path id="_Trazado_13" data-name="&lt;Trazado&gt;" class="cls-16" d="M346.5,123.87s.21,2.62,1.38,1.77S346.5,123.87,346.5,123.87Z" transform="translate(-114.72 -31.09)"/></g><g id="_Grupo_22" data-name="&lt;Grupo&gt;"><path id="_Trazado_14" data-name="&lt;Trazado&gt;" class="cls-16" d="M350.44,115.94s.2,2.63,1.37,1.77S350.44,115.94,350.44,115.94Z" transform="translate(-114.72 -31.09)"/></g><g id="_Grupo_23" data-name="&lt;Grupo&gt;"><path id="_Trazado_15" data-name="&lt;Trazado&gt;" class="cls-16" d="M347.82,118s.21,2.62,1.38,1.77S347.82,118,347.82,118Z" transform="translate(-114.72 -31.09)"/></g><g id="_Grupo_24" data-name="&lt;Grupo&gt;"><path id="_Trazado_16" data-name="&lt;Trazado&gt;" class="cls-16" d="M345.21,120s.2,2.63,1.37,1.77S345.21,120,345.21,120Z" transform="translate(-114.72 -31.09)"/></g><g id="_Grupo_25" data-name="&lt;Grupo&gt;"><path id="_Trazado_17" data-name="&lt;Trazado&gt;" class="cls-16" d="M342.59,122s.21,2.62,1.38,1.77S342.59,122,342.59,122Z" transform="translate(-114.72 -31.09)"/></g><g id="_Grupo_26" data-name="&lt;Grupo&gt;"><path id="_Trazado_18" data-name="&lt;Trazado&gt;" class="cls-16" d="M340,124s.2,2.63,1.37,1.77S340,124,340,124Z" transform="translate(-114.72 -31.09)"/></g><g id="_Grupo_27" data-name="&lt;Grupo&gt;"><path id="_Trazado_19" data-name="&lt;Trazado&gt;" class="cls-16" d="M349.63,111.69s.2,2.63,1.37,1.77S349.63,111.69,349.63,111.69Z" transform="translate(-114.72 -31.09)"/></g><g id="_Grupo_28" data-name="&lt;Grupo&gt;"><path id="_Trazado_20" data-name="&lt;Trazado&gt;" class="cls-16" d="M347,113.72s.21,2.62,1.37,1.77S347,113.72,347,113.72Z" transform="translate(-114.72 -31.09)"/></g><g id="_Grupo_29" data-name="&lt;Grupo&gt;"><path id="_Trazado_21" data-name="&lt;Trazado&gt;" class="cls-16" d="M344.4,115.74s.2,2.63,1.37,1.77S344.4,115.74,344.4,115.74Z" transform="translate(-114.72 -31.09)"/></g><g id="_Grupo_30" data-name="&lt;Grupo&gt;"><path id="_Trazado_22" data-name="&lt;Trazado&gt;" class="cls-16" d="M341.78,117.76s.2,2.63,1.37,1.78S341.78,117.76,341.78,117.76Z" transform="translate(-114.72 -31.09)"/></g><g id="_Grupo_31" data-name="&lt;Grupo&gt;"><path id="_Trazado_23" data-name="&lt;Trazado&gt;" class="cls-16" d="M339.17,119.79s.2,2.63,1.37,1.77S339.17,119.79,339.17,119.79Z" transform="translate(-114.72 -31.09)"/></g><g id="_Grupo_32" data-name="&lt;Grupo&gt;"><path id="_Trazado_24" data-name="&lt;Trazado&gt;" class="cls-16" d="M336.55,121.81s.2,2.63,1.37,1.78S336.55,121.81,336.55,121.81Z" transform="translate(-114.72 -31.09)"/></g><g id="_Grupo_33" data-name="&lt;Grupo&gt;"><path id="_Trazado_25" data-name="&lt;Trazado&gt;" class="cls-16" d="M334,122.84s.2,2.63,1.37,1.77S334,122.84,334,122.84Z" transform="translate(-114.72 -31.09)"/></g><g id="_Grupo_34" data-name="&lt;Grupo&gt;"><path id="_Trazado_26" data-name="&lt;Trazado&gt;" class="cls-16" d="M351,105.79s.2,2.63,1.37,1.77S351,105.79,351,105.79Z" transform="translate(-114.72 -31.09)"/></g><g id="_Grupo_35" data-name="&lt;Grupo&gt;"><path id="_Trazado_27" data-name="&lt;Trazado&gt;" class="cls-16" d="M353.18,109.86a.47.47,0,0,1,0,.31.69.69,0,0,1-.27.38c-1.17.86-1.37-1.77-1.37-1.77S352.93,109.25,353.18,109.86Z" transform="translate(-114.72 -31.09)"/></g><g id="_Grupo_36" data-name="&lt;Grupo&gt;"><path id="_Trazado_28" data-name="&lt;Trazado&gt;" class="cls-16" d="M348.33,107.81s.2,2.63,1.37,1.78S348.33,107.81,348.33,107.81Z" transform="translate(-114.72 -31.09)"/></g><g id="_Grupo_37" data-name="&lt;Grupo&gt;"><path id="_Trazado_29" data-name="&lt;Trazado&gt;" class="cls-16" d="M345.72,109.84s.2,2.63,1.37,1.77S345.72,109.84,345.72,109.84Z" transform="translate(-114.72 -31.09)"/></g><g id="_Grupo_38" data-name="&lt;Grupo&gt;"><path id="_Trazado_30" data-name="&lt;Trazado&gt;" class="cls-16" d="M343.1,111.86s.2,2.63,1.37,1.78S343.1,111.86,343.1,111.86Z" transform="translate(-114.72 -31.09)"/></g><g id="_Grupo_39" data-name="&lt;Grupo&gt;"><path id="_Trazado_31" data-name="&lt;Trazado&gt;" class="cls-16" d="M340.48,113.89s.21,2.62,1.38,1.77S340.48,113.89,340.48,113.89Z" transform="translate(-114.72 -31.09)"/></g><g id="_Grupo_40" data-name="&lt;Grupo&gt;"><path id="_Trazado_32" data-name="&lt;Trazado&gt;" class="cls-16" d="M337.87,115.91s.2,2.63,1.37,1.78S337.87,115.91,337.87,115.91Z" transform="translate(-114.72 -31.09)"/></g><g id="_Grupo_41" data-name="&lt;Grupo&gt;"><path id="_Trazado_33" data-name="&lt;Trazado&gt;" class="cls-16" d="M335.25,117.94s.21,2.62,1.38,1.77S335.25,117.94,335.25,117.94Z" transform="translate(-114.72 -31.09)"/></g><g id="_Grupo_42" data-name="&lt;Grupo&gt;"><path id="_Trazado_34" data-name="&lt;Trazado&gt;" class="cls-16" d="M332.64,120s.2,2.63,1.37,1.77S332.64,120,332.64,120Z" transform="translate(-114.72 -31.09)"/></g><g id="_Grupo_43" data-name="&lt;Grupo&gt;"><path id="_Trazado_35" data-name="&lt;Trazado&gt;" class="cls-16" d="M330,122s.2,2.62,1.37,1.77S330,122,330,122Z" transform="translate(-114.72 -31.09)"/></g><g id="_Grupo_44" data-name="&lt;Grupo&gt;"><path id="_Trazado_36" data-name="&lt;Trazado&gt;" class="cls-16" d="M351.77,103a.77.77,0,0,1-.26.35c-1.17.85-1.37-1.77-1.37-1.77a4.65,4.65,0,0,1,1.36.75A.65.65,0,0,1,351.77,103Z" transform="translate(-114.72 -31.09)"/></g><g id="_Grupo_45" data-name="&lt;Grupo&gt;"><path id="_Trazado_37" data-name="&lt;Trazado&gt;" class="cls-16" d="M347.52,103.56s.2,2.63,1.37,1.78S347.52,103.56,347.52,103.56Z" transform="translate(-114.72 -31.09)"/></g><g id="_Grupo_46" data-name="&lt;Grupo&gt;"><path id="_Trazado_38" data-name="&lt;Trazado&gt;" class="cls-16" d="M344.9,105.59s.21,2.62,1.38,1.77S344.9,105.59,344.9,105.59Z" transform="translate(-114.72 -31.09)"/></g><g id="_Grupo_47" data-name="&lt;Grupo&gt;"><path id="_Trazado_39" data-name="&lt;Trazado&gt;" class="cls-16" d="M342.29,107.61s.2,2.63,1.37,1.78S342.29,107.61,342.29,107.61Z" transform="translate(-114.72 -31.09)"/></g><g id="_Grupo_48" data-name="&lt;Grupo&gt;"><path id="_Trazado_40" data-name="&lt;Trazado&gt;" class="cls-16" d="M339.67,109.64s.21,2.62,1.37,1.77S339.67,109.64,339.67,109.64Z" transform="translate(-114.72 -31.09)"/></g><g id="_Grupo_49" data-name="&lt;Grupo&gt;"><path id="_Trazado_41" data-name="&lt;Trazado&gt;" class="cls-16" d="M337.06,111.66s.2,2.63,1.37,1.77S337.06,111.66,337.06,111.66Z" transform="translate(-114.72 -31.09)"/></g><g id="_Grupo_50" data-name="&lt;Grupo&gt;"><path id="_Trazado_42" data-name="&lt;Trazado&gt;" class="cls-16" d="M334.44,113.69s.2,2.62,1.37,1.77S334.44,113.69,334.44,113.69Z" transform="translate(-114.72 -31.09)"/></g><g id="_Grupo_51" data-name="&lt;Grupo&gt;"><path id="_Trazado_43" data-name="&lt;Trazado&gt;" class="cls-16" d="M331.83,115.71s.2,2.63,1.37,1.77S331.83,115.71,331.83,115.71Z" transform="translate(-114.72 -31.09)"/></g><g id="_Grupo_52" data-name="&lt;Grupo&gt;"><path id="_Trazado_44" data-name="&lt;Trazado&gt;" class="cls-16" d="M329.21,117.73s.2,2.63,1.37,1.78S329.21,117.73,329.21,117.73Z" transform="translate(-114.72 -31.09)"/></g><g id="_Grupo_53" data-name="&lt;Grupo&gt;"><path id="_Trazado_45" data-name="&lt;Trazado&gt;" class="cls-16" d="M326.59,119.76s.21,2.63,1.38,1.77S326.59,119.76,326.59,119.76Z" transform="translate(-114.72 -31.09)"/></g><g id="_Grupo_54" data-name="&lt;Grupo&gt;"><path id="_Trazado_46" data-name="&lt;Trazado&gt;" class="cls-16" d="M346.22,99.69s.21,2.62,1.38,1.77S346.22,99.69,346.22,99.69Z" transform="translate(-114.72 -31.09)"/></g><g id="_Grupo_55" data-name="&lt;Grupo&gt;"><path id="_Trazado_47" data-name="&lt;Trazado&gt;" class="cls-16" d="M343.61,101.71s.2,2.63,1.37,1.77S343.61,101.71,343.61,101.71Z" transform="translate(-114.72 -31.09)"/></g><g id="_Grupo_56" data-name="&lt;Grupo&gt;"><path id="_Trazado_48" data-name="&lt;Trazado&gt;" class="cls-16" d="M341,103.74s.21,2.62,1.37,1.77S341,103.74,341,103.74Z" transform="translate(-114.72 -31.09)"/></g><g id="_Grupo_57" data-name="&lt;Grupo&gt;"><path id="_Trazado_49" data-name="&lt;Trazado&gt;" class="cls-16" d="M338.38,105.76s.2,2.63,1.37,1.77S338.38,105.76,338.38,105.76Z" transform="translate(-114.72 -31.09)"/></g><g id="_Grupo_58" data-name="&lt;Grupo&gt;"><path id="_Trazado_50" data-name="&lt;Trazado&gt;" class="cls-16" d="M335.76,107.78s.2,2.63,1.37,1.78S335.76,107.78,335.76,107.78Z" transform="translate(-114.72 -31.09)"/></g><g id="_Grupo_59" data-name="&lt;Grupo&gt;"><path id="_Trazado_51" data-name="&lt;Trazado&gt;" class="cls-16" d="M333.15,109.81s.2,2.63,1.37,1.77S333.15,109.81,333.15,109.81Z" transform="translate(-114.72 -31.09)"/></g><g id="_Grupo_60" data-name="&lt;Grupo&gt;"><path id="_Trazado_52" data-name="&lt;Trazado&gt;" class="cls-16" d="M330.53,111.83s.2,2.63,1.37,1.78S330.53,111.83,330.53,111.83Z" transform="translate(-114.72 -31.09)"/></g><g id="_Grupo_61" data-name="&lt;Grupo&gt;"><path id="_Trazado_53" data-name="&lt;Trazado&gt;" class="cls-16" d="M327.91,113.86s.21,2.62,1.38,1.77S327.91,113.86,327.91,113.86Z" transform="translate(-114.72 -31.09)"/></g><g id="_Grupo_62" data-name="&lt;Grupo&gt;"><path id="_Trazado_54" data-name="&lt;Trazado&gt;" class="cls-16" d="M325.3,115.88s.2,2.63,1.37,1.78S325.3,115.88,325.3,115.88Z" transform="translate(-114.72 -31.09)"/></g><g id="_Grupo_63" data-name="&lt;Grupo&gt;"><path id="_Trazado_55" data-name="&lt;Trazado&gt;" class="cls-16" d="M346.79,97.21c-1.17.85-1.38-1.77-1.38-1.77a6.21,6.21,0,0,1,.82.36l0,0a3.8,3.8,0,0,1,.44.31l0,0C347.09,96.46,347.25,96.83,346.79,97.21Z" transform="translate(-114.72 -31.09)"/></g><g id="_Grupo_64" data-name="&lt;Grupo&gt;"><path id="_Trazado_56" data-name="&lt;Trazado&gt;" class="cls-16" d="M342.8,97.46s.2,2.63,1.37,1.77S342.8,97.46,342.8,97.46Z" transform="translate(-114.72 -31.09)"/></g><g id="_Grupo_65" data-name="&lt;Grupo&gt;"><path id="_Trazado_57" data-name="&lt;Trazado&gt;" class="cls-16" d="M340.18,99.48s.2,2.63,1.37,1.78S340.18,99.48,340.18,99.48Z" transform="translate(-114.72 -31.09)"/></g><g id="_Grupo_66" data-name="&lt;Grupo&gt;"><path id="_Trazado_58" data-name="&lt;Trazado&gt;" class="cls-16" d="M337.56,101.51s.21,2.63,1.38,1.77S337.56,101.51,337.56,101.51Z" transform="translate(-114.72 -31.09)"/></g><g id="_Grupo_67" data-name="&lt;Grupo&gt;"><path id="_Trazado_59" data-name="&lt;Trazado&gt;" class="cls-16" d="M335,103.53s.2,2.63,1.37,1.78S335,103.53,335,103.53Z" transform="translate(-114.72 -31.09)"/></g><g id="_Grupo_68" data-name="&lt;Grupo&gt;"><path id="_Trazado_60" data-name="&lt;Trazado&gt;" class="cls-16" d="M332.33,105.56s.21,2.62,1.38,1.77S332.33,105.56,332.33,105.56Z" transform="translate(-114.72 -31.09)"/></g><g id="_Grupo_69" data-name="&lt;Grupo&gt;"><path id="_Trazado_61" data-name="&lt;Trazado&gt;" class="cls-16" d="M329.72,107.58s.2,2.63,1.37,1.78S329.72,107.58,329.72,107.58Z" transform="translate(-114.72 -31.09)"/></g><g id="_Grupo_70" data-name="&lt;Grupo&gt;"><path id="_Trazado_62" data-name="&lt;Trazado&gt;" class="cls-16" d="M327.1,109.61s.2,2.62,1.37,1.77S327.1,109.61,327.1,109.61Z" transform="translate(-114.72 -31.09)"/></g><g id="_Grupo_71" data-name="&lt;Grupo&gt;"><path id="_Trazado_63" data-name="&lt;Trazado&gt;" class="cls-16" d="M324.49,111.63s.2,2.63,1.37,1.77S324.49,111.63,324.49,111.63Z" transform="translate(-114.72 -31.09)"/></g><g id="_Grupo_72" data-name="&lt;Grupo&gt;"><path id="_Trazado_64" data-name="&lt;Trazado&gt;" class="cls-16" d="M321.87,113.66s.2,2.62,1.37,1.77S321.87,113.66,321.87,113.66Z" transform="translate(-114.72 -31.09)"/></g><g id="_Grupo_73" data-name="&lt;Grupo&gt;"><path id="_Trazado_65" data-name="&lt;Trazado&gt;" class="cls-16" d="M338.88,95.61s.21,2.62,1.38,1.77S338.88,95.61,338.88,95.61Z" transform="translate(-114.72 -31.09)"/></g><g id="_Grupo_74" data-name="&lt;Grupo&gt;"><path id="_Trazado_66" data-name="&lt;Trazado&gt;" class="cls-16" d="M336.27,97.63s.2,2.63,1.37,1.78S336.27,97.63,336.27,97.63Z" transform="translate(-114.72 -31.09)"/></g><g id="_Grupo_75" data-name="&lt;Grupo&gt;"><path id="_Trazado_67" data-name="&lt;Trazado&gt;" class="cls-16" d="M333.65,99.66s.21,2.62,1.37,1.77S333.65,99.66,333.65,99.66Z" transform="translate(-114.72 -31.09)"/></g><g id="_Grupo_76" data-name="&lt;Grupo&gt;"><path id="_Trazado_68" data-name="&lt;Trazado&gt;" class="cls-16" d="M331,101.68s.2,2.63,1.37,1.77S331,101.68,331,101.68Z" transform="translate(-114.72 -31.09)"/></g><g id="_Grupo_77" data-name="&lt;Grupo&gt;"><path id="_Trazado_69" data-name="&lt;Trazado&gt;" class="cls-16" d="M328.42,103.71s.2,2.62,1.37,1.77S328.42,103.71,328.42,103.71Z" transform="translate(-114.72 -31.09)"/></g><g id="_Grupo_78" data-name="&lt;Grupo&gt;"><path id="_Trazado_70" data-name="&lt;Trazado&gt;" class="cls-16" d="M325.81,105.73s.2,2.63,1.37,1.77S325.81,105.73,325.81,105.73Z" transform="translate(-114.72 -31.09)"/></g><g id="_Grupo_79" data-name="&lt;Grupo&gt;"><path id="_Trazado_71" data-name="&lt;Trazado&gt;" class="cls-16" d="M323.19,107.76s.2,2.62,1.37,1.77S323.19,107.76,323.19,107.76Z" transform="translate(-114.72 -31.09)"/></g></g><path id="_Trazado_72" data-name="&lt;Trazado&gt;" class="cls-17" d="M328.77,92.84a7.29,7.29,0,0,0,.3,5.63c.07.16.14.3.22.46s.19.41.3.61l-.75.58s-.16-.2-.39-.55c-.09-.12-.18-.27-.28-.43s-.25-.41-.38-.65a9,9,0,0,1-1.25-6A2.46,2.46,0,0,1,328.77,92.84Z" transform="translate(-114.72 -31.09)"/><path id="_Trazado_73" data-name="&lt;Trazado&gt;" class="cls-17" d="M337.05,99.76a12.2,12.2,0,0,0-5.93-.69c3,2,1.63,3.85,1.63,3.85.11-2-2.64-3.19-2.64-3.19s0,.26,0,.7a10.18,10.18,0,0,0,1.21,5.53,12,12,0,0,1-3-4.7,12.34,12.34,0,0,0-.81,5.9,7.37,7.37,0,0,1-.86-5.18,15.86,15.86,0,0,0-3.74,4.41,13.83,13.83,0,0,1,2.2-4.51,15.93,15.93,0,0,1,3.3-3.43l.09-.07.58-.43a17.05,17.05,0,0,1,3.24-1.75,14.17,14.17,0,0,1,5.15-1.08,15.67,15.67,0,0,0-5.2,2.51A7.4,7.4,0,0,1,337.05,99.76Z" transform="translate(-114.72 -31.09)"/><path class="cls-18" d="M349.5,103.79a9.47,9.47,0,0,0-9.26-7.8,1.3,1.3,0,0,0,0,2.59,6.91,6.91,0,0,1,6.76,5.9C347.3,106.11,349.79,105.42,349.5,103.79Z" transform="translate(-114.72 -31.09)"/><path class="cls-18" d="M349.21,106.52a1.3,1.3,0,0,0,0,2.59A1.3,1.3,0,0,0,349.21,106.52Z" transform="translate(-114.72 -31.09)"/></g></g><g id="_Grupo_80" data-name="&lt;Grupo&gt;"><g id="_Grupo_81" data-name="&lt;Grupo&gt;"><path id="_Trazado_74" data-name="&lt;Trazado&gt;" class="cls-4" d="M372,102.27c.06.13.12.25.17.38s.18.43.27.66a26.72,26.72,0,0,1,1.41,6.91c0,.1,0,.2,0,.31.45,6.07-.58,12.94-3.71,15.36-4.79,3.71-18.47,0-23.31-4.15-3.25-2.77-9.4-9.8-.66-18.94a31.79,31.79,0,0,1,3.54-3.16l.07-.06.51-.38a29.3,29.3,0,0,1,3.1-2.07c6.08-3.55,10.45-2.92,13.49-1,0,0,0,0,0,0s.3.2.44.31l0,0A15.6,15.6,0,0,1,372,102.27Z" transform="translate(-114.72 -31.09)"/><path class="cls-6" d="M374,111.64c-4.36,4.24-9.2,7.54-16,5.76-6.34-1.66-10.64-6.67-13.85-12.11-5.56,7.92-.23,13.94,2.72,16.45,4.84,4.15,18.52,7.86,23.31,4.15C373.14,123.61,374.22,117.42,374,111.64Z" transform="translate(-114.72 -31.09)"/><g id="_Grupo_82" data-name="&lt;Grupo&gt;"><g id="_Grupo_83" data-name="&lt;Grupo&gt;"><path id="_Trazado_75" data-name="&lt;Trazado&gt;" class="cls-16" d="M369.83,122.2s.2,2.63,1.37,1.77S369.83,122.2,369.83,122.2Z" transform="translate(-114.72 -31.09)"/></g><g id="_Grupo_84" data-name="&lt;Grupo&gt;"><path id="_Trazado_76" data-name="&lt;Trazado&gt;" class="cls-16" d="M367.21,124.22s.21,2.63,1.38,1.78S367.21,124.22,367.21,124.22Z" transform="translate(-114.72 -31.09)"/></g><g id="_Grupo_85" data-name="&lt;Grupo&gt;"><path id="_Trazado_77" data-name="&lt;Trazado&gt;" class="cls-16" d="M371.15,116.3s.2,2.63,1.37,1.77S371.15,116.3,371.15,116.3Z" transform="translate(-114.72 -31.09)"/></g><g id="_Grupo_86" data-name="&lt;Grupo&gt;"><path id="_Trazado_78" data-name="&lt;Trazado&gt;" class="cls-16" d="M368.53,118.32s.21,2.63,1.38,1.78S368.53,118.32,368.53,118.32Z" transform="translate(-114.72 -31.09)"/></g><g id="_Grupo_87" data-name="&lt;Grupo&gt;"><path id="_Trazado_79" data-name="&lt;Trazado&gt;" class="cls-16" d="M365.92,120.35s.2,2.62,1.37,1.77S365.92,120.35,365.92,120.35Z" transform="translate(-114.72 -31.09)"/></g><g id="_Grupo_88" data-name="&lt;Grupo&gt;"><path id="_Trazado_80" data-name="&lt;Trazado&gt;" class="cls-16" d="M363.3,122.37s.2,2.63,1.37,1.78S363.3,122.37,363.3,122.37Z" transform="translate(-114.72 -31.09)"/></g><g id="_Grupo_89" data-name="&lt;Grupo&gt;"><path id="_Trazado_81" data-name="&lt;Trazado&gt;" class="cls-16" d="M360.69,124.4s.2,2.62,1.37,1.77S360.69,124.4,360.69,124.4Z" transform="translate(-114.72 -31.09)"/></g><g id="_Grupo_90" data-name="&lt;Grupo&gt;"><path id="_Trazado_82" data-name="&lt;Trazado&gt;" class="cls-16" d="M370.34,112.05s.2,2.62,1.37,1.77S370.34,112.05,370.34,112.05Z" transform="translate(-114.72 -31.09)"/></g><g id="_Grupo_91" data-name="&lt;Grupo&gt;"><path id="_Trazado_83" data-name="&lt;Trazado&gt;" class="cls-16" d="M367.72,114.07s.2,2.63,1.37,1.78S367.72,114.07,367.72,114.07Z" transform="translate(-114.72 -31.09)"/></g><g id="_Grupo_92" data-name="&lt;Grupo&gt;"><path id="_Trazado_84" data-name="&lt;Trazado&gt;" class="cls-16" d="M365.11,116.1s.2,2.62,1.37,1.77S365.11,116.1,365.11,116.1Z" transform="translate(-114.72 -31.09)"/></g><g id="_Grupo_93" data-name="&lt;Grupo&gt;"><path id="_Trazado_85" data-name="&lt;Trazado&gt;" class="cls-16" d="M362.49,118.12s.2,2.63,1.37,1.77S362.49,118.12,362.49,118.12Z" transform="translate(-114.72 -31.09)"/></g><g id="_Grupo_94" data-name="&lt;Grupo&gt;"><path id="_Trazado_86" data-name="&lt;Trazado&gt;" class="cls-16" d="M359.87,120.15s.21,2.62,1.38,1.77S359.87,120.15,359.87,120.15Z" transform="translate(-114.72 -31.09)"/></g><g id="_Grupo_95" data-name="&lt;Grupo&gt;"><path id="_Trazado_87" data-name="&lt;Trazado&gt;" class="cls-16" d="M357.26,122.17s.2,2.63,1.37,1.77S357.26,122.17,357.26,122.17Z" transform="translate(-114.72 -31.09)"/></g><g id="_Grupo_96" data-name="&lt;Grupo&gt;"><path id="_Trazado_88" data-name="&lt;Trazado&gt;" class="cls-16" d="M354.68,123.2s.21,2.62,1.38,1.77S354.68,123.2,354.68,123.2Z" transform="translate(-114.72 -31.09)"/></g><g id="_Grupo_97" data-name="&lt;Grupo&gt;"><path id="_Trazado_89" data-name="&lt;Trazado&gt;" class="cls-16" d="M371.66,106.15s.2,2.62,1.37,1.77S371.66,106.15,371.66,106.15Z" transform="translate(-114.72 -31.09)"/></g><g id="_Grupo_98" data-name="&lt;Grupo&gt;"><path id="_Trazado_90" data-name="&lt;Trazado&gt;" class="cls-16" d="M373.89,110.22a.47.47,0,0,1,0,.31.73.73,0,0,1-.27.38c-1.17.85-1.38-1.77-1.38-1.77S373.63,109.6,373.89,110.22Z" transform="translate(-114.72 -31.09)"/></g><g id="_Grupo_99" data-name="&lt;Grupo&gt;"><path id="_Trazado_91" data-name="&lt;Trazado&gt;" class="cls-16" d="M369,108.17s.2,2.63,1.37,1.77S369,108.17,369,108.17Z" transform="translate(-114.72 -31.09)"/></g><g id="_Grupo_100" data-name="&lt;Grupo&gt;"><path id="_Trazado_92" data-name="&lt;Trazado&gt;" class="cls-16" d="M366.42,110.2s.21,2.62,1.38,1.77S366.42,110.2,366.42,110.2Z" transform="translate(-114.72 -31.09)"/></g><g id="_Grupo_101" data-name="&lt;Grupo&gt;"><path id="_Trazado_93" data-name="&lt;Trazado&gt;" class="cls-16" d="M363.81,112.22s.2,2.63,1.37,1.77S363.81,112.22,363.81,112.22Z" transform="translate(-114.72 -31.09)"/></g><g id="_Grupo_102" data-name="&lt;Grupo&gt;"><path id="_Trazado_94" data-name="&lt;Trazado&gt;" class="cls-16" d="M361.19,114.25s.21,2.62,1.38,1.77S361.19,114.25,361.19,114.25Z" transform="translate(-114.72 -31.09)"/></g><g id="_Grupo_103" data-name="&lt;Grupo&gt;"><path id="_Trazado_95" data-name="&lt;Trazado&gt;" class="cls-16" d="M358.58,116.27s.2,2.63,1.37,1.77S358.58,116.27,358.58,116.27Z" transform="translate(-114.72 -31.09)"/></g><g id="_Grupo_104" data-name="&lt;Grupo&gt;"><path id="_Trazado_96" data-name="&lt;Trazado&gt;" class="cls-16" d="M356,118.29s.21,2.63,1.37,1.78S356,118.29,356,118.29Z" transform="translate(-114.72 -31.09)"/></g><g id="_Grupo_105" data-name="&lt;Grupo&gt;"><path id="_Trazado_97" data-name="&lt;Trazado&gt;" class="cls-16" d="M353.35,120.32s.2,2.63,1.37,1.77S353.35,120.32,353.35,120.32Z" transform="translate(-114.72 -31.09)"/></g><g id="_Grupo_106" data-name="&lt;Grupo&gt;"><path id="_Trazado_98" data-name="&lt;Trazado&gt;" class="cls-16" d="M350.73,122.34s.2,2.63,1.37,1.78S350.73,122.34,350.73,122.34Z" transform="translate(-114.72 -31.09)"/></g><g id="_Grupo_107" data-name="&lt;Grupo&gt;"><path id="_Trazado_99" data-name="&lt;Trazado&gt;" class="cls-16" d="M372.48,103.31a.75.75,0,0,1-.26.36c-1.17.85-1.38-1.77-1.38-1.77a4.65,4.65,0,0,1,1.37.75A.64.64,0,0,1,372.48,103.31Z" transform="translate(-114.72 -31.09)"/></g><g id="_Grupo_108" data-name="&lt;Grupo&gt;"><path id="_Trazado_100" data-name="&lt;Trazado&gt;" class="cls-16" d="M368.23,103.92s.2,2.63,1.37,1.77S368.23,103.92,368.23,103.92Z" transform="translate(-114.72 -31.09)"/></g><g id="_Grupo_109" data-name="&lt;Grupo&gt;"><path id="_Trazado_101" data-name="&lt;Trazado&gt;" class="cls-16" d="M365.61,105.94s.21,2.63,1.38,1.78S365.61,105.94,365.61,105.94Z" transform="translate(-114.72 -31.09)"/></g><g id="_Grupo_110" data-name="&lt;Grupo&gt;"><path id="_Trazado_102" data-name="&lt;Trazado&gt;" class="cls-16" d="M363,108s.2,2.63,1.37,1.77S363,108,363,108Z" transform="translate(-114.72 -31.09)"/></g><g id="_Grupo_111" data-name="&lt;Grupo&gt;"><path id="_Trazado_103" data-name="&lt;Trazado&gt;" class="cls-16" d="M360.38,110s.2,2.63,1.37,1.78S360.38,110,360.38,110Z" transform="translate(-114.72 -31.09)"/></g><g id="_Grupo_112" data-name="&lt;Grupo&gt;"><path id="_Trazado_104" data-name="&lt;Trazado&gt;" class="cls-16" d="M357.77,112s.2,2.62,1.37,1.77S357.77,112,357.77,112Z" transform="translate(-114.72 -31.09)"/></g><g id="_Grupo_113" data-name="&lt;Grupo&gt;"><path id="_Trazado_105" data-name="&lt;Trazado&gt;" class="cls-16" d="M355.15,114s.2,2.63,1.37,1.78S355.15,114,355.15,114Z" transform="translate(-114.72 -31.09)"/></g><g id="_Grupo_114" data-name="&lt;Grupo&gt;"><path id="_Trazado_106" data-name="&lt;Trazado&gt;" class="cls-16" d="M352.53,116.07s.21,2.62,1.38,1.77S352.53,116.07,352.53,116.07Z" transform="translate(-114.72 -31.09)"/></g><g id="_Grupo_115" data-name="&lt;Grupo&gt;"><path id="_Trazado_107" data-name="&lt;Trazado&gt;" class="cls-16" d="M349.92,118.09s.2,2.63,1.37,1.78S349.92,118.09,349.92,118.09Z" transform="translate(-114.72 -31.09)"/></g><g id="_Grupo_116" data-name="&lt;Grupo&gt;"><path id="_Trazado_108" data-name="&lt;Trazado&gt;" class="cls-16" d="M347.3,120.12s.21,2.62,1.38,1.77S347.3,120.12,347.3,120.12Z" transform="translate(-114.72 -31.09)"/></g><g id="_Grupo_117" data-name="&lt;Grupo&gt;"><path id="_Trazado_109" data-name="&lt;Trazado&gt;" class="cls-16" d="M366.93,100s.21,2.63,1.37,1.78S366.93,100,366.93,100Z" transform="translate(-114.72 -31.09)"/></g><g id="_Grupo_118" data-name="&lt;Grupo&gt;"><path id="_Trazado_110" data-name="&lt;Trazado&gt;" class="cls-16" d="M364.32,102.07s.2,2.62,1.37,1.77S364.32,102.07,364.32,102.07Z" transform="translate(-114.72 -31.09)"/></g><g id="_Grupo_119" data-name="&lt;Grupo&gt;"><path id="_Trazado_111" data-name="&lt;Trazado&gt;" class="cls-16" d="M361.7,104.09s.2,2.63,1.37,1.78S361.7,104.09,361.7,104.09Z" transform="translate(-114.72 -31.09)"/></g><g id="_Grupo_120" data-name="&lt;Grupo&gt;"><path id="_Trazado_112" data-name="&lt;Trazado&gt;" class="cls-16" d="M359.09,106.12s.2,2.62,1.37,1.77S359.09,106.12,359.09,106.12Z" transform="translate(-114.72 -31.09)"/></g><g id="_Grupo_121" data-name="&lt;Grupo&gt;"><path id="_Trazado_113" data-name="&lt;Trazado&gt;" class="cls-16" d="M356.47,108.14s.2,2.63,1.37,1.77S356.47,108.14,356.47,108.14Z" transform="translate(-114.72 -31.09)"/></g><g id="_Grupo_122" data-name="&lt;Grupo&gt;"><path id="_Trazado_114" data-name="&lt;Trazado&gt;" class="cls-16" d="M353.85,110.17s.21,2.62,1.38,1.77S353.85,110.17,353.85,110.17Z" transform="translate(-114.72 -31.09)"/></g><g id="_Grupo_123" data-name="&lt;Grupo&gt;"><path id="_Trazado_115" data-name="&lt;Trazado&gt;" class="cls-16" d="M351.24,112.19s.2,2.63,1.37,1.77S351.24,112.19,351.24,112.19Z" transform="translate(-114.72 -31.09)"/></g><g id="_Grupo_124" data-name="&lt;Grupo&gt;"><path id="_Trazado_116" data-name="&lt;Trazado&gt;" class="cls-16" d="M348.62,114.22s.21,2.62,1.37,1.77S348.62,114.22,348.62,114.22Z" transform="translate(-114.72 -31.09)"/></g><g id="_Grupo_125" data-name="&lt;Grupo&gt;"><path id="_Trazado_117" data-name="&lt;Trazado&gt;" class="cls-16" d="M346,116.24s.2,2.63,1.37,1.77S346,116.24,346,116.24Z" transform="translate(-114.72 -31.09)"/></g><g id="_Grupo_126" data-name="&lt;Grupo&gt;"><path id="_Trazado_118" data-name="&lt;Trazado&gt;" class="cls-16" d="M367.49,97.57c-1.16.85-1.37-1.78-1.37-1.78a8.2,8.2,0,0,1,.82.37s0,0,0,0a2.69,2.69,0,0,1,.44.31l0,0C367.8,96.82,368,97.18,367.49,97.57Z" transform="translate(-114.72 -31.09)"/></g><g id="_Grupo_127" data-name="&lt;Grupo&gt;"><path id="_Trazado_119" data-name="&lt;Trazado&gt;" class="cls-16" d="M363.5,97.82s.21,2.62,1.38,1.77S363.5,97.82,363.5,97.82Z" transform="translate(-114.72 -31.09)"/></g><g id="_Grupo_128" data-name="&lt;Grupo&gt;"><path id="_Trazado_120" data-name="&lt;Trazado&gt;" class="cls-16" d="M360.89,99.84s.2,2.63,1.37,1.77S360.89,99.84,360.89,99.84Z" transform="translate(-114.72 -31.09)"/></g><g id="_Grupo_129" data-name="&lt;Grupo&gt;"><path id="_Trazado_121" data-name="&lt;Trazado&gt;" class="cls-16" d="M358.27,101.87s.21,2.62,1.38,1.77S358.27,101.87,358.27,101.87Z" transform="translate(-114.72 -31.09)"/></g><g id="_Grupo_130" data-name="&lt;Grupo&gt;"><path id="_Trazado_122" data-name="&lt;Trazado&gt;" class="cls-16" d="M355.66,103.89s.2,2.63,1.37,1.77S355.66,103.89,355.66,103.89Z" transform="translate(-114.72 -31.09)"/></g><g id="_Grupo_131" data-name="&lt;Grupo&gt;"><path id="_Trazado_123" data-name="&lt;Trazado&gt;" class="cls-16" d="M353,105.92s.2,2.62,1.37,1.77S353,105.92,353,105.92Z" transform="translate(-114.72 -31.09)"/></g><g id="_Grupo_132" data-name="&lt;Grupo&gt;"><path id="_Trazado_124" data-name="&lt;Trazado&gt;" class="cls-16" d="M350.43,107.94s.2,2.63,1.37,1.77S350.43,107.94,350.43,107.94Z" transform="translate(-114.72 -31.09)"/></g><g id="_Grupo_133" data-name="&lt;Grupo&gt;"><path id="_Trazado_125" data-name="&lt;Trazado&gt;" class="cls-16" d="M347.81,110s.2,2.63,1.37,1.78S347.81,110,347.81,110Z" transform="translate(-114.72 -31.09)"/></g><g id="_Grupo_134" data-name="&lt;Grupo&gt;"><path id="_Trazado_126" data-name="&lt;Trazado&gt;" class="cls-16" d="M345.19,112s.21,2.63,1.38,1.77S345.19,112,345.19,112Z" transform="translate(-114.72 -31.09)"/></g><g id="_Grupo_135" data-name="&lt;Grupo&gt;"><path id="_Trazado_127" data-name="&lt;Trazado&gt;" class="cls-16" d="M342.58,114s.2,2.63,1.37,1.78S342.58,114,342.58,114Z" transform="translate(-114.72 -31.09)"/></g><g id="_Grupo_136" data-name="&lt;Grupo&gt;"><path id="_Trazado_128" data-name="&lt;Trazado&gt;" class="cls-16" d="M359.59,96s.21,2.62,1.38,1.77S359.59,96,359.59,96Z" transform="translate(-114.72 -31.09)"/></g><g id="_Grupo_137" data-name="&lt;Grupo&gt;"><path id="_Trazado_129" data-name="&lt;Trazado&gt;" class="cls-16" d="M357,98s.2,2.63,1.37,1.77S357,98,357,98Z" transform="translate(-114.72 -31.09)"/></g><g id="_Grupo_138" data-name="&lt;Grupo&gt;"><path id="_Trazado_130" data-name="&lt;Trazado&gt;" class="cls-16" d="M354.36,100s.2,2.63,1.37,1.78S354.36,100,354.36,100Z" transform="translate(-114.72 -31.09)"/></g><g id="_Grupo_139" data-name="&lt;Grupo&gt;"><path id="_Trazado_131" data-name="&lt;Trazado&gt;" class="cls-16" d="M351.75,102s.2,2.63,1.37,1.77S351.75,102,351.75,102Z" transform="translate(-114.72 -31.09)"/></g><g id="_Grupo_140" data-name="&lt;Grupo&gt;"><path id="_Trazado_132" data-name="&lt;Trazado&gt;" class="cls-16" d="M349.13,104.06s.2,2.63,1.37,1.78S349.13,104.06,349.13,104.06Z" transform="translate(-114.72 -31.09)"/></g><g id="_Grupo_141" data-name="&lt;Grupo&gt;"><path id="_Trazado_133" data-name="&lt;Trazado&gt;" class="cls-16" d="M346.51,106.09s.21,2.62,1.38,1.77S346.51,106.09,346.51,106.09Z" transform="translate(-114.72 -31.09)"/></g><g id="_Grupo_142" data-name="&lt;Grupo&gt;"><path id="_Trazado_134" data-name="&lt;Trazado&gt;" class="cls-16" d="M343.9,108.11s.2,2.63,1.37,1.78S343.9,108.11,343.9,108.11Z" transform="translate(-114.72 -31.09)"/></g></g><path id="_Trazado_135" data-name="&lt;Trazado&gt;" class="cls-17" d="M349.48,93.2a7.26,7.26,0,0,0,.3,5.62c.07.16.14.31.22.47s.19.4.3.6l-.75.59s-.16-.2-.39-.55c-.09-.12-.18-.27-.29-.44l-.38-.64a9,9,0,0,1-1.24-6A2.46,2.46,0,0,1,349.48,93.2Z" transform="translate(-114.72 -31.09)"/><path id="_Trazado_136" data-name="&lt;Trazado&gt;" class="cls-17" d="M357.76,100.12a12.2,12.2,0,0,0-5.93-.69c3,2,1.63,3.84,1.63,3.84.11-2-2.64-3.18-2.64-3.18s0,.26,0,.7a10.19,10.19,0,0,0,1.21,5.53,12,12,0,0,1-3-4.71,12.38,12.38,0,0,0-.81,5.9,7.33,7.33,0,0,1-.86-5.17,15.86,15.86,0,0,0-3.74,4.41,13.93,13.93,0,0,1,2.19-4.51,16.25,16.25,0,0,1,3.31-3.44l.09-.07c.19-.15.39-.28.58-.42A16.51,16.51,0,0,1,353,96.56a13.92,13.92,0,0,1,5.15-1.08A15.67,15.67,0,0,0,353,98,7.4,7.4,0,0,1,357.76,100.12Z" transform="translate(-114.72 -31.09)"/><path class="cls-18" d="M370.21,104.14A9.48,9.48,0,0,0,361,96.35a1.3,1.3,0,0,0,0,2.59,6.9,6.9,0,0,1,6.76,5.89C368,106.47,370.5,105.78,370.21,104.14Z" transform="translate(-114.72 -31.09)"/><path class="cls-18" d="M369.92,106.88a1.3,1.3,0,0,0,0,2.59A1.3,1.3,0,0,0,369.92,106.88Z" transform="translate(-114.72 -31.09)"/></g></g><g id="_Grupo_143" data-name="&lt;Grupo&gt;"><g id="_Grupo_144" data-name="&lt;Grupo&gt;"><path id="_Trazado_137" data-name="&lt;Trazado&gt;" class="cls-19" d="M468.47,88.72c-.25.38-.47.7-.65,1l-.56.83.46-.89c.15-.27.33-.62.53-1a12,12,0,0,0,.59-1.37,14.82,14.82,0,0,0,.61-1.64c.16-.6.37-1.22.51-1.87.05-.32.12-.63.17-1a8.51,8.51,0,0,0,.17-1,.22.22,0,0,0,0-.08c0-.7.17-1.4.14-2.11a16.25,16.25,0,0,0-.08-2.1,18,18,0,0,0-.27-2c-.12-.65-.29-1.26-.44-1.84s-.35-1.11-.55-1.59a17.33,17.33,0,0,0-1-2.25,5.9,5.9,0,0,0-.33-.55l-.13-.2,2.3-1.37.13.25c.1.19.21.44.35.76a21.9,21.9,0,0,1,.88,2.67c.16.56.26,1.18.4,1.82s.2,1.34.24,2a20.21,20.21,0,0,1,0,2.21,1.33,1.33,0,0,0,0,.2c0,.3,0,.6,0,.9s-.07.77-.12,1.15c0,.1,0,.22,0,.33-.08.64-.26,1.26-.36,1.88l-.11.46c-.16.55-.35,1.08-.5,1.61s-.52,1.27-.75,1.86a15.87,15.87,0,0,1-.81,1.6A10.71,10.71,0,0,1,468.47,88.72Z" transform="translate(-114.72 -31.09)"/><path id="_Trazado_138" data-name="&lt;Trazado&gt;" class="cls-12" d="M440.37,133.66c-24-14-12.28-34.85,4.23-39.72,9.18-2.7,14.15-18.59,25.7-12.17l.32.18.66.4c10.68,7-.49,18.92,1.63,28.16C476.77,127.28,463.77,147.34,440.37,133.66Z" transform="translate(-114.72 -31.09)"/><path class="cls-20" d="M463.57,82.24c-4.95,1.4-7.48,6.9-11.1,10.2-4.75,4.32-11.55,4.73-16,9.35-1.33,1.4.79,3.53,2.12,2.13,3.75-3.94,9.81-4.46,14.11-7.78,3.74-2.89,7-9.7,11.63-11a1.5,1.5,0,0,0-.8-2.89Z" transform="translate(-114.72 -31.09)"/><path class="cls-21" d="M471.28,82.35l-.66-.4-.32-.18c-.4-.22-.78-.41-1.16-.58,2.39,6.53-1.29,12.26-3.37,18.34-2,5.78-1.81,11.78-2.8,17.73s-3.38,11.58-9.27,14.1-12.41,1.13-18.27-1.09a41.3,41.3,0,0,0,4.94,3.39c23.4,13.68,36.4-6.38,32.54-23.15C470.79,101.27,482,89.31,471.28,82.35Z" transform="translate(-114.72 -31.09)"/><path id="_Trazado_139" data-name="&lt;Trazado&gt;" class="cls-22" d="M480.87,75.7s-4.05,5.6-8.44,3.16a5,5,0,0,1-.52-.33l-.27-.2a3.73,3.73,0,0,1,.32-.7,4.56,4.56,0,0,1,2.54-2.31C477.32,74.24,480.87,75.7,480.87,75.7Z" transform="translate(-114.72 -31.09)"/></g></g><g id="_Grupo_145" data-name="&lt;Grupo&gt;"><g id="_Grupo_146" data-name="&lt;Grupo&gt;"><path id="_Trazado_140" data-name="&lt;Trazado&gt;" class="cls-19" d="M486.48,85.46c0,.45,0,.84,0,1.16,0,.64,0,1,0,1s0-.35-.14-1c0-.31-.09-.7-.15-1.14a11.9,11.9,0,0,0-.31-1.45,15.22,15.22,0,0,0-.45-1.69c-.22-.58-.41-1.21-.67-1.83-.14-.28-.27-.58-.41-.87a8.68,8.68,0,0,0-.45-.92l0-.07c-.38-.6-.68-1.24-1.11-1.81a17.42,17.42,0,0,0-1.28-1.66,19.82,19.82,0,0,0-1.39-1.48c-.47-.46-1-.86-1.42-1.24s-.93-.71-1.36-1a16.13,16.13,0,0,0-2.16-1.22L474.6,70l-.23-.08,1.09-2.46.26.14.72.42a19.48,19.48,0,0,1,2.26,1.67c.46.36.9.81,1.38,1.25s.94,1,1.39,1.53a18.43,18.43,0,0,1,1.31,1.77l.11.16a7.71,7.71,0,0,1,.49.77c.19.32.39.66.57,1,.05.09.11.19.16.3.3.57.52,1.18.79,1.74l.18.44c.19.54.34,1.08.52,1.6.21.67.32,1.33.47,2s.17,1.23.27,1.77A15,15,0,0,1,486.48,85.46Z" transform="translate(-114.72 -31.09)"/><path id="_Trazado_141" data-name="&lt;Trazado&gt;" class="cls-12" d="M489.58,138.36c-27.72,2.45-30.19-21.3-19.55-34.82,5.92-7.53.78-23.35,13.91-24.81l.37,0c.26,0,.51,0,.77,0,12.74-.51,10.56,15.71,17.63,22C515.56,112.1,516.57,136,489.58,138.36Z" transform="translate(-114.72 -31.09)"/><path class="cls-20" d="M478.73,83c-3.23,4-2.1,10-3.15,14.74-1.37,6.28-6.68,10.54-7.6,16.87-.27,1.91,2.68,2.41,3,.5.78-5.38,5.42-9.31,7-14.51,1.38-4.52.11-12,3.12-15.7a1.5,1.5,0,0,0-2.33-1.9Z" transform="translate(-114.72 -31.09)"/><path class="cls-21" d="M485.08,78.64c-.26,0-.51,0-.77,0l-.37,0c-.45,0-.87.12-1.28.2,5.73,3.94,6,10.74,7.88,16.9,1.74,5.85,5.33,10.65,8,16.08s3.95,11.4.6,16.86-9.46,8.11-15.52,9.69a40.58,40.58,0,0,0,6-.1c27-2.38,26-26.26,13.13-37.71C495.64,94.35,497.82,78.13,485.08,78.64Z" transform="translate(-114.72 -31.09)"/><path id="_Trazado_142" data-name="&lt;Trazado&gt;" class="cls-22" d="M489.05,67.67s-.07,6.9-5.06,7.45a3.91,3.91,0,0,1-.61,0H483a5.1,5.1,0,0,1-.15-.76,4.65,4.65,0,0,1,.74-3.35C485.31,68.53,489.05,67.67,489.05,67.67Z" transform="translate(-114.72 -31.09)"/></g></g><g id="_Grupo_147" data-name="&lt;Grupo&gt;"><g id="_Grupo_148" data-name="&lt;Grupo&gt;"><g id="_Grupo_149" data-name="&lt;Grupo&gt;"><path id="_Trazado_143" data-name="&lt;Trazado&gt;" class="cls-23" d="M580.9,93.41l-.31-1.17c-.09-.37-.21-.82-.34-1.34a16.13,16.13,0,0,0-.58-1.68c-.26-.6-.43-1.29-.78-2s-.65-1.38-1-2.08c-.33-.52-.65-1.06-1-1.58a4.59,4.59,0,0,0-.35-.51c-.28-.35-.54-.72-.82-1.09a10.52,10.52,0,0,0-.75-.9,25.83,25.83,0,0,0-3.63-3.36c-.62-.49-1.27-.89-1.87-1.28s-1.19-.72-1.76-1a20,20,0,0,0-2.73-1.17l-.75-.22L563.9,74l1-3.09.33.13.91.4A24.39,24.39,0,0,1,569,73.14c.59.36,1.18.83,1.81,1.29s1.26,1,1.87,1.64A22.08,22.08,0,0,1,574.54,78l.15.17c.25.27.49.57.71.86l.8,1.11a10.93,10.93,0,0,1,.65,1c.18.29.35.6.53.89a4.19,4.19,0,0,0,.24.42c.43.78.76,1.59,1.13,2.34s.57,1.54.84,2.26a19.58,19.58,0,0,1,.56,2.07,14.6,14.6,0,0,1,.38,1.77c.08.53.15,1,.2,1.37Z" transform="translate(-114.72 -31.09)"/><path class="cls-22" d="M581.07,69.27a14.44,14.44,0,0,0-4.22,2.57,6.11,6.11,0,0,0-2.16,6.31,6.7,6.7,0,0,0,.29.9l.42,0a7.52,7.52,0,0,0,1.45-.34C581.91,76.8,581.07,69.27,581.07,69.27Z" transform="translate(-114.72 -31.09)"/><path class="cls-7" d="M579.57,71.51c-.44.63-1,1.47-1.54,2.34s-1,1.74-1.42,2.4-.6,1.13-.6,1.13.32-.4.75-1,1-1.47,1.54-2.33,1.05-1.74,1.42-2.41.59-1.13.59-1.13S580,70.89,579.57,71.51Z" transform="translate(-114.72 -31.09)"/></g><path id="_Trazado_144" data-name="&lt;Trazado&gt;" class="cls-16" d="M602.94,108.07A26.1,26.1,0,1,1,575.68,82c.38,0,.77,0,1.17,0h.53A26.07,26.07,0,0,1,602.94,108.07Z" transform="translate(-114.72 -31.09)"/><path class="cls-24" d="M570.09,87.36c-7.37,2.23-14.14,9.47-15.76,17.07-.5,2.35,3.11,3.36,3.61,1,1.35-6.31,7-12.6,13.14-14.46C573.38,90.27,572.4,86.66,570.09,87.36Z" transform="translate(-114.72 -31.09)"/><path class="cls-24" d="M576.28,86.25a1.89,1.89,0,0,0-1.87,1.87v.22a1.87,1.87,0,1,0,3.74,0v-.22A1.89,1.89,0,0,0,576.28,86.25Z" transform="translate(-114.72 -31.09)"/><path class="cls-25" d="M602.94,108.07a26,26,0,0,0-1.3-8.12,50.29,50.29,0,0,1-3.91,8.69C593.49,116.13,586.25,119,578,120c-12.21,1.48-21.42-4.18-27.18-12.88,0,.33,0,.65,0,1a26.1,26.1,0,0,0,52.19,0Z" transform="translate(-114.72 -31.09)"/></g></g><g id="_Grupo_150" data-name="&lt;Grupo&gt;"><g id="_Grupo_151" data-name="&lt;Grupo&gt;"><path id="_Trazado_145" data-name="&lt;Trazado&gt;" class="cls-19" d="M668,111.33l-1-1.7c.14-.08,14-8.29,13.85-23.28l0-3.19,1.81,2.63c.35.51,8.64,12.89.45,32.1l-1.81-.77c5.42-12.72,3.17-22.38,1.29-27.07C680.73,103.78,668.56,111,668,111.33Z" transform="translate(-114.72 -31.09)"/></g><path id="_Trazado_146" data-name="&lt;Trazado&gt;" class="cls-4" d="M668.78,119.91a8.62,8.62,0,1,1,.63-12.17A8.62,8.62,0,0,1,668.78,119.91Z" transform="translate(-114.72 -31.09)"/><path id="_Trazado_147" data-name="&lt;Trazado&gt;" class="cls-5" d="M669.26,111.42c-.75,1.63-3.31,2.06-5.72,1s-3.75-3.33-3-5,3.31-2.06,5.72-1S670,109.79,669.26,111.42Z" transform="translate(-114.72 -31.09)"/><path class="cls-6" d="M668.78,119.91a8.59,8.59,0,0,0,2.84-6.58,7,7,0,0,1-.61.61,8.62,8.62,0,0,1-14.38-6.23,8.62,8.62,0,0,0,12.15,12.2Z" transform="translate(-114.72 -31.09)"/><path id="_Trazado_148" data-name="&lt;Trazado&gt;" class="cls-4" d="M686.1,129.87a8.62,8.62,0,1,1,.64-12.18A8.62,8.62,0,0,1,686.1,129.87Z" transform="translate(-114.72 -31.09)"/><path id="_Trazado_149" data-name="&lt;Trazado&gt;" class="cls-5" d="M685.82,121.62c-.76,1.64-3.32,2.06-5.72.95s-3.75-3.33-3-5,3.31-2.06,5.72-1S686.57,120,685.82,121.62Z" transform="translate(-114.72 -31.09)"/><path class="cls-6" d="M686.1,129.87a8.59,8.59,0,0,0,2.84-6.25,8.61,8.61,0,0,1-15.21-5.68,8.61,8.61,0,0,0,12.37,11.93Z" transform="translate(-114.72 -31.09)"/><g id="_Grupo_152" data-name="&lt;Grupo&gt;"><path id="_Trazado_150" data-name="&lt;Trazado&gt;" class="cls-22" d="M697.66,81.69s-11.31-.93-11.7,7.76C694.11,92.46,697.66,81.69,697.66,81.69Z" transform="translate(-114.72 -31.09)"/></g><g id="_Grupo_153" data-name="&lt;Grupo&gt;"><path id="_Trazado_151" data-name="&lt;Trazado&gt;" class="cls-22" d="M676.71,70.49S671.08,86.08,683.17,90C690.55,79.62,676.71,70.49,676.71,70.49Z" transform="translate(-114.72 -31.09)"/></g></g><path class="cls-26" d="M811.24,78.7a6.37,6.37,0,0,0-5.17,6,17.57,17.57,0,0,1,7.41-3.62,17.08,17.08,0,0,1,9.11.24,17.58,17.58,0,0,0-8.36,0,18,18,0,0,0-6.41,2.84h0a10.84,10.84,0,0,0-2.5,2l.35.86-.06-.18c.24-.25.47-.49.7-.7.9,2.84,4.18,4.52,7.5,3.71,4.68-1.14,7.41-8.36,11.7-7.34A15.23,15.23,0,0,0,811.24,78.7Z" transform="translate(-114.72 -31.09)"/><path class="cls-27" d="M805.31,86.15a10.3,10.3,0,0,0-3.26-3.9,2.07,2.07,0,0,0-2.69,3.16c.07.06,3.81,2.11,3.07,8.7a5.34,5.34,0,0,1,1.55.61S805,94.4,806.6,94a15.43,15.43,0,0,0-.93-7l-.35-.86Z" transform="translate(-114.72 -31.09)"/><path class="cls-28" d="M804,94.72a5.34,5.34,0,0,0-1.55-.61h0c-.81-.2-1.82-.42-3-.62-.8-.12-1.54-.22-2.13-.29-5.5-.6-12.68,0-15.71,6.16-5.24,10.67-1.69,25.26,7.29,31.62,8,5.69,14.1,3.6,15.3,3.09V94.65Z" transform="translate(-114.72 -31.09)"/><path class="cls-29" d="M827.27,99.36a10.78,10.78,0,0,0-7.19-5.69.83.83,0,0,1,.16.09.83.83,0,0,0-.16-.09c-4.83-1.34-10.47-.34-13.48.41v0c-1.14.27-2,.51-2.38.62v39.42l.23-.1s6.55,3.37,15.53-3S832.51,110,827.27,99.36Z" transform="translate(-114.72 -31.09)"/><path class="cls-30" d="M799.44,103.78A8.79,8.79,0,0,0,793.31,99c-4.31-1.18-10-.29-12.63.37,0,0,.45-.47.45-.49-1,.25-1.53.46-1.87.56l-.36.06a6.64,6.64,0,0,0-1.54-.55h0A22.92,22.92,0,0,0,775,98.4c-.71-.12-1.24-.2-1.77-.26-4.9-.54-11.23,0-13.93,5.49-4.67,9.5-1.47,22.51,6.53,28.18,7.16,5.07,12.59,3.21,13.66,2.76l.21-.09s5.36,2.92,13.36-2.75S804.11,113.28,799.44,103.78Z" transform="translate(-114.72 -31.09)"/><path class="cls-31" d="M779.6,110.49l.07,0a17.67,17.67,0,0,1,2.91,2.12c1.08,1,2.34,2.49,2.15,3.91A8.9,8.9,0,0,1,782.4,121a15.09,15.09,0,0,1-2.18,2l-.53.38-.47.15-.53-.38s-4.06-3-4.51-6.43c-.18-1.42,1.07-2.91,2.16-3.91a16.78,16.78,0,0,1,2.91-2.12l.35-.19m2.52-10.77-2.92.7v0l-2.42-.58a28.28,28.28,0,0,1,1.56,9.15s-6.6,3.59-6,7.93,5.28,7.74,5.28,7.74,1.89,6.58.57,9.24h1.49v-.15h1.11c-1.32-2.67.56-9.25.56-9.25s4.72-3.39,5.28-7.72-6-7.93-6-7.93a28.3,28.3,0,0,1,1.56-9.16Z" transform="translate(-114.72 -31.09)"/><path class="cls-29" d="M788.58,99a17.21,17.21,0,0,1,4.53.54,11.31,11.31,0,0,1,3.47,1.59,7.84,7.84,0,0,1,2.53,2.94,20.34,20.34,0,0,1,2,7.24,24,24,0,0,1-.55,7.58,22.73,22.73,0,0,1-2.83,6.87,17.67,17.67,0,0,1-4.76,5.16,18.66,18.66,0,0,1-5.11,2.62,13.16,13.16,0,0,1-4,.65,9.08,9.08,0,0,1-3.66-.68l-.44-.23-.47.2a1.12,1.12,0,0,1-.19.09h0a9.42,9.42,0,0,1-3.52.62,13.22,13.22,0,0,1-4-.65,18.66,18.66,0,0,1-5.11-2.62,17.84,17.84,0,0,1-4.77-5.16,22.73,22.73,0,0,1-2.83-6.87,23.73,23.73,0,0,1-.57-7.58,20.34,20.34,0,0,1,2-7.24c1.65-3.37,5.06-5.07,10.12-5.07a26.48,26.48,0,0,1,2.75.15c.45.06.92.13,1.5.23l.22,0a18.3,18.3,0,0,1,2,.45l.3.08.26.06a7.62,7.62,0,0,1,.94.32l.32.23.4,0a3.37,3.37,0,0,0,.54-.1c.12,0,.23-.08.37-.13s0,0,.11,0h0l1.34-.33a31.88,31.88,0,0,1,7.21-.91M788.52,98a32.92,32.92,0,0,0-7.5,1v0c-1,.25-1.47.46-1.82.56l-.36.06a6.57,6.57,0,0,0-1.55-.55h0A21.53,21.53,0,0,0,775,98.4c-.71-.12-1.22-.2-1.74-.26a26.51,26.51,0,0,0-2.87-.17c-4.27,0-8.86,1.18-11.06,5.66-4.67,9.5-1.46,22.51,6.54,28.18a16.74,16.74,0,0,0,9.72,3.47,10.29,10.29,0,0,0,3.94-.71l.21-.09a9.83,9.83,0,0,0,4.14.79,16.71,16.71,0,0,0,9.71-3.46c8-5.67,11.17-18.68,6.5-28.18a10.09,10.09,0,0,0-6.68-5.08,18.73,18.73,0,0,0-4.85-.58Z" transform="translate(-114.72 -31.09)"/><path class="cls-32" d="M775.42,118.34c.22-1.23,1.08-2.87,1.78-2.75s.95,2,.73,3.19-.82,1.4-1.51,1.28S775.21,119.58,775.42,118.34Z" transform="translate(-114.72 -31.09)"/><path class="cls-32" d="M782.86,118.34c-.21-1.23-1.08-2.87-1.77-2.75s-1,2-.74,3.19.82,1.4,1.52,1.28S783.08,119.58,782.86,118.34Z" transform="translate(-114.72 -31.09)"/><path class="cls-33" d="M780,99.8h0c-.51,0-.74-.42-.72-.92.19-4.67-1.59-5.88-1.6-5.89a.9.9,0,0,1-.3-1.24.92.92,0,0,1,1.26-.3c.26.15,2.33,1.65,2.11,7.43C780.65,99.37,780.44,99.8,780,99.8Z" transform="translate(-114.72 -31.09)"/><path class="cls-32" d="M779.12,133.6c1.44,0,1.86,2.13,1.86,2.13l-1-.61.11.61-.55-.62-.3.62-.27-.63-.68,1-.06-1-.68,1.1S777.68,133.6,779.12,133.6Z" transform="translate(-114.72 -31.09)"/><ellipse class="cls-34" cx="806.66" cy="69.56" rx="25.56" ry="33.99"/><circle class="cls-35" cx="913.53" cy="79.41" r="3.41" transform="matrix(0.03, -1, 1, 0.03, 689.13, 958.71)"/><circle class="cls-35" cx="810.72" cy="48.62" r="3.41"/><circle class="cls-35" cx="805.86" cy="41.26" r="3.41"/><circle class="cls-36" cx="895.27" cy="113.14" r="22.52" transform="translate(-85.09 336.94) rotate(-23.61)"/><path class="cls-37" d="M895.61,92.68a20.35,20.35,0,1,1-8,1.6,20.39,20.39,0,0,1,8-1.6m0-4.31a24.75,24.75,0,1,0,24.75,24.74,24.74,24.74,0,0,0-24.75-24.74Z" transform="translate(-114.72 -31.09)"/><path class="cls-35" d="M895.61,89A23.9,23.9,0,0,1,905,90.89a24.12,24.12,0,1,1-31.61,31.61,24.25,24.25,0,0,1,0-18.77,24.2,24.2,0,0,1,12.84-12.84A23.89,23.89,0,0,1,895.61,89m0-.63a24.75,24.75,0,1,0,24.75,24.74,24.74,24.74,0,0,0-24.75-24.74Z" transform="translate(-114.72 -31.09)"/></g><g id="Capa_10" data-name="Capa 10"><polygon class="cls-38" points="644.39 1.08 622.18 1.08 619.42 0 647.15 0 644.39 1.08"/></g></g></svg>