<svg xmlns="http://www.w3.org/2000/svg" viewBox="0 0 777.59 96.46"><defs><style>.cls-1{isolation:isolate;}.cls-2{fill:#f28727;}.cls-3{fill:#ecd975;}.cls-4{fill:#fff;}.cls-5{fill:#07a1c7;}.cls-6{fill:#28aecf;}.cls-7{fill:#f2f2f2;}.cls-8{fill:#5ac1da;}.cls-9{opacity:0.46;}.cls-10{fill:#8d999c;opacity:0.37;}.cls-10,.cls-24{mix-blend-mode:multiply;}.cls-11{fill:#bf8443;}.cls-12{fill:#fff45f;}.cls-13{fill:#c4c4c4;}.cls-14{fill:#ffd833;}.cls-15{fill:#ffc20e;}.cls-16{fill:#fcaf17;}.cls-17{fill:#626868;}.cls-18{fill:#ffbc00;}.cls-19{fill:#7f7f7f;}.cls-20{fill:#cbe9f7;}.cls-21{fill:#663514;}.cls-22{fill:#b76821;}.cls-23{fill:#512508;}.cls-24{opacity:0.45;}.cls-25{fill:#ccc;}.cls-26{opacity:0.57;}.cls-27{fill:#d59e6a;}.cls-28{fill:#feebc4;}.cls-29{fill:#e3e3e3;}</style></defs><title>Lacteos</title><g class="cls-1"><g id="Capa_3" data-name="Capa 3"><rect class="cls-2" x="8.23" y="16.47" width="762.3" height="79.99"/><rect class="cls-3" width="777.59" height="21.18" rx="6.59" ry="6.59"/></g><g id="Capa_8" data-name="Capa 8"><path class="cls-4" d="M260.79,99.83v34a7.58,7.58,0,0,1-7.58,7.59H235.32a7.59,7.59,0,0,1-7.59-7.59v-34a7.58,7.58,0,0,1,7.43-7.58V87h18.2v5.28A7.58,7.58,0,0,1,260.79,99.83Z" transform="translate(-161.74 -56.42)"/><path class="cls-5" d="M254.07,85.5v1.74H234.46V85.5a1.2,1.2,0,0,1,1.21-1.21h17.19A1.2,1.2,0,0,1,254.07,85.5Z" transform="translate(-161.74 -56.42)"/><path class="cls-6" d="M255.36,88.45a1.21,1.21,0,0,1-1.21,1.21H234.38a1.21,1.21,0,0,1-1.21-1.21,1.21,1.21,0,0,1,1.21-1.21h19.77A1.21,1.21,0,0,1,255.36,88.45Z" transform="translate(-161.74 -56.42)"/><rect class="cls-7" x="64.27" y="45.87" width="36.51" height="3.11" rx="1.26" ry="1.26"/><rect class="cls-7" x="64.27" y="69.4" width="36.51" height="3.12" rx="1.26" ry="1.26"/><rect class="cls-8" x="65.54" y="48.98" width="33.98" height="20.41"/><g class="cls-9"><path class="cls-4" d="M253.16,118.46c-2.31-.29-4-.67-6.29.34a11.19,11.19,0,0,0-2.05,1.35c.62-4.11,3.11-7.91,7.55-8.87,2.94-.59,7,.88,6.38,4.44C258.34,118.3,255.37,118.64,253.16,118.46Z" transform="translate(-161.74 -56.42)"/></g><g class="cls-9"><path class="cls-4" d="M246.37,120.09c1.24-1.07,3.55-1.15,5-.88s3.2,1.73,1.87,3.08C251.59,124.05,248.72,120.49,246.37,120.09Z" transform="translate(-161.74 -56.42)"/></g><g class="cls-9"><path class="cls-4" d="M244,118.45a6.07,6.07,0,0,1-1.06-5.83c.44-1.51,3-5.46,5.11-3.76,1.52,1.23-.62,3.72-1.44,4.68C245.38,115,244.22,116.48,244,118.45Z" transform="translate(-161.74 -56.42)"/></g><path class="cls-4" d="M235.27,120l1.19-5.61L234.21,120h-1.63v-5.06L231,120h-1l2.65-8.15a2.64,2.64,0,0,0-1.9,2.68,1.74,1.74,0,0,0,.16.81c-.82,0-1.27-.3-1.27-1.15,0-1.45,2-3,3.86-3a2.78,2.78,0,0,1,.81.11v6.83l2.6-6.83h1.86L237,120Z" transform="translate(-161.74 -56.42)"/><path class="cls-4" d="M241,114.07l-.85,4a2.71,2.71,0,0,0-.05.37c0,.26.12.45.6.45s1.09-.66,1.56-1h.41c-.55.54-1.89,2.12-2.81,2.12s-1.49-.4-1.49-1.29a3.68,3.68,0,0,1,.07-.61l.86-4Zm-.54-2.51a1,1,0,0,1,.95,1,.95.95,0,1,1-.95-1Z" transform="translate(-161.74 -56.42)"/><path class="cls-4" d="M244.84,111.7l-1.36,6.4a1.88,1.88,0,0,0-.06.38c0,.26.13.44.59.44s1.09-.66,1.56-1H246c-.55.54-1.89,2.12-2.81,2.12s-1.47-.4-1.47-1.29a2.85,2.85,0,0,1,.07-.61l1.31-6.16Z" transform="translate(-161.74 -56.42)"/><path class="cls-4" d="M250.8,114.07l-2.36,1.6.27,0a1.54,1.54,0,0,1,1.38,1.49,1,1,0,0,1,0,.28l-.15.68a3.31,3.31,0,0,0-.09.5c0,.2.09.34.45.34a1.05,1.05,0,0,0,.3,0c-.33,1-.83,1.09-1.23,1.09a1.15,1.15,0,0,1-1.21-1.3,3.16,3.16,0,0,1,.07-.6l.12-.55a2.46,2.46,0,0,0,0-.28c0-.38-.16-.73-.53-.73a1.15,1.15,0,0,0-.73.25l-.69,3.21h-1.71l1.72-8.06,1.76-.24-.88,4.14,2.25-1.77Z" transform="translate(-161.74 -56.42)"/><path class="cls-10" d="M261.26,105.4v20.41a1.26,1.26,0,0,1,1.26,1.27v.58a1.26,1.26,0,0,1-1.26,1.27h-.47v4.91a7.58,7.58,0,0,1-7.58,7.59H248c2.51,0,4.54-3.4,4.54-7.59v-34c0-4.14-2-7.5-4.44-7.58V89.66h.47c.4,0,.72-.54.72-1.21s-.32-1.21-.72-1.21h-.05V85.5c0-.68-.33-1.21-.72-1.21h5.11a1.21,1.21,0,0,1,1.21,1.21v1.74h.08a1.21,1.21,0,1,1,0,2.42h-.78v2.59a7.58,7.58,0,0,1,7.42,7.58v2.46h.47a1.25,1.25,0,0,1,1.26,1.26v.59A1.26,1.26,0,0,1,261.26,105.4Z" transform="translate(-161.74 -56.42)"/><rect class="cls-11" x="330.63" y="53.59" width="85.27" height="13.3" rx="4.14" ry="4.14"/><rect class="cls-12" x="341.73" y="33.76" width="63.08" height="24.26" rx="7.54" ry="7.54"/><path class="cls-13" d="M549.28,132.69a45,45,0,0,0-8.18-1.19,77.52,77.52,0,0,0-12.19.1c-3.33.24-4.61.52-8.75,1.08-14.39,1.92-33.91,4.53-36.15-1a3.46,3.46,0,0,1,0-2.39,4.65,4.65,0,0,1,4.63-4.64c15.18,0,36.14,0,62.41,0,0,0,33.89,0,34,3.81a2.51,2.51,0,0,1-.71,1.55c-.57.54-1.11.39-2,.75-1.36.55-1.13,1.33-2.42,2s-1.75,0-3.33.7c-1.32.6-1.14,1.18-2.36,1.61s-1.8-.25-3.18.25c-1.18.42-1,1-2.1,1.2-.9.17-1.25-.2-2.61-.09l-.61.08a6.37,6.37,0,0,0-.84.2,14.12,14.12,0,0,1-4.16-.11,27.83,27.83,0,0,1-5-1c-1.08-.46-1.16-.68-3.17-1.74A16.5,16.5,0,0,0,549.28,132.69Z" transform="translate(-161.74 -56.42)"/><path class="cls-12" d="M399,93.34v39.39c0,1.47-1.37,2.87-3.83,4.13v-8.33h-15V141a162.18,162.18,0,0,1-25,1.8c-24.19,0-43.79-4.5-43.79-10.06V93.34Z" transform="translate(-161.74 -56.42)"/><ellipse class="cls-14" cx="193.46" cy="36.92" rx="43.79" ry="10.06"/><path class="cls-15" d="M395.15,136.86l-15-1.81c0-1.94-.08-3.89-.13-5.83,0-1.35,0-2.71-.09-4.06l-.51-23.66-21.69-8.16-2.54-1,7.07,1L395,97.77Q395,117.32,395.15,136.86Z" transform="translate(-161.74 -56.42)"/><circle class="cls-14" cx="193.17" cy="59.79" r="5.18"/><circle class="cls-14" cx="343.88" cy="134.64" r="4.07" transform="translate(-27.48 382.26) rotate(-76.8)"/><circle class="cls-14" cx="158.73" cy="75.32" r="2.9"/><circle class="cls-14" cx="176.64" cy="64" r="2.9"/><circle class="cls-14" cx="339.81" cy="108.92" r="2.9" transform="translate(-177.64 24.22) rotate(-13.23)"/><path class="cls-14" d="M399,104.67v5.8a2.9,2.9,0,0,1,0-5.8Z" transform="translate(-161.74 -56.42)"/><path class="cls-14" d="M311.4,103.48a2.86,2.86,0,0,1,1.4-.36,2.9,2.9,0,0,1,0,5.8,2.86,2.86,0,0,1-1.4-.36Z" transform="translate(-161.74 -56.42)"/><path class="cls-14" d="M367.82,114a2.9,2.9,0,1,0,2.9-2.89A2.9,2.9,0,0,0,367.82,114Z" transform="translate(-161.74 -56.42)"/><path class="cls-16" d="M385.07,114a3.88,3.88,0,1,0,3.88-3.87A3.88,3.88,0,0,0,385.07,114Z" transform="translate(-161.74 -56.42)"/><circle class="cls-16" cx="222.56" cy="44.95" r="1.75"/><circle class="cls-16" cx="228.96" cy="73.87" r="1.75"/><path class="cls-16" d="M382.17,127.19a2,2,0,0,1-2,2H380c0-1.35,0-2.71-.09-4.06h.2A2,2,0,0,1,382.17,127.19Z" transform="translate(-161.74 -56.42)"/><circle class="cls-14" cx="323.99" cy="113.99" r="6.42" transform="translate(-177.41 6.65) rotate(-10.86)"/><circle class="cls-14" cx="367.2" cy="130.29" r="6.42" transform="translate(-57.02 361.82) rotate(-67.18)"/><ellipse class="cls-16" cx="340.8" cy="91.94" rx="2.25" ry="7.31" transform="translate(82.7 375.1) rotate(-89.25)"/><path class="cls-16" d="M360.05,90.22c-4,0-7.3-1.1-7.28-2.34s3.3-2.2,7.34-2.15,7.3,1.1,7.28,2.34S364.09,90.28,360.05,90.22Z" transform="translate(-161.74 -56.42)"/><ellipse class="cls-16" cx="387.45" cy="91.94" rx="2.25" ry="7.31" transform="translate(128.74 421.74) rotate(-89.25)"/><path class="cls-16" d="M352.76,99.48c-1.79,0-3.23-.49-3.23-1s1.47-1,3.25-1,3.23.49,3.23,1S354.54,99.5,352.76,99.48Z" transform="translate(-161.74 -56.42)"/><path class="cls-16" d="M324,98.49c-1.79,0-3.23-.49-3.22-1s1.46-1,3.24-1,3.23.48,3.23,1S325.79,98.51,324,98.49Z" transform="translate(-161.74 -56.42)"/><path class="cls-16" d="M372.71,90.93c-1.79,0-3.24-.49-3.23-1s1.46-1,3.25-1,3.23.48,3.22,1S374.49,91,372.71,90.93Z" transform="translate(-161.74 -56.42)"/><path class="cls-16" d="M346.4,87.72c-1.79,0-3.23-.49-3.22-1s1.46-1,3.25-1,3.23.49,3.22,1S348.19,87.74,346.4,87.72Z" transform="translate(-161.74 -56.42)"/><path class="cls-16" d="M323.35,92.31c-2.49,0-4.5-.68-4.49-1.44s2-1.36,4.52-1.33,4.5.68,4.49,1.45S325.84,92.34,323.35,92.31Z" transform="translate(-161.74 -56.42)"/><path class="cls-17" d="M733.68,87.42l-.77-3-15,3.86c-.66.17-2.35.34-2.1,1.31l.58,2.26Z" transform="translate(-161.74 -56.42)"/><path class="cls-18" d="M727.23,89.36l-.91-3.52a.43.43,0,0,1,.31-.51l18.16-4.68A2.24,2.24,0,0,1,745.91,85l-18.17,4.67A.42.42,0,0,1,727.23,89.36Z" transform="translate(-161.74 -56.42)"/><path class="cls-19" d="M713.33,96.5a8.79,8.79,0,0,1-4.5,0,5.8,5.8,0,0,1-4.29-4l7.69-2,6.87-1.77C719.93,92,717.35,95.47,713.33,96.5Z" transform="translate(-161.74 -56.42)"/><path class="cls-20" d="M712.27,90.56a17,17,0,0,0-3.44,5.94c-2.65,7-3.36,16.25-3.36,16.25H688.54c3-16.28,16-20.25,16-20.25l7.69-2Z" transform="translate(-161.74 -56.42)"/><path class="cls-21" d="M698.74,114.19V139H687a25.83,25.83,0,0,1-14.32-24.77Z" transform="translate(-161.74 -56.42)"/><rect class="cls-22" x="525.29" y="82.54" width="11.71" height="3.97"/><path class="cls-23" d="M710.45,139H698.74V114.19h26A25.84,25.84,0,0,1,710.45,139Z" transform="translate(-161.74 -56.42)"/><rect class="cls-21" x="537" y="82.54" width="11.71" height="3.97"/><path class="cls-22" d="M724.61,115.64H672.87a1.45,1.45,0,1,1,0-2.89h51.74A1.45,1.45,0,0,1,724.61,115.64Z" transform="translate(-161.74 -56.42)"/><path class="cls-21" d="M692.35,109.24a2.42,2.42,0,1,1-2.42-2.42A2.41,2.41,0,0,1,692.35,109.24Z" transform="translate(-161.74 -56.42)"/><path class="cls-21" d="M698.33,109.24a2.42,2.42,0,1,1-2.41-2.42A2.41,2.41,0,0,1,698.33,109.24Z" transform="translate(-161.74 -56.42)"/><path class="cls-21" d="M704.32,109.24a2.42,2.42,0,1,1-2.42-2.42A2.42,2.42,0,0,1,704.32,109.24Z" transform="translate(-161.74 -56.42)"/><path class="cls-21" d="M710.3,109.24a2.42,2.42,0,1,1-2.42-2.42A2.41,2.41,0,0,1,710.3,109.24Z" transform="translate(-161.74 -56.42)"/><path class="cls-21" d="M695.34,103.28a2.42,2.42,0,1,1-2.42-2.41A2.42,2.42,0,0,1,695.34,103.28Z" transform="translate(-161.74 -56.42)"/><path class="cls-21" d="M701.32,103.28a2.42,2.42,0,1,1-2.41-2.41A2.41,2.41,0,0,1,701.32,103.28Z" transform="translate(-161.74 -56.42)"/><path class="cls-21" d="M707.31,103.28a2.42,2.42,0,1,1-2.42-2.41A2.42,2.42,0,0,1,707.31,103.28Z" transform="translate(-161.74 -56.42)"/><path class="cls-21" d="M698.33,97.33a2.42,2.42,0,1,1-2.41-2.42A2.42,2.42,0,0,1,698.33,97.33Z" transform="translate(-161.74 -56.42)"/><path class="cls-21" d="M704.32,97.33a2.42,2.42,0,1,1-2.42-2.42A2.43,2.43,0,0,1,704.32,97.33Z" transform="translate(-161.74 -56.42)"/><path class="cls-21" d="M708,89.35a2.42,2.42,0,1,1-2.42-2.41A2.42,2.42,0,0,1,708,89.35Z" transform="translate(-161.74 -56.42)"/><path class="cls-21" d="M714.56,86.94a2.42,2.42,0,1,1-2.42-2.42A2.42,2.42,0,0,1,714.56,86.94Z" transform="translate(-161.74 -56.42)"/><path class="cls-22" d="M682.09,120.65a2.12,2.12,0,1,1-2.12-2.12A2.12,2.12,0,0,1,682.09,120.65Z" transform="translate(-161.74 -56.42)"/></g><g id="Capa_10" data-name="Capa 10"><path class="cls-7" d="M897.72,118.32c-1.51-4.14-6.06-3.76-8.25-2.52.09-1.08.13-2.17.13-3.28H850.38c-.67,18.72,9.31,21.32,9.37,26.48H880c.31-4.54,5.47-5.68,7.66-13.24C896.12,129.12,899,121.92,897.72,118.32Zm-9,4a16.12,16.12,0,0,0,.39-3.18c1.9-1.88,6.35-2.74,6.86,1.21C896.47,124.53,888.87,126.72,888.69,122.32Z" transform="translate(-161.74 -56.42)"/><g class="cls-24"><path class="cls-25" d="M897.72,118.32c-1.51-4.14-6.06-3.76-8.25-2.52.09-1.08.13-2.17.13-3.28h-7.29c-.06,5.69-.55,11-4,16-1.92,2.71-7.52,6.6-6.36,10.53h8c.31-4.54,5.47-5.68,7.66-13.24C896.12,129.12,899,121.92,897.72,118.32Zm-9,4a16.12,16.12,0,0,0,.39-3.18c1.9-1.88,6.35-2.74,6.86,1.21C896.47,124.53,888.87,126.72,888.69,122.32Z" transform="translate(-161.74 -56.42)"/></g><g class="cls-26"><path class="cls-4" d="M866.83,99c-1.12,3.1-.19,4.94,1.61,7.24-5.65-2.6-5.38-9.45-1.84-13.13,3-3,6.43-7.62,3-11,4.16,2.12,3.93,7.22,2.11,10.31C870.31,94.71,867.76,96.62,866.83,99Z" transform="translate(-161.74 -56.42)"/></g><g class="cls-26"><path class="cls-4" d="M877.84,98.43c-2.47,2.46-4.66,4.24-5,6.56-2.35-3-.68-6.08,2.48-9.29,1.77-1.66,3.31-3.85,2.9-6A6.83,6.83,0,0,1,877.84,98.43Z" transform="translate(-161.74 -56.42)"/></g><path class="cls-27" d="M887.36,112.52H852.61c.12-.77.22-1.61.75-1.92s2.08-.06,2.8,0a5.82,5.82,0,0,0,3.19-.13,15.46,15.46,0,0,1,2.92-.91c1.1-.2,2.08-.46,3.18-.72,1.56-.38,2.36.26,3.72.92a5.33,5.33,0,0,0,3.18.19c1-.13,2-.07,3-.25,1.63-.46,2.6-1.18,4.43-.6,1.43.46,1.88,1.18,3.31.72,1.7-.46,1.89.13,3.12,1.17.46.39,1,.19,1.18,1A1.51,1.51,0,0,1,887.36,112.52Z" transform="translate(-161.74 -56.42)"/><path class="cls-28" d="M879.41,109.14a1,1,0,1,1-1-1A1,1,0,0,1,879.41,109.14Z" transform="translate(-161.74 -56.42)"/><path class="cls-28" d="M881.82,109.68a.95.95,0,1,1-.94-1A.94.94,0,0,1,881.82,109.68Z" transform="translate(-161.74 -56.42)"/><path class="cls-28" d="M864.91,108.76a1.35,1.35,0,1,1-1.35-1.34A1.35,1.35,0,0,1,864.91,108.76Z" transform="translate(-161.74 -56.42)"/><path class="cls-28" d="M862.37,110a.82.82,0,0,1-.81.82.82.82,0,0,1-.82-.82.82.82,0,0,1,.82-.81A.81.81,0,0,1,862.37,110Z" transform="translate(-161.74 -56.42)"/><path class="cls-4" d="M898.42,135.7c0,2.37-5.87,4.43-14.55,5.51H856.14c-8.68-1.08-14.55-3.14-14.55-5.51Z" transform="translate(-161.74 -56.42)"/><polygon class="cls-29" points="719.37 85.88 697.16 85.88 694.4 84.79 722.13 84.79 719.37 85.88"/><g class="cls-24"><path class="cls-25" d="M898.42,135.7c0,2.36-5.87,4.44-14.55,5.51h-8.36c4.91-.88,9.83-1.33,12.85-5.51Z" transform="translate(-161.74 -56.42)"/></g><path class="cls-4" d="M863.87,112.52c-1.07,2.52-1.23,6.55-3.48,7.1-4.27,1.09-5.76-3.72-6-7.1Z" transform="translate(-161.74 -56.42)"/><polygon class="cls-4" points="696.47 44.8 697.81 47.24 700.25 48.57 697.81 49.91 696.47 52.35 695.14 49.91 692.7 48.57 695.14 47.24 696.47 44.8"/><polygon class="cls-4" points="690.17 48.47 691.06 50.1 692.7 51 691.06 51.89 690.17 53.53 689.28 51.89 687.64 51 689.28 50.1 690.17 48.47"/></g></g></svg>