<svg xmlns="http://www.w3.org/2000/svg" viewBox="0 0 699.84 86.82"><defs><style>.cls-1{fill:#dad731;}.cls-2{fill:#e1c962;}.cls-3{fill:#f9f9e5;}.cls-4{fill:#dfe6ce;}.cls-5{fill:#f49294;}.cls-6{fill:#f17171;}.cls-7{fill:#fff;}.cls-8{fill:#aaa;}.cls-9{fill:#8e3222;}.cls-10{fill:#ce7229;}.cls-11{fill:#b54726;}.cls-12{fill:#e88873;}.cls-13{fill:#f0a291;}</style></defs><title>Carnes</title><g id="Capa_3" data-name="Capa 3"><rect class="cls-1" x="7.41" y="14.82" width="686.07" height="72"/><rect class="cls-2" width="699.84" height="19.06" rx="5.93" ry="5.93"/></g><g id="Capa_6" data-name="Capa 6"><path class="cls-3" d="M161.3,111.89a5.49,5.49,0,0,1-9.2-5.83l-12.59-1.92L140.59,97l11.9,1.81a5.49,5.49,0,0,1,8.91-3.28,5.48,5.48,0,0,1,.72,7.73,5.25,5.25,0,0,1-1.28,1.13A5.5,5.5,0,0,1,161.3,111.89Z" transform="translate(-34.34 -41.25)"/><path class="cls-4" d="M161.32,111.85a7.93,7.93,0,0,0-.11-4.18,11.82,11.82,0,0,0-.93-2,10.94,10.94,0,0,0,.78-2.44,4.94,4.94,0,0,0-8.61-3.93c-.59.64-1.08,1.3-1.64,1.89a41,41,0,0,0-4.08-1.12c-1.43-.18-2.75-.71-4.2-.44a6,6,0,0,0-2.51,1.07l.57-3.73,11.9,1.81a5.49,5.49,0,0,1,8.91-3.28,5.48,5.48,0,0,1,.72,7.73,5.25,5.25,0,0,1-1.28,1.13A5.49,5.49,0,0,1,161.32,111.85Z" transform="translate(-34.34 -41.25)"/><path class="cls-5" d="M81.2,104.6s7.67,9.25,29.28,9.11,22.83-10.32,36.66-7c0,0-2.24-1.87-1.8-3.49l4.82-.15-3.42-2.84s3.48-4,5.74-3c0,0-5.2-1.78-7.48-.78s1.68-13.78-24.84-29.27Z" transform="translate(-34.34 -41.25)"/><path class="cls-6" d="M85.49,102.56c9,10,24,9.5,35.94,6a118.76,118.76,0,0,0,17.23-6.83c.36-.17,4-1.73,2.13-1,.77-.28,1.55-.6,2.35-.82-1.42.47,3.27.25,1.33,0l2.38.36-.11.13,3.42,2.84-4.82.15c-.44,1.62,1.8,3.49,1.8,3.49-13.83-3.35-15,6.83-36.66,7S81.2,104.6,81.2,104.6l3.35-3.22C84.84,101.79,85.16,102.18,85.49,102.56Z" transform="translate(-34.34 -41.25)"/><path class="cls-5" d="M88.56,106.18c7.28.09,15.64-5.5,19.53-11A65.62,65.62,0,0,1,113,89.42c4.62-5,9.86-10.74,9.57-15.88A7.9,7.9,0,0,0,119.5,68a12.41,12.41,0,0,0-8.09-3.2c-6.66-.09-14.7,4.82-24.57,15-7.22,7.45-7.65,14.76-7.49,17.55s1.09,5.35,2.49,6.51a10.47,10.47,0,0,0,6.72,2.36Z" transform="translate(-34.34 -41.25)"/><path class="cls-6" d="M111.39,65.76a11.32,11.32,0,0,1,7.46,3,7,7,0,0,1,2.75,4.88c.27,4.71-5,10.5-9.31,15.15a66.82,66.82,0,0,0-5,5.88c-3.66,5.14-11.84,10.64-18.69,10.54a9.45,9.45,0,0,1-6.1-2.12c-.92-.76-2-2.68-2.13-5.79-.15-2.67.27-9.64,7.21-16.8,9.67-10,17.46-14.78,23.83-14.7Zm0-2c-8.6-.12-17.91,7.68-25.3,15.3-10,10.31-8.9,22.24-4.92,25.54a11.45,11.45,0,0,0,7.35,2.58c7.61.1,16.35-5.76,20.36-11.39,5.41-7.61,21.77-19.5,11.25-28.59a13.28,13.28,0,0,0-8.74-3.44Z" transform="translate(-34.34 -41.25)"/><path class="cls-3" d="M95,94.09c1.89-3,2.11-6.3.48-7.32s-4.48.61-6.37,3.64-2.11,6.3-.48,7.32S93.08,97.12,95,94.09Z" transform="translate(-34.34 -41.25)"/><path class="cls-5" d="M300.31,100.55c-.33,5,.34,10.08-5.1,12.26-9.23,3.69-21.39,5.12-31.23,5-8.1-.1-16.34-1.81-24.21-3.67-4.65-1.09-10.93-2.76-13.6-7.12-2.8-4.55-2-10.78-.07-15.44Z" transform="translate(-34.34 -41.25)"/><path class="cls-6" d="M299.93,103.32c4.5-7.67-4.81-13.23-10.41-14.2a65.16,65.16,0,0,1-9.9-2c-6.37-2.12-12.23-5.78-17.68-10-4.37-3.35-8.39-4.38-13.2-1.36-4,2.49-6.66,7-10.67,9.32-3.49,2-7.73,1.28-11.12,3.71-5.37,3.85-2.34,9.93,2,13,7.46,5.21,17.16,5.52,25.68,6,8.14.43,16.18,1.68,24.3,2.26C285.6,110.48,295.75,110.44,299.93,103.32Z" transform="translate(-34.34 -41.25)"/><path class="cls-7" d="M248.84,96.67c.54-2.81-8.12-5.42-10.07-5.28-2.56.18-5.31,1.56-4.12,4.55,1.32,3.31,7.17,3.14,10,2.68C245.67,98.45,248.56,98.11,248.84,96.67Z" transform="translate(-34.34 -41.25)"/><path class="cls-5" d="M256.77,90.86c-3-.54-11.4,1-9.8-4.49,1.15-3.94,6.54-6.33,10.23-5.11C262.85,83.11,264.8,92.29,256.77,90.86Z" transform="translate(-34.34 -41.25)"/><path class="cls-5" d="M257.92,105c-3.49,0-7.65-2-6.68-6.22.86-3.69,4.17-3.72,7.15-4.07,3.2-.38,5.8-2.23,8-4.47,4.1-4.2,6.92-.69,11.12,2,4,2.56,7,6,1.81,9.68C274,105.78,264.24,105,257.92,105Z" transform="translate(-34.34 -41.25)"/><path class="cls-5" d="M282.11,105.3c1.2-2.1,3.48-2.93,4.75-4.91s.43-3,.49-5.08c4.38-.78,8.2,1,8.23,5.9,0,3.11-2.2,4.7-5.07,5.15-1.88.3-6.6.54-8.4-.79Z" transform="translate(-34.34 -41.25)"/><path class="cls-5" d="M238.22,95.13c-1.12,1.51,4.85,3,6.7,1.91,3.46-2-4.15-3.21-5.61-2.62A2.57,2.57,0,0,0,238.22,95.13Z" transform="translate(-34.34 -41.25)"/><path class="cls-7" d="M258.32,95.27c3.73-.11,6.18-2.21,9.5-3.52a7.94,7.94,0,0,1,5.07-.59c1.65.44,2.88,2.22,4.44,2.57,3.51.79,1.11-2.93-.58-4.17a9.76,9.76,0,0,0-8.61-1.38c-3.48,1.3-6.55,4.67-9.56,6.82Z" transform="translate(-34.34 -41.25)"/><path class="cls-7" d="M254.89,90.87c-2.82-1.8-9.35-4.54-5-8.71-2.88.62-5.68,3.85-4.46,7,1.6,4.08,9.13,2.94,12.15,1.74Z" transform="translate(-34.34 -41.25)"/><path class="cls-7" d="M287.11,100.55c0,1.81-7.33,2.79-8.22,5.54,2.89,3.22,9.41.09,12.89.55-2.33-.78-5.07-.06-7.27-1.12-.9-1.73.27-3.1,1.8-3.92Z" transform="translate(-34.34 -41.25)"/><path class="cls-8" d="M649,77.6c-2.43.28-3.5-2.2-5.54-3,1.22-3.48,3.8-10.75-.67-10.4-3.42.26-6.8,9.7-2.16,11.29-1.71.7-6.06,6.72-4.75,10.34,1.56,4.32,5.08-4.51,6.26-6,2.09,3,5.12,5.32,7.93,4.87Z" transform="translate(-34.34 -41.25)"/><path class="cls-9" d="M673.82,115.53c-9.83-3-20.16-4.52-26.53-19.45-3.66-8.58-4.16-16.89,2.42-21.1,6.74-4.3,14.19-4.63,21.28-3.81,3.16.36,6.17,1.4,9.3,1.66a13.37,13.37,0,0,1,9.81,4.77Z" transform="translate(-34.34 -41.25)"/><path class="cls-6" d="M655.4,98.12c1.36,18.69,18.68,18.7,26.39,16.53,5.23-1.47,11.34-4.68,14.36-12.94,1.77-4.81,2.08-12.27.1-17.18-4.6-11.4-12.5-10.2-19.54-10.25-6,0-13.64,1.74-18.31,8.92C656,86.87,655,92.63,655.4,98.12Z" transform="translate(-34.34 -41.25)"/><path class="cls-5" d="M660.2,103.91c-4.87-6.86-.16-17,4.06-20.27a28.91,28.91,0,0,1,16.59-6.27c4.59-.12,12.84,1.86,13.56,12A48.46,48.46,0,0,1,693,102.49c-2.22,7.08-10.81,8.82-14.91,8.12C672.49,109.66,664.88,110.49,660.2,103.91Z" transform="translate(-34.34 -41.25)"/><path class="cls-7" d="M679.44,97.66c.7,3,2.42,3.58,4,2.09,2-1.93,2.11-8.56-.2-9.9C680.56,88.32,678.54,93.73,679.44,97.66Z" transform="translate(-34.34 -41.25)"/><path class="cls-8" d="M411.91,75.92c2.72-.75,5.32-2.63,8-3.78-3.57-.28-1-5.91,1.62-6.18,4.05-.42,4.58,3.85,1.74,5.9,2.06-.2,5.43,2.31,4,4.66-1.2,2-5.45.94-6.14-1.06-4.08.79-10.14,2.08-13.24,5.23Z" transform="translate(-34.34 -41.25)"/><path class="cls-10" d="M383.79,83.2c1.73-6.3,7.71-10.78,13.66-13,4.83-1.82,10,.21,14.44,2.44a6.35,6.35,0,0,1,3.94,5.31c-2.21,1-2.63,5.38-3.9,7.38-3.36,5.29-9.57,6.19-15.34,4.92Z" transform="translate(-34.34 -41.25)"/><path class="cls-11" d="M406.7,75.71c2.69.88,6.55,4.88,5.71,8.06-1,3.93-8.49,1.33-11.17,1-2.38-.33-4.78-.51-7.17-.61-1.76-.07-5,1.08-6.39-.36-1.71-1.77.5-4.86,2.19-5.84C394.35,75.31,401.81,74.1,406.7,75.71Z" transform="translate(-34.34 -41.25)"/><path class="cls-10" d="M365.72,90.85c2.14-3.51,5.07-6.66,7.82-7.52,2.49-.78,5.28-.87,7.84-1.71,11-3.62,26.95-8.34,34.16,5.69,2.81,5.47,5.15,16.08,1.34,21.57a32.24,32.24,0,0,1-11.57,10c-3.6,1.81-8.77.59-12.65.41-6.82-.32-17.35-.86-23.26-5.38-4.47-3.42-7.86-9.47-6.73-15.72A22.76,22.76,0,0,1,365.72,90.85Z" transform="translate(-34.34 -41.25)"/><path class="cls-11" d="M402,102.54c0-6.34,9.06-21.65,15.78-12.86C411,92.74,407,97.62,402,102.79Z" transform="translate(-34.34 -41.25)"/><path class="cls-11" d="M368.38,100.81c-3.71-4.34,4.91-10,7.81-11.34,1.66-.79,6-2.68,3.65.84-1.56,2.31-3.26,4.67-5,6.82C373.59,98.57,370,102.74,368.38,100.81Z" transform="translate(-34.34 -41.25)"/><path class="cls-11" d="M364,104.3c4,4.67,5.12,5.07,10.32,7.1,2.2.86,4.47,2.58,6.86,2.89,4.56.59,11.12-2.69,14.28-5.84,1.78-1.78,2.89-4.12,4.65-5.89.28,4,.54,5.48,2.8,8.72,1.67,2.41,3.52,4.29,5.31,6.57-3.21,3.62-9.69,2.91-14,2.41-5.59-.66-10.55-1.05-16.09-2.14-1.26-.25-4.21-1.7-5-1.11-2.66-2.33-13.09-9.85-9.93-14.24,2.18,1.26,2.28,3.9,4.27,5Z" transform="translate(-34.34 -41.25)"/><path class="cls-8" d="M424,90.24c2.87-.67,5.16-3.26,8-3.76-2.37-1.73-2.35-5.33.65-6.52s4.75,2.49,2.66,4.5c2.21.11,5.81,2.53,4.23,5-1.43,2.28-4.91.92-6.2-.91-2.72,2.47-7.34,3.5-10.55,5.42Z" transform="translate(-34.34 -41.25)"/><path class="cls-10" d="M423.13,87.47c6.73.53,4.75,11.28,3.93,15.31a23.5,23.5,0,0,1-8.27,13.94c-3.57,3-10,5.07-14.35,2.51-5.46-3.18-6.32-13.73-4.9-19.16,1.58-6.06,8.11-9.58,13.75-11.21A27.67,27.67,0,0,1,423.13,87.47Z" transform="translate(-34.34 -41.25)"/><path class="cls-12" d="M518.27,87.73c9-5.27,20.55-13.59,31.53-10.5,7.31,2,13.43,8.38,6,14.29s-17,11.4-25.44,15.65c-6.58,3.31-20.82,7-26.16-.28C497.87,98.28,512.84,90.93,518.27,87.73Z" transform="translate(-34.34 -41.25)"/><path class="cls-13" d="M530.28,82.34a31.94,31.94,0,0,1,13-3.82c2.64-.16,9.22.71,10.44,3.49.76,1.74-.91,5.08-1.8,6.52-2.56,4.13-7.44,6.4-11.62,8.48-7,3.49-16.07,9.33-24.11,9.75-5.74.3-11.46-4.08-7.87-10C512.62,89.79,523.33,86,530.28,82.34Z" transform="translate(-34.34 -41.25)"/><path class="cls-7" d="M504.91,101.66a28.73,28.73,0,0,1,8.69-5.77c-2.77,1.84-6.91,3.5-9.08,6Z" transform="translate(-34.34 -41.25)"/><path class="cls-7" d="M553.92,81c-1.38-1.56-6.57,2.57-7.77,3.36,2.08-1.26,5.33-3.24,7.77-3.36Z" transform="translate(-34.34 -41.25)"/><path class="cls-7" d="M519,103.82c.38-1.33,2.38-2.56,3.55-3.14s3.26-1.53,4.57-1.44a61.83,61.83,0,0,0-8.25,4.64Z" transform="translate(-34.34 -41.25)"/><path class="cls-7" d="M529.05,85.35a15.83,15.83,0,0,1,7.89-2.82c-2,1-4.1,1.62-6.07,2.58a12.88,12.88,0,0,1-3.62,1.53Z" transform="translate(-34.34 -41.25)"/><path class="cls-7" d="M544,91.41c0-.13.25,0,.08-.19-1.48-.25-3.19,1.37-4.25,2.21A24.67,24.67,0,0,1,542.41,92a7.83,7.83,0,0,1,3-.82Z" transform="translate(-34.34 -41.25)"/><path class="cls-7" d="M522.87,92.19c-.79-.73-2.43,1.12-2.84,1.72A9.58,9.58,0,0,1,523,92.22Z" transform="translate(-34.34 -41.25)"/><path class="cls-7" d="M508.25,106.41c-.09-1.55,2.59-2.18,3.51-2.06-1.06-.06-2.85,1.4-3.64,2.12Z" transform="translate(-34.34 -41.25)"/><path class="cls-12" d="M530.82,95.74a25.77,25.77,0,0,0,3-1.37c.52-.27.14-1.11-.38-.83a27.45,27.45,0,0,1-3,1.36c-.55.21-.17,1,.38.84Z" transform="translate(-34.34 -41.25)"/><path class="cls-12" d="M541.33,81s.09-.07,0,0l-.16.1a4,4,0,0,1-.44.27c-.34.19-.68.38-1,.55a.46.46,0,0,0,.38.83,12.91,12.91,0,0,0,1.16-.62c.26-.15.68-.32.84-.59.31-.5-.43-1-.74-.54Z" transform="translate(-34.34 -41.25)"/><path class="cls-12" d="M528.45,87.43a3.38,3.38,0,0,0-1.16.6.46.46,0,0,0-.07.65.47.47,0,0,0,.64.07,2.44,2.44,0,0,1,.75-.42.46.46,0,0,0,.37-.53.46.46,0,0,0-.53-.37Z" transform="translate(-34.34 -41.25)"/><path class="cls-12" d="M520.71,88.87a4,4,0,0,0-2,1.39c-.43.4.14,1.11.58.71s.93-1.1,1.58-1.19a.46.46,0,0,0-.16-.91Z" transform="translate(-34.34 -41.25)"/><path class="cls-12" d="M509.24,96.88l.13-.06a.46.46,0,0,0,.23-.61A.47.47,0,0,0,509,96l-.13.06a.48.48,0,0,0-.23.61.47.47,0,0,0,.61.23Z" transform="translate(-34.34 -41.25)"/><path class="cls-12" d="M507.32,99.87a5.78,5.78,0,0,1,1-.51.46.46,0,0,0-.38-.84,7.57,7.57,0,0,0-1.19.64.46.46,0,0,0-.07.64.47.47,0,0,0,.65.07Z" transform="translate(-34.34 -41.25)"/><path class="cls-12" d="M509.17,101.61a13.64,13.64,0,0,0-1.56,1c-.47.36.11,1.07.58.71a12.35,12.35,0,0,1,1.35-.92.45.45,0,0,0-.37-.83Z" transform="translate(-34.34 -41.25)"/><path class="cls-12" d="M517.67,98.53A12.51,12.51,0,0,1,520,97.2c.56-.16.42-1.07-.15-.9a12.93,12.93,0,0,0-2.59,1.39c-.51.29-.14,1.13.38.84Z" transform="translate(-34.34 -41.25)"/><path class="cls-12" d="M513.29,107.56c.79-.37,1.49-.9,2.24-1.33.51-.3.14-1.14-.38-.84-.75.44-1.45,1-2.24,1.33a.46.46,0,0,0,.38.84Z" transform="translate(-34.34 -41.25)"/><path class="cls-12" d="M522.24,101.63l-.08,0-.13.08h0l-.11.06s0,0,0,0l-.09,0a.47.47,0,0,0-.38.53.48.48,0,0,0,.53.38,1.44,1.44,0,0,0,.4-.13l.2-.13,0,0a.47.47,0,0,0,.23-.6.46.46,0,0,0-.61-.23Z" transform="translate(-34.34 -41.25)"/><path class="cls-12" d="M540.77,86.58c-1.27.59-2.48,1.28-3.75,1.86a.46.46,0,0,0,.38.84c1.27-.58,3.91-2.94,3.37-2.7Z" transform="translate(-34.34 -41.25)"/><path class="cls-12" d="M551.41,79.17a6.33,6.33,0,0,1-1.55.35.48.48,0,0,0-.5.42.46.46,0,0,0,.42.5,7.22,7.22,0,0,0,1.78-.36.48.48,0,0,0,.38-.53.46.46,0,0,0-.53-.38Z" transform="translate(-34.34 -41.25)"/><path class="cls-12" d="M554.84,84l-1.47.42a.48.48,0,0,0-.38.53.46.46,0,0,0,.53.38l1.47-.43a.48.48,0,0,0,.38-.53.46.46,0,0,0-.53-.37Z" transform="translate(-34.34 -41.25)"/><path class="cls-12" d="M540.36,95.58a12.49,12.49,0,0,1-2.47,1.26c-.55.2-.17,1,.38.83a13,13,0,0,0,2.67-1.38c.5-.33-.09-1-.58-.71Z" transform="translate(-34.34 -41.25)"/></g></svg>