<svg xmlns="http://www.w3.org/2000/svg" viewBox="0 0 553.96 450.84"><defs><style>.cls-1{isolation:isolate;}.cls-2{fill:#c4c5ae;opacity:0.5;}.cls-2,.cls-5{mix-blend-mode:multiply;}.cls-3{fill:#efefef;}.cls-4,.cls-5{fill:#eaebe3;}.cls-6{fill:#d1eef5;}.cls-7{fill:#ff9600;}.cls-8{fill:#e6f5f9;opacity:0.14;}.cls-9{fill:#fff;opacity:0.25;}.cls-10{fill:#a5a088;}.cls-11{fill:#84806f;}.cls-12{fill:#773823;}.cls-13{fill:#5b2d18;}.cls-14{fill:#d1d1d1;}.cls-15{fill:#823b27;}.cls-16{fill:#4c2312;}.cls-17{fill:#c9bdbc;}.cls-18{fill:#b5a3a0;}.cls-19{fill:#6b5b59;}</style></defs><title>Cena</title><g class="cls-1"><g id="Capa_3" data-name="Capa 3"><g id="Cena"><circle class="cls-2" cx="214.47" cy="254.64" r="196.2"/><circle class="cls-3" cx="196.2" cy="229.63" r="196.2"/><circle class="cls-4" cx="196.2" cy="229.63" r="145.23"/><path class="cls-5" d="M1415.51,866.38a145.19,145.19,0,0,1,245.18-105.31,145.19,145.19,0,1,0-214.33,194.74A144.55,144.55,0,0,1,1415.51,866.38Z" transform="translate(-1350.11 -620.88)"/><path class="cls-6" d="M1903.56,620.88V826.53a15.14,15.14,0,0,1-15.12,15.13h-99.51a15.12,15.12,0,0,1-15.12-15.13V620.88h8V812.44c0,7.77,5.92,14.09,13.27,14.09h87.23c7.32,0,13.27-6.32,13.27-14.09V620.88Z" transform="translate(-1350.11 -620.88)"/><path class="cls-7" d="M1895.57,682.88V812.44c0,7.77-6,14.09-13.27,14.09h-87.23c-7.35,0-13.27-6.32-13.27-14.09V682.73c35.08-5.33,75.12.15,109.66.15Z" transform="translate(-1350.11 -620.88)"/><path class="cls-8" d="M1904.07,620.88V826.53a15.14,15.14,0,0,1-15.13,15.13h-99.5a15.12,15.12,0,0,1-15.12-15.13V620.88Z" transform="translate(-1350.11 -620.88)"/><rect class="cls-9" x="438.05" width="40.32" height="220.78"/><path class="cls-10" d="M1723.9,653.73c-9-4-21.75,2.24-28.43,13.41l-48,80.79L1614,804.16a10.23,10.23,0,0,0-1.23,3.05,13,13,0,0,0,4.61,13.15l8.42-13.15,33.37-52.15,49.18-76.89a5.75,5.75,0,0,1,6.17-9.65l9.44-14.73v0S1723.93,653.73,1723.9,653.73Zm.06,0,3.08,2A12.58,12.58,0,0,0,1724,653.76Z" transform="translate(-1350.11 -620.88)"/><path class="cls-11" d="M1724,686.7l-93.54,136.24c-1,.7-7.89,1.48-13-2.48,0,0-.07-.05-.07-.09l91-142.21a2.84,2.84,0,0,0,.38.27,5.74,5.74,0,1,0,6.19-9.67,2.46,2.46,0,0,0-.41-.23l9.44-14.76,3.1,2C1733.27,661.27,1732.94,673,1724,686.7Z" transform="translate(-1350.11 -620.88)"/><path class="cls-12" d="M1556.87,830V961.09H1483.1s-.06,0-.06-.06c-.12-.27-.27-.54-.36-.81a26.28,26.28,0,0,1-1.53-17.55A168.1,168.1,0,0,1,1433,910.53c-1.23-1.17-2.42-2.37-3.59-3.57-20.76-21.27-34.69-47.78-38.85-77Z" transform="translate(-1350.11 -620.88)"/><path class="cls-13" d="M1556.87,961.1v16.56H1510.2c-11.42,0-22.16-6.27-27.1-16.56Z" transform="translate(-1350.11 -620.88)"/><path class="cls-14" d="M1556.87,719.74v87.47H1399.28s0-.09.06-.12c9-18.21,31-29,51-25,4.89-22.26,28-38.88,50.66-36.36-1.26-.15,3.71-8.84,4.25-9.47a19.66,19.66,0,0,1,10-6c2.75-.66,5.69.27,8.38-.39,5.6-1.35,10.61-6.08,16-8.18A31.62,31.62,0,0,1,1556.87,719.74Z" transform="translate(-1350.11 -620.88)"/><path class="cls-15" d="M1556.87,807.21V830H1390.54a129.39,129.39,0,0,1-1.32-18.46v0a4.36,4.36,0,0,1,4.34-4.32Z" transform="translate(-1350.11 -620.88)"/><path class="cls-15" d="M1720.45,807.23l-.25,0H1556.87V830h166.34a128.08,128.08,0,0,0,1.32-18.44v-.06A4.31,4.31,0,0,0,1720.45,807.23Z" transform="translate(-1350.11 -620.88)"/><path class="cls-13" d="M1632.63,942.66a26.48,26.48,0,0,1-1.9,18.38s0,0,0,.06h-73.83V830h166.34C1716.17,879.35,1681.23,921.05,1632.63,942.66Z" transform="translate(-1350.11 -620.88)"/><path class="cls-16" d="M1630.7,961.1c-5,10.29-15.73,16.56-27.16,16.56h-46.67V961.1Z" transform="translate(-1350.11 -620.88)"/><path class="cls-17" d="M1720.45,807.24c-.09,0-.18,0-.23,0H1556.87V719.74a8.1,8.1,0,0,1,1,.18c3.72.78,13.27,3.36,17.37,7.37a4.64,4.64,0,0,0,5.67.36c3.23-2.06,7.21-1.53,12.52-.54,10.06,1.89,20.16,3.75,30.22,5.63,5.39,1,12.76,5.28,16.51,9.32a41.23,41.23,0,0,0,7.3,5.87c3.69,2.46,7.85,4.86,11.75,7.13,1.38.81,2.69,1.59,3.95,2.37a62.42,62.42,0,0,1,5.81,4c.81.66,1.62,1.32,2.43,2,7.07,5.69,14.47,11.53,18.69,19.47a9.5,9.5,0,0,0,7,4.79c10.48,1.47,21,4.94,23.15,17.26C1720.36,805.62,1720.39,806.43,1720.45,807.24Z" transform="translate(-1350.11 -620.88)"/><rect class="cls-18" x="154.19" y="150.71" width="2.3" height="5.98"/><rect class="cls-18" x="1469.06" y="785.62" width="2.3" height="5.98" transform="translate(-1249.65 1120.19) rotate(-63.02)"/><rect class="cls-18" x="1481.99" y="752.96" width="2.3" height="5.98" transform="translate(-1213.92 1113.28) rotate(-63)"/><rect class="cls-18" x="1526.61" y="754.8" width="5.98" height="2.3" transform="translate(-1397.49 786.42) rotate(-48.74)"/><path class="cls-18" d="M1434.73,793.44a2.88,2.88,0,1,1-2.88-2.88A2.88,2.88,0,0,1,1434.73,793.44Z" transform="translate(-1350.11 -620.88)"/><path class="cls-18" d="M1529.64,796.31a2.88,2.88,0,1,1-2.88-2.87A2.88,2.88,0,0,1,1529.64,796.31Z" transform="translate(-1350.11 -620.88)"/><path class="cls-19" d="M1590,735.13a2.88,2.88,0,1,1-2.87-2.87A2.88,2.88,0,0,1,1590,735.13Z" transform="translate(-1350.11 -620.88)"/><path class="cls-19" d="M1604.69,783.35a2.88,2.88,0,1,1-2.88-2.87A2.87,2.87,0,0,1,1604.69,783.35Z" transform="translate(-1350.11 -620.88)"/><path class="cls-19" d="M1632.75,766.37a2.88,2.88,0,1,1-2.88-2.88A2.87,2.87,0,0,1,1632.75,766.37Z" transform="translate(-1350.11 -620.88)"/><path class="cls-19" d="M1660.81,780.48a2.88,2.88,0,1,1-2.88-2.88A2.88,2.88,0,0,1,1660.81,780.48Z" transform="translate(-1350.11 -620.88)"/></g></g></g></svg>