<?xml version="1.0" encoding="utf-8"?>
<!-- Generator: Adobe Illustrator 22.0.0, SVG Export Plug-In . SVG Version: 6.00 Build 0)  -->
<svg version="1.1" id="Layer_1" xmlns="http://www.w3.org/2000/svg" xmlns:xlink="http://www.w3.org/1999/xlink" x="0px" y="0px"
	 viewBox="0 0 1280 799" style="enable-background:new 0 0 1280 799;" xml:space="preserve">
<style type="text/css">
	.st0{opacity:0.61;}
	.st1{fill:#D3D4D8;}
	.st2{opacity:0.8;}
	.st3{fill:#90AEA8;}
	.st4{fill:#B5D8BB;}
	.st5{fill:#ECECEC;}
	.st6{fill:#FFFFFF;}
	.st7{fill:#64A74A;}
	.st8{fill:#7A4D05;}
	.st9{fill:#A06920;}
	.st10{fill:#B1B1B1;}
	.st11{fill:#3C3C3B;}
	.st12{fill:#C6C6C5;}
	.st13{fill:#31A6C9;}
	.st14{fill:#54B9D1;}
	.st15{fill:#575756;}
	.st16{fill:#868686;}
	.st17{fill:#C6701A;}
	.st18{fill:#E58128;}
	.st19{fill:#D9D9D9;}
	.st20{fill:#5B3F09;}
	.st21{fill:url(#SVGID_1_);}
	.st22{fill:#D1EEF5;}
	.st23{fill:#FF9600;}
	.st24{opacity:0.14;fill:#E6F5F9;enable-background:new    ;}
	.st25{opacity:0.25;fill:#FFFFFF;enable-background:new    ;}
	.st26{fill:#492101;}
	.st27{fill:#C2CA27;}
	.st28{fill:#DDDD45;}
	.st29{opacity:0.7;fill:#C2CA27;enable-background:new    ;}
	.st30{fill:#66AE24;}
	.st31{fill:#F1A848;}
	.st32{fill:#F7C56B;}
	.st33{fill:#E38238;}
	.st34{fill:#E89C49;}
	.st35{fill:#B36124;}
	.st36{fill:#D3712F;}
	.st37{fill:#E89842;}
	.st38{fill:#240D00;}
	.st39{fill:#FAF2F2;}
	.st40{fill:#07A1C7;}
	.st41{fill:#28AECF;}
	.st42{fill:#F2F2F2;}
	.st43{fill:#5AC1DA;}
	.st44{opacity:0.46;}
	.st45{opacity:0.37;fill:#8D999C;enable-background:new    ;}
	.st46{fill:#9DD5E9;stroke:#7C7C7C;stroke-miterlimit:10;}
	.st47{fill:#3F5FFC;}
	.st48{fill:#ABB9ED;}
	.st49{fill:#607EEA;}
	.st50{fill:#C0E7F1;}
	.st51{opacity:0.55;}
	.st52{fill:#6B7072;}
	.st53{fill:#349980;}
	.st54{opacity:0.52;fill:#C1A98A;enable-background:new    ;}
	.st55{opacity:0.28;fill:#F2F2F2;enable-background:new    ;}
	.st56{opacity:0.33;}
	.st57{fill:#81878A;}
	.st58{fill:#BBABA7;}
	.st59{fill:#FECC75;}
	.st60{fill:#FDBB65;}
	.st61{fill:#E1A65A;}
	.st62{opacity:0.47;}
	.st63{fill:#D3B9AF;}
	.st64{opacity:0.57;}
	.st65{opacity:0.51;}
	.st66{opacity:0.75;}
	.st67{fill:#FEE391;}
	.st68{fill:#FECC67;}
	.st69{fill:#FEBB56;}
	.st70{fill:#E2A635;}
	.st71{opacity:0.59;}
	.st72{fill:#8F8984;}
	.st73{fill:#695201;}
	.st74{fill:#63B320;}
	.st75{fill:#FF8700;}
	.st76{opacity:0.6;fill:#FF8700;enable-background:new    ;}
	.st77{fill:#BF8443;}
	.st78{fill:#FFF45F;}
	.st79{fill:#C4C4C4;}
	.st80{clip-path:url(#SVGID_5_);}
	.st81{clip-path:url(#SVGID_11_);}
	.st82{clip-path:url(#SVGID_12_);}
	.st83{clip-path:url(#SVGID_13_);}
	.st84{clip-path:url(#SVGID_14_);}
	.st85{clip-path:url(#SVGID_15_);fill:#64BC2B;}
	.st86{clip-path:url(#SVGID_15_);fill:#522D1B;}
	.st87{clip-path:url(#SVGID_15_);fill:#C73C27;}
	.st88{clip-path:url(#SVGID_17_);}
	.st89{clip-path:url(#SVGID_21_);}
	.st90{clip-path:url(#SVGID_22_);}
	.st91{clip-path:url(#SVGID_23_);fill:#64BC2B;}
	.st92{clip-path:url(#SVGID_23_);fill:#522D1B;}
	.st93{clip-path:url(#SVGID_25_);}
	.st94{font-family:'MichailScript-Regular';}
	.st95{font-size:9.3266px;}
	.st96{clip-path:url(#SVGID_27_);}
	.st97{clip-path:url(#SVGID_29_);}
	.st98{clip-path:url(#SVGID_31_);}
	.st99{clip-path:url(#SVGID_38_);}
	.st100{clip-path:url(#SVGID_39_);}
	.st101{clip-path:url(#SVGID_40_);}
	.st102{clip-path:url(#SVGID_41_);}
	.st103{clip-path:url(#SVGID_42_);}
	.st104{clip-path:url(#SVGID_43_);fill:#E8BB00;}
	.st105{clip-path:url(#SVGID_43_);fill:none;stroke:#333333;stroke-width:0.2103;stroke-miterlimit:10;}
	.st106{clip-path:url(#SVGID_43_);fill:#00BC0D;}
	.st107{clip-path:url(#SVGID_43_);fill:#0F7BF2;}
</style>
<g class="st0">
	<title>Fondo</title>
	<g>
		<g id="Background">
			<rect class="st1" width="1280" height="799"/>
			<g class="st2">
				<rect x="1150.9" y="718.5" class="st3" width="111.1" height="69.3"/>
				<rect x="1025" y="718.5" class="st4" width="111.1" height="69.3"/>
				<rect x="899.1" y="718.5" class="st3" width="111.1" height="69.3"/>
				<rect x="773.2" y="718.5" class="st4" width="111.1" height="69.3"/>
				<rect x="646.2" y="718.5" class="st3" width="111.1" height="69.3"/>
				<rect x="520.3" y="718.5" class="st4" width="111.1" height="69.3"/>
				<rect x="394.3" y="718.5" class="st3" width="111.1" height="69.3"/>
				<rect x="268.4" y="718.5" class="st4" width="111.1" height="69.3"/>
				<rect x="142.4" y="718.5" class="st3" width="111.1" height="69.3"/>
				<rect x="16.5" y="718.5" class="st4" width="111.1" height="69.3"/>
				<rect x="16.5" y="639.7" class="st3" width="111.1" height="69.3"/>
				<rect x="142.4" y="639.7" class="st4" width="111.1" height="69.3"/>
				<rect x="268.4" y="639.7" class="st3" width="111.1" height="69.3"/>
				<rect x="394.3" y="639.7" class="st4" width="111.1" height="69.3"/>
				<rect x="520.3" y="639.7" class="st3" width="111.1" height="69.3"/>
				<rect x="773.2" y="639.7" class="st3" width="111.1" height="69.3"/>
				<rect x="899.1" y="639.7" class="st4" width="111.1" height="69.3"/>
				<rect x="646.2" y="639.7" class="st4" width="111.1" height="69.3"/>
				<rect x="1025" y="639.7" class="st3" width="111.1" height="69.3"/>
				<rect x="1150.9" y="641.1" class="st4" width="111.1" height="69.3"/>
				<rect x="1150.9" y="560.8" class="st3" width="111.1" height="69.3"/>
				<rect x="1025" y="560.8" class="st4" width="111.1" height="69.3"/>
				<rect x="899.1" y="560.8" class="st3" width="111.1" height="69.3"/>
				<rect x="773.2" y="560.8" class="st4" width="111.1" height="69.3"/>
				<rect x="646.2" y="560.8" class="st3" width="111.1" height="69.3"/>
				<rect x="520.3" y="560.8" class="st4" width="111.1" height="69.3"/>
				<rect x="394.3" y="560.8" class="st3" width="111.1" height="69.3"/>
				<rect x="268.4" y="560.8" class="st4" width="111.1" height="69.3"/>
				<rect x="142.4" y="560.8" class="st3" width="111.1" height="69.3"/>
				<rect x="16.5" y="560.8" class="st4" width="111.1" height="69.3"/>
				<rect x="16.5" y="482" class="st3" width="111.1" height="69.3"/>
				<rect x="142.4" y="482" class="st4" width="111.1" height="69.3"/>
				<rect x="268.4" y="482" class="st3" width="111.1" height="69.3"/>
				<rect x="394.3" y="482" class="st4" width="111.1" height="69.3"/>
				<rect x="520.3" y="482" class="st3" width="111.1" height="69.3"/>
				<rect x="773.2" y="482" class="st3" width="111.1" height="69.3"/>
				<rect x="899.1" y="482" class="st4" width="111.1" height="69.3"/>
				<rect x="646.2" y="482" class="st4" width="111.1" height="69.3"/>
				<rect x="1025" y="482" class="st3" width="111.1" height="69.3"/>
				<rect x="1150.9" y="483.5" class="st4" width="111.1" height="69.3"/>
				<rect x="1150.9" y="403.1" class="st3" width="111.1" height="69.4"/>
				<rect x="1025" y="403.1" class="st4" width="111.1" height="69.4"/>
				<rect x="899.1" y="403.1" class="st3" width="111.1" height="69.4"/>
				<rect x="773.2" y="403.1" class="st4" width="111.1" height="69.4"/>
				<rect x="646.2" y="403.1" class="st3" width="111.1" height="69.4"/>
				<rect x="520.3" y="403.1" class="st4" width="111.1" height="69.4"/>
				<rect x="394.3" y="403.1" class="st3" width="111.1" height="69.4"/>
				<rect x="268.4" y="403.1" class="st4" width="111.1" height="69.4"/>
				<rect x="142.4" y="403.1" class="st3" width="111.1" height="69.4"/>
				<rect x="16.5" y="403.1" class="st4" width="111.1" height="69.4"/>
				<rect x="16.5" y="324.3" class="st3" width="111.1" height="69.3"/>
				<rect x="142.4" y="324.3" class="st4" width="111.1" height="69.3"/>
				<rect x="268.4" y="324.3" class="st3" width="111.1" height="69.3"/>
				<rect x="394.3" y="324.3" class="st4" width="111.1" height="69.3"/>
				<rect x="520.3" y="324.3" class="st3" width="111.1" height="69.3"/>
				<rect x="773.2" y="324.3" class="st3" width="111.1" height="69.3"/>
				<rect x="899.1" y="324.3" class="st4" width="111.1" height="69.3"/>
				<rect x="646.2" y="324.3" class="st4" width="111.1" height="69.3"/>
				<rect x="1025" y="324.3" class="st3" width="111.1" height="69.3"/>
				<rect x="1150.9" y="325.8" class="st4" width="111.1" height="69.3"/>
				<rect x="1150.9" y="245.5" class="st3" width="111.1" height="69.3"/>
				<rect x="1025" y="245.5" class="st4" width="111.1" height="69.3"/>
				<rect x="899.1" y="245.5" class="st3" width="111.1" height="69.3"/>
				<rect x="773.2" y="245.5" class="st4" width="111.1" height="69.3"/>
				<rect x="646.2" y="245.5" class="st3" width="111.1" height="69.3"/>
				<rect x="520.3" y="245.5" class="st4" width="111.1" height="69.3"/>
				<rect x="394.3" y="245.5" class="st3" width="111.1" height="69.3"/>
				<rect x="268.4" y="245.5" class="st4" width="111.1" height="69.3"/>
				<rect x="142.4" y="245.5" class="st3" width="111.1" height="69.3"/>
				<rect x="16.5" y="245.5" class="st4" width="111.1" height="69.3"/>
				<rect x="16.5" y="166.7" class="st3" width="111.1" height="69.3"/>
				<rect x="142.4" y="166.7" class="st4" width="111.1" height="69.3"/>
				<rect x="268.4" y="166.7" class="st3" width="111.1" height="69.3"/>
				<rect x="394.3" y="166.7" class="st4" width="111.1" height="69.3"/>
				<rect x="520.3" y="166.7" class="st3" width="111.1" height="69.3"/>
				<rect x="773.2" y="166.7" class="st3" width="111.1" height="69.3"/>
				<rect x="899.1" y="166.7" class="st4" width="111.1" height="69.3"/>
				<rect x="646.2" y="166.7" class="st4" width="111.1" height="69.3"/>
				<rect x="1025" y="166.7" class="st3" width="111.1" height="69.3"/>
				<rect x="1150.9" y="168.1" class="st4" width="111.1" height="69.3"/>
				<rect x="1150.9" y="87.8" class="st3" width="111.1" height="69.3"/>
				<rect x="1025" y="87.8" class="st4" width="111.1" height="69.3"/>
				<rect x="899.1" y="87.8" class="st3" width="111.1" height="69.3"/>
				<rect x="773.2" y="87.8" class="st4" width="111.1" height="69.3"/>
				<rect x="646.2" y="87.8" class="st3" width="111.1" height="69.3"/>
				<rect x="520.3" y="87.8" class="st4" width="111.1" height="69.3"/>
				<rect x="394.3" y="87.8" class="st3" width="111.1" height="69.3"/>
				<rect x="268.4" y="87.8" class="st4" width="111.1" height="69.3"/>
				<rect x="142.4" y="87.8" class="st3" width="111.1" height="69.3"/>
				<rect x="16.5" y="87.8" class="st4" width="111.1" height="69.3"/>
				<rect x="16.5" y="9" class="st3" width="111.1" height="69.3"/>
				<rect x="142.4" y="9" class="st4" width="111.1" height="69.3"/>
				<rect x="268.4" y="9" class="st3" width="111.1" height="69.3"/>
				<rect x="394.3" y="9" class="st4" width="111.1" height="69.3"/>
				<rect x="520.3" y="9" class="st3" width="111.1" height="69.3"/>
				<rect x="773.2" y="9" class="st3" width="111.1" height="69.3"/>
				<rect x="899.1" y="9" class="st4" width="111.1" height="69.3"/>
				<rect x="646.2" y="9" class="st4" width="111.1" height="69.3"/>
				<rect x="1025" y="9" class="st3" width="111.1" height="69.3"/>
				<rect x="1150.9" y="10.5" class="st4" width="111.1" height="69.3"/>
			</g>
		</g>
		<g id="mesa">
			<g id="cocina">
				<rect x="705.6" y="621.6" class="st5" width="267.7" height="48.5"/>
				<rect x="705.6" y="364.4" class="st6" width="267.7" height="281.5"/>
				<path class="st7" d="M880.9,334.6c0,3.5,3.1,6.3,6.9,6.3s6.9-2.8,6.9-6.3s-3.1-6.3-6.9-6.3S880.9,331.1,880.9,334.6"/>
				<path class="st7" d="M884.9,320.9c-1.7,2.8-0.9,6.5,2,8.3c0.2,0.1,0.4,0.2,0.6,0.3c3.3,1.7,7.4,0.8,9.5-2.3
					c1.7-2.8,0.9-6.4-1.9-8.2c-0.2-0.1-0.4-0.3-0.7-0.4C891.1,316.9,887,317.8,884.9,320.9"/>
				<path class="st7" d="M896,310.9c-3,1.4-4.3,4.9-2.9,7.9c0.1,0.2,0.2,0.5,0.4,0.7c2.1,3,6.2,4,9.5,2.3c3-1.4,4.3-5,2.8-8
					c-0.1-0.2-0.2-0.4-0.3-0.6C903.4,310.1,899.3,309.1,896,310.9"/>
				<path class="st7" d="M911.2,307.2c-3.8,0-7,2.8-7,6.3s3.1,6.3,7,6.3s6.9-2.8,6.9-6.3S915,307.2,911.2,307.2"/>
				<path class="st7" d="M926.4,310.9c-3.3-1.7-7.4-0.8-9.5,2.3c-1.7,2.8-0.9,6.4,1.9,8.2c0.2,0.1,0.4,0.3,0.7,0.4
					c3.3,1.7,7.4,0.8,9.5-2.3c1.7-2.8,0.9-6.4-1.9-8.2C926.8,311.1,926.6,311,926.4,310.9"/>
				<path class="st7" d="M937.5,320.9c-2.1-3.1-6.2-4-9.5-2.3c-3,1.4-4.3,4.9-2.9,7.9c0.1,0.2,0.2,0.5,0.4,0.7
					c2.1,3.1,6.2,4.1,9.5,2.3c3-1.4,4.3-5,2.8-8C937.8,321.3,937.7,321.1,937.5,320.9"/>
				<path class="st7" d="M941.6,334.6c0-3.5-3.1-6.3-7-6.3s-6.9,2.8-6.9,6.3s3.1,6.3,6.9,6.3S941.6,338,941.6,334.6"/>
				<path class="st7" d="M911.2,313.5c12.9,0,23.4,9.5,23.4,21.1s-10.5,21.1-23.4,21.1s-23.4-9.5-23.4-21.1S898.3,313.5,911.2,313.5
					"/>
				<rect x="880.9" y="324" class="st8" width="60.7" height="32.8"/>
				<rect x="880.9" y="324" class="st9" width="30.3" height="32.8"/>
				<rect x="739.9" y="392.2" class="st10" width="61.9" height="11.4"/>
				<rect x="877.1" y="392.2" class="st10" width="61.9" height="11.4"/>
				<rect x="801.2" y="481" class="st10" width="12.6" height="55.9"/>
				<rect x="865.1" y="481" class="st10" width="12.6" height="55.9"/>
				<rect x="705.6" y="423.8" class="st5" width="267.7" height="5.9"/>
				<rect x="836.2" y="364.4" class="st5" width="6.6" height="281.5"/>
				<rect x="705.6" y="356.8" class="st11" width="267.7" height="15.1"/>
				<rect x="973.3" y="621.6" class="st12" width="287.1" height="48.5"/>
				<rect x="973.3" y="48.3" class="st13" width="287.1" height="597.5"/>
				<rect x="973.3" y="48.3" class="st14" width="143.5" height="597.5"/>
				<rect x="995.7" y="449.9" class="st15" width="12.6" height="102.2"/>
				<rect x="995.7" y="301.4" class="st15" width="12.6" height="102.2"/>
				<rect x="973.3" y="423.8" class="st16" width="287.1" height="5.9"/>
				<rect x="150.8" y="621.6" class="st5" width="248.3" height="48.5"/>
				<rect x="131.4" y="364.4" class="st6" width="267.7" height="281.5"/>
				<rect x="234.3" y="426.7" class="st5" width="6.6" height="219.1"/>
				<rect x="234.3" y="392.2" class="st10" width="61.9" height="11.4"/>
				<rect x="151.9" y="448.5" class="st10" width="61.9" height="11.4"/>
				<rect x="151.9" y="503.2" class="st10" width="61.9" height="11.3"/>
				<rect x="151.9" y="558" class="st10" width="61.9" height="11.3"/>
				<rect x="263.3" y="481" class="st10" width="12.6" height="55.9"/>
				<rect x="131.4" y="533.3" class="st5" width="106.2" height="5.9"/>
				<rect x="131.4" y="478.6" class="st5" width="106.2" height="5.9"/>
				<rect x="131.4" y="423.8" class="st5" width="267.7" height="5.9"/>
				<path class="st17" d="M205.9,317.2c7.8,22.9,31.4,39.6,59.4,39.6s51.6-16.7,59.4-39.6H205.9z"/>
				<path class="st18" d="M265.2,317.2h-59.4c7.8,22.9,31.4,39.6,59.4,39.6V317.2z"/>
				<rect x="112" y="356.8" class="st11" width="287.1" height="15.1"/>
				<rect x="399.1" y="621.6" class="st12" width="306.5" height="48.5"/>
				<rect x="547.4" y="361.3" class="st15" width="9.8" height="10.7"/>
				<path class="st15" d="M679.1,356.8H425.5c-9.3,0-16.8,6.8-16.8,15.1h9.8c0-3.5,3.1-6.3,6.9-6.3H679c3.8,0,6.9,2.8,6.9,6.3h9.8
					C695.9,363.6,688.4,356.8,679.1,356.8z"/>
				<rect x="399.1" y="372" class="st10" width="306.5" height="273.9"/>
				<path class="st15" d="M607.9,461.3H496.7c-3.5,0-6.3-2.5-6.3-5.7l0,0c0-3.1,2.8-5.7,6.3-5.7h111.2c3.5,0,6.3,2.5,6.3,5.7l0,0
					C614.2,458.8,611.4,461.3,607.9,461.3z"/>
				<path class="st19" d="M437.2,497.5v92c0,8.8,7.9,16,17.7,16h194.8c9.8,0,17.7-7.2,17.7-16v-91.9c0-8.8-7.9-16-17.7-16H454.9
					C445.1,481.5,437.2,488.7,437.2,497.5z"/>
				<path class="st5" d="M552.3,481.5h-97.4c-9.8,0-17.7,7.2-17.7,16v91.9c0,8.8,7.9,16,17.7,16h97.4V481.5z"/>
				<rect x="521.4" y="386.5" class="st12" width="61.9" height="22.7"/>
				<path class="st15" d="M472.8,397.9c0,6.3-5.6,11.4-12.6,11.4s-12.6-5.1-12.6-11.4s5.6-11.4,12.6-11.4S472.8,391.6,472.8,397.9"
					/>
				<path class="st15" d="M657,397.9c0,6.3-5.6,11.4-12.6,11.4s-12.6-5.1-12.6-11.4s5.6-11.4,12.6-11.4S657,391.6,657,397.9"/>
				<rect x="399.1" y="423.8" class="st16" width="306.5" height="5.9"/>
				<path class="st10" d="M505.2,281.6v31.6h-22.5c-4.3,0-7.8-3-7.8-6.7v-18.3c0-3.7,3.5-6.7,7.8-6.7L505.2,281.6 M509.2,277.6
					h-26.5c-6.5,0-11.8,4.8-11.8,10.7v18.3c0,5.9,5.3,10.7,11.8,10.7h26.5V277.6z"/>
				<path class="st10" d="M622,281.6c4.3,0,7.8,3,7.8,6.7v18.3c0,3.7-3.5,6.7-7.8,6.7h-22.5v-31.6H622 M622,277.6h-26.5v39.6H622
					c6.5,0,11.8-4.8,11.8-10.7v-18.3C633.8,282.4,628.5,277.6,622,277.6L622,277.6z"/>
				<path class="st10" d="M490.3,277.6v68.5c0,5.9,5.3,10.7,11.8,10.7h100.6c6.5,0,11.8-4.8,11.8-10.7v-68.5H490.3z"/>
				<path class="st12" d="M552.3,277.6h-62.1v68.5c0,5.9,5.3,10.7,11.8,10.7h50.3V277.6z"/>
			</g>
			<g id="mesa-2">
				<rect y="591.5" class="st20" width="1280" height="207.2"/>
				
					<linearGradient id="SVGID_1_" gradientUnits="userSpaceOnUse" x1="0" y1="607.3" x2="1279.8" y2="607.3" gradientTransform="matrix(1 0 0 1 0 30)">
					<stop  offset="1.000000e-02" style="stop-color:#3B2B16"/>
					<stop  offset="1" style="stop-color:#51390D"/>
				</linearGradient>
				<rect y="590.4" class="st21" width="1279.8" height="93.8"/>
			</g>
			<g id="Comidas">
				<g id="_Grupo_">
					<path class="st22" d="M318.3,511.1v157.4c0,6.4-5.2,11.6-11.6,11.6h-76.1c-6.4,0-11.6-5.2-11.6-11.5l0,0V511.1h6.1v146.6
						c-0.2,5.8,4.4,10.6,10.2,10.8h66.8c5.8-0.2,10.3-5,10.2-10.8V511.1H318.3z"/>
					<path class="st23" d="M312.2,558.5v99.2c0.2,5.8-4.4,10.6-10.2,10.8h-66.8c-5.8-0.2-10.3-5-10.2-10.8v-99.3
						c26.8-4.1,57.5,0.1,83.9,0.1H312.2z"/>
					<path class="st24" d="M318.7,511.1v157.4c0,6.4-5.2,11.6-11.6,11.6H231c-6.4,0-11.6-5.2-11.6-11.5l0,0V511.1H318.7z"/>
					<rect x="230" y="511.1" class="st25" width="30.9" height="169"/>
					<g id="_Grupo_2">
						<path id="_Trazado_" class="st26" d="M251.7,638.9l-0.9,1.4l-0.8,1.2l0.6-1.3c0.2-0.4,0.5-0.9,0.7-1.4
							c0.3-0.6,0.6-1.3,0.8-1.9c0.3-0.8,0.6-1.5,0.9-2.3c0.2-0.8,0.5-1.7,0.7-2.6c0-0.4,0.2-0.9,0.2-1.3c0.1-0.5,0.2-0.9,0.2-1.4
							v-0.1c0-1,0.2-2,0.2-3s0-2-0.1-2.9s-0.2-1.9-0.4-2.8c-0.2-0.9-0.4-1.8-0.6-2.6c-0.2-0.8-0.5-1.6-0.8-2.2
							c-0.4-1.1-0.9-2.1-1.5-3.1c-0.1-0.3-0.3-0.5-0.5-0.8l-0.2-0.3l3.2-1.9c0,0,0,0.1,0.2,0.4c0.2,0.2,0.3,0.6,0.5,1.1
							c0.5,1.2,0.9,2.5,1.2,3.8c0.2,0.8,0.4,1.7,0.6,2.6c0.2,0.9,0.3,1.9,0.3,2.9c0.1,1,0.1,2.1,0,3.1v0.3c0,0.4,0,0.8,0,1.3
							c0,0.4-0.1,1.1-0.2,1.6c0,0.2,0,0.3,0,0.5c-0.1,0.9-0.4,1.8-0.5,2.6l-0.2,0.6c-0.2,0.8-0.5,1.6-0.7,2.3s-0.7,1.8-1,2.6
							s-0.7,1.5-1.1,2.2C252.4,637.7,252.1,638.3,251.7,638.9z"/>
						<path id="_Trazado_2" class="st27" d="M212.2,702c-33.8-19.7-17.3-49,5.9-55.8c12.9-3.8,19.9-26.1,36.1-17.2l0.5,0.2l0.9,0.6
							c15,9.8-0.7,26.6,2.3,39.6C263.3,693.1,245.1,721.3,212.2,702z"/>
						<path class="st28" d="M244.8,629.8c-7,2-10.5,9.7-15.6,14.3c-6.7,6.1-16.2,6.6-22.4,13.1c-1.9,2,1.1,4.9,3,3
							c5.3-5.5,13.8-6.2,19.8-10.9c5.3-4.1,9.9-13.6,16.3-15.5c1.1-0.3,1.8-1.5,1.5-2.6C247.1,630.2,245.9,629.5,244.8,629.8
							L244.8,629.8z"/>
						<path class="st29" d="M255.6,630l-0.9-0.6l-0.5-0.2c-0.6-0.3-1.1-0.6-1.6-0.8c3.4,9.2-1.8,17.2-4.7,25.8
							c-2.8,8.1-2.5,16.5-3.9,25c-1.4,8.4-4.7,16.3-13,19.8c-8.4,3.5-17.4,1.6-25.7-1.6c2.2,1.7,4.5,3.3,6.9,4.7
							c32.9,19.2,51.1-9,45.7-32.5C255,656.5,270.6,639.8,255.6,630z"/>
						<path id="_Trazado_3" class="st30" d="M269.1,620.6c0,0-5.7,7.8-11.9,4.4c-0.2-0.1-0.5-0.3-0.7-0.5c-0.1-0.1-0.3-0.2-0.4-0.3
							c0.1-0.3,0.3-0.7,0.5-1c0.7-1.5,2-2.7,3.6-3.2C264.1,618.6,269.1,620.6,269.1,620.6z"/>
					</g>
				</g>
				<g id="_Grupo_3">
					<g id="_Grupo_4">
						<path id="_Trazado_4" class="st26" d="M277,632.9c0,0.6,0,1.2,0,1.6c0,0.9,0,1.4,0,1.4s0-0.5-0.2-1.4c0-0.4-0.1-1-0.2-1.6
							c-0.1-0.7-0.3-1.4-0.4-2c-0.2-0.8-0.4-1.6-0.6-2.4c-0.3-0.8-0.6-1.7-0.9-2.6c-0.2-0.4-0.4-0.8-0.6-1.2s-0.4-0.9-0.6-1.3v-0.1
							c-0.5-0.9-1-1.7-1.6-2.5c-0.5-0.8-1.1-1.6-1.8-2.3c-0.6-0.7-1.3-1.4-1.9-2.1c-0.7-0.7-1.4-1.2-2-1.7s-1.3-1-1.9-1.4
							c-1-0.6-2-1.2-3-1.7c-0.3-0.1-0.5-0.3-0.8-0.4L260,611l1.6-3.4l0.4,0.2c0.3,0.1,0.6,0.3,1,0.6c1.1,0.7,2.2,1.5,3.2,2.3
							c0.6,0.5,1.3,1.1,1.9,1.8c0.7,0.6,1.3,1.4,1.9,2.2c0.7,0.8,1.3,1.6,1.8,2.5c0.1,0.1,0.1,0.1,0.2,0.2c0.2,0.3,0.5,0.7,0.7,1.1
							c0.3,0.5,0.5,0.9,0.8,1.4c0.1,0.1,0.2,0.3,0.2,0.4c0.4,0.8,0.7,1.7,1.1,2.4l0.2,0.6c0.3,0.7,0.5,1.6,0.7,2.2
							c0.2,0.7,0.5,1.9,0.7,2.7s0.3,1.6,0.4,2.5C276.9,631.5,277,632.2,277,632.9z"/>
						<path id="_Trazado_5" class="st27" d="M281.3,707.3c-39,3.4-42.4-29.9-27.5-48.9c8.3-10.6,1.1-32.8,19.6-34.9h0.5h1.1
							c17.9-0.7,14.8,22.1,24.8,30.9C317.9,670.4,319.3,703.9,281.3,707.3z"/>
						<path class="st28" d="M266.1,629.5c-4.5,5.6-2.9,14-4.4,20.7c-1.9,8.8-9.4,14.8-10.7,23.7c-0.4,2.7,3.8,3.4,4.2,0.7
							c1.1-7.6,7.6-13.1,9.8-20.4c1.9-6.3,0.2-16.8,4.4-22.1c0.7-0.9,0.6-2.2-0.3-3C268.2,628.4,266.8,628.6,266.1,629.5
							L266.1,629.5z"/>
						<path class="st29" d="M275.1,623.3H274h-0.5c-0.6,0-1.2,0.2-1.8,0.3c8,5.5,8.5,15.1,11.1,23.8c2.4,8.2,7.5,15,11.2,22.6
							s5.6,16,0.8,23.7c-4.7,7.7-13.3,11.4-21.8,13.6c2.8,0.2,5.6,0.1,8.4-0.1c37.9-3.4,36.5-36.9,18.5-53
							C289.9,645.4,292.9,622.7,275.1,623.3z"/>
						<path id="_Trazado_6" class="st30" d="M280.6,607.9c0,0-0.1,9.7-7.1,10.5c-0.3,0-0.6,0-0.9,0h-0.5c-0.1-0.4-0.2-0.7-0.2-1.1
							c-0.3-1.6,0.1-3.3,1-4.7C275.3,609.1,280.6,607.9,280.6,607.9z"/>
					</g>
				</g>
				<g id="_Grupo_5">
					<path class="st31" d="M391.3,634.5c0,0,11.2,12.9,16.5,26.4c-6.1-9.2-24.6-26.4-24.6-26.4C385.9,634,388.7,634,391.3,634.5z"/>
					<path class="st31" d="M357.3,644.4c0,0,11.9,14.7,18,26.3c-13.7-5.7-26.4-26.3-26.4-26.3H357.3z"/>
					<path class="st31" d="M323,657.3c8.1,10.5,16.8,20.4,26.2,29.7c-18-6.1-32.8-29-32.8-29L323,657.3z"/>
					<path class="st31" d="M313.3,697.2c-9.7-3.2-18.2-9.4-24.1-17.8l2.8-2C292,677.4,302.9,687,313.3,697.2z"/>
					<path class="st32" d="M395.3,631.4c12.9,10.2,12.5,29.5,12.5,29.5c-5.3-13.5-16.5-26.4-16.5-26.4
						C392,632.2,395.3,631.4,395.3,631.4z"/>
					<path class="st32" d="M357.3,644.4l2.8-3.6c13.7,10.4,15.2,29.9,15.2,29.9C369.2,659.1,357.3,644.4,357.3,644.4z"/>
					<path class="st32" d="M323,657.3c0.8-1.8,3.8-3.1,3.8-3.1c19.3,9.9,22.4,32.8,22.4,32.8C339.8,677.7,331.1,667.8,323,657.3z"/>
					<path class="st32" d="M293.3,674.1c8.5,5.9,15.4,13.9,20.1,23.1l0,0c-10.4-10.2-21.3-19.8-21.3-19.8L293.3,674.1z"/>
					<path class="st33" d="M274.2,710.4c-6.9-15.1,15-31,15-31c5.9,8.4,14.4,14.6,24.1,17.8l0,0c-4.7-9.2-11.5-17.1-20-23.1
						c3.8-6.1,23.1-16,23.1-16s14.8,22.9,32.8,29c0,0-3.1-22.9-22.4-32.8c6.6-4.9,14.1-8.3,22.1-9.9c0,0,12.7,20.6,26.4,26.3
						c0,0-1.6-19.4-15.2-29.9c8.6-4.8,23.1-6.3,23.1-6.3s18.5,17.3,24.6,26.4c0,0,0.3-19.3-12.5-29.5c0,0,36.9-2.7,49.1,15.3
						s-21.7,40.3-62,55.2C329.7,721.4,284.4,732.8,274.2,710.4z"/>
				</g>
				<path class="st34" d="M444.6,661.8c0.1-2.7-0.5-5.4-1.7-7.9c-0.5-0.9-1.1-1.7-1.8-2.4c-0.4-0.3-0.7-0.7-1.1-1
					c-0.2-0.2-0.3-0.3-0.5-0.4c-0.3-0.2-0.6-0.6-0.8-0.7c-3.7-2.6-7.6-4.7-11.9-6.2c-4.6-1.7-9.6-3.3-14.8-5
					c-5.7-1.8-11.2-3.9-16.6-6.3V631c5.8-0.5,11.7-0.4,17.5,0.3c5.9,0.6,11.6,1.8,17.2,3.8s10.6,5.5,14.4,10.2
					c1.9,2.4,3.1,5.3,3.3,8.3c0.1,3-0.7,6-2.2,8.6L444.6,661.8z"/>
				<path class="st35" d="M292.7,722c7,0.2,13.9-0.5,20.7-2c6.8-1.3,13.6-2.9,20.3-5c6.6-2,13.3-4,19.9-6.2s13.2-4.5,19.8-6.9
					c13.2-4.4,26-9.6,38.6-15.6c6.2-3,12.3-6.4,18-10.3c5.9-3.6,11-8.4,15-14l0.3,0.2c-1.6,3.1-3.8,6-6.2,8.5
					c-2.5,2.5-5.1,4.8-7.9,6.9c-5.6,4.2-11.6,7.9-17.8,11.2c-12.5,6.5-25.4,12-38.7,16.6c-13.2,4.7-26.5,9.1-40.1,12.6
					c-6.8,1.8-13.7,3.2-20.6,4.2c-7,1.1-14,1.3-21,0.5L292.7,722z"/>
				<path class="st34" d="M289.5,679.8c-2,5.4-4.1,9.9-5.8,14c-1.5,3.2-2.5,6.7-2.9,10.2c-0.1,0.6-0.1,1.2,0,1.8
					c0,0.6,0.2,1.3,0.3,1.9c0.4,1.5,1,3,1.8,4.4c1.7,3.1,5.3,6.1,9.7,9.8l-0.1,0.9c-2.5-0.2-5-0.8-7.4-1.6c-2.4-0.9-4.7-2.1-6.7-3.8
					s-3.6-3.8-4.8-6.1c-1.2-2.4-1.7-5-1.6-7.6c0.6-5.2,2.7-10.1,6-14c3.1-4,6.8-7.5,10.9-10.4L289.5,679.8z"/>
				<path class="st32" d="M293.4,674.1c0.3,0.6,0.5,1.4,0.5,2.1c0,0.6-0.1,1.2-0.3,1.8l-0.2,0.5l-0.4,0.2c-0.5,0.3-1,0.6-1.6,0.7
					c-0.7,0.2-1.4,0.2-2.1,0.1l-0.1-0.1l2.7-2.1l0,0l1.3-3.3L293.4,674.1z"/>
				<path class="st34" d="M316.5,658.3c-1.1,2.4-2.6,4.6-4.4,6.4c-1.6,1.7-3.4,3.1-5.4,4.4c-1.9,1.2-3.9,2.2-6.1,3
					c-1.1,0.4-2.2,0.7-3.3,1.1c-1.1,0.4-2.3,0.6-3.8,1L293,674c1.3-2,3-3.7,5-5.1c1.9-1.5,3.8-2.8,5.8-4.1s4.1-2.4,6.1-3.6
					c2.1-1.2,4.1-2.3,6.2-3.3L316.5,658.3z"/>
				<path class="st32" d="M326.8,654.4c-0.5,0.8-1.1,1.5-1.6,2.1c-0.4,0.5-0.7,1-0.9,1.6l-0.2,0.7l-1,0.2c-0.5,0.1-1.1,0.2-1.7,0.2
					s-1.1,0-1.7,0c-1.2-0.1-2.4-0.4-3.4-0.9v-0.2l3.3-0.4c1.1-0.1,2.2-0.3,3.3-0.4l-0.1,0.1c0.4-0.8,1-1.4,1.7-1.9
					C325.2,655,326,654.6,326.8,654.4L326.8,654.4z"/>
				<path class="st34" d="M348.9,644.6c-2.5,3.4-5.8,6.1-9.6,7.8c-1.8,0.8-3.6,1.4-5.5,1.8c-2.3,0.4-4.6,0.5-6.9,0.3l-0.3-0.4
					c3.2-2.5,6.8-4.6,10.5-6.4c1.9-0.8,3.8-1.6,5.8-2.2c1.9-0.7,4-1.1,6-1.4V644.6z"/>
				<path class="st32" d="M360.2,640.9c-0.1,0.8-0.4,1.6-0.7,2.4c-0.3,0.7-0.6,1.4-1,2l-0.3,0.4l-0.9,0.1c-0.7,0.1-1.4,0.1-2.1,0.1
					s-1.4-0.1-2.1-0.2c-0.7-0.1-1.4-0.2-2.1-0.5c-0.7-0.2-1.4-0.5-2.1-0.9v-0.2c2.8,0,5.6-0.1,8.4,0h-0.1l2.8-3.5L360.2,640.9z"/>
				<path class="st34" d="M383.2,634.7c-1.5,1.8-3.3,3.2-5.3,4.4c-1.7,0.9-3.5,1.7-5.4,2.1c-1.9,0.5-3.8,0.7-5.7,0.7
					c-2.2,0-4.5-0.3-6.6-0.9l-0.3-0.5c1.7-1.1,3.6-1.9,5.5-2.6c1.9-0.7,3.8-1.3,5.8-1.8c1.9-0.5,3.9-0.9,5.9-1.2c2-0.4,4-0.6,6-0.7
					L383.2,634.7z"/>
				<path class="st32" d="M395.4,631.5c-0.6,0.6-1.2,1.2-1.8,1.9c-0.4,0.4-0.7,1-0.8,1.6l-0.2,1.3L391,636c-0.5,0-1.2-0.1-1.8-0.2
					c-0.6-0.1-1.3-0.2-1.9-0.2c-1.4-0.2-2.7-0.5-4.1-1v-0.2c1.3-0.2,2.7-0.4,4.1-0.4s2.8,0.1,4.1,0.3l-0.2,0.1
					c0.3-0.8,0.9-1.6,1.7-2c0.7-0.5,1.6-0.8,2.4-1L395.4,631.5z"/>
				<path class="st36" d="M313.3,697.3c-2.4-0.7-4.8-1.7-7.1-2.9c-2.3-1.2-4.5-2.5-6.5-4c-4.1-3-7.7-6.7-10.6-10.9l0.1-0.1
					c1,0.9,1.9,1.8,2.9,2.6s1.8,1.7,2.8,2.5c1.9,1.6,3.8,3.1,5.8,4.6c2,1.4,4,2.8,6.1,4.2S311,696,313.3,697.3L313.3,697.3z"/>
				<path class="st37" d="M293.3,674c2.5,1,4.8,2.3,6.9,3.9c2.1,1.6,4,3.4,5.7,5.4s3.2,4.2,4.5,6.5c0.6,1.2,1.2,2.3,1.7,3.5
					s0.9,2.5,1.2,3.7l-0.2,0.1c-2.4-4.6-5.3-8.8-8.7-12.7c-1.7-2-3.4-3.8-5.3-5.6s-3.9-3.4-6-4.8L293.3,674z"/>
				<path class="st37" d="M349.1,687.1c-0.6-3.4-1.5-6.7-2.8-9.8c-1.2-3.2-2.8-6.2-4.7-9.1c-3.7-5.8-8.8-10.6-14.8-13.8l0.1-0.2
					c1.7,0.5,3.3,1.2,4.8,2.1c1.5,0.9,3,1.9,4.4,3c2.7,2.3,5.1,4.9,7.1,7.9c1.9,3,3.4,6.2,4.5,9.5s1.7,6.8,1.7,10.3L349.1,687.1z"/>
				<path class="st36" d="M316.5,658c2.1,3.1,4.3,6,6.7,8.8c2.4,2.8,4.9,5.5,7.6,8c5.2,5.3,11.5,9.4,18.4,12.1v0.2
					c-1.9-0.3-3.7-0.9-5.4-1.6c-1.7-0.7-3.4-1.6-5.1-2.5c-3.2-2-6.2-4.3-9-6.9c-2.7-2.6-5.2-5.5-7.5-8.4c-1.1-1.6-2.2-3.1-3.1-4.7
					C318.1,661.5,317.2,659.8,316.5,658L316.5,658z"/>
				<path class="st37" d="M375.2,670.7c-0.7-5.7-2.3-11.2-4.8-16.4c-2.4-5.2-6-9.8-10.5-13.4l0.1-0.1c1.3,0.7,2.6,1.4,3.8,2.3
					c1.1,1,2.2,2,3.2,3.1c2,2.2,3.6,4.7,4.9,7.4s2.2,5.5,2.8,8.4C375.3,664.9,375.5,667.8,375.2,670.7L375.2,670.7z"/>
				<path class="st36" d="M349,644.3c3.4,5.3,7.3,10.3,11.6,14.8c2.1,2.3,4.4,4.5,6.8,6.5s5.1,3.7,8,5v0.2c-1.6-0.3-3.1-0.9-4.6-1.6
					c-1.4-0.7-2.8-1.6-4.2-2.5c-2.7-1.8-5.1-4-7.3-6.3c-2.2-2.3-4.2-4.9-5.9-7.5c-1.8-2.6-3.3-5.5-4.5-8.4L349,644.3z"/>
				<path class="st37" d="M407.8,660.9c-0.1-5.5-1.2-10.9-3.1-16.1c-1.9-5.2-5.1-9.8-9.4-13.3l0.1-0.1c1.3,0.6,2.5,1.4,3.6,2.3
					c1.1,1,2.1,2,3,3.1c1.8,2.2,3.3,4.7,4.3,7.4s1.7,5.4,2,8.3c0.3,2.8,0.2,5.7-0.3,8.5L407.8,660.9z"/>
				<path class="st36" d="M383.3,634.4c4.4,4.2,8.7,8.4,12.9,12.7c2.1,2.2,4.1,4.4,6.1,6.7s3.9,4.6,5.6,7.1l-0.1,0.1l-6.5-6.3
					c-2.2-2.1-4.2-4.2-6.3-6.3c-4.2-4.3-8.2-8.9-11.8-13.7L383.3,634.4z"/>
				<g>
					<path class="st38" d="M422.1,644.4c1.3,1.3,3.1,2.4,3.4,0c0.6,0.2,1.5,0,2.8-1.6l0,0c1.1,1.1,1.9-0.4,1.7-1.3
						c0.2-0.9-0.3-1.7-1.1-2.1c-1.1-1-3.7-0.8-4.1,0.5c0,0.2-0.1,0.5-0.2,0.8c-0.4-0.6-1.2-0.9-1.9-0.6c0.4-0.3,0.7-0.7,0.9-1.2
						c1.4-2.9-2.3-2.3-2.3-1c0,0.9,0.4,2.4,1.1,2.3c-0.2,0.1-0.4,0.3-0.6,0.4c-1.6-1.7-4.1-3-3.5,1.7
						C418.8,645.8,420.8,645.5,422.1,644.4z"/>
					<path class="st38" d="M428.7,655.9l-0.6,0.5c-0.2-0.2-0.5-0.3-0.8-0.3c0.6-0.7,0.7-1.5-1.2-1.6c0.2-0.9-0.3-1.8-1.1-2.3
						c-1-0.3-2.1-0.5-3.1-0.5l-0.5-0.3c-4.2-2.6-3.9,3.2-1.9,3.4c0.4,0,0.8,0,1.2,0c0.2,0.3,0.5,0.7,0.8,1c1.3,1.4,2.3,1.7,3.1,1.5
						c0.3,0.3,0.7,0.3,1.1,0.2c-0.4,1-0.2,2.2,0.6,2.6h0.1c0.5,0.4,1.2,0.6,1.9,0.5c0.4,0.1,0.8,0.1,1.2,0c1.1,1,2,0.1,2.2-1
						C433.2,657.8,430.2,654.9,428.7,655.9z"/>
					<path class="st38" d="M441.8,647.2c0.5-0.8,0-1.7-2.6-2.5c-4.9-1.6-4.1,3.2-2.2,4.3c-0.2,0.2-0.3,0.4-0.4,0.7
						c-0.4-0.6-1.1-1-1.9-1c-0.2-0.4-0.5-0.7-0.8-1c-1.9-1.8-2.9-0.6-3,0.7c-0.3,0.2-0.4,0.6-0.2,1.4c-1.6-0.1-2.9,0.3-0.8,2.5
						c0.8,0.9,1.5,1.1,1.9,0.9c0.3,1.7,1.3,2.7,3.9-0.2c0.7-0.7,1.1-1.5,1.2-2.5c0.7,0.8,1.7,1.4,2.8,1.7
						C445.6,654.4,444.3,647.6,441.8,647.2z"/>
					<path class="st38" d="M439.7,660.7c-1.6-1.1-5.5-2.4-3.2,1.8C438.7,666.8,441.3,661.8,439.7,660.7z"/>
					<path class="st38" d="M434.2,641.1c1.2,0.3,3.9,0.2,1.6-1.9C433.4,637.2,433,640.9,434.2,641.1z"/>
					<path class="st38" d="M429.2,637.2c2.3-2.6-1.8-3.1-2.1-1.7C426.7,636.9,426.8,639.8,429.2,637.2z"/>
					<path class="st38" d="M413.1,637.3c0.5,5.9,5.8,1.6,4.5-0.5C416.3,634.8,412.6,631.5,413.1,637.3z"/>
					<path class="st38" d="M409.6,644.1c1.7-0.6,4.9-2.8,0.5-3.5S407.9,644.7,409.6,644.1z"/>
					<path class="st38" d="M412.5,634.2c0.8-1.1,1.9-3.8-1.2-2.3C408.2,633.3,411.7,635.3,412.5,634.2z"/>
					<path class="st38" d="M403.5,636.3c0.7,0.2,1.5,0.2,2.2,0c-1.2,1.6-1.3,3.3,2.7,2.7c5.9-0.8,1.1-6-0.8-4.6
						c-0.5,0.4-0.9,0.8-1.4,1.2c0-0.3-0.3-0.8-1.1-1.5C402.5,631.9,402.2,636,403.5,636.3z"/>
					<path class="st38" d="M394.8,670.2c0.6-4.1-3.8-1.9-3.1-0.3S394.3,674.3,394.8,670.2z"/>
					<path class="st38" d="M403.4,643.2c0.3-1.2,0.2-3.7-1.8-1.5S403.1,644.4,403.4,643.2z"/>
					<path class="st38" d="M407.8,648.5c-0.1-0.1-0.3-0.3-0.5-0.4c-0.1-0.4-0.2-0.8-0.4-1.2c-0.2-0.5-0.4-1-0.7-1.4
						c0.1-0.2,0.2-0.4,0.3-0.7c1.9-4.1-3.3-3.1-3.2-1.4c0,0.4,0.1,0.9,0.2,1.3c-1.4-0.2-3,0.2-1,2.2l0.2,0.2
						c-0.1,0.4,0.1,0.9,0.4,1.2c0.5,0.5,1.1,0.8,1.7,1.1c0,0.5,0.2,1,0.7,1.2C407.2,651.2,410.5,651.4,407.8,648.5z"/>
					<path class="st38" d="M416.9,648.1c-0.2-0.6-0.6-1.1-1-1.6c0.2-1.3-0.2-2.3-1.5-2c-0.2-0.5-1-0.7-2.7,0
						c-2.2,0.9-2.1,2.1-1.3,2.9c-0.6,1.4,0.7,2.4,2,2.7c0.1,0.7,0.4,1.3,0.9,1.7c-0.1,0.1-0.1,0.3-0.2,0.4c-3-0.1-1.9,4.8,0.1,4.7
						s5-1,3.9-2.6c0.6-0.8,0.8-1.6-0.3-1.8c0-0.2-0.1-0.4-0.2-0.6C418.3,650.6,419.8,648.4,416.9,648.1z"/>
					<path class="st38" d="M405.3,654.7c-1.2-0.2-3.6,0.1-1.3,1.9C406.3,658.3,406.4,654.9,405.3,654.7z"/>
					<path class="st38" d="M417.2,660.9c0-0.1,0.1-0.2,0.2-0.4c1.7-4.5-3.5-3.3-3.7-1.5c-0.4,0.8-0.6,1.6-0.7,2.5
						c-0.6,6,5.6,2.6,4.7,0.3C417.6,661.6,417.4,661.2,417.2,660.9z"/>
					<path class="st38" d="M414.3,666.3c-0.7-0.4-1.4-0.7-2.2-0.9c0.4-2.3,0.1-5.6-3.4-2.1c-2.6,2.6-0.8,4,1,4.1
						c-0.2,0.3-0.4,0.9-0.2,2.1c0.4,2.9,2.4,2,3,0.7C414.5,670.8,415.7,667.1,414.3,666.3z"/>
					<path class="st38" d="M405.5,667.8c-2.4,3.5,2.6,3.5,2.8,1.8S407.9,664.3,405.5,667.8z"/>
					<path class="st38" d="M403.6,669.9c0.7-2-2.9-2.5-3.4-1.1s-0.7,4.3,1.2,3.3c0.1,0,0.2,0.1,0.3,0.1
						C403.2,672.4,406.2,671.7,403.6,669.9z"/>
					<path class="st38" d="M401.9,663.2c0-0.5-0.1-1-0.3-1.5c0.1,0,0.3,0,0.4,0c0.8-0.2,2-0.7,2.2-1.3c0.1,1,0.9,2,1.7,1.8
						c0.7-0.1,1.4-0.4,2-0.8c0.8,0.2,1.7,0.1,2-0.5c0.6-1.4,1-4.4-1.5-2.8l0,0c0.3-1.2,0.3-3.8-1.8-1.6c-1.6,1.7,0,2.4,1.1,2.2
						c-0.2,0.2-0.4,0.3-0.5,0.5l-0.5-0.2c-1.9-0.6-2.6,0.2-2.6,1.1c-0.1-0.3-0.5-0.6-1.6-0.9h-0.3c0-1-0.3-2-1.8-0.4l0,0
						c0,0,0-0.1,0-0.2c0.8-0.4,1-1.6-0.3-4c-0.2-0.4-0.5-0.8-0.8-1.2c0.2-1.6-0.9-3.8-2.3-3.7h-0.5c0.7-0.3,0.8-1.1-0.6-2.8
						c-3.1-3.6-4.5,1.7-2.7,2.4c0.8,0.3,1.6,0.5,2.4,0.5c-0.5,0.1-1.1,0.3-1.6,0.5c-0.3-1.3-1.6-1.1-2.2-0.4l0,0
						c0.3-1,0.4-2.1,0.4-3.1c0.4-0.2,0.8-0.6,0.8-1.1c-0.2-1.5-1.3-4.3-2.7-1c-0.1,0.1-0.1,0.3-0.2,0.5c-0.7,0.4-1.3,0.9-1.8,1.4
						c-3.8,3.8,1.1,5.3,2.9,4c-0.1,0.2-0.1,0.5,0,0.7c0.4,0.8,1.2,2.1,1.9,2.1c0.6,0.5,1.2,0.8,1.9,1.1c-0.2,0.6-0.2,1.1-0.1,1.7
						c-0.9-0.9-2.2-1.2-3.4-0.7c-0.2-0.5-0.7-0.8-1.2-0.9c-2.6-0.5-8.3,0-3.1,4.2c0.7,0.6,1.5,1,2.4,1.2c0.1,1.1,1.1,1.6,3.8,0
						c0.5-0.3,1-0.7,1.4-1.1c-1,2.4,2.6,3.6,4.3,2.7c-0.5,0.4-0.7,1-0.5,1.6C399.6,664.8,402,667.3,401.9,663.2z M395.6,658.2
						c0.1-0.3,0.1-0.7,0-1h0.1l0.5,0.3C395.9,657.7,395.7,658,395.6,658.2L395.6,658.2z M399.7,661.3c0.1-0.1,0.2-0.2,0.2-0.4
						c0.1-0.2,0.2-0.4,0.2-0.6c0.2,0.2,0.4,0.3,0.6,0.3c0,0.1,0.1,0.3,0.2,0.4C400.5,661,400.1,661.1,399.7,661.3L399.7,661.3z"/>
					<path class="st38" d="M384.2,649.3c-0.6-1.3-2.6-3.6-2.8,0C381.2,652.9,384.9,650.6,384.2,649.3z"/>
					<path class="st38" d="M386.2,644.8c0.9,3.2,4.5,0,3.6-1.5c-0.5-0.8-1.2-1.4-2-2c0.3-0.3,0.4-0.7,0.3-1.1
						c-0.5-2-2.7-5.7-3.9-0.7c-0.4,1.8,0,2.6,0.8,2.9c-1.6-0.3-3.4-0.1-1.3,2.2C385,646.1,385.8,645.6,386.2,644.8z M386,642.4v0.3
						l-0.2-0.1l-0.5-0.2C385.6,642.5,385.8,642.5,386,642.4L386,642.4z"/>
					<path class="st38" d="M369.8,643.7c-0.4,0.1-0.7,0.6-1,1.8c-0.7,3,1.9,2.5,2.7,1.3c-0.6,2.1,1.2,2.2,2.2,1.6
						c0.2,0.5,0.5,0.9,0.8,1.3c2.6,3.4,4.1-1.4,2.6-2.1c-0.9-0.4-1.8-0.6-2.8-0.5c0-0.2-0.1-0.3-0.1-0.5c0.5,0.1,1,0.1,1.4-0.1
						c1.3,2.4,4.7-0.7,3.7-2.2c-0.4-0.6-0.9-1.2-1.4-1.7c1.7-0.8,1-3.7-0.3-4.7c1.1-1.5,1.4-3.1-2.3-2.5c-0.8,0.1-1.6,0.4-2.2,1
						c-0.4,0-0.7,0-1.1,0c-3.1,0.3-3.1,2-2.2,3.3l-0.3,0.5C368.6,642.2,369,643.3,369.8,643.7z M371.8,646.3c0-0.1,0-0.1,0-0.2
						c-0.2-0.8-0.6-1.6-1.2-2.2c0.4,0.1,0.7,0.1,1.1,0c-0.1,0.6,0,1.3,0.5,1.7C372,645.9,371.9,646.1,371.8,646.3L371.8,646.3z"/>
					<path class="st38" d="M367.4,645.2c2.3,0,1.9-2.1,0.8-3c-0.1-0.2-0.2-0.4-0.4-0.6c-1.8-1.4-6.4-3.1-3.9,2
						C365.1,646.2,366.5,646.1,367.4,645.2z"/>
					<path class="st38" d="M374.4,660.9c0.9,0.4,1.9,0.3,2.6-0.4c0.5-0.6,0.8-1.3,1.2-2c2.2-0.1,2.4-4.4,0.5-4.9
						c-1.8-0.5-4.7-0.5-4.9,0.8c-0.6-0.2-1.2,0-1.7,1.1c-0.1-0.6-0.5-1.1-1-1.3c-0.6-0.3-1.3-0.4-2-0.6c0-0.2,0-0.4,0.1-0.6
						c0.3-2.9-2.7-1.2-2.3-0.1c0.1,0.2,0.2,0.4,0.3,0.6c-0.3,0-0.5,0.1-0.7,0.2c-0.5-0.3-1.1-0.1-1.6,1.6c-0.5,2.2,0.9,2.4,1.9,1.9
						l0.4,0.5c1.8,2.2,3.3,2.1,4.1,1.1c0,0.4,0.1,0.8,0.2,1.2c-1.2-0.2-2.4,0.2-2.8,1.1c-1,2.5-1.4,8.1,3.5,3.7
						c0.3-0.3,0.6-0.6,0.9-0.9c0.3,0.1,0.5,0.2,0.8,0.3c3.9,1.1,2.4-3.4,0.8-3.1c-0.3,0.1-0.6,0.2-1,0.3c-0.1-0.1-0.1-0.2-0.2-0.4
						C373.8,661,374.1,660.9,374.4,660.9z"/>
					<path class="st38" d="M383.6,673c-4-0.8-2.1,3.6-0.5,3.1S387.6,673.8,383.6,673z"/>
					<path class="st38" d="M383,680.1c-2.3,0.1-6.9,1.7-1.7,4.1C386.5,686.6,385.4,679.9,383,680.1z"/>
					<path class="st38" d="M378.7,676.4c0.7-0.3,1.2-1.1,1.2-1.9c0.2-0.1,0.3-0.3,0.4-0.5c0.7-0.3,1.1-1.1,1.1-1.8
						c-0.1-0.7-0.4-1.3-0.7-2c2.7,0.8,3.2-2.6,2.2-4.2c0.5-0.2,0.9-0.6,1-1.2c0.1-1.1,0-2.1-0.4-3.1c0.2-0.5,0.3-1,0.3-1.6
						c0.8-5.9-5.4-2.7-4.6-0.5c0.4,0.9,0.9,1.8,1.6,2.6c-0.1,0.1-0.2,0.3-0.3,0.4c-0.3,0.4-0.5,0.9-0.6,1.3c-0.2-1-1.9-1.8-2.6-1.1
						s-1.8,2.9-0.4,3c-0.4,0.6-0.2,1.4,1.2,2.6c-0.1,0.1-0.2,0.2-0.3,0.4l-0.4,0.1c-1.1,0-2.5,1.2-2.1,2.1c0.1,0.2,0.2,0.4,0.2,0.5
						c-1.3,0.4-2.5,1.1-2.7,2c-0.9,0-1.8,0.7-1.8,1.4c0.1,1.2,0.8,3.2,1.8,2.6c0.3,0.4,0.6,0.8,1,1.1c0,0.3,0,0.6,0,0.8h-0.1
						c-2.4-0.1-7.2,1.1-2.1,4c3.6,2.1,4.4-0.9,3.6-2.7c0.3-0.3,0.6-0.6,0.8-0.9c0.2-0.3,0.4-0.6,0.5-0.9
						C377.4,678.3,378.1,677.4,378.7,676.4z M379.7,664.7c0,0.1,0,0.2,0,0.4h-0.3C379.5,664.9,379.7,664.8,379.7,664.7L379.7,664.7z
						"/>
					<path class="st38" d="M368.7,680c1.6-0.2,4.7-1.6,0.9-2.9c-0.5-0.2-1.2-0.3-1.7-0.1c0.8-1.2-1.3-2.6-2.3-2.1
						c0.1-1.1-0.4-2.5-1.4-2.6h-0.4c0.7-1.5-1.1-3.9-2.5-3.4c-0.4,0.1-0.8,0.3-1.2,0.5c0.5-0.6,0.1-1.5-1.9-2.6
						c-4.3-2.5-4.2,2.7-2.5,3.6c0.1,0.5,0.3,1,0.6,1.5c0.9,1.6,1.8,1.4,2.3,0.7c0.4,0.2,0.7,0.3,1.1,0.4c0.1,0.4,0.3,0.8,0.7,0.9
						l0,0c0.1,0.5,0.7,1.1,1.8,1.8c0.6,0.5,1.4,0.7,2.2,0.7c-0.6,1.2-0.7,2.4,2,1.6c0.3-0.1,0.6-0.2,0.9-0.4
						C366.9,678.4,367.7,680.1,368.7,680z M358.8,670.2L358.8,670.2h-0.1c0.2,0,0.3-0.1,0.4-0.1L358.8,670.2z"/>
					<path class="st38" d="M367.3,681.4l-0.4-0.6c-1.2-2-2.4-1.6-3-0.7c-0.4-0.2-0.9-0.1-1.2,0.2l0,0c-0.7-0.5-1.6-0.6-2.3-0.1h-0.1
						v-0.1c-0.1-1.2-0.7-2.3-1.7-2.4h-0.5c-0.3-2.4-4.3-1.1-4.1,0.7c0,0.2,0.1,0.4,0.1,0.5c-0.2,0.4-0.1,1,0.6,1.7
						c0.2,0.3,0.4,0.7,0.6,0.9c0.6,0.6,1.4,1,2.2,1.1c0.2,0.1,0.5,0.1,0.7,0.1c-0.7,1.4-0.3,2.6,3.1,1.8c1.7-0.4,2.4-1.1,2.6-1.8
						c0.3,0.2,0.6,0.3,1,0.4c-0.5,1.1-0.4,2.2,2.2,1.4C370.3,683.7,368.6,681.7,367.3,681.4z"/>
					<path class="st38" d="M360.2,663.7c0.9,3.1,3.8,0,2.8-1.1c-0.2-0.2-0.4-0.4-0.6-0.6c1.4-2.2-2.4-2.8-2.9-1.5
						C359,661.9,358.9,664,360.2,663.7z"/>
					<path class="st38" d="M350.2,660.1c-0.1,0.3-0.1,0.6,0,0.9c0.5,1.6,1.9,3.7,3.1,3.9c0.5,0.9,1.6,1,3-1.2l0,0
						c4.4,0.8,2.2-4,0.5-3.5l0,0c-0.4-0.3-0.9-0.5-1.5-0.5c0-0.2-0.1-0.3-0.1-0.5c0.1-1-0.3-1.9-1.2-2.3
						C351.7,656.1,346.5,655.9,350.2,660.1z"/>
					<path class="st38" d="M352.3,651.6c2.9-3.2-2.1-3.9-2.6-2.2C349.2,651.1,349.4,654.8,352.3,651.6z"/>
					<path class="st38" d="M345.2,651c-0.6,2.1-0.5,5.9,2.9,2.5c1.2-1.2,1.4-2.2,0.9-2.8c0.1,0,0.1-0.1,0.1-0.2
						c0.7-1.6,1.2-5.3-2.2-2.5c-1,0.9-1.3,1.6-1.1,2.1c-0.3,0.1-0.5,0.4-0.6,0.7c0.3-0.6,0.1-1.4-0.4-1.8c-1.6-1-5.4-2-3,1.9
						C343.3,653.3,344.7,652.3,345.2,651z"/>
					<path class="st38" d="M334.1,654.6l0.3,0.1c-0.2,0.9-0.2,1.9,0.1,2.8c1,4.4,3.9,2.6,4.7,0.7c0.4-0.2,0.8-0.6,1.2-1
						c0.2,0.2,0.4,0.3,0.7,0.2c1.3-0.2,3.8-1.4,0.7-2.4c-0.4-0.2-0.9-0.2-1.3-0.1c-0.7-2.4-2.5-5.1-4.1-1.6h-0.1c-0.1,0-0.2,0-0.3,0
						c-0.1-0.3-0.4-0.6-0.7-0.6C333.8,652.6,331.6,653.3,334.1,654.6z"/>
					<path class="st38" d="M340.6,670.7c0.1-0.3,0.2-0.5,0.2-0.8c0.3,0,0.7-0.1,1-0.3c1.1-1,2.6-2.9,2.1-3.9
						c0.1-0.1,0.2-0.2,0.2-0.3s0.1-0.3,0.2-0.5c0.4-0.4,0.8-0.9,0.9-1.4c1.9-1.3,4.5-4.2,0.2-4.4c0-0.2,0-0.3,0-0.5
						c0.7,0.3,1.6-0.6,1.7-1.3c0.6,1,1.7,1.8,2-0.7c0.4-3.1-2.7-1.6-2.5-0.4c-1-0.9-2.7-1.8-2.1,0.9l0.1,0.4
						c-0.2-0.1-0.4-0.2-0.7-0.1c-0.6,0.2-1.2,0.5-1.7,1c-0.3,0.1-0.4,0.5-0.3,0.8c-0.9-0.1-1.6,0.7-1.4,3.4c0,0.9,0.2,1.9,0.8,2.6
						h-0.4c-3,0.7-2.9,2.3-1.9,3.5C336.4,670.9,340.1,672,340.6,670.7z"/>
					<path class="st38" d="M346.6,665.3c-1,2-1.9,6.7,2.7,3.5C353.8,665.5,347.6,663.3,346.6,665.3z"/>
					<path class="st38" d="M342.3,675.7c4.4-4.1-2.6-5.6-3.4-3.3S337.8,679.8,342.3,675.7z"/>
					<path class="st38" d="M327.3,701.6c0.5,1.4,2.2,3.8,2.8,0.3C330.6,698.4,326.8,700.3,327.3,701.6z"/>
					<path class="st38" d="M353.6,672.7c-0.7-2.5-3.5-7.3-5-1S354.3,675.3,353.6,672.7z"/>
					<path class="st38" d="M349.3,679.8c0.9-0.8,1.3-1.7,0-2.1c-0.1-0.2-0.3-0.3-0.4-0.4c-0.7-0.4-1.5-0.6-2.3-0.7
						c0.4-1.6-2.3-1.6-2.5-0.5s0,2.7,0.9,2.4c0.2,0.4,0.4,0.7,0.6,1.1c0.2,0.5,0.6,0.9,1.1,1.2C347.8,681.7,348.8,680.9,349.3,679.8
						z"/>
					<path class="st38" d="M346.1,681.4c-0.8-1.3-3-3.4-2.8,0.2C343.4,685.3,346.8,682.7,346.1,681.4z"/>
					<path class="st38" d="M354.1,685.2c0.2,1.4,1.6,4.1,2.6,0.7C357.7,682.7,353.8,683.9,354.1,685.2z"/>
					<path class="st38" d="M350.1,684c-2-0.4-4.2,0-1.6,3.1c0.2,0.3,0.5,0.5,0.8,0.8c-0.7,0.2-1,0.9,0.5,2.1
						c2.1,1.7,2.7-0.5,2.2-1.6c1.3,0.7,2.5,0.4,1.9-2.9C353.3,682.2,351.2,682.7,350.1,684z"/>
					<path class="st38" d="M349.5,692c-1.7,0.5-4.9,2.5-0.6,3.4C353.2,696.3,351.2,691.5,349.5,692z"/>
					<path class="st38" d="M346.1,690c0.3-0.2,0.6-0.7,0.7-1.7c0.5-3.5-3.2-1.7-2.7-0.3c0.2,0.4,0.4,0.8,0.6,1.2
						c-0.9,0.3-1.7,1.6-1.2,2.2c0.8,1.2,3.3,3.2,2.8-0.4C346.3,690.6,346.2,690.3,346.1,690z"/>
					<path class="st38" d="M339,690.2c-4.8-2.6-4.2,3.9-1.9,4c0.5,0,0.9,0,1.4-0.1c1.6,5,5.9,0,4.3-1.8
						C341.8,691.3,340.5,690.5,339,690.2z"/>
					<path class="st38" d="M332.1,694.2c0.7,2.9,3,0.3,2.2-0.6C333.5,692.7,331.4,691.3,332.1,694.2z"/>
					<path class="st38" d="M338.6,684.8L338.6,684.8L338.6,684.8c0,0.6,0.4,1.2,1,1.5c2.1,0.6,6.6,0.7,2.8-3.1c-1-1-1.8-1.3-2.5-1.2
						c-0.7-0.6-2.1-0.7-2.4,0l0,0c-0.2-0.4-0.7-0.6-1.1-0.4c1.3-1.8,1.7-3.9-2.3-3.1c-0.2-0.3-0.5-0.6-0.8-0.9
						c-0.4-0.5-1.1-0.9-1.8-1v-0.1c-0.5-1.6-2.6-4.5-3.2-0.4c-0.4,2.3,0.9,2.7,1.9,2.2c-0.1,0.7,0.2,1.4,0.8,1.7l0,0
						c-0.6-0.1-1.2,0.1-1.6,0.6c-0.7,1.6-1.1,5.1,2.2,2.4l0.3-0.2c0.5,0.5,1.2,0.8,2,0.9c-0.3,0.5-0.4,1.1-0.3,1.7
						c-1-1.9-5.1-0.6-4.9,1.3c0.2,2.6,2.1,7.6,4.7,1.8c0.5-0.9,0.6-1.9,0.4-2.9c0,0.1,0.1,0.2,0.2,0.3
						C335.4,688,339.9,691.2,338.6,684.8z"/>
					<path class="st38" d="M328.4,682.1c-0.4-1.7-2.2-4.9-3.2-0.7C324.1,685.5,328.8,683.8,328.4,682.1z"/>
					<path class="st38" d="M323,679.1l-0.3-0.1c0.4-0.4,0.3-1-1-2.1c-0.4-0.5-1.1-0.8-1.7-0.8c-0.1-0.2-0.3-0.3-0.5-0.4
						c-1.4-0.3-4.5,0-1.7,2.2c0.4,0.4,0.8,0.6,1.4,0.7c0.1,0.3,0.3,0.5,0.6,0.6c0.3,0.1,0.5,0.1,0.8,0.2c-0.7,1,0.3,3.1,1.5,3
						C323.7,682,327.1,680.5,323,679.1z"/>
					<path class="st38" d="M320.3,674c0.7-0.7,1.6-2.3,0.9-2.7c0.2,0,0.4-0.1,0.5-0.3c0.3-0.4,0.5-0.9,0.6-1.4
						c0.8-0.4,1.4-1.2,1.2-1.9c-0.5-1.9-2.7-5.4-3.7-0.7c-0.3,0.8-0.2,1.6,0.2,2.4c-0.9,0.8-0.4,1.6,0.4,1.8c-0.3,0-0.7,0.1-1,0.2
						C315.9,672.6,319.2,675,320.3,674z"/>
					<path class="st38" d="M304.9,714.4c-2,0.5-5.6,2.7-0.7,3.9C309.1,719.4,306.8,713.9,304.9,714.4z"/>
					<path class="st38" d="M299.3,675.9c1.9-2.4-1.7-2.6-1.9-1.4C297.1,675.8,297.4,678.4,299.3,675.9z"/>
					<path class="st38" d="M306.8,670.8c0.2,1.2,0.7,2.1,2,1.4c-0.1,0.3-0.2,0.6-0.1,0.9c-0.5,1.6,0.5,3.9,1.9,3.8
						c2.3,0,6.6-1.4,3.3-3.7c0.7-0.5,1-1.3,0.8-2.1c-0.2-0.7-0.6-1.5-1-2.1c1-0.4,1.2-1.6-0.9-3.9c-3-3.3-4.8-0.8-4.8,1.4
						c-0.5,0.1-1,0.5-1.2,1.1c0,0,0,0.1,0,0.2c-0.1,0.1-0.3,0.2-0.3,0.3C306.1,669.1,305.6,671,306.8,670.8z"/>
					<path class="st38" d="M302.8,677.3c0.3-3.1-2.9-1.3-2.4-0.1C300.8,678.3,302.5,680.4,302.8,677.3z"/>
					<path class="st38" d="M309.4,677.9c-2.6,1.6,0.7,3,1.3,1.9C311.3,678.8,311.9,676.3,309.4,677.9z"/>
					<path class="st38" d="M306.6,687c0.7-0.4,1.3-0.8,1.9-1.3c0.8-0.4,1.5-1,2-1.7c0.2,1.3,2.3,2.4,3.2,1.6c0.6-0.6,1.1-1.3,1.5-2
						c0.7,0,1.4-0.1,2-0.3c-0.2,0.5,0.2,1,1.8,1.1c2.7,0.2,2-2,0.9-2.6c1.4-2-2.4-4.6-3.9-3.1c-0.9,0.9-1.6,1.9-2.1,3.1
						c-0.5,0.1-1,0.1-1.4,0.3c-0.8,0.1-1.5,0.6-1.9,1.2c-0.1-0.7-1-1.3-3.2-1.7l-0.7-0.1c0.4-0.1,0.8-0.6,1.3-1.6
						c1.8-3.6-2.9-2.9-2.9-1.3c0,1,0.4,2.5,1,2.8c-0.9-0.1-1.8,0.2-2.3,1C301.3,683.8,304.7,688,306.6,687z"/>
					<path class="st38" d="M320.5,687.4c-2.1-0.8-6.5-1.2-4.5,2c-0.5,0.1-1,0.4-1.4,0.9c-0.4-0.4-1-0.6-1.6-0.5
						c-0.1-0.7-0.4-1.3-0.7-1.9c-0.7-1.3-1.4-1.7-2-1.7c-0.4-0.4-1.1-0.3-2.5,0.7c-2.9,2.2-0.3,3.7,1.3,3.4
						c-0.4,1.9-0.1,4.7,2.6,2.1c0.2,0.4,0.7,0.5,2,0c0.5-0.1,1-0.5,1.2-0.9c0.2,0.2,0.4,0.4,0.7,0.6c-0.4,0.5-0.5,1.1-0.2,1.7
						c0.4,0.6,0.8,1.1,1.4,1.6c0,0-0.1,0-0.1,0.1c-1.2,0-2.3,0.6-2.9,1.6c-1,0-2,0.1-3,0.6c-0.4,0.2-0.9,0.4-1.3,0.6
						c0.4-3.1-3.1-1.6-2.7-0.2c0.2,0.8,0.7,1.4,1.3,2c-0.2,2,3.4,3.8,4.7,2.3c0.6-0.7,1-1.4,1.4-2.2c0.1,0.2,0.3,0.4,0.5,0.6
						c0,0.7,0.4,1.4,1,1.5c0.4,0,0.7,0,1.1,0c0.2,0,0.4,0,0.6-0.1c0.7-0.2,1.2-0.5,1-1.1c1,0.4,1.8-0.2,1.7-3.1
						c0-1.6-0.5-2.5-1.1-2.8c0.1-0.6,0.1-1.2,0-1.7c0-0.1,0-0.1,0-0.2c0.4-0.1,0.6-0.4,0.8-0.8C321.9,692.2,322.3,688.1,320.5,687.4
						z"/>
					<path class="st38" d="M312.2,704.5c-0.8-1.3-2.9-2.2-4.1-1.6l-0.8-0.5c-2.6-1.6-3.8-0.7-4.1,0.7c-0.1,0-0.2,0-0.3,0
						c0.1-1.9-0.3-4.5-2.3-3.1c-0.3-0.1-0.6-0.2-0.9-0.1c-0.3,0.1-0.5,0.1-0.7,0.2c-0.3-0.4-0.6-0.7-0.9-1c0.5-0.2,0.9-0.6,1.1-1.1
						c0.4-1.7,0.4-4.7-0.9-5c0.4-0.5,0.5-1.1,0.2-1.7c-1.2-1.7-4.6-4.6-4,0.6c0,0.3,0.1,0.6,0.2,0.9c-0.1,0.4,0.1,0.8,0.5,1.1
						c0.2,0.2,0.5,0.4,0.7,0.5c-0.2,0.2-0.4,0.4-0.6,0.7c-1.1,1.3-1.4,2.3-1.2,3.1c-0.5,0.4-0.7,0.9,0,1.4c0,0.3,0,0.6,0.1,0.9
						c-0.7,0.4-1.3,1.6-0.8,2.1c0.5,0.6,1.2,1.1,2,1.2c0,0.3,0.1,0.5,0.2,0.8c-0.4,0.2-0.8,0.5-1.1,0.8c-0.2,0.2-0.5,0.4-0.7,0.7
						c-0.5-1.5-1.7-1-2.3-0.2c0.2-1.4-0.7-2.3-4-0.9l-0.2,0.1c-0.2-1.3-1-2.5-2-2.5H285c-0.5-2.8-2.4-6.7-4.8-1
						c-0.2,0.5-0.3,0.9-0.4,1.4c-0.7-0.3-1.3,0-1.4,2.1c-0.1,3.4,2.7,2.1,3.1,0.7l0,0c0.6,0.5,1.2,0.8,1.8,1.1l0.3,0.1l0,0
						c-4.2-1.6-3.8,4.9-1.3,5.1c1.6,0.2,3.2-0.1,4.6-0.9c-1.6,1.8,2,3.9,3.1,2.7c1.4-1.6,3.3-5.4-1.5-3.7c-0.5,0.2-1,0.4-1.4,0.8
						c0.2-0.2,0.2-0.5,0.2-0.8l0.4-0.3c0.7,0.2,1.5,0,2-0.5c0.6-0.8,1.1-1.6,1.5-2.5c0,0.1,0,0.1,0,0.2c0.6,0.9,2.1,2.2,2.6,1.3
						c1,0.7,2.8,0.7,3.2-0.3c0.2-0.6,0.4-1.1,0.5-1.7c1.4,0.1,3.3-0.1,3.3-1.1c0.4,0,0.8-0.2,1.2-0.4c-0.2,1.8,1,1.8,1.8,1.2
						c0.2,0.3,0.6,0.5,1,0.5h0.9c-0.3,1.6,0.4,2.5,3.9,1.3c0.3-0.1,0.7-0.3,1-0.4c0.7,0.3,1.6,0.4,1.9-0.1
						C313.3,706.3,314.2,703.8,312.2,704.5z"/>
					<path class="st38" d="M291.2,697.5c1.6-0.5,4.4-2.4,0.4-3.1C287.7,693.7,289.7,698,291.2,697.5z"/>
					<path class="st38" d="M286.8,687.4c2.8-2.6-1.6-3.6-2.1-2.1C284.1,686.7,283.9,690,286.8,687.4z"/>
					<path class="st38" d="M394.5,682.3c-6.2,2.6,0.5,7,2.2,4.8C398.5,685,400.8,679.6,394.5,682.3z"/>
					<path class="st38" d="M281.3,691.9c0.3-0.2,0.6-0.5,0.8-0.8c-0.7,2.4-0.8,6.4,3.1,3.1c0.3-0.1,0.6-0.1,0.8-0.2
						c1.6,1.1,3.2,1.2,2.5-2.7c-0.6-3.5-2.7-3.1-3.9-1.7c-0.7-0.1-1.3,0.1-1.9,0.4c0.2-0.7-0.2-1.2-2.1-0.9
						C277,689.7,280.1,692.9,281.3,691.9z"/>
				</g>
				<g>
					<path class="st39" d="M297.1,684.1c-2.5-3.9-3.6-1.4-3.7,0.9c-0.3,0-0.6,0-0.8,0.1c0.8-0.3,0.1-1.8-0.5-2.5
						c-0.8-1-3.9,0.9-1.1,2.2c0.4,0.2,0.9,0.4,1.4,0.3c-0.7,0.2-1.2,0.8-1.1,1.6c-0.2-0.2-0.4-0.3-0.6-0.5c-1.1-0.8-3.1,0.7-3.4,2.1
						c-0.4,0.8-0.2,1.7,0.5,2.2c0.4,0.8,1.9,1.4,2.1-0.1l0,0c1.9,0.3,2.8,0,3.1-0.6c1.7,1.6,2.4-0.3,2.6-2.1
						C297.2,688,298.9,687,297.1,684.1z"/>
					<path class="st39" d="M300.4,692.7l-0.2,0.5c-0.8,0.7-1.5,1.4-2,2.3c-0.3,0.8-0.1,1.8,0.6,2.4c-1.3,1.2-0.8,1.8,0.1,1.9
						c-0.2,0.2-0.3,0.4-0.4,0.7h-0.7c-1.8,0.2-2.2,4.2-0.1,4.5c0.8,0.6,2,0.8,2.3-0.7c0.3-0.2,0.7-0.5,0.9-0.7
						c0.7-0.6,1.1-1.1,1.1-1.6l0,0c0.4-0.8-0.3-1.8-1.2-2.3c0.4-0.1,0.7-0.4,0.8-0.8c0.7-0.3,1.3-1.2,1.4-3c0-0.5,0-0.9,0-1.2
						c0.3-0.2,0.6-0.4,0.9-0.7C305.3,692.9,301.9,688.2,300.4,692.7z"/>
					<path class="st39" d="M292.3,697.2c-0.4-0.7-0.7-0.9-1-0.9c-0.9-0.9-2.4-1.2-2.7,1.4c0,0.4,0,0.8,0,1.2
						c-0.5,0.5-0.8,1.2-0.8,1.9c-0.2-0.2-0.4-0.3-0.7-0.3c0.7-1.9-1.6-6.1-4.3-1.8c-1.4,2.2-1.2,3.1-0.4,3.4
						c-1.6,1.9,1.6,7.8,4.7,2.4c0.6-0.9,1-1.9,1-3c0.7,0.6,1.5,1,2.4,1.1c3.7,0.6,3.9-0.7,3.1-2.2c0.4-0.2,0.8-0.8,0.9-1.9
						C294.7,695.7,293.4,696.2,292.3,697.2z"/>
					<path class="st39" d="M277.6,697.9c-0.5,1.8,4.5,4,3.6-0.6C280.3,692.7,278.2,696.1,277.6,697.9z"/>
					<path class="st39" d="M282.2,692.5c-0.5,3,1.6,1.5,2.3,0.5c0.3-0.4,0-1.1-0.4-1.6c1.7-0.2,0.3-1.9-0.7-2.7
						c-0.9-0.7-3.7,1.9-0.8,2.5C282.3,691.6,282.2,692,282.2,692.5z"/>
					<path class="st39" d="M287.2,683.4c1.3-2.9-1.2-1.9-2.2-1.1C284,683.1,286,686.3,287.2,683.4z"/>
					<path class="st39" d="M298,677c-3.3-4.7-4,0.1-3.7,2.4C294.6,681.8,301.3,681.7,298,677z"/>
					<path class="st39" d="M310.4,708.6c-2.9,3.3,0.8,3,2.5,2.4C314.5,710.4,313.3,705.3,310.4,708.6z"/>
					<path class="st39" d="M331.2,704.4c-1.6,3.3,1.3,2.2,2.6,1.3C335,704.9,332.9,701,331.2,704.4z"/>
					<path class="st39" d="M296.5,674.3c1.3,0.3,2.7-3.3-0.5-2.5S295.2,674,296.5,674.3z"/>
					<path class="st39" d="M302.4,675.4c2.6-1.6,2.5-2.6,1.6-3.1c0.2-0.4,0.4-0.9,0.5-1.4c0-0.2,0-0.4,0-0.6
						c0.5-0.8-0.9-2.5-1.9-1.9c-1.6-0.6-3.4-0.1-2.8,3.1C297.9,672.1,297.7,678.3,302.4,675.4z"/>
					<path class="st39" d="M307.5,671.3c-0.7,2.9,0,3.9,1,3.8l0.4,0.3c0.6,0.5,1.9-0.5,1.8-1.3c0.7-0.5,1.3-1,1.8-1.6
						c1.1-1.3-0.6-4.1-2.4-4.3c0,0,0,0,0-0.1c-0.5-1.6-5-0.5-2.3,2.1C307.7,670.7,307.6,671,307.5,671.3z"/>
					<path class="st39" d="M307.5,678.7l0.7,0.3c0,0.5,0.1,1,0.3,1.5c0.1,0.4,0.3,0.8,0.5,1.2c0,0.2-0.1,0.4-0.1,0.6
						c-0.3,3.8,2.1,1.6,2.9,0.3c0.2-0.4,0.1-0.9-0.2-1.3c0.3-0.6,0.5-1.3,0.6-1.9c0-0.4-0.1-0.9-0.5-1.1c0-0.1,0-0.2,0-0.3
						c0.3-2.8-1.1-2-2.1-1.1c-0.2-0.4-0.4-0.8-0.6-1.1C308,674.3,303.5,676.8,307.5,678.7z"/>
					<path class="st39" d="M316.7,685.9c0.7-2.8-1.4-1.5-2.1-0.6S316.1,688.7,316.7,685.9z"/>
					<path class="st39" d="M307.2,688.4l-0.4-0.2c0.1-0.6-0.1-1.3-0.4-1.9c0.8-1.1,1.1-2.6-0.2-3.3c0.1-1.1-0.5-2.1-2.8-1.4
						c-1.7,0.5-2.2,1.1-2.1,1.7c-1.1,0.6-0.7,1.6,0.2,2.4c0,0.6,0.1,1.2,0.3,1.8c-2,2,0.5,2.7,2.5,2.8c0,0.2,0.1,0.4,0.2,0.6
						c-0.7,0.9,0,1.4,0.9,1.6c0.2,1.8,3.1,0.6,4.6-0.5C311.4,690.9,309.4,686.5,307.2,688.4z"/>
					<path class="st39" d="M310.9,693.8c-1.3-1.3-5.9,1-1.9,3.4l0.4,0.2c0.1,0.4,0.1,0.7,0.2,1c0.7,2.3,7.5,1,3.3-3.1
						C312.4,694.6,311.7,694.1,310.9,693.8z"/>
					<path class="st39" d="M319.1,697.5c1.3-1.2,1.8-3.3-1.7-3.7c-4.8-0.5-3,2.2-1.3,3.7c-0.4,0.6-0.8,1.3-1.1,2
						c-0.5,1.6,2.7,3.5,3.7,1.9c1.3,0.5,3.3,0,1.8-2.4C319.9,698,319.5,697.5,319.1,697.5z"/>
					<path class="st39" d="M322.5,695.3c-4-1.2-2.2,1.9-1,3.1C322.7,699.6,326.5,696.4,322.5,695.3z"/>
					<path class="st39" d="M327.1,692.9c-1.2-0.8-3.6,1.8-1.9,2.9c-0.8,2.9,1.8,1.6,2.9,0.6c0.1-0.1,0.1-0.2,0.2-0.3
						C330.3,695.6,328.4,693.6,327.1,692.9z"/>
					<path class="st39" d="M325.8,676.2c-0.3,0.4-0.4,0.9-0.3,1.4c-1.2,0.4-2,1.5-2.2,2.7c-0.2-0.5-0.6-0.9-1.1-1.2
						c0.3-0.6,0.6-1.3,0.8-2c0.5-0.5,0.4-1.9,0.2-2.7c-0.1-0.2-0.3-0.4-0.5-0.5c2.2-0.2,4.9-4.3-0.3-4.8c-0.7-0.1-1.5-0.1-2.2,0
						l-0.4-0.2c-3.1-1.7-2.2,1.2-1.4,2.4c0.3,0.3,0.8,0.5,1.2,0.3c0.6,0.8,1.4,1.6,2.3,2.2l0,0c-1,0-2,0.6-1.4,1.7
						c-0.5,0.2-1.1,0.3-1.6,0.6c0.6-0.5,1.2-1.1,1.6-1.8c0.9-1.6-3.5-4.7-3.5-0.2c0,2.1,0.5,2.7,1.2,2.5l-0.4,0.3
						c-1.2,0.8-0.6,3.1,0.5,4.2c0,0.4,0,0.9,0.1,1.3c0.5,2.7,1.4,3.4,2.2,3.2l0.1,0.1h-0.1c-2-0.3-1.7,0.7-1.1,1.4l-0.2,0.2
						c-0.5,0.8-0.7,1.3-0.6,1.6c-0.6-0.7-1.6-0.8-2.6,0.8c-0.1,0.2-0.2,0.3-0.3,0.5c-0.2,0-0.5-0.1-0.7-0.1c0.9-0.5,1.7-2-0.5-2.3
						c-3-0.4-1.4,1.6-0.4,2.3l0,0c-2.9,0.3-0.7,2.3,0.6,3c0.6,0.3,1.4-0.2,1.8-0.9c0.7-0.1,1.4-0.3,2-0.6c0.7-0.4,0.7-1.6,0.2-2.4
						c0.5,0.4,1.8,0,2.5-0.4c0.1-0.1,0.2-0.2,0.3-0.3c0.1,0.5,0.4,0.9,0.7,1.3c2.5,3.1,2.8-0.3,2.5-1.9c-0.1-0.5-0.7-0.8-1.4-0.9
						c1.8-0.3,3.8-3.5,1.6-4.7c0.6,0.1,1.2,0.1,1.7,0c2.9-0.5,3.4-1.4,2.8-2.4c0.6-0.7,1-1.5,1.1-2.4
						C332,671,327.5,674.1,325.8,676.2z M321.9,687.5c0-0.1-0.1-0.3-0.1-0.4c0.1-0.2,0.2-0.4,0.2-0.6l0.5,0.3
						c0.1,0.1,0.3,0.1,0.4,0.1C322.5,687,322.1,687.2,321.9,687.5z M323.3,681.8c0-0.2,0.1-0.3,0.2-0.5c0-0.2,0,0,0-0.1
						c0.1,0.3,0.3,0.5,0.6,0.7C323.8,681.9,323.5,681.8,323.3,681.8L323.3,681.8z"/>
					<path class="st39" d="M329.1,666.5c-2.4-2.6-2.4,0.4-2.1,1.8C327.4,669.6,331.5,669.1,329.1,666.5z"/>
					<path class="st39" d="M319.5,664.5c-0.3,0.9-0.4,1.8-0.3,2.7c0.2,1.7,4.9,1.9,3.6-1.1c0.8,0.4,1.7,0.1,1.7-1.7
						c0.1-3-1.4-2-2.3-0.8c0.4-0.7,0.2-1.6-1.2-2.7c-3.9-3-3.3,1.1-2.4,2.9C318.8,664.2,319.1,664.4,319.5,664.5z M322,663.8
						l-0.3,0.4c0,0.1-0.1,0.1-0.1,0.2l-0.2-0.2C321.7,664.1,321.9,663.9,322,663.8z"/>
					<path class="st39" d="M327.9,659c-0.2,0.8-0.2,1.6-0.1,2.4c0.2,1.8,4.7,2,4.1-0.6c0.5-0.1,0.9-0.4,1.2-0.8
						c0.1,0.2,0.1,0.3,0.2,0.5c-0.8,0.5-1.4,1.2-1.8,2.1c-0.7,1.6,3.4,4.2,3.2,0c0-0.5-0.1-1.1-0.2-1.6c1.1-0.1,2.4-1.2,0.7-2.5
						c1.3,0.3,3.6-0.8,1.2-2.7c-0.9-0.7-1.6-0.9-1.9-0.8c0.3-0.8,0-1.9-1.9-2.8c-4.3-2-3.7,0.8-2.6,2.9c-0.9,0.1-1.6,0.7-1.8,1.6
						C327,657.5,327.2,658.3,327.9,659z M334.1,655.7c-0.1,0.8,0.1,1.6,0.4,2.4c0,0.1,0.1,0.1,0.1,0.2c-0.2-0.1-0.5-0.2-0.7-0.3
						c0.1-0.6-0.2-1.2-0.7-1.6C333.6,656.2,333.9,656,334.1,655.7L334.1,655.7z"/>
					<path class="st39" d="M337.2,654.7c1.2,0.1,2.4-0.7,1.7-3.3c-1.4-5.4-3.7-1.3-4.2,0.9c-0.1,0.2-0.1,0.5,0,0.7
						C334.5,654.3,335.5,656.2,337.2,654.7z"/>
					<path class="st39" d="M338.1,665.6c-1-1-3.2,1-4.2,2.4s1.7,4.7,3.4,3.4c0.7,0.3,1.4,0.6,2.1,0.8c0.9,0.1,1.8-0.5,2.2-1.3
						c0.3-0.1,0.6-0.2,0.8-0.4c0,0.1,0,0.3,0,0.4c-0.3,0.1-0.6,0.2-0.9,0.4c-1.4,0.7,0.2,5.1,2.5,1.8c0.2-0.2,0.3-0.5,0.4-0.7
						c0.4,0.1,0.8,0.1,1.2,0.1c6.4,0.2,2.6-3.7,0.3-5c-0.8-0.5-2,0-2.8,0.9c-0.1-0.4-0.3-0.7-0.6-1c1.2,0.2,2.4-0.6,2.4-3.4
						c0-0.2,0-0.4,0-0.6c1.1-0.2,2-1.3,0.2-2.6c-1.4-1-1.9-0.9-2.1-0.3c-0.2,0.1-0.5,0.2-0.7,0.3c0-0.2-0.1-0.4-0.1-0.6
						c-0.3-1.1-3.6-0.5-1.6,1.6l0.4,0.4c-0.4,0.5-0.8,1.1-1.2,1.7c-0.2,0.5-0.2,1.1,0,1.6C339,664.9,338.4,665.1,338.1,665.6z"/>
					<path class="st39" d="M342.2,685.7c-2.5,3.1,0.8,2.7,2.3,2C346,687.1,344.8,682.6,342.2,685.7z"/>
					<path class="st39" d="M347,690.6c-1.8,1.3,1.4,7.1,3.8,2C353.3,687.6,348.8,689.3,347,690.6z"/>
					<path class="st39" d="M353.7,684.6L353.7,684.6c-0.2-0.2-0.3-0.4-0.5-0.6c0.1-0.5,0.2-0.9,0.1-1.4c1.1-0.2,0.4-2.1-0.3-3.1
						c-0.4-0.6-1.6-0.5-2.2,0c-0.6-0.5-2-0.3-3.2,0.2c0-0.2-0.1-0.4-0.1-0.6c-0.3-0.9-2.1-1-2.9-0.3l-0.3,0.1c-0.2,0-0.3,0-0.5,0
						c0.3-1.8,0-2.6-0.7-2.7c1-0.9-1-1.8-2.1-2c-1.2-0.2-1.8,1.6-1.3,2.4c-0.4-0.3-0.9-0.5-1.3-0.6l-0.5-0.1c0-1-0.1-1.9-0.5-2.9
						c-0.8-2.2-7.4-0.7-3.1,3.1c0.4,0.4,0.8,0.7,1.2,1c0.3,1,0.9,1.8,1.6,2.6c0.4,0.4,1,0.4,1.6,0.2c0.3,1.9,2.7,4.1,4.3,1.8
						c0.2,0.7,0.4,1.3,0.7,1.9c0.5,0.6,1.2,0.9,2,0.7c0.2,0.1,0.4,0.2,0.6,0.2c0.4,0.6,1.3,0.9,2,0.7c1,0.4,2.1,0.7,3.2,0.7
						c0.3,0.2,0.6,0.3,0.9,0.4c0.4,0.1,0.8,0.2,1.2,0.2c0.6,1.9,2.9,3.7,4.4-0.2C359.8,681,355.5,683.1,353.7,684.6z M340.4,677.1
						l-0.2,0.2c-0.1-0.1-0.1-0.2-0.2-0.3C340.1,677.1,340.3,677.1,340.4,677.1L340.4,677.1z"/>
					<path class="st39" d="M361.9,667.9c0-0.5-0.2-1-0.5-1.5c0.7-1.8-2.3-5.7-4.1-1.2c-0.8,2.1-0.5,2.9,0.2,3.1
						c-0.4,0.1-0.8,0.2-1.2,0.4c-1.4,0.5-1.2,3.4,0.2,4.1l-0.3,0.3c-0.7,0.7-0.2,2,0.6,2.8c-1.1,0.2-1.7,2.6-0.4,3
						c-0.5,0.2-1,0.7-1.2,1.2c-2,3.3,1.2,2.4,2.5,1.6c0.8-0.5,0.4-2.3-0.5-2.8c0.3,0,0.6-0.1,0.9-0.2c2.5-1,1.7-1.9,0.5-2.4
						c0.6-0.4,1.1-1.1,1.2-1.9c0.4-0.8,0.5-1.6,0.2-2.4l0,0c0.2-0.4,0.2-0.8,0-1.2c0.2-0.3,0.4-0.6,0.5-1
						C361.4,670,362.2,669.6,361.9,667.9z M359.3,668.1L359.3,668.1L359.3,668.1l-0.4,0.1C359,668.2,359.2,668.1,359.3,668.1
						L359.3,668.1z"/>
					<path class="st39" d="M351.4,664.2c0,0.3-0.1,0.6-0.1,0.9c0,1.5,4,2,2.8-0.9c1.2-0.6-0.4-2.2-1.5-2.9
						C351.6,660.7,349,663.5,351.4,664.2z"/>
					<path class="st39" d="M354.5,659.5L354.5,659.5c-1.7,0.7-0.3,5.7,2.5,2.3l0,0c2.5,0.7,3.1,0,3-1c0.8-0.9,0.5-3.4,0-4.9
						c-0.1-0.3-0.3-0.5-0.5-0.7c0.2-5.4-3.6-2.1-4.9,0c-0.4,0.9-0.1,1.9,0.6,2.5c0,0.1,0.1,0.3,0.2,0.4
						C354.9,658.6,354.6,659,354.5,659.5z"/>
					<path class="st39" d="M358.3,652.1c1.8,1.6,2.1,0.4,1.9-0.7c0.6,0.5,1.8,0.6,2.1,0c0.1,0.2,0.1,0.3,0.3,0.4
						c-3.2,2.8,0.6,3.4,2.8,3.1c0.5,0.3,1,0.5,1.6,0.5c0.1,0.1,0.3,0.2,0.4,0.2s0.2,0,0.3,0c0.2,1.1,2.5,1.6,4,1.7
						c0.3,0,0.7-0.2,0.9-0.4c0.2,0.2,0.4,0.3,0.7,0.5c1.1,0.6,3.2-2.4,0.2-2.5c0.1-1.5-0.9-2.8-3.6-1.4l-0.3,0.2
						c-0.1-0.9-0.4-1.8-1-2.4c-1.6-2.1-2.6-2.3-3.1-1.7c-0.1-0.3-0.4-0.5-0.7-0.4c-0.7,0-1.3,0.1-1.9,0.3c-0.2,0.1-0.4,0.3-0.4,0.5
						c0-0.1-0.1-0.2-0.2-0.3c-1.3-2.4-2-0.7-2.2,0.6C359.3,649.2,356,650,358.3,652.1z"/>
					<path class="st39" d="M352.6,650.2c4.2,0.6,2-2.2,0.6-3.2C351.8,646,348.4,649.6,352.6,650.2z"/>
					<path class="st39" d="M354.2,647.5h0.2c0.1,0.7,0.7,1.4,2.4,1.6c4.9,0.5,2.2-2.7,0.5-3.8c-0.3-0.2-0.6-0.2-0.9-0.1
						c-0.2-0.5-0.8-0.9-2.2-0.9C350.1,644.2,352.7,646.7,354.2,647.5z"/>
					<path class="st39" d="M364.8,647.6c0.2-0.1,0.3-0.4,0.4-0.6c0.5,0.1,1,0.1,1.5,0c1.8,1,5,0.5,3.1-3.4c-0.3-0.9-0.9-1.6-1.6-2.2
						l0.1-0.3c1.1-2.5-1.1-1.6-1.9-0.9c-0.2,0.2-0.3,0.6-0.2,0.9c-0.1,0.1-0.1,0.1-0.2,0.2l-0.1,0.1c-3.4-1.6-3,1.6-2.1,3.8
						c-0.4,0.2-0.7,0.5-0.9,0.9C361.1,648.9,363.7,648.2,364.8,647.6z"/>
					<path class="st39" d="M365.3,657c-2-0.9-5.3,4.7,0.1,4.2C370.9,660.8,367.3,658,365.3,657z"/>
					<path class="st39" d="M372.1,659.8c-0.9,0.2-1.7,1.1-0.2,2.5s2.2,0.8,2.2-0.2c0.3,0.1,0.6,0.1,0.9,0.1c5.9,0.4,2.5-3.3,0.5-4.6
						C374.3,656.8,372.4,658.3,372.1,659.8z"/>
					<path class="st39" d="M367.8,663.2c-5-3.9-4.2,1.5-3.1,3.8S372.8,667,367.8,663.2z"/>
					<path class="st39" d="M373.9,663.5c-0.8-0.7-2.8,1-1.6,1.9c-0.5,0.6-0.9,1.3-1.3,2c-0.1,0.2-0.1,0.4,0,0.6
						c-0.7,1.1,0.2,1.6,1.3,1.6c1,0.6,2.2,0.6,2.6-1c0.2-0.5,0.2-1.1,0-1.6c0-0.4-0.1-0.8-0.2-1.2
						C375.6,665.5,374.6,664.1,373.9,663.5z"/>
					<path class="st39" d="M375.7,668.8c0.2,1.4,4.4,1.3,2.3-1.6S375.5,667.4,375.7,668.8z"/>
					<path class="st39" d="M368.6,673.6c0.1-1-0.2-1.5-0.6-1.7c-0.1-0.2-0.2-0.3-0.3-0.5c-0.9-1.4-4.7,0-3.5,2
						c-0.1,0.1-0.2,0.2-0.4,0.3c-0.7,0.7-0.4,1.9,0.3,2.9v0.1H364c-0.7,0-1.3,0.7-1.6,1.6l0,0c-0.4-0.1-0.9,0.2-1.1,0.6
						c-1-0.3-2.1,0.1-1.9,2.3c0,0.3,0.1,0.5,0.1,0.7c-0.9,1.1-0.8,3.6,2,2.4c2.4-1,1.9-1.9,0.8-2.4c0.2-0.3,0.3-0.6,0.5-0.9
						c0.6,0.5,1.6,0.5,3.1-0.2c3.1-1.6,2.6-2.7,1.2-3.3c0.2-0.2,0.3-0.3,0.5-0.6c0.8-1,1.1-1.7,1-2.2
						C368.8,674.3,368.8,674,368.6,673.6z"/>
					<path class="st39" d="M370.5,678.8c2.9,1.8,2.2-1,1.6-2.2C371.5,675.5,367.7,677,370.5,678.8z"/>
					<path class="st39" d="M377.3,675.7c0.1-0.3,0.1-0.7,0.1-1c0-4-1.9-2.9-3.1-1.4c-1.6-0.3-3.5,0.5-1.9,3.5s2.6,2.4,3.1,1
						c0.3,1.2,2.1,2.4,2.7-0.2C378.5,675.7,378,675.4,377.3,675.7z"/>
					<path class="st39" d="M379.6,678.9c-1.6,0.7-0.2,5.6,2.5,2.2S381.2,678.2,379.6,678.9z"/>
					<path class="st39" d="M381.5,673.8c0-0.4-0.1-0.8-0.3-1.2c-0.5-1.3-4.4-0.4-1.9,1.9c0.7,0.7,1.2,0.9,1.6,0.8
						c0.1,0.3,0.2,0.5,0.4,0.8c1.9,3.1,2.5,0,2.4-1.4C383.7,673.8,382.4,673.4,381.5,673.8z"/>
					<path class="st39" d="M386.4,671.1c-0.9,1.1-1.5,2.5-1.5,3.9c-0.1,2.3,6.2,3.5,4.3-1.3c0.4-0.2,0.7-0.5,1.1-0.8
						C392,671.5,388.4,666.2,386.4,671.1z"/>
					<path class="st39" d="M392,670.7c0,1.2,3.3,1.7,2-0.9C392.8,667.2,392,669.5,392,670.7z"/>
					<path class="st39" d="M387.8,664.6c0-0.1,0-0.2,0-0.3c0.4,0.9,1.2,1.6,2.1,1.9c5.5,2.9,3.8-2.1,2.4-4.2c-1.1-1.6-4.9,0-4.5,2
						c-0.3-0.5-0.7-0.9-1.2-1.1c0.5-0.5,0.8-1.2,1-1.9h0.4c4.1,0,1.6-2.4,0.1-3.1c-0.6-0.2-1.2,0-1.6,0.5l0,0
						c0.2-0.6,0.1-1.3-0.5-1.8c1.1-0.3,1.8-1.3,0.1-2.9c-3.1-2.7-2.7,0.7-2.2,2.3c0,0,0,0.1,0.1,0.1c-0.5,0.5-0.8,1.1-0.7,1.8
						c0,0.4,0,0.8,0,1.2c-3.5,1.9-1.9,3.2,0.2,3.8c-0.4,0.1-0.7,0.5-0.6,1h-0.1c-0.7-0.3-1.7,0.6-1.9,1.6c-0.5,0.3-1,1-1.1,2.4
						c-0.6,5.2,2.8,2.3,4,0.6c0.3-0.6,0.2-1.3-0.2-1.8l0,0v0.1C386.4,672.3,387.8,667.2,387.8,664.6z"/>
					<path class="st39" d="M389.4,658.4c0.7,1.6,5.4-0.1,2-2.6C388,653.4,388.7,656.9,389.4,658.4z"/>
					<path class="st39" d="M393.6,651.4c0.2-0.2,0.4-0.4,0.5-0.6c0.2-0.2,0.2-0.6,0.1-0.8c0.3-0.4,0.6-0.8,0.6-1.3
						c0.7-3.5-1.8-1.7-2.7-0.6c-0.1,0.2-0.2,0.4-0.2,0.6c-0.5,0.4-0.8,1-0.8,1.7c-0.2,1.6,0.1,2.2,0.6,2.2c0,0.1-0.1,0.2-0.2,0.3
						c-2.2,3.6,1.3,2.7,2.7,1.8C395.3,654,394.7,651.8,393.6,651.4z"/>
					<path class="st39" d="M398.5,652.3c0.6-0.3,1.2-0.6,1.7-1c0.7,0.3,1.5,0.6,2.4,0.6c1.2,0.1,2.1-2.1,1.4-3.1
						c0.8,0.2,1.7,0.2,2.6,0c0.8,0,1.5-0.1,2.3-0.2c2.1-0.5,2-5.6-0.9-5.2c-0.8-0.2-1.7,0-2.3,0.7c0.2-0.7-0.4-2-1-2.8
						c-1-1.2-4.9,1.2-1.3,2.8c0.6,0.3,1.3,0.5,1.9,0.4c-0.2,0.2-0.3,0.3-0.5,0.5c-1.4,1.7-1.7,2.7-1.3,3.3c-0.7-0.2-1.5-0.1-2.2,0.3
						c-0.4,0.2-0.9,0.4-1.2,0.7c-1.1-0.6-2.3-1-3.5-1.1c-1.9-0.2-3.2,4.1-0.9,4.8c-0.4,1.1,0.4,3.1,2.3,1.4
						C399,653.2,399,652.6,398.5,652.3z"/>
					<path class="st39" d="M386.3,645.2c0.4,0.3,0.9,0.5,1.4,0.7c0.2,0,0.4,0,0.5-0.1c-0.3,0.8,1.4,1.4,2.4,1.6
						c1.4,0.2,2.3-3.8-0.9-2.5c-0.3,0.1-0.6,0.3-0.9,0.5c0.4-0.7,0.3-1.6-0.9-1.6c-0.1-0.8-0.6-1.5-1.3-1.9c-3.7-2.9-3.1,1-2.4,2.8
						C384.5,645.2,385.4,645.3,386.3,645.2z"/>
					<path class="st39" d="M392.2,639.3c0.1,0.9,0.3,1.8,0.6,2.6c0.4,0.7,1.1,1.1,1.9,1c-1.1,3.8,3,2.1,4.8,0.7
						c1.1-0.9,0.4-3.2-0.9-4.1c-0.1-0.3-0.4-0.5-0.6-0.6c1.4-0.3,1.2-1.3,0.6-2.3c1-0.6-0.6-1.7-1.6-2.1c-0.1-0.1-0.3-0.1-0.5,0
						l-0.1-0.1c-1-0.7-2.8,0.3-3.4,1.6c-0.4,0.2-0.8,0.4-1.2,0.6C391.3,637.1,391.5,638.5,392.2,639.3z"/>
					<path class="st39" d="M405.1,675.7L405.1,675.7c1.2-0.5,1.8-1.7,0-3.9c-3.5-4.3-4.1-0.2-3.8,2.2c-1.9,0.6-3.5,4.2-0.6,4.9
						c-0.1,0.1-0.2,0.2-0.2,0.4c-1,1.9-0.7,2.7,0,2.9c0.2,0.5,0.8,0.4,1.4,0.1c-0.2,0.5-0.2,1-0.3,1.6c-0.3,6.4,3.6,2.6,4.9,0.4
						c0.6-1-0.3-2.5-1.6-3.2c1-0.5,1.7-1.4,2.1-2.4c0.2-0.2,0.3-0.3,0.4-0.5C410,674.6,406.8,675,405.1,675.7z"/>
					<path class="st39" d="M403.9,667.2c1.2-1.7-3.3-5.9-4-0.7C399.2,671.7,402.7,668.9,403.9,667.2z"/>
					<path class="st39" d="M407.5,635.8c2.9,0.7,1.6-1.5,0.6-2.2C407.1,632.7,404.5,635.1,407.5,635.8z"/>
					<path class="st39" d="M407.5,637.3c-0.3-1.2-3.9-0.6-1.7,1.6C407.9,641,407.8,638.5,407.5,637.3z"/>
					<path class="st39" d="M401.4,645.8c1.1,0.4,2.7-2.7-0.2-2.3C398.3,643.9,400.2,645.3,401.4,645.8z"/>
					<path class="st39" d="M410.5,666.2c0.3-0.2,0.5-0.4,0.8-0.6c0.4-0.4,0.2-1.2-0.2-1.7c0-0.2,0-0.5,0-0.7
						c0.8,0.4,1.6,0.6,2.4,0.8c1.8,0.3,3.4-3.2,2-4.7c0.2-0.7,0.1-1.5-0.2-2.2c-0.5-1.2-4.2-0.3-1.9,1.8c-0.5,0.1-0.9,0.2-1.3,0.3
						c-1,0.2-1.9,0.7-2.6,1.4c-1.1-0.3-2.3-0.1-3.1,0.7h-0.2c0.1-0.7,0.2-1.3,0.1-2c0-0.5-0.6-0.9-1.2-1.1c0.1-0.3,0.1-0.5,0.2-0.8
						c0.5,0.2,1.1,0.2,1.6,0c1.2-0.4,1.6-0.9,1.5-1.2c3.6,0.2,2.1-2,0.7-3.1c1.4-0.8,2.4-3.4-1.1-3.3c-1.7,0-2.3,0.5-2.4,1
						c-0.5,0.4-0.7,1.1-0.5,2.5c0.1,0.6,0.3,1.3,0.6,1.8c-0.5,0.3-0.8,0.7-0.8,1.3c-0.5-0.1-1.1-0.1-1.6,0.2
						c-0.5-3.6-3.5-0.6-4.7,1.3c-0.9,1.6,2,4.4,3.7,3.1c0.3,0.2,0.7,0.2,1,0.1v0.1c0.3,0.5,0.7,0.9,1.1,1.3
						c-0.2,0.6-0.1,1.6,0.9,2.8c1.7,2.2,2.7,2.1,3.2,1.2c0.2,0.6,0.8,0.5,1.4,0.2C410.2,666.5,410.4,666.4,410.5,666.2z"/>
					<path class="st39" d="M432.8,654.4c-0.1-1.3-3.5-1.5-2.7,0.7c-0.3,0-0.6,0-0.9,0c-0.4,0-0.9,0-1.3,0.1
						c-0.1-0.3-0.2-0.5-0.3-0.7c0.5-0.6,0.8-1.4,0.8-2.2c0-0.7-1.1-1.3-1.9-1.1c-0.1-0.3-0.3-0.5-0.5-0.8c0.2-0.8-0.2-1.1-0.9-1.1
						c-0.3-0.7-1.1-1.3-2.8-1.6c-0.3,0-0.6-0.1-0.9-0.1c0.2-0.2,0.3-0.5,0.2-0.8c0.1-0.4,0-0.8-0.3-1.1c-0.1-0.3-0.3-0.6-0.5-0.8
						c-2.8-4.2-3.5,0-3.4,2c0,0.6,0.6,1,1.3,1.2c-0.8,1.1,1.1,3.3,2.4,4.4c0.5,0.3,1,0.4,1.6,0.2c-0.1,0.4-0.1,0.9-0.1,1.3l-0.7,0.3
						c-0.3,0.1-0.5,0.4-0.6,0.7c-2.3,0.1-1.1,2.3,0.2,3.7c-0.1,0-0.2,0.1-0.2,0.2c-1.1-0.9-2.6-0.8-3.6,2c-0.1,0.3-0.2,0.6-0.3,0.9
						c-1.3,0.1-2.4,2.1-2.1,3.6c-1.9,0.8,0.2,2.1,1.6,2.5c0.6,0.2,1.2-0.4,1.6-1.1c0.3-0.1,0.7-0.2,1-0.3c3.4-1.2,3.3-2.5,2.1-3.4
						c0.2-0.2,0.5-0.4,0.7-0.6c0.2-0.3,0.4-0.6,0.4-1c1-0.1,1.9-0.9,0.6-2.1c0.4-0.1,0.8-0.2,1.2-0.5c0.6,0.8,2.2-0.2,3.1-1.2
						c0.4,0.4,0.9,0.7,1.4,1c0.9,0.5,2.3-0.6,2.6-1.8C432.6,657.3,432.9,655.4,432.8,654.4z"/>
					<path class="st39" d="M424.6,645c-2.6,3,0.8,2.7,2.3,2.1C428.4,646.5,427.2,641.9,424.6,645z"/>
					<path class="st39" d="M425.1,640.7c1.9,3.4,3.1,2.3,3.6,0.5c0.3-0.1,0.5-0.2,0.8-0.3c5.3,0,1.9-3.4-0.1-4.6
						c-0.9-0.3-1.9,0-2.4,0.7C425.2,636.7,423.4,637.6,425.1,640.7z"/>
					<path class="st39" d="M424,636.6c3.8,0.2,1.6-2.1,0.3-2.9S420.2,636.4,424,636.6z"/>
					<path class="st39" d="M411.7,672.8c-3.1,1.7-0.2,2.5,1.3,2.5C414.4,675.3,414.8,671.1,411.7,672.8z"/>
				</g>
				<path class="st6" d="M139.6,558.5v118.4c0,14.6-11.8,26.4-26.4,26.4l0,0H50.9c-14.6,0-26.4-11.8-26.4-26.4l0,0V558.5
					c0-14.4,11.5-26.1,25.9-26.4v-18.3h63.4v18.3C128.1,532.4,139.6,544.1,139.6,558.5z"/>
				<path class="st40" d="M116.2,508.6v6H47.9v-6c0-2.3,1.9-4.2,4.2-4.2l0,0H112C114.3,504.4,116.2,506.3,116.2,508.6L116.2,508.6z"
					/>
				<path class="st41" d="M120.6,518.9c0,2.3-1.9,4.2-4.2,4.2H47.7c-2.3,0-4.2-1.8-4.2-4.2c0-1.1,0.4-2.2,1.3-3
					c0.8-0.8,1.9-1.2,3-1.2h68.8C118.8,514.7,120.6,516.6,120.6,518.9z"/>
				<path class="st42" d="M22.9,567.1h118.3c2.4,0,4.4,2,4.4,4.4v2c0,2.4-2,4.4-4.4,4.4H22.9c-2.4,0-4.4-2-4.4-4.4v-2
					C18.5,569,20.5,567.1,22.9,567.1z"/>
				<path class="st42" d="M22.9,648.9h118.3c2.4,0,4.4,2,4.4,4.4v2c0,2.4-2,4.4-4.4,4.4H22.9c-2.4,0-4.4-2-4.4-4.4v-2
					C18.5,650.9,20.5,648.9,22.9,648.9z"/>
				<rect x="22.9" y="577.9" class="st43" width="118.3" height="71"/>
				<g class="st44">
					<path class="st6" d="M113,623.3c-8-1-14-2.3-21.8,1.2c-2.5,1.3-4.9,2.9-7.1,4.7c2.1-14.3,10.8-27.6,26.3-30.9
						c10.2-2,24.4,3.1,22.2,15.4C131,622.8,120.7,624,113,623.3z"/>
				</g>
				<g class="st44">
					<path class="st6" d="M89.4,629c4.3-3.7,12.4-4,17.3-3.1c4.6,0.7,11.1,6,6.5,10.7C107.6,642.8,97.6,630.5,89.4,629z"/>
				</g>
				<g class="st44">
					<path class="st6" d="M81.1,623.3c-4.7-5.7-6.1-13.3-3.7-20.3c1.6-5.3,10.3-19,17.8-13.1c5.3,4.3-2.2,13-5,16.3
						C85.9,611.4,81.9,616.4,81.1,623.3z"/>
				</g>
				<path class="st6" d="M50.8,628.7l4.1-19.5l-7.8,19.5h-5.6v-17.6L36,628.7h-3.3l9.2-28.4c-4.1,1.2-6.9,5.1-6.6,9.4
					c0,1,0.2,1.9,0.6,2.8c-2.8,0-4.4-1-4.4-4c0-5,7-10.6,13.4-10.6c1,0,1.9,0.1,2.9,0.4v23.8l9-23.8h6.5l-6.5,30.4L50.8,628.7
					L50.8,628.7z"/>
				<path class="st6" d="M70.9,608.1l-3,14c-0.1,0.4-0.1,0.9-0.2,1.3c0,0.9,0.4,1.6,2.1,1.6s3.8-2.3,5.4-3.6h1.4
					c-1.9,1.9-6.6,7.4-9.8,7.4c-3.2,0-5.1-1.4-5.1-4.5c0-0.7,0.1-1.4,0.2-2.1l3-14h6V608.1z M69,599.3c1.8-0.1,3.4,1.2,3.5,3.1
					c0.1,1.8-1.2,3.4-3.1,3.5c-0.2,0-0.3,0-0.5,0c-1.8-0.1-3.2-1.7-3.1-3.5C66,600.7,67.3,599.4,69,599.3z"/>
				<path class="st6" d="M84.1,599.8l-4.7,22.3c-0.1,0.4-0.2,0.9-0.2,1.3c0,0.9,0.5,1.6,2.1,1.6s3.8-2.3,5.4-3.6h1.4
					c-1.9,1.9-6.6,7.4-9.8,7.4c-3.2,0-5.1-1.4-5.1-4.5c0-0.7,0.1-1.4,0.2-2.1l4.6-21.4L84.1,599.8z"/>
				<path class="st6" d="M104.8,608.1l-8.2,5.6c0.3,0,0.6-0.1,1-0.1c2.7,0.3,4.7,2.5,4.8,5.2c0,0.3,0,0.6-0.1,1l-0.5,2.4
					c-0.2,0.6-0.3,1.2-0.3,1.7c0,0.7,0.3,1.2,1.6,1.2c0.4,0,0.7,0,1.1-0.1c-1.2,3.6-2.9,3.8-4.3,3.8c-2.9,0-4.2-1.9-4.2-4.5
					c0-0.7,0.1-1.4,0.2-2.1l0.4-1.9c0-0.3,0-0.6,0-1c0-1.3-0.6-2.6-1.9-2.6c-0.9,0-1.8,0.3-2.5,0.9l-2.3,11.2h-5.9l6-28.1l6.1-0.8
					l-3.1,14.4c3.1-2.4,7.8-6.2,7.8-6.1L104.8,608.1z"/>
				<path class="st45" d="M141.2,577.9v71c2.4,0,4.4,2,4.4,4.4l0,0v2.1c0,2.4-2,4.4-4.4,4.4l0,0h-1.6V677
					c0,14.6-11.8,26.4-26.4,26.4l0,0H94.9c8.7,0,15.8-11.8,15.8-26.4V558.5c0-14.4-6.9-26.1-15.5-26.4v-9h1.6c1.4,0,2.5-1.9,2.5-4.2
					s-1.1-4.2-2.5-4.2h-0.2v-6.1c0-2.4-1.1-4.2-2.5-4.2h17.8c2.3,0,4.2,1.9,4.2,4.2l0,0v6.1h0.3c2.3,0,4.2,1.9,4.2,4.2
					s-1.9,4.2-4.2,4.2l0,0h-2.7v9c14.4,0.3,25.9,12,25.9,26.4v8.5h1.6c2.4,0,4.4,2,4.4,4.4l0,0v2
					C145.5,575.9,143.6,577.8,141.2,577.9z"/>
				<path class="st46" d="M1119.4,535.2v-12.1h-44.7v12.1c-12.7,1.5-22.3,12.3-22.3,25.1v128.1c0,14,11.3,25.3,25.3,25.3l0,0h38.7
					c14,0,25.3-11.3,25.4-25.3c0,0,0,0,0-0.1v-128C1141.8,547.5,1132.2,536.6,1119.4,535.2z"/>
				<rect x="1073.6" y="511.2" class="st47" width="46.9" height="20.9"/>
				<rect x="1052.4" y="591.6" class="st48" width="89.4" height="52.1"/>
				<path class="st49" d="M1104.5,621.2c0,6.3-4,11.5-8.9,11.5s-8.9-5.2-8.9-11.5s9.4-20,9.4-20S1104.5,614.8,1104.5,621.2z"/>
				<path class="st50" d="M1073,589.5c-13.5,17.8-30,31.2-46.9,45.1l-2.9-2.4c0-0.1,0.1-0.1,0.1-0.2l-2-1.7
					c11.1-18.8,21.9-37.1,37.4-53.2c3.3-3.6,13.8-13.3,19.2-10l1.9,1.9C1084,573.8,1076,585.7,1073,589.5z"/>
				<g class="st51">
					<path class="st52" d="M1073,589.5c-13.5,17.8-30,31.2-46.9,45.1l-2.9-2.4c0-0.1,0.1-0.1,0.1-0.2l0.8,0.7
						c16.9-13.9,33.4-27.3,46.9-45.1c2.7-3.5,9.6-13.7,7.7-19.1c-0.2-0.5-0.5-1-0.8-1.5l1.9,1.9C1084,573.8,1076,585.7,1073,589.5z"
						/>
				</g>
				<path class="st53" d="M1097.8,636c0,4-0.3,7.9-0.8,11.8c-0.2,1.4-0.4,2.7-0.7,4.1c-0.3,1.6-0.6,3.2-1,4.8
					c-0.5,2.1-1.1,4.2-1.8,6.2c-1,3.1-2.2,6-3.5,8.9c-0.5,1.1-1,2.2-1.6,3.3c-1,2.1-2.2,4-3.4,6c-0.4,0.7-0.9,1.4-1.4,2.1
					c-0.8,1.3-1.7,2.5-2.6,3.7c-1.4,1.8-2.7,3.6-4.3,5.4c-1.2,1.4-2.4,2.7-3.7,4c-1.3,1.2-2.2,2.2-3.4,3.3
					c-4.8,4.4-10.2,8.3-15.9,11.5H969c-5.7-3.2-11-7.1-15.9-11.5c-1.2-1.1-2.3-2.2-3.4-3.3c-1.1-1.1-2.5-2.6-3.7-4
					c-1.5-1.7-2.9-3.5-4.3-5.4c-0.9-1.2-1.8-2.5-2.6-3.7c-0.5-0.7-0.9-1.4-1.4-2.1c-1.2-1.9-2.3-3.9-3.4-6c-0.6-1.1-1.1-2.2-1.6-3.3
					c-1.3-2.9-2.5-5.9-3.5-8.9c-0.7-2-1.3-4.1-1.8-6.2c-0.4-1.5-0.7-3.2-1-4.8c-0.3-1.4-0.5-2.7-0.7-4.1c-0.5-3.9-0.8-7.9-0.8-11.8
					H1097.8z"/>
				<path class="st54" d="M1097.8,636c0,4-0.3,7.9-0.8,11.8c-0.2,1.4-0.4,2.7-0.7,4.1c-0.3,1.6-0.6,3.2-1,4.8
					c-0.5,2.1-1.1,4.2-1.8,6.2c-1,3.1-2.2,6-3.5,8.9c-0.5,1.1-1,2.2-1.6,3.3c-1,2.1-2.2,4-3.4,6c-0.4,0.7-0.9,1.4-1.4,2.1
					c-0.8,1.3-1.7,2.5-2.6,3.7c-1.4,1.8-2.7,3.6-4.3,5.4c-1.2,1.4-2.4,2.7-3.7,4c-1.3,1.2-2.2,2.2-3.4,3.3
					c-4.8,4.4-10.2,8.3-15.9,11.5h-40.3c4.9-3.3,9.5-7.1,13.5-11.5c1-1.1,1.9-2.2,2.9-3.3c0.9-1.1,2.1-2.6,3.1-4
					c1.3-1.7,2.5-3.5,3.7-5.4c0.8-1.2,1.5-2.5,2.2-3.7c0.4-0.7,0.8-1.4,1.1-2.1c1-1.9,2-3.9,2.9-6c0.5-1.1,0.9-2.2,1.4-3.3
					c1.1-2.9,2.1-5.9,3-8.9c0.6-2,1.1-4.1,1.5-6.2c0.3-1.5,0.6-3.2,0.9-4.8c0.2-1.4,0.4-2.7,0.6-4.1c0.5-3.9,0.7-7.9,0.7-11.8
					H1097.8z"/>
				<path class="st55" d="M1097,647.9c-0.2,1.4-0.4,2.7-0.7,4.1H926.8c-0.3-1.4-0.5-2.7-0.7-4.1H1097z"/>
				<path class="st55" d="M1095.3,656.8c-0.5,2.1-1.1,4.2-1.8,6.2H929.6c-0.7-2-1.3-4.1-1.8-6.2H1095.3z"/>
				<path class="st55" d="M1090,672c-0.5,1.1-1,2.2-1.6,3.3H934.7c-0.6-1.1-1.1-2.2-1.6-3.3H1090z"/>
				<path class="st55" d="M1073.2,696.4c-1.1,1.1-2.2,2.2-3.4,3.3H953.3c-1.2-1.1-2.3-2.2-3.4-3.3H1073.2z"/>
				<path class="st55" d="M1085,681.3c-0.4,0.7-0.9,1.4-1.4,2.1H939.4c-0.5-0.7-0.9-1.4-1.4-2.1H1085z"/>
				<path class="st55" d="M1081.1,687.1c-1.4,1.8-2.7,3.6-4.3,5.4H946.3c-1.5-1.7-2.9-3.5-4.3-5.4H1081.1z"/>
				<path class="st6" d="M1082.4,636H940.7c0-2.9-1.8-7.4-0.9-9.3c1.9-3.6,6.1-1.9,9.1-1.7c3.3,0.3,6.1,0.3,9.1-1.7
					c4.1-2.7,3.1-6.4,8.9-5.3c4.4,0.8,5.5,1.7,9.7,0.3c5-1.9,5.5-3.9,8.8-7.8c6.9-8.2,14.9,0.6,23,1.9c6.1,1.4,5-2.2,11-2.5
					c6.4-0.3,7.5-0.3,11.1,4.1c5,5.8,12.4,2.2,19.1,1.4c4.4-0.5,9.1-0.5,11.3,4.1c1.9,3.9-0.3,6.1,5.2,7.5c3,0.8,8-0.8,10.5,0.8
					C1078.7,630.6,1080.7,633.2,1082.4,636z"/>
				<g class="st56">
					<path class="st57" d="M1049.2,611.4c-2,1.8-4,3.7-6,5.5c-4.5,0.9-9,1.4-12.3-2.2c1.5-2.4,2.9-4.7,4.5-7.1
						c2.1,2.2,4.9,3.6,7.9,3.8C1045.1,611.4,1047.1,611.3,1049.2,611.4z"/>
				</g>
				<g class="st56">
					<path class="st58" d="M1082.4,636h-14.9c-1-1.2-2.2-2.2-3.6-3c-1.2-0.8-3.5-2.1-4.1-3.5s-0.3-2.1-0.3-3.6
						c0.3-4.3-1.9-8.4-5.6-10.6c3-0.1,5.7,1.7,7,4.4c1.9,3.9-0.3,6.1,5.2,7.5c3,0.8,8-0.8,10.5,0.8
						C1078.7,630.6,1080.7,633.3,1082.4,636z"/>
				</g>
				<g class="st56">
					<path class="st58" d="M1041.2,617.2c-2.9,1.3-6.1,2.1-9.3,2.2c-2.6,0.2-5.2-0.7-7.2-2.5c-2-2-3.3-5.2-5.7-6.7h0.3
						c6.4-0.3,7.5-0.3,11.1,4.1C1033.4,617.7,1037.2,617.8,1041.2,617.2z"/>
				</g>
				<g class="st56">
					<path class="st58" d="M1035.6,636h-33.9c1-0.8,2.3-1.2,3.5-1.4c3.2-0.4,8,1,11-0.3c4.8-2.1-7.2-3.9-0.8-4.6
						c4-0.4,9.1,1.1,12.9,2.3C1030.8,633.3,1033.3,634.6,1035.6,636z"/>
				</g>
				<path class="st59" d="M918.8,704.5c-1.3,2.5-3.1,4.8-5.3,6.7c-6.3,5.5-15.2,7.8-23.3,8.1c-3.9,0.2-7.8-0.5-11.4-2.2l0,0
					c-7.5-3.8-10.8-11.9-14.3-21c-2.2-5.2-9.5-17.7-9.2-26c-0.1-2.7,1.1-5.3,3.2-7c12.5-8.7,44.1-16.9,59.5-6.9
					c4.9,3.2,8,8.4,8.5,14.2C927.7,681.7,924.2,694.6,918.8,704.5z"/>
				<path class="st60" d="M941.7,678.3c-0.3,8.5-1.5,16.8-5.9,23c-2.5,3.5-5.9,6.2-9.9,7.8c-4,1.4-8.2,2.1-12.5,2
					c2.2-1.9,4-4.1,5.3-6.7c5.5-9.9,8.9-22.7,7.9-34.1c-0.5-5.9-3.7-11.1-8.6-14.3c6.4,0,12.2,0.3,18,3.7c2.7,1.4,4.6,3.8,5.4,6.7
					C942.5,670.1,942,674.3,941.7,678.3z"/>
				<path class="st61" d="M951.9,687.9c-1.2,4.9-3.7,9.6-8.4,11.9c-2.5,0.8-5.1,1.4-7.7,1.6c4.4-6.2,5.6-14.6,5.9-23
					c0.3-4,0.7-8.2-0.3-11.8c4.1,0.9,9.1,4.5,10.4,7.6C953.6,678,953.1,683.7,951.9,687.9z"/>
				<path class="st60" d="M878.8,717.1c-5.5,1.8-11.4,1.1-16.4-1.7c-6.3-3.5-11.3-10.1-15.6-16.9c-1.8-3.1-3.1-6.5-3.9-10
					c-0.8-3-0.9-6.2-0.2-9.2c1.4-4.3,8.1-7.8,12.8-9.3c-0.3,8.4,6.9,20.8,9.2,26C868,705.2,871.3,713.4,878.8,717.1z"/>
				<path class="st61" d="M862.3,715.4c-7.8,3.8-16.7,2.3-22.2-5.2c-5.5-8-7.2-17.6,2.7-21.6c0.8,3.5,2.1,6.9,3.9,10
					C851,705.3,856,711.9,862.3,715.4z"/>
				<g class="st62">
					<path class="st63" d="M918.8,704.5c-1.3,2.5-3.1,4.8-5.3,6.7c-6.3,5.5-15.2,7.8-23.3,8.1c-3.9,0.2-7.8-0.5-11.4-2.2l0,0
						c-7.5-3.8-10.8-11.9-14.3-21c-1.5-3.5-5.3-10.3-7.5-16.9c-1.1-2.9-1.7-6-1.7-9.2c0.1-2.7,1-5.5,3.2-7
						c-1.4,10,3.9,24.5,7.8,30.6c2.9,4.5,6.7,8.3,11.2,11.2c4.1,2.7,8.4,1.8,13,0.8c7.9-1.8,16.8-3.9,23.9-8.4
						c7.2-4.8,7.6-16.8,7.6-24.7c0-6.6-1.4-13.1-5.7-17.5c0.6,0.3,1.3,0.7,1.9,1.1c4.9,3.2,8,8.4,8.5,14.3
						C927.7,681.7,924.2,694.6,918.8,704.5z"/>
				</g>
				<g class="st64">
					<path class="st63" d="M939,695.4c-0.1,0.3-0.2,0.5-0.3,0.8l-0.2,0.5c-0.1,0.2-0.2,0.4-0.2,0.5c0,0.2-0.2,0.3-0.2,0.5
						c-0.1,0.2-0.3,0.6-0.4,0.9c-0.1,0.2-0.2,0.4-0.3,0.5c-0.2,0.4-0.5,0.8-0.7,1.2c-0.2,0.3-0.4,0.7-0.7,1
						c-2.5,3.5-5.9,6.2-9.9,7.8c-4,1.4-8.2,2.1-12.5,2c2.2-1.9,4-4.1,5.3-6.7c5.5-9.9,8.9-22.7,7.9-34.1c-0.5-5.9-3.7-11.1-8.6-14.3
						c1.6,0,3.2,0,4.8,0.1c4.7,3.8,5.7,10.4,6.9,16.2c0.6,3,0.9,6,0.7,9c-0.1,3.1-1.2,8.2,0.1,11.2
						C932.1,695.9,935.9,696.4,939,695.4z"/>
				</g>
				<g class="st65">
					<path class="st63" d="M948.4,695.7c-1.3,1.8-3,3.2-4.9,4.1c-2.5,0.8-5.1,1.4-7.7,1.6c0.2-0.3,0.5-0.6,0.7-1
						c0.3-0.4,0.5-0.8,0.7-1.2c0.1-0.2,0.2-0.4,0.3-0.5c0.2-0.3,0.3-0.6,0.4-0.9s0.2-0.3,0.2-0.5c0.1-0.2,0.2-0.4,0.2-0.5
						c0.1-0.2,0.2-0.3,0.2-0.5c0.1-0.3,0.2-0.5,0.3-0.8s0.2-0.6,0.3-1c0.1-0.3,0.2-0.7,0.3-1c0.3-1,0.6-2,0.8-3.1
						c0.1-0.4,0.2-0.8,0.3-1.3c0.1-0.4,0.2-0.9,0.2-1.4s0.1-0.8,0.2-1.2c0.1-0.4,0.1-0.6,0.1-0.9s0.1-0.6,0.1-0.9
						c0.1-0.5,0.1-1.1,0.2-1.7l0.1-1c0-0.5,0-0.9,0.1-1.4c0-0.1,0-0.2,0-0.2c0-0.7,0-1.4,0.1-2.1c0.3-4,0.7-8.2-0.3-11.8
						c1,0.2,1.9,0.5,2.8,0.9c-1.9,3.3,0,10.5,0,13.7c0,2.8-0.2,5.5-0.6,8.2C943.3,692.4,945.7,694.7,948.4,695.7z"/>
				</g>
				<g class="st65">
					<path class="st63" d="M878.8,717.1c-5.5,1.8-11.5,1.1-16.4-1.7l-1-0.6c-0.3-0.2-0.5-0.3-0.8-0.5s-0.5-0.4-0.8-0.5
						c-0.6-0.5-1.2-0.9-1.8-1.4l-0.8-0.7c-0.3-0.2-0.5-0.5-0.8-0.7c-0.1,0-0.1-0.1-0.1-0.1c-0.2-0.2-0.5-0.5-0.7-0.7
						c1.8,0.8,3.8,1.2,5.8,1.2c4.1,0,5.1-1.7,4.2-5.3c-0.7-3.2-2-6.4-3-9.6c-1.6-5.6-5-11.2-5.5-17.1c2.2,6.6,6,13.4,7.5,16.9
						C868,705.2,871.3,713.4,878.8,717.1z"/>
				</g>
				<g class="st65">
					<path class="st63" d="M862.3,715.4c-5.7,3-12.7,2.6-18-1c2.9,0.4,5.5-0.1,5.4-3.2c-0.1-2.2-1.8-4.1-2.7-6.1
						c-1.2-2.8-2.4-5.9-3.3-8.9c-1.1-2.2-1.8-4.6-2.2-7c0.4-0.2,0.9-0.5,1.4-0.6c0.8,3.5,2.1,6.9,3.9,10c0.5,0.8,1.1,1.7,1.6,2.5
						c0.3,0.4,0.6,0.8,0.8,1.2l0.6,0.8c0.4,0.5,0.7,1,1.1,1.5c0.4,0.6,0.9,1.1,1.3,1.7c0.4,0.5,0.6,0.8,1,1.2
						c0.3,0.4,0.8,0.9,1.2,1.4s0.8,0.9,1.2,1.3c0.4,0.4,0.5,0.5,0.7,0.7c0,0.1,0.1,0.1,0.1,0.1c0.2,0.2,0.5,0.5,0.8,0.7
						s0.5,0.5,0.8,0.7c0.6,0.5,1.2,1,1.8,1.4c0.3,0.2,0.5,0.4,0.8,0.5c0.3,0.2,0.5,0.4,0.8,0.5L862.3,715.4z"/>
				</g>
				<g class="st66">
					<path class="st67" d="M869,668.5c3.7-1.1,7.3-2.7,10.6-4.7c3.6-2,9-2.2,13-2.6c1.4-0.2,9.5-0.3,6.5,2.2
						c-6.9,5.6-18.5,5.6-23.8,13.4c-0.7,0.8-0.7,1.9,0.1,2.7c0.2,0.2,0.5,0.3,0.7,0.4c7.7,3.8,17.3-0.6,24.9-1.9
						c2.4-0.4,6.9-1.5,7.6-4.3s-4.2-2.7-5.7-2.5c-3.1,0.5-6.1,1.4-9.1,2.1c-2.2,0.5-4.9,1.5-7,0.5l0.8,3.1c2-2.9,9.6-4.9,13.2-6.6
						c3.9-1.8,11.7-4.9,12.3-10c0.9-6.7-11.4-6.4-15.4-6.1c-5.1,0.4-10.2,1.1-15.3,2.3c-2.8,0.6-5.6,1.5-8.2,2.5
						c-2.4,1-4.5,2.7-7.1,3.5c-1.7,0.5-6.6,2.2-5.9,4.9C862.2,669.9,867.3,669,869,668.5L869,668.5z"/>
				</g>
				<path class="st68" d="M957.5,715.2c-1.1,2.1-2.6,4-4.5,5.6l-0.6,0.5c-5.2,4.3-12.5,6.1-19,6.4c-2.3,0.1-4.5-0.1-6.7-0.7
					c-0.3-0.1-0.6-0.2-0.9-0.3l-0.9-0.4c-0.2,0-0.3-0.1-0.5-0.2l-0.5-0.2c-3.1-1.6-5.6-4.1-7.3-7.2c-1.9-3.4-3.5-6.9-4.8-10.6
					l-0.3-0.7c-0.2-0.3-0.3-0.7-0.5-1.1c-0.2-0.4-0.4-0.8-0.6-1.2l-0.6-1.2l-0.6-1.3c-0.2-0.4-0.4-0.9-0.6-1.4
					c-0.1-0.2-0.2-0.5-0.3-0.7l-0.7-1.4c-0.5-1.1-0.9-2.2-1.4-3.3c-0.1-0.3-0.2-0.6-0.3-0.9c-0.1-0.3-0.2-0.7-0.4-1
					c-0.2-0.6-0.4-1.3-0.6-1.9l-0.2-0.9l-0.2-0.7c-0.1-0.4-0.2-0.9-0.2-1.4c0-0.2,0-0.4-0.1-0.6c0-0.1,0-0.1,0-0.2v-0.1l0,0
					c0-0.1,0-0.1,0-0.2c0-0.1,0-0.2,0-0.3c0-0.5,0-1,0-1.5c0-1.6,0.5-3.1,1.3-4.5c0.1-0.2,0.3-0.4,0.5-0.6c0.2-0.2,0.4-0.4,0.6-0.6
					c0,0,0.1-0.1,0.2-0.1l0.2-0.1l0,0c10.1-7.1,35-13.7,48.5-6.7l0,0c0.3,0.1,0.5,0.2,0.8,0.4l0.8,0.5c0.5,0.3,0.9,0.7,1.4,1
					c0.4,0.4,0.9,0.7,1.3,1.1c1,1,1.9,2.2,2.6,3.5c0,0.1,0.1,0.2,0.1,0.2c0.1,0.1,0.1,0.2,0.1,0.2c0.9,1.9,1.5,3.9,1.7,5.9
					C964.9,696.1,962,706.8,957.5,715.2z"/>
				<g class="st62">
					<path class="st63" d="M957.5,715.2c-1.1,2.1-2.6,4-4.5,5.6l-0.6,0.5c-5.2,4.3-12.5,6.1-19,6.4c-2.3,0.1-4.5-0.1-6.7-0.7
						c-0.3-0.1-0.6-0.2-0.9-0.3l-0.9-0.3c-0.2-0.1-0.3-0.1-0.5-0.2l-0.5-0.2c-3.1-1.6-5.6-4.1-7.3-7.2c-1.9-3.4-3.5-6.9-4.8-10.6
						l-0.3-0.7c-0.2-0.3-0.3-0.7-0.5-1.1c-0.2-0.4-0.4-0.8-0.6-1.2l-0.6-1.2l-0.6-1.3c-0.2-0.4-0.4-0.9-0.6-1.4
						c-0.1-0.2-0.2-0.5-0.3-0.7l-0.7-1.4c-0.5-1.1-0.9-2.2-1.4-3.3c-0.1-0.3-0.2-0.6-0.3-0.9c-0.1-0.3-0.2-0.7-0.4-1
						c-0.2-0.6-0.4-1.3-0.6-1.9l-0.2-0.9l-0.2-0.7c-0.1-0.4-0.2-0.9-0.2-1.4c0-0.2,0-0.4-0.1-0.6c0-0.1,0-0.1,0-0.2v-0.1
						c0-0.1,0-0.1,0-0.2c0-0.1,0-0.2,0-0.3c0-0.5,0-1,0-1.5c0-1.6,0.5-3.1,1.3-4.5c0.1-0.2,0.3-0.4,0.5-0.6c0.2-0.2,0.4-0.4,0.6-0.6
						c0,0,0.1-0.1,0.2-0.1c0,0,0.1-0.1,0.2-0.1l0,0c-1.1,8.4,3.3,20.6,6.5,25.7c2.4,3.8,5.6,7,9.4,9.4c3.5,2.4,7.1,1.5,11,0.7
						c6.6-1.5,14.1-3.3,20.1-7.1c6.1-4,6.4-14.1,6.4-20.8c0-5.5-1.2-11-4.8-14.7c0.3,0.1,0.5,0.2,0.8,0.4l0.8,0.5
						c0.5,0.3,0.9,0.7,1.4,1c0.4,0.4,0.9,0.7,1.3,1.1c1,1,1.9,2.2,2.6,3.5c0,0.1,0.1,0.2,0.1,0.2c0.1,0.1,0.1,0.2,0.1,0.2l0,0
						c0.9,1.9,1.5,3.9,1.7,5.9C964.9,696.1,962,706.8,957.5,715.2z"/>
				</g>
				<path class="st69" d="M976.3,694.4c-0.3,3.9-1.8,7.7-2.7,11.7s-2.3,8.9-5.8,11.3l-0.4,0.3l0,0c-2.8,1.8-6,3-9.3,3.5
					c-1.9,0.2-3.8,0.2-5.6,0l0.6-0.5c1.8-1.6,3.3-3.5,4.5-5.6c4.6-8.3,7.5-19.2,6.6-28.7c-0.2-2.1-0.8-4.1-1.7-5.9
					c3.6,0.2,7.1,1.3,10.1,3.2c2,1.3,3.3,3.4,3.6,5.7l0,0C976.4,691.1,976.5,692.8,976.3,694.4z"/>
				<path class="st70" d="M985.4,706.1c-1.2,3.8-3.9,9-7.6,10.7c-3.2,1.5-6.9,1-10.4,0.9l0.4-0.3c3.5-2.5,4.9-7.4,5.8-11.3
					c0.8-3.9,2.5-7.7,2.7-11.7c0.2-1.7,0.1-3.3-0.2-5c3.3,0.6,8.1,2.6,9.6,5.5S986.2,703.5,985.4,706.1z"/>
				<path class="st69" d="M924.8,726.3c-3.2,1.6-6.9,1.9-10.4,1c-5-1.3-9.5-5.1-13.3-10.3c-2.9-4.3-7.9-10-8.2-15.7l0,0
					c0-0.5,0-1,0-1.6c0.6-5.1,6.1-9.5,11.3-11.6l0,0v0.1c0,0.1,0,0.1,0,0.2c0,0.2,0,0.4,0.1,0.6c0,0.4,0.1,0.9,0.2,1.4l0.2,0.7
					l0.2,0.9c0.2,0.6,0.4,1.2,0.6,1.9c0.1,0.3,0.2,0.7,0.4,1c0.1,0.4,0.2,0.6,0.3,0.9c0.4,1.1,0.9,2.2,1.4,3.3
					c0.2,0.5,0.4,1,0.7,1.4c0.1,0.2,0.2,0.5,0.3,0.7c0.2,0.5,0.4,0.9,0.6,1.4l0.6,1.3l0.6,1.2c0.2,0.4,0.4,0.8,0.6,1.2
					c0.2,0.4,0.4,0.8,0.5,1.1l0.3,0.7c1.3,3.7,2.9,7.2,4.8,10.6c1.7,3,4.2,5.5,7.3,7.2l0.5,0.2l0.3,0.1L924.8,726.3z"/>
				<path class="st70" d="M914.3,727.3c-8.5,4.6-15.6,8.5-23.7-1.2c-3.9-4.7-6.9-8.8-4.7-14.7c1.1-4,3.5-7.6,6.9-10.2
					c0.2,5.7,5.3,11.4,8.2,15.7C904.9,722.2,909.4,726,914.3,727.3z"/>
				<g class="st64">
					<path class="st63" d="M972.4,710.4c-0.8,2.8-2.4,5.2-4.6,7l-0.4,0.3l0,0c-2.8,1.8-6,3-9.3,3.5c-1.9,0.2-3.8,0.2-5.6,0l0.6-0.5
						c1.8-1.6,3.3-3.5,4.5-5.6c4.6-8.3,7.5-19.1,6.6-28.7c-0.2-2.1-0.8-4.1-1.7-5.9c0.7,0.1,1.5,0.2,2.2,0.3
						c1.4,5.8,3.6,10.7,2.7,17.1c-0.3,2.5-2.1,6.7-1,9.2C967.3,709.5,969.8,710.8,972.4,710.4z"/>
				</g>
				<g class="st64">
					<path class="st63" d="M985.3,706.3c-1.2,3.8-3.9,8.9-7.5,10.5c-3.2,1.5-6.9,1-10.4,0.9l0.4-0.3c2.2-1.8,3.8-4.3,4.6-7
						c0.5-1.4,0.9-2.9,1.2-4.3c1-3.9,2.5-7.7,2.7-11.7c0.2-1.7,0.1-3.3-0.2-5c1.1,0.2,2.2,0.5,3.2,0.9l0,0c0.5,3.4-0.3,6.9-0.1,10.1
						C979.5,704.6,982,706.1,985.3,706.3z"/>
				</g>
				<g class="st64">
					<path class="st63" d="M924.8,726.3c-3.2,1.6-6.9,1.9-10.4,1c-3.4-1-6.4-2.8-8.9-5.2c2.7,0.5,5.2-2.2,5.4-5.1
						c0.2-3.5-1.4-6.9-2.7-9.9c-2.4-4.7-7.7-11.7-6.6-17.7c0.9-0.5,1.8-1,2.7-1.4l0,0v0.1c0,0.1,0,0.1,0,0.2c0,0.2,0,0.4,0.1,0.6
						c0,0.4,0.1,0.9,0.2,1.4c0.1,0.2,0.1,0.5,0.2,0.7l0.2,0.9c0.2,0.6,0.4,1.2,0.6,1.9c0.1,0.3,0.2,0.7,0.4,1
						c0.1,0.4,0.2,0.6,0.3,0.9c0.4,1.1,0.9,2.2,1.4,3.3c0.2,0.5,0.4,1,0.7,1.4c0.1,0.2,0.2,0.5,0.3,0.7c0.2,0.5,0.4,0.9,0.6,1.4
						l0.6,1.3l0.6,1.2c0.2,0.4,0.4,0.8,0.6,1.2c0.2,0.4,0.4,0.8,0.5,1.1l0.3,0.7c1.3,3.6,2.9,7.2,4.8,10.6c1.7,3,4.2,5.5,7.3,7.2
						l0.5,0.2l0.3,0.1L924.8,726.3z"/>
				</g>
				<g class="st64">
					<path class="st63" d="M914.3,727.3c-5.8,3.2-11.1,6-16.4,4.3c1.8-0.6,3.1-2.1,3.6-3.9c0.5-2.6-2-5.3-3.5-7.1
						c-3.6-4.7-7.8-10.6-8.1-16.8c0.8-1,1.7-1.8,2.7-2.5c0.2,5.7,5.3,11.4,8.2,15.7C904.9,722.2,909.4,726,914.3,727.3z"/>
				</g>
				<path class="st67" d="M917.7,685.4c7.6-0.7,15.3-4.4,23-3l-1.8-3c-2.9,4-25.8,10.6-21.7,17.8c2.5,4.4,10.7,2.7,14.6,2
					c3.2-0.6,6.3-1.4,9.5-2.2c1.5-0.4,2.9-0.8,4.4-1.2c0.8-0.2,2.3-0.4,1.2-0.4c2.6-0.1,5.9-0.8,7.6-3c1.7-2.2-1.4-3.2-3-3.1
					c-4.3,0.4-8.4,1.3-12.5,2.6c-1.1,0.3-9.7,3.2-10.5,1.8c-0.6-1,19.1-11.5,21.1-14.3c1.2-1.6-0.2-2.7-1.8-3
					c-9.8-1.9-18.7,2.1-28.4,2.9c-2.1,0.2-5.9,1.4-6.6,3.7C912.2,685.7,916.4,685.6,917.7,685.4L917.7,685.4z"/>
				<g class="st71">
					<path class="st72" d="M909.5,678.6c-1,0.5-1.8,1.1-2.6,1.6l0,0h-0.1c0,0-0.1,0-0.1,0.1l-0.2,0.1l-0.6,0.6
						c-0.2,0.2-0.3,0.4-0.5,0.6c-0.8,1.3-1.3,2.9-1.3,4.5c0,0.5,0,1,0,1.5c0,0.1,0,0.2,0,0.3c0,0,0,0.1,0,0.2
						c-0.9,0.4-1.9,0.8-2.7,1.4c-4.2,2.3-8,6-8.5,10.3c0,0.5,0,1,0,1.6l0,0c-0.4,0.3-0.9,0.7-1.3,1l-0.3,0.3l-0.5,0.5
						c-0.2,0.2-0.4,0.4-0.6,0.7l0,0c-0.6,0.7-1.1,1.4-1.6,2.2c-1.1,1.7-1.9,3.6-2.5,5.5c-1,2.5-1,5.2,0,7.7c-2.5-0.2-4.9-0.9-7.1-2
						l0,0c-2.5,0.8-5.1,1.1-7.7,0.9v-0.1c0.8-1.2,2.8-1.2,3.6-2.1c0.2-0.3,0.4-0.6,0.6-0.9c0.8-1.7,0.3-3.8,0.9-5.7
						c0.4-1.4,1.1-2.8,2-3.9c0.7-0.9,1.4-1.6,2.3-2.3c1.5-1.2,3.8-1.8,4.9-2.7c1.5-1.5,1.4-3.9,2.7-5.6c1.5-2,4.1-3.5,5.5-5.5
						c1.1-1.6,0.8-3.8,1.8-5.5c1.2-1.7,3-2.9,4.9-3.5C903.2,679.4,906.4,679.3,909.5,678.6z"/>
				</g>
				<g id="_Grupo_6">
					<g id="_Grupo_7">
						<g id="_Grupo_8">
							<path id="_Trazado_7" class="st73" d="M173.5,648.3l-0.5-1.8c-0.1-0.6-0.3-1.3-0.5-2.1c-0.3-0.9-0.6-1.8-0.9-2.6
								c-0.4-0.9-0.7-2-1.2-3.1s-1-2.2-1.6-3.2c-0.5-0.8-1-1.6-1.6-2.5c-0.2-0.3-0.3-0.5-0.5-0.8c-0.4-0.5-0.8-1.1-1.3-1.7
								c-0.4-0.5-0.8-1-1.2-1.4c-0.9-1-1.8-1.9-2.8-2.8c-0.9-0.9-1.9-1.7-2.9-2.4c-1-0.8-2-1.4-2.9-2s-1.9-1.1-2.7-1.6
								c-1.4-0.7-2.8-1.3-4.3-1.8l-1.2-0.3l-0.5-0.1l1.5-4.8l0.5,0.2l1.4,0.6c1.6,0.8,3.1,1.6,4.6,2.6c0.9,0.6,1.8,1.3,2.8,2
								s2,1.6,2.9,2.6c1,0.9,2,1.9,2.8,3l0.2,0.3c0.4,0.4,0.8,0.9,1.1,1.3l1.2,1.7c0.4,0.5,0.7,1,1,1.6s0.5,0.9,0.8,1.4
								c0.1,0.2,0.2,0.4,0.4,0.6c0.7,1.2,1.2,2.5,1.8,3.6s0.9,2.4,1.3,3.5c0.3,1.1,0.6,2.1,0.9,3.2c0.3,0.9,0.5,1.8,0.6,2.8
								c0.1,0.8,0.2,1.6,0.3,2.2L173.5,648.3z"/>
							<path class="st30" d="M173.8,610.6c-2.4,0.9-4.6,2.3-6.6,4c-3,2.3-4.3,6.2-3.4,9.9c0.1,0.5,0.3,0.9,0.5,1.4h0.7
								c0.8-0.1,1.5-0.3,2.3-0.5C175.1,622.4,173.8,610.6,173.8,610.6z"/>
							<path class="st74" d="M171.4,614.1c-0.7,1-1.6,2.3-2.4,3.6s-1.6,2.7-2.2,3.8c-0.6,1-0.9,1.7-0.9,1.7s0.5-0.6,1.2-1.6
								c0.7-0.9,1.6-2.3,2.4-3.6s1.6-2.7,2.2-3.8c0.7-1,0.9-1.8,0.9-1.8S172.1,613.1,171.4,614.1z"/>
						</g>
						<path id="_Trazado_8" class="st75" d="M207.9,671.1c0,22.5-18.2,40.7-40.7,40.7s-40.7-18.2-40.7-40.7
							c0-21.8,17.1-39.7,38.9-40.7c0.6,0,1.2,0,1.8,0c0.3,0,0.6,0,0.8,0C190.2,630.9,207.9,649,207.9,671.1z"/>
						<path class="st75" d="M156.7,638.8c-11.5,3.5-22.1,14.8-24.6,26.6c-0.8,3.7,4.9,5.2,5.6,1.6c2.1-9.8,10.9-19.6,20.5-22.6
							C161.8,643.4,160.3,637.7,156.7,638.8z"/>
						<path class="st75" d="M166.3,637.1c-1.6,0-2.9,1.3-2.9,2.9v0.3c0,1.6,1.3,2.9,2.9,2.9c1.6,0,2.9-1.3,2.9-2.9V640
							C169.2,638.4,167.9,637.1,166.3,637.1z"/>
						<path class="st76" d="M207.9,671.1c0-4.3-0.7-8.6-2-12.7c-1.6,4.7-3.6,9.2-6.1,13.5c-6.6,11.7-17.9,16.2-30.8,17.7
							c-19,2.3-33.4-6.5-42.4-20.1c0,0.5-0.1,1-0.1,1.6c-0.4,22.5,17.4,41.1,39.9,41.5s41.1-17.4,41.5-39.9
							C207.9,672.3,207.9,671.8,207.9,671.1L207.9,671.1z"/>
					</g>
				</g>
				<path class="st77" d="M1119.5,663.8H1255c3.1,0,5.7,2.5,5.7,5.7v12.7c0,3.1-2.5,5.7-5.7,5.7h-135.5c-3.1,0-5.7-2.5-5.7-5.7
					v-12.7C1113.8,666.3,1116.4,663.8,1119.5,663.8z"/>
				<path class="st78" d="M1143.2,628h88c5.7,0,10.3,4.6,10.3,10.3v23.1c0,5.7-4.6,10.3-10.3,10.3h-88c-5.7,0-10.3-4.6-10.3-10.3
					v-23.1C1132.9,632.6,1137.5,628,1143.2,628z"/>
				<path class="st79" d="M1211.8,704.6c-4.6-1.2-9.3-1.9-14.1-2.1c-7-0.5-14-0.5-21,0.2c-5.7,0.4-7.9,0.9-15.1,1.9
					c-24.8,3.5-58.4,8.2-62.3-1.7c-0.5-1.4-0.5-2.9,0-4.3c-0.1-4.5,3.5-8.2,8-8.4c26.1,0,62.2,0,107.5,0c0,0,58.4,0,58.5,6.9
					c-0.1,1-0.5,2-1.2,2.7c-1,1-1.9,0.7-3.4,1.4c-2.3,1-1.9,2.4-4.1,3.7s-3,0-5.7,1.3c-2.3,1.1-2,2.1-4.1,2.9
					c-2.3,0.9-3.1-0.5-5.5,0.4c-2,0.8-1.8,1.8-3.6,2.2c-1.5,0.3-2.1-0.4-4.5-0.2c-0.4,0-0.8,0.1-1.1,0.2c-0.5,0.1-0.9,0.2-1.4,0.4
					c-2.1,0.7-7.2-0.2-7.2-0.2c-4.9-0.8-7.3-1.2-8.7-1.8c-1.9-0.8-2-1.2-5.5-3.1C1215.6,705.9,1213.7,705.2,1211.8,704.6z"/>
			</g>
		</g>
	</g>
	<g>
		<g>
			<g>
				<g>
					<defs>
						<rect id="SVGID_2_" x="1155.9" y="93" width="74.3" height="78.4"/>
					</defs>
					<clipPath id="SVGID_3_">
						<use xlink:href="#SVGID_2_"  style="overflow:visible;"/>
					</clipPath>
				</g>
				<g>
					<defs>
						<rect id="SVGID_4_" x="1155.9" y="93" width="74.3" height="78.4"/>
					</defs>
					<clipPath id="SVGID_5_">
						<use xlink:href="#SVGID_4_"  style="overflow:visible;"/>
					</clipPath>
					<g class="st80">
						<g>
							<defs>
								<rect id="SVGID_6_" x="1155.9" y="93" width="74.3" height="78.4"/>
							</defs>
							<defs>
								<rect id="SVGID_7_" x="1155.9" y="93" width="74.3" height="78.4"/>
							</defs>
							<defs>
								<rect id="SVGID_8_" x="1155.9" y="93" width="74.3" height="78.4"/>
							</defs>
							<defs>
								<rect id="SVGID_9_" x="1155.9" y="93" width="74.3" height="78.4"/>
							</defs>
							<defs>
								<rect id="SVGID_10_" x="1155.9" y="93" width="74.3" height="78.4"/>
							</defs>
							<clipPath id="SVGID_11_">
								<use xlink:href="#SVGID_6_"  style="overflow:visible;"/>
							</clipPath>
							<clipPath id="SVGID_12_" class="st81">
								<use xlink:href="#SVGID_7_"  style="overflow:visible;"/>
							</clipPath>
							<clipPath id="SVGID_13_" class="st82">
								<use xlink:href="#SVGID_8_"  style="overflow:visible;"/>
							</clipPath>
							<clipPath id="SVGID_14_" class="st83">
								<use xlink:href="#SVGID_9_"  style="overflow:visible;"/>
							</clipPath>
							<clipPath id="SVGID_15_" class="st84">
								<use xlink:href="#SVGID_10_"  style="overflow:visible;"/>
							</clipPath>
							<path class="st85" d="M1198.8,105.3c-2,0.5-3.4,2.1-3.3,3.9c1.2-1.1,2.9-1.9,4.8-2.3c2.1-0.5,4.2-0.4,5.9,0.2
								c-1.6-0.4-3.5-0.5-5.4,0c-1.6,0.4-3,1-4.1,1.8l0,0c-0.5,0.3-1.2,0.9-1.6,1.3c0.1,0.1,0.1,0.3,0.2,0.5v-0.1
								c0.2-0.2,0.3-0.3,0.5-0.4c0.6,1.8,2.7,2.9,4.8,2.4c3-0.7,4.8-5.4,7.5-4.7C1208,107.7,1204.5,103.9,1198.8,105.3"/>
							<path class="st85" d="M1191.4,111.7c0.5-0.1,0.8-0.5,0.8-0.9c-0.3,0.3-0.7,0.5-1.1,0.6c-0.5,0.1-1,0.1-1.4,0
								c0.4,0.1,0.8,0.1,1.3,0c0.4-0.1,0.7-0.2,1-0.4l0,0c0.1-0.1,0.3-0.2,0.4-0.3c0,0,0-0.1-0.1-0.1l0,0l-0.1,0.1
								c-0.1-0.4-0.6-0.7-1.2-0.5c-0.7,0.2-1.1,1.3-1.8,1.1C1189.2,111.1,1190,112,1191.4,111.7"/>
							<path class="st86" d="M1195,110.1c-0.8-1.7-2-2.4-2.1-2.5c-0.6-0.5-1.4-0.4-1.9,0.2s-0.4,1.4,0.2,1.9c0,0,2.4,1.4,2,5.6
								c0.4,0.1,0.8,0.2,1,0.4c0,0,0.7-0.2,1.7-0.4c0.1-1.9-0.1-3.4-0.6-4.5C1195.2,110.4,1195.1,110.2,1195,110.1L1195,110.1"/>
							<path class="st87" d="M1194.2,115.6c-0.2-0.1-0.6-0.3-1-0.4l0,0c-0.5-0.1-1.2-0.3-1.9-0.4c-0.5-0.1-1-0.1-1.4-0.2
								c-3.5-0.4-8.2,0-10.1,4c-3.4,6.9-1.1,16.2,4.7,20.3c5.2,3.7,9.1,2.3,9.8,2L1194.2,115.6
								C1194.2,115.6,1194.2,115.6,1194.2,115.6"/>
							<path class="st87" d="M1209.1,118.6c-1-2-2.7-3.1-4.6-3.7c0,0,0.1,0,0.1,0.1c0,0-0.1,0-0.1-0.1c-3.1-0.9-6.7-0.2-8.7,0.3l0,0
								c-0.7,0.2-1.3,0.3-1.5,0.4v25.3c0.1,0,0.1-0.1,0.1-0.1s4.2,2.2,10-1.9C1210.2,134.8,1212.5,125.4,1209.1,118.6"/>
						</g>
						<g>
							<defs>
								<rect id="SVGID_16_" x="1155.9" y="93" width="74.3" height="78.4"/>
							</defs>
							<clipPath id="SVGID_17_">
								<use xlink:href="#SVGID_16_"  style="overflow:visible;"/>
							</clipPath>
							<g class="st88">
								<g>
									<defs>
										<rect id="SVGID_18_" x="1155.9" y="93" width="74.3" height="78.4"/>
									</defs>
									<defs>
										<rect id="SVGID_19_" x="1155.9" y="93" width="74.3" height="78.4"/>
									</defs>
									<defs>
										<rect id="SVGID_20_" x="1155.9" y="93" width="74.3" height="78.4"/>
									</defs>
									<clipPath id="SVGID_21_">
										<use xlink:href="#SVGID_18_"  style="overflow:visible;"/>
									</clipPath>
									<clipPath id="SVGID_22_" class="st89">
										<use xlink:href="#SVGID_19_"  style="overflow:visible;"/>
									</clipPath>
									<clipPath id="SVGID_23_" class="st90">
										<use xlink:href="#SVGID_20_"  style="overflow:visible;"/>
									</clipPath>
									<path class="st91" d="M1219.2,158.9c-0.9,0.5-1.4,1.4-1.1,2.2c0.5-0.6,1.2-1.2,2-1.7c1-0.5,1.9-0.7,2.8-0.6
										c-0.8,0-1.7,0.2-2.6,0.6c-0.7,0.4-1.3,0.8-1.8,1.4l0,0c-0.2,0.2-0.5,0.6-0.6,0.8c0,0.1,0.1,0.1,0.2,0.2c0,0,0,0,0-0.1
										c0.1-0.1,0.1-0.2,0.2-0.3c0.5,0.8,1.6,1.1,2.6,0.6c1.4-0.7,1.6-3.1,3-3.1C1223.9,159,1221.7,157.6,1219.2,158.9"/>
									<path class="st91" d="M1216,164.2c0.5,0.1,0.9-0.1,1.1-0.4c-0.4,0.1-0.8,0.1-1.2,0c-0.5-0.1-0.9-0.4-1.2-0.6
										c0.3,0.2,0.7,0.5,1.1,0.6s0.7,0.1,1,0.1l0,0c0.1,0,0.3-0.1,0.5-0.1v-0.1l0,0h-0.1c0.1-0.4-0.3-0.9-0.8-1
										c-0.7-0.2-1.5,0.6-2,0.2C1214.4,162.8,1214.7,163.9,1216,164.2"/>
									<path class="st92" d="M1218.1,161.6c-0.4-1.1-0.9-1.6-1-1.7c-0.3-0.3-0.6-0.3-0.9,0.1c-0.2,0.4-0.2,0.9,0.1,1.3
										c0,0,1.1,0.9,0.9,3.8l0,0c0.3,0.1,0.7,0.1,1.1,0c0.1,0,0.1,0,0.2-0.1c0.1-1.3-0.1-2.3-0.3-3.1
										C1218.2,161.8,1218.2,161.7,1218.1,161.6L1218.1,161.6"/>
								</g>
								<g>
									<defs>
										<rect id="SVGID_24_" x="1155.9" y="93" width="74.3" height="78.4"/>
									</defs>
									<clipPath id="SVGID_25_">
										<use xlink:href="#SVGID_24_"  style="overflow:visible;"/>
									</clipPath>
									<g class="st93">
										<text transform="matrix(1 0 0 1 1168.7617 165.5337)" class="st94 st95">DiverSan</text>
									</g>
								</g>
								<g id="Layer_1_1_">
									<defs>
										<rect id="SVGID_26_" x="1155.9" y="93" width="74.3" height="78.4"/>
									</defs>
									<clipPath id="SVGID_27_">
										<use xlink:href="#SVGID_26_"  style="overflow:visible;"/>
									</clipPath>
									<g class="st96">
										<g>
											<defs>
												<rect id="SVGID_28_" x="1155.9" y="93" width="74.3" height="78.4"/>
											</defs>
											<clipPath id="SVGID_29_">
												<use xlink:href="#SVGID_28_"  style="overflow:visible;"/>
											</clipPath>
											<path class="st97" d="M1193.1,154c-4,0-8-0.8-11.7-2.4c-3.6-1.5-6.8-3.7-9.5-6.4c-2.8-2.8-4.9-6-6.4-9.5
												c-1.6-3.7-2.4-7.6-2.4-11.7c0-4,0.8-8,2.4-11.7c1.5-3.6,3.7-6.8,6.4-9.5c2.8-2.8,6-4.9,9.5-6.4c3.7-1.6,7.6-2.4,11.7-2.4
												c4,0,8,0.8,11.7,2.4c3.6,1.5,6.8,3.7,9.5,6.4c2.8,2.8,4.9,6,6.4,9.5c1.6,3.7,2.4,7.6,2.4,11.7c0,4-0.8,8-2.4,11.7
												c-1.5,3.6-3.7,6.8-6.4,9.5c-2.8,2.8-6,4.9-9.5,6.4C1201.1,153.2,1197.2,154,1193.1,154 M1193.1,97
												c-14.9,0-27.1,12.1-27.1,27.1s12.1,27.1,27.1,27.1c14.9,0,27.1-12.1,27.1-27.1S1208.1,97,1193.1,97"/>
										</g>
										<g>
											<defs>
												<rect id="SVGID_30_" x="1155.9" y="93" width="74.3" height="78.4"/>
											</defs>
											<clipPath id="SVGID_31_">
												<use xlink:href="#SVGID_30_"  style="overflow:visible;"/>
											</clipPath>
											<g class="st98">
												<g>
													<defs>
														<rect id="SVGID_32_" x="1155.9" y="93" width="74.3" height="78.4"/>
													</defs>
													<defs>
														<rect id="SVGID_33_" x="1155.9" y="93" width="74.3" height="78.4"/>
													</defs>
													<defs>
														<rect id="SVGID_34_" x="1155.9" y="93" width="74.3" height="78.4"/>
													</defs>
													<defs>
														<rect id="SVGID_35_" x="1155.9" y="93" width="74.3" height="78.4"/>
													</defs>
													<defs>
														<rect id="SVGID_36_" x="1155.9" y="93" width="74.3" height="78.4"/>
													</defs>
													<defs>
														<rect id="SVGID_37_" x="1155.9" y="93" width="74.3" height="78.4"/>
													</defs>
													<clipPath id="SVGID_38_">
														<use xlink:href="#SVGID_32_"  style="overflow:visible;"/>
													</clipPath>
													<clipPath id="SVGID_39_" class="st99">
														<use xlink:href="#SVGID_33_"  style="overflow:visible;"/>
													</clipPath>
													<clipPath id="SVGID_40_" class="st100">
														<use xlink:href="#SVGID_34_"  style="overflow:visible;"/>
													</clipPath>
													<clipPath id="SVGID_41_" class="st101">
														<use xlink:href="#SVGID_35_"  style="overflow:visible;"/>
													</clipPath>
													<clipPath id="SVGID_42_" class="st102">
														<use xlink:href="#SVGID_36_"  style="overflow:visible;"/>
													</clipPath>
													<clipPath id="SVGID_43_" class="st103">
														<use xlink:href="#SVGID_37_"  style="overflow:visible;"/>
													</clipPath>
													<path class="st104" d="M1200.3,136.3c1.1,0.6,3,1.1,4.5,1.1c3.3,0,5.3-1.9,5.3-4.7c0-2.5-1.7-4.1-4.2-5.7
														c-2.5-1.5-6-4.1-6-7.6c0-4.2,3.3-7.2,8.4-7.2c2,0,3.7,0.5,4.4,1l-0.9,2.7c-0.8-0.5-2.1-0.9-3.8-0.9
														c-3.1,0-4.6,2-4.6,3.9c0,2.7,1.6,3.8,4.6,5.6c3.8,2.3,5.5,4.9,5.5,7.9c0,4.7-3.8,7.7-8.8,7.7c-2.2,0-4.4-0.6-5.3-1.2
														L1200.3,136.3z"/>
													<path class="st105" d="M1200.3,136.3c1.1,0.6,3,1.1,4.5,1.1c3.3,0,5.3-1.9,5.3-4.7c0-2.5-1.7-4.1-4.2-5.7
														c-2.5-1.5-6-4.1-6-7.6c0-4.2,3.3-7.2,8.4-7.2c2,0,3.7,0.5,4.4,1l-0.9,2.7c-0.8-0.5-2.1-0.9-3.8-0.9
														c-3.1,0-4.6,2-4.6,3.9c0,2.7,1.6,3.8,4.6,5.6c3.8,2.3,5.5,4.9,5.5,7.9c0,4.7-3.8,7.7-8.8,7.7c-2.2,0-4.4-0.6-5.3-1.2
														L1200.3,136.3z"/>
													<polygon class="st106" points="1192.6,139.4 1185.1,121.8 1189,121.8 1195.2,136.3 1195.4,136.3 1201.1,121.8 
														1205.2,121.8 1197.6,139.4 													"/>
													<polygon class="st105" points="1192.6,139.4 1185.1,121.8 1189,121.8 1195.2,136.3 1195.4,136.3 1201.1,121.8 
														1205.2,121.8 1197.6,139.4 													"/>
													<path class="st107" d="M1174.2,112.2c1.4-0.4,3.1-0.5,4.9-0.5c3.3,0,5.7,0.7,7.5,2.1c2.5,1.9,4.3,5.5,4.3,11.4
														c0,6.4-1.8,9.9-3.8,11.9c-2.1,2.1-5.1,3-8.8,3c-1.5,0-3-0.1-4.1-0.3V112.2z M1177.8,137.3c0.5,0.1,1.1,0.1,1.4,0.1
														c4,0,7.9-2.6,7.9-12.1c0-7.1-2.5-11-7.6-11c-0.6,0-1.2,0.1-1.7,0.2L1177.8,137.3L1177.8,137.3z"/>
													<path class="st105" d="M1174.2,112.2c1.4-0.4,3.1-0.5,4.9-0.5c3.3,0,5.7,0.7,7.5,2.1c2.5,1.9,4.3,5.5,4.3,11.4
														c0,6.4-1.8,9.9-3.8,11.9c-2.1,2.1-5.1,3-8.8,3c-1.5,0-3-0.1-4.1-0.3V112.2z M1177.8,137.3c0.5,0.1,1.1,0.1,1.4,0.1
														c4,0,7.9-2.6,7.9-12.1c0-7.1-2.5-11-7.6-11c-0.6,0-1.2,0.1-1.7,0.2L1177.8,137.3L1177.8,137.3z"/>
												</g>
											</g>
										</g>
									</g>
								</g>
								<g id="Layer_2_1_">
									<text transform="matrix(1 0 0 1 -1455 299)" style="font-family:'ArialMT'; font-size:12px;"> </text>
									<g>
										<path class="st13" d="M348.1,211H188.3l-25.1-43.6h82c-0.9-1.7-1.6-3.5-2.2-5.3c-0.6-1.8-1.2-3.7-1.8-5.5h-84.4L131.5,113
											h109.6c1.1-3.4,2.5-6.9,4.2-10.6H125.2L99.9,58.9H348v9.7h-33.7c-9.1,0-17.8,1.7-25.9,5.2S273.2,82,267.3,88
											c-6,6-10.7,13-14.2,21.1c-3.5,8.1-5.2,16.7-5.2,25.9c0,8.8,1.6,17.2,4.7,25.3c3.1,8.1,7.5,15.1,13.1,21.1
											s12.3,10.9,19.9,14.5c7.7,3.6,16,5.4,25.1,5.4H348v9.7H348.1z"/>
										<path class="st13" d="M335.3,68.4v-9.7h45.4v9.7H335.3z M335.3,211v-9.7h45.4v9.7H335.3z M374.6,172.8
											c0,5.1-1.3,9.6-3.8,13.4c-2.5,3.8-6.9,5.7-13.1,5.7H341V77.6h17c5.9,0,10.1,1.6,12.7,4.8c2.6,3.2,3.9,7.7,3.9,13.5V172.8z
											 M360.3,94.1c0-3-1-4.6-2.9-4.6h-2v89.7h1.8c1.3,0,2.2-0.4,2.6-1.3c0.4-0.9,0.5-2,0.5-3.3V94.1z"/>
										<path class="st13" d="M373.3,68.4v-9.7h27.3v9.7H373.3z M373.3,211v-9.7h27.3v9.7H373.3z M379.4,77.4h14.1v13.2h-14.1
											V77.4z M379.4,183.9V95.7h14.3v88.2H379.4z"/>
										<path class="st13" d="M394.6,68.4v-9.7h42.3v9.7H394.6z M394.6,211v-9.7h42.3v9.7H394.6z M407.7,183.7l-12.1-88.2h14.3
											l5.5,63.7l4.9-63.7h14.3l-11.3,88.2H407.7z"/>
										<path class="st13" d="M428.8,68.4v-9.7h49.8v9.7H428.8z M428.8,211v-9.7h49.8v9.7H428.8z M470.5,167.1
											c-0.2,5-1.8,9.1-4.6,12.4c-2.8,3.3-6.8,4.9-12,4.9c-5.5,0-9.7-1.8-12.6-5.3s-4.3-8.1-4.3-13.5v-52.5c0-5.2,1.5-9.6,4.6-13
											s7.2-5.1,12.3-5.1c5.5,0,9.7,1.7,12.4,5c2.8,3.4,4.1,7.7,4.1,13.1v31.8h-19.2V168c0,1,0.2,1.9,0.5,2.7
											c0.4,0.8,1,1.2,2,1.2c0.9,0,1.5-0.4,1.8-1.2c0.4-0.8,0.5-1.7,0.5-2.7v-15.9h14.3v15H470.5z M456.2,110.9
											c0-2.6-0.8-3.8-2.4-3.8c-1.7,0-2.6,1.3-2.6,3.8v22h4.9v-22H456.2z"/>
										<path class="st13" d="M471.4,68.4v-9.7h32.2v9.7H471.4z M471.4,211v-9.7h32.2v9.7H471.4z M495.2,110.4l-2.2-2.2
											c-0.2-0.2-0.5-0.5-0.8-0.7s-0.8-0.4-1.4-0.4c-0.9,0-1.3,0.8-1.3,2.4V184h-14.3V96h13.9l0.2,1.5c1.1-1.3,2.9-2,5.3-2
											c1.5,0,2.8,0.4,3.9,1.2c1.2,0.8,2.5,2.2,3.9,4.1L495.2,110.4z"/>
										<path class="st13" d="M499.6,68.4v-9.7h41v9.7H499.6z M499.6,211v-9.7h41v9.7H499.6z M536.2,173.7c0,5.5-1.4,10-4.3,13.5
											c-2.9,3.5-7,5.3-12.4,5.3c-5.5,0-9.7-1.8-12.5-5.3c-2.9-3.6-4.3-8.1-4.3-13.6v-17.7H517V176c0,1,0.2,1.8,0.5,2.6
											s1,1.1,2,1.1c1.6,0,2.4-1.2,2.4-3.7v-26.3c0-2.7-0.7-4.8-2.1-6.3c-1.4-1.5-4-3.6-7.8-6.1c-2.6-1.7-4.8-3.8-6.6-6.2
											c-1.8-2.4-2.7-5.5-2.7-9.1V95c0-5.4,1.5-9.7,4.6-13.1c3-3.3,7.2-5,12.4-5c5.4,0,9.5,1.7,12.3,5.1s4.2,7.7,4.2,13v18.5
											h-14.3V92.8c0-2.6-0.8-3.8-2.4-3.8c-1.7,0-2.6,1.3-2.6,3.8v26.5c0,1,0.2,1.9,0.5,2.7c0.3,0.8,0.9,1.6,1.7,2.4
											c0.9,0.8,1.9,1.7,3.2,2.7c1.3,1,3,2.1,5,3.5c2.7,1.7,4.8,3.9,6.4,6.5c1.6,2.6,2.4,5.9,2.4,9.8L536.2,173.7L536.2,173.7z"
											/>
										<path class="st13" d="M536.6,68.4v-9.7h41v9.7H536.6z M536.6,211v-9.7h41v9.7H536.6z M551.9,183.7c-4.3,0-7.4-1.5-9.2-4.5
											c-1.9-3-2.8-6.9-2.8-11.8v-56.7c0-4.6,1.1-8.4,3.2-11.3c2.1-2.9,5.2-4.3,9.3-4.3c1.7,0,3,0.2,4,0.7s1.8,1,2.5,1.6l0.4-1.8
											h13.5v76.1h2.7v11.9h-23.6V183.7z M558.9,110.9c0-2.6-0.8-3.8-2.5-3.8c-0.9,0-1.6,0.4-1.9,1.2c-0.3,0.8-0.4,1.7-0.4,2.7
											v56.5c0,1,0.1,1.8,0.4,2.6c0.3,0.7,0.9,1.1,1.9,1.1c0.8,0,1.4-0.4,1.8-1.1c0.4-0.7,0.6-1.6,0.6-2.6v-56.6H558.9z"/>
										<path class="st13" d="M571.9,68.4v-9.7h45.4v9.7H571.9z M571.9,211v-9.7h45.4v9.7H571.9z M597.1,183.7v-72.8
											c0-2.6-0.8-3.8-2.4-3.8c-1.7,0-2.6,1.3-2.6,3.8v72.8h-14.3v-88H592l0.3,1.6c0.6-0.6,1.5-1.1,2.7-1.6
											c1.2-0.4,2.5-0.6,4-0.6c4.7,0,7.9,1.6,9.8,4.8c1.8,3.2,2.8,7.2,2.8,11.8v71.9L597.1,183.7L597.1,183.7z"/>
										<path class="st13" d="M603.2,201.3h37.3c9,0,17.4-1.8,25.1-5.4c7.7-3.6,14.3-8.4,19.9-14.5c5.5-6,9.9-13.1,13.1-21.1
											c3.2-8.1,4.8-16.5,4.8-25.3c0-9.2-1.7-17.8-5.2-25.9S690,93.9,684,88c-6-6-13-10.7-21.1-14.2s-16.7-5.2-25.9-5.2h-33.7
											v-9.7h248.1l-25.3,43.6H705.8c1.7,3.7,3.1,7.3,4.2,10.6h109.6l-25.3,43.6h-84.4c-0.6,1.8-1.2,3.7-1.8,5.5
											s-1.3,3.6-2.2,5.3h82l-25,43.5H603.2V201.3z"/>
									</g>
								</g>
							</g>
						</g>
					</g>
				</g>
			</g>
		</g>
	</g>
</g>
</svg>
