<svg xmlns="http://www.w3.org/2000/svg" viewBox="0 0 410.67 417.41"><defs><style>.cls-1{isolation:isolate;}.cls-2{fill:#c4c5ae;}.cls-15,.cls-2{opacity:0.5;}.cls-11,.cls-15,.cls-2,.cls-21,.cls-5{mix-blend-mode:multiply;}.cls-3{fill:#efefef;}.cls-4,.cls-5{fill:#eaebe3;}.cls-6{fill:#5c7811;}.cls-7{fill:#7f9443;}.cls-8{fill:#6faa2e;}.cls-9{fill:#8dbc5a;}.cls-10{fill:#f6e219;}.cls-11{opacity:0.69;}.cls-12{fill:#fae378;}.cls-13{fill:#b5d959;}.cls-14{fill:#c4e17c;}.cls-15{fill:#acbbbe;}.cls-16{fill:#cf3e32;}.cls-17{fill:#ff6a45;}.cls-18{fill:#fbc532;}.cls-19{fill:#fef7d8;}.cls-20{fill:#ff9c30;}.cls-21{fill:#f5d7c1;}.cls-22{fill:#ffaf58;}.cls-23{fill:#5c483c;}</style></defs><title>Verduras</title><g class="cls-1"><g id="Capa_3" data-name="Capa 3"><g id="Verduras"><circle class="cls-2" cx="214.47" cy="221.21" r="196.2"/><circle class="cls-3" cx="196.2" cy="196.2" r="196.2"/><circle class="cls-4" cx="196.2" cy="196.2" r="145.23"/><path class="cls-5" d="M139,865.88A145.19,145.19,0,0,1,384.22,760.57,145.19,145.19,0,1,0,169.89,955.31,144.55,144.55,0,0,1,139,865.88Z" transform="translate(-73.64 -653.81)"/><path class="cls-6" d="M273.45,843.9a50.5,50.5,0,0,0,35.05,16.33.7.7,0,0,0,.47.19c39.86.1,86.62-6.79,115.52-37.22,3.93-4.13,11.53-11.27,10-17.83-1.38-5.84-8.32-6.8-12.3-10.11-6.91-5.74,3.29-11.94,2.12-18.48-.6-3.36-3.59-4.83-6.16-6.52-4-2.67-4.95-6-4.29-10.58.84-5.84,3.4-12.06.13-17.63a12.46,12.46,0,0,0-7-5.53c-3.28-1-6.5.32-9.78-.23-5.54-.92-4.28-6.84-6.18-10.7a7.69,7.69,0,0,0-5.49-4.19c-7.32-1.58-12.59,5.13-16.4,10.38-11.94,16.43-19.11,35.68-34.74,49.27-14.16,12.3-31.46,20-47.05,30.18C276.16,818.49,261.2,830.34,273.45,843.9Z" transform="translate(-73.64 -653.81)"/><path class="cls-7" d="M278,837.57q3.25,0,6.46-.2c20.64-8.69,41-20.34,56.48-36.74,6.64-7,11.13-15,14.89-23.64-.37.09-.71-.4-.33-.64l.83-.55q1-2.34,1.93-4.72c3.68-9.39,7.28-19.6,14.89-26.54.39-.36,1,.27.63.67-7.17,8.85-11.12,18.77-15.3,29.17,4.68-3.11,9.26-6.38,13.62-9.93,5.28-4.3,9.84-9.41,15.1-13.72.24-.2.53.15.36.39-3.73,5.33-9.09,9.76-14.09,13.85a119.8,119.8,0,0,1-15.57,10.85.78.78,0,0,0,0,.14,80.4,80.4,0,0,1-18.69,28.45A157,157,0,0,1,288,837.15c33.22-2.66,63.12-18,91.16-36a.44.44,0,0,1,.4-.72l.6.07c8.88-5.69,17.57-11.63,26.11-17.49.64-.43,1.33.54.7,1-8.08,5.63-16.31,11.32-24.71,16.78,8.65,1.05,17.1,1.16,25.85,1.45.41,0,.33.6,0,.67-8.66,1.84-18.63,1-27.26-1.2-29.64,19.15-61.52,35.43-97,37l-2,.71a.45.45,0,0,1-.53-.63c-1,0-2.08.06-3.13.06C277.31,838.87,277.16,837.57,278,837.57Z" transform="translate(-73.64 -653.81)"/><path class="cls-7" d="M376.71,786.14c-4.56,9.88-11.75,19-18.78,27.18a.39.39,0,0,1-.6-.49c6.75-8.72,12.39-18.12,18.84-27C376.38,785.51,376.86,785.81,376.71,786.14Z" transform="translate(-73.64 -653.81)"/><path class="cls-7" d="M314.47,834.38a170.88,170.88,0,0,0,48.09-2.58c16.09-3.23,30.47-9.63,45.14-16.77.32-.15.59.36.3.56-13.21,8.8-29.22,14.15-44.6,17.54a140,140,0,0,1-49.06,2.11A.44.44,0,0,1,314.47,834.38Z" transform="translate(-73.64 -653.81)"/><path class="cls-8" d="M323.39,823.42c12.29-14.81,22-32,37.25-44.11,7.53-6,16-10.61,23.68-16.45,2.89-2.22,9.86-7,7-11.62-3.31-5.31-10.74,2.3-14.6-1.77-4.06-4.29,2-11,4-14.77,1-1.86,3.6-7.91.18-8.75a4.65,4.65,0,0,0-2.75.42c-4.82,1.89-8.73,6-13.89,7-3.89.72-6.81-1.13-6.75-5.66,0-1.59.69-3.09.55-4.71a6.21,6.21,0,0,0-1.95-4.22c-1.44-1.16-2.76-1-4.31-.22-3.07,1.55-5.9,5.24-8.44,7.56-3.8,3.46-10.05,10.23-13.84,2.92-1.47-2.84-1.65-6.21-3.56-8.84-3.38-4.66-9.72-4.83-14.37-2.07-5.79,3.43-9.22,10.16-11.43,16.31-2.84,7.92-4.31,16.43-5.86,24.69q-1.78,9.48-2.94,19a1,1,0,0,0-.52.8,238.36,238.36,0,0,0-2.14,26.81c0,6.63.92,13.67,4.85,19.18,3.19,4.46,8.2,8,13.77,8.36C314.33,833.76,319.21,828.46,323.39,823.42Z" transform="translate(-73.64 -653.81)"/><path class="cls-9" d="M305.2,818.75c.59-14.43,10.34-27.86,17.57-39.78,3.81-6.3,7.71-12.53,11.5-18.83,4.12-6.86,9.16-13,14-19.32.34-.45-.35-1.07-.75-.66-5.53,5.78-9.65,12.78-14.1,19.39-4.57,6.79-8.78,13.86-13,20.88-6.49,10.8-14.79,22.86-16.08,35.83-4.52-13-2.3-27.76.19-41a170.3,170.3,0,0,1,13.41-40.42c.23-.5-.62-.92-.87-.42a157.91,157.91,0,0,0-13.85,42.21c-2.48,13.62-4.36,29.16,1,42.3A.54.54,0,0,0,305.2,818.75Z" transform="translate(-73.64 -653.81)"/><path class="cls-9" d="M309.36,818.62c6.64-13.62,15.32-25.68,24.82-37.41,4.94-6.11,9.71-12.37,14.69-18.45s12.14-9.78,17-15.87c.38-.48-.36-1.11-.8-.7-5.54,5.23-11.92,9.35-16.79,15.28-5.13,6.27-10.12,12.69-15.07,19.1-9.12,11.82-18.68,23.82-24.34,37.81C308.74,818.67,309.22,818.91,309.36,818.62Z" transform="translate(-73.64 -653.81)"/><path class="cls-9" d="M365.43,766.89a.26.26,0,0,0-.28-.42c-5.73,2.67-11.52,5.73-17.1,8.74-4.89,2.63-9.17,5.76-12.38,10.37-.29.42.34.81.66.43,4.25-5.2,9.84-8.67,15.74-11.69C356.54,772,361.61,770.21,365.43,766.89Z" transform="translate(-73.64 -653.81)"/><path class="cls-9" d="M314.89,771a52.46,52.46,0,0,0,7.58-15.57.33.33,0,0,0-.63-.21,109.21,109.21,0,0,1-7.79,15.23A.5.5,0,0,0,314.89,771Z" transform="translate(-73.64 -653.81)"/><path class="cls-10" d="M362.86,774.46a10.73,10.73,0,0,0-4.48-8.18,8.3,8.3,0,0,0-9.67.68,10.19,10.19,0,0,0-4.07,7.45c-.1,3.64,2.66,7,5.91,8.51a9.23,9.23,0,0,0,9.23-.92A8.54,8.54,0,0,0,362.86,774.46Z" transform="translate(-73.64 -653.81)"/><g class="cls-11"><path class="cls-12" d="M362.86,774.46a10.73,10.73,0,0,0-4.48-8.18,8.3,8.3,0,0,0-9.67.68,10.19,10.19,0,0,0-4.07,7.45c-.1,3.64,2.66,7,5.91,8.51a9.23,9.23,0,0,0,9.23-.92A8.54,8.54,0,0,0,362.86,774.46Zm-7,3.11a5.69,5.69,0,0,1-5.79-1.92,4.77,4.77,0,0,1,.41-6.34,4.05,4.05,0,0,1,3.64-1.09,5.24,5.24,0,0,1,4.64,3.4A4.4,4.4,0,0,1,355.85,777.57Z" transform="translate(-73.64 -653.81)"/></g><path class="cls-6" d="M298.73,870.5c17.72,5.61,36.43,8.38,53.33,16.43,18.66,8.9,30.66,25.52,46.51,38.15,5.06,4,11.92,9.08,18.56,5.59a7.74,7.74,0,0,0,4.18-5.51c.81-4.24-2-9.6,3.12-12,3-1.41,6.46-1,9.37-2.85a12.49,12.49,0,0,0,5.3-7.22c1.68-6.24-2.43-11.55-4.78-17-1.87-4.28-1.86-7.68,1.33-11.34,2-2.33,4.52-4.54,4.21-7.94-.6-6.62-12.07-9.85-6.93-17.24,3-4.26,9.4-7,9.19-13-.24-6.75-9.45-11.58-14.33-14.51-35.9-21.56-82.79-15.62-121.17-4.81a.68.68,0,0,0-.42.31,50.81,50.81,0,0,0-29.46,25.16C268.52,859.1,286.07,866.49,298.73,870.5Z" transform="translate(-73.64 -653.81)"/><path class="cls-7" d="M282.81,847.61c2.09-.58,4.18-1.08,6.28-1.55,22.18,2.83,44.84,8.59,64.14,20.23,8.26,5,14.7,11.46,20.6,18.78-.38,0-.57.57-.14.71l.95.3c1,1.32,2.08,2.66,3.1,4,6,8.06,12.2,16.93,21.37,21.58.47.24.85-.52.43-.82-9.25-6.6-15.68-15.1-22.46-24,5.33,1.74,10.61,3.66,15.75,5.91,6.23,2.73,12,6.42,18.18,9.16.29.13.48-.29.25-.47-5-4.13-11.35-7-17.24-9.56a120,120,0,0,0-17.88-6.28l-.09-.11a79.75,79.75,0,0,0-25.53-22.4,156.22,156.22,0,0,0-58-17.78c32.73-6.38,65.62.41,97.38,10.14a.43.43,0,0,0,.57.59l.56-.24c10.06,3.11,20,6.5,29.79,9.84a.6.6,0,0,0,.41-1.13C412,861.29,402.52,858,393,855c8.06-3.34,16.17-5.71,24.53-8.34.39-.12.16-.67-.19-.65-8.84.56-18.22,4.07-26,8.49-33.63-10.49-68.66-17.6-103.3-9.57-.69-.05-1.38-.12-2.08-.16a.45.45,0,0,0-.34.75c-1,.25-2,.5-3,.78C281.8,846.54,282,847.84,282.81,847.61Z" transform="translate(-73.64 -653.81)"/><path class="cls-7" d="M391.54,870.63c-7-8.29-16.34-15.14-25.29-21.14a.38.38,0,0,0-.44.63c8.8,6.59,16.72,14.13,25.29,21C391.39,871.33,391.78,870.91,391.54,870.63Z" transform="translate(-73.64 -653.81)"/><path class="cls-7" d="M318.8,840.88a171.17,171.17,0,0,1,47-10.45c16.36-1.21,31.91,1.09,47.94,4,.35.06.48-.51.14-.62-15.06-4.93-31.91-5.78-47.63-4.92a140.24,140.24,0,0,0-47.83,11.16A.44.44,0,0,0,318.8,840.88Z" transform="translate(-73.64 -653.81)"/><path class="cls-13" d="M380.91,811.68a7.81,7.81,0,0,0-3.37-4.39c-2.66-1.86-6.26-2.46-9.6-2.35a3.52,3.52,0,0,1-.38-.39,13.75,13.75,0,0,0,1.78-9.18,10.79,10.79,0,0,0-4.75-7.1,8.18,8.18,0,0,0-3.61-1.1c-.37,0-3.73.09-3.72.58-.14-4.53-.67-9.68-4.58-12.48-2.92-2.09-6.5-2.18-9.1,0-2.68-5-8.2-9.56-13.41-2.27-12.43,17.4-27.3,29.65-44.22,41.26-5,3.39-12.78,8.53-9.84,15.77,2.62,6.46,12.63,4.16,17.78,3.22,8.94-1.64,17.56-4.78,26.59-6,9.51-1.24,18.95.45,28.42,1.26,7.9.67,16.63.9,24-2.5C378.37,823.51,383,818,380.91,811.68Z" transform="translate(-73.64 -653.81)"/><path class="cls-14" d="M338.48,786.79c.48-.61-.49-1.28-1-.69A136.31,136.31,0,0,1,284.17,825c-.43.17-.14.79.28.64A120,120,0,0,0,338.48,786.79Z" transform="translate(-73.64 -653.81)"/><path class="cls-14" d="M362.58,816.33c-6.3,1.44-12.13.16-18.46-.22a104.6,104.6,0,0,0-17.43.45c-2.47.26-4.92.61-7.37,1,8.49-5.13,20.84-8.29,22.71-19.28a.34.34,0,0,0-.66-.15c-3.71,11.08-15.55,13.42-24,19.75A210.62,210.62,0,0,0,291,824.55c-.51.16-.25,1.07.27.92a240.22,240.22,0,0,1,25.07-6.22.33.33,0,0,0,.45,0l.19-.13c3.83-.68,7.68-1.24,11.57-1.59a102.78,102.78,0,0,1,19.61,0c4.77.47,10.21,2,14.62-.63C363,816.74,362.94,816.25,362.58,816.33Z" transform="translate(-73.64 -653.81)"/><path class="cls-14" d="M358.59,804.51c.21-.21,0-.67-.3-.49-7.41,4.34-13.73,8.55-22.22,10.65-.35.08-.27.65.09.57C344.07,813.6,352.87,810.5,358.59,804.51Z" transform="translate(-73.64 -653.81)"/><path class="cls-6" d="M308.13,823.5c5.93-23.73,7.64-48.75,18.4-71,5.33-11,12.51-21,18-31.93,2.1-4.14,7.46-13.43,1.61-17.13-6.69-4.22-11,8.59-17.63,6.09-7-2.64-3.71-13.73-3.54-19.07.09-2.66-.21-11-4.56-10.08a5.91,5.91,0,0,0-2.92,2c-4.46,4.83-6.66,11.74-12,15.7-4.05,3-8.38,2.49-10.79-2.7-.84-1.83-.9-3.91-1.95-5.69a7.78,7.78,0,0,0-4.53-3.73c-2.28-.53-3.7.4-5,2.15-2.66,3.47-3.88,9.25-5.51,13.31-2.43,6.06-5.87,17.25-14.19,11-3.23-2.42-5.27-6.17-8.9-8.11-6.41-3.44-13.73-.11-17.53,5.62-4.73,7.13-5,16.72-4.13,25,1.08,10.63,4.06,21.15,6.8,31.44q3.14,11.8,7.05,23.37a1.32,1.32,0,0,0-.15,1.21c3.61,10.65,7.39,21.61,12.21,31.79,3.58,7.58,8.51,15.09,16,19.19,6.07,3.32,13.73,4.59,20.27,1.89C303.43,840.34,306.11,831.58,308.13,823.5Z" transform="translate(-73.64 -653.81)"/><path class="cls-7" d="M284.81,828.28c-7.21-16.81-3.42-37.54-1.68-55.17.91-9.3,2-18.58,2.84-27.88,1-10.11,3.37-19.88,5.38-29.81a.64.64,0,0,0-1.22-.32c-3.15,9.66-4,19.94-5.5,30-1.51,10.29-2.45,20.69-3.42,31-1.5,15.94-4.39,34.31,1.22,49.83-12.27-12.34-17.79-30.4-22.17-46.88a216.49,216.49,0,0,1-6.78-53.58c0-.7-1.21-.7-1.22,0a200.92,200.92,0,0,0,7.25,55.88c4.61,16.92,11,35.7,24.26,47.72C284.28,829.53,285.06,828.88,284.81,828.28Z" transform="translate(-73.64 -653.81)"/><path class="cls-7" d="M289.49,825.82c.14-19.24,3.45-37.82,7.88-56.49,2.31-9.72,4.32-19.51,6.7-29.21s8.5-17.91,10.72-27.56c.17-.75-1-1.06-1.3-.35-3.46,9-8.5,17.29-10.81,26.77-2.44,10-4.62,20.1-6.77,30.16-4,18.56-8.31,37.57-7.13,56.68C288.8,826.22,289.48,826.23,289.49,825.82Z" transform="translate(-73.64 -653.81)"/><path class="cls-7" d="M325.22,735.63a.32.32,0,0,0-.55-.33c-5.08,6.24-10,13-14.75,19.48-4.14,5.72-7.3,11.67-8.45,18.71-.11.65.83.74,1,.13,2-8.3,6.5-15.36,11.59-22.09C317.89,746.44,322.67,741.54,325.22,735.63Z" transform="translate(-73.64 -653.81)"/><path class="cls-7" d="M269.76,768.34c1.05-7.26,1.51-14.74.15-22a.43.43,0,0,0-.85.11c.18,7.29.4,14.45-.56,21.71A.64.64,0,0,0,269.76,768.34Z" transform="translate(-73.64 -653.81)"/><path class="cls-13" d="M306.25,749.1a7,7,0,0,0-4.81,1.26,14.77,14.77,0,0,0-5.34,7.2,4.9,4.9,0,0,1-.46.18,12.22,12.22,0,0,0-6.92-4.75,9.66,9.66,0,0,0-7.54,1.44,7.62,7.62,0,0,0-2.18,2.63c-.16.31-1.26,3.16-.84,3.32-3.79-1.49-8.22-2.88-11.91-.6a6.71,6.71,0,0,0-3.25,7.6c-5,.48-10.79,3.46-6.64,10.4,9.9,16.6,14.69,33.39,18.22,51.67,1,5.35,2.48,13.72,9.49,13.84,6.24.11,7.92-9.09,9-13.73,1.83-8.06,2.31-16.39,4.55-24.36,2.36-8.4,7.1-15.69,11.13-23.33,3.37-6.37,6.67-13.59,6.49-21C315.08,755.43,312.2,749.64,306.25,749.1Z" transform="translate(-73.64 -653.81)"/><path class="cls-14" d="M270.69,775.75c-.34-.62-1.23,0-.92.58a124.74,124.74,0,0,1,13,58.42.32.32,0,0,0,.63,0A109.94,109.94,0,0,0,270.69,775.75Z" transform="translate(-73.64 -653.81)"/><path class="cls-14" d="M303.57,766.09c-1.06,5.78-4.18,10.2-6.75,15.37A96.84,96.84,0,0,0,291,796.19c-.67,2.16-1.25,4.34-1.8,6.53-1.2-8.93.59-20.38-7.79-25.85-.29-.19-.61.26-.36.5,7.81,7,5.52,17.78,7.72,27.1a192.28,192.28,0,0,0-3.89,24.45c-.05.49.79.59.85.1a218.66,218.66,0,0,1,3.8-23.18.33.33,0,0,0,.17-.38c0-.06,0-.13,0-.19.8-3.45,1.71-6.88,2.8-10.25a94.44,94.44,0,0,1,7-16.41c2.09-3.83,5.24-7.85,4.68-12.46C304.06,765.87,303.62,765.76,303.57,766.09Z" transform="translate(-73.64 -653.81)"/><path class="cls-14" d="M292.42,765.22c-.1-.24-.55-.24-.51.08.93,7.74,2.15,14.53.86,22.38-.06.33.43.46.5.12C294.73,780.61,295.31,772.14,292.42,765.22Z" transform="translate(-73.64 -653.81)"/><path class="cls-6" d="M285.58,861.83c-6.91.09-13.32,4.18-17.52,9.51-5.19,6.58-6.77,15.23-7.13,23.43-.48,11,.28,22.31,1.06,33.29a1.3,1.3,0,0,0,.59,1q.85,11.91,2.52,23.74c1.43,10.31,2.74,20.91,5.79,30.89,2.36,7.73,6.21,16.27,13.17,20.85,5.59,3.69,13.43,3.87,17.89-1.69,2.53-3.15,2.94-7.31,4.93-10.72,5.12-8.81,12.45-.07,16.94,4.44,3,3,6.28,7.76,10,9.85,1.87,1,3.5,1.34,5.35,0a7.7,7.7,0,0,0,2.66-5.1c.27-2-.46-3.89-.4-5.86.2-5.6,3.91-7.71,8.68-6.59,6.33,1.49,10.92,6.87,16.76,9.49a5.81,5.81,0,0,0,3.39.68c4.27-.83,1.37-8.47.28-10.83-2.18-4.73-9.32-13.45-4-18.51,5-4.8,13.75,5.06,18.16-1.31,3.86-5.58-4.47-11.87-7.93-14.79-9.11-7.68-19.35-13.9-28.31-21.76C330.29,916,319.27,894.11,305,875.05,300.07,868.57,294.35,861.72,285.58,861.83Z" transform="translate(-73.64 -653.81)"/><path class="cls-7" d="M282.17,879.73c-.12,17.89,11.15,35.08,19.38,50.27,4.34,8,8.8,16,13.12,24,4.69,8.72,10.56,16.58,16.12,24.73.39.57-.5,1.29-1,.76-6.51-7.48-11.19-16.38-16.3-24.82-5.25-8.68-10-17.67-14.84-26.61-7.38-13.75-16.93-29.16-17.77-45.27-6.36,15.82-4.49,34.19-2.18,50.69a210.89,210.89,0,0,0,14.2,50.79c.25.63-.83,1.1-1.11.47a196.3,196.3,0,0,1-14.63-53c-2.27-17-3.67-36.33,3.74-52.26A.66.66,0,0,1,282.17,879.73Z" transform="translate(-73.64 -653.81)"/><path class="cls-7" d="M287.31,880.15c7.41,17.24,17.43,32.68,28.48,47.76,5.76,7.85,11.28,15.88,17.09,23.69s14.43,12.83,20.08,20.66c.44.61-.52,1.34-1,.81-6.54-6.8-14.19-12.28-19.86-19.91-6-8-11.77-16.29-17.51-24.52-10.59-15.16-21.7-30.58-27.88-48.22C286.54,880.05,287.15,879.78,287.31,880.15Z" transform="translate(-73.64 -653.81)"/><path class="cls-7" d="M353.61,947.5a.32.32,0,0,1-.37.5c-6.94-3.65-13.92-7.78-20.65-11.84-5.89-3.55-11-7.68-14.69-13.57-.34-.54.47-1,.83-.49,5,6.68,11.67,11.31,18.79,15.4C342.91,940.59,349.07,943.16,353.61,947.5Z" transform="translate(-73.64 -653.81)"/><path class="cls-7" d="M291.33,939.44c3.7,6.12,6.95,12.66,8.47,19.71a.42.42,0,0,1-.81.22c-2.6-6.63-5.11-13.15-8.73-19.3A.62.62,0,0,1,291.33,939.44Z" transform="translate(-73.64 -653.81)"/><path class="cls-8" d="M276.89,881.64c14.42,11.8,30.79,21.33,43.56,35.1,14.1,15.2,19.18,35.11,29.29,52.75,3.23,5.62,7.76,12.86,15.21,12.09a7.66,7.66,0,0,0,5.9-3.57c2.3-3.64,1.67-9.66,7.28-10,3.32-.18,6.39,1.45,9.76.83a12.37,12.37,0,0,0,7.56-4.74c3.84-5.17,2-11.64,1.75-17.54-.17-4.67,1.09-7.83,5.39-10,2.74-1.41,5.86-2.55,6.82-5.82,1.86-6.38-7.62-13.65-.15-18.6,4.32-2.86,11.32-3.07,13.31-8.72,2.25-6.36-4.55-14.28-8-18.81-25.49-33.38-71.25-45.3-110.89-49.51a.73.73,0,0,0-.49.13,50.39,50.39,0,0,0-36.59,12.45C253,859.82,266.58,873.21,276.89,881.64Z" transform="translate(-73.64 -653.81)"/><path class="cls-9" d="M270.45,854.45c2.15.24,4.28.55,6.4.89C296.44,866.22,315.4,880,329.09,898c5.86,7.7,9.47,16.12,12.28,25.12-.36-.13-.74.32-.39.6l.77.64c.49,1.61,1,3.25,1.41,4.9,2.66,9.73,5.15,20.27,12,28,.35.4,1-.17.7-.61-6.18-9.57-9.06-19.86-12.11-30.65,4.32,3.59,8.53,7.35,12.48,11.35,4.8,4.85,8.79,10.42,13.56,15.27.22.23.54-.09.4-.35-3.15-5.7-8-10.69-12.53-15.29a120.44,120.44,0,0,0-14.33-12.48l0-.14A80.41,80.41,0,0,0,327.72,894a157.28,157.28,0,0,0-47.42-38.09c32.75,6.24,60.84,24.77,86.81,45.62a.44.44,0,0,0,.32.76H368c8.21,6.62,16.22,13.47,24.09,20.22.59.5,1.38-.39.8-.9-7.43-6.47-15-13-22.78-19.36,8.71-.11,17.12.7,25.85,1.36.41,0,.39-.56.06-.67-8.42-2.77-18.42-3-27.23-1.76C341.4,879,311.44,859.32,276.3,853.91c-.62-.3-1.25-.62-1.87-.91a.44.44,0,0,0-.6.56c-1-.14-2.06-.28-3.1-.39C269.9,853.08,269.61,854.36,270.45,854.45Z" transform="translate(-73.64 -653.81)"/><path class="cls-9" d="M363.11,916.26c-3.48-10.32-9.66-20.15-15.78-29a.38.38,0,0,0-.64.41c5.77,9.41,10.38,19.36,15.84,28.91A.32.32,0,0,0,363.11,916.26Z" transform="translate(-73.64 -653.81)"/><path class="cls-9" d="M306.37,861.57a171.3,171.3,0,0,1,47.54,7.76c15.65,5,29.26,12.87,43.09,21.56.3.19.63-.29.35-.52-12.2-10.18-27.54-17.23-42.47-22.27a140.15,140.15,0,0,0-48.55-7.4C305.77,860.71,305.82,861.55,306.37,861.57Z" transform="translate(-73.64 -653.81)"/><path class="cls-15" d="M228.57,765c28.55-3.3,57.16-7.22,85.38-12.72,9.79-1.91,19.57-3.94,29.39-5.73,1.81-.33,7.65-.13,6.57-3.23-10-28.6-38.47-51.59-70.15-43.92-13.55,3.28-27.08,9.74-36.87,20.1-11.52,12.2-14.25,27.85-15.71,44.07A1.27,1.27,0,0,0,228.57,765Z" transform="translate(-73.64 -653.81)"/><path class="cls-16" d="M222.83,759.25c28.55-3.31,57.16-7.23,85.38-12.73,9.79-1.91,19.57-3.94,29.39-5.72,1.81-.33,7.65-.14,6.57-3.24C334.18,709,305.7,686,274,693.64c-13.55,3.28-27.08,9.74-36.87,20.11-11.52,12.19-14.25,27.85-15.71,44.06A1.28,1.28,0,0,0,222.83,759.25Z" transform="translate(-73.64 -653.81)"/><path class="cls-17" d="M309.68,709.49c-12.95-6.53-28.55-8.52-42.45-4.07C244.3,712.78,230,735,230.58,758.33c26-3.12,52-6.81,77.63-11.81,9.62-1.88,19.23-3.86,28.87-5.62C334.92,727.33,320.84,715.12,309.68,709.49Z" transform="translate(-73.64 -653.81)"/><path class="cls-16" d="M239.05,753.7a8.52,8.52,0,0,0,3.67.85c4.5.3,29.46-.95,25.09-10.95a22.64,22.64,0,0,0-1.91-3.06,7.13,7.13,0,0,1-1.18-4.77,7.49,7.49,0,0,1,1-3.1c2.77-4.49,10.55-5.78,15.25-5.11a11.6,11.6,0,0,1,5,1.81c4.19,2.94,2.78,7.28,1.36,11.35-.87,2.49-.07,4.75,2.65,5.44s5.63.24,8.28-.14a213.2,213.2,0,0,0,22.56-4.19c3.2-.82,6.69-2.11,5.76-6.05-3.55-15.08-20.9-24.14-34.41-25.92-15.64-2.07-32.24,3.56-43.93,15a35.33,35.33,0,0,0-4,4.69,39.46,39.46,0,0,0-7.1,18.06c-.23,2-.09,4.79,1.79,6Z" transform="translate(-73.64 -653.81)"/><path class="cls-18" d="M301.73,738.71c2.06-1.08,6-2.59,6-5.38a1.16,1.16,0,0,0-1-1c-1.27-.37-2.41.54-3.39,1.25s-2.1,1.61-3.18,2.37C298.73,737,300.12,739.56,301.73,738.71Z" transform="translate(-73.64 -653.81)"/><path class="cls-18" d="M299,729.78a12.75,12.75,0,0,0,1.59-3.72c.29-1.43-1.5-1.88-2.34-1a13.63,13.63,0,0,0-2.12,3.49C295.19,730.36,298,731.54,299,729.78Z" transform="translate(-73.64 -653.81)"/><path class="cls-18" d="M286.12,722.63c.25,2.21,3.37,1.73,3.34-.4,0-1.64.32-4-.82-5.29a1.44,1.44,0,0,0-2.25,0C285.32,718.54,285.92,720.82,286.12,722.63Z" transform="translate(-73.64 -653.81)"/><path class="cls-18" d="M271.94,722.48a1.55,1.55,0,0,0,3.08-.37,14.19,14.19,0,0,0-.45-2.76,1.49,1.49,0,0,0-2.84.35A13.66,13.66,0,0,0,271.94,722.48Z" transform="translate(-73.64 -653.81)"/><path class="cls-18" d="M258.18,726.73a9,9,0,0,0,2.4,2.56c1.71,1.52,4-1.38,2.19-2.82a8.32,8.32,0,0,0-2.55-1.76C259.08,724.37,257.51,725.37,258.18,726.73Z" transform="translate(-73.64 -653.81)"/><path class="cls-18" d="M253.1,736.71a10.92,10.92,0,0,0,3.56.57c2,.19,2.53-3,.48-3.19a11.46,11.46,0,0,0-3.64-.19A1.49,1.49,0,0,0,253.1,736.71Z" transform="translate(-73.64 -653.81)"/><path class="cls-18" d="M254.31,747.33c1.83-.14,1.46-2.91-.34-2.83-1.38,0-2.74-.11-4.11-.1-.88,0-2.34.19-2.29,1.39C247.67,748.12,252.91,747.44,254.31,747.33Z" transform="translate(-73.64 -653.81)"/><path class="cls-15" d="M374.74,795.18c.79,29,2.18,58,5.17,86.86,1,10,2.19,20,3.11,30,.16,1.85-.54,7.7,2.63,6.88,29.11-7.55,54.3-34.16,49.47-66.65-2.06-13.9-7.27-28-16.67-38.78-11.05-12.63-26.28-16.74-42.17-19.6A1.27,1.27,0,0,0,374.74,795.18Z" transform="translate(-73.64 -653.81)"/><path class="cls-16" d="M369,789.39c.79,29,2.18,58,5.17,86.86,1,10,2.19,20,3.11,30,.16,1.86-.54,7.7,2.63,6.88C409,905.6,434.21,879,429.38,846.5c-2.06-13.9-7.27-28-16.67-38.78-11-12.63-26.28-16.73-42.17-19.6A1.27,1.27,0,0,0,369,789.39Z" transform="translate(-73.64 -653.81)"/><path class="cls-17" d="M410.63,881c7.58-12.45,10.9-27.94,7.7-42.29-5.28-23.67-26-40-49.09-41.4.82,26.35,2.21,52.78,4.93,79,1,9.83,2.15,19.66,3.05,29.5C390.81,904.75,404.1,891.67,410.63,881Z" transform="translate(-73.64 -653.81)"/><path class="cls-16" d="M373.08,806.16a8.73,8.73,0,0,0-1.17,3.62c-.68,4.5-1.62,29.67,8.64,26.15a22,22,0,0,0,3.2-1.65,6.9,6.9,0,0,1,4.81-.77,7.3,7.3,0,0,1,3,1.22c4.2,3.18,4.8,11.1,3.73,15.77a11.75,11.75,0,0,1-2.23,4.91c-3.27,4-7.43,2.15-11.33.37-2.38-1.09-4.69-.47-5.6,2.2s-.73,5.63-.59,8.32a219.33,219.33,0,0,0,2.19,23c.53,3.29,1.5,6.9,5.47,6.31,15.22-2.26,25.67-18.9,28.61-32.32a54.71,54.71,0,0,0-11.06-45.43,35.46,35.46,0,0,0-4.28-4.47,38.89,38.89,0,0,0-17.23-8.69c-2-.41-4.72-.51-6,1.29Z" transform="translate(-73.64 -653.81)"/><path class="cls-18" d="M382.45,870.42c.89,2.17,2,6.3,4.79,6.47a1.16,1.16,0,0,0,1.07-.87c.47-1.26-.33-2.47-.94-3.52s-1.41-2.25-2.07-3.4C384.42,867.57,381.75,868.73,382.45,870.42Z" transform="translate(-73.64 -653.81)"/><path class="cls-18" d="M391.51,868.44a12.5,12.5,0,0,0,3.53,1.92c1.39.41,2-1.35,1.21-2.26a13.3,13.3,0,0,0-3.26-2.44C391.27,864.58,389.85,867.33,391.51,868.44Z" transform="translate(-73.64 -653.81)"/><path class="cls-18" d="M399.69,856.15c-2.21.05-2,3.22.11,3.38,1.62.12,3.88.66,5.29-.37a1.45,1.45,0,0,0,.22-2.25C403.8,855.69,401.5,856.1,399.69,856.15Z" transform="translate(-73.64 -653.81)"/><path class="cls-18" d="M401.07,841.91a1.56,1.56,0,0,0,.1,3.12,12.8,12.8,0,0,0,2.76-.21,1.51,1.51,0,0,0-.1-2.88A14.14,14.14,0,0,0,401.07,841.91Z" transform="translate(-73.64 -653.81)"/><path class="cls-18" d="M398.06,827.72a9.22,9.22,0,0,0-2.73,2.18c-1.65,1.59,1,4.14,2.59,2.45a8.34,8.34,0,0,0,2-2.4C400.31,828.82,399.46,827.17,398.06,827.72Z" transform="translate(-73.64 -653.81)"/><path class="cls-18" d="M388.65,821.75a10.84,10.84,0,0,0-.88,3.53c-.36,2,2.72,2.8,3.11.75a11.58,11.58,0,0,0,.5-3.63A1.46,1.46,0,0,0,388.65,821.75Z" transform="translate(-73.64 -653.81)"/><path class="cls-18" d="M378,822.05c0,1.85,2.75,1.72,2.83-.1.07-1.39.34-2.74.45-4.12.07-.88,0-2.37-1.17-2.42C377.84,815.31,378.06,820.63,378,822.05Z" transform="translate(-73.64 -653.81)"/><path class="cls-8" d="M394.36,846.39c2.52-.21,8.05-.29,9.57-3.08,1.67-3.06-2.47-5.89-4-7.94-6.33-8.58,6.33-9.08,10.47-12.28,2.24-1.73,3.92-5,2.32-7.72-1.28-2.17-4-2.57-6.23-2.79-1.63-.17-4.41.11-5.8-1-3.78-3,2-6.88,3.45-8.89,4.36-6.05-1.72-12.9-8.42-10.67a22.05,22.05,0,0,0-4.36,2.47c-1.1.67-3.47,2.52-4.79,1,.1.12.56-3.32.56-3.24.22-3.08-.41-6.5-3.08-8.41-7-5-11.57,6.34-14.06,10.76-4,7.12-9.14,10.59-17.17,11.28-6,.52-11.8,1.18-17.51,3.35-3.44,1.31-7.44,3.29-8.74,7.07a5.85,5.85,0,0,0,1.2,6.16,13.41,13.41,0,0,0,3.81,2.42c9.67,4.73,19.27,9.65,29.11,14C371.19,843.54,382.74,847.35,394.36,846.39Z" transform="translate(-73.64 -653.81)"/><path class="cls-9" d="M370.38,818.1c8.76-1.1,15.53-7.82,22.43-12.79a.43.43,0,0,0-.41-.76c-3.34,1.44-6.08,3.92-8.95,6.11-4.48,3.42-8.93,5.91-14.61,6.46a96.92,96.92,0,0,1-14.95-.2c-2.45-.14-4.89-.34-7.33-.54-.9-.07-3.33-.61-5.34-.85,1.18,0,2.38,0,2.79,0,1.89-.14,3.79-.27,5.67-.49a60.22,60.22,0,0,0,13.54-2.91A32,32,0,0,0,380.09,799a.43.43,0,0,0-.72-.46c-9.39,14-27.15,16.23-42.55,16.85a.3.3,0,0,0,0,.6C347.61,817.71,359.44,819.48,370.38,818.1Z" transform="translate(-73.64 -653.81)"/><path class="cls-9" d="M368.59,825.21c11.19-.62,22.38-3.34,33.29-5.77.43-.1.27-.74-.16-.67-11,1.77-22,4.57-33.09,5.29-12,.77-23.4-1.82-34.94-5-.42-.12-.61.53-.2.64C344.78,822.94,356.77,825.86,368.59,825.21Z" transform="translate(-73.64 -653.81)"/><path class="cls-9" d="M382.52,837.38a.42.42,0,0,0,0-.8,81,81,0,0,1-19.25-6c-5.51-2.61-10.9-5.36-16.82-6.92-.58-.15-.86.74-.28.9,7.15,2,13.56,5.68,20.22,8.85C371.33,835.71,377,838.16,382.52,837.38Z" transform="translate(-73.64 -653.81)"/><path class="cls-13" d="M256.49,876c10.25,16.31,23.53,30.89,30.33,49.2,3.37,9.07,5.15,18.63,8.34,27.75,1.2,3.46,3.57,11.6,8.85,10.23,6-1.56,1.1-11,6.11-13.48,5.3-2.6,9.82,5.31,12.75,8.31,1.46,1.5,6.38,5.87,8.21,2.84a4.74,4.74,0,0,0,.44-2.77c-.32-5.2-3-10.22-2.38-15.47.51-4,3.14-6.19,7.39-4.76,1.5.51,2.72,1.61,4.29,2a6,6,0,0,0,4.58-.59c1.54-1,1.78-2.35,1.52-4.07-.52-3.42-3.15-7.26-4.57-10.4-2.12-4.7-6.6-12.77,1.45-14.18,3.13-.56,6.37.3,9.44-.73,5.43-1.83,7.52-7.87,6.33-13.18-1.48-6.6-6.79-11.94-11.93-15.93-6.62-5.15-14.21-9.14-21.54-13.15q-8.42-4.61-17.1-8.63a1,1,0,0,0-.6-.74A230.52,230.52,0,0,0,283.72,848c-6.25-2-13.19-3.29-19.59-1.19-5.19,1.71-10.07,5.44-12.08,10.68C249.48,864.14,253,870.44,256.49,876Z" transform="translate(-73.64 -653.81)"/><path class="cls-14" d="M266.44,859.94c13.46,5,23.17,18.41,32.24,29,4.78,5.57,9.48,11.22,14.28,16.78,5.22,6,9.46,12.74,14,19.29.32.46,1.12,0,.85-.52-3.77-7.07-9.13-13.16-14-19.45-5-6.46-10.42-12.65-15.77-18.84-8.23-9.51-17.1-21.16-28.95-26.35,13.67-.37,26.92,6.24,38.65,12.66a168.28,168.28,0,0,1,34.1,25.19c.4.37,1.06-.32.67-.71a155.87,155.87,0,0,0-35.67-26.15c-12.11-6.53-26.22-13.06-40.27-11.92A.54.54,0,0,0,266.44,859.94Z" transform="translate(-73.64 -653.81)"/><path class="cls-14" d="M265.3,864c10.84,10.53,19.6,22.54,27.79,35.23,4.26,6.61,8.73,13.09,13,19.73s5.54,14.63,9.82,21.15c.33.51,1.16,0,.9-.55-3.25-6.92-5.2-14.3-9.32-20.78-4.35-6.84-8.9-13.58-13.45-20.29-8.39-12.36-16.82-25.2-28.31-34.89C265.44,863.36,265.07,863.75,265.3,864Z" transform="translate(-73.64 -653.81)"/><path class="cls-14" d="M297.1,933.58a.25.25,0,0,0,.48-.14c-.78-6.32-1.91-12.81-3.05-19.09-1-5.5-2.65-10.56-6-15-.31-.42-.87.08-.6.49,3.61,5.68,5.19,12.1,6.24,18.69C294.94,923.47,295.13,928.9,297.1,933.58Z" transform="translate(-73.64 -653.81)"/><path class="cls-14" d="M308.65,883.8a52.26,52.26,0,0,0,12.4,12,.34.34,0,0,0,.39-.55,107.48,107.48,0,0,1-12-12.12C309,882.66,308.25,883.29,308.65,883.8Z" transform="translate(-73.64 -653.81)"/><path class="cls-6" d="M242.76,864.16c-22.66,7-44.25,18.3-68.16,20.54-11.84,1.11-23.75.14-35.59,1-4.5.33-14.91.53-15,7.33-.11,7.77,12.7,4.91,14,11.76,1.36,7.22-9.48,10.09-14,12.65-2.24,1.27-9,5.77-6,9a5.88,5.88,0,0,0,3.14,1.44c6.26,1.31,13.1-.35,19.1,2.16,4.53,1.89,6.32,5.79,3.24,10.45-1.09,1.64-2.78,2.75-3.72,4.53a7.76,7.76,0,0,0-.79,5.71c.72,2.18,2.21,2.91,4.34,3.15,4.22.49,9.63-1.43,13.81-2.11,6.26-1,17.27-3.81,16.33,6.35-.36,3.95-2.43,7.57-2.21,11.61.41,7.14,6.88,11.61,13.56,11.91,8.3.37,16.36-4.3,22.76-9.19,8.25-6.3,15.45-14.14,22.59-21.67q8.17-8.64,15.78-17.8a1.24,1.24,0,0,0,1.07-.48c7-8.45,14.15-17.18,20.13-26.41,4.46-6.86,8.18-14.82,7.77-23.22-.33-6.8-3.17-13.89-8.72-18C259.08,859.57,250.47,861.77,242.76,864.16Z" transform="translate(-73.64 -653.81)"/><path class="cls-7" d="M258.55,881.37c-10.26,14.59-29.36,21.92-44.84,29.41-8.16,3.94-16.38,7.77-24.53,11.75-8.86,4.32-18.17,7.25-27.41,10.59a.63.63,0,0,0,.35,1.19c9.6-2.25,18.56-6.72,27.6-10.57,9.29-4,18.38-8.43,27.45-12.87,14-6.82,30.63-13.71,40.64-26.3-4,16.58-16.15,30.4-27.58,42.44A208.47,208.47,0,0,1,189.3,959.9c-.57.36,0,1.38.63,1a193.42,193.42,0,0,0,42.58-34.46c11.68-12.46,24-27.34,27.21-44.63A.65.65,0,0,0,258.55,881.37Z" transform="translate(-73.64 -653.81)"/><path class="cls-7" d="M254.14,878.68c-16,9.64-33.08,16.28-50.78,22-9.22,3-18.35,6.26-27.59,9.18s-19.15,1.93-28.26,5c-.71.24-.36,1.4.37,1.27,9.25-1.67,18.63-1.62,27.65-4.48,9.52-3,19-6.31,28.41-9.61,17.38-6.08,35.33-12.06,50.56-22.75C254.81,879.05,254.48,878.47,254.14,878.68Z" transform="translate(-73.64 -653.81)"/><path class="cls-7" d="M161.31,894.35a.32.32,0,0,0,0,.63c7.75,1.12,15.81,1.87,23.62,2.53,6.84.59,13.37.24,19.79-2.37.58-.24.18-1.07-.4-.89-7.89,2.51-16,2.32-24.17,1.45C174,895,167.51,893.5,161.31,894.35Z" transform="translate(-73.64 -653.81)"/><path class="cls-7" d="M216.55,924.45c-6.55,2.8-13,6.2-18.28,11a.42.42,0,0,0,.52.65c6-3.85,11.76-7.66,18.26-10.54A.62.62,0,0,0,216.55,924.45Z" transform="translate(-73.64 -653.81)"/><path class="cls-6" d="M226.58,810.79c-7.77-17.65-18.8-34-22.89-53.14-2-9.46-2.39-19.18-4.22-28.68-.7-3.6-1.86-12-7.28-11.42-6.19.66-2.68,10.74-8,12.44-5.61,1.79-8.94-6.7-11.41-10.1-1.23-1.69-5.46-6.75-7.71-4a4.81,4.81,0,0,0-.84,2.68c-.44,5.19,1.54,10.56.12,15.65-1.07,3.84-4,5.67-8,3.62-1.41-.72-2.46-2-4-2.57a6.16,6.16,0,0,0-4.62-.09c-1.66.79-2.1,2.07-2.09,3.81,0,3.46,2.07,7.65,3,11,1.42,5,4.69,13.6-3.48,13.82-3.18.09-6.25-1.24-9.45-.67-5.63,1-8.57,6.68-8.16,12.1.5,6.75,5,12.82,9.49,17.53,5.81,6.06,12.74,11.13,19.41,16.17q7.67,5.79,15.67,11a1,1,0,0,0,.49.82,231.29,231.29,0,0,0,22.93,13.74c5.89,2.94,12.58,5.19,19.21,4,5.38-.92,10.75-3.9,13.5-8.78C231.8,823.54,229.23,816.79,226.58,810.79Z" transform="translate(-73.64 -653.81)"/><path class="cls-7" d="M214.42,825.21c-12.6-6.9-20.26-21.63-27.7-33.42-3.92-6.23-7.76-12.5-11.7-18.71-4.29-6.75-7.52-14-11.06-21.14a.51.51,0,0,0-.92.39c2.71,7.55,7.13,14.36,11.06,21.3,4,7.13,8.48,14,12.88,21,6.76,10.62,13.85,23.44,24.82,30.33-13.57-1.64-25.73-10.14-36.4-18.22a168.53,168.53,0,0,1-30.1-29.93c-.34-.43-1.09.16-.75.6A156.33,156.33,0,0,0,176,808.49c11,8.25,24.05,16.78,38.12,17.71A.53.53,0,0,0,214.42,825.21Z" transform="translate(-73.64 -653.81)"/><path class="cls-7" d="M216.13,821.38c-9.2-12-16.12-25.17-22.39-38.94-3.26-7.16-6.74-14.23-10-21.42s-3.37-15.29-6.65-22.37c-.26-.55-1.15-.16-1,.42,2.22,7.32,3.08,14.91,6.22,21.92,3.32,7.41,6.84,14.75,10.37,22,6.51,13.47,13,27.4,23,38.69C215.9,822,216.33,821.64,216.13,821.38Z" transform="translate(-73.64 -653.81)"/><path class="cls-7" d="M194.75,747.84a.26.26,0,0,0-.5.07c-.15,6.37,0,13,.25,19.33.2,5.59,1.1,10.84,3.79,15.78.25.45.87,0,.67-.41-2.75-6.14-3.38-12.73-3.47-19.4C195.42,758.16,196,752.77,194.75,747.84Z" transform="translate(-73.64 -653.81)"/><path class="cls-7" d="M176.12,795.39a52.49,52.49,0,0,0-10.53-13.72.34.34,0,0,0-.47.48,108.38,108.38,0,0,1,10.14,13.76C175.58,796.47,176.44,796,176.12,795.39Z" transform="translate(-73.64 -653.81)"/><path class="cls-8" d="M265,712.1a9.09,9.09,0,0,0-7-.22c-1.41.52-2.62,1.54-4,2-4.13,1.51-7-.65-9.1-4.1-2.58-4.24-5-11.55-11.47-10.11a5.24,5.24,0,0,0-4,4,32.52,32.52,0,0,0-.42,4.18c-.61,4.28-3.53,5.47-7.29,4.46-7.25-1.93-9.82-12.72-17.94-12.8-5.78-.05-6.65,6-5.82,10.5,1,5.26,2.12,11.14-5.17,12-3.51.4-7.33-1-10.77-.11-5.8,1.43-4.14,7.4-1.73,11.27,3.83,6.16,13,11.45,11.51,19.88-.84,4.7-6.57,5.36-8,9.68-.79,2.41.12,5,1.26,7.09,4.28,7.94,11.91,14.76,18.42,20.81,8.21,7.62,17.14,14.43,25.09,22.33a116.69,116.69,0,0,1,12.74,15.56c3.33,4.72,5.56,10.57,11.39,12.34s11.93.19,16.87-3.25a25,25,0,0,0,10.11-15.11c1.51-7.22-.74-14.5-3.16-21.24-3.37-9.36-7.13-18.56-11.13-27.65-1.78-4.06-3.79-8.28-3.44-12.84.35-4.37,2.56-8.32,4.5-12.14C271.25,739.27,278.43,718.07,265,712.1Z" transform="translate(-73.64 -653.81)"/><path class="cls-9" d="M203.08,743.66c.75,14.69,14.92,25.71,24.51,35.12,1.66,1.62,3.26,3.28,4.82,5a83.12,83.12,0,0,1-15.14-4c-5.42-2.08-10.35-5-15.44-7.75-.32-.18-.61.32-.33.55,8.7,7.23,20.78,11.35,32,12.47a127.92,127.92,0,0,1,24.43,40.45.49.49,0,0,0,.92-.34,121.41,121.41,0,0,0-23.48-40,.44.44,0,0,0-.06-.86l-.83-.13c-.54-.59-1.07-1.18-1.61-1.76-5.69-6.05-12-11.47-17.54-17.68a54.62,54.62,0,0,1-11.67-21.16C203.57,743.17,203.06,743.32,203.08,743.66Z" transform="translate(-73.64 -653.81)"/><path class="cls-9" d="M217,738.35c4.8,7.19,9.51,13.83,13.26,21.72,3.37,7.11,6.48,14.35,9.68,21.54,6.85,15.39,13.79,30.74,20.68,46.11.23.52,1.05.21.82-.31Q250.74,803.11,240,778.8c-3.39-7.63-6.62-15.35-10.37-22.8-3.21-6.39-6.77-13.32-12.19-18.09C217.18,737.67,216.79,738.05,217,738.35Z" transform="translate(-73.64 -653.81)"/><path class="cls-9" d="M253.55,726.83c-1.62,7.72-4.84,14.92-6.29,22.67a81.29,81.29,0,0,0-1,21.07c1.21,16.25,6.44,31.78,11.81,47a.39.39,0,0,0,.74-.27c-5-15.52-10.25-31.23-11.34-47.61a77.88,77.88,0,0,1,1.63-22.84c1.53-6.51,5.72-13.21,5.13-20A.35.35,0,0,0,253.55,726.83Z" transform="translate(-73.64 -653.81)"/><path class="cls-9" d="M239.54,725.4c0,8.48,2.83,17.31,6,25.05a.42.42,0,0,0,.78-.29c-3.07-8.13-4.38-16.39-6.18-24.83A.32.32,0,0,0,239.54,725.4Z" transform="translate(-73.64 -653.81)"/><path class="cls-8" d="M295.78,964.24c-2.37-3.57-5-7.23-5.89-11.52-.9-4.48.61-8.92,1.9-13.16,2.89-9.51,5.55-19.1,7.78-28.79,1.62-7,3-14.48.64-21.47a24.92,24.92,0,0,0-11.81-13.79c-5.32-2.82-11.54-3.67-17.14-1.2s-7.11,8.53-9.86,13.61a115.58,115.58,0,0,1-10.82,17c-7,8.8-15,16.63-22.27,25.18-5.75,6.79-12.53,14.48-15.84,22.87-.88,2.24-1.48,4.9-.42,7.19,1.92,4.12,7.69,4.09,9.08,8.66,2.49,8.19-6,14.55-9.09,21.12-1.93,4.13-2.88,10.26,3,11,3.53.43,7.15-1.38,10.69-1.4,7.33,0,6.89,5.92,6.55,11.26-.3,4.61,1.27,10.48,7,9.73,8.06-1.05,9.34-12.07,16.31-14.86,3.61-1.44,6.65-.61,7.76,3.57a35.53,35.53,0,0,0,.91,4.09,5.25,5.25,0,0,0,4.41,3.51c6.6.65,8.13-6.9,10.2-11.41,1.68-3.68,4.27-6.17,8.55-5.17,1.45.35,2.78,1.21,4.24,1.56a9,9,0,0,0,6.9-1.06C311.25,993.18,301.62,973,295.78,964.24Z" transform="translate(-73.64 -653.81)"/><path class="cls-9" d="M233.42,976.8c-1-14.69,11.78-27.32,20.2-37.81q2.17-2.72,4.2-5.53a83.5,83.5,0,0,0-14.56,5.83c-5.14,2.71-9.68,6.2-14.42,9.55-.3.21-.64-.25-.39-.51,7.78-8.23,19.29-13.76,30.31-16.22A128.16,128.16,0,0,0,278.25,889a.49.49,0,0,1,1,.23,121.46,121.46,0,0,1-18.61,42.51.44.44,0,0,1,0,.86l-.82.24c-.45.65-.91,1.3-1.38,1.94-4.94,6.69-10.58,12.82-15.33,19.65a54.69,54.69,0,0,0-9.1,22.41C234,977.22,233.44,977.14,233.42,976.8Z" transform="translate(-73.64 -653.81)"/><path class="cls-9" d="M247.85,980.4c3.93-7.72,7.82-14.88,10.61-23.15,2.51-7.47,4.74-15,7.07-22.56,5-16.1,10.07-32.17,15.11-48.25.17-.54,1-.34.85.2-5.17,17-10.31,33.91-15.54,50.84-2.46,8-4.76,16-7.6,23.88-2.44,6.73-5.15,14-10,19.42A.33.33,0,0,1,247.85,980.4Z" transform="translate(-73.64 -653.81)"/><path class="cls-9" d="M285.51,987.46C283,980,279,973.22,276.59,965.7a82,82,0,0,1-3.46-20.8c-.71-16.28,2.65-32.33,6.19-48.12.11-.49.85-.31.76.19-3.1,16-6.5,32.23-5.65,48.63a78,78,0,0,0,4.31,22.48c2.28,6.28,7.23,12.44,7.46,19.27A.35.35,0,0,1,285.51,987.46Z" transform="translate(-73.64 -653.81)"/><path class="cls-9" d="M271.77,990.56c-1-8.42.77-17.53,3.05-25.6a.42.42,0,0,1,.81.2c-2.1,8.43-2.42,16.79-3.21,25.38A.33.33,0,0,1,271.77,990.56Z" transform="translate(-73.64 -653.81)"/><path class="cls-8" d="M244.72,833.46c-18.3-3.18-37.21-3.41-55-9.11-19.68-6.3-33.77-21.16-51.15-31.55-5.55-3.31-13-7.39-19.13-3a7.73,7.73,0,0,0-3.41,6c-.25,4.31,3.23,9.25-1.51,12.29-2.81,1.8-6.27,1.89-8.91,4.09a12.51,12.51,0,0,0-4.3,7.86c-.84,6.41,3.94,11.12,7,16.16,2.41,4,2.85,7.37.17,11.43-1.7,2.58-3.87,5.11-3.12,8.43,1.47,6.48,13.27,8.14,9.16,16.15-2.38,4.63-8.38,8.26-7.38,14.18,1.13,6.65,10.9,10.2,16.12,12.45,38.43,16.53,84.12,4.33,120.73-11.55a.72.72,0,0,0,.37-.36A50.92,50.92,0,0,0,270.19,858C276.17,840.69,257.8,835.73,244.72,833.46Z" transform="translate(-73.64 -653.81)"/><path class="cls-9" d="M263.53,854c-2,.85-4,1.63-6,2.38-22.37.18-45.59-2.48-66.25-11.41-8.85-3.83-16.08-9.38-22.91-15.85.38-.06.49-.64,0-.71l-1-.18q-1.81-1.76-3.61-3.58c-7-7.17-14.33-15.13-24-18.5-.5-.18-.78.63-.32.87,10,5.29,17.54,12.85,25.44,20.76-5.52-1-11-2.2-16.4-3.74-6.53-1.86-12.72-4.75-19.23-6.63-.3-.09-.43.35-.18.5,5.51,3.42,12.17,5.37,18.35,7.16A120.43,120.43,0,0,0,166,828.88l.1.1a79.7,79.7,0,0,0,28.27,18.76,156.07,156.07,0,0,0,59.85,9.82c-31.59,10.72-65.08,8.42-97.85,3.05a.44.44,0,0,0-.65-.51l-.52.31c-10.38-1.72-20.68-3.74-30.83-5.74a.6.6,0,0,0-.26,1.18c9.63,2,19.41,3.94,29.27,5.64-7.55,4.39-15.27,7.84-23.21,11.57-.37.18-.07.68.28.61,8.68-1.74,17.51-6.48,24.6-11.9,34.72,5.87,70.37,8.2,103.64-4.42.69,0,1.39-.07,2.08-.12a.45.45,0,0,0,.25-.79c1-.39,1.93-.77,2.89-1.19C264.68,854.92,264.31,853.66,263.53,854Z" transform="translate(-73.64 -653.81)"/><path class="cls-9" d="M152.72,845.82c8.05,7.27,18.21,12.8,27.87,17.55a.39.39,0,0,0,.36-.68c-9.6-5.35-18.45-11.76-27.85-17.4A.33.33,0,0,0,152.72,845.82Z" transform="translate(-73.64 -653.81)"/><path class="cls-9" d="M228.75,865.51a171.47,171.47,0,0,1-45.22,16.69c-16.05,3.4-31.77,3.22-48,2.46a.32.32,0,0,0-.06.63c15.58,2.86,32.39,1.44,47.85-1.53a140.69,140.69,0,0,0,45.93-17.51C229.69,866,229.24,865.25,228.75,865.51Z" transform="translate(-73.64 -653.81)"/><path class="cls-10" d="M271.38,763.79a10.74,10.74,0,0,0-4.48-8.18,8.3,8.3,0,0,0-9.67.67,10.18,10.18,0,0,0-4.07,7.45c-.11,3.65,2.66,7,5.91,8.51a9.21,9.21,0,0,0,9.23-.92A8.54,8.54,0,0,0,271.38,763.79Z" transform="translate(-73.64 -653.81)"/><g class="cls-11"><path class="cls-12" d="M271.38,763.79a10.74,10.74,0,0,0-4.48-8.18,8.3,8.3,0,0,0-9.67.67,10.16,10.16,0,0,0-4.07,7.45c-.11,3.65,2.66,7,5.91,8.51a9.21,9.21,0,0,0,9.23-.92A8.54,8.54,0,0,0,271.38,763.79Zm-7,3.1a5.68,5.68,0,0,1-5.79-1.91,4.76,4.76,0,0,1,.41-6.35,4.1,4.1,0,0,1,3.64-1.09,5.24,5.24,0,0,1,4.63,3.4A4.4,4.4,0,0,1,264.37,766.89Z" transform="translate(-73.64 -653.81)"/></g><path class="cls-10" d="M327.34,971.43a10.72,10.72,0,0,0-4.47-8.18,8.31,8.31,0,0,0-9.68.68,10.18,10.18,0,0,0-4.06,7.44c-.11,3.65,2.66,7,5.9,8.51a9.21,9.21,0,0,0,9.23-.91A8.52,8.52,0,0,0,327.34,971.43Z" transform="translate(-73.64 -653.81)"/><g class="cls-11"><path class="cls-12" d="M327.34,971.43a10.72,10.72,0,0,0-4.47-8.18,8.31,8.31,0,0,0-9.68.68,10.18,10.18,0,0,0-4.06,7.44c-.11,3.65,2.66,7,5.9,8.51a9.23,9.23,0,0,0,9.24-.91A8.53,8.53,0,0,0,327.34,971.43Zm-7,3.11a5.68,5.68,0,0,1-5.79-1.92,4.76,4.76,0,0,1,.41-6.35,4.05,4.05,0,0,1,3.63-1.08,5.23,5.23,0,0,1,4.64,3.39A4.4,4.4,0,0,1,320.34,974.54Z" transform="translate(-73.64 -653.81)"/></g><path class="cls-15" d="M307.54,968.66c-27.15-9.48-54.63-18.43-82.43-25.79-9.65-2.55-19.33-5-29-7.67-1.78-.49-7-3.22-7.31,0-3.27,30.14,12.53,63.3,44.38,70.21,13.62,3,28.59,3,41.87-2,15.62-6,24.8-18.89,33.07-32.87A1.28,1.28,0,0,0,307.54,968.66Z" transform="translate(-73.64 -653.81)"/><path class="cls-16" d="M301.8,962.87c-27.15-9.47-54.63-18.43-82.43-25.79-9.65-2.55-19.33-5-29-7.67-1.78-.49-7-3.22-7.31.06-3.27,30.13,12.53,63.29,44.38,70.2,13.62,3,28.59,3,41.87-2,15.62-6,24.8-18.88,33.07-32.86A1.29,1.29,0,0,0,301.8,962.87Z" transform="translate(-73.64 -653.81)"/><path class="cls-17" d="M202.15,969.82C211,981.36,224.22,990,238.67,992c23.83,3.38,46.29-10.42,55.75-31.69-24.75-8.53-49.76-16.54-75.05-23.24-9.48-2.5-19-4.91-28.44-7.53C187.06,942.72,194.5,959.87,202.15,969.82Z" transform="translate(-73.64 -653.81)"/><path class="cls-16" d="M284.8,960.8a8.69,8.69,0,0,0-2.95-2.38c-3.93-2.23-27-12-27.31-1.08a21.92,21.92,0,0,0,.4,3.6,7.1,7.1,0,0,1-1,4.81,7.35,7.35,0,0,1-2.19,2.38c-4.43,2.84-12,.61-16-2a11.63,11.63,0,0,1-3.77-3.84c-2.51-4.47.63-7.77,3.66-10.81,1.85-1.87,2.09-4.26-.06-6.06s-5-2.68-7.52-3.5A212.52,212.52,0,0,0,206,935.81c-3.23-.67-6.94-1-7.79,2.93-3.27,15.15,8.48,30.89,19.89,38.39a53.54,53.54,0,0,0,46.06,5.62,36.46,36.46,0,0,0,5.66-2.47A39.14,39.14,0,0,0,284,967.1c1.07-1.71,2.13-4.28.94-6.15Z" transform="translate(-73.64 -653.81)"/><path class="cls-18" d="M221.86,947c-2.32.08-6.56-.3-7.7,2.24a1.19,1.19,0,0,0,.44,1.32c1,.89,2.41.56,3.6.35s2.58-.54,3.88-.76C223.82,949.82,223.68,946.89,221.86,947Z" transform="translate(-73.64 -653.81)"/><path class="cls-18" d="M220.5,956.2a12.42,12.42,0,0,0-3,2.66c-.87,1.16.55,2.35,1.67,1.93a12.88,12.88,0,0,0,3.41-2.21C224.17,957.34,222.12,955,220.5,956.2Z" transform="translate(-73.64 -653.81)"/><path class="cls-18" d="M229,968.26c.73-2.11-2.29-3-3.18-1.1-.68,1.49-2,3.43-1.52,5.13a1.42,1.42,0,0,0,2,1C228,972.3,228.43,970,229,968.26Z" transform="translate(-73.64 -653.81)"/><path class="cls-18" d="M241.74,974.58a1.55,1.55,0,0,0-2.93-1,14.15,14.15,0,0,0-.78,2.68,1.49,1.49,0,0,0,2.71.93A13.43,13.43,0,0,0,241.74,974.58Z" transform="translate(-73.64 -653.81)"/><path class="cls-18" d="M256,976.76a9.18,9.18,0,0,0-1.06-3.35c-.89-2.12-4.2-.51-3.19,1.58a8.53,8.53,0,0,0,1.55,2.7C254.15,978.49,256,978.27,256,976.76Z" transform="translate(-73.64 -653.81)"/><path class="cls-18" d="M264.84,970a10.85,10.85,0,0,0-3-2.07c-1.76-1.06-3.55,1.58-1.8,2.67a11.37,11.37,0,0,0,3.2,1.75A1.48,1.48,0,0,0,264.84,970Z" transform="translate(-73.64 -653.81)"/><path class="cls-18" d="M268.31,959.87c-1.71-.67-2.57,2-.92,2.71,1.27.55,2.43,1.29,3.67,1.88.8.37,2.19.85,2.66-.26C274.63,962.06,269.62,960.39,268.31,959.87Z" transform="translate(-73.64 -653.81)"/><path class="cls-13" d="M192.19,919.65a7,7,0,0,0,3.66,3.38,14.53,14.53,0,0,0,8.89.64,2.13,2.13,0,0,1,.4.29,12.46,12.46,0,0,0-.21,8.43,9.8,9.8,0,0,0,5.29,5.61,7.47,7.47,0,0,0,3.38.42c.34,0,3.31-.65,3.22-1.08.81,4,2.06,8.51,6,10.41a6.6,6.6,0,0,0,8.1-1.36c3.13,4,8.73,7.26,12.27,0C251.6,929,263,915.82,276.32,902.92c3.9-3.78,10.09-9.54,6.4-15.54-3.3-5.35-11.87-1.78-16.31-.16-7.71,2.82-14.92,6.93-22.77,9.35-8.28,2.56-16.93,2.49-25.48,3.22-7.13.6-14.94,1.72-21,5.87C192.68,908.73,189.42,914.31,192.19,919.65Z" transform="translate(-73.64 -653.81)"/><path class="cls-14" d="M233.68,935.33c-.33.62.63,1.07,1,.47a123.52,123.52,0,0,1,41.64-42.7c.35-.21,0-.72-.35-.52A108.74,108.74,0,0,0,233.68,935.33Z" transform="translate(-73.64 -653.81)"/><path class="cls-14" d="M207.81,912.71c5.39-2.24,10.77-2,16.46-2.61a95.41,95.41,0,0,0,15.44-3.05c2.16-.61,4.3-1.3,6.41-2-6.79,5.86-17.3,10.55-17.32,20.61a.31.31,0,0,0,.61,0c1.64-10.43,11.83-14.31,18.41-21.23a190.08,190.08,0,0,0,22.49-10c.43-.22.06-1-.38-.77a217.87,217.87,0,0,1-21.38,9.35.31.31,0,0,0-.41,0l-.14.14c-3.31,1.2-6.66,2.28-10.06,3.18a93.16,93.16,0,0,1-17.45,3c-4.32.3-9.38-.19-12.92,2.78C207.36,912.41,207.5,912.84,207.81,912.71Z" transform="translate(-73.64 -653.81)"/><path class="cls-14" d="M213.13,922.62c-.15.22.09.6.34.39,5.95-5,10.94-9.7,18.18-12.85.3-.13.15-.62-.17-.5C224.7,912.33,217.33,916.42,213.13,922.62Z" transform="translate(-73.64 -653.81)"/><path class="cls-10" d="M211.1,865.08a10.7,10.7,0,0,0-4.47-8.18,8.31,8.31,0,0,0-9.68.67,10.22,10.22,0,0,0-4.07,7.45c-.1,3.65,2.66,7.05,5.91,8.51a9.21,9.21,0,0,0,9.23-.92A8.51,8.51,0,0,0,211.1,865.08Z" transform="translate(-73.64 -653.81)"/><g class="cls-11"><path class="cls-12" d="M211.1,865.08a10.7,10.7,0,0,0-4.47-8.18,8.31,8.31,0,0,0-9.68.67,10.22,10.22,0,0,0-4.07,7.45c-.1,3.65,2.66,7.05,5.91,8.51a9.21,9.21,0,0,0,9.23-.92A8.51,8.51,0,0,0,211.1,865.08Zm-7,3.1a5.69,5.69,0,0,1-5.79-1.91,4.78,4.78,0,0,1,.42-6.35,4.09,4.09,0,0,1,3.63-1.09,5.24,5.24,0,0,1,4.64,3.4A4.4,4.4,0,0,1,204.09,868.18Z" transform="translate(-73.64 -653.81)"/></g><path class="cls-10" d="M282.86,860a10.76,10.76,0,0,0-4.48-8.18,8.3,8.3,0,0,0-9.67.68,10.16,10.16,0,0,0-4.07,7.45c-.11,3.65,2.66,7,5.91,8.51a9.24,9.24,0,0,0,9.23-.92A8.57,8.57,0,0,0,282.86,860Z" transform="translate(-73.64 -653.81)"/><g class="cls-11"><path class="cls-12" d="M282.86,860a10.76,10.76,0,0,0-4.48-8.18,8.3,8.3,0,0,0-9.67.68,10.16,10.16,0,0,0-4.07,7.45c-.11,3.65,2.66,7,5.91,8.51a9.24,9.24,0,0,0,9.23-.92A8.57,8.57,0,0,0,282.86,860Zm-7,3.11a5.68,5.68,0,0,1-5.79-1.92,4.75,4.75,0,0,1,.41-6.34,4.1,4.1,0,0,1,3.64-1.09,5.23,5.23,0,0,1,4.63,3.4A4.4,4.4,0,0,1,275.85,863.12Z" transform="translate(-73.64 -653.81)"/></g><path class="cls-10" d="M292.9,811.54a10.7,10.7,0,0,0-4.47-8.18,8.31,8.31,0,0,0-9.68.67,10.24,10.24,0,0,0-4.07,7.45c-.1,3.65,2.66,7,5.91,8.51a9.21,9.21,0,0,0,9.23-.92A8.51,8.51,0,0,0,292.9,811.54Z" transform="translate(-73.64 -653.81)"/><g class="cls-11"><path class="cls-12" d="M292.9,811.54a10.7,10.7,0,0,0-4.47-8.18,8.31,8.31,0,0,0-9.68.67,10.24,10.24,0,0,0-4.07,7.45c-.1,3.65,2.66,7,5.91,8.51a9.21,9.21,0,0,0,9.23-.92A8.51,8.51,0,0,0,292.9,811.54Zm-7,3.1a5.69,5.69,0,0,1-5.79-1.91,4.78,4.78,0,0,1,.42-6.35,4.09,4.09,0,0,1,3.63-1.09,5.24,5.24,0,0,1,4.64,3.4A4.39,4.39,0,0,1,285.89,814.64Z" transform="translate(-73.64 -653.81)"/></g><path class="cls-10" d="M332.34,796.75a10.72,10.72,0,0,0-4.47-8.18,8.33,8.33,0,0,0-9.68.67,10.26,10.26,0,0,0-4.07,7.45c-.1,3.65,2.66,7,5.91,8.51a9.21,9.21,0,0,0,9.23-.91A8.54,8.54,0,0,0,332.34,796.75Z" transform="translate(-73.64 -653.81)"/><g class="cls-11"><path class="cls-12" d="M332.34,796.75a10.72,10.72,0,0,0-4.47-8.18,8.33,8.33,0,0,0-9.68.67,10.26,10.26,0,0,0-4.07,7.45c-.1,3.65,2.66,7,5.91,8.51a9.21,9.21,0,0,0,9.23-.91A8.54,8.54,0,0,0,332.34,796.75Zm-7,3.11a5.71,5.71,0,0,1-5.79-1.92,4.79,4.79,0,0,1,.41-6.35,4.08,4.08,0,0,1,3.64-1.08,5.23,5.23,0,0,1,4.64,3.39A4.41,4.41,0,0,1,325.33,799.86Z" transform="translate(-73.64 -653.81)"/></g><path class="cls-10" d="M358.92,857.36a10.76,10.76,0,0,0-4.48-8.18,8.31,8.31,0,0,0-9.67.67,10.19,10.19,0,0,0-4.07,7.45c-.11,3.65,2.66,7.05,5.91,8.51a9.21,9.21,0,0,0,9.23-.91A8.57,8.57,0,0,0,358.92,857.36Z" transform="translate(-73.64 -653.81)"/><g class="cls-11"><path class="cls-12" d="M358.92,857.36a10.76,10.76,0,0,0-4.48-8.18,8.31,8.31,0,0,0-9.67.67,10.19,10.19,0,0,0-4.07,7.45c-.11,3.65,2.66,7.05,5.91,8.51a9.21,9.21,0,0,0,9.23-.91A8.57,8.57,0,0,0,358.92,857.36Zm-7,3.11a5.7,5.7,0,0,1-5.79-1.92,4.76,4.76,0,0,1,.41-6.35,4.06,4.06,0,0,1,3.64-1.08,5.23,5.23,0,0,1,4.63,3.39A4.4,4.4,0,0,1,351.91,860.47Z" transform="translate(-73.64 -653.81)"/></g><path class="cls-10" d="M323.4,917a10.76,10.76,0,0,0-4.48-8.18,8.3,8.3,0,0,0-9.67.68,10.16,10.16,0,0,0-4.07,7.44c-.11,3.65,2.66,7.05,5.91,8.51a9.21,9.21,0,0,0,9.23-.91A8.57,8.57,0,0,0,323.4,917Z" transform="translate(-73.64 -653.81)"/><g class="cls-11"><path class="cls-12" d="M323.4,917a10.76,10.76,0,0,0-4.48-8.18,8.3,8.3,0,0,0-9.67.68,10.16,10.16,0,0,0-4.07,7.44c-.11,3.65,2.66,7.05,5.91,8.51a9.21,9.21,0,0,0,9.23-.91A8.57,8.57,0,0,0,323.4,917Zm-7,3.11a5.7,5.7,0,0,1-5.79-1.92,4.76,4.76,0,0,1,.41-6.35,4.05,4.05,0,0,1,3.63-1.08,5.23,5.23,0,0,1,4.64,3.39A4.4,4.4,0,0,1,316.39,920.1Z" transform="translate(-73.64 -653.81)"/></g><path class="cls-10" d="M259.53,912.65a10.72,10.72,0,0,0-4.47-8.18,8.33,8.33,0,0,0-9.68.67,10.22,10.22,0,0,0-4.06,7.45c-.11,3.65,2.66,7,5.9,8.51a9.21,9.21,0,0,0,9.23-.91A8.52,8.52,0,0,0,259.53,912.65Z" transform="translate(-73.64 -653.81)"/><g class="cls-11"><path class="cls-12" d="M259.53,912.65a10.72,10.72,0,0,0-4.47-8.18,8.33,8.33,0,0,0-9.68.67,10.22,10.22,0,0,0-4.06,7.45c-.11,3.65,2.66,7,5.9,8.51a9.21,9.21,0,0,0,9.23-.91A8.52,8.52,0,0,0,259.53,912.65Zm-7,3.11a5.72,5.72,0,0,1-5.8-1.92,4.78,4.78,0,0,1,.42-6.35,4.05,4.05,0,0,1,3.63-1.08,5.23,5.23,0,0,1,4.64,3.39A4.4,4.4,0,0,1,252.53,915.76Z" transform="translate(-73.64 -653.81)"/></g><path class="cls-10" d="M378.29,801.65a10.73,10.73,0,0,0-4.48-8.18,8.31,8.31,0,0,0-9.67.67,10.23,10.23,0,0,0-4.07,7.45c-.1,3.65,2.66,7,5.91,8.51a9.21,9.21,0,0,0,9.23-.91A8.54,8.54,0,0,0,378.29,801.65Z" transform="translate(-73.64 -653.81)"/><g class="cls-11"><path class="cls-12" d="M378.29,801.65a10.73,10.73,0,0,0-4.48-8.18,8.31,8.31,0,0,0-9.67.67,10.23,10.23,0,0,0-4.07,7.45c-.1,3.65,2.66,7,5.91,8.51a9.21,9.21,0,0,0,9.23-.91A8.54,8.54,0,0,0,378.29,801.65Zm-7,3.11a5.71,5.71,0,0,1-5.79-1.92,4.79,4.79,0,0,1,.41-6.35,4.07,4.07,0,0,1,3.64-1.08,5.25,5.25,0,0,1,4.64,3.39A4.41,4.41,0,0,1,371.28,804.76Z" transform="translate(-73.64 -653.81)"/></g><path class="cls-19" d="M245,845.63c-4-19.53-18.91-33.45-38-37.84-15.27-3.52-32.77-3-45.94,6.39-15.43,11-21.17,30.43-18.65,48.8,4.08,29.86,29.9,50.4,59.74,46.12C232.25,904.78,251.1,875.26,245,845.63Zm-40.92,57.28c-26.1,5.53-50.38-11.15-55.68-37.3-2.45-12.13-.74-25.23,5.44-36,19.07-33.15,74.63-19.93,84.47,14.32C245.66,869.62,230.19,897.37,204.06,902.91Z" transform="translate(-73.64 -653.81)"/><path class="cls-19" d="M404.92,769a1.44,1.44,0,0,0-2,.48,4.24,4.24,0,0,0-.4,2.45,48.17,48.17,0,0,1-12.7,33.85,44.52,44.52,0,0,1-33,14,42.12,42.12,0,0,1-31.94-16,45.49,45.49,0,0,1-9.08-23.76,57.47,57.47,0,0,1,3.71-25.32c.15-.39-1.76-.64-2-.66-1.32-.18-1.9-.14-2.49,1.19a51.78,51.78,0,0,0-4.51,24.17,48.27,48.27,0,0,0,39.64,45A47.52,47.52,0,0,0,405.36,770a1.86,1.86,0,0,0-.31-.89A.93.93,0,0,0,404.92,769Z" transform="translate(-73.64 -653.81)"/><path class="cls-19" d="M262.12,725.58a1.64,1.64,0,0,0-.43,2.23,4.67,4.67,0,0,0,2.26,1.53,52.85,52.85,0,0,1,28,28.47,50.33,50.33,0,0,1-1.14,39.94,46.86,46.86,0,0,1-30.63,25.1,49.43,49.43,0,0,1-27.92-1.72,62.34,62.34,0,0,1-23.58-15.42c-.33-.33-1.45,1.5-1.57,1.69-.79,1.26-1,1.87,0,3.08a56.62,56.62,0,0,0,22.07,15.7,53.11,53.11,0,0,0,21,3.68,53.38,53.38,0,0,0,48.44-71.31,53.2,53.2,0,0,0-35.23-32.93,2.06,2.06,0,0,0-1-.11Z" transform="translate(-73.64 -653.81)"/><path class="cls-19" d="M268.56,937.87a1.44,1.44,0,0,0,2-.26,4.34,4.34,0,0,0,.66-2.39,48,48,0,0,1,16.14-32.33,44.47,44.47,0,0,1,34.24-10.47,42.21,42.21,0,0,1,30.1,19.25,45.48,45.48,0,0,1,6.55,24.59A57.16,57.16,0,0,1,351.93,961c-.18.38,1.69.82,1.89.87,1.29.32,1.87.34,2.6-.92a51.78,51.78,0,0,0,7-23.56,48.36,48.36,0,0,0-34.73-48.94,47.43,47.43,0,0,0-60.46,48.3,2,2,0,0,0,.21.93A1,1,0,0,0,268.56,937.87Z" transform="translate(-73.64 -653.81)"/><path class="cls-15" d="M314.18,847.08q-.78.38-1.5.78c-10.5,5.89-9.73,18.15-7.75,28.67,1.93,10.25,5.95,20,10,29.53,4.43,10.34,9.63,23.89,18.11,31.68,4.87,4.47,7.17-8.62,7.64-11a185.8,185.8,0,0,0,2.84-19.92c1.4-16,1.27-33-2.47-48.73C337.9,844.76,325.94,841.41,314.18,847.08Z" transform="translate(-73.64 -653.81)"/><path class="cls-20" d="M308.44,841.29q-.78.38-1.5.78c-10.5,5.89-9.73,18.15-7.75,28.67,1.93,10.26,5.95,20,10,29.53,4.43,10.34,9.63,23.89,18.11,31.68,4.87,4.47,7.17-8.62,7.64-11a185.8,185.8,0,0,0,2.84-19.92c1.4-16,1.27-33-2.47-48.72C332.16,839,320.2,835.62,308.44,841.29Z" transform="translate(-73.64 -653.81)"/><path class="cls-21" d="M335.34,852.33c-3.18-13.36-15.14-16.71-26.9-11q-.78.38-1.5.78c-10.5,5.89-9.73,18.15-7.75,28.67,1.93,10.26,5.95,20,10,29.53,4.43,10.34,9.63,23.89,18.11,31.68,4.87,4.47,7.17-8.62,7.64-11a185.8,185.8,0,0,0,2.84-19.92C339.21,885,339.08,868,335.34,852.33ZM320.75,913c-5.12-2.54-8.87-13-11.38-19.93a128.33,128.33,0,0,1-7-26.26c-.84-6.13-.52-13.89,3-19.25,2.9-4.48,10.6-6.6,15.41-2.92,4.29,3.3,5.14,10,5.94,13.8C328.59,867.29,331.23,918.23,320.75,913Z" transform="translate(-73.64 -653.81)"/><path class="cls-22" d="M309.5,848.49c-3.24,4.49-3.18,9.68-3.19,15.07,0,4.84-.65,11.72,2.83,15.45a1.54,1.54,0,0,0,2.62-.36c1.77-3.76.37-8,.1-12.06-.36-5.18-1.16-11.27,1-16.17A2,2,0,0,0,309.5,848.49Z" transform="translate(-73.64 -653.81)"/><path class="cls-22" d="M314.11,884.85c-.55-2.38-4.19-2-3.8.53.26,1.67.85,6.33,3.57,5.7S314.45,886.32,314.11,884.85Z" transform="translate(-73.64 -653.81)"/><path class="cls-22" d="M316.4,895.27a1.22,1.22,0,1,0-2.33.65c.69,2.41,1.21,4.77,3,6.58.23.24.76.21.78-.21C318,899.8,317,897.67,316.4,895.27Z" transform="translate(-73.64 -653.81)"/><path class="cls-23" d="M169.51,916a12,12,0,0,0-7.18-4.06c-4.42-.82-9.08,1.09-12.18,4.25a12.72,12.72,0,0,0-2.5,13.46,12,12,0,0,0,18,5.13C171.51,930.6,174.3,922.05,169.51,916Zm-6.46,9.18a5,5,0,0,1-.29.85,4.33,4.33,0,0,1-2.07,2.07,2.82,2.82,0,0,1-3.87-1.07c-.83-1.61-1.08-4.9.78-6.08a4.32,4.32,0,0,1,3.73-.21C163.11,921.56,163.39,923.68,163.05,925.22Z" transform="translate(-73.64 -653.81)"/><path class="cls-23" d="M311.58,820.54a12,12,0,0,0-7.18-4.07c-4.42-.82-9.07,1.1-12.18,4.26a12.71,12.71,0,0,0-2.49,13.46,12,12,0,0,0,18,5.12C313.59,835.1,316.37,826.54,311.58,820.54Zm-6.46,9.18a3.71,3.71,0,0,1-.29.85,4.29,4.29,0,0,1-2.07,2.07,2.83,2.83,0,0,1-3.87-1.07c-.82-1.62-1.08-4.9.79-6.08a4.35,4.35,0,0,1,3.73-.22C305.19,826.06,305.46,828.18,305.12,829.72Z" transform="translate(-73.64 -653.81)"/><path class="cls-23" d="M302.61,902.63a12,12,0,0,0-7.18-4.07c-4.42-.82-9.07,1.09-12.18,4.25a12.73,12.73,0,0,0-2.5,13.47,12,12,0,0,0,18,5.12C304.61,917.18,307.4,908.63,302.61,902.63Zm-6.46,9.18a4.49,4.49,0,0,1-.29.85,4.33,4.33,0,0,1-2.07,2.07,2.83,2.83,0,0,1-3.87-1.08c-.83-1.61-1.08-4.89.79-6.08a4.37,4.37,0,0,1,3.72-.21C296.22,908.15,296.49,910.27,296.15,911.81Z" transform="translate(-73.64 -653.81)"/><path class="cls-13" d="M244.19,786.84c-1.75-1.84-5.28-6.14-8.4-5.58-3.41.62-3,5.64-3.62,8.12-2.65,10.36-11,.74-16-.51-2.74-.67-6.31,0-7.41,3-.88,2.37.5,4.72,1.75,6.64.9,1.39,2.86,3.4,2.88,5.17.06,4.85-6.57,2.75-9,2.88-7.41.37-8.88,9.44-2.95,13.3a22.32,22.32,0,0,0,4.65,1.88c1.2.44,4.12,1.13,3.77,3.13a31,31,0,0,0-2.86,1.6c-2.51,1.76-4.76,4.4-4.56,7.7.53,8.67,12.16,5.1,17.14,4.28,8-1.33,13.91.52,19.49,6.39,4.18,4.4,8.31,8.51,13.58,11.63,3.16,1.88,7.21,3.78,10.94,2.42a5.81,5.81,0,0,0,4-4.8,14.18,14.18,0,0,0-.53-4.52c-2.42-10.55-4.65-21.17-7.46-31.63C256.53,806.81,252.22,795.36,244.19,786.84Z" transform="translate(-73.64 -653.81)"/><path class="cls-14" d="M237.4,823.42c-6.35-6.18-15.79-7.28-24-9.58a.44.44,0,0,0-.33.81c3.21,1.71,6.85,2.31,10.34,3.19,5.45,1.36,10.17,3.29,14.16,7.4a100,100,0,0,1,9.24,11.86c1.42,2,2.8,4,4.18,6.1.51.74,1.62,3,2.69,4.72-.74-.93-1.48-1.88-1.76-2.18-1.3-1.4-2.59-2.8-3.94-4.14a61.32,61.32,0,0,0-10.75-8.8,31.81,31.81,0,0,0-20.72-5,.43.43,0,0,0,.1.85c16.7-1.42,29.57,11.11,39.72,22.82a.3.3,0,0,0,.48-.36C251.39,841.54,245.34,831.14,237.4,823.42Z" transform="translate(-73.64 -653.81)"/><path class="cls-14" d="M244,820.37c-7.5-8.4-16.62-15.47-25.35-22.51-.35-.28-.74.26-.42.55,8.27,7.52,17.32,14.36,24.86,22.65,8.15,8.94,13.29,19.5,18.1,30.53.18.4.8.15.63-.25C257.21,840.47,251.94,829.23,244,820.37Z" transform="translate(-73.64 -653.81)"/><path class="cls-14" d="M244.66,801.79c-.29-.28-.81.12-.63.48a83.1,83.1,0,0,1,7.44,18.88c1.44,6,2.7,11.92,5.21,17.55.25.55,1.11.21.87-.35-3-6.84-4.12-14.21-5.86-21.42C250.4,811.62,248.73,805.63,244.66,801.79Z" transform="translate(-73.64 -653.81)"/><path class="cls-15" d="M204.9,754.4c-.55-.18-1.09-.33-1.62-.47-11.66-2.94-19.41,6.54-25.1,15.58-5.55,8.81-9.22,18.68-12.71,28.46-3.79,10.59-9.19,24.07-8.28,35.6.52,6.62,11.08-1.34,13-2.74a182.62,182.62,0,0,0,15.58-12.58C197.68,807.52,209.11,795,217,781,223.78,769.07,217.33,758.37,204.9,754.4Z" transform="translate(-73.64 -653.81)"/><path class="cls-20" d="M199.16,748.61c-.55-.17-1.09-.33-1.62-.46-11.66-2.95-19.41,6.53-25.1,15.57-5.55,8.81-9.22,18.68-12.71,28.46-3.79,10.59-9.19,24.07-8.28,35.6.52,6.62,11.08-1.34,13-2.74a180.71,180.71,0,0,0,15.58-12.58c11.89-10.73,23.32-23.21,31.25-37.25C218,763.28,211.59,752.58,199.16,748.61Z" transform="translate(-73.64 -653.81)"/><path class="cls-21" d="M211.3,775.21c6.74-11.93.29-22.63-12.14-26.6-.55-.17-1.09-.33-1.62-.46-11.66-2.95-19.41,6.53-25.1,15.57-5.55,8.81-9.22,18.68-12.71,28.46-3.79,10.59-9.19,24.07-8.28,35.6.52,6.62,11.08-1.34,13-2.74a180.71,180.71,0,0,0,15.58-12.58C191.94,801.73,203.37,789.25,211.3,775.21Zm-51.8,34.21c-2-5.39,2.38-15.63,5.22-22.39a127.08,127.08,0,0,1,12.71-24c3.54-5,9-10.49,15.22-12,5.16-1.26,12.21,2.5,13.22,8.5.9,5.36-3.05,10.87-5,14.17C196.23,781.47,163.6,820.46,159.5,809.42Z" transform="translate(-73.64 -653.81)"/><path class="cls-22" d="M195.05,754.59c-5.41,1-8.89,4.88-12.55,8.8-3.29,3.52-8.43,8.1-8.42,13.23a1.56,1.56,0,0,0,2.16,1.54c3.84-1.52,5.72-5.6,8.25-8.74,3.26-4,6.8-9,11.69-11.11A2,2,0,0,0,195.05,754.59Z" transform="translate(-73.64 -653.81)"/><path class="cls-22" d="M173.75,784.3c1.21-2.11-1.72-4.33-3.13-2.23-.94,1.4-3.67,5.21-1.27,6.62S173,785.61,173.75,784.3Z" transform="translate(-73.64 -653.81)"/><path class="cls-22" d="M168.35,793.48a1.22,1.22,0,1,0-2.14-1.13c-1.13,2.23-2.35,4.32-2.28,6.87,0,.33.42.68.72.38C166.41,797.85,167.17,795.65,168.35,793.48Z" transform="translate(-73.64 -653.81)"/><path class="cls-23" d="M211.84,822a12,12,0,0,0-7.18-4.07c-4.42-.82-9.07,1.09-12.18,4.26A12.71,12.71,0,0,0,190,835.64a12,12,0,0,0,18,5.12C213.85,836.55,216.63,828,211.84,822Zm-6.46,9.18a3.88,3.88,0,0,1-.29.85,4.29,4.29,0,0,1-2.07,2.07,2.84,2.84,0,0,1-3.87-1.08c-.82-1.61-1.08-4.89.79-6.08a4.39,4.39,0,0,1,3.73-.21C205.45,827.51,205.72,829.63,205.38,831.17Z" transform="translate(-73.64 -653.81)"/><path class="cls-23" d="M263.65,872.27a12,12,0,0,0-7.18-4.07c-4.42-.82-9.07,1.1-12.18,4.26a12.71,12.71,0,0,0-2.49,13.46,12,12,0,0,0,18,5.12C265.66,886.83,268.45,878.27,263.65,872.27Zm-6.46,9.18a3.88,3.88,0,0,1-.29.85,4.25,4.25,0,0,1-2.07,2.07A2.84,2.84,0,0,1,251,883.3c-.82-1.62-1.08-4.9.79-6.09a4.39,4.39,0,0,1,3.73-.21C257.26,877.79,257.53,879.91,257.19,881.45Z" transform="translate(-73.64 -653.81)"/><path class="cls-23" d="M331.82,764.47a12,12,0,0,0-7.18-4.07c-4.42-.82-9.07,1.09-12.18,4.26a12.73,12.73,0,0,0-2.5,13.46,12,12,0,0,0,18,5.12C333.83,779,336.61,770.47,331.82,764.47Zm-6.46,9.18a3.88,3.88,0,0,1-.29.85,4.29,4.29,0,0,1-2.07,2.07,2.83,2.83,0,0,1-3.87-1.08c-.82-1.61-1.08-4.89.79-6.08a4.39,4.39,0,0,1,3.73-.21C325.43,770,325.7,772.11,325.36,773.65Z" transform="translate(-73.64 -653.81)"/></g></g></g></svg>