<?xml version="1.0" encoding="utf-8"?>
<!-- Generator: Adobe Illustrator 22.0.0, SVG Export Plug-In . SVG Version: 6.00 Build 0)  -->
<svg version="1.1" id="Layer_1" xmlns="http://www.w3.org/2000/svg" xmlns:xlink="http://www.w3.org/1999/xlink" x="0px" y="0px"
	 viewBox="0 0 1041.8 133.9" style="enable-background:new 0 0 1041.8 133.9;" xml:space="preserve">
<style type="text/css">
	.st0{display:none;}
	.st1{display:inline;fill:#F05F37;}
	.st2{display:inline;fill:#DAD731;}
	.st3{display:inline;fill:#E1C962;}
	.st4{display:inline;fill:#F28727;}
	.st5{display:inline;fill:#ECD975;}
	.st6{display:inline;fill:#A3C734;}
	.st7{display:inline;fill:#EAD96D;}
	.st8{display:inline;fill:#DDAE63;}
	.st9{display:inline;fill:#DCC36C;}
	.st10{fill:#CDE1E8;}
	.st11{fill:#DCC36C;}
	.st12{fill:#9DD5E9;stroke:#7C7C7C;stroke-miterlimit:10;}
	.st13{fill:#3F5FFC;}
	.st14{fill:#ABB9ED;}
	.st15{fill:#607EEA;}
</style>
<g id="Capa_3">
	<g>
		<g class="st0">
			<polygon class="st1" points="538.6,-371.1 437.6,-371.1 484.6,-440.1 			"/>
		</g>
		<g class="st0">
			<polygon class="st2" points="603.6,-292.1 378.6,-292.1 431.6,-364.1 542.6,-364.1 			"/>
			<path class="st3" d="M545.6-359.9H429.5c-3.3,0-5.9-2.7-5.9-5.9v-1.3c0-3.3,2.7-5.9,5.9-5.9h116.1c3.3,0,5.9,2.7,5.9,5.9v1.3
				C551.6-362.6,548.9-359.9,545.6-359.9z"/>
		</g>
		<g class="st0">
			<polygon class="st4" points="690.6,-205.1 303.6,-205.1 371.6,-285.1 611.6,-285.1 			"/>
			<path class="st5" d="M615-280.6H368.1c-3.6,0-6.6-2.9-6.6-6.6v-8c0-3.6,2.9-6.6,6.6-6.6h246.8c3.6,0,6.6,2.9,6.6,6.6v8
				C621.6-283.6,618.6-280.6,615-280.6z"/>
		</g>
		<g class="st0">
			<polygon class="st6" points="793.6,-102.1 211.6,-102.1 292.6,-193.1 701.6,-193.1 			"/>
			<path class="st7" d="M705.1-187.8H292c-4.1,0-7.5-3.3-7.5-7.5v-9.1c0-4.1,3.3-7.5,7.5-7.5h413.1c4.1,0,7.5,3.3,7.5,7.5v9.1
				C712.6-191.1,709.2-187.8,705.1-187.8z"/>
		</g>
		<g class="st0">
			<polygon class="st8" points="905.6,9.9 113.6,9.9 197.6,-88.1 809.6,-88.1 			"/>
			<path class="st9" d="M811.4-82.8H191.7c-4.5,0-8.1-3.6-8.1-8.1v-9.9c0-4.5,3.6-8.1,8.1-8.1h619.8c4.5,0,8.1,3.6,8.1,8.1v9.9
				C819.6-86.4,815.9-82.8,811.4-82.8z"/>
		</g>
		<g>
			<polygon class="st10" points="1041.8,133.9 0,133.9 97.6,24.9 923.6,24.9 			"/>
			<path class="st11" d="M927.6,31h-835c-5,0-9-4-9-9V11.1c0-5,4-9,9-9h835c5,0,9,4,9,9V22C936.6,27,932.5,31,927.6,31z"/>
		</g>
	</g>
</g>
<g id="Capa_4">
	<g>
		<g>
			<path class="st12" d="M130.1,52.1v-4.8h-17.7v4.8c-5,0.6-8.8,4.8-8.8,9.9v50.7c0,5.5,4.5,10,10,10h15.3c5.5,0,10-4.5,10-10V62
				C139,56.9,135.1,52.6,130.1,52.1z"/>
			<rect x="112" y="42.5" class="st13" width="18.6" height="8.3"/>
			<rect x="103.6" y="74.4" class="st14" width="35.4" height="20.6"/>
			<path class="st15" d="M124.2,86.1c0,2.5-1.6,4.5-3.5,4.5c-2,0-3.5-2-3.5-4.5s3.7-7.9,3.7-7.9S124.2,83.6,124.2,86.1z"/>
		</g>
		<g>
			<path class="st12" d="M237.9,53.7v-4.8h-17.7v4.8c-5,0.6-8.8,4.8-8.8,9.9v50.7c0,5.5,4.5,10,10,10h15.3c5.5,0,10-4.5,10-10V63.6
				C246.7,58.5,242.8,54.2,237.9,53.7z"/>
			<rect x="219.7" y="44.2" class="st13" width="18.6" height="8.3"/>
			<rect x="211.3" y="76" class="st14" width="35.4" height="20.6"/>
			<path class="st15" d="M232,87.7c0,2.5-1.6,4.5-3.5,4.5c-2,0-3.5-2-3.5-4.5s3.7-7.9,3.7-7.9S232,85.2,232,87.7z"/>
		</g>
		<g>
			<path class="st12" d="M356.8,53.7v-4.8h-17.7v4.8c-5,0.6-8.8,4.8-8.8,9.9v50.7c0,5.5,4.5,10,10,10h15.4c5.5,0,10-4.5,10-10V63.6
				C365.7,58.5,361.8,54.2,356.8,53.7z"/>
			<rect x="338.7" y="44.2" class="st13" width="18.6" height="8.3"/>
			<rect x="330.3" y="76" class="st14" width="35.4" height="20.6"/>
			<path class="st15" d="M350.9,87.7c0,2.5-1.6,4.5-3.5,4.5c-2,0-3.5-2-3.5-4.5s3.7-7.9,3.7-7.9S350.9,85.2,350.9,87.7z"/>
		</g>
		<g>
			<path class="st12" d="M479,55.3v-4.8h-17.7v4.8c-5,0.6-8.8,4.8-8.8,9.9v50.7c0,5.5,4.5,10,10,10h15.3c5.5,0,10-4.5,10-10V65.2
				C487.9,60.1,484,55.9,479,55.3z"/>
			<rect x="460.9" y="45.8" class="st13" width="18.6" height="8.3"/>
			<rect x="452.5" y="77.6" class="st14" width="35.4" height="20.6"/>
			<path class="st15" d="M473.1,89.3c0,2.5-1.6,4.5-3.5,4.5c-2,0-3.5-2-3.5-4.5s3.7-7.9,3.7-7.9S473.1,86.8,473.1,89.3z"/>
		</g>
		<g>
			<path class="st12" d="M617.3,55.3v-4.8h-17.7v4.8c-5,0.6-8.8,4.8-8.8,9.9v50.7c0,5.5,4.5,10,10,10h15.3c5.5,0,10-4.5,10-10V65.2
				C626.1,60.1,622.3,55.9,617.3,55.3z"/>
			<rect x="599.2" y="45.8" class="st13" width="18.6" height="8.3"/>
			<rect x="590.8" y="77.6" class="st14" width="35.4" height="20.6"/>
			<path class="st15" d="M611.4,89.3c0,2.5-1.6,4.5-3.5,4.5s-3.5-2-3.5-4.5s3.7-7.9,3.7-7.9S611.4,86.8,611.4,89.3z"/>
		</g>
		<g>
			<path class="st12" d="M762,55.3v-4.8h-17.7v4.8c-5,0.6-8.8,4.8-8.8,9.9v50.7c0,5.5,4.5,10,10,10h15.3c5.5,0,10-4.5,10-10V65.2
				C770.8,60.1,767,55.9,762,55.3z"/>
			<rect x="743.9" y="45.8" class="st13" width="18.6" height="8.3"/>
			<rect x="735.5" y="77.6" class="st14" width="35.4" height="20.6"/>
			<path class="st15" d="M756.1,89.3c0,2.5-1.6,4.5-3.5,4.5s-3.5-2-3.5-4.5s3.7-7.9,3.7-7.9S756.1,86.8,756.1,89.3z"/>
		</g>
		<g>
			<path class="st12" d="M892.2,53.7v-4.8h-17.7v4.8c-5,0.6-8.8,4.8-8.8,9.9v50.7c0,5.5,4.5,10,10,10H891c5.5,0,10-4.5,10-10V63.6
				C901.1,58.5,897.2,54.2,892.2,53.7z"/>
			<rect x="874.1" y="44.2" class="st13" width="18.6" height="8.3"/>
			<rect x="865.7" y="76" class="st14" width="35.4" height="20.6"/>
			<path class="st15" d="M886.3,87.7c0,2.5-1.6,4.5-3.5,4.5c-2,0-3.5-2-3.5-4.5s3.7-7.9,3.7-7.9S886.3,85.2,886.3,87.7z"/>
		</g>
	</g>
</g>
</svg>
