<svg xmlns="http://www.w3.org/2000/svg" viewBox="0 0 425.35 417.41"><defs><style>.cls-1{isolation:isolate;}.cls-2{fill:#c4c5ae;opacity:0.5;}.cls-2,.cls-5{mix-blend-mode:multiply;}.cls-3{fill:#efefef;}.cls-4,.cls-5{fill:#eaebe3;}.cls-6{fill:#f49294;}.cls-7{fill:#f17171;}.cls-8{fill:#fff;}.cls-9{fill:#ffeb33;}.cls-10{fill:#ff6700;}.cls-11{fill:#59823a;}.cls-12{fill:#b5a299;}.cls-13{fill:#d1bfb8;}.cls-14{fill:#82a862;}</style></defs><title>Almuerso</title><g class="cls-1"><g id="Capa_3" data-name="Capa 3"><g id="Almuerzo"><circle class="cls-2" cx="214.47" cy="221.21" r="196.2"/><circle class="cls-3" cx="196.2" cy="196.2" r="196.2"/><circle class="cls-4" cx="196.2" cy="196.2" r="145.23"/><path class="cls-5" d="M779.51,864.38a145.19,145.19,0,0,1,245.18-105.31A145.19,145.19,0,1,0,810.36,953.81,144.55,144.55,0,0,1,779.51,864.38Z" transform="translate(-714.11 -652.31)"/><path class="cls-6" d="M956.58,792.2c-.94,14.07.95,28.13-14.24,34.21-25.76,10.3-59.67,14.28-87.13,13.94-22.61-.29-45.59-5.08-67.57-10.25-13-3.05-30.48-7.72-37.95-19.87-7.81-12.7-5.7-30.08-.19-43.09Z" transform="translate(-714.11 -652.31)"/><path class="cls-7" d="M955.51,799.93c12.55-21.39-13.42-36.92-29-39.62-9.38-1.62-18.46-2.63-27.63-5.69-17.76-5.91-34.13-16.12-49.34-27.79-12.18-9.35-23.41-12.22-36.82-3.79-11.06,6.94-18.6,19.58-29.78,26-9.74,5.6-21.57,3.58-31,10.35-15,10.74-6.51,27.71,5.64,36.21,20.81,14.56,47.89,15.43,71.66,16.7,22.71,1.21,45.15,4.68,67.8,6.3C915.54,819.92,943.86,819.8,955.51,799.93Z" transform="translate(-714.11 -652.31)"/><path class="cls-8" d="M813,781.39c1.5-7.85-22.64-15.15-28.09-14.75-7.14.51-14.83,4.36-11.5,12.69,3.69,9.23,20,8.76,27.8,7.5C804.11,786.35,812.18,785.4,813,781.39Z" transform="translate(-714.11 -652.31)"/><path class="cls-6" d="M835.09,765.15c-8.39-1.49-31.82,2.72-27.36-12.53,3.2-11,18.25-17.64,28.56-14.25C852,743.55,857.49,769.15,835.09,765.15Z" transform="translate(-714.11 -652.31)"/><path class="cls-6" d="M838.3,804.65c-9.75.06-21.35-5.7-18.64-17.37,2.38-10.28,11.64-10.36,20-11.34,8.9-1.06,16.18-6.22,22.3-12.49,11.45-11.71,19.31-1.91,31,5.65,11.06,7.13,19.52,16.62,5.06,27C883.09,806.81,855.93,804.54,838.3,804.65Z" transform="translate(-714.11 -652.31)"/><path class="cls-6" d="M905.79,805.46c3.35-5.86,9.71-8.18,13.25-13.7s1.2-8.36,1.37-14.19c12.23-2.18,22.88,2.75,23,16.47,0,8.69-6.15,13.12-14.15,14.38-5.25.83-18.42,1.51-23.44-2.22Z" transform="translate(-714.11 -652.31)"/><path class="cls-6" d="M783.33,777.07c-3.15,4.23,13.54,8.29,18.7,5.33,9.63-5.53-11.6-9-15.66-7.3A7,7,0,0,0,783.33,777.07Z" transform="translate(-714.11 -652.31)"/><path class="cls-8" d="M839.41,777.46c10.4-.31,17.23-6.16,26.51-9.8,4.65-1.83,9.2-3,14.15-1.66,4.59,1.23,8,6.2,12.38,7.18,9.79,2.21,3.09-8.18-1.61-11.63-6.51-4.78-16.52-6.67-24-3.86-9.7,3.62-18.26,13-26.66,19Z" transform="translate(-714.11 -652.31)"/><path class="cls-8" d="M829.83,765.2c-7.86-5-26.08-12.68-14.08-24.32-8,1.73-15.86,10.74-12.44,19.46,4.47,11.39,25.47,8.2,33.89,4.86Z" transform="translate(-714.11 -652.31)"/><path class="cls-8" d="M919.73,792.2c.12,5-20.45,7.79-22.91,15.47,8,9,26.25.24,35.95,1.51-6.49-2.16-14.14-.14-20.28-3.11-2.52-4.82.76-8.66,5-10.92Z" transform="translate(-714.11 -652.31)"/><path class="cls-9" d="M1076,920.7a1.55,1.55,0,0,1-2,1.07,1.91,1.91,0,0,1-1.46-2.06,1.55,1.55,0,0,1,2.06-1.06A1.89,1.89,0,0,1,1076,920.7Z" transform="translate(-714.11 -652.31)"/><circle class="cls-10" cx="949.57" cy="897.93" r="126.13" transform="translate(-706.52 1151.51) rotate(-87.28)"/><circle class="cls-11" cx="949.57" cy="897.93" r="104.48" transform="translate(-771.76 1078.37) rotate(-82.98)"/><path class="cls-12" d="M1135.51,748.41l-.32-.38c-5.65-6.73-15.18-7.95-21-2.71-15.51,13.81-43.19,41.71-63.48,57.95-18.29-12.57-46.39-9.59-71.88,12.33a88.87,88.87,0,0,0-20.59,26.76c28.15.36,54.53,21.92,57.69,60.61a85.29,85.29,0,0,0,25.39-14.7c24.08-20.71,31.81-46.25,24.43-65.85,19.18-18.28,52.21-39.48,68.9-52.88C1140.7,764.63,1141.12,755.12,1135.51,748.41Z" transform="translate(-714.11 -652.31)"/><path class="cls-13" d="M1044.38,822.39c-12.69-14.76-37-14.72-58.64,3.93a64.06,64.06,0,0,0-14.18,17.9,57.27,57.27,0,0,1,41.55,45.43c.1.26.21.52.3.79a62.47,62.47,0,0,0,18.3-10.66C1053.4,861.13,1057.08,837.15,1044.38,822.39Z" transform="translate(-714.11 -652.31)"/><path class="cls-14" d="M907.4,849.4c0,6.92-2,12.53-4.57,12.53s-4.58-5.61-4.58-12.53,2-12.52,4.58-12.52S907.4,842.49,907.4,849.4Z" transform="translate(-714.11 -652.31)"/><path class="cls-14" d="M1010.34,887.74c-4.5,5.26-9.7,8.19-11.62,6.55s.17-7.24,4.66-12.49,9.69-8.19,11.61-6.55S1014.83,882.48,1010.34,887.74Z" transform="translate(-714.11 -652.31)"/><path class="cls-14" d="M941.18,934.21c4.44,5.29,6.48,10.9,4.55,12.53s-7.11-1.35-11.56-6.65-6.48-10.91-4.55-12.53S936.73,928.91,941.18,934.21Z" transform="translate(-714.11 -652.31)"/><path class="cls-14" d="M1003.92,957.53c-6.2,3.06-12.13,3.71-13.25,1.45s3-6.59,9.19-9.66,12.13-3.71,13.25-1.45S1010.12,954.46,1003.92,957.53Z" transform="translate(-714.11 -652.31)"/><path class="cls-14" d="M875.9,895.79c3.24,6.11,4.05,12,1.82,13.21s-6.67-2.82-9.91-8.93-4-12-1.82-13.2S872.66,889.68,875.9,895.79Z" transform="translate(-714.11 -652.31)"/><path class="cls-14" d="M959,987.1c-6.66,1.87-12.61,1.41-13.29-1s4.16-5.92,10.82-7.78,12.61-1.4,13.29,1S965.69,985.24,959,987.1Z" transform="translate(-714.11 -652.31)"/><path class="cls-14" d="M949.74,809.22c5.86,3.67,9.52,8.38,8.18,10.52s-7.18.9-13-2.77-9.52-8.39-8.18-10.53S943.88,805.54,949.74,809.22Z" transform="translate(-714.11 -652.31)"/><path class="cls-14" d="M954.75,879.22c-6.7,1.74-12.64,1.17-13.27-1.28s4.27-5.84,11-7.58,12.63-1.16,13.27,1.28S961.44,877.48,954.75,879.22Z" transform="translate(-714.11 -652.31)"/><path class="cls-14" d="M898.67,949.78c-4.93,4.85-10.36,7.33-12.14,5.53s.79-7.19,5.72-12,10.36-7.32,12.13-5.52S903.59,944.93,898.67,949.78Z" transform="translate(-714.11 -652.31)"/><path class="cls-14" d="M906.91,897.47c-6.24,3-12.19,3.54-13.27,1.26s3.09-6.54,9.33-9.52,12.19-3.53,13.28-1.25S913.15,894.5,906.91,897.47Z" transform="translate(-714.11 -652.31)"/><path class="cls-14" d="M980.9,945.69c-6.68-1.8-11.56-5.23-10.91-7.67s6.61-3,13.29-1.17,11.56,5.23,10.9,7.67S987.58,947.48,980.9,945.69Z" transform="translate(-714.11 -652.31)"/><path class="cls-14" d="M931,901.2c-2.87,6.29-7.06,10.54-9.36,9.49s-1.83-7,1-13.29,7.06-10.54,9.36-9.5S933.87,894.9,931,901.2Z" transform="translate(-714.11 -652.31)"/><path class="cls-14" d="M915.14,969.91c-5.44-4.28-8.57-9.35-7-11.34s7.23-.13,12.67,4.15,8.57,9.35,7,11.34S920.57,974.19,915.14,969.91Z" transform="translate(-714.11 -652.31)"/><path class="cls-14" d="M933,841.66c-4.12,5.55-9.11,8.83-11.14,7.32s-.33-7.22,3.8-12.78,9.11-8.83,11.14-7.32S937.15,836.11,933,841.66Z" transform="translate(-714.11 -652.31)"/><path class="cls-14" d="M863.1,932.49c-4.54-5.21-6.69-10.78-4.78-12.44s7.13,1.22,11.68,6.43,6.69,10.78,4.78,12.44S867.65,937.71,863.1,932.49Z" transform="translate(-714.11 -652.31)"/><path class="cls-14" d="M1011.4,841.49c-.79,6.87-3.47,12.2-6,11.91s-3.9-6.09-3.11-13,3.48-12.21,6-11.92S1012.2,834.62,1011.4,841.49Z" transform="translate(-714.11 -652.31)"/><path class="cls-14" d="M973.47,906.32c-4.45-5.3-6.49-10.91-4.55-12.53s7.11,1.34,11.56,6.64S987,911.34,985,913,977.92,911.61,973.47,906.32Z" transform="translate(-714.11 -652.31)"/><path class="cls-14" d="M876.86,871.56c-6.5-2.36-11.07-6.2-10.2-8.58s6.83-2.38,13.33,0,11.07,6.2,10.2,8.57S883.36,873.92,876.86,871.56Z" transform="translate(-714.11 -652.31)"/></g></g></g></svg>