<?xml version="1.0" encoding="utf-8"?>
<!-- Generator: Adobe Illustrator 22.0.0, SVG Export Plug-In . SVG Version: 6.00 Build 0)  -->
<svg version="1.1" id="Layer_1" xmlns="http://www.w3.org/2000/svg" xmlns:xlink="http://www.w3.org/1999/xlink" x="0px" y="0px"
	 viewBox="0 0 223.7 82.2" style="enable-background:new 0 0 223.7 82.2;" xml:space="preserve">
<style type="text/css">
	.st0{display:none;}
	.st1{display:inline;fill:#F05F37;}
	.st2{fill:#DAD731;}
	.st3{fill:#E1C962;}
	.st4{display:inline;fill:#F28727;}
	.st5{display:inline;fill:#ECD975;}
	.st6{display:inline;fill:#A3C734;}
	.st7{display:inline;fill:#EAD96D;}
	.st8{display:inline;fill:#DDAE63;}
	.st9{display:inline;fill:#DCC36C;}
	.st10{display:inline;fill:#CDE1E8;}
	.st11{fill:#F9F9E5;}
	.st12{fill:#DFE6CE;}
	.st13{fill:#F49294;}
	.st14{fill:#F17171;}
	.st15{fill:#FFFFFF;}
	.st16{fill:#AAAAAA;}
	.st17{fill:#8E3222;}
	.st18{fill:#CE7229;}
	.st19{fill:#B54726;}
	.st20{fill:#E88873;}
	.st21{fill:#F0A291;}
</style>
<g id="Capa_3">
	<g>
		<g class="st0">
			<polygon class="st1" points="162,5.9 61,5.9 108,-63.1 			"/>
		</g>
		<g>
			<polygon class="st2" points="227,84.9 2,84.9 55,12.9 166,12.9 			"/>
			<path class="st3" d="M169,17.1H52.9c-3.3,0-5.9-2.7-5.9-5.9V9.9C47,6.6,49.7,4,52.9,4H169c3.3,0,5.9,2.7,5.9,5.9v1.3
				C175,14.4,172.3,17.1,169,17.1z"/>
		</g>
		<g class="st0">
			<polygon class="st4" points="314,171.9 -73,171.9 -5,91.9 235,91.9 			"/>
			<path class="st5" d="M238.4,96.4H-8.5c-3.6,0-6.6-2.9-6.6-6.6v-8c0-3.6,2.9-6.6,6.6-6.6h246.8c3.6,0,6.6,2.9,6.6,6.6v8
				C245,93.4,242,96.4,238.4,96.4z"/>
		</g>
		<g class="st0">
			<polygon class="st6" points="417,274.9 -165,274.9 -84,183.9 325,183.9 			"/>
			<path class="st7" d="M328.5,189.2H-84.6c-4.1,0-7.5-3.3-7.5-7.5v-9.1c0-4.1,3.3-7.5,7.5-7.5h413.1c4.1,0,7.5,3.3,7.5,7.5v9.1
				C336,185.9,332.6,189.2,328.5,189.2z"/>
		</g>
		<g class="st0">
			<polygon class="st8" points="529,386.9 -263,386.9 -179,288.9 433,288.9 			"/>
			<path class="st9" d="M434.8,294.2h-619.7c-4.5,0-8.1-3.6-8.1-8.1v-9.9c0-4.5,3.6-8.1,8.1-8.1h619.8c4.5,0,8.1,3.6,8.1,8.1v9.9
				C443,290.6,439.3,294.2,434.8,294.2z"/>
		</g>
		<g class="st0">
			<polygon class="st10" points="665.2,510.9 -376.6,510.9 -279,401.9 547,401.9 			"/>
			<path class="st9" d="M551,408h-835c-5,0-9-4-9-9v-10.9c0-5,4-9,9-9h835c5,0,9,4,9,9V399C560,404,555.9,408,551,408z"/>
		</g>
	</g>
</g>
<g id="Capa_6">
	<g>
		<path class="st11" d="M76.6,69c-0.9,1.1-2.6,1.3-3.7,0.3c-0.9-0.8-1.2-2.1-0.7-3.1l-6-0.9l0.5-3.4l5.7,0.9
			c0.1-0.4,0.3-0.9,0.6-1.2c0.9-1.1,2.6-1.3,3.7-0.3c1.1,0.9,1.3,2.6,0.3,3.7c-0.2,0.2-0.4,0.4-0.6,0.5C77.3,66.3,77.4,67.9,76.6,69
			z"/>
		<path class="st12" d="M76.6,68.9c0.1-0.7,0.2-1.3-0.1-2c-0.1-0.3-0.3-0.6-0.4-0.9c0.1-0.4,0.3-0.8,0.4-1.2
			c0.3-2.4-2.5-3.6-4.1-1.9c-0.3,0.3-0.5,0.6-0.8,0.9c-0.6-0.1-1.4-0.5-1.9-0.5c-0.7-0.1-1.3-0.3-2-0.2c-0.4,0.1-0.9,0.3-1.2,0.5
			l0.3-1.8l5.7,0.9c0.1-0.4,0.3-0.9,0.6-1.2c0.9-1.1,2.6-1.3,3.7-0.3c1.1,0.9,1.3,2.6,0.3,3.7c-0.2,0.2-0.4,0.4-0.6,0.5
			C77.3,66.3,77.4,67.9,76.6,68.9z"/>
		<path class="st13" d="M38.3,65.5c0,0,3.7,4.4,14,4.3s10.9-4.9,17.5-3.3c0,0-1.1-0.9-0.9-1.7l2.3-0.1l-1.6-1.4c0,0,1.7-1.9,2.7-1.4
			c0,0-2.5-0.9-3.6-0.4s0.8-6.6-11.9-14L38.3,65.5z"/>
		<path class="st14" d="M40.4,64.5c4.3,4.8,11.5,4.5,17.1,2.8c2.8-0.8,5.6-2,8.2-3.3c0.2-0.1,1.9-0.8,1-0.5c0.4-0.1,0.7-0.3,1.1-0.4
			c-0.7,0.2,1.6,0.1,0.6,0c0.4,0.1,0.8,0.1,1.1,0.2l-0.1,0.1l1.6,1.4l-2.3,0.1c-0.2,0.8,0.9,1.7,0.9,1.7c-6.6-1.6-7.2,3.3-17.5,3.3
			c-10.3,0.1-14-4.3-14-4.3l1.6-1.5C40.1,64.1,40.2,64.3,40.4,64.5z"/>
		<g>
			<path class="st13" d="M41.9,66.2c3.5,0,7.5-2.6,9.3-5.2c0.6-0.8,1.5-1.8,2.4-2.8c2.2-2.4,4.7-5.1,4.6-7.6c-0.1-1-0.5-1.9-1.5-2.7
				c-1.2-1-2.4-1.5-3.9-1.5c-3.2,0-7,2.3-11.7,7.2c-3.4,3.6-3.6,7-3.6,8.4c0.1,1.4,0.5,2.6,1.2,3.1C39.5,65.8,40.6,66.2,41.9,66.2
				L41.9,66.2z"/>
			<path class="st14" d="M52.7,46.9c1.3,0,2.5,0.5,3.6,1.4c0.8,0.7,1.3,1.5,1.3,2.3c0.1,2.2-2.4,5-4.4,7.2c-0.9,1-1.8,1.9-2.4,2.8
				c-1.7,2.5-5.7,5.1-8.9,5c-1.1,0-2.1-0.4-2.9-1c-0.4-0.4-0.9-1.3-1-2.8c-0.1-1.3,0.1-4.6,3.4-8C46,49.2,49.7,46.9,52.7,46.9
				L52.7,46.9z M52.8,46c-4.1-0.1-8.5,3.7-12.1,7.3c-4.8,4.9-4.2,10.6-2.4,12.2c1,0.8,2.2,1.2,3.5,1.2c3.6,0,7.8-2.7,9.7-5.4
				c2.6-3.6,10.4-9.3,5.4-13.6C55.6,46.5,54.2,46,52.8,46L52.8,46z"/>
		</g>
		<path class="st11" d="M44.9,60.5c0.9-1.4,1-3,0.2-3.5s-2.1,0.3-3,1.7c-0.9,1.4-1,3-0.2,3.5C42.6,62.7,44,61.9,44.9,60.5z"/>
	</g>
	<g>
		<path class="st13" d="M98.7,37.5c-0.2,2.7,0.2,5.5-2.8,6.7c-5,2-11.6,2.8-17,2.7c-4.4-0.1-8.9-1-13.2-2c-2.5-0.6-5.9-1.5-7.4-3.9
			c-1.5-2.5-1.1-5.9,0-8.4L98.7,37.5z"/>
		<path class="st14" d="M98.5,39c2.4-4.2-2.6-7.2-5.7-7.7c-1.8-0.3-3.6-0.5-5.4-1.1c-3.5-1.2-6.7-3.1-9.6-5.4
			c-2.4-1.8-4.6-2.4-7.2-0.7c-2.2,1.4-3.6,3.8-5.8,5.1c-1.9,1.1-4.2,0.7-6.1,2c-2.9,2.1-1.3,5.4,1.1,7.1c4.1,2.8,9.3,3,14,3.3
			c4.4,0.2,8.8,0.9,13.2,1.2C90.7,42.9,96.2,42.9,98.5,39z"/>
		<path class="st15" d="M70.7,35.4c0.3-1.5-4.4-3-5.5-2.9c-1.4,0.1-2.9,0.9-2.2,2.5c0.7,1.8,3.9,1.7,5.4,1.5
			C69,36.4,70.5,36.2,70.7,35.4z"/>
		<path class="st13" d="M75,32.2c-1.6-0.3-6.2,0.5-5.3-2.4c0.6-2.1,3.6-3.4,5.6-2.8C78.3,28,79.4,33,75,32.2z"/>
		<path class="st13" d="M75.6,39.9c-1.9,0-4.2-1.1-3.6-3.4c0.5-2,2.3-2,3.9-2.2c1.7-0.2,3.2-1.2,4.4-2.4c2.2-2.3,3.8-0.4,6.1,1.1
			c2.2,1.4,3.8,3.2,1,5.3C84.4,40.4,79.1,39.9,75.6,39.9z"/>
		<path class="st13" d="M88.8,40.1c0.7-1.1,1.9-1.6,2.6-2.7s0.2-1.6,0.3-2.8c2.4-0.4,4.5,0.5,4.5,3.2c0,1.7-1.2,2.6-2.8,2.8
			c-1,0.2-3.6,0.3-4.6-0.4L88.8,40.1L88.8,40.1z"/>
		<path class="st13" d="M64.9,34.5c-0.6,0.8,2.6,1.6,3.6,1c1.9-1.1-2.3-1.7-3.1-1.4C65.2,34.3,65,34.4,64.9,34.5z"/>
		<path class="st15" d="M75.8,34.6c2-0.1,3.4-1.2,5.2-1.9c0.9-0.4,1.8-0.6,2.8-0.3c0.9,0.2,1.6,1.2,2.4,1.4c1.9,0.4,0.6-1.6-0.3-2.3
			c-1.3-0.9-3.2-1.3-4.7-0.8c-1.9,0.7-3.6,2.5-5.2,3.7L75.8,34.6z"/>
		<path class="st15" d="M74,32.2c-1.5-1-5.1-2.5-2.7-4.7c-1.6,0.3-3.1,2.1-2.4,3.8c0.9,2.2,5,1.6,6.6,0.9H74z"/>
		<path class="st15" d="M91.5,37.5c0,1-4,1.5-4.5,3c1.6,1.8,5.1,0,7,0.3c-1.3-0.4-2.8,0-4-0.6c-0.5-0.9,0.1-1.7,1-2.1L91.5,37.5z"/>
	</g>
	<g>
		<path class="st16" d="M152.3,44.9c-1.3,0.2-1.9-1.2-3.1-1.7c0.7-1.9,2.1-5.9-0.4-5.8c-1.9,0.1-3.8,5.4-1.2,6.2
			c-0.9,0.4-3.4,3.7-2.6,5.7c0.9,2.4,2.8-2.5,3.5-3.3c1.2,1.7,2.8,2.9,4.4,2.7L152.3,44.9z"/>
		<path class="st17" d="M166.1,65.9c-5.4-1.7-11.2-2.5-14.7-10.8c-2-4.7-2.3-9.3,1.3-11.7c3.7-2.4,7.8-2.6,11.8-2.1
			c1.7,0.2,3.4,0.8,5.1,0.9c1.9,0.2,3.8,0.7,5.4,2.6L166.1,65.9z"/>
		<path class="st14" d="M155.9,56.2c0.8,10.3,10.3,10.3,14.6,9.1c2.9-0.8,6.3-2.6,8-7.2c1-2.7,1.1-6.8,0.1-9.5
			c-2.5-6.3-6.9-5.6-10.8-5.7c-3.3,0-7.5,1-10.1,4.9C156.2,50,155.7,53.2,155.9,56.2z"/>
		<path class="st13" d="M158.5,59.4c-2.7-3.8-0.1-9.4,2.2-11.2c2.8-2.2,6.1-3.4,9.2-3.5c2.5-0.1,7.1,1,7.5,6.6
			c0.1,1.8-0.2,5.6-0.8,7.3c-1.2,3.9-6,4.9-8.2,4.5C165.3,62.6,161.1,63.1,158.5,59.4z"/>
		<path class="st15" d="M169.2,56c0.4,1.7,1.3,2,2.2,1.2c1.1-1.1,1.2-4.7-0.1-5.5C169.8,50.8,168.7,53.8,169.2,56z"/>
	</g>
	<g>
		<path class="st16" d="M115.3,47.7c1.5-0.4,2.9-1.4,4.3-2c-1.9-0.2-0.6-3.2,0.9-3.3c2.2-0.2,2.5,2.1,0.9,3.2
			c1.1-0.1,2.9,1.3,2.2,2.5c-0.7,1.1-2.9,0.5-3.3-0.6c-2.2,0.4-5.5,1.1-7.2,2.8L115.3,47.7z"/>
		<path class="st18" d="M100.1,51.6c0.9-3.4,4.2-5.8,7.4-7c2.6-1,5.4,0.1,7.8,1.3c1.3,0.6,1.9,1.4,2.1,2.9c-1.2,0.5-1.4,2.9-2.1,4
			c-1.8,2.9-5.2,3.4-8.3,2.7L100.1,51.6z"/>
		<path class="st19" d="M112.5,47.6c1.5,0.5,3.5,2.6,3.1,4.4c-0.6,2.1-4.6,0.7-6,0.5c-1.3-0.2-2.6-0.3-3.9-0.3
			c-0.9,0-2.7,0.6-3.5-0.2c-0.9-1,0.3-2.6,1.2-3.2C105.8,47.4,109.9,46.7,112.5,47.6z"/>
		<path class="st18" d="M90.3,55.8c1.2-1.9,2.7-3.6,4.2-4.1c1.4-0.4,2.9-0.5,4.2-0.9c6-2,14.6-4.5,18.5,3.1c1.5,3,2.8,8.7,0.7,11.7
			c-1.6,2.3-3.9,4.2-6.3,5.4c-1.9,1-4.7,0.3-6.8,0.2c-3.7-0.2-9.4-0.5-12.6-2.9c-2.4-1.9-4.3-5.1-3.6-8.5
			C88.9,58.6,89.5,57.1,90.3,55.8z"/>
		<path class="st19" d="M110,62.1c0-3.4,4.9-11.7,8.5-7C114.8,56.8,112.7,59.4,110,62.1L110,62.1z"/>
		<path class="st19" d="M91.8,61.2c-2-2.4,2.7-5.4,4.2-6.1c0.9-0.4,3.3-1.5,2,0.5c-0.8,1.3-1.8,2.5-2.7,3.7
			C94.6,59.9,92.7,62.2,91.8,61.2z"/>
		<path class="st19" d="M89.4,63c2.2,2.5,2.8,2.7,5.6,3.8c1.2,0.5,2.4,1.4,3.7,1.6c2.5,0.3,6-1.5,7.7-3.2c1-1,1.6-2.2,2.5-3.2
			c0.2,2.2,0.3,3,1.5,4.7c0.9,1.3,1.9,2.3,2.9,3.6c-1.7,2-5.2,1.6-7.5,1.3c-3-0.4-5.7-0.6-8.7-1.2c-0.7-0.1-2.3-0.9-2.7-0.6
			c-1.4-1.3-7.1-5.3-5.4-7.7c1.2,0.7,1.2,2.1,2.3,2.7L89.4,63z"/>
		<path class="st16" d="M121.9,55.4c1.6-0.4,2.8-1.8,4.3-2c-1.3-0.9-1.3-2.9,0.4-3.5c1.6-0.6,2.6,1.3,1.4,2.4
			c1.2,0.1,3.1,1.4,2.3,2.7c-0.8,1.2-2.7,0.5-3.4-0.5c-1.5,1.3-4,1.9-5.7,2.9L121.9,55.4z"/>
		<path class="st18" d="M121.4,53.9c3.6,0.3,2.6,6.1,2.1,8.3c-0.6,3-2.1,5.6-4.5,7.5c-1.9,1.6-5.4,2.7-7.8,1.4
			c-3-1.7-3.4-7.4-2.7-10.4c0.9-3.3,4.4-5.2,7.4-6.1C117.8,54.2,119.6,53.8,121.4,53.9z"/>
	</g>
	<g>
		<path class="st20" d="M124.2,30c3.7-2.2,8.5-5.6,13-4.3c3,0.8,5.5,3.5,2.5,5.9s-7,4.7-10.5,6.4c-2.7,1.4-8.6,2.9-10.8-0.1
			C115.8,34.3,121.9,31.3,124.2,30z"/>
		<path class="st21" d="M129.1,27.8c1.7-0.9,3.5-1.5,5.4-1.6c1.1-0.1,3.8,0.3,4.3,1.4c0.3,0.7-0.4,2.1-0.7,2.7
			c-1.1,1.7-3.1,2.6-4.8,3.5c-2.9,1.4-6.6,3.8-9.9,4c-2.4,0.1-4.7-1.7-3.2-4.1C121.8,30.8,126.2,29.3,129.1,27.8z"/>
		<path class="st15" d="M118.7,35.7c1-1,2.2-1.8,3.6-2.4c-1.1,0.8-2.8,1.4-3.7,2.4H118.7z"/>
		<path class="st15" d="M138.8,27.2c-0.6-0.6-2.7,1.1-3.2,1.4C136.5,28.1,137.8,27.3,138.8,27.2L138.8,27.2z"/>
		<path class="st15" d="M124.5,36.6c0.2-0.5,1-1.1,1.5-1.3s1.3-0.6,1.9-0.6C126.7,35.3,125.5,35.9,124.5,36.6L124.5,36.6z"/>
		<path class="st15" d="M128.6,29c0.8-0.6,2.3-1.1,3.2-1.2c-0.8,0.4-1.7,0.7-2.5,1.1c-0.5,0.2-0.9,0.5-1.5,0.6L128.6,29z"/>
		<path class="st15" d="M134.7,31.5C134.8,31.4,134.8,31.5,134.7,31.5c-0.6-0.2-1.3,0.5-1.7,0.8c0.3-0.2,0.7-0.4,1.1-0.6
			c0.4-0.2,0.8-0.3,1.2-0.3L134.7,31.5z"/>
		<path class="st15" d="M126.1,31.8c-0.3-0.3-1,0.5-1.2,0.7C125.2,32.2,125.6,32,126.1,31.8L126.1,31.8z"/>
		<path class="st15" d="M120,37.7c0-0.6,1.1-0.9,1.4-0.8C121,36.8,120.3,37.4,120,37.7L120,37.7z"/>
		<path class="st20" d="M129.3,33.3c0.4-0.2,0.8-0.3,1.2-0.6c0.2-0.1,0.1-0.5-0.2-0.3c-0.4,0.2-0.8,0.4-1.2,0.6
			C128.9,33,129.1,33.4,129.3,33.3L129.3,33.3z"/>
		<path class="st20" d="M133.6,27.2C133.6,27.2,133.7,27.2,133.6,27.2L133.6,27.2c-0.1,0.1-0.2,0.1-0.3,0.2
			c-0.1,0.1-0.3,0.2-0.4,0.2c-0.2,0.1-0.1,0.4,0.2,0.3c0.2-0.1,0.3-0.2,0.5-0.3c0.1-0.1,0.3-0.1,0.3-0.2
			C134.1,27.2,133.8,27,133.6,27.2L133.6,27.2z"/>
		<path class="st20" d="M128.3,29.9c-0.2,0-0.3,0.1-0.5,0.3c-0.1,0.1-0.1,0.2,0,0.3s0.2,0.1,0.3,0s0.2-0.1,0.3-0.2
			c0.1,0,0.2-0.1,0.2-0.2C128.6,29.9,128.4,29.8,128.3,29.9L128.3,29.9z"/>
		<path class="st20" d="M125.2,30.5c-0.3,0.1-0.6,0.3-0.8,0.6c-0.2,0.2,0.1,0.5,0.2,0.3c0.2-0.2,0.4-0.5,0.7-0.5
			C125.5,30.8,125.4,30.4,125.2,30.5L125.2,30.5z"/>
		<path class="st20" d="M120.4,33.7C120.5,33.7,120.5,33.7,120.4,33.7c0.1-0.1,0.2-0.2,0.1-0.3c0-0.1-0.2-0.1-0.3-0.1c0,0,0,0-0.1,0
			s-0.1,0.2-0.1,0.3C120.2,33.7,120.3,33.8,120.4,33.7L120.4,33.7z"/>
		<path class="st20" d="M119.6,35c0.1-0.1,0.3-0.1,0.4-0.2c0.2-0.1,0.1-0.4-0.2-0.3c-0.2,0.1-0.3,0.2-0.5,0.3
			c-0.1,0.1-0.1,0.2,0,0.3C119.5,35,119.6,35,119.6,35L119.6,35z"/>
		<path class="st20" d="M120.4,35.7c-0.2,0.1-0.4,0.3-0.6,0.4c-0.2,0.2,0,0.4,0.2,0.3s0.4-0.3,0.6-0.4c0.1-0.1,0.1-0.1,0.1-0.3
			C120.6,35.7,120.5,35.6,120.4,35.7L120.4,35.7z"/>
		<path class="st20" d="M123.9,34.4c0.3-0.2,0.6-0.4,1-0.5c0.2-0.1,0.2-0.4-0.1-0.4c-0.4,0.1-0.7,0.4-1.1,0.6
			C123.5,34.2,123.7,34.5,123.9,34.4L123.9,34.4z"/>
		<path class="st20" d="M122.1,38.1c0.3-0.2,0.6-0.4,0.9-0.5c0.2-0.1,0.1-0.5-0.2-0.3s-0.6,0.4-0.9,0.5
			C121.7,37.9,121.9,38.3,122.1,38.1L122.1,38.1z"/>
		<path class="st20" d="M125.8,35.7L125.8,35.7C125.7,35.7,125.7,35.7,125.8,35.7C125.7,35.7,125.7,35.7,125.8,35.7
			C125.7,35.8,125.7,35.8,125.8,35.7L125.8,35.7L125.8,35.7c-0.2,0.1-0.3,0.2-0.3,0.3c0,0.1,0.1,0.2,0.2,0.2c0.1,0,0.1,0,0.2-0.1
			h0.1l0,0c0.1,0,0.1-0.2,0.1-0.3C126,35.7,125.9,35.7,125.8,35.7L125.8,35.7z"/>
		<path class="st20" d="M133.4,29.5c-0.5,0.2-1,0.5-1.5,0.8c-0.2,0.1-0.1,0.4,0.2,0.3C132.6,30.4,133.6,29.4,133.4,29.5L133.4,29.5z
			"/>
		<path class="st20" d="M137.8,26.5c-0.2,0.1-0.4,0.1-0.6,0.1c-0.1,0-0.2,0.1-0.2,0.2c0,0.1,0.1,0.2,0.2,0.2c0.3,0,0.5-0.1,0.7-0.1
			c0.1,0,0.2-0.1,0.2-0.2C138,26.5,137.9,26.4,137.8,26.5L137.8,26.5z"/>
		<path class="st20" d="M139.2,28.4c-0.2,0.1-0.4,0.1-0.6,0.2c-0.1,0-0.2,0.1-0.2,0.2c0,0.1,0.1,0.2,0.2,0.2
			c0.2-0.1,0.4-0.1,0.6-0.2c0.1,0,0.2-0.1,0.2-0.2S139.3,28.4,139.2,28.4L139.2,28.4z"/>
		<path class="st20" d="M133.3,33.2c-0.3,0.2-0.7,0.4-1,0.5c-0.2,0.1-0.1,0.4,0.2,0.3c0.4-0.1,0.8-0.3,1.1-0.6
			C133.7,33.4,133.5,33.1,133.3,33.2L133.3,33.2z"/>
	</g>
</g>
</svg>
