<?xml version="1.0" encoding="utf-8"?>
<!-- Generator: Adobe Illustrator 22.0.0, SVG Export Plug-In . SVG Version: 6.00 Build 0)  -->
<svg version="1.1" id="Layer_1" xmlns="http://www.w3.org/2000/svg" xmlns:xlink="http://www.w3.org/1999/xlink" x="0px" y="0px"
	 viewBox="0 0 578.7 112.8" style="enable-background:new 0 0 578.7 112.8;" xml:space="preserve">
<style type="text/css">
	.st0{display:none;}
	.st1{display:inline;fill:#F05F37;}
	.st2{display:inline;fill:#DAD731;}
	.st3{display:inline;fill:#E1C962;}
	.st4{display:inline;fill:#F28727;}
	.st5{display:inline;fill:#ECD975;}
	.st6{fill:#A3C734;}
	.st7{fill:#EAD96D;}
	.st8{display:inline;fill:#DDAE63;}
	.st9{display:inline;fill:#DCC36C;}
	.st10{display:inline;fill:#CDE1E8;}
	.st11{fill:#FF2120;}
	.st12{opacity:0.6;fill:#FF5252;enable-background:new    ;}
	.st13{opacity:0.8;fill:#EF1414;enable-background:new    ;}
	.st14{fill:#63B320;}
	.st15{opacity:0.7;fill:#63B320;enable-background:new    ;}
	.st16{fill:#3F2901;}
	.st17{fill:#FCE9AD;}
	.st18{opacity:0.7;fill:#FCE9AD;enable-background:new    ;}
	.st19{fill:#C2CA27;}
	.st20{fill:#553709;}
	.st21{fill:#7F5318;}
	.st22{opacity:0.5;fill:#553709;enable-background:new    ;}
	.st23{fill:#FF8700;}
	.st24{fill:#009245;}
	.st25{opacity:0.7;fill:#009245;enable-background:new    ;}
	.st26{fill:#492101;}
	.st27{fill:#DDDD45;}
	.st28{opacity:0.7;fill:#C2CA27;enable-background:new    ;}
	.st29{fill:#66AE24;}
	.st30{fill:#695201;}
	.st31{opacity:0.6;fill:#FF8700;enable-background:new    ;}
	.st32{fill:#609340;}
	.st33{fill:#522D1B;}
	.st34{fill:#D0442E;}
	.st35{fill:#C73C27;}
	.st36{fill:#FFF6D5;}
	.st37{fill:#EDD692;}
	.st38{fill:#51250C;}
	.st39{fill:#584B29;}
	.st40{fill:#C4965A;}
	.st41{fill:#9B734B;}
	.st42{fill:#CAE0DF;}
	.st43{fill:#FFFFFF;}
</style>
<g id="Capa_3">
	<g>
		<g class="st0">
			<polygon class="st1" points="325,-158.2 224,-158.2 271,-227.2 			"/>
		</g>
		<g class="st0">
			<polygon class="st2" points="390,-79.2 165,-79.2 218,-151.2 329,-151.2 			"/>
			<path class="st3" d="M332-147H215.9c-3.3,0-5.9-2.7-5.9-5.9v-1.3c0-3.3,2.7-5.9,5.9-5.9H332c3.3,0,5.9,2.7,5.9,5.9v1.3
				C338-149.7,335.3-147,332-147z"/>
		</g>
		<g class="st0">
			<polygon class="st4" points="477,7.8 90,7.8 158,-72.2 398,-72.2 			"/>
			<path class="st5" d="M401.4-67.7H154.5c-3.6,0-6.6-2.9-6.6-6.6v-8c0-3.6,2.9-6.6,6.6-6.6h246.8c3.6,0,6.6,2.9,6.6,6.6v8
				C408-70.7,405-67.7,401.4-67.7z"/>
		</g>
		<g>
			<polygon class="st6" points="580,110.8 -2,110.8 79,19.8 488,19.8 			"/>
			<path class="st7" d="M491.5,25.1H78.4c-4.1,0-7.5-3.3-7.5-7.5V8.5c0-4.1,3.3-7.5,7.5-7.5h413.1c4.1,0,7.5,3.3,7.5,7.5v9.1
				C499,21.8,495.6,25.1,491.5,25.1z"/>
		</g>
		<g class="st0">
			<polygon class="st8" points="692,222.8 -100,222.8 -16,124.8 596,124.8 			"/>
			<path class="st9" d="M597.8,130.1H-21.9c-4.5,0-8.1-3.6-8.1-8.1v-9.9c0-4.5,3.6-8.1,8.1-8.1h619.8c4.5,0,8.1,3.6,8.1,8.1v9.9
				C606,126.5,602.3,130.1,597.8,130.1z"/>
		</g>
		<g class="st0">
			<polygon class="st10" points="828.2,346.8 -213.6,346.8 -116,237.8 710,237.8 			"/>
			<path class="st9" d="M714,243.9h-835c-5,0-9-4-9-9V224c0-5,4-9,9-9h835c5,0,9,4,9,9v10.9C723,239.9,718.9,243.9,714,243.9z"/>
		</g>
	</g>
</g>
<g id="Capa_5">
	<g>
		<g>
			<g id="XMLID_605_">
				<g id="XMLID_606_">
					<path id="XMLID_626_" class="st11" d="M85.1,67.7c-0.1,0.2-3.7,9-11.7,14C65.3,86.8,55.7,86,55.7,86l0.1-2.4l1.5-27.7
						l25.5,10.8L85.1,67.7z"/>
					<path class="st12" d="M71.3,63.4c-3.2-1.1-6.2-2.5-9.1-4.1c-0.9-0.5-1.6,0.8-0.8,1.3c3,1.7,6.2,3.1,9.5,4.3
						C71.8,65.2,72.2,63.7,71.3,63.4z"/>
					<path class="st12" d="M73.5,64.5c-1,0-1,1.5,0,1.5C74.4,66.1,74.4,64.5,73.5,64.5z"/>
					<path class="st13" d="M57.7,59.5c-0.1-0.6-0.2-1.2-0.4-1.9l-1.4,26L55.8,86c0,0,5.2,0.4,11.2-1.4c-3.3-3.9-5.6-8.5-6.9-13.7
						C59.1,67.2,58.4,63.3,57.7,59.5z"/>
					<path id="XMLID_625_" class="st14" d="M85.1,67.7L85.1,67.7c-0.1,0.3-3.7,9-11.7,14C65.3,86.8,55.7,86,55.7,86l0.1-2.4
						c3.1,0,10-0.5,16.1-4.3s9.6-9.8,11-12.6L85.1,67.7z"/>
					<path class="st15" d="M55.9,83.6L55.8,86c0,0,5.2,0.4,11.2-1.4c-0.6-0.7-1.2-1.5-1.8-2.3C61.3,83.4,57.8,83.6,55.9,83.6z"/>
					<g id="XMLID_622_">
						<g id="XMLID_623_">
							<path id="XMLID_624_" class="st16" d="M65.2,71.7c0,0-0.1,3.5,1.6,2.5C68.4,73.1,65.2,71.7,65.2,71.7z"/>
						</g>
					</g>
					<g id="XMLID_619_">
						<g id="XMLID_620_">
							<path id="XMLID_621_" class="st16" d="M60,73.2c0,0-0.5,3.4,1.2,2.7C63,75.1,60,73.2,60,73.2z"/>
						</g>
					</g>
					<g id="XMLID_616_">
						<g id="XMLID_617_">
							<path id="XMLID_618_" class="st16" d="M70.4,64c0,0,0.8,3.4,2.1,2C73.8,64.6,70.4,64,70.4,64z"/>
						</g>
					</g>
					<g id="XMLID_613_">
						<g id="XMLID_614_">
							<path id="XMLID_615_" class="st16" d="M62.5,61.5c0,0,0.3,3.4,1.8,2.3C65.8,62.6,62.5,61.5,62.5,61.5z"/>
						</g>
					</g>
					<g id="XMLID_610_">
						<g id="XMLID_611_">
							<path id="XMLID_612_" class="st16" d="M70.4,69.1c0,0,0.8,3.4,2.1,2S70.4,69.1,70.4,69.1z"/>
						</g>
					</g>
					<g id="XMLID_607_">
						<g id="XMLID_608_">
							<path id="XMLID_609_" class="st16" d="M61.4,68.1c0,0-0.4,3.4,1.3,2.6C64.4,69.9,61.4,68.1,61.4,68.1z"/>
						</g>
					</g>
				</g>
			</g>
			<g id="XMLID_597_">
				<g id="XMLID_598_">
					<path id="XMLID_604_" class="st17" d="M132.2,69.7c-2.2-5.1,3.2-13.3-4.2-16c-7.4-2.7-8.6,7-13.6,9.5
						c-8.9,4.5-13.4,17.5,1.7,23C130.7,91.5,136.1,78.8,132.2,69.7z"/>
					<path class="st18" d="M132.2,69.7c-1.2-2.9-0.1-6.8-0.1-10.1c-1,1.2-1.8,2.6-2.4,4.1c-0.5,1.3-0.8,2.7-1,4.1
						c-0.2,1.8,0.1,3.7-0.6,5.3c0.1,0.3,0.1,0.6,0.2,0.9c0.1,1.2-0.1,2.3-0.5,3.4c-1.1,2.8-3.8,4.5-6.8,3.6
						c-0.8-0.3-1.4-0.8-1.7-1.4c-0.7,0.6-1.8,1-2.7,0.6c-3-1.1-4.8-3.8-4.7-7c0-0.6,0.1-1.2,0.3-1.9c-0.8-2.3-0.4-4.9,0.7-7.2
						c-7.8,5.1-11,16.9,3.2,22.1C130.7,91.5,136.1,78.8,132.2,69.7z"/>
					<path id="XMLID_600_" class="st19" d="M132.6,69.5c-0.8-1.8-0.5-4.1-0.3-6.3c0.3-3.3,0.7-6.9-2.3-9c-0.5-0.4-1.1-0.7-1.9-1
						c-3.9-1.4-6.2,0.4-8.1,2.7c-0.6,0.7-1.1,1.5-1.6,2.2c-0.4,0.6-0.8,1.1-1.2,1.6c-0.9,1.2-1.9,2.4-3.1,3c-5.3,2.6-8.7,8-8.5,12.9
						c0.2,2.9,1.6,5.6,4.1,7.7c1.6,1.3,3.6,2.5,6.1,3.4c6.2,2.3,11.4,1.6,14.8-2C134.1,81,134.9,74.8,132.6,69.5z M116.2,85.7
						c-2.5-0.9-4.5-2.1-6-3.4c-2.1-1.9-3.3-4.2-3.5-6.7c-0.3-4.6,3-9.5,7.9-12c1.5-0.8,2.7-2.1,3.7-3.5c0.3-0.5,0.7-0.9,1-1.4
						c0.6-0.8,1.2-1.7,1.7-2.4c1.7-2,3.6-3.3,6.7-2.1c0.8,0.3,1.4,0.6,1.9,1c2.3,1.8,2,4.7,1.7,7.9c-0.1,1.2-0.2,2.4-0.2,3.5
						c0,1.2,0.2,2.3,0.6,3.3c2.1,5,1.4,10.8-1.8,14.1C126.9,87.2,122,87.8,116.2,85.7z"/>
					<path id="XMLID_599_" class="st20" d="M127.4,77.9c-1.4,3.7-5.8,5.5-9.8,4c-4.1-1.5-6.3-5.7-4.9-9.4c1.4-3.7,5.8-5.5,9.8-4
						C126.5,69.9,128.7,74.2,127.4,77.9z"/>
					<path class="st21" d="M121.5,69.3c-2-0.6-4.6-0.5-6.2,1c-0.9,0.8,0.4,2,1.3,1.3c0.5-0.5,1.6-0.7,2.2-0.8c0.8-0.1,1.5,0,2.3,0.2
						C122.1,71.3,122.6,69.6,121.5,69.3z"/>
					<path class="st21" d="M123.9,70.5c-1.1,0-1.1,1.8,0,1.8C125.1,72.3,125.1,70.5,123.9,70.5z"/>
					<path class="st22" d="M113.4,70.9c-0.3,0.5-0.6,1-0.8,1.6c-1.4,3.7,0.8,8,4.9,9.4c4.1,1.5,8.5-0.3,9.8-4
						c0.7-1.8,0.5-3.7-0.3-5.4C124.5,78.6,112.7,77.7,113.4,70.9z"/>
				</g>
			</g>
			<g id="XMLID_455_">
				<g id="XMLID_458_">
					<path id="XMLID_596_" class="st11" d="M182.6,70.8c0,0.1,0.1,0.1,0.1,0.2c0.1,0.1,0.1,0.3,0.2,0.4c0.4,1.1,0.7,2.6,0.9,4.2
						c0,0.1,0,0.1,0,0.2c0.3,3.7-0.4,7.9-2.3,9.4c-2.9,2.3-11.3,0-14.2-2.5c-2-1.7-5.7-6-0.4-11.6c0.6-0.6,1.3-1.3,2.2-1.9l0,0
						c0.1-0.1,0.2-0.2,0.3-0.2c0.7-0.5,1.3-0.9,1.9-1.3c3.7-2.2,6.4-1.8,8.2-0.6l0,0c0.1,0.1,0.2,0.1,0.3,0.2l0,0
						C181.2,68.3,182.1,69.8,182.6,70.8z"/>
					<path class="st13" d="M183.8,76.6c-2.7,2.6-5.6,4.6-9.7,3.5c-3.9-1-6.5-4.1-8.5-7.4c-3.4,4.8-0.1,8.5,1.7,10
						c3,2.5,11.3,4.8,14.2,2.5C183.3,83.9,183.9,80.1,183.8,76.6z"/>
					<g id="XMLID_463_">
						<g id="XMLID_594_">
							<path id="XMLID_595_" class="st23" d="M181.3,83c0,0,0.1,1.6,0.8,1.1C182.8,83.5,181.3,83,181.3,83z"/>
						</g>
						<g id="XMLID_592_">
							<path id="XMLID_593_" class="st23" d="M179.7,84.2c0,0,0.1,1.6,0.8,1.1C181.2,84.8,179.7,84.2,179.7,84.2z"/>
						</g>
						<g id="XMLID_590_">
							<path id="XMLID_591_" class="st23" d="M182.1,79.4c0,0,0.1,1.6,0.8,1.1C183.6,79.9,182.1,79.4,182.1,79.4z"/>
						</g>
						<g id="XMLID_588_">
							<path id="XMLID_589_" class="st23" d="M180.5,80.6c0,0,0.1,1.6,0.8,1.1C182,81.2,180.5,80.6,180.5,80.6z"/>
						</g>
						<g id="XMLID_586_">
							<path id="XMLID_587_" class="st23" d="M178.9,81.9c0,0,0.1,1.6,0.8,1.1C180.4,82.4,178.9,81.9,178.9,81.9z"/>
						</g>
						<g id="XMLID_584_">
							<path id="XMLID_585_" class="st23" d="M177.3,83.1c0,0,0.1,1.6,0.8,1.1C178.8,83.6,177.3,83.1,177.3,83.1z"/>
						</g>
						<g id="XMLID_582_">
							<path id="XMLID_583_" class="st23" d="M175.7,84.3c0,0,0.1,1.6,0.8,1.1C177.2,84.9,175.7,84.3,175.7,84.3z"/>
						</g>
						<g id="XMLID_580_">
							<path id="XMLID_581_" class="st23" d="M181.6,76.8c0,0,0.1,1.6,0.8,1.1C183.1,77.3,181.6,76.8,181.6,76.8z"/>
						</g>
						<g id="XMLID_578_">
							<path id="XMLID_579_" class="st23" d="M180,78c0,0,0.1,1.6,0.8,1.1C181.5,78.6,180,78,180,78z"/>
						</g>
						<g id="XMLID_576_">
							<path id="XMLID_577_" class="st23" d="M178.4,79.3c0,0,0.1,1.6,0.8,1.1C179.9,79.8,178.4,79.3,178.4,79.3z"/>
						</g>
						<g id="XMLID_574_">
							<path id="XMLID_575_" class="st23" d="M176.8,80.5c0,0,0.1,1.6,0.8,1.1C178.3,81,176.8,80.5,176.8,80.5z"/>
						</g>
						<g id="XMLID_572_">
							<path id="XMLID_573_" class="st23" d="M175.2,81.8c0,0,0.1,1.6,0.8,1.1C176.7,82.3,175.2,81.8,175.2,81.8z"/>
						</g>
						<g id="XMLID_570_">
							<path id="XMLID_571_" class="st23" d="M173.6,83c0,0,0.1,1.6,0.8,1.1C175.1,83.5,173.6,83,173.6,83z"/>
						</g>
						<g id="XMLID_568_">
							<path id="XMLID_569_" class="st23" d="M172,83.6c0,0,0.1,1.6,0.8,1.1C173.5,84.1,172,83.6,172,83.6z"/>
						</g>
						<g id="XMLID_566_">
							<path id="XMLID_567_" class="st23" d="M182.4,73.2c0,0,0.1,1.6,0.8,1.1C183.9,73.7,182.4,73.2,182.4,73.2z"/>
						</g>
						<g id="XMLID_564_">
							<path id="XMLID_565_" class="st23" d="M183.7,75.7c0,0.1,0,0.1,0,0.2c0,0.1-0.1,0.2-0.2,0.2c-0.7,0.5-0.8-1.1-0.8-1.1
								S183.6,75.3,183.7,75.7z"/>
						</g>
						<g id="XMLID_562_">
							<path id="XMLID_563_" class="st23" d="M180.8,74.4c0,0,0.1,1.6,0.8,1.1C182.3,75,180.8,74.4,180.8,74.4z"/>
						</g>
						<g id="XMLID_560_">
							<path id="XMLID_561_" class="st23" d="M179.2,75.7c0,0,0.1,1.6,0.8,1.1C180.7,76.2,179.2,75.7,179.2,75.7z"/>
						</g>
						<g id="XMLID_558_">
							<path id="XMLID_559_" class="st23" d="M177.6,76.9c0,0,0.1,1.6,0.8,1.1C179.1,77.4,177.6,76.9,177.6,76.9z"/>
						</g>
						<g id="XMLID_556_">
							<path id="XMLID_557_" class="st23" d="M176,78.1c0,0,0.1,1.6,0.8,1.1C177.5,78.7,176,78.1,176,78.1z"/>
						</g>
						<g id="XMLID_554_">
							<path id="XMLID_555_" class="st23" d="M174.4,79.4c0,0,0.1,1.6,0.8,1.1C175.9,79.9,174.4,79.4,174.4,79.4z"/>
						</g>
						<g id="XMLID_552_">
							<path id="XMLID_553_" class="st23" d="M172.8,80.6c0,0,0.1,1.6,0.8,1.1C174.3,81.1,172.8,80.6,172.8,80.6z"/>
						</g>
						<g id="XMLID_550_">
							<path id="XMLID_551_" class="st23" d="M171.2,81.9c0,0,0.1,1.6,0.8,1.1C172.7,82.4,171.2,81.9,171.2,81.9z"/>
						</g>
						<g id="XMLID_548_">
							<path id="XMLID_549_" class="st23" d="M169.6,83.1c0,0,0.1,1.6,0.8,1.1C171.1,83.6,169.6,83.1,169.6,83.1z"/>
						</g>
						<g id="XMLID_546_">
							<path id="XMLID_547_" class="st23" d="M182.9,71.5c0,0.1-0.1,0.1-0.2,0.2c-0.7,0.5-0.8-1.1-0.8-1.1s0.5,0.2,0.8,0.5
								C182.9,71.2,182.9,71.3,182.9,71.5z"/>
						</g>
						<g id="XMLID_544_">
							<path id="XMLID_545_" class="st23" d="M180.3,71.8c0,0,0.1,1.6,0.8,1.1C181.8,72.4,180.3,71.8,180.3,71.8z"/>
						</g>
						<g id="XMLID_542_">
							<path id="XMLID_543_" class="st23" d="M178.7,73.1c0,0,0.1,1.6,0.8,1.1C180.2,73.6,178.7,73.1,178.7,73.1z"/>
						</g>
						<g id="XMLID_540_">
							<path id="XMLID_541_" class="st23" d="M177.1,74.3c0,0,0.1,1.6,0.8,1.1C178.6,74.8,177.1,74.3,177.1,74.3z"/>
						</g>
						<g id="XMLID_538_">
							<path id="XMLID_539_" class="st23" d="M175.5,75.6c0,0,0.1,1.6,0.8,1.1C177,76.1,175.5,75.6,175.5,75.6z"/>
						</g>
						<g id="XMLID_536_">
							<path id="XMLID_537_" class="st23" d="M173.9,76.8c0,0,0.1,1.6,0.8,1.1C175.4,77.3,173.9,76.8,173.9,76.8z"/>
						</g>
						<g id="XMLID_534_">
							<path id="XMLID_535_" class="st23" d="M172.3,78c0,0,0.1,1.6,0.8,1.1C173.8,78.5,172.3,78,172.3,78z"/>
						</g>
						<g id="XMLID_532_">
							<path id="XMLID_533_" class="st23" d="M170.7,79.3c0,0,0.1,1.6,0.8,1.1C172.2,79.8,170.7,79.3,170.7,79.3z"/>
						</g>
						<g id="XMLID_530_">
							<path id="XMLID_531_" class="st23" d="M169.1,80.5c0,0,0.1,1.6,0.8,1.1C170.6,81,169.1,80.5,169.1,80.5z"/>
						</g>
						<g id="XMLID_528_">
							<path id="XMLID_529_" class="st23" d="M167.5,81.7c0,0,0.1,1.6,0.8,1.1C169,82.3,167.5,81.7,167.5,81.7z"/>
						</g>
						<g id="XMLID_526_">
							<path id="XMLID_527_" class="st23" d="M179.5,69.5c0,0,0.1,1.6,0.8,1.1C181,70,179.5,69.5,179.5,69.5z"/>
						</g>
						<g id="XMLID_524_">
							<path id="XMLID_525_" class="st23" d="M177.9,70.7c0,0,0.1,1.6,0.8,1.1C179.4,71.2,177.9,70.7,177.9,70.7z"/>
						</g>
						<g id="XMLID_522_">
							<path id="XMLID_523_" class="st23" d="M176.3,71.9c0,0,0.1,1.6,0.8,1.1C177.8,72.5,176.3,71.9,176.3,71.9z"/>
						</g>
						<g id="XMLID_520_">
							<path id="XMLID_521_" class="st23" d="M174.7,73.2c0,0,0.1,1.6,0.8,1.1C176.2,73.7,174.7,73.2,174.7,73.2z"/>
						</g>
						<g id="XMLID_518_">
							<path id="XMLID_519_" class="st23" d="M173.1,74.4c0,0,0.1,1.6,0.8,1.1C174.6,74.9,173.1,74.4,173.1,74.4z"/>
						</g>
						<g id="XMLID_516_">
							<path id="XMLID_517_" class="st23" d="M171.5,75.7c0,0,0.1,1.6,0.8,1.1C173,76.2,171.5,75.7,171.5,75.7z"/>
						</g>
						<g id="XMLID_514_">
							<path id="XMLID_515_" class="st23" d="M169.9,76.9c0,0,0.1,1.6,0.8,1.1C171.4,77.4,169.9,76.9,169.9,76.9z"/>
						</g>
						<g id="XMLID_512_">
							<path id="XMLID_513_" class="st23" d="M168.3,78.1c0,0,0.1,1.6,0.8,1.1C169.8,78.7,168.3,78.1,168.3,78.1z"/>
						</g>
						<g id="XMLID_510_">
							<path id="XMLID_511_" class="st23" d="M166.7,79.4c0,0,0.1,1.6,0.8,1.1C168.2,79.9,166.7,79.4,166.7,79.4z"/>
						</g>
						<g id="XMLID_508_">
							<path id="XMLID_509_" class="st23" d="M179.8,68c-0.7,0.5-0.8-1.1-0.8-1.1s0.2,0.1,0.5,0.2l0,0c0.1,0.1,0.2,0.1,0.3,0.2l0,0
								C180,67.5,180.1,67.7,179.8,68z"/>
						</g>
						<g id="XMLID_506_">
							<path id="XMLID_507_" class="st23" d="M177.4,68.1c0,0,0.1,1.6,0.8,1.1C178.9,68.6,177.4,68.1,177.4,68.1z"/>
						</g>
						<g id="XMLID_504_">
							<path id="XMLID_505_" class="st23" d="M175.8,69.4c0,0,0.1,1.6,0.8,1.1C177.3,69.9,175.8,69.4,175.8,69.4z"/>
						</g>
						<g id="XMLID_502_">
							<path id="XMLID_503_" class="st23" d="M174.2,70.6c0,0,0.1,1.6,0.8,1.1C175.7,71.1,174.2,70.6,174.2,70.6z"/>
						</g>
						<g id="XMLID_500_">
							<path id="XMLID_501_" class="st23" d="M172.6,71.8c0,0,0.1,1.6,0.8,1.1C174.1,72.3,172.6,71.8,172.6,71.8z"/>
						</g>
						<g id="XMLID_498_">
							<path id="XMLID_499_" class="st23" d="M171,73.1c0,0,0.1,1.6,0.8,1.1C172.5,73.6,171,73.1,171,73.1z"/>
						</g>
						<g id="XMLID_496_">
							<path id="XMLID_497_" class="st23" d="M169.4,74.3c0,0,0.1,1.6,0.8,1.1C170.9,74.8,169.4,74.3,169.4,74.3z"/>
						</g>
						<g id="XMLID_494_">
							<path id="XMLID_495_" class="st23" d="M167.8,75.5c0,0,0.1,1.6,0.8,1.1C169.3,76.1,167.8,75.5,167.8,75.5z"/>
						</g>
						<g id="XMLID_492_">
							<path id="XMLID_493_" class="st23" d="M166.2,76.8c0,0,0.1,1.6,0.8,1.1C167.7,77.3,166.2,76.8,166.2,76.8z"/>
						</g>
						<g id="XMLID_490_">
							<path id="XMLID_491_" class="st23" d="M164.6,78c0,0,0.1,1.6,0.8,1.1C166.1,78.5,164.6,78,164.6,78z"/>
						</g>
						<g id="XMLID_488_">
							<path id="XMLID_489_" class="st23" d="M175,67c0,0,0.1,1.6,0.8,1.1C176.5,67.5,175,67,175,67z"/>
						</g>
						<g id="XMLID_486_">
							<path id="XMLID_487_" class="st23" d="M173.4,68.2c0,0,0.1,1.6,0.8,1.1C174.9,68.7,173.4,68.2,173.4,68.2z"/>
						</g>
						<g id="XMLID_484_">
							<path id="XMLID_485_" class="st23" d="M171.8,69.5c0,0,0.1,1.6,0.8,1.1C173.3,70,171.8,69.5,171.8,69.5z"/>
						</g>
						<g id="XMLID_482_">
							<path id="XMLID_483_" class="st23" d="M170.2,70.7c0,0,0.1,1.6,0.8,1.1C171.7,71.2,170.2,70.7,170.2,70.7z"/>
						</g>
						<g id="XMLID_480_">
							<path id="XMLID_481_" class="st23" d="M168.6,71.9c0,0,0.1,1.6,0.8,1.1C170.1,72.5,168.6,71.9,168.6,71.9z"/>
						</g>
						<g id="XMLID_478_">
							<path id="XMLID_479_" class="st23" d="M167,73.2c0,0,0.1,1.6,0.8,1.1C168.6,73.7,167,73.2,167,73.2z"/>
						</g>
						<g id="XMLID_467_">
							<path id="XMLID_468_" class="st23" d="M165.4,74.4c0,0,0.1,1.6,0.8,1.1C167,74.9,165.4,74.4,165.4,74.4z"/>
						</g>
					</g>
					<path id="XMLID_462_" class="st24" d="M168.8,65.3c0,0-0.7,1.4,0.2,3.4c0,0.1,0.1,0.2,0.1,0.3c0.1,0.1,0.1,0.2,0.2,0.4
						l-0.5,0.4c0,0-0.1-0.1-0.2-0.3c-0.1-0.1-0.1-0.2-0.2-0.3c-0.1-0.1-0.2-0.2-0.2-0.4c-0.5-0.9-1.1-2.3-0.8-3.7
						C167.5,65.1,168.1,64.8,168.8,65.3z"/>
					<path id="XMLID_461_" class="st24" d="M173.9,69.5c-2.1-0.7-3.6-0.4-3.6-0.4c1.8,1.2,1,2.4,1,2.4c0.1-1.2-1.6-1.9-1.6-1.9
						s0,0.2,0,0.4c0,0.7,0,2.3,0.7,3.4c0,0-1.4-1.3-1.8-2.9c0,0.1-0.7,1.4-0.5,3.6c0,0-0.9-1.3-0.5-3.2c0,0-1.2,0.8-2.3,2.7
						c0-0.1,0.3-1.3,1.3-2.8c0.5-0.7,1.1-1.4,2-2.1h0.1c0.1-0.1,0.2-0.2,0.4-0.3c0.7-0.5,1.4-0.8,2-1.1c1.7-0.7,3-0.7,3.1-0.7
						c-2.1,0.6-3.2,1.5-3.2,1.5C172.8,68.3,173.9,69.5,173.9,69.5z"/>
					<path class="st25" d="M181.5,72c-0.5-2.8-2.9-4.7-5.7-4.8c-1,0-1,1.6,0,1.6c2.1,0.1,3.8,1.5,4.1,3.6
						C180.2,73.4,181.7,73,181.5,72z"/>
					<path class="st25" d="M181.3,73.6c-1,0-1,1.6,0,1.6C182.3,75.2,182.3,73.6,181.3,73.6z"/>
				</g>
			</g>
			<g id="XMLID_313_">
				<g id="XMLID_314_">
					<path id="XMLID_454_" class="st11" d="M195.3,71.1c0,0.1,0.1,0.1,0.1,0.2c0.1,0.1,0.1,0.3,0.2,0.4c0.4,1.1,0.7,2.6,0.9,4.2
						c0,0.1,0,0.1,0,0.2c0.3,3.7-0.4,7.9-2.3,9.4c-2.9,2.3-11.3,0-14.2-2.5c-2-1.7-5.7-6-0.4-11.6c0.6-0.6,1.3-1.3,2.2-1.9l0,0
						c0.1-0.1,0.2-0.2,0.3-0.2c0.7-0.5,1.3-0.9,1.9-1.3c3.7-2.2,6.4-1.8,8.2-0.6l0,0c0.1,0.1,0.2,0.1,0.3,0.2l0,0
						C193.9,68.6,194.8,70,195.3,71.1z"/>
					<path class="st13" d="M196.4,76.8c-2.7,2.6-5.6,4.6-9.7,3.5c-3.9-1-6.5-4.1-8.5-7.4c-3.4,4.8-0.1,8.5,1.7,10
						c3,2.5,11.3,4.8,14.2,2.5C195.9,84.1,196.6,80.3,196.4,76.8z"/>
					<g id="XMLID_317_">
						<g id="XMLID_452_">
							<path id="XMLID_453_" class="st23" d="M193.9,83.2c0,0,0.1,1.6,0.8,1.1C195.4,83.7,193.9,83.2,193.9,83.2z"/>
						</g>
						<g id="XMLID_450_">
							<path id="XMLID_451_" class="st23" d="M192.3,84.5c0,0,0.1,1.6,0.8,1.1C193.8,85,192.3,84.5,192.3,84.5z"/>
						</g>
						<g id="XMLID_448_">
							<path id="XMLID_449_" class="st23" d="M194.7,79.6c0,0,0.1,1.6,0.8,1.1C196.2,80.1,194.7,79.6,194.7,79.6z"/>
						</g>
						<g id="XMLID_446_">
							<path id="XMLID_447_" class="st23" d="M193.1,80.9c0,0,0.1,1.6,0.8,1.1C194.6,81.4,193.1,80.9,193.1,80.9z"/>
						</g>
						<g id="XMLID_444_">
							<path id="XMLID_445_" class="st23" d="M191.5,82.1c0,0,0.1,1.6,0.8,1.1C193,82.6,191.5,82.1,191.5,82.1z"/>
						</g>
						<g id="XMLID_442_">
							<path id="XMLID_443_" class="st23" d="M189.9,83.3c0,0,0.1,1.6,0.8,1.1C191.4,83.9,189.9,83.3,189.9,83.3z"/>
						</g>
						<g id="XMLID_440_">
							<path id="XMLID_441_" class="st23" d="M188.3,84.6c0,0,0.1,1.6,0.8,1.1C189.9,85.1,188.3,84.6,188.3,84.6z"/>
						</g>
						<g id="XMLID_438_">
							<path id="XMLID_439_" class="st23" d="M194.2,77c0,0,0.1,1.6,0.8,1.1C195.7,77.5,194.2,77,194.2,77z"/>
						</g>
						<g id="XMLID_436_">
							<path id="XMLID_437_" class="st23" d="M192.6,78.3c0,0,0.1,1.6,0.8,1.1C194.1,78.8,192.6,78.3,192.6,78.3z"/>
						</g>
						<g id="XMLID_434_">
							<path id="XMLID_435_" class="st23" d="M191,79.5c0,0,0.1,1.6,0.8,1.1C192.5,80,191,79.5,191,79.5z"/>
						</g>
						<g id="XMLID_432_">
							<path id="XMLID_433_" class="st23" d="M189.4,80.7c0,0,0.1,1.6,0.8,1.1C191,81.3,189.4,80.7,189.4,80.7z"/>
						</g>
						<g id="XMLID_430_">
							<path id="XMLID_431_" class="st23" d="M187.8,82c0,0,0.1,1.6,0.8,1.1C189.4,82.5,187.8,82,187.8,82z"/>
						</g>
						<g id="XMLID_428_">
							<path id="XMLID_429_" class="st23" d="M186.2,83.2c0,0,0.1,1.6,0.8,1.1C187.8,83.7,186.2,83.2,186.2,83.2z"/>
						</g>
						<g id="XMLID_426_">
							<path id="XMLID_427_" class="st23" d="M184.7,83.8c0,0,0.1,1.6,0.8,1.1C186.2,84.4,184.7,83.8,184.7,83.8z"/>
						</g>
						<g id="XMLID_424_">
							<path id="XMLID_425_" class="st23" d="M195,73.4c0,0,0.1,1.6,0.8,1.1C196.5,73.9,195,73.4,195,73.4z"/>
						</g>
						<g id="XMLID_422_">
							<path id="XMLID_423_" class="st23" d="M196.4,75.9c0,0.1,0,0.1,0,0.2c0,0.1-0.1,0.2-0.2,0.2c-0.7,0.5-0.8-1.1-0.8-1.1
								S196.2,75.5,196.4,75.9z"/>
						</g>
						<g id="XMLID_420_">
							<path id="XMLID_421_" class="st23" d="M193.4,74.7c0,0,0.1,1.6,0.8,1.1C195,75.2,193.4,74.7,193.4,74.7z"/>
						</g>
						<g id="XMLID_418_">
							<path id="XMLID_419_" class="st23" d="M191.8,75.9c0,0,0.1,1.6,0.8,1.1C193.4,76.4,191.8,75.9,191.8,75.9z"/>
						</g>
						<g id="XMLID_416_">
							<path id="XMLID_417_" class="st23" d="M190.2,77.1c0,0,0.1,1.6,0.8,1.1C191.8,77.7,190.2,77.1,190.2,77.1z"/>
						</g>
						<g id="XMLID_414_">
							<path id="XMLID_415_" class="st23" d="M188.6,78.4c0,0,0.1,1.6,0.8,1.1C190.2,78.9,188.6,78.4,188.6,78.4z"/>
						</g>
						<g id="XMLID_412_">
							<path id="XMLID_413_" class="st23" d="M187,79.6c0,0,0.1,1.6,0.8,1.1C188.6,80.1,187,79.6,187,79.6z"/>
						</g>
						<g id="XMLID_410_">
							<path id="XMLID_411_" class="st23" d="M185.4,80.8c0,0,0.1,1.6,0.8,1.1C187,81.4,185.4,80.8,185.4,80.8z"/>
						</g>
						<g id="XMLID_408_">
							<path id="XMLID_409_" class="st23" d="M183.8,82.1c0,0,0.1,1.6,0.8,1.1C185.4,82.6,183.8,82.1,183.8,82.1z"/>
						</g>
						<g id="XMLID_406_">
							<path id="XMLID_407_" class="st23" d="M182.2,83.3c0,0,0.1,1.6,0.8,1.1C183.8,83.8,182.2,83.3,182.2,83.3z"/>
						</g>
						<g id="XMLID_404_">
							<path id="XMLID_405_" class="st23" d="M195.5,71.7c0,0.1-0.1,0.1-0.2,0.2c-0.7,0.5-0.8-1.1-0.8-1.1s0.5,0.2,0.8,0.5
								C195.5,71.4,195.6,71.5,195.5,71.7z"/>
						</g>
						<g id="XMLID_402_">
							<path id="XMLID_403_" class="st23" d="M192.9,72.1c0,0,0.1,1.6,0.8,1.1C194.5,72.6,192.9,72.1,192.9,72.1z"/>
						</g>
						<g id="XMLID_400_">
							<path id="XMLID_401_" class="st23" d="M191.3,73.3c0,0,0.1,1.6,0.8,1.1C192.9,73.8,191.3,73.3,191.3,73.3z"/>
						</g>
						<g id="XMLID_398_">
							<path id="XMLID_399_" class="st23" d="M189.7,74.5c0,0,0.1,1.6,0.8,1.1C191.3,75.1,189.7,74.5,189.7,74.5z"/>
						</g>
						<g id="XMLID_394_">
							<path id="XMLID_395_" class="st23" d="M188.1,75.8c0,0,0.1,1.6,0.8,1.1C189.7,76.3,188.1,75.8,188.1,75.8z"/>
						</g>
						<g id="XMLID_389_">
							<path id="XMLID_392_" class="st23" d="M186.5,77c0,0,0.1,1.6,0.8,1.1C188.1,77.5,186.5,77,186.5,77z"/>
						</g>
						<g id="XMLID_387_">
							<path id="XMLID_388_" class="st23" d="M184.9,78.2c0,0,0.1,1.6,0.8,1.1C186.5,78.8,184.9,78.2,184.9,78.2z"/>
						</g>
						<g id="XMLID_384_">
							<path id="XMLID_386_" class="st23" d="M183.4,79.5c0,0,0.1,1.6,0.8,1.1C184.9,80,183.4,79.5,183.4,79.5z"/>
						</g>
						<g id="XMLID_382_">
							<path id="XMLID_383_" class="st23" d="M181.8,80.7c0,0,0.1,1.6,0.8,1.1C183.3,81.2,181.8,80.7,181.8,80.7z"/>
						</g>
						<g id="XMLID_380_">
							<path id="XMLID_381_" class="st23" d="M180.2,82c0,0,0.1,1.6,0.8,1.1C181.7,82.5,180.2,82,180.2,82z"/>
						</g>
						<g id="XMLID_378_">
							<path id="XMLID_379_" class="st23" d="M192.1,69.7c0,0,0.1,1.6,0.8,1.1C193.7,70.2,192.1,69.7,192.1,69.7z"/>
						</g>
						<g id="XMLID_376_">
							<path id="XMLID_377_" class="st23" d="M190.5,70.9c0,0,0.1,1.6,0.8,1.1C192.1,71.5,190.5,70.9,190.5,70.9z"/>
						</g>
						<g id="XMLID_374_">
							<path id="XMLID_375_" class="st23" d="M188.9,72.2c0,0,0.1,1.6,0.8,1.1C190.5,72.7,188.9,72.2,188.9,72.2z"/>
						</g>
						<g id="XMLID_372_">
							<path id="XMLID_373_" class="st23" d="M187.4,73.4c0,0,0.1,1.6,0.8,1.1C188.9,73.9,187.4,73.4,187.4,73.4z"/>
						</g>
						<g id="XMLID_369_">
							<path id="XMLID_370_" class="st23" d="M185.8,74.6c0,0,0.1,1.6,0.8,1.1C187.3,75.2,185.8,74.6,185.8,74.6z"/>
						</g>
						<g id="XMLID_366_">
							<path id="XMLID_368_" class="st23" d="M184.2,75.9c0,0,0.1,1.6,0.8,1.1C185.7,76.4,184.2,75.9,184.2,75.9z"/>
						</g>
						<g id="XMLID_364_">
							<path id="XMLID_365_" class="st23" d="M182.6,77.1c0,0,0.1,1.6,0.8,1.1C184.1,77.6,182.6,77.1,182.6,77.1z"/>
						</g>
						<g id="XMLID_361_">
							<path id="XMLID_363_" class="st23" d="M181,78.3c0,0,0.1,1.6,0.8,1.1C182.5,78.9,181,78.3,181,78.3z"/>
						</g>
						<g id="XMLID_359_">
							<path id="XMLID_360_" class="st23" d="M179.4,79.6c0,0,0.1,1.6,0.8,1.1C180.9,80.1,179.4,79.6,179.4,79.6z"/>
						</g>
						<g id="XMLID_357_">
							<path id="XMLID_358_" class="st23" d="M192.5,68.2c-0.7,0.5-0.8-1.1-0.8-1.1s0.2,0.1,0.5,0.2l0,0c0.1,0.1,0.2,0.1,0.3,0.2
								l0,0C192.7,67.7,192.8,67.9,192.5,68.2z"/>
						</g>
						<g id="XMLID_355_">
							<path id="XMLID_356_" class="st23" d="M190,68.3c0,0,0.1,1.6,0.8,1.1C191.6,68.9,190,68.3,190,68.3z"/>
						</g>
						<g id="XMLID_346_">
							<path id="XMLID_354_" class="st23" d="M188.5,69.6c0,0,0.1,1.6,0.8,1.1C190,70.1,188.5,69.6,188.5,69.6z"/>
						</g>
						<g id="XMLID_344_">
							<path id="XMLID_345_" class="st23" d="M186.9,70.8c0,0,0.1,1.6,0.8,1.1C188.4,71.3,186.9,70.8,186.9,70.8z"/>
						</g>
						<g id="XMLID_342_">
							<path id="XMLID_343_" class="st23" d="M185.3,72c0,0,0.1,1.6,0.8,1.1C186.8,72.6,185.3,72,185.3,72z"/>
						</g>
						<g id="XMLID_340_">
							<path id="XMLID_341_" class="st23" d="M183.7,73.3c0,0,0.1,1.6,0.8,1.1C185.2,73.8,183.7,73.3,183.7,73.3z"/>
						</g>
						<g id="XMLID_338_">
							<path id="XMLID_339_" class="st23" d="M182.1,74.5c0,0,0.1,1.6,0.8,1.1C183.6,75,182.1,74.5,182.1,74.5z"/>
						</g>
						<g id="XMLID_336_">
							<path id="XMLID_337_" class="st23" d="M180.5,75.8c0,0,0.1,1.6,0.8,1.1C182,76.3,180.5,75.8,180.5,75.8z"/>
						</g>
						<g id="XMLID_334_">
							<path id="XMLID_335_" class="st23" d="M178.9,77c0,0,0.1,1.6,0.8,1.1C180.4,77.5,178.9,77,178.9,77z"/>
						</g>
						<g id="XMLID_332_">
							<path id="XMLID_333_" class="st23" d="M177.3,78.2c0,0,0.1,1.6,0.8,1.1C178.8,78.7,177.3,78.2,177.3,78.2z"/>
						</g>
						<g id="XMLID_330_">
							<path id="XMLID_331_" class="st23" d="M187.7,67.2c0,0,0.1,1.6,0.8,1.1C189.2,67.7,187.7,67.2,187.7,67.2z"/>
						</g>
						<g id="XMLID_328_">
							<path id="XMLID_329_" class="st23" d="M186.1,68.4c0,0,0.1,1.6,0.8,1.1C187.6,69,186.1,68.4,186.1,68.4z"/>
						</g>
						<g id="XMLID_326_">
							<path id="XMLID_327_" class="st23" d="M184.5,69.7c0,0,0.1,1.6,0.8,1.1C186,70.2,184.5,69.7,184.5,69.7z"/>
						</g>
						<g id="XMLID_324_">
							<path id="XMLID_325_" class="st23" d="M182.9,70.9c0,0,0.1,1.6,0.8,1.1C184.4,71.4,182.9,70.9,182.9,70.9z"/>
						</g>
						<g id="XMLID_322_">
							<path id="XMLID_323_" class="st23" d="M181.3,72.1c0,0,0.1,1.6,0.8,1.1C182.8,72.7,181.3,72.1,181.3,72.1z"/>
						</g>
						<g id="XMLID_320_">
							<path id="XMLID_321_" class="st23" d="M179.7,73.4c0,0,0.1,1.6,0.8,1.1C181.2,73.9,179.7,73.4,179.7,73.4z"/>
						</g>
						<g id="XMLID_318_">
							<path id="XMLID_319_" class="st23" d="M178.1,74.6c0,0,0.1,1.6,0.8,1.1C179.6,75.1,178.1,74.6,178.1,74.6z"/>
						</g>
					</g>
					<path id="XMLID_316_" class="st24" d="M181.5,65.5c0,0-0.7,1.4,0.2,3.4c0,0.1,0.1,0.2,0.1,0.3c0.1,0.1,0.1,0.2,0.2,0.4
						l-0.5,0.4c0,0-0.1-0.1-0.2-0.3c-0.1-0.1-0.1-0.2-0.2-0.3c-0.1-0.1-0.2-0.2-0.2-0.4c-0.5-0.9-1.1-2.3-0.8-3.7
						C180.1,65.3,180.7,65,181.5,65.5z"/>
					<path id="XMLID_315_" class="st24" d="M186.5,69.7c-2.1-0.7-3.6-0.4-3.6-0.4c1.8,1.2,1,2.4,1,2.4c0.1-1.2-1.6-1.9-1.6-1.9
						s0,0.2,0,0.4c0,0.7,0,2.3,0.7,3.4c0,0-1.4-1.3-1.8-2.9c0,0.1-0.7,1.4-0.5,3.6c0,0-0.9-1.3-0.5-3.2c0,0-1.2,0.8-2.3,2.7
						c0-0.1,0.3-1.3,1.3-2.8c0.5-0.7,1.1-1.4,2-2.1h0.1c0.1-0.1,0.2-0.2,0.4-0.3c0.7-0.5,1.4-0.8,2-1.1c1.7-0.7,3-0.7,3.1-0.7
						c-2.1,0.6-3.2,1.5-3.2,1.5C185.5,68.6,186.5,69.7,186.5,69.7z"/>
					<path class="st25" d="M194.1,72.2c-0.5-2.8-2.9-4.7-5.7-4.8c-1,0-1,1.6,0,1.6c2.1,0.1,3.8,1.5,4.1,3.6
						C192.8,73.6,194.3,73.2,194.1,72.2z"/>
					<path class="st25" d="M194,73.9c-1,0-1,1.6,0,1.6C195,75.4,195,73.9,194,73.9z"/>
				</g>
			</g>
			<g id="XMLID_294_">
				<g id="XMLID_295_">
					<path id="XMLID_311_" class="st26" d="M254.1,61c-0.2,0.2-0.3,0.4-0.4,0.6c-0.2,0.3-0.3,0.5-0.3,0.5s0.1-0.2,0.3-0.5
						c0.1-0.2,0.2-0.4,0.3-0.6c0.1-0.2,0.2-0.5,0.4-0.8c0.1-0.3,0.3-0.6,0.4-1s0.2-0.7,0.3-1.1c0-0.2,0.1-0.4,0.1-0.6
						s0.1-0.4,0.1-0.6l0,0c0-0.4,0.1-0.9,0.1-1.3s0-0.9,0-1.3s-0.1-0.8-0.2-1.2c-0.1-0.4-0.2-0.8-0.3-1.1c-0.1-0.3-0.2-0.7-0.3-1
						c-0.2-0.6-0.5-1.1-0.6-1.4c-0.1-0.2-0.2-0.3-0.2-0.3c-0.1-0.1-0.1-0.1-0.1-0.1l1.4-0.8c0,0,0,0.1,0.1,0.2s0.1,0.3,0.2,0.5
						c0.2,0.4,0.4,1,0.5,1.6c0.1,0.3,0.2,0.7,0.2,1.1c0.1,0.4,0.1,0.8,0.1,1.3c0,0.4,0.1,0.9,0,1.3v0.1c0,0.2,0,0.4,0,0.6
						s0,0.5-0.1,0.7c0,0.1,0,0.1,0,0.2c0,0.4-0.2,0.8-0.2,1.1l-0.1,0.3c-0.1,0.3-0.2,0.7-0.3,1c-0.1,0.4-0.3,0.8-0.5,1.1
						c-0.1,0.4-0.4,0.7-0.5,1C254.4,60.5,254.3,60.7,254.1,61z"/>
					<path id="XMLID_310_" class="st19" d="M237,88.4c-14.7-8.6-7.5-21.3,2.6-24.3c5.6-1.7,8.6-11.4,15.7-7.4c0.1,0,0.1,0.1,0.2,0.1
						c0.1,0.1,0.3,0.2,0.4,0.2c6.5,4.3-0.3,11.6,1,17.2C259.2,84.5,251.3,96.7,237,88.4z"/>
					<g>
						<path class="st27" d="M251.2,57c-3,0.9-4.6,4.2-6.8,6.2c-2.9,2.6-7.1,2.9-9.7,5.7c-0.8,0.9,0.5,2.2,1.3,1.3
							c2.3-2.4,6-2.7,8.6-4.7c2.3-1.8,4.3-5.9,7.1-6.7C252.8,58.4,252.3,56.7,251.2,57L251.2,57z"/>
					</g>
					<path class="st28" d="M255.9,57.1c-0.1-0.1-0.3-0.2-0.4-0.2s-0.1-0.1-0.2-0.1c-0.2-0.1-0.5-0.2-0.7-0.4c1.5,4-0.8,7.5-2.1,11.2
						c-1.2,3.5-1.1,7.2-1.7,10.8s-2.1,7.1-5.7,8.6c-3.7,1.6-7.6,0.7-11.2-0.7c0.9,0.7,1.9,1.4,3,2.1c14.3,8.4,22.2-3.9,19.9-14.1
						C255.6,68.6,262.4,61.3,255.9,57.1z"/>
					<path id="XMLID_297_" class="st29" d="M261.7,53c0,0-2.5,3.4-5.2,1.9c-0.1-0.1-0.2-0.1-0.3-0.2c-0.1,0-0.1-0.1-0.2-0.1
						c0.1-0.2,0.1-0.3,0.2-0.4c0.4-0.7,0.9-1.2,1.6-1.4C259.5,52.1,261.7,53,261.7,53z"/>
				</g>
			</g>
			<g id="XMLID_269_">
				<g id="XMLID_270_">
					<path id="XMLID_292_" class="st26" d="M265.1,58.3c0,0.3,0,0.5,0,0.7c0,0.4,0,0.6,0,0.6s0-0.2-0.1-0.6c0-0.2-0.1-0.4-0.1-0.7
						c0-0.3-0.1-0.6-0.2-0.9c-0.1-0.3-0.1-0.7-0.3-1c-0.1-0.4-0.2-0.7-0.4-1.1c-0.1-0.2-0.2-0.4-0.3-0.5c-0.1-0.2-0.2-0.4-0.3-0.6
						l0,0c-0.2-0.4-0.4-0.8-0.7-1.1c-0.3-0.4-0.5-0.7-0.8-1s-0.6-0.6-0.8-0.9c-0.3-0.3-0.6-0.5-0.9-0.8c-0.3-0.2-0.6-0.4-0.8-0.6
						c-0.5-0.4-1-0.6-1.3-0.8c-0.2-0.1-0.3-0.1-0.4-0.2c-0.1,0-0.1-0.1-0.1-0.1l0.7-1.5c0,0,0.1,0,0.2,0.1c0.1,0.1,0.3,0.1,0.4,0.3
						c0.4,0.2,0.9,0.6,1.4,1c0.3,0.2,0.5,0.5,0.8,0.8s0.6,0.6,0.8,0.9c0.3,0.3,0.6,0.7,0.8,1.1c0,0,0,0.1,0.1,0.1
						c0.1,0.1,0.2,0.3,0.3,0.5s0.2,0.4,0.3,0.6c0,0.1,0.1,0.1,0.1,0.2c0.2,0.3,0.3,0.7,0.5,1.1l0.1,0.3c0.1,0.3,0.2,0.7,0.3,1
						c0.1,0.4,0.2,0.8,0.3,1.2c0.1,0.4,0.1,0.8,0.2,1.1C265.1,57.8,265.2,58.1,265.1,58.3z"/>
					<path id="XMLID_291_" class="st19" d="M267,90.7c-16.9,1.5-18.4-13-11.9-21.3c3.6-4.6,0.5-14.3,8.5-15.1c0.1,0,0.1,0,0.2,0
						c0.2,0,0.3,0,0.5,0c7.8-0.3,6.4,9.6,10.8,13.4C282.9,74.6,283.5,89.2,267,90.7z"/>
					<g>
						<path class="st27" d="M260.4,56.9c-2,2.4-1.3,6.1-1.9,9c-0.8,3.8-4.1,6.4-4.6,10.3c-0.2,1.2,1.6,1.5,1.8,0.3
							c0.5-3.3,3.3-5.7,4.3-8.9c0.8-2.8,0.1-7.3,1.9-9.6C262.6,57.1,261.2,55.9,260.4,56.9L260.4,56.9z"/>
					</g>
					<path class="st28" d="M264.3,54.2c-0.2,0-0.3,0-0.5,0c-0.1,0-0.2,0-0.2,0c-0.3,0-0.5,0.1-0.8,0.1c3.5,2.4,3.7,6.6,4.8,10.3
						c1.1,3.6,3.3,6.5,4.9,9.8c1.6,3.3,2.4,7,0.4,10.3c-2.1,3.4-5.8,5-9.5,5.9c1.1,0.1,2.3,0.1,3.7-0.1c16.5-1.5,15.9-16,8-23
						C270.7,63.8,272.1,53.9,264.3,54.2z"/>
					<path id="XMLID_272_" class="st29" d="M266.7,47.5c0,0,0,4.2-3.1,4.6c-0.1,0-0.2,0-0.4,0c-0.1,0-0.1,0-0.2,0
						c0-0.2-0.1-0.3-0.1-0.5c-0.1-0.8,0.1-1.5,0.5-2C264.4,48,266.7,47.5,266.7,47.5z"/>
				</g>
			</g>
			<g id="XMLID_225_">
				<g id="XMLID_227_">
					<g id="XMLID_267_">
						<path id="XMLID_268_" class="st30" d="M314.9,63.8c0,0-0.1-0.3-0.2-0.7c-0.1-0.2-0.1-0.5-0.2-0.8c-0.1-0.3-0.2-0.7-0.4-1
							c-0.2-0.4-0.3-0.8-0.5-1.2c-0.2-0.4-0.4-0.8-0.6-1.3c-0.2-0.3-0.4-0.6-0.6-1c-0.1-0.1-0.1-0.2-0.2-0.3
							c-0.2-0.2-0.3-0.4-0.5-0.7c-0.1-0.2-0.3-0.4-0.5-0.5c-0.4-0.4-0.7-0.8-1.1-1.1c-0.4-0.4-0.8-0.7-1.1-1
							c-0.4-0.3-0.8-0.5-1.1-0.8c-0.4-0.2-0.7-0.4-1.1-0.6c-0.7-0.4-1.3-0.6-1.7-0.7c-0.2-0.1-0.4-0.1-0.5-0.1s-0.2,0-0.2,0l0.6-1.9
							c0,0,0.1,0,0.2,0.1c0.1,0.1,0.3,0.1,0.6,0.2c0.5,0.2,1.1,0.5,1.8,1c0.4,0.2,0.7,0.5,1.1,0.8c0.4,0.3,0.8,0.6,1.1,1
							c0.4,0.4,0.8,0.7,1.1,1.2l0.1,0.1c0.2,0.2,0.3,0.3,0.4,0.5c0.2,0.2,0.3,0.4,0.5,0.7c0.1,0.2,0.3,0.4,0.4,0.6
							c0.1,0.2,0.2,0.4,0.3,0.5c0,0.1,0.1,0.2,0.2,0.3c0.3,0.5,0.5,1,0.7,1.4c0.2,0.5,0.3,0.9,0.5,1.4c0.2,0.4,0.2,0.9,0.3,1.3
							s0.2,0.7,0.2,1.1c0,0.3,0.1,0.6,0.1,0.8C314.8,63.5,314.9,63.8,314.9,63.8z"/>
						<path class="st29" d="M315,49.1c0,0-1.4,0.5-2.6,1.6c-1,0.9-1.8,2.2-1.3,3.9c0,0.2,0.1,0.4,0.2,0.5c0.1,0,0.2,0,0.3,0
							c0.3,0,0.6-0.1,0.9-0.2C315.5,53.7,315,49.1,315,49.1z"/>
						<path class="st14" d="M314,50.4c-0.3,0.4-0.6,0.9-0.9,1.4c-0.3,0.5-0.6,1.1-0.9,1.5c-0.2,0.4-0.4,0.7-0.4,0.7s0.2-0.2,0.5-0.6
							s0.6-0.9,0.9-1.4C313.6,51.4,313.9,50.9,314,50.4c0.3-0.3,0.5-0.6,0.5-0.6S314.3,50.1,314,50.4z"/>
					</g>
					<path id="XMLID_246_" class="st23" d="M328.3,72.8c0,8.8-7.1,15.9-15.9,15.9s-15.9-7.1-15.9-15.9c0-8.6,6.7-15.5,15.2-15.9
						c0.2,0,0.5,0,0.7,0c0.1,0,0.2,0,0.3,0C321.4,57,328.3,64.1,328.3,72.8z"/>
					<path class="st23" d="M308.3,60.1c-4.5,1.4-8.6,5.8-9.6,10.4c-0.3,1.4,1.9,2,2.2,0.6c0.8-3.9,4.3-7.7,8-8.8
						C310.3,61.9,309.7,59.7,308.3,60.1z"/>
					<path class="st23" d="M312,59.4c-0.6,0-1.1,0.5-1.1,1.1v0.1c0,0.6,0.5,1.2,1.1,1.1c0.6,0,1.1-0.5,1.1-1.1v-0.1
						C313.2,60,312.7,59.4,312,59.4z"/>
					<path class="st31" d="M328.3,72.8c0-1.7-0.3-3.4-0.8-5c-0.6,1.9-1.5,3.7-2.4,5.3c-2.6,4.6-7,6.3-12.1,6.9
						c-7.5,0.9-13.1-2.6-16.6-7.9c0,0.2,0,0.4,0,0.6c0,8.8,7.1,15.9,15.9,15.9S328.3,81.6,328.3,72.8z"/>
				</g>
			</g>
			<g id="XMLID_173_">
				<g id="XMLID_197_">
					<g>
						<path id="XMLID_11_" class="st26" d="M367.6,76l-0.6-1c0.1,0,8.5-5.1,8.5-14.2v-1.9l1.1,1.6c0.2,0.3,5.3,7.9,0.3,19.6
							l-1.1-0.5c3.3-7.8,1.9-13.7,0.8-16.5C375.4,71.4,367.9,75.8,367.6,76z"/>
					</g>
				</g>
				<path id="XMLID_196_" class="st11" d="M368.1,81.2c-2.2,1.9-5.5,1.8-7.4-0.4s-1.8-5.5,0.4-7.4s5.5-1.8,7.4,0.4
					C370.4,75.9,370.2,79.3,368.1,81.2z"/>
				<path id="XMLID_181_" class="st12" d="M368.4,76c-0.5,1-2,1.3-3.5,0.6s-2.3-2-1.8-3s2-1.3,3.5-0.6C368,73.7,368.8,75,368.4,76z"
					/>
				<path class="st13" d="M368.1,81.2c1.2-1.1,1.8-2.5,1.7-4c-0.1,0.1-0.2,0.3-0.4,0.4c-2.2,1.9-5.5,1.8-7.4-0.4
					c-0.9-1-1.3-2.2-1.3-3.4c-1.8,2-1.8,5,0,7.1C362.6,83,365.9,83.2,368.1,81.2z"/>
				<path id="XMLID_180_" class="st11" d="M378.6,87.3c-2.2,1.9-5.5,1.8-7.4-0.4s-1.8-5.5,0.4-7.4s5.5-1.8,7.4,0.4
					C381,82,380.8,85.4,378.6,87.3z"/>
				<path id="XMLID_179_" class="st12" d="M378.5,82.3c-0.5,1-2,1.3-3.5,0.6s-2.3-2-1.8-3s2-1.3,3.5-0.6
					C378.1,79.9,378.9,81.3,378.5,82.3z"/>
				<path class="st13" d="M378.6,87.3c1.1-1,1.7-2.4,1.7-3.8c-0.2,0.2-0.3,0.4-0.5,0.5c-2.2,1.9-5.5,1.8-7.4-0.4
					c-0.9-1-1.4-2.3-1.3-3.6c-1.7,2-1.7,4.9,0.1,6.9C373.2,89.1,376.5,89.2,378.6,87.3z"/>
				<g id="XMLID_177_">
					<path id="XMLID_178_" class="st29" d="M385.7,57.9c0,0-6.9-0.6-7.1,4.7C383.5,64.5,385.7,57.9,385.7,57.9z"/>
				</g>
				<g id="XMLID_175_">
					<path id="XMLID_176_" class="st29" d="M372.9,51c0,0-3.4,9.5,3.9,11.9C381.4,56.6,372.9,51,372.9,51z"/>
				</g>
			</g>
			<g>
				<g>
					<g>
						<g>
							<g>
								<path class="st32" d="M442.7,51.8c-1.9,0.5-3.2,2-3.2,3.7c1.2-1,2.7-1.8,4.5-2.2c2-0.5,4-0.4,5.6,0.1
									c-1.5-0.4-3.3-0.4-5.1,0c-1.5,0.3-2.8,1-3.9,1.7l0,0c-0.5,0.3-1.1,0.8-1.5,1.2c0.1,0.1,0.1,0.3,0.2,0.5v-0.1
									c0.1-0.2,0.3-0.3,0.4-0.4c0.5,1.7,2.5,2.8,4.6,2.3c2.9-0.7,4.5-5.1,7.1-4.5C451.4,54.1,448.1,50.5,442.7,51.8z"/>
								<path class="st33" d="M439.1,56.3c-0.8-1.6-1.9-2.3-2-2.4c-0.5-0.5-1.3-0.4-1.8,0.1s-0.4,1.3,0.1,1.8c0,0,2.3,1.3,1.9,5.3
									c0.4,0.1,0.8,0.2,0.9,0.4c0,0,0.6-0.2,1.6-0.4c0.1-1.8-0.1-3.2-0.6-4.3C439.2,56.6,439.1,56.5,439.1,56.3L439.1,56.3z"/>
							</g>
							<g>
								<path class="st34" d="M438.3,61.6c-0.2-0.1-0.5-0.3-0.9-0.4l0,0c-0.5-0.1-1.1-0.3-1.8-0.4c-0.5-0.1-0.9-0.1-1.3-0.2
									c-3.4-0.4-7.7,0-9.6,3.8c-3.2,6.5-1,15.4,4.5,19.3c4.9,3.5,8.6,2.2,9.3,1.9V61.5C438.3,61.5,438.3,61.6,438.3,61.6z"/>
								<path class="st35" d="M452.5,64.4c-1-1.9-2.6-3-4.4-3.5c0,0,0.1,0,0.1,0.1c0,0-0.1,0-0.1-0.1c-3-0.8-6.4-0.2-8.2,0.3l0,0
									c-0.7,0.2-1.2,0.3-1.5,0.4v24.1c0.1,0,0.1-0.1,0.1-0.1s4,2.1,9.5-1.8C453.5,79.8,455.7,70.9,452.5,64.4z"/>
							</g>
						</g>
					</g>
					<path class="st36" d="M435.5,67.1c-0.9-1.7-2.1-2.5-3.7-2.9c-2.6-0.7-6.1-0.2-7.7,0.2l0.3-0.3c-0.6,0.1-0.9,0.3-1.1,0.3
						c-0.1,0-0.2,0-0.2,0c-0.2-0.1-0.6-0.2-0.9-0.3l0,0c-0.4-0.1-0.8-0.2-1.4-0.3c-0.4-0.1-0.8-0.1-1.1-0.2c-3-0.3-6.9,0-8.5,3.4
						c-2.9,5.8-0.9,13.7,4,17.2c4.4,3.1,7.7,2,8.3,1.7c0.1,0,0.1-0.1,0.1-0.1s3.3,1.8,8.2-1.7C436.5,80.7,438.3,72.9,435.5,67.1z"/>
					<path class="st37" d="M423.4,71.2L423.4,71.2c0.1,0,1,0.5,1.8,1.3c0.7,0.6,1.4,1.5,1.3,2.4c-0.1,1.1-0.9,2.1-1.4,2.7
						c-0.7,0.7-1.3,1.2-1.3,1.2l-0.3,0.2l-0.3,0.1l-0.3-0.2c0,0-2.5-1.8-2.8-3.9c-0.1-0.9,0.7-1.8,1.3-2.4c0.8-0.8,1.8-1.3,1.8-1.3
						L423.4,71.2 M424.9,64.6l-1.8,0.4l0,0l-1.5-0.4c0,0,1,2.5,1,5.6c0,0-4,2.2-3.7,4.8c0.3,2.6,3.2,4.7,3.2,4.7s1.2,4,0.3,5.6h0.9
						v-0.1h0.7c-0.8-1.6,0.3-5.6,0.3-5.6s2.9-2.1,3.2-4.7c0.3-2.6-3.7-4.8-3.7-4.8C424,67.1,424.9,64.6,424.9,64.6L424.9,64.6z"/>
					<path class="st35" d="M428.9,64.2c1,0,2,0.1,2.8,0.3c0.8,0.2,1.5,0.6,2.1,1c0.7,0.5,1.2,1.1,1.5,1.8c0.7,1.3,1.1,2.8,1.2,4.4
						c0.1,1.5,0,3.1-0.3,4.6c-0.4,1.5-0.9,2.9-1.7,4.2s-1.8,2.4-2.9,3.1c-1,0.7-2.1,1.3-3.1,1.6c-0.8,0.3-1.6,0.4-2.4,0.4
						c-1.4,0-2.2-0.4-2.2-0.4l-0.3-0.1l-0.3,0.1c0,0-0.1,0-0.1,0.1l0,0l0,0c-0.2,0.1-1,0.4-2.2,0.4c-0.8,0-1.6-0.1-2.4-0.4
						c-1-0.3-2.1-0.9-3.1-1.6c-1.1-0.8-2.1-1.9-2.9-3.1c-0.8-1.3-1.4-2.7-1.7-4.2c-0.4-1.5-0.5-3.1-0.3-4.6c0.1-1.6,0.5-3.1,1.2-4.4
						c1-2.1,3.1-3.1,6.2-3.1c0.5,0,1.1,0,1.7,0.1c0.3,0,0.6,0.1,0.9,0.1h0.1c0.5,0.1,0.9,0.2,1.2,0.3c0.1,0,0.1,0,0.2,0h0.2
						c0.2,0.1,0.5,0.1,0.6,0.2l0.2,0.1h0.2c0.1,0,0.2,0,0.3-0.1c0.1,0,0.1,0,0.2-0.1c0,0,0,0,0.1,0l0,0l0.8-0.2
						C425.1,64.6,426.9,64.2,428.9,64.2 M428.8,63.5c-1.8,0-3.5,0.3-4.6,0.6l0,0c-0.6,0.1-0.9,0.3-1.1,0.3c-0.1,0-0.2,0-0.2,0
						c-0.2-0.1-0.6-0.2-0.9-0.3l0,0c-0.4-0.1-0.8-0.2-1.4-0.3c-0.4-0.1-0.7-0.1-1.1-0.2c-0.6-0.1-1.1-0.1-1.8-0.1
						c-2.6,0-5.4,0.7-6.8,3.5c-2.9,5.8-0.9,13.7,4,17.2c2.4,1.7,4.4,2.1,5.9,2.1c1.3,0,2.1-0.3,2.4-0.4c0.1,0,0.1-0.1,0.1-0.1
						s0.9,0.5,2.5,0.5c1.5,0,3.6-0.4,5.9-2.1c4.9-3.5,6.8-11.4,4-17.2c-0.9-1.7-2.5-2.7-4.1-3.1C430.8,63.6,429.8,63.5,428.8,63.5
						L428.8,63.5z"/>
					<path class="st38" d="M420.8,76c0.1-0.8,0.7-1.8,1.1-1.7c0.4,0.1,0.6,1.2,0.5,2s-0.5,0.9-0.9,0.8C421,77,420.7,76.7,420.8,76z"
						/>
					<path class="st38" d="M425.4,76c-0.1-0.8-0.7-1.8-1.1-1.7c-0.4,0.1-0.6,1.2-0.5,2s0.5,0.9,0.9,0.8
						C425.2,77,425.5,76.7,425.4,76z"/>
				</g>
				<path class="st39" d="M423.6,64.7L423.6,64.7c-0.3,0-0.5-0.3-0.5-0.6c0.1-2.9-1-3.6-1-3.6c-0.3-0.2-0.3-0.5-0.2-0.8
					c0.2-0.3,0.5-0.3,0.8-0.2c0.2,0.1,1.4,1,1.3,4.5C424,64.4,423.9,64.7,423.6,64.7z"/>
				<path class="st38" d="M423.1,85.3c0.9,0,1.1,1.3,1.1,1.3l-0.6-0.4l0.1,0.4l-0.3-0.4l-0.2,0.4l-0.2-0.4l-0.4,0.6v-0.6l-0.4,0.7
					C422.2,86.9,422.2,85.3,423.1,85.3z"/>
			</g>
			<g>
				<g>
					<ellipse class="st40" cx="498.3" cy="68.8" rx="15.6" ry="20.8"/>
					
						<ellipse transform="matrix(3.319450e-02 -0.9994 0.9994 3.319450e-02 421.3625 547.3297)" class="st41" cx="493.6" cy="55.9" rx="2.1" ry="2.1"/>
					<circle class="st41" cx="500.8" cy="56.1" r="2.1"/>
					<circle class="st41" cx="497.9" cy="51.6" r="2.1"/>
				</g>
				
					<ellipse transform="matrix(0.9163 -0.4005 0.4005 0.9163 9.739 199.6102)" class="st42" cx="482.4" cy="76.5" rx="13.8" ry="13.8"/>
				<g>
					<path class="st43" d="M482.6,64c1.7,0,3.3,0.3,4.9,1c1.5,0.6,2.8,1.5,4,2.7c1.1,1.1,2,2.5,2.7,4s1,3.2,1,4.9s-0.3,3.3-1,4.9
						c-0.6,1.5-1.5,2.8-2.7,4c-1.1,1.1-2.5,2-4,2.7s-3.2,1-4.9,1s-3.3-0.3-4.9-1c-1.5-0.6-2.8-1.5-4-2.7c-1.1-1.1-2-2.5-2.7-4
						s-1-3.2-1-4.9s0.3-3.3,1-4.9c0.6-1.5,1.5-2.8,2.7-4c1.1-1.1,2.5-2,4-2.7C479.3,64.3,480.9,64,482.6,64 M482.6,61.3
						c-8.3,0-15.1,6.8-15.1,15.1s6.8,15.1,15.1,15.1s15.1-6.8,15.1-15.1S491,61.3,482.6,61.3L482.6,61.3z"/>
					<path class="st41" d="M482.6,61.7c2,0,3.9,0.4,5.7,1.2c1.8,0.7,3.3,1.8,4.7,3.2c1.4,1.4,2.4,2.9,3.2,4.7
						c0.8,1.8,1.2,3.7,1.2,5.7s-0.4,3.9-1.2,5.7c-0.7,1.8-1.8,3.3-3.2,4.7s-2.9,2.4-4.7,3.2s-3.7,1.2-5.7,1.2s-3.9-0.4-5.7-1.2
						c-1.8-0.7-3.3-1.8-4.7-3.2s-2.4-2.9-3.2-4.7s-1.2-3.7-1.2-5.7s0.4-3.9,1.2-5.7c0.7-1.8,1.8-3.3,3.2-4.7
						c1.4-1.4,2.9-2.4,4.7-3.2C478.7,62.1,480.6,61.7,482.6,61.7 M482.6,61.3c-8.3,0-15.1,6.8-15.1,15.1s6.8,15.1,15.1,15.1
						s15.1-6.8,15.1-15.1S491,61.3,482.6,61.3L482.6,61.3z"/>
				</g>
			</g>
		</g>
	</g>
</g>
</svg>
