<?xml version="1.0" encoding="utf-8"?>
<!-- Generator: Adobe Illustrator 22.0.0, SVG Export Plug-In . SVG Version: 6.00 Build 0)  -->
<svg version="1.1" id="Layer_1" xmlns="http://www.w3.org/2000/svg" xmlns:xlink="http://www.w3.org/1999/xlink" x="0px" y="0px"
	 viewBox="0 0 389.1 101.7" style="enable-background:new 0 0 389.1 101.7;" xml:space="preserve">
<style type="text/css">
	.st0{display:none;}
	.st1{display:inline;fill:#F05F37;}
	.st2{display:inline;fill:#DAD731;}
	.st3{display:inline;fill:#E1C962;}
	.st4{fill:#F28727;}
	.st5{fill:#ECD975;}
	.st6{display:inline;fill:#A3C734;}
	.st7{display:inline;fill:#EAD96D;}
	.st8{display:inline;fill:#DDAE63;}
	.st9{display:inline;fill:#DCC36C;}
	.st10{display:inline;fill:#CDE1E8;}
	.st11{fill:#FFFFFF;}
	.st12{fill:#07A1C7;}
	.st13{fill:#28AECF;}
	.st14{fill:#F2F2F2;}
	.st15{fill:#5AC1DA;}
	.st16{opacity:0.46;}
	.st17{opacity:0.37;fill:#8D999C;enable-background:new    ;}
	.st18{fill:#BF8443;}
	.st19{fill:#FFF45F;}
	.st20{fill:#C4C4C4;}
	.st21{fill:#FFD833;}
	.st22{fill:#FFC20E;}
	.st23{fill:#FCAF17;}
	.st24{fill:#626868;}
	.st25{fill:#FFBC00;}
	.st26{fill:#7F7F7F;}
	.st27{fill:#CBE9F7;}
	.st28{fill:#663514;}
	.st29{fill:#B76821;}
	.st30{fill:#512508;}
	.st31{opacity:0.45;}
	.st32{fill:#CCCCCC;}
	.st33{opacity:0.57;}
	.st34{fill:#D59E6A;}
	.st35{fill:#FEEBC4;}
	.st36{fill:#E3E3E3;}
</style>
<g id="Capa_3">
	<g>
		<g class="st0">
			<polygon class="st1" points="237.9,-67.3 136.9,-67.3 183.9,-136.3 			"/>
		</g>
		<g class="st0">
			<polygon class="st2" points="302.9,11.7 77.9,11.7 130.9,-60.3 241.9,-60.3 			"/>
			<path class="st3" d="M244.9-56.1H128.8c-3.3,0-5.9-2.7-5.9-5.9v-1.3c0-3.3,2.7-5.9,5.9-5.9h116.1c3.3,0,5.9,2.7,5.9,5.9v1.3
				C250.9-58.8,248.2-56.1,244.9-56.1z"/>
		</g>
		<g>
			<polygon class="st4" points="389.9,98.7 2.9,98.7 70.9,18.7 310.9,18.7 			"/>
			<path class="st5" d="M314.3,23.2H67.4c-3.6,0-6.6-2.9-6.6-6.6v-8C60.8,5,63.7,2,67.4,2h246.8c3.6,0,6.6,2.9,6.6,6.6v8
				C320.9,20.2,317.9,23.2,314.3,23.2z"/>
		</g>
		<g class="st0">
			<polygon class="st6" points="492.9,201.7 -89.1,201.7 -8.1,110.7 400.9,110.7 			"/>
			<path class="st7" d="M404.4,116H-8.7c-4.1,0-7.5-3.3-7.5-7.5v-9.1c0-4.1,3.3-7.5,7.5-7.5h413.1c4.1,0,7.5,3.3,7.5,7.5v9.1
				C411.9,112.7,408.5,116,404.4,116z"/>
		</g>
		<g class="st0">
			<polygon class="st8" points="604.9,313.7 -187.1,313.7 -103.1,215.7 508.9,215.7 			"/>
			<path class="st9" d="M510.7,221H-109c-4.5,0-8.1-3.6-8.1-8.1V203c0-4.5,3.6-8.1,8.1-8.1h619.8c4.5,0,8.1,3.6,8.1,8.1v9.9
				C518.9,217.4,515.2,221,510.7,221z"/>
		</g>
		<g class="st0">
			<polygon class="st10" points="741.1,437.7 -300.7,437.7 -203.1,328.7 622.9,328.7 			"/>
			<path class="st9" d="M626.9,334.8h-835c-5,0-9-4-9-9v-10.9c0-5,4-9,9-9h835c5,0,9,4,9,9v10.9
				C635.9,330.8,631.8,334.8,626.9,334.8z"/>
		</g>
	</g>
</g>
<g id="Capa_8">
	<g>
		<path class="st11" d="M76.5,55.2v20.3c0,2.5-2,4.5-4.5,4.5H61.3c-2.5,0-4.5-2-4.5-4.5V55.2c0-2.5,2-4.5,4.4-4.5v-3.2h10.9v3.2
			C74.5,50.7,76.5,52.7,76.5,55.2z"/>
		<path class="st12" d="M72.5,46.6v1H60.8v-1c0-0.4,0.3-0.7,0.7-0.7h10.3C72.2,45.9,72.5,46.2,72.5,46.6z"/>
		<path class="st13" d="M73.3,48.4c0,0.4-0.3,0.7-0.7,0.7H60.8c-0.4,0-0.7-0.3-0.7-0.7c0-0.2,0.1-0.4,0.2-0.5s0.3-0.2,0.5-0.2h11.8
			C72.9,47.7,73.3,48,73.3,48.4z"/>
		<path class="st14" d="M77.6,57.8c0,0.4-0.3,0.8-0.8,0.8H56.5c-0.4,0-0.8-0.3-0.8-0.8v-0.4c0-0.4,0.3-0.8,0.8-0.8h20.3
			c0.4,0,0.8,0.3,0.8,0.8V57.8z"/>
		<path class="st14" d="M77.6,71.8c0,0.4-0.3,0.8-0.8,0.8H56.5c-0.4,0-0.8-0.3-0.8-0.8v-0.4c0-0.4,0.3-0.8,0.8-0.8h20.3
			c0.4,0,0.8,0.3,0.8,0.8V71.8z"/>
		<rect x="56.5" y="58.5" class="st15" width="20.3" height="12.2"/>
		<g>
			<g class="st16">
				<path class="st11" d="M72,66.3c-1.4-0.2-2.4-0.4-3.8,0.2c-0.5,0.2-0.8,0.5-1.2,0.8c0.4-2.5,1.9-4.7,4.5-5.3
					c1.8-0.4,4.2,0.5,3.8,2.7C75.1,66.3,73.3,66.5,72,66.3z"/>
			</g>
			<g class="st16">
				<path class="st11" d="M67.9,67.3c0.7-0.6,2.1-0.7,3-0.5c0.8,0.1,1.9,1,1.1,1.8C71,69.7,69.3,67.6,67.9,67.3z"/>
			</g>
			<g class="st16">
				<path class="st11" d="M66.5,66.3c-0.8-1-1-2.2-0.6-3.5c0.3-0.9,1.8-3.3,3-2.2c0.9,0.7-0.4,2.2-0.9,2.8
					C67.3,64.3,66.6,65.2,66.5,66.3z"/>
			</g>
			<g>
				<path class="st11" d="M61.3,67.3l0.7-3.4l-1.3,3.4h-1v-3l-0.9,3h-0.6l1.6-4.9c-0.7,0.2-1.1,0.8-1.1,1.6c0,0.4,0.1,0.4,0.1,0.5
					c-0.5,0-0.8-0.2-0.8-0.7c0-0.9,1.2-1.8,2.3-1.8c0.2,0,0.3,0,0.5,0.1v4.1l1.6-4.1h1.1l-1.1,5.2C62.4,67.3,61.3,67.3,61.3,67.3z"
					/>
				<path class="st11" d="M64.7,63.7l-0.5,2.4c0,0.1,0,0.2,0,0.2c0,0.2,0.1,0.3,0.4,0.3s0.7-0.4,0.9-0.6h0.2
					c-0.3,0.3-1.1,1.3-1.7,1.3c-0.5,0-0.9-0.2-0.9-0.8c0-0.1,0-0.2,0-0.4l0.5-2.4H64.7z M64.4,62.2c0.3,0,0.6,0.3,0.6,0.6
					c0,0.3-0.3,0.6-0.6,0.6c-0.3,0-0.6-0.2-0.6-0.6C63.8,62.5,64.1,62.2,64.4,62.2z"/>
				<path class="st11" d="M67,62.3l-0.8,3.8c0,0.1,0,0.2,0,0.2c0,0.2,0.1,0.3,0.4,0.3s0.7-0.4,0.9-0.6h0.2c-0.3,0.3-1.1,1.3-1.7,1.3
					c-0.5,0-0.9-0.2-0.9-0.8c0-0.1,0-0.2,0-0.4l0.8-3.7L67,62.3z"/>
				<path class="st11" d="M70.5,63.7l-1.4,1c0.1,0,0.1,0,0.2,0c0.4,0,0.8,0.4,0.8,0.9c0,0,0,0.1,0,0.2L70,66.2
					c0,0.1-0.1,0.2-0.1,0.3c0,0.1,0.1,0.2,0.3,0.2c0,0,0.1,0,0.2,0c-0.2,0.6-0.5,0.7-0.7,0.7c-0.5,0-0.7-0.3-0.7-0.8
					c0-0.1,0-0.2,0-0.4l0.1-0.3c0,0,0-0.1,0-0.2c0-0.2-0.1-0.4-0.3-0.4c-0.2,0-0.3,0-0.4,0.1L68,67.3h-1l1-4.8l1-0.1l-0.5,2.5
					c0.5-0.4,1.3-1.1,1.3-1.1L70.5,63.7L70.5,63.7z"/>
			</g>
		</g>
		<path class="st17" d="M76.8,58.5v12.2c0.4,0,0.8,0.3,0.8,0.8v0.4c0,0.4-0.3,0.8-0.8,0.8h-0.3v2.9c0,2.5-2,4.5-4.5,4.5h-3.1
			c1.5,0,2.7-2,2.7-4.5V55.3c0-2.5-1.2-4.5-2.7-4.5v-1.5h0.3c0.2,0,0.4-0.3,0.4-0.7c0-0.4-0.2-0.7-0.4-0.7l0,0v-1
			c0-0.4-0.2-0.7-0.4-0.7h3.1c0.4,0,0.7,0.3,0.7,0.7v1l0,0c0.4,0,0.7,0.3,0.7,0.7c0,0.4-0.3,0.7-0.7,0.7h-0.5v1.5
			c2.5,0,4.4,2.1,4.4,4.5v1.5h0.3c0.4,0,0.8,0.3,0.8,0.8V58C77.6,58.2,77.2,58.5,76.8,58.5z"/>
	</g>
	<g>
		<g>
			<path class="st18" d="M220,72.2h-43c-2.2,0-4-1.8-4-4l0,0c0-2.2,1.8-4,4-4h43c2.2,0,4,1.8,4,4l0,0C224,70.5,222.2,72.2,220,72.2z
				"/>
		</g>
		<g>
			<path class="st19" d="M210.1,66.9h-23.2c-4,0-7.2-3.3-7.2-7.2l0,0c0-4,3.3-7.2,7.2-7.2h23.2c4,0,7.2,3.3,7.2,7.2l0,0
				C217.3,63.7,214.1,66.9,210.1,66.9z"/>
		</g>
		<g>
			<path class="st20" d="M207,77.8c-1.6-0.4-3.3-0.6-4.9-0.7c-2.4-0.2-4.9-0.1-7.3,0.1c-2,0.1-2.8,0.3-5.2,0.6
				c-8.6,1.1-20.3,2.7-21.6-0.6c-0.1-0.2-0.2-0.7,0-1.4c0-1.5,1.2-2.8,2.8-2.8c9.1,0,21.6,0,37.3,0c0,0,20.3,0,20.3,2.3
				c0,0.1-0.1,0.6-0.4,0.9c-0.3,0.3-0.7,0.2-1.2,0.4c-0.8,0.3-0.7,0.8-1.4,1.2c-0.8,0.4-1.1,0-2,0.4c-0.8,0.4-0.7,0.7-1.4,1
				c-0.8,0.3-1.1-0.1-1.9,0.1c-0.7,0.3-0.6,0.6-1.3,0.7c-0.5,0.1-0.7-0.1-1.6-0.1c-0.1,0-0.3,0-0.4,0c-0.3,0-0.5,0.1-0.5,0.1
				c-0.7,0.2-2.5-0.1-2.5-0.1c-1.7-0.3-2.5-0.4-3-0.6c-0.6-0.3-0.7-0.4-1.9-1C208.3,78.3,207.7,78,207,77.8z"/>
		</g>
	</g>
	<g>
		<g>
			<path class="st19" d="M153.1,53.3v23.5c0,0.9-0.8,1.7-2.3,2.5v-5h-9v7.4c-4.2,0.7-9.4,1.1-14.9,1.1c-14.5,0-26.2-2.7-26.2-6V53.3
				C100.7,53.3,153.1,53.3,153.1,53.3z"/>
		</g>
		<g>
			<ellipse class="st21" cx="126.9" cy="53.3" rx="26.2" ry="6"/>
		</g>
		<g>
			<path class="st22" d="M150.8,79.3c-3-0.4-6-0.7-9-1.1c0-1.2,0-2.3-0.1-3.5c0-0.8,0-1.6-0.1-2.4c-0.1-4.7-0.2-9.4-0.3-14.1
				c-4.3-1.6-8.6-3.3-13-4.9c-0.5-0.2-1-0.4-1.5-0.6c1.4,0.2,2.8,0.4,4.2,0.6c6.5,0.9,13,1.8,19.5,2.6
				C150.7,63.8,150.8,71.6,150.8,79.3z"/>
		</g>
		<g>
			<circle class="st21" cx="126.8" cy="67" r="3.1"/>
		</g>
		<g>
			<ellipse class="st21" cx="120.2" cy="78" rx="2.4" ry="2.4"/>
		</g>
		<g>
			<circle class="st21" cx="106.2" cy="76.3" r="1.7"/>
		</g>
		<g>
			<circle class="st21" cx="116.9" cy="69.5" r="1.7"/>
		</g>
		<g>
			
				<ellipse transform="matrix(0.9735 -0.2288 0.2288 0.9735 -11.203 28.5946)" class="st21" cx="117.7" cy="62.6" rx="1.7" ry="1.7"/>
		</g>
		<g>
			<path class="st21" d="M153.1,60.1v3.5c-1,0-1.7-0.8-1.7-1.7C151.4,60.9,152.2,60.1,153.1,60.1z"/>
		</g>
		<g>
			<path class="st21" d="M100.8,59.4c0.2-0.1,0.5-0.2,0.8-0.2c1,0,1.7,0.8,1.7,1.7c0,1-0.8,1.7-1.7,1.7c-0.3,0-0.6-0.1-0.8-0.2V59.4
				z"/>
		</g>
		<g>
			<path class="st21" d="M134.5,65.7c0,1,0.8,1.7,1.7,1.7c1,0,1.7-0.8,1.7-1.7c0-1-0.8-1.7-1.7-1.7
				C135.3,63.9,134.5,64.7,134.5,65.7z"/>
		</g>
		<g>
			<path class="st23" d="M144.8,65.7c0,1.3,1,2.3,2.3,2.3s2.3-1,2.3-2.3s-1-2.3-2.3-2.3S144.8,64.4,144.8,65.7z"/>
		</g>
		<g>
			<circle class="st23" cx="144.3" cy="58.1" r="1"/>
		</g>
		<g>
			<circle class="st23" cx="148.2" cy="75.4" r="1"/>
		</g>
		<g>
			<path class="st23" d="M143.1,73.6c0,0.7-0.5,1.2-1.2,1.2c0,0,0,0-0.1,0c0-0.8,0-1.6-0.1-2.4h0.1
				C142.5,72.3,143.1,72.9,143.1,73.6z"/>
		</g>
		<g>
			
				<ellipse transform="matrix(0.9821 -0.1884 0.1884 0.9821 -10.4351 21.5846)" class="st21" cx="108.3" cy="65.7" rx="3.8" ry="3.8"/>
		</g>
		<g>
			<circle class="st21" cx="134.1" cy="75.4" r="3.8"/>
		</g>
		<g>
			
				<ellipse transform="matrix(1.300408e-02 -0.9999 0.9999 1.300408e-02 64.2823 170.2092)" class="st23" cx="118.4" cy="52.5" rx="1.3" ry="4.4"/>
		</g>
		<g>
			<path class="st23" d="M129.8,51.5c-2.4,0-4.4-0.7-4.4-1.4c0-0.7,2-1.3,4.4-1.3c2.4,0,4.4,0.7,4.4,1.4
				C134.2,50.9,132.3,51.5,129.8,51.5z"/>
		</g>
		<g>
			
				<ellipse transform="matrix(1.300447e-02 -0.9999 0.9999 1.300447e-02 91.8195 198.0609)" class="st23" cx="146.2" cy="52.5" rx="1.3" ry="4.4"/>
		</g>
		<g>
			<path class="st23" d="M125.5,57c-1.1,0-1.9-0.3-1.9-0.6c0-0.3,0.9-0.6,1.9-0.6c1.1,0,1.9,0.3,1.9,0.6
				C127.4,56.8,126.6,57,125.5,57z"/>
		</g>
		<g>
			<path class="st23" d="M108.3,56.4c-1.1,0-1.9-0.3-1.9-0.6c0-0.3,0.9-0.6,1.9-0.6c1.1,0,1.9,0.3,1.9,0.6
				C110.2,56.2,109.4,56.4,108.3,56.4z"/>
		</g>
		<g>
			<path class="st23" d="M137.4,51.9c-1.1,0-1.9-0.3-1.9-0.6c0-0.3,0.9-0.6,1.9-0.6c1.1,0,1.9,0.3,1.9,0.6
				C139.3,51.6,138.5,51.9,137.4,51.9z"/>
		</g>
		<g>
			<path class="st23" d="M121.7,50c-1.1,0-1.9-0.3-1.9-0.6c0-0.3,0.9-0.6,1.9-0.6c1.1,0,1.9,0.3,1.9,0.6S122.8,50,121.7,50z"/>
		</g>
		<g>
			<path class="st23" d="M107.9,52.7c-1.5,0-2.7-0.4-2.7-0.9s1.2-0.8,2.7-0.8s2.7,0.4,2.7,0.9S109.4,52.7,107.9,52.7z"/>
		</g>
	</g>
	<g>
		<g>
			<path class="st24" d="M278.7,46.8l-0.5-1.8l-9,2.3c-0.4,0.1-1.4,0.2-1.3,0.8l0.3,1.4L278.7,46.8z"/>
			<path class="st25" d="M274.9,48l-0.5-2.1c0-0.1,0-0.3,0.2-0.3l10.9-2.8c1.7-0.4,2.4,2.2,0.7,2.6l-10.9,2.8
				C275,48.2,274.9,48.1,274.9,48z"/>
			<path class="st26" d="M266.5,52.2c-0.9,0.2-1.9,0.2-2.7,0c-1.3-0.4-2.3-1.2-2.6-2.4l4.6-1.2l4.1-1.1
				C270.5,49.5,268.9,51.6,266.5,52.2z"/>
		</g>
		<path class="st27" d="M265.9,48.7c-0.8,0.8-1.5,2.1-2.1,3.5c-1.6,4.2-2,9.7-2,9.7h-10.1c1.8-9.7,9.6-12.1,9.6-12.1L265.9,48.7
			L265.9,48.7z"/>
		<g>
			<path class="st28" d="M257.8,62.8v14.8h-7c-5.4-2.7-9-8.4-8.6-14.8H257.8z"/>
			<rect x="250.8" y="77.6" class="st29" width="7" height="2.4"/>
			<path class="st30" d="M264.8,77.6h-7V62.8h15.6C273.8,69.2,270.3,74.9,264.8,77.6z"/>
			<rect x="257.8" y="77.6" class="st28" width="7" height="2.4"/>
			<path class="st29" d="M273.3,63.7h-30.9c-1.2,0-1.1-1.7,0-1.7h30.9C274.4,61.9,274.5,63.7,273.3,63.7z"/>
		</g>
		<g>
			<path class="st28" d="M254,59.8c0,0.8-0.6,1.4-1.4,1.4c-0.8,0-1.4-0.6-1.4-1.4s0.6-1.4,1.4-1.4S254,59,254,59.8z"/>
			<path class="st28" d="M257.6,59.8c0,0.8-0.6,1.4-1.4,1.4c-0.8,0-1.4-0.6-1.4-1.4s0.6-1.4,1.4-1.4C256.9,58.4,257.6,59,257.6,59.8
				z"/>
			<path class="st28" d="M261.2,59.8c0,0.8-0.6,1.4-1.4,1.4s-1.4-0.6-1.4-1.4s0.6-1.4,1.4-1.4S261.2,59,261.2,59.8z"/>
			<path class="st28" d="M264.7,59.8c0,0.8-0.6,1.4-1.4,1.4c-0.8,0-1.4-0.6-1.4-1.4s0.6-1.4,1.4-1.4C264.1,58.4,264.7,59,264.7,59.8
				z"/>
		</g>
		<g>
			<path class="st28" d="M255.8,56.3c0,0.8-0.6,1.4-1.4,1.4c-0.8,0-1.4-0.6-1.4-1.4s0.6-1.4,1.4-1.4
				C255.1,54.8,255.8,55.5,255.8,56.3z"/>
			<path class="st28" d="M259.4,56.3c0,0.8-0.6,1.4-1.4,1.4c-0.8,0-1.4-0.6-1.4-1.4s0.6-1.4,1.4-1.4
				C258.7,54.8,259.4,55.5,259.4,56.3z"/>
			<path class="st28" d="M262.9,56.3c0,0.8-0.6,1.4-1.4,1.4c-0.8,0-1.4-0.6-1.4-1.4s0.6-1.4,1.4-1.4
				C262.3,54.8,262.9,55.5,262.9,56.3z"/>
		</g>
		<g>
			<path class="st28" d="M257.6,52.7c0,0.8-0.6,1.4-1.4,1.4c-0.8,0-1.4-0.6-1.4-1.4s0.6-1.4,1.4-1.4
				C256.9,51.3,257.6,51.9,257.6,52.7z"/>
			<path class="st28" d="M261.2,52.7c0,0.8-0.6,1.4-1.4,1.4s-1.4-0.6-1.4-1.4s0.6-1.4,1.4-1.4S261.2,51.9,261.2,52.7z"/>
		</g>
		<path class="st28" d="M263.4,48c0,0.8-0.6,1.4-1.4,1.4c-0.8,0-1.4-0.6-1.4-1.4s0.6-1.4,1.4-1.4C262.7,46.5,263.4,47.2,263.4,48z"
			/>
		<path class="st28" d="M267.3,46.5c0,0.8-0.6,1.4-1.4,1.4c-0.8,0-1.4-0.6-1.4-1.4s0.6-1.4,1.4-1.4
			C266.6,45.1,267.3,45.7,267.3,46.5z"/>
		<path class="st29" d="M247.9,66.7c0,0.7-0.6,1.3-1.3,1.3s-1.3-0.6-1.3-1.3c0-0.7,0.6-1.3,1.3-1.3C247.3,65.4,247.9,66,247.9,66.7z
			"/>
	</g>
	<g>
		<path class="st14" d="M330.3,63.7c-0.9-2.5-3.6-2.3-4.9-1.5c0.1-0.6,0.1-1.3,0.1-2H302c-0.4,11.2,5.6,12.7,5.6,15.8h12.1
			c0.2-2.7,3.3-3.4,4.6-7.9C329.3,70.1,331.1,65.8,330.3,63.7z M324.9,66.1c0.2-1.2,0.1-0.3,0.2-1.9c1.1-1.1,3.8-1.6,4.1,0.7
			C329.5,67.4,325,68.7,324.9,66.1z"/>
		<g class="st31">
			<path class="st32" d="M330.3,63.7c-0.9-2.5-3.6-2.3-4.9-1.5c0.1-0.6,0.1-1.3,0.1-2h-4.4c0,3.4-0.3,6.6-2.4,9.5
				c-1.1,1.6-4.5,3.9-3.8,6.3h4.8c0.2-2.7,3.3-3.4,4.6-7.9C329.3,70.1,331.1,65.8,330.3,63.7z M324.9,66.1c0.2-1.2,0.1-0.3,0.2-1.9
				c1.1-1.1,3.8-1.6,4.1,0.7C329.5,67.4,325,68.7,324.9,66.1z"/>
		</g>
		<g class="st33">
			<path class="st11" d="M311.8,52.1c-0.7,1.9-0.1,3,1,4.3c-3.4-1.6-3.2-5.6-1.1-7.8c1.8-1.8,3.8-4.6,1.8-6.5
				c2.5,1.3,2.3,4.3,1.3,6.2C313.9,49.6,312.4,50.7,311.8,52.1z"/>
		</g>
		<g class="st33">
			<path class="st11" d="M318.4,51.8c-1.5,1.5-2.8,2.5-3,3.9c-1.4-1.8-0.4-3.6,1.5-5.5c1.1-1,2-2.3,1.7-3.6
				C319.8,48.1,319.8,50.4,318.4,51.8z"/>
		</g>
		<path class="st34" d="M324.1,60.2h-20.8c0.1-0.5,0.1-1,0.4-1.1c0.4-0.3,1.2,0,1.7,0c0.7,0.1,1.2,0.2,1.9-0.1
			c0.6-0.2,1.1-0.4,1.7-0.5c0.7-0.1,1.2-0.3,1.9-0.4c0.9-0.2,1.4,0.2,2.2,0.5c0.7,0.3,1.2,0.2,1.9,0.1c0.6-0.1,1.2,0,1.8-0.1
			c1-0.3,1.6-0.7,2.6-0.4c0.9,0.3,1.1,0.7,2,0.4c1-0.3,1.1,0.1,1.9,0.7c0.3,0.2,0.6,0.1,0.7,0.6C324.1,60,324.1,60.1,324.1,60.2z"/>
		<path class="st35" d="M319.3,58.2c0,0.3-0.3,0.6-0.6,0.6s-0.6-0.3-0.6-0.6c0-0.3,0.3-0.6,0.6-0.6
			C319.1,57.6,319.3,57.9,319.3,58.2z"/>
		<path class="st35" d="M320.8,58.5c0,0.3-0.3,0.6-0.6,0.6s-0.6-0.3-0.6-0.6c0-0.3,0.3-0.6,0.6-0.6
			C320.5,57.9,320.8,58.2,320.8,58.5z"/>
		<path class="st35" d="M310.7,58c0,0.4-0.4,0.8-0.8,0.8c-0.4,0-0.8-0.4-0.8-0.8s0.4-0.8,0.8-0.8C310.3,57.1,310.7,57.5,310.7,58z"
			/>
		<path class="st35" d="M309.2,58.7c0,0.3-0.2,0.5-0.5,0.5s-0.5-0.2-0.5-0.5s0.2-0.5,0.5-0.5C308.9,58.2,309.2,58.4,309.2,58.7z"/>
		<path class="st11" d="M330.7,74.1c0,1.4-3.5,2.6-8.7,3.3h-16.6c-5.2-0.6-8.7-1.9-8.7-3.3H330.7z"/>
		<polygon class="st36" points="320.4,78 307.1,78 305.4,77.3 322,77.3 		"/>
		<g class="st31">
			<path class="st32" d="M330.7,74.1c0,1.4-3.5,2.6-8.7,3.3h-5c2.9-0.5,5.9-0.8,7.7-3.3H330.7z"/>
		</g>
		<path class="st11" d="M310.1,60.2c-0.6,1.5-0.7,3.9-2.1,4.2c-2.5,0.6-3.4-2.2-3.6-4.2H310.1z"/>
		<polygon class="st11" points="306.7,53.4 307.5,54.9 308.9,55.7 307.5,56.5 306.7,58 305.9,56.5 304.4,55.7 305.9,54.9 		"/>
		<polygon class="st11" points="302.9,55.6 303.4,56.6 304.4,57.1 303.4,57.7 302.9,58.7 302.4,57.7 301.4,57.1 302.4,56.6 		"/>
	</g>
</g>
</svg>
